<?xml version="1.0" encoding="UTF-8"?>
<!DOCTYPE svg PUBLIC "-//W3C//DTD SVG 1.0//EN" "http://www.w3.org/TR/2001/REC-SVG-20010904/DTD/svg10.dtd">
<!-- Creator: CorelDRAW 2018 (64 Bit Versão de avaliação) -->
<svg xmlns="http://www.w3.org/2000/svg" xml:space="preserve" width="34px" height="97px" version="1.0" style="shape-rendering:geometricPrecision; text-rendering:geometricPrecision; image-rendering:optimizeQuality; fill-rule:evenodd; clip-rule:evenodd"
viewBox="0 0 34 95.26"
 xmlns:xlink="http://www.w3.org/1999/xlink">
 <defs>
  <style type="text/css">
   <![CDATA[
    .fil6 {fill:#F1F5F5;fill-rule:nonzero}
    .fil5 {fill:#DDE3E4;fill-rule:nonzero}
    .fil7 {fill:#CBD1D1;fill-rule:nonzero}
    .fil1 {fill:#C9CFCF;fill-rule:nonzero}
    .fil3 {fill:#C1C7C9;fill-rule:nonzero}
    .fil8 {fill:#B6BCBD;fill-rule:nonzero}
    .fil4 {fill:#AEB4B5;fill-rule:nonzero}
    .fil0 {fill:#A5ABAD;fill-rule:nonzero}
    .fil2 {fill:#2F3132;fill-rule:nonzero}
   ]]>
  </style>
 </defs>
 <g id="Camada_x0020_1">
  <metadata id="CorelCorpID_0Corel-Layer"/>
  <g id="_1668150964704">
   <path class="fil0" d="M33.98 83.25l0.01 -0.03 -0.01 -0.12c-0.01,-0.15 -0.02,-0.3 -0.02,-0.43l-0.02 -0.17 -0.02 -0.17 -0.03 -0.22c-0.03,-0.18 -0.08,-0.42 -0.11,-0.61l-0.13 -0.5c-0.04,-0.16 -0.11,-0.36 -0.16,-0.52l-0.03 -0.08 -0.02 -0.06 -0.05 -0.14 0.01 0.02 -0.07 -0.19 -0.07 -0.17c0.13,-0.46 0.25,-0.97 0.28,-1.54 0.03,-0.88 -0.08,-1.4 -0.17,-1.86 -0.04,-0.19 -0.11,-0.44 -0.18,-0.61 -0.09,-0.27 -0.24,-0.63 -0.36,-0.89 0.21,0.42 0.35,0.85 0.46,1.28 -0.23,-0.97 -0.71,-1.91 -1.45,-2.8 -0.15,-0.18 -0.34,-0.42 -0.49,-0.6l-0.25 -0.3c-0.15,-0.18 -0.35,-0.42 -0.5,-0.6 -0.14,-0.18 -0.34,-0.42 -0.49,-0.6l-0.25 -0.3c-0.15,-0.18 -0.35,-0.42 -0.5,-0.6 -0.14,-0.18 -0.34,-0.42 -0.49,-0.6l-0.25 -0.3c-0.15,-0.18 -0.34,-0.42 -0.5,-0.6l-0.23 -0.29 0.01 0.08c-0.09,-0.45 -0.19,-0.77 -0.23,-0.86 -0.13,-0.34 -0.21,-0.55 -0.37,-0.84 -0.22,-0.41 -0.32,-0.56 -0.61,-0.95 -0.17,-0.22 -0.41,-0.5 -0.6,-0.69l-0.33 -0.3c0.32,0.3 0.59,0.62 0.81,0.94 -0.24,-0.34 -0.52,-0.68 -0.87,-1l0.06 0.06 -0.06 -0.06 -0.03 -0.03 -0.17 -0.15 0 0.01 0.15 0.13 -0.17 -0.12c-0.85,-5.12 -2.38,-15.14 -2.82,-23.86 -0.03,-0.5 0.07,-0.88 0.18,-1.15l0.27 -0.13 0.07 -0.03 0.6 -0.31 0.39 -0.23 0.51 -0.34 -0.06 0.04c0.19,-0.13 0.37,-0.27 0.63,-0.48l0.42 -0.38c0.26,-0.25 0.26,-0.26 0.67,-0.76l0.28 -0.4c0.1,-0.16 0.23,-0.4 0.32,-0.57l0.17 -0.38 0.16 -0.43 0.1 -0.34 0.07 -0.32 0.06 -0.29 0.03 -0.24 0.03 -0.23 0.02 -0.18 0.02 -0.18 0.01 -0.13 0.02 -0.13 0 -0.02 0.02 -0.11c0.03,-0.19 0.04,-0.34 0.05,-0.48l-0.01 0.1c0.02,-0.18 0.02,-0.2 0.01,-0.57l-0.02 -0.28c-0.03,-0.24 -0.03,-0.24 -0.14,-0.72l-0.12 -0.35c-0.08,-0.18 -0.19,-0.42 -0.28,-0.6l-0.24 -0.38c-0.11,-0.16 -0.28,-0.37 -0.4,-0.52l-0.37 -0.39c-0.59,-0.58 -1.27,-1.01 -1.51,-1.16 0.55,-1.61 0.81,-3.46 0.81,-5.46 0,-4.35 -4.25,-11.88 -6.75,-15.94 1.04,-0.61 1.75,-1.73 1.75,-3.03 0,-1.94 -1.57,-3.51 -3.51,-3.51 -1.94,0 -3.52,1.57 -3.52,3.51 0,1.29 0.71,2.41 1.75,3.02 -0.08,0.14 -0.16,0.26 -0.24,0.4l-0.18 0.3 -0.52 0.89c-0.17,0.28 -0.38,0.66 -0.55,0.94l-0.54 0.97c-0.17,0.3 -0.39,0.71 -0.56,1.01l-0.54 1.02c-0.16,0.32 -0.38,0.74 -0.54,1.06l-0.51 1.04c-0.15,0.33 -0.35,0.77 -0.5,1.09l-0.45 1.04c-0.13,0.33 -0.31,0.77 -0.44,1.11l-0.35 0.99c-0.11,0.34 -0.24,0.81 -0.35,1.15l-0.22 0.92c-0.07,0.38 -0.14,0.9 -0.19,1.29l-0.04 0.78 0.01 0.44 0.02 0.43 0.01 0.28 0 0.01c0.01,0.24 0.04,0.55 0.06,0.79l0 0.08 0.04 0.29 0.03 0.34c0.02,0.13 0.05,0.28 0.07,0.43l0.02 0.15 0.04 0.22 0.14 0.69c0.06,0.25 0.15,0.57 0.22,0.82l0.05 0.15 0.01 0.03 0.07 0.21c-0.15,0.09 -0.31,0.19 -0.44,0.27l-0.53 0.38c-0.17,0.13 -0.38,0.31 -0.54,0.45l-0.4 0.4c-0.13,0.15 -0.3,0.37 -0.42,0.53l-0.27 0.41c-0.1,0.17 -0.22,0.42 -0.3,0.61l-0.14 0.39c-0.08,0.28 -0.09,0.32 -0.16,0.75l-0.02 0.35c-0.01,0.25 -0.01,0.28 0.02,0.64l0.04 0.28 0.03 0.24 0.01 0.11 0.02 0.17 0.02 0.17 0.03 0.24 0.03 0.22 0.06 0.31 0.06 0.28 0.12 0.42 0.12 0.33c0.07,0.17 0.18,0.39 0.25,0.56l0.21 0.36c0.15,0.23 0.37,0.53 0.54,0.75l0.25 0.28 -0.01 0 0.09 0.09c0.51,0.5 0.64,0.6 1.21,1.02l0.52 0.33c0.2,0.12 0.47,0.27 0.68,0.38l0.6 0.28 0.08 0.21c0.11,0.41 0.12,0.63 0.11,0.95 -0.4,8.69 -1.86,18.7 -2.68,23.83l-0.02 0.02 0 0 0.02 -0.01c-0.31,0.26 -0.56,0.54 -0.78,0.82 0.16,-0.2 0.32,-0.4 0.52,-0.6l-0.3 0.28c-0.16,0.16 -0.38,0.4 -0.52,0.58 -0.24,0.32 -0.37,0.49 -0.61,0.9 -0.23,0.38 -0.4,0.82 -0.4,0.82 -0.07,0.17 -0.18,0.47 -0.24,0.76l-0.06 0.25 -3.93 4.82c-0.31,0.39 -0.56,0.79 -0.78,1.19l-0.17 0.32 -0.08 0.16 0.05 -0.14 -0.1 0.23 -0.07 0.16c-0.06,0.16 -0.13,0.33 -0.18,0.47 -0.06,0.18 -0.12,0.42 -0.17,0.6 -0.06,0.25 -0.11,0.61 -0.14,0.87 -0.02,0.17 -0.03,0.39 -0.03,0.56 -0.01,0.17 0,0.39 0.01,0.56 0.03,0.26 0.07,0.6 0.12,0.86 0.04,0.21 0.1,0.42 0.16,0.61l-0.07 0.16 0 0c-0.06,0.16 -0.12,0.32 -0.18,0.51 -0.12,0.39 -0.17,0.56 -0.28,1.07l-0.09 0.5 -0.01 0.09 -0.01 0.08 -0.01 0.1c-0.01,0.16 -0.03,0.32 -0.04,0.45l-0.01 0.19 0 0.04 -0.01 0.33 0.01 1.98c0,1.79 0.85,3.57 2.54,5.15l0 0.01 0.05 0.04c0.38,0.35 0.82,0.69 1.29,1.02l0.14 0.11c0.23,0.16 0.46,0.31 0.71,0.45 0.76,0.46 1.59,0.86 2.46,1.21 0.28,0.12 0.58,0.21 0.88,0.31 0.45,0.16 0.89,0.35 1.37,0.48 0.15,0.05 0.32,0.07 0.48,0.11 0.34,0.09 0.69,0.16 1.04,0.24 0.35,0.08 0.69,0.18 1.05,0.24l0 -0.05c5.7,1 12.14,0.28 16.75,-2.29 3.48,-1.95 5.23,-4.54 5.22,-7.13l0 -1.98 -0.01 -0.14z"/>
   <path class="fil0" d="M0.01 85.47l-0.01 -1.98c0.01,2.44 1.58,4.89 4.73,6.78 6.5,3.92 17.26,4.02 24.03,0.25 3.49,-1.95 5.24,-4.54 5.23,-7.13l0 1.98c0.01,2.59 -1.74,5.18 -5.22,7.13 -6.78,3.77 -17.53,3.67 -24.03,-0.25 -3.16,-1.89 -4.73,-4.34 -4.73,-6.78z"/>
   <path class="fil1" d="M4.73 90.27c-3.15,-1.89 -4.72,-4.34 -4.73,-6.78l0.01 -0.33c0.12,-1.66 0.57,-2.93 0.92,-3.71 0.07,-0.16 0.18,-0.37 0.26,-0.54l0.2 -0.37 0.19 -0.32 0.2 -0.32 0.18 -0.27 0.18 -0.27 0.17 -0.22 0.17 -0.22 0.14 -0.18 0.14 -0.17 0.1 -0.12 0.09 -0.11c-3,3.38 -2.14,7.63 2.65,10.51 3.03,1.82 7.05,2.75 11.1,2.79l-0.11 0.02c-0.52,0.37 -2.03,2.76 1.83,3.4 0.27,0.05 0.63,0.09 0.91,0.12 -5.21,0.43 -10.68,-0.55 -14.6,-2.91z"/>
   <path class="fil2" d="M0 83.49c0.01,-0.34 0.04,-0.78 0.07,-1.11 0.02,-0.21 0.07,-0.48 0.11,-0.67 0.11,-0.51 0.16,-0.68 0.28,-1.07 0.12,-0.36 0.23,-0.63 0.35,-0.92 0.17,-0.42 0.84,-1.91 2.14,-3.38 -3,3.38 -2.14,7.63 2.65,10.51 6.03,3.63 16.02,3.73 22.31,0.23 5.17,-2.89 6.23,-7.31 3.09,-10.81 0.44,0.5 0.84,1.02 1.18,1.55 0.58,0.89 0.88,1.57 0.96,1.76 0.19,0.44 0.44,1.05 0.64,1.92 0.14,0.63 0.2,1.2 0.21,1.89 0.01,2.59 -1.74,5.18 -5.23,7.13 -6.77,3.77 -17.53,3.67 -24.03,-0.25 -3.15,-1.89 -4.72,-4.34 -4.73,-6.78z"/>
   <path class="fil1" d="M0 83.49l0 -0.02 0 -0.02 0 -0.01 0 0 0 -0.02 0 -0.01 0 -0.02 0 0 0 -0.02 0 -0.03 0.01 0 0.01 -0.34 0 -0.02 0 -0.01 0 0 0.01 -0.02 0 -0.02 0 -0.02 0 -0.01 0 -0.01c0.09,-1.22 0.49,-3.53 2.57,-6.12l0.08 -0.11 -0.12 0.16 0 0 -0.12 0.17 -0.01 0 -0.11 0.16 0 0 -0.11 0.16 0 0.01 -0.1 0.16 0 0 -0.1 0.17 0 0 -0.09 0.16 0 0 -0.09 0.17 0 0 -0.08 0.17 0 0c-0.05,0.11 -0.1,0.23 -0.15,0.34l0 0 -0.06 0.17 0 0 -0.06 0.17 0 0 -0.05 0.17 0 0 -0.05 0.18 0 0 -0.04 0.17 0 0 -0.04 0.17 0 0 -0.03 0.18 0 0c-0.01,0.05 -0.01,0.11 -0.02,0.17l0 0 -0.02 0.17 0 0 -0.01 0.18 0 0 -0.01 0.17 0 0 0 0.18 0 0.17 0.01 0.17 0 0.01c0.01,0.11 0.02,0.23 0.04,0.34l0.02 0.18 0 0 0.04 0.17 0 0 0.03 0.17 0 0c0.03,0.12 0.06,0.23 0.1,0.35l0.05 0.17 0 0 0.06 0.17 0 0 0.07 0.17 0.07 0.17 0 0 0.08 0.17 0.09 0.17 0.08 0.17 0.1 0.16 0 0.01 0.1 0.16 0.11 0.17 0 0 0.11 0.16 0.12 0.16 0.12 0.17 0.13 0.16 0.14 0.16 0.14 0.16 0.15 0.15 0.15 0.16 0.16 0.15 0.16 0.16 0.17 0.15 0.18 0.15 0.18 0.15 0.19 0.14 0.19 0.15 0.2 0.14 0.2 0.15 0.21 0.14 0.22 0.13 0.22 0.14c6.03,3.63 16.02,3.73 22.31,0.23 5.07,-2.83 6.19,-7.14 3.27,-10.6l-0.02 -0.02 -0.04 -0.05 -0.02 -0.03 -0.02 -0.02 -0.02 -0.02 -0.02 -0.03 -0.02 -0.02 -0.02 -0.02zm0.33 0.39c2.41,2.96 2.6,5.56 2.65,6.51l0 0.01 0.01 0.1c-0.02,2.35 -1.31,4.57 -3.86,6.38l0 0c-0.1,0.07 -0.19,0.13 -0.29,0.2l-0.15 0.09 -0.14 0.1 -0.16 0.1 0 0 -0.15 0.09 -0.16 0.09 -0.16 0.1 -0.16 0.09c-6.77,3.77 -17.53,3.67 -24.03,-0.25l-0.14 -0.09 -0.15 -0.09 -0.14 -0.09 -0.14 -0.09 -0.14 -0.09 -0.13 -0.09 -0.14 -0.1 -0.13 -0.09 0 0 -0.12 -0.1 0 0 -0.13 -0.09 -0.12 -0.1 -0.13 -0.1 0 0 -0.11 -0.09 0 0 -0.12 -0.1 -0.12 -0.1 -0.11 -0.1 -0.11 -0.1 -0.1 -0.1 0 0 -0.11 -0.11 0 0 -0.1 -0.1 -0.1 -0.1 -0.1 -0.1 0 0 -0.1 -0.11 0 0 -0.09 -0.1 0 0 -0.09 -0.11 0 0 -0.09 -0.1 -0.09 -0.11 0 0 -0.08 -0.11 0 0 -0.08 -0.1 0 0 -0.08 -0.11 0 0 -0.08 -0.11 0 0 -0.07 -0.1 0 0 -0.08 -0.11 0 0 -0.07 -0.11 0 0 -0.07 -0.11 0 0 -0.06 -0.11 0 0 -0.06 -0.11 0 0c-0.05,-0.07 -0.09,-0.15 -0.12,-0.22l0 0 -0.06 -0.11 0 0c-0.04,-0.08 -0.07,-0.15 -0.11,-0.22l0 0c-0.03,-0.08 -0.06,-0.15 -0.09,-0.23l-0.01 0c-0.03,-0.07 -0.05,-0.15 -0.08,-0.22l0 0c-0.03,-0.08 -0.06,-0.15 -0.08,-0.23l0 0 -0.04 -0.11 0 0c-0.02,-0.08 -0.04,-0.15 -0.06,-0.23l0 0 -0.03 -0.11 0 0 -0.03 -0.12 0 0 -0.02 -0.11 0 0 -0.02 -0.11 0 0 -0.02 -0.12 0 0 -0.02 -0.11 0 0 -0.02 -0.12 0 0 -0.01 -0.11 -0.01 -0.12 0 0 -0.01 -0.11 0 -0.11 -0.01 -0.12 0 0 0 -0.11z"/>
   <path class="fil1" d="M31.5 76.86l0.02 0.03 0.02 0.02 0.01 0.02 0.02 0.03 0.02 0.02 0.02 0.03 0.02 0.02 0.01 0.02 0.01 0.01 0.02 0.02 0.01 0.02 0.02 0.03 0.06 0.07 0.01 0.03 0.02 0.02 0.05 0.07 0.02 0.03 0.11 0.15 0.01 0.02 0.01 0.01 0.01 0.01 0.18 0.28 0.11 0.16 0.02 0.04 0.03 0.04 0.07 0.12 0 0 0.02 0.04 0.02 0.04 0.05 0.07 0.02 0.04 0.02 0.03 0.06 0.11 0.02 0.04 0.13 0.23 0.01 0.02 0.01 0.01 0.19 0.38 0.18 0.39 0 0.01 0 0 0.01 0.01 0 0 0 0.01 0 0 0.01 0.01 0 0 0 0.01 0 0 0 0.01 0.01 0 0 0.01 0 0 0 0.01 0 0.01 0.01 0 0 0.02 0 0 0.01 0.01 0 0 0 0.01 0 0 0.01 0.01 0 0 0 0.01 0 0 0.01 0.01 0 0.01 0 0 0 0 0.01 0.01 0 0.01c0.04,0.09 0.08,0.19 0.12,0.3l0.01 0.03 0.14 0.37 0 0.01 0 0.01 0 0 0.01 0.01 0 0c0.03,0.13 0.08,0.28 0.12,0.41l0.01 0.01 0 0.01 0 0 0 0 0 0.01 0 0.01 0.01 0.01 0 0 0 0.01 0 0 0 0.01 0.01 0.01 0 0.01 0 0 0 0 0 0.01 0.13 0.49c0.03,0.19 0.08,0.43 0.11,0.61l0.07 0.56c0.01,0.19 0.02,0.46 0.03,0.67l0 0.01 0 0 0 0.01 0 0.01 0 0.01 0 0.01c0.01,2.59 -1.74,5.18 -5.23,7.13 -6.77,3.77 -17.53,3.67 -24.03,-0.25l-0.14 -0.09 -0.15 -0.09 -0.14 -0.09 -0.14 -0.09 -0.14 -0.09 -0.13 -0.09 -0.14 -0.1 -0.13 -0.09 0 0 -0.12 -0.1 0 0 -0.13 -0.09 -0.12 -0.1 -0.13 -0.1 0 0 -0.11 -0.09 0 0 -0.12 -0.1 -0.12 -0.1 -0.11 -0.1 -0.11 -0.1 -0.1 -0.1 0 0 -0.11 -0.11 0 0 -0.1 -0.1 -0.1 -0.1 -0.1 -0.1 0 0 -0.1 -0.11 0 0 -0.09 -0.1 0 0 -0.09 -0.11 0 0 -0.09 -0.1 -0.09 -0.11 0 0 -0.08 -0.11 0 0 -0.08 -0.1 0 0 -0.08 -0.11 0 0 -0.08 -0.11 0 0 -0.07 -0.1 0 0 -0.08 -0.11 0 0 -0.07 -0.11 0 0 -0.07 -0.11 0 0 -0.06 -0.11 0 0 -0.06 -0.11 0 0c-0.05,-0.07 -0.09,-0.15 -0.12,-0.22l0 0 -0.06 -0.11 0 0c-0.04,-0.08 -0.07,-0.15 -0.11,-0.22l0 0c-0.03,-0.08 -0.06,-0.15 -0.09,-0.23l-0.01 0c-0.03,-0.07 -0.05,-0.15 -0.08,-0.22l0 0c-0.03,-0.08 -0.06,-0.15 -0.08,-0.23l0 0 -0.04 -0.11 0 0c-0.02,-0.08 -0.04,-0.15 -0.06,-0.23l0 0 -0.03 -0.11 0 0 -0.03 -0.12 0 0 -0.02 -0.11 0 0 -0.02 -0.11 0 0 -0.02 -0.12 0 0 -0.02 -0.11 0 0 -0.02 -0.12 0 0 -0.01 -0.11 -0.01 -0.12 0 0 -0.01 -0.11 0 -0.11 -0.01 -0.12 0 0 0 -0.11 0 -0.02 0 -0.01 0 -0.01 0 0 0 0 0 -0.01 0 0 0 -0.01 0 -0.01 0 0 0 -0.01 0 0 0 -0.01 0 0 0 -0.01 0 0 0 -0.01 0 -0.01 0 0 0 -0.01 0 -0.02 0.01 0 0 -0.01c0.01,-0.24 0.02,-0.51 0.04,-0.76l0 0 0 -0.01 0 0 0 -0.01 0 -0.01 0 0 0.01 -0.02 0 0c0.01,-0.11 0.02,-0.22 0.03,-0.31l0.09 -0.5 0.01 -0.01 0 -0.01 0 -0.01 0 0c0.03,-0.16 0.08,-0.35 0.12,-0.51l0 -0.01 0 0 0 -0.01 0 0 0 -0.01 0.01 -0.01 0 0 0 0 0 -0.01 0 0 0 -0.01 0 -0.01 0 0 0.01 -0.01 0 -0.01 0.13 -0.44 0 0 0.01 -0.01 0 0c0.05,-0.15 0.11,-0.32 0.16,-0.47l0 0 0 -0.01 0.01 0 0 -0.01 0 -0.01 0 0 0 0 0.01 -0.02 0 -0.01 0.01 -0.02 0.01 -0.01 0.13 -0.32 0 -0.02 0.01 -0.01 0.2 -0.45 0.18 -0.36 0.2 -0.37 0.19 -0.32 0.2 -0.32 0.18 -0.27 0.18 -0.27 0.17 -0.22 0.17 -0.22 0.14 -0.18 0.14 -0.17 0.05 -0.06 0.02 -0.02 0.12 -0.15c-3,3.38 -2.14,7.63 2.65,10.51l0.24 0.14 0.08 0.05 0.26 0.14 0 0 0.25 0.13 0.09 0.05 0.21 0.11 0.05 0.02 0 0 0.04 0.02 0.23 0.11 0.06 0.03 0.28 0.13 0 0 0.32 0.13 0.01 0.01 0.31 0.13 0 0c0.22,0.08 0.44,0.16 0.66,0.24l0 0 0.3 0.11 0.06 0.02 0.31 0.1 0 0 0.34 0.1 0.32 0.1 0.02 0 0.01 0.01 0.05 0.01 0.24 0.06 0.1 0.03 0.27 0.07 0.03 0.01 0.01 0 0.03 0.01 0.31 0.07 0.03 0.01 0.34 0.07 0 0 0.34 0.07 0.03 0.01 0.35 0.07 0 0 0.35 0.06 0.03 0 0.32 0.06 0.03 0 0 0 0.24 0.04 0.13 0.01 0.05 0.01 0.32 0.04 0 0 0.34 0.04 0.07 0.01 0.33 0.03 0.01 0 0.35 0.03 0.05 0.01 0.34 0.02 0.01 0 0.02 0 0.31 0.02 0.09 0.01 0.28 0.01 0.05 0 0 0 0.25 0.01 0.06 0 0.13 0 0.31 0.01 0.01 0 0.31 0 0.13 0 0.06 0 0.25 0 0.01 0 0.24 -0.01 0.02 0 0.19 -0.01 0.04 0 0.26 -0.01 0 0 0.34 -0.01 0.07 -0.01 0.3 -0.02 0.04 0 0.01 0 0.24 -0.02 0.04 0 0.15 -0.02 0.2 -0.02 0.28 -0.03 0.12 -0.01 0.16 -0.02 0.05 0 0.25 -0.03 0.01 0 0.23 -0.04 0 0.03c-1.86,0.68 -1.8,1.82 -1.14,2.21 1.83,1.1 6.46,-0.48 6.12,-2.08 -0.2,-0.9 -1.25,-0.41 -1.77,-0.82l0.13 -0.04 0.03 -0.01 0.04 -0.01c0.2,-0.06 0.4,-0.12 0.6,-0.19l0.05 -0.01 0.02 -0.01 0.32 -0.11 0.01 0 0.32 -0.12 0.01 0 0.32 -0.12 0 0 0.32 -0.13 0.01 0 0.3 -0.13 0.02 -0.01c0.22,-0.09 0.43,-0.19 0.63,-0.28l0.03 -0.02 0.28 -0.14 0.02 0 0.28 -0.15 0.01 -0.01 0.29 -0.15c5.07,-2.83 6.19,-7.14 3.27,-10.6 0.11,0.13 0.22,0.25 0.32,0.38zm-28.67 -0.37l0.03 -0.04 0.03 -0.04 0.06 -0.07zm28.23 0.14l-0.02 -0.02 -0.01 -0.02 0.01 0.01 -0.16 -0.18 0.02 0.02 0.02 0.02 0.02 0.03 0.02 0.02 0.02 0.02 0.02 0.03z"/>
   <path class="fil1" d="M31.5 76.86l0.02 0.03 0.02 0.02 0.01 0.02 0.02 0.03 0.02 0.02 0.02 0.03 0.02 0.02 0.01 0.02 0.01 0.01 0.02 0.02 0.01 0.02 0.02 0.03 0.06 0.07 0.01 0.03 0.02 0.02 0.05 0.07 0.02 0.03 0.11 0.15 0.01 0.02 0.01 0.01 0.01 0.01 0.18 0.28 0.11 0.16 0.02 0.04 0.03 0.04 0.07 0.12 0 0 0.02 0.04 0.02 0.04 0.05 0.07 0.02 0.04 0.02 0.03 0.06 0.11 0.02 0.04 0.13 0.23 0.01 0.02 0.01 0.01 0.19 0.38 0.18 0.39 0 0.01 0 0 0.01 0.01 0 0 0 0.01 0 0 0.01 0.01 0 0 0 0.01 0 0 0 0.01 0.01 0 0 0.01 0 0 0 0.01 0 0.01 0.01 0 0 0.02 0 0 0.01 0.01 0 0 0 0.01 0 0 0.01 0.01 0 0 0 0.01 0 0 0.01 0.01 0 0.01 0 0 0 0 0.01 0.01 0 0.01c0.04,0.09 0.08,0.19 0.12,0.3l0.01 0.03 0.14 0.37 0 0.01 0 0.01 0 0 0.01 0.01 0 0c0.03,0.13 0.08,0.28 0.12,0.41l0.01 0.01 0 0.01 0 0 0 0 0 0.01 0 0.01 0.01 0.01 0 0 0 0.01 0 0 0 0.01 0.01 0.01 0 0.01 0 0 0 0 0 0.01 0.13 0.49c0.03,0.19 0.08,0.43 0.11,0.61l0.07 0.56c0.01,0.19 0.02,0.46 0.03,0.67l0 0.01 0 0 0 0.01 0 0.01 0 0.01 0 0.01c0.01,2.59 -1.74,5.18 -5.23,7.13 -6.77,3.77 -17.53,3.67 -24.03,-0.25l-0.14 -0.09 -0.15 -0.09 -0.14 -0.09 -0.14 -0.09 -0.14 -0.09 -0.13 -0.09 -0.14 -0.1 -0.13 -0.09 0 0 -0.12 -0.1 0 0 -0.13 -0.09 -0.12 -0.1 -0.13 -0.1 0 0 -0.11 -0.09 0 0 -0.12 -0.1 -0.12 -0.1 -0.11 -0.1 -0.11 -0.1 -0.1 -0.1 0 0 -0.11 -0.11 0 0 -0.1 -0.1 -0.1 -0.1 -0.1 -0.1 0 0 -0.1 -0.11 0 0 -0.09 -0.1 0 0 -0.09 -0.11 0 0 -0.09 -0.1 -0.09 -0.11 0 0 -0.08 -0.11 0 0 -0.08 -0.1 0 0 -0.08 -0.11 0 0 -0.08 -0.11 0 0 -0.07 -0.1 0 0 -0.08 -0.11 0 0 -0.07 -0.11 0 0 -0.07 -0.11 0 0 -0.06 -0.11 0 0 -0.06 -0.11 0 0c-0.05,-0.07 -0.09,-0.15 -0.12,-0.22l0 0 -0.06 -0.11 0 0c-0.04,-0.08 -0.07,-0.15 -0.11,-0.22l0 0c-0.03,-0.08 -0.06,-0.15 -0.09,-0.23l-0.01 0c-0.03,-0.07 -0.05,-0.15 -0.08,-0.22l0 0c-0.03,-0.08 -0.06,-0.15 -0.08,-0.23l0 0 -0.04 -0.11 0 0c-0.02,-0.08 -0.04,-0.15 -0.06,-0.23l0 0 -0.03 -0.11 0 0 -0.03 -0.12 0 0 -0.02 -0.11 0 0 -0.02 -0.11 0 0 -0.02 -0.12 0 0 -0.02 -0.11 0 0 -0.02 -0.12 0 0 -0.01 -0.11 -0.01 -0.12 0 0 -0.01 -0.11 0 -0.11 -0.01 -0.12 0 0 0 -0.11 0 -0.02 0 -0.01 0 -0.01 0 0 0 0 0 -0.01 0 0 0 -0.01 0 -0.01 0 0 0 -0.01 0 0 0 -0.01 0 0 0 -0.01 0 0 0 -0.01 0 -0.01 0 0 0 -0.01 0 -0.02 0.01 0 0 -0.01c0.01,-0.24 0.02,-0.51 0.04,-0.76l0 0 0 -0.01 0 0 0 -0.01 0 -0.01 0 0 0.01 -0.02 0 0c0.01,-0.11 0.02,-0.22 0.03,-0.31l0.09 -0.5 0.01 -0.01 0 -0.01 0 -0.01 0 0c0.03,-0.16 0.08,-0.35 0.12,-0.51l0 -0.01 0 0 0 -0.01 0 0 0 -0.01 0.01 -0.01 0 0 0 0 0 -0.01 0 0 0 -0.01 0 -0.01 0 0 0.01 -0.01 0 -0.01 0.13 -0.44 0 0 0.01 -0.01 0 0c0.05,-0.15 0.11,-0.32 0.16,-0.47l0 0 0 -0.01 0.01 0 0 -0.01 0 -0.01 0 0 0 0 0.01 -0.02 0 -0.01 0.01 -0.02 0.01 -0.01 0.13 -0.32 0 -0.02 0.01 -0.01 0.2 -0.45 0.18 -0.36 0.2 -0.37 0.19 -0.32 0.2 -0.32 0.18 -0.27 0.18 -0.27 0.17 -0.22 0.17 -0.22 0.14 -0.18 0.14 -0.17 0.05 -0.06 0.02 -0.02 0.12 -0.15c-3,3.38 -2.14,7.63 2.65,10.51l0.25 0.15 0.06 0.03c0.17,0.1 0.35,0.2 0.54,0.29l0.02 0.02 0.03 0.01 0.26 0.13 0.04 0.02 0.27 0.13 0.01 0.01c0.92,0.43 1.91,0.79 2.94,1.08l0.04 0.01c0.57,0.16 1.15,0.3 1.74,0.42l0.03 0c0.23,0.05 0.47,0.09 0.7,0.13l0.02 0 0.04 0.01 0.23 0.04 0.09 0.01 0.05 0.01 0.29 0.04 0.03 0 0 0 0.04 0.01 0.33 0.04 0 0 0.37 0.04 0.01 0 0.36 0.04 0.01 0 0.03 0.01c0.24,0.02 0.47,0.04 0.7,0.05l0.02 0 0.36 0.02 0.02 0 0.07 0.01 0.29 0.01 0.04 0c0.62,0.02 1.24,0.03 1.87,0.01l0 0c0.6,-0.02 1.2,-0.06 1.79,-0.12l-0.05 0.03c-1.31,0.47 -1.69,1.99 -0.28,2.5 2.61,0.94 8.06,-0.95 7.12,-2.98 -0.16,-0.34 -0.52,-0.75 -1.31,-0.72l0.05 -0.02 0.04 -0.02 0.05 -0.01 0.05 -0.02 0.04 -0.02 0.05 -0.01 0.09 -0.04 0.05 -0.01 0.05 -0.02 0.04 -0.02 0.05 -0.02 0.05 -0.01 0.12 -0.06 0.01 0 0.05 -0.02 0.05 -0.02 0.04 -0.01 0.05 -0.02 0.04 -0.02 0.05 -0.02 0.04 -0.02 0.05 -0.02 0.04 -0.02 0.05 -0.02 0.04 -0.01 0.09 -0.04 0.05 -0.02 0.04 -0.02 0.05 -0.02 0.04 -0.02 0.05 -0.02 0 0 0.08 -0.04 0.05 -0.02 0.04 -0.02 0.05 -0.02 0.04 -0.02 0.04 -0.02 0.05 -0.02 0.04 -0.02 0.04 -0.03 0.18 -0.08 0.04 -0.02 0.03 -0.02 0.01 0 0.02 -0.01c0.08,-0.04 0.16,-0.08 0.24,-0.12l0.03 -0.02 0.01 -0.01 0.04 -0.02c0.08,-0.04 0.17,-0.09 0.25,-0.13 5.07,-2.83 6.19,-7.14 3.27,-10.6 0.11,0.13 0.22,0.25 0.32,0.38zm-28.67 -0.37l0.03 -0.04 0.03 -0.04 0.06 -0.07zm28.23 0.14l-0.02 -0.02 -0.01 -0.02 0.01 0.01 -0.16 -0.18 0.02 0.02 0.02 0.02 0.02 0.03 0.02 0.02 0.02 0.02 0.02 0.03z"/>
   <path class="fil1" d="M31.5 76.86l0.02 0.03 0.02 0.02 0.01 0.02 0.02 0.03 0.02 0.02 0.02 0.03 0.02 0.02 0.01 0.02 0.01 0.01 0.02 0.02 0.01 0.02 0.02 0.03 0.06 0.07 0.01 0.03 0.02 0.02 0.05 0.07 0.02 0.03 0.11 0.15 0.01 0.02 0.01 0.01 0.01 0.01 0.18 0.28 0.11 0.16 0.02 0.04 0.03 0.04 0.07 0.12 0 0 0.02 0.04 0.02 0.04 0.05 0.07 0.02 0.04 0.02 0.03 0.06 0.11 0.02 0.04 0.13 0.23 0.01 0.02 0.01 0.01 0.19 0.38 0.18 0.39 0 0.01 0 0 0.01 0.01 0 0 0 0.01 0 0 0.01 0.01 0 0 0 0.01 0 0 0 0.01 0.01 0 0 0.01 0 0 0 0.01 0 0.01 0.01 0 0 0.02 0 0 0.01 0.01 0 0 0 0.01 0 0 0.01 0.01 0 0 0 0.01 0 0 0.01 0.01 0 0.01 0 0 0 0 0.01 0.01 0 0.01c0.04,0.09 0.08,0.19 0.12,0.3l0.01 0.03 0.14 0.37 0 0.01 0 0.01 0 0 0.01 0.01 0 0c0.03,0.13 0.08,0.28 0.12,0.41l0.01 0.01 0 0.01 0 0 0 0 0 0.01 0 0.01 0.01 0.01 0 0 0 0.01 0 0 0 0.01 0.01 0.01 0 0.01 0 0 0 0 0 0.01 0.13 0.49c0.03,0.19 0.08,0.43 0.11,0.61l0.07 0.56c0.01,0.19 0.02,0.46 0.03,0.67l0 0.01 0 0 0 0.01 0 0.01 0 0.01 0 0.01c0.01,2.59 -1.74,5.18 -5.23,7.13 -6.77,3.77 -17.53,3.67 -24.03,-0.25l-0.14 -0.09 -0.15 -0.09 -0.14 -0.09 -0.14 -0.09 -0.14 -0.09 -0.13 -0.09 -0.14 -0.1 -0.13 -0.09 0 0 -0.12 -0.1 0 0 -0.13 -0.09 -0.12 -0.1 -0.13 -0.1 0 0 -0.11 -0.09 0 0 -0.12 -0.1 -0.12 -0.1 -0.11 -0.1 -0.11 -0.1 -0.1 -0.1 0 0 -0.11 -0.11 0 0 -0.1 -0.1 -0.1 -0.1 -0.1 -0.1 0 0 -0.1 -0.11 0 0 -0.09 -0.1 0 0 -0.09 -0.11 0 0 -0.09 -0.1 -0.09 -0.11 0 0 -0.08 -0.11 0 0 -0.08 -0.1 0 0 -0.08 -0.11 0 0 -0.08 -0.11 0 0 -0.07 -0.1 0 0 -0.08 -0.11 0 0 -0.07 -0.11 0 0 -0.07 -0.11 0 0 -0.06 -0.11 0 0 -0.06 -0.11 0 0c-0.05,-0.07 -0.09,-0.15 -0.12,-0.22l0 0 -0.06 -0.11 0 0c-0.04,-0.08 -0.07,-0.15 -0.11,-0.22l0 0c-0.03,-0.08 -0.06,-0.15 -0.09,-0.23l-0.01 0c-0.03,-0.07 -0.05,-0.15 -0.08,-0.22l0 0c-0.03,-0.08 -0.06,-0.15 -0.08,-0.23l0 0 -0.04 -0.11 0 0c-0.02,-0.08 -0.04,-0.15 -0.06,-0.23l0 0 -0.03 -0.11 0 0 -0.03 -0.12 0 0 -0.02 -0.11 0 0 -0.02 -0.11 0 0 -0.02 -0.12 0 0 -0.02 -0.11 0 0 -0.02 -0.12 0 0 -0.01 -0.11 -0.01 -0.12 0 0 -0.01 -0.11 0 -0.11 -0.01 -0.12 0 0 0 -0.11 0 -0.02 0 -0.01 0 -0.01 0 0 0 0 0 -0.01 0 0 0 -0.01 0 -0.01 0 0 0 -0.01 0 0 0 -0.01 0 0 0 -0.01 0 0 0 -0.01 0 -0.01 0 0 0 -0.01 0 -0.02 0.01 0 0 -0.01c0.01,-0.24 0.02,-0.51 0.04,-0.76l0 0 0 -0.01 0 0 0 -0.01 0 -0.01 0 0 0.01 -0.02 0 0c0.01,-0.11 0.02,-0.22 0.03,-0.31l0.09 -0.5 0.01 -0.01 0 -0.01 0 -0.01 0 0c0.03,-0.16 0.08,-0.35 0.12,-0.51l0 -0.01 0 0 0 -0.01 0 0 0 -0.01 0.01 -0.01 0 0 0 0 0 -0.01 0 0 0 -0.01 0 -0.01 0 0 0.01 -0.01 0 -0.01 0.13 -0.44 0 0 0.01 -0.01 0 0c0.05,-0.15 0.11,-0.32 0.16,-0.47l0 0 0 -0.01 0.01 0 0 -0.01 0 -0.01 0 0 0 0 0.01 -0.02 0 -0.01 0.01 -0.02 0.01 -0.01 0.13 -0.32 0 -0.02 0.01 -0.01 0.2 -0.45 0.18 -0.36 0.2 -0.37 0.19 -0.32 0.2 -0.32 0.18 -0.27 0.18 -0.27 0.17 -0.22 0.17 -0.22 0.14 -0.18 0.14 -0.17 0.05 -0.06 0.02 -0.02 0.12 -0.15c-3,3.38 -2.14,7.63 2.65,10.51l0.25 0.15 0.06 0.03 0.24 0.14 0.05 0.02 0.24 0.13 0.03 0.02 0.06 0.03 0.17 0.08 0.12 0.06 0.24 0.12 0.04 0.01 0.29 0.13 0.02 0.01 0.29 0.13 0.01 0 0.27 0.11 0.05 0.03 0.05 0.01 0.23 0.09 0.1 0.04 0.24 0.09 0.04 0.01 0.02 0.01 0.27 0.09 0.04 0.02 0.02 0 0.01 0.01 0.26 0.08 0.05 0.02 0.07 0.02 0.2 0.06 0.07 0.02 0.05 0.02 0.21 0.06 0.18 0.05 0.19 0.05 0.06 0.02 0.04 0.01 0.21 0.05 0.11 0.03 0.04 0.01 0.31 0.07 0.01 0.01 0.32 0.07 0.03 0 0 0.01 0.02 0 0.27 0.05 0.11 0.03 0.31 0.06 0.02 0 0.33 0.06 0.03 0 0 0 0.31 0.05 0.05 0.01 0.03 0.01 0.32 0.04 0.04 0.01c0.24,0.03 0.48,0.06 0.72,0.08l0.01 0 0.37 0.04 0 0c1.4,0.13 2.82,0.16 4.23,0.07l-0.08 0.03c-1.01,0.51 -1.57,2.04 0.15,2.66 3.08,1.1 9.87,-1.26 8.61,-3.63 -0.22,-0.41 -0.66,-0.81 -1.23,-0.69l0.03 -0.02 0.03 -0.01 0.06 -0.02 0.03 -0.02 0.08 -0.03 0.03 -0.02 0.03 -0.01 0 0 0.03 -0.01 0.03 -0.02 0.03 -0.01 0.18 -0.08 0.03 -0.01 0.02 -0.01 0.01 0 0.26 -0.12 0.03 -0.02 0.01 0 0.01 -0.01 0.03 -0.01 0.26 -0.13 0.01 -0.01 0.02 -0.01 0.03 -0.01 0.25 -0.13 0 0 0.02 -0.02 0.03 -0.01 0.25 -0.13c5.07,-2.83 6.19,-7.14 3.27,-10.6 0.11,0.13 0.22,0.25 0.32,0.38zm-28.67 -0.37l0.03 -0.04 0.03 -0.04 0.06 -0.07zm28.23 0.14l-0.02 -0.02 -0.01 -0.02 0.01 0.01 -0.16 -0.18 0.02 0.02 0.02 0.02 0.02 0.03 0.02 0.02 0.02 0.02 0.02 0.03z"/>
   <path class="fil1" d="M31.5 76.86l0.02 0.03 0.02 0.02 0.01 0.02 0.02 0.03 0.02 0.02 0.02 0.03 0.02 0.02 0.01 0.02 0.01 0.01 0.02 0.02 0.01 0.02 0.02 0.03 0.06 0.07 0.01 0.03 0.02 0.02 0.05 0.07 0.02 0.03 0.11 0.15 0.01 0.02 0.01 0.01 0.01 0.01 0.18 0.28 0.11 0.16 0.02 0.04 0.03 0.04 0.07 0.12 0 0 0.02 0.04 0.02 0.04 0.05 0.07 0.02 0.04 0.02 0.03 0.06 0.11 0.02 0.04 0.13 0.23 0.01 0.02 0.01 0.01 0.19 0.38 0.18 0.39 0 0.01 0 0 0.01 0.01 0 0 0 0.01 0 0 0.01 0.01 0 0 0 0.01 0 0 0 0.01 0.01 0 0 0.01 0 0 0 0.01 0 0.01 0.01 0 0 0.02 0 0 0.01 0.01 0 0 0 0.01 0 0 0.01 0.01 0 0 0 0.01 0 0 0.01 0.01 0 0.01 0 0 0 0 0.01 0.01 0 0.01c0.04,0.09 0.08,0.19 0.12,0.3l0.01 0.03 0.14 0.37 0 0.01 0 0.01 0 0 0.01 0.01 0 0c0.03,0.13 0.08,0.28 0.12,0.41l0.01 0.01 0 0.01 0 0 0 0 0 0.01 0 0.01 0.01 0.01 0 0 0 0.01 0 0 0 0.01 0.01 0.01 0 0.01 0 0 0 0 0 0.01 0.13 0.49c0.03,0.19 0.08,0.43 0.11,0.61l0.07 0.56c0.01,0.19 0.02,0.46 0.03,0.67l0 0.01 0 0 0 0.01 0 0.01 0 0.01 0 0.01c0.01,2.59 -1.74,5.18 -5.23,7.13 -6.77,3.77 -17.53,3.67 -24.03,-0.25l-0.14 -0.09 -0.15 -0.09 -0.14 -0.09 -0.14 -0.09 -0.14 -0.09 -0.13 -0.09 -0.14 -0.1 -0.13 -0.09 0 0 -0.12 -0.1 0 0 -0.13 -0.09 -0.12 -0.1 -0.13 -0.1 0 0 -0.11 -0.09 0 0 -0.12 -0.1 -0.12 -0.1 -0.11 -0.1 -0.11 -0.1 -0.1 -0.1 0 0 -0.11 -0.11 0 0 -0.1 -0.1 -0.1 -0.1 -0.1 -0.1 0 0 -0.1 -0.11 0 0 -0.09 -0.1 0 0 -0.09 -0.11 0 0 -0.09 -0.1 -0.09 -0.11 0 0 -0.08 -0.11 0 0 -0.08 -0.1 0 0 -0.08 -0.11 0 0 -0.08 -0.11 0 0 -0.07 -0.1 0 0 -0.08 -0.11 0 0 -0.07 -0.11 0 0 -0.07 -0.11 0 0 -0.06 -0.11 0 0 -0.06 -0.11 0 0c-0.05,-0.07 -0.09,-0.15 -0.12,-0.22l0 0 -0.06 -0.11 0 0c-0.04,-0.08 -0.07,-0.15 -0.11,-0.22l0 0c-0.03,-0.08 -0.06,-0.15 -0.09,-0.23l-0.01 0c-0.03,-0.07 -0.05,-0.15 -0.08,-0.22l0 0c-0.03,-0.08 -0.06,-0.15 -0.08,-0.23l0 0 -0.04 -0.11 0 0c-0.02,-0.08 -0.04,-0.15 -0.06,-0.23l0 0 -0.03 -0.11 0 0 -0.03 -0.12 0 0 -0.02 -0.11 0 0 -0.02 -0.11 0 0 -0.02 -0.12 0 0 -0.02 -0.11 0 0 -0.02 -0.12 0 0 -0.01 -0.11 -0.01 -0.12 0 0 -0.01 -0.11 0 -0.11 -0.01 -0.12 0 0 0 -0.11 0 -0.02 0 -0.01 0 -0.01 0 0 0 0 0 -0.01 0 0 0 -0.01 0 -0.01 0 0 0 -0.01 0 0 0 -0.01 0 0 0 -0.01 0 0 0 -0.01 0 -0.01 0 0 0 -0.01 0 -0.02 0.01 0 0 -0.01c0.01,-0.24 0.02,-0.51 0.04,-0.76l0 0 0 -0.01 0 0 0 -0.01 0 -0.01 0 0 0.01 -0.02 0 0c0.01,-0.11 0.02,-0.22 0.03,-0.31l0.09 -0.5 0.01 -0.01 0 -0.01 0 -0.01 0 0c0.03,-0.16 0.08,-0.35 0.12,-0.51l0 -0.01 0 0 0 -0.01 0 0 0 -0.01 0.01 -0.01 0 0 0 0 0 -0.01 0 0 0 -0.01 0 -0.01 0 0 0.01 -0.01 0 -0.01 0.13 -0.44 0 0 0.01 -0.01 0 0c0.05,-0.15 0.11,-0.32 0.16,-0.47l0 0 0 -0.01 0.01 0 0 -0.01 0 -0.01 0 0 0 0 0.01 -0.02 0 -0.01 0.01 -0.02 0.01 -0.01 0.13 -0.32 0 -0.02 0.01 -0.01 0.2 -0.45 0.18 -0.36 0.2 -0.37 0.19 -0.32 0.2 -0.32 0.18 -0.27 0.18 -0.27 0.17 -0.22 0.17 -0.22 0.14 -0.18 0.14 -0.17 0.05 -0.06 0.02 -0.02 0.12 -0.15c-3,3.38 -2.14,7.63 2.65,10.51l0.25 0.15 0.04 0.02 0.02 0.01 0.25 0.14 0.03 0.02 0.23 0.12 0.1 0.05 0.03 0.02 0.17 0.08 0.06 0.03 0.03 0.01 0.27 0.13 0.02 0.01 0.29 0.13 0 0.01 0.31 0.13 0.01 0 0.02 0.01 0.28 0.12 0.03 0.01 0.29 0.11 0.05 0.02 0.3 0.11 0.02 0 0.31 0.12 0.03 0.01 0.3 0.1 0.02 0 0 0 0.34 0.1 0.02 0.01 0.29 0.09 0.04 0.01 0.04 0.01 0.19 0.05 0.05 0.01 0.12 0.03 0.27 0.07 0.07 0.02 0.26 0.06 0.05 0.01 0.05 0.02 0.29 0.06 0.02 0 0.03 0.01 0.26 0.05 0.07 0.02 0.01 0 0.06 0.01 0.26 0.05 0.03 0.01 0.04 0 0.31 0.06 0.02 0 0.07 0.01 0.2 0.04 0.09 0.01 0.05 0.01 0.27 0.04 0.12 0.01c0.23,0.03 0.45,0.06 0.67,0.08l0.01 0 0.33 0.04 0.04 0 0.03 0.01 0.32 0.02 0.02 0 0.07 0.01 0.29 0.02 0.04 0 0.28 0.02 0.08 0 0.05 0.01 0.28 0.01 0.04 0 0.17 0.01 0.2 0 0.01 0 0.07 0 0.24 0.01 0.07 0 0.02 0 0.03 0 0.27 0 0.06 0 0.06 0 0.2 0 0.02 0 0.17 0 0.02 0 0.2 -0.01 -0.1 0.03c-0.74,0.41 -1.84,2.38 1.02,3.02 4.2,0.93 11.47,-1.83 9.9,-4.47 -0.35,-0.6 -0.79,-0.85 -1.33,-0.76 0.14,-0.07 0.28,-0.14 0.41,-0.21l0.01 0 0.25 -0.14 0.01 -0.01 0.02 -0.01 0.01 0c5.07,-2.83 6.19,-7.14 3.27,-10.6 0.11,0.13 0.22,0.25 0.32,0.38zm-28.67 -0.37l0.03 -0.04 0.03 -0.04 0.06 -0.07zm28.23 0.14l-0.02 -0.02 -0.02 -0.03 0.01 0.01z"/>
   <path class="fil1" d="M31.5 76.86l0.02 0.03 0.02 0.02 0.01 0.02 0.02 0.03 0.02 0.02 0.02 0.03 0.02 0.02 0.01 0.02 0.01 0.01 0.02 0.02 0.01 0.02 0.02 0.03 0.06 0.07 0.01 0.03 0.02 0.02 0.05 0.07 0.02 0.03 0.11 0.15 0.01 0.02 0.01 0.01 0.01 0.01 0.18 0.28 0.11 0.16 0.02 0.04 0.03 0.04 0.07 0.12 0 0 0.02 0.04 0.02 0.04 0.05 0.07 0.02 0.04 0.02 0.03 0.06 0.11 0.02 0.04 0.13 0.23 0.01 0.02 0.01 0.01 0.19 0.38 0.18 0.39 0 0.01 0 0 0.01 0.01 0 0 0 0.01 0 0 0.01 0.01 0 0 0 0.01 0 0 0 0.01 0.01 0 0 0.01 0 0 0 0.01 0 0.01 0.01 0 0 0.02 0 0 0.01 0.01 0 0 0 0.01 0 0 0.01 0.01 0 0 0 0.01 0 0 0.01 0.01 0 0.01 0 0 0 0 0.01 0.01 0 0.01c0.04,0.09 0.08,0.19 0.12,0.3l0.01 0.03 0.14 0.37 0 0.01 0 0.01 0 0 0.01 0.01 0 0c0.03,0.13 0.08,0.28 0.12,0.41l0.01 0.01 0 0.01 0 0 0 0 0 0.01 0 0.01 0.01 0.01 0 0 0 0.01 0 0 0 0.01 0.01 0.01 0 0.01 0 0 0 0 0 0.01 0.13 0.49c0.03,0.19 0.08,0.43 0.11,0.61l0.07 0.56c0.01,0.19 0.02,0.46 0.03,0.67l0 0.01 0 0 0 0.01 0 0.01 0 0.01 0 0.01 0 0.1 0 0.02 -0.01 0.09 0 0.03 0 0.12 0 0.01c-0.01,0.07 -0.01,0.14 -0.02,0.22l0 0.01 -0.01 0.04 -0.01 0.09 -0.01 0.12 0 0.01 -0.02 0.11 0 0 -0.02 0.1 0 0.02 0 0c-0.02,0.08 -0.03,0.16 -0.05,0.24l0 0.01c-0.02,0.07 -0.04,0.15 -0.06,0.22l0 0.01 -0.02 0.04 -0.02 0.08c-0.02,0.08 -0.05,0.16 -0.07,0.24l-0.01 0c-0.09,0.28 -0.21,0.56 -0.34,0.83l-0.01 0.01 -0.05 0.11 0 0c-0.15,0.27 -0.31,0.54 -0.5,0.81l0 0.01c-0.18,0.26 -0.39,0.52 -0.61,0.78l-0.02 0.02 -0.08 0.09 -0.1 0.11 0 0 -0.09 0.09 -0.02 0.02c-0.1,0.11 -0.21,0.21 -0.32,0.32l0 0 -0.04 0.05 -0.08 0.06 -0.03 0.03 -0.08 0.08 -0.02 0.01 -0.1 0.09 -0.01 0.01 -0.1 0.09 -0.01 0.01 -0.1 0.08 -0.02 0.02 -0.09 0.08 -0.01 0 -0.21 0.16 -0.01 0.02 -0.07 0.05 -0.05 0.04 -0.01 0.01 -0.23 0.17 -0.12 0.08 -0.01 0 -0.25 0.18 0.32 -0.4c1.42,-2.16 -1.19,-2.94 -1.35,-2.9l-0.13 0.06 0.1 -0.07 0.04 -0.02 0.17 -0.12 0.05 -0.03 0.13 -0.09 0.08 -0.06 0.13 -0.1 0.07 -0.05 0.12 -0.09 0.07 -0.05 0.11 -0.09 0.07 -0.06 0.02 -0.01 0.16 -0.14 0.02 -0.01 0.16 -0.15 0 0 0.17 -0.15 0 0 0.16 -0.15 0.14 -0.14 0.01 -0.01c0.1,-0.1 0.19,-0.2 0.28,-0.3l0.01 -0.01 0.11 -0.12 0.04 -0.05 0.1 -0.11 0.03 -0.04 0.09 -0.12 0.03 -0.04 0.1 -0.12 0.03 -0.05 0.08 -0.11 0.03 -0.05 0.09 -0.12 0.02 -0.03c0.41,-0.63 0.71,-1.29 0.87,-1.95l0.01 -0.04 0.03 -0.12 0.01 -0.05 0.03 -0.15 0 -0.01 0.02 -0.14 0.01 -0.04 0.02 -0.13 0 -0.04 0.02 -0.14 0 -0.03 0.01 -0.13 0 -0.07 0 -0.1 0 -0.06 0.01 -0.12 -0.01 -0.06 0 -0.1 0 -0.09 -0.01 -0.09 -0.01 -0.08 0 -0.1 -0.01 -0.05 -0.02 -0.13 -0.02 -0.16 0 -0.01 -0.03 -0.17 -0.01 0 -0.03 -0.17 -0.01 0 -0.04 -0.17 0 -0.01 -0.05 -0.16 0 0 -0.03 -0.1 -0.03 -0.08 -0.03 -0.09 -0.03 -0.08 -0.04 -0.1 -0.02 -0.07 -0.04 -0.09 -0.05 -0.1 -0.02 -0.05 -0.06 -0.13 -0.02 -0.04 -0.06 -0.12 -0.03 -0.06 -0.07 -0.12 -0.03 -0.05 -0.05 -0.1 -0.05 -0.08 -0.07 -0.11 -0.03 -0.04 -0.07 -0.12 -0.04 -0.06 -0.09 -0.12 -0.03 -0.04 -0.08 -0.11 -0.04 -0.05 -0.02 -0.02 -0.11 -0.14 -0.01 -0.02 -0.09 -0.1c0.11,0.13 0.22,0.25 0.32,0.38zm-0.32 -0.38l-0.02 -0.02 -0.02 -0.03 0.01 0.01 0.01 0.01zm-0.02 -0.02l0 0 -0.01 -0.01 -0.13 -0.15 0.02 0.02 0.02 0.02 0.02 0.03 0.02 0.02 0.02 0.02 0.02 0.03 0.02 0.02zm-0.01 -0.01l-0.01 -0.01z"/>
   <path class="fil1" d="M4.73 90.27l-0.11 -0.06 -0.03 -0.03 -0.07 -0.04 -0.08 -0.05 -0.03 -0.01 -0.19 -0.13 -0.02 -0.01 -0.04 -0.03 -0.06 -0.04 -0.08 -0.05 -0.02 -0.01c-0.13,-0.1 -0.26,-0.19 -0.39,-0.28l-0.09 -0.07c-0.1,-0.07 -0.19,-0.14 -0.28,-0.22l-0.09 -0.07c-1.1,-0.88 -1.91,-1.85 -2.43,-2.86l-0.04 -0.08 -0.08 -0.17 -0.04 -0.07 0 -0.01 -0.04 -0.08 -0.03 -0.08 -0.03 -0.06 -0.01 -0.03 -0.03 -0.08 0 0 -0.03 -0.08 -0.01 -0.03 -0.02 -0.05 -0.02 -0.07 -0.01 -0.02 0.09 0.05c0.98,0.95 0.98,0.95 1.25,0.75 0.5,-0.39 0.52,-2.1 0.52,-2.11 0,-0.01 -0.01,-0.15 -0.11,-0.51l0.04 0.01c0.14,0.24 0.31,0.48 0.49,0.71l0 0.01 0.13 0.16 0 0 0.14 0.16 0 0 0.14 0.15 0 0.01 0.15 0.15 0 0 0.05 0.05 0.08 0.09 0.02 0.02 0 0 0.02 0.02 0.08 0.08 0.06 0.05 0 0 0 0 0.11 0.11 0.05 0.05 0 0 0.06 0.05 0.11 0.1 0 0 0 0 0.06 0.05 0.06 0.05 0.06 0.05 0 0 0.06 0.05 0.11 0.09 0.01 0.01 0 0 0.06 0.05 0.06 0.05 0.07 0.04 0 0 0.06 0.05 0.06 0.05 0.07 0.05 0 0 0.06 0.05 0.07 0.05 0.07 0.04 0 0 0.06 0.05 0.14 0.1 0.07 0.04 0.07 0.05 0.07 0.05 0.22 0.13 0.07 0.05 0.07 0.04 0.08 0.05 0.26 0.15 0.03 0.02 0.01 0.01 0.27 0.14 0.02 0.02 0.24 0.13 0.08 0.03 0.22 0.12 0.05 0.02 0.02 0.01 0.27 0.13 0.01 0.01 0.31 0.14 0.29 0.12 0.06 0.03 0.27 0.11 0.02 0.01 0.05 0.01 0.28 0.11 0.01 0.01 0.3 0.11 0.02 0 0.02 0.01 0.26 0.09 0.05 0.02 0.04 0.01 0.28 0.09 0.04 0.01 0.3 0.1 0.02 0 0.04 0.02 0.26 0.07 0.05 0.02 0 0 0.04 0.01 0.28 0.07 0 0 0.02 0.01 0.14 0.03 0.15 0.04 0.07 0.02 0.09 0.02 0.16 0.04 0.1 0.02 0.07 0.02 0.25 0.06 0.04 0 0.03 0.01 0.16 0.03 0.17 0.04 0 0 0.16 0.03 0.16 0.03 0.04 0.01 0.01 0 0.28 0.05 0.08 0.01 0.02 0 0.28 0.05 0.16 0.02 0.21 0.03 0.06 0.01 0.02 0.01 0.17 0.02 0.17 0.02 0.01 0 0.32 0.04 0.13 0.01 0.04 0.01 0.17 0.01 0.17 0.02 0.24 0.02 0.05 0 0.05 0.01 0.02 0 0.25 0.02 0.06 0 0.01 0 0.17 0.01 0.17 0.01c-0.58,0.09 -1.33,2.15 0.03,3.09 0.28,0.19 0.54,0.3 0.79,0.4l0.55 0.19 0 0 -0.05 0 -0.32 0 -0.09 -0.01 -0.33 0 -0.09 -0.01 -0.28 -0.01 -0.08 0 -0.21 -0.01 0 0 -0.21 -0.01 -0.07 -0.01 -0.29 -0.02 -0.05 0 -0.19 -0.01 -0.02 0 -0.05 -0.01 -0.27 -0.02 -0.06 -0.01 -0.03 0 -0.03 0 -0.31 -0.03 -0.03 -0.01 -0.04 0 -0.3 -0.04 -0.15 -0.02 -0.23 -0.02 -0.2 -0.03 -0.22 -0.03 -0.06 -0.01 -0.05 -0.01 -0.2 -0.03 -0.06 -0.01 -0.14 -0.03 0 0 -0.2 -0.03 -0.04 -0.01 -0.16 -0.03 -0.28 -0.05 -0.05 -0.01 -0.07 -0.01 -0.26 -0.06 -0.11 -0.02 -0.02 -0.01 -0.2 -0.04 -0.02 -0.01 -0.14 -0.03 -0.3 -0.07 -0.03 -0.01 -0.09 -0.02 -0.2 -0.05 -0.03 -0.01 -0.16 -0.04 0 0 -0.19 -0.05 -0.03 -0.01 -0.15 -0.04 -0.01 0 -0.19 -0.06 -0.17 -0.05 -0.02 -0.01 -0.18 -0.05 -0.01 -0.01 -0.13 -0.04 -0.05 -0.01 -0.18 -0.06 -0.03 -0.01 -0.09 -0.03 -0.26 -0.09 -0.13 -0.05 -0.04 -0.02 -0.18 -0.06 -0.01 -0.01 -0.13 -0.04 -0.04 -0.02 -0.18 -0.07 -0.15 -0.06 -0.03 -0.01 -0.17 -0.07 -0.1 -0.04 -0.26 -0.11 -0.1 -0.05 -0.13 -0.06 -0.23 -0.11 -0.04 -0.02 -0.17 -0.08 -0.02 -0.01 -0.04 -0.01 -0.26 -0.14 -0.01 0 -0.02 -0.01 -0.04 -0.02 -0.27 -0.14 -0.01 -0.01 -0.01 -0.01 -0.28 -0.15 -0.02 -0.01 0 -0.01 -0.03 -0.01 -0.28 -0.17z"/>
   <path class="fil1" d="M4.73 90.27l-0.07 -0.04 -0.06 -0.04 -0.01 -0.01 -0.06 -0.03 -0.07 -0.04 -0.02 -0.02 -0.04 -0.02 -0.13 -0.09 -0.07 -0.04 -0.04 -0.03 -0.02 -0.01 -0.07 -0.05c-1.03,-0.7 -1.87,-1.46 -2.51,-2.26l-0.04 -0.05 -0.11 -0.15 -0.04 -0.05 0.21 0.09c1.65,0.72 1.28,-2.79 1.27,-2.84l0.06 0.07 0 0.01 0.04 0.03 0.03 0.04 0.06 0.07 0.01 0.01 0.03 0.04 0.04 0.03 0.03 0.04 0.02 0.01 0.02 0.03 0.11 0.11 0.02 0.02 0.02 0.02c0.09,0.09 0.2,0.19 0.3,0.29l0 0c0.33,0.3 0.7,0.59 1.1,0.88l0.01 0 0.04 0.03c0.19,0.13 0.38,0.27 0.59,0.39l0.01 0.01 0.21 0.13c0.09,0.05 0.18,0.11 0.27,0.16l0.02 0.01c0.18,0.1 0.36,0.2 0.54,0.29l0.08 0.05 0.23 0.11 0.04 0.02 0.02 0.01 0.27 0.13 0.01 0.01 0.01 0 0.3 0.13 0.01 0.01 0.3 0.13 0.01 0c0.11,0.05 0.21,0.09 0.32,0.13l0 0.01 0.3 0.11 0.03 0.01 0.33 0.12 0.02 0.01 0.26 0.09 0.05 0.02 0.02 0.01 0.32 0.1 0 0c0.22,0.07 0.45,0.14 0.67,0.2l0.02 0.01 0.01 0c0.22,0.06 0.43,0.12 0.65,0.17l0.04 0.01 0 0 0.35 0.08 0.02 0.01c0.23,0.05 0.46,0.1 0.7,0.15l0 0c0.7,0.14 1.41,0.25 2.13,0.33 -0.51,0.05 -1.24,2.25 -0.11,3.27l0.27 0.21 0.34 0.21 -0.16 -0.01 -0.08 -0.01 -0.09 -0.01 -0.17 -0.01 -0.14 -0.02 -0.03 0 -0.02 0 -0.31 -0.04 -0.05 0 -0.12 -0.02 -0.16 -0.02 0 0 -0.17 -0.02 -0.16 -0.03 -0.08 -0.01 -0.2 -0.03 -0.05 -0.01 -0.17 -0.02 -0.01 -0.01 -0.12 -0.02 -0.03 0 -0.16 -0.03 -0.15 -0.03 -0.02 0 -0.05 -0.01 -0.27 -0.05 -0.05 -0.01 -0.11 -0.02 -0.16 -0.04 -0.05 -0.01 -0.14 -0.03 -0.29 -0.06 -0.02 -0.01 -0.04 0 -0.33 -0.08 -0.03 -0.01 -0.32 -0.08 -0.04 -0.01 -0.02 -0.01 -0.15 -0.04 -0.16 -0.04 0 0 -0.1 -0.03 -0.05 -0.02 -0.16 -0.04 -0.05 -0.02 -0.1 -0.03 -0.31 -0.09 -0.02 -0.01 0 0 -0.33 -0.11 -0.03 -0.01 -0.07 -0.02 -0.29 -0.1 -0.01 0 -0.29 -0.11 -0.06 -0.02 -0.04 -0.02 -0.27 -0.1 -0.04 -0.02 -0.03 -0.01 -0.29 -0.12 -0.02 -0.01 -0.03 -0.01 -0.3 -0.13 -0.03 -0.01 -0.3 -0.14 -0.02 -0.01 0 0 -0.01 0 -0.27 -0.13 -0.05 -0.03 -0.01 0c-0.21,-0.1 -0.41,-0.21 -0.61,-0.32l-0.03 -0.01 -0.01 -0.01c-0.09,-0.05 -0.18,-0.1 -0.28,-0.15l-0.02 -0.02 -0.05 -0.03 -0.26 -0.15z"/>
   <path class="fil2" d="M4.73 90.27l-0.04 -0.02 -0.04 -0.02 -0.04 -0.03 -0.02 -0.02 -0.02 0 -0.03 -0.03 -0.04 -0.02 -0.04 -0.02 -0.02 -0.02 -0.02 -0.01 -0.04 -0.02 -0.04 -0.03 -0.03 -0.02 -0.01 -0.01 -0.03 -0.02 -0.04 -0.02 -0.04 -0.03 -0.03 -0.02 0 0 -0.04 -0.03 -0.04 -0.02 -0.25 -0.17 -0.04 -0.03c-0.46,-0.33 -0.88,-0.67 -1.25,-1.02 1.71,0.1 1.25,-3.04 1.12,-3.22l0.03 0.03 0.08 0.07 0.02 0.02 0.02 0.02 0.01 0 0.16 0.14 0.01 0.01 0.02 0.02 0.16 0.13 0.01 0 0.17 0.14 0.01 0 0.02 0.02 0.15 0.12 0.02 0.01 0.01 0.01 0.03 0.02 0.03 0.02 0.03 0.02 0.03 0.03 0.03 0.02 0.03 0.02 0.03 0.02 0.04 0.03 0.03 0.02 0.03 0.02 0.03 0.02 0.03 0.02 0.02 0.02 0.01 0 0.04 0.03 0.03 0.02 0.12 0.08 0.01 0 0 0.01 0.03 0.02 0.04 0.02 0.1 0.06 0.03 0.02 0.02 0.01 0.01 0.01 0.01 0.01 0.13 0.08 0.04 0.02 0.03 0.02 0.26 0.15 0.03 0.02 0.01 0.01c0.19,0.1 0.38,0.21 0.57,0.31l0 0c0.8,0.41 1.66,0.77 2.55,1.07l0.02 0c0.33,0.12 0.67,0.22 1.01,0.32l0.01 0c0.21,0.06 0.42,0.11 0.63,0.17l0.06 0.01 0.04 0.01 0.31 0.07 0.01 0.01 0.32 0.07 0.03 0 0.29 0.07 0.07 0.01 0.04 0.01c-0.12,0.02 -1.48,1.85 -0.1,3.47l0.26 0.23 -0.38 -0.07 -0.12 -0.02 -0.13 -0.03 -0.12 -0.02 -0.13 -0.03 -0.24 -0.05 -0.13 -0.03 -0.02 -0.01 -0.19 -0.04 -0.25 -0.06 -0.03 -0.01 0 0 -0.04 -0.01 -0.2 -0.05 -0.12 -0.03 -0.02 0 -0.1 -0.03 -0.24 -0.07 -0.04 -0.01 -0.08 -0.02 -0.12 -0.04 -0.12 -0.03 -0.05 -0.01 -0.03 -0.01zm-1.42 -0.48l-0.01 -0.01 -0.34 -0.13 0 0 -0.33 -0.13 -0.01 -0.01c-0.22,-0.09 -0.43,-0.18 -0.64,-0.28l-0.04 -0.02 -0.02 -0.01c-0.43,-0.2 -0.85,-0.42 -1.25,-0.65l-0.02 -0.01 -0.01 0c-0.1,-0.06 -0.2,-0.12 -0.3,-0.18z"/>
   <path class="fil2" d="M4.73 90.27l-0.01 0 -0.01 -0.01 -0.01 -0.01 -0.01 0 -0.1 -0.06 0 -0.01 -0.11 -0.06 -0.01 -0.01 -0.01 0 -0.01 -0.01 -0.01 -0.01 0 0 -0.01 0 -0.01 -0.01 -0.02 -0.01 -0.01 0 -0.01 -0.01 -0.01 -0.01 -0.01 -0.01 -0.01 0 -0.01 -0.01 -0.01 -0.01 -0.01 0 -0.01 -0.01 -0.01 -0.01 0 0 -0.01 0 -0.01 -0.01 -0.01 -0.01 -0.01 0 -0.01 -0.01 -0.01 -0.01 -0.01 0 -0.02 -0.01 -0.01 -0.01 -0.01 -0.01 -0.01 0 -0.01 -0.01 -0.01 -0.01 0 0 -0.01 0 -0.01 -0.01 -0.01 -0.01 -0.01 0 -0.01 -0.01 -0.06 -0.04 0.32 0.03 0.34 -0.17c0.15,-0.14 0.36,-0.18 0.49,-0.34 0.01,0 0.15,-0.18 0.23,-0.51 0.02,-0.1 0.09,-0.46 0.02,-0.98l-0.07 -0.39c-0.05,-0.21 0.01,-0.43 -0.04,-0.64 -0.04,-0.14 -0.04,-0.15 -0.21,-0.28l0.01 0 0.01 0.01 0.04 0.02 0.01 0.01 0.01 0 0 0.01 0.01 0 0.01 0.01 0 0 0.01 0.01 0.01 0 0.01 0 0 0.01 0.01 0 0.01 0.01 0 0 0.01 0.01 0.01 0 0.01 0.01 0 0 0.01 0.01 0.01 0 0 0.01 0.01 0 0.01 0.01 0.01 0 0 0 0.01 0.01 0.02 0.01 0.01 0.01 0.01 0 0.01 0.01 0 0 0.01 0.01 0.01 0 0 0 0.01 0.01 0.01 0 0.01 0.01 0 0 0.02 0.01 0.01 0.01 0 0 0.01 0.01 0.02 0 0 0.01 0.01 0 0.01 0.01 0 0 0.01 0.01 0.01 0 0.01 0.01 0.01 0 0 0.01 0.01 0 0.25 0.15 0.04 0.02 0.01 0.01 0.25 0.14 0.03 0.01 0.03 0.01 0.05 0.03 0.1 0.06 0.05 0.03 0.06 0.02 0.05 0.03 0.05 0.03 0.05 0.02 0.06 0.03 0.05 0.03 0.11 0.05 0.05 0.02 0.05 0.03 0.06 0.03 0.05 0.02 0.03 0.02 0.02 0.01 0.06 0.02 0.11 0.05 0.05 0.03 0.06 0.02 0.06 0.03 0.16 0.07 0.05 0.02 0.06 0.02 0 0 0.06 0.03 0.05 0.02 0.06 0.02 0.11 0.05 0.09 0.04 0.14 0.05 0.05 0.02 0.06 0.02 0.03 0.01 0.03 0.01 0.06 0.02 0.17 0.07 0.06 0.02 0.01 0 0.05 0.02 0.05 0.02 0.22 0.07 0.01 0.01 0.01 0 0.06 0.02 -0.18 -0.03c-0.06,0.01 -0.7,0.85 -0.66,1.93 0.01,0.18 0.03,0.66 0.81,1.65l0.35 0.28 -0.24 -0.07 -0.02 0 -0.06 -0.02 -0.23 -0.07 -0.08 -0.03 0 0 -0.08 -0.02 -0.16 -0.05 -0.07 -0.03 -0.05 -0.02 -0.03 -0.01 -0.08 -0.02 -0.15 -0.06 -0.08 -0.02 -0.08 -0.03 -0.07 -0.03 -0.08 -0.03 -0.07 -0.02 -0.16 -0.06 -0.07 -0.03 -0.08 -0.03 -0.07 -0.03 -0.15 -0.06 -0.07 -0.03 -0.08 -0.03 -0.15 -0.06 -0.07 -0.03 -0.07 -0.03 -0.07 -0.04 -0.15 -0.06 -0.07 -0.03 -0.07 -0.04 -0.08 -0.03 -0.13 -0.06 -0.17 -0.08 -0.12 -0.06 -0.07 -0.04 -0.07 -0.03 -0.07 -0.04 -0.07 -0.03 0 0 -0.07 -0.04 -0.13 -0.07 -0.07 -0.04 -0.05 -0.02 -0.02 -0.01 -0.27 -0.15 -0.02 -0.02 -0.05 -0.02c-0.08,-0.05 -0.17,-0.1 -0.26,-0.16z"/>
   <path class="fil2" d="M24.77 90.02c-0.17,1.36 -3.9,2.28 -4.7,1.16 -0.42,-0.6 0.5,-1.33 0.65,-1.42 0.48,-0.28 2.32,-0.76 2.92,-0.66 1.13,0.18 1.15,0.75 1.13,0.92z"/>
   <path class="fil2" d="M23.79 90.3c-0.06,0.34 -1.39,0.87 -1.4,0.88 -0.01,0 -1.18,0.01 -1.43,-0.31l-0.06 -0.17c0.04,-0.36 1.24,-0.96 1.29,-0.98 0.16,-0.04 1.43,0.04 1.54,0.23l0.06 0.35z"/>
   <path class="fil2" d="M1.26 79.71c0.08,-0.51 0.24,-1.58 1.39,-3.02l0.05 -0.06 0.16 -0.18 0.03 -0.04 -0.03 0.04 -0.04 0.05 0 0 0 0 -0.04 0.05 -0.05 0.05 -0.04 0.05 -0.01 0.01 -0.03 0.05 -0.04 0.05 -0.04 0.05 -0.01 0.01 -0.03 0.04 -0.04 0.06 -0.04 0.05 -0.04 0.05 -0.04 0.06 -0.03 0.05 -0.04 0.05 -0.04 0.06 -0.03 0.05 -0.07 0.11 -0.04 0.05 -0.06 0.1 0 0.01 -0.03 0.05 -0.03 0.06 -0.03 0.05 -0.03 0.06 -0.03 0.05 -0.03 0.05 -0.03 0.06 -0.05 0.11 -0.03 0.05 -0.05 0.11 0 0 -0.02 0.06 -0.05 0.09 0 0.02 -0.02 0.05 -0.03 0.06 0 0 -0.02 0.06 -0.02 0.05 -0.01 0.02 -0.03 0.08 -0.04 0.12 0 0.01 -0.02 0.05 -0.03 0.11 0 0.01 0 0.01c-0.09,0.27 -0.14,0.55 -0.18,0.83l0.01 -0.13zm1.63 -3.3l0.06 -0.07 -0.04 0.05 -0.02 0.02z"/>
   <path class="fil1" d="M31.5 76.86l0.02 0.03 0.02 0.02 0.01 0.02 0.02 0.03 0.02 0.02 0.02 0.03 0.02 0.02 0.01 0.02 0.01 0.01 0.02 0.02 0.01 0.02 0.02 0.03 0.06 0.07 0.01 0.03 0.02 0.02 0.05 0.07 0.02 0.03 0.11 0.15 0.01 0.02 0.01 0.01 0.01 0.01 0.18 0.28 0.11 0.16 0.02 0.04 0.03 0.04 0.07 0.12 0 0 0.02 0.04 0.02 0.04 0.05 0.07 0.02 0.04 0.02 0.03 0.06 0.11 0.02 0.04 0.13 0.23 0.01 0.02 0.01 0.01 0.19 0.38 0.18 0.39 0 0.01 0 0 0.01 0.01 0 0 0 0.01 0 0 0.01 0.01 0 0 0 0.01 0 0 0 0.01 0.01 0 0 0.01 0 0 0 0.01 0 0.01 0.01 0 0 0.02 0 0 0.01 0.01 0 0 0 0.01 0 0 0.01 0.01 0 0 0 0.01 0 0 0.01 0.01 0 0.01 0 0 0 0 0.01 0.01 0 0.01c0.04,0.09 0.08,0.19 0.12,0.3l0.01 0.03 0.14 0.37 0 0.01 0 0.01 0 0 0.01 0.01 0 0c0.03,0.13 0.08,0.28 0.12,0.41l0.01 0.01 0 0.01 0 0 0 0 0 0.01 0 0.01 0.01 0.01 0 0 0 0.01 0 0 0 0.01 0.01 0.01 0 0.01 0 0 0 0 0 0.01 0.13 0.49c0.03,0.19 0.08,0.43 0.11,0.61l0.07 0.56c0.01,0.19 0.02,0.46 0.03,0.67l0 0.01 0 0 0 0.01 0 0.01 0 0.01 0 0.01 0 0.08 0 0.04 0 0.03 -0.01 0.08 0 0.01 0 0.07 0 0.05 0 0.03 -0.01 0.07 0 0.02 -0.01 0.06 0 0.06 0 0.02 -0.01 0.08 -0.01 0.03 0 0.05 -0.01 0.07 0 0 -0.01 0.08 -0.01 0.04 -0.01 0.04 -0.01 0.08 0 0 -0.02 0.07 -0.01 0.05 0 0.03 -0.02 0.08 0 0.01 -0.02 0.07 -0.01 0.05 -0.01 0.02 -0.02 0.08 -0.02 0.08 -0.02 0.06 0 0.02 -0.03 0.07 -0.01 0.03 -0.01 0.05 -0.03 0.07 0 0.01 -0.02 0.07 -0.02 0.04 -0.01 0.04 -0.03 0.08 0 0 -0.03 0.07 -0.02 0.05 -0.01 0.03 -0.03 0.08 -0.01 0.01 -0.03 0.06 -0.01 0.02 -0.02 0.06 -0.04 0.07 -0.01 0.02 -0.02 0.06c-0.04,0.07 -0.08,0.15 -0.12,0.22l-0.04 0.08 0 0 -0.04 0.07 -0.04 0.08 -0.05 0.07 0 0.01 -0.04 0.07 -0.05 0.07 -0.04 0.08 -0.01 0.01 -0.04 0.06 -0.04 0.06 -0.01 0.02 -0.05 0.07 -0.02 0.02 -0.03 0.05 -0.05 0.06 0 0.02 -0.06 0.07 -0.02 0.03 -0.03 0.04 -0.05 0.07 -0.01 0 -0.05 0.08 -0.03 0.03 -0.03 0.04 -0.06 0.07 0 0.01 -0.01 0 -0.09 0.11 0 0 -0.02 0.02 -0.06 0.07 -0.01 0.02 -0.05 0.06 -0.05 0.05 -0.1 0.11 -0.05 0.05 -0.06 0.06 0 0.01 0.15 -0.35c0.73,-2.11 -1.2,-2.75 -1.45,-2.7 0.3,-0.29 0.57,-0.6 0.82,-0.91l0.01 -0.01c0.17,-0.22 0.32,-0.44 0.46,-0.67l0.01 -0.01 0.07 -0.12 0.02 -0.03 0.07 -0.12 0.07 -0.13 0.05 -0.09 0.04 -0.08 0.04 -0.09 0.02 -0.04 0.05 -0.11 0.02 -0.04 0.05 -0.11 0.05 -0.14 0.03 -0.09 0.03 -0.07 0.03 -0.1 0.02 -0.06 0.03 -0.09 0.01 -0.02 0.03 -0.13 0.01 -0.01 0.03 -0.14 0.01 -0.03 0.01 -0.03 0.02 -0.12 0.01 -0.06 0.02 -0.09 0.02 -0.09 0 -0.05 0.02 -0.11 0.02 -0.14 0 -0.02 0 -0.05 0.01 -0.1 0.01 -0.08 0 -0.09 0 -0.07 0.01 -0.13 0 -0.03 0 -0.01 -0.01 -0.14 0 -0.03 0 -0.04 0 -0.11 -0.01 -0.06 -0.01 -0.12 0 -0.04 -0.02 -0.14 0 -0.03 0 0 -0.03 -0.15 0 -0.03 -0.01 -0.03 -0.02 -0.13 -0.01 -0.04 -0.03 -0.14 -0.01 -0.02 -0.03 -0.15 -0.01 -0.02 0 -0.01 -0.04 -0.14 -0.01 -0.03 -0.02 -0.05 -0.03 -0.1 -0.02 -0.05 -0.04 -0.13 -0.02 -0.05 -0.06 -0.14 -0.01 -0.01 0 -0.01 -0.07 -0.16 -0.01 -0.02 -0.07 -0.15 -0.01 -0.03 -0.07 -0.13 -0.02 -0.04 -0.09 -0.16 0 -0.01 -0.09 -0.15 -0.04 -0.06 -0.06 -0.1 -0.03 -0.05 -0.08 -0.11 -0.04 -0.06 -0.01 -0.01 -0.09 -0.14 0 0 0 0 -0.12 -0.15 -0.04 -0.05 -0.07 -0.1 -0.05 -0.06 -0.03 -0.03c0.09,0.1 0.18,0.21 0.27,0.32zm-0.33 -0.4l-0.01 0 -0.02 -0.03 0.01 0.01 0.01 0.01 0.01 0.01zm-0.03 -0.03l0 0 -0.02 -0.02 0.02 0.02zm-0.02 -0.02l-0.01 -0.01 -0.11 -0.13 0.02 0.02 0.02 0.02 0.02 0.03 0.02 0.02 0.02 0.02 0.02 0.03zm-0.01 -0.01l-0.01 -0.02z"/>
   <path class="fil1" d="M31.5 76.86l0.02 0.03 0.02 0.02 0.01 0.02 0.02 0.03 0.02 0.02 0.02 0.03 0.02 0.02 0.01 0.02 0.01 0.01 0.02 0.02 0.01 0.02 0.02 0.03 0.06 0.07 0.01 0.03 0.02 0.02 0.05 0.07 0.02 0.03 0.11 0.15 0.01 0.02 0.01 0.01 0.01 0.01 0.18 0.28 0.11 0.16 0.02 0.04 0.03 0.04 0.07 0.12 0 0 0.02 0.04 0.02 0.04 0.05 0.07 0.02 0.04 0.02 0.03 0.06 0.11 0.02 0.04 0.13 0.23 0.01 0.02 0.01 0.01 0.19 0.38 0.18 0.39 0 0.01 0 0 0.01 0.01 0 0 0 0.01 0 0 0.01 0.01 0 0 0 0.01 0 0 0 0.01 0.01 0 0 0.01 0 0 0 0.01 0 0.01 0.01 0 0 0.02 0 0 0.01 0.01 0 0 0 0.01 0 0 0.01 0.01 0 0 0 0.01 0 0 0.01 0.01 0 0.01 0 0 0 0 0.01 0.01 0 0.01c0.04,0.09 0.08,0.19 0.12,0.3l0.01 0.03 0.14 0.37 0 0.01 0 0.01 0 0 0.01 0.01 0 0c0.03,0.13 0.08,0.28 0.12,0.41l0.01 0.01 0 0.01 0 0 0 0 0 0.01 0 0.01 0.01 0.01 0 0 0 0.01 0 0 0 0.01 0.01 0.01 0 0.01 0 0 0 0 0 0.01 0.13 0.49c0.03,0.19 0.08,0.43 0.11,0.61l0.07 0.56c0.01,0.19 0.02,0.46 0.03,0.67l0 0.01 0 0 0 0.01 0 0.01 0 0.01 0 0.01 0 0.05 0 0.05 0 0.02 0 0.04 -0.01 0.05 0 0.03 0 0.03 0 0.08 0 0.01 0 0.01 0 0.01 -0.01 0.1 0 0 0 0.05 -0.01 0.06 0 0.01 -0.01 0.04 0 0.05 -0.01 0.04 0 0.02 -0.01 0.05 0 0.05 0 0 -0.01 0.06 -0.01 0.05 0 0.01 -0.01 0.04 -0.01 0.06 0 0.02 -0.01 0.03 -0.01 0.05 -0.01 0.04 0 0.02 -0.01 0.05 -0.01 0.05 0 0 -0.02 0.06 -0.01 0.05 0 0.01 -0.01 0.04 -0.02 0.06 0 0.02 -0.01 0.03 -0.02 0.05 -0.01 0.04 0 0.02 -0.02 0.05 -0.02 0.05 0 0 -0.01 0.05 -0.02 0.06 -0.01 0.01 -0.01 0.04 -0.02 0.05 -0.01 0.03 -0.01 0.03 -0.02 0.05 -0.01 0.04 -0.01 0.01 -0.02 0.05 -0.02 0.06 0 0 -0.02 0.05 -0.02 0.05 -0.01 0.02 -0.04 0.08 -0.01 0.04 -0.01 0.02 -0.02 0.05 -0.03 0.04 0 0.01 -0.02 0.05 -0.03 0.05 0 0.01 -0.03 0.05 -0.02 0.05 -0.01 0.02 -0.02 0.03 -0.03 0.05 -0.02 0.04 -0.01 0.01 -0.02 0.06 -0.03 0.04 0 0.01 -0.03 0.05 -0.03 0.05 -0.01 0.01 -0.02 0.04 -0.03 0.05 -0.02 0.03 -0.02 0.02 0.09 -0.32c0.39,-2.17 -1.21,-2.87 -1.23,-2.87 0.72,-1.15 1.02,-2.36 0.91,-3.57l0 -0.01c-0.01,-0.15 -0.03,-0.31 -0.06,-0.46l-0.02 -0.12 0 0 -0.02 -0.1 -0.01 -0.03 -0.02 -0.1 -0.03 -0.12c-0.04,-0.15 -0.09,-0.3 -0.14,-0.45l-0.01 -0.03 -0.07 -0.16 -0.02 -0.06 -0.04 -0.09 0 -0.01 -0.05 -0.12 -0.03 -0.06 -0.04 -0.08 -0.03 -0.06 -0.05 -0.1 -0.06 -0.12 -0.04 -0.06 -0.03 -0.06 -0.01 -0.02 -0.07 -0.11 -0.05 -0.09 -0.02 -0.02 -0.05 -0.09 -0.02 -0.03 -0.07 -0.11 -0.01 -0.01 -0.05 -0.07 -0.02 -0.03 -0.06 -0.09 -0.02 -0.02 -0.1 -0.13 -0.03 -0.04 -0.07 -0.1 -0.04 -0.04 -0.01 -0.01 -0.02 -0.03 -0.03 -0.03c0.1,0.11 0.19,0.22 0.28,0.33zm-0.28 -0.33l-0.02 -0.03 -0.02 -0.02 0 0 -0.02 -0.03 0 0 -0.01 -0.01 -0.01 -0.01 -0.02 -0.02 0 0 0.04 0.04 -0.02 -0.02 -0.02 -0.02 -0.02 -0.03 -0.04 -0.04 -0.02 -0.03 -0.02 -0.02 -0.02 -0.02 0.12 0.14z"/>
   <path class="fil1" d="M31.5 76.86l0.02 0.03 0.02 0.02 0.01 0.02 0.02 0.03 0.02 0.02 0.02 0.03 0.02 0.02 0.01 0.02 0.01 0.01 0.02 0.02 0.01 0.02 0.02 0.03 0.06 0.07 0.01 0.03 0.02 0.02 0.05 0.07 0.02 0.03 0.11 0.15 0.01 0.02 0.01 0.01 0.01 0.01 0.18 0.28 0.11 0.16 0.02 0.04 0.03 0.04 0.07 0.12 0 0 0.02 0.04 0.02 0.04 0.05 0.07 0.02 0.04 0.02 0.03 0.06 0.11 0.02 0.04 0.13 0.23 0.01 0.02 0.01 0.01 0.19 0.38 0.18 0.39 0 0.01 0 0 0.01 0.01 0 0 0 0.01 0 0 0.01 0.01 0 0 0 0.01 0 0 0 0.01 0.01 0 0 0.01 0 0 0 0.01 0 0.01 0.01 0 0 0.02 0 0 0.01 0.01 0 0 0 0.01 0 0 0.01 0.01 0 0 0 0.01 0 0 0.01 0.01 0 0.01 0 0 0 0 0.01 0.01 0 0.01c0.04,0.09 0.08,0.19 0.12,0.3l0.01 0.03 0.14 0.37 0 0.01 0 0.01 0 0 0.01 0.01 0 0c0.03,0.13 0.08,0.28 0.12,0.41l0.01 0.01 0 0.01 0 0 0 0 0 0.01 0 0.01 0.01 0.01 0 0 0 0.01 0 0 0 0.01 0.01 0.01 0 0.01 0 0 0 0 0 0.01 0.13 0.49c0.03,0.19 0.08,0.43 0.11,0.61l0.07 0.56c0.01,0.19 0.02,0.46 0.03,0.67l0 0.01 0 0 0 0.01 0 0.01 0 0.01 0 0.01 0 0.09 0 0.03 0 0 0 0.03 0 0.03 -0.01 0.03 0 0.03 0 0 0 0.03 0 0.06 0 0.03 0 0 0 0.03 -0.01 0.03 0 0.06 0 0 0 0.04 -0.01 0.03 0 0.03 0 0.02 0 0.01 -0.01 0.03 0 0.03 0 0.03 -0.01 0.03 0 0 0 0.03 0 0.03 -0.01 0.03 0 0.03 0 0 -0.01 0.03 0 0.03 -0.01 0.03 0 0.03 0 0 -0.01 0.03 0 0.03 -0.01 0.03 0 0.03 0 0 -0.01 0.03 -0.02 0.09 0 0.01 -0.02 0.11 0 0.01 -0.01 0.03 -0.02 0.08 0 0.01 -0.03 0.09 0 0.02 -0.01 0.01 -0.03 0.11 0 0.01c-0.02,0.08 -0.05,0.16 -0.08,0.24l0.04 -0.28c0.15,-2.18 -1.14,-3.04 -1.16,-3.04l0.02 -0.08 0.01 -0.02 0 -0.01 0.01 -0.03 0.04 -0.14 0 -0.01 0.04 -0.17 0 -0.01 0.01 -0.08 0.02 -0.09 0 0 0.02 -0.09 0 -0.05 0.01 -0.09 0.02 -0.1 0 -0.03 0 -0.01 0.01 -0.09 0 -0.04 0.01 -0.08 0 -0.11 0 -0.04 0 -0.01 0 -0.02 0.01 -0.1 0 -0.08 -0.01 -0.12 0 -0.03 0 -0.01 0 -0.14 -0.01 -0.03 0 -0.02 -0.01 -0.13 0 -0.03 0 -0.02 -0.01 -0.09 -0.01 -0.02 -0.01 -0.07 -0.01 -0.1 0 -0.01 -0.01 -0.06 -0.03 -0.15 0 -0.02 -0.01 -0.03 -0.03 -0.14 -0.01 -0.01 -0.03 -0.14 -0.02 -0.06 0 -0.01 -0.03 -0.09 0 -0.02 -0.02 -0.06 -0.05 -0.14 0 -0.01 -0.02 -0.05 -0.03 -0.09 -0.01 -0.01 -0.02 -0.06 -0.05 -0.13 -0.01 -0.01 -0.02 -0.06 -0.05 -0.11 -0.01 -0.02 -0.06 -0.13 -0.02 -0.03 0 -0.01 -0.07 -0.14 -0.01 -0.03 -0.02 -0.02 -0.07 -0.13 -0.01 -0.02 -0.01 -0.02 -0.08 -0.13 -0.01 -0.03 -0.02 -0.02 -0.08 -0.13 -0.01 -0.02 0 0 -0.1 -0.15 -0.01 -0.02 0 0 -0.11 -0.16 -0.01 -0.01 -0.12 -0.16 -0.01 -0.01 0 0 -0.11 -0.13 -0.01 -0.03 -0.01 0 -0.03 -0.04 -0.03 -0.03c0.1,0.11 0.19,0.22 0.28,0.33zm-0.35 -0.43l-0.01 0 0 0 -0.14 -0.16 0.02 0.02 0.02 0.02 0.11 0.13 0.01 0.01 -0.01 -0.02z"/>
   <path class="fil1" d="M31.5 76.86l0.02 0.03 0.02 0.02 0.01 0.02 0.02 0.03 0.02 0.02 0.02 0.03 0.02 0.02 0.01 0.02 0.01 0.01 0.02 0.02 0.01 0.02 0.02 0.03 0.06 0.07 0.01 0.03 0.02 0.02 0.05 0.07 0.02 0.03 0.11 0.15 0.01 0.02 0.01 0.01 0.01 0.01 0.18 0.28 0.11 0.16 0.02 0.04 0.03 0.04 0.07 0.12 0 0 0.02 0.04 0.02 0.04 0.05 0.07 0.02 0.04 0.02 0.03 0.06 0.11 0.02 0.04 0.13 0.23 0.01 0.02 0.01 0.01 0.19 0.38 0.18 0.39 0 0.01 0 0 0.01 0.01 0 0 0 0.01 0 0 0.01 0.01 0 0 0 0.01 0 0 0 0.01 0.01 0 0 0.01 0 0 0 0.01 0 0.01 0.01 0 0 0.02 0 0 0.01 0.01 0 0 0 0.01 0 0 0.01 0.01 0 0 0 0.01 0 0 0.01 0.01 0 0.01 0 0 0 0 0.01 0.01 0 0.01c0.04,0.09 0.08,0.19 0.12,0.3l0.01 0.03 0.14 0.37 0 0.01 0 0.01 0 0 0.01 0.01 0 0c0.03,0.13 0.08,0.28 0.12,0.41l0.01 0.01 0 0.01 0 0 0 0 0 0.01 0 0.01 0.01 0.01 0 0 0 0.01 0 0 0 0.01 0.01 0.01 0 0.01 0 0 0 0 0 0.01 0.13 0.49c0.03,0.19 0.08,0.43 0.11,0.61l0.07 0.56c0.01,0.19 0.02,0.46 0.03,0.67l0 0.01 0 0 0 0.01 0 0.01 0 0.01 0 0.01 0 0 0 0.01 0 0.01 0 0 0 0.01 0 0 0 0.01 0 0.01 0 0 0 0.01 0 0.01 0 0 0 0.01 0 0.01 0 0 0 0.01 0 0 0 0.01 0 0.01 0 0.01 0 0.01 0 0 0 0.01 0 0 0 0.01 0 0.01 0 0 0 0.01 -0.01 0.03 0 0 0 0.01 0 0 0 0.01 0 0.01 0 0 0 0 0 0.14 0 -0.3c-0.11,-2.14 -1.19,-3.1 -1.22,-3.11 0,-0.22 -0.02,-0.44 -0.05,-0.66l-0.01 -0.07 -0.02 -0.13 0 0 -0.02 -0.07 -0.02 -0.12 0 -0.01 -0.02 -0.06 -0.01 -0.07 -0.02 -0.06 0 0 -0.04 -0.13 -0.01 -0.07 -0.05 -0.13 -0.02 -0.06 -0.02 -0.07 -0.02 -0.06 -0.03 -0.07 -0.02 -0.06 -0.03 -0.07 -0.05 -0.13 0 0 -0.03 -0.06 0 0 -0.03 -0.07 -0.03 -0.06 -0.03 -0.06 0 -0.01 -0.03 -0.06 -0.03 -0.06 -0.03 -0.07 -0.04 -0.06 -0.03 -0.06 -0.01 -0.02 -0.06 -0.1 0 -0.01 -0.04 -0.06 -0.07 -0.11 -0.01 -0.02 -0.04 -0.06 0 0 -0.04 -0.06 -0.04 -0.07 -0.04 -0.06 -0.03 -0.05 -0.01 -0.01 -0.05 -0.06 -0.04 -0.07 0 0 -0.04 -0.06 -0.07 -0.08 -0.02 -0.03 -0.01 -0.01 -0.01 -0.02 -0.08 -0.1 -0.03 -0.03 -0.02 -0.03 -0.04 -0.04c0.1,0.11 0.19,0.22 0.28,0.33zm-0.28 -0.33l-0.01 -0.02 -0.01 -0.01 -0.02 -0.02 0 -0.01 -0.02 -0.02 -0.02 -0.02 -0.01 -0.01 -0.13 -0.15 0.02 0.02 0.02 0.02 0.01 0.02 0.01 0.01 0.09 0.1 0.01 0.01z"/>
   <path class="fil1" d="M31.5 76.86l0.02 0.03 0.02 0.02 0.01 0.02 0.02 0.03 0.02 0.02 0.02 0.03 0.02 0.02 0.01 0.02 0.01 0.01 0.02 0.02 0.01 0.02 0.02 0.03 0.06 0.07 0.01 0.03 0.02 0.02 0.05 0.07 0.02 0.03 0.11 0.15 0.01 0.02 0.01 0.01 0.01 0.01 0.18 0.28 0.11 0.16 0.02 0.04 0.03 0.04 0.07 0.12 0 0 0.02 0.04 0.02 0.04 0.05 0.07 0.02 0.04 0.02 0.03 0.06 0.11 0.02 0.04 0.13 0.23 0.01 0.02 0.01 0.01 0.19 0.38 0.18 0.39 0 0.01 0 0 0.01 0.01 0 0 0 0.01 0 0 0.01 0.01 0 0 0 0.01 0 0 0 0.01 0.01 0 0 0.01 0 0 0 0.01 0 0.01 0.01 0 0 0.02 0 0 0.01 0.01 0 0 0 0.01 0 0 0.01 0.01 0 0 0 0.01 0 0 0.01 0.01 0 0.01 0 0 0 0 0.01 0.01 0 0.01c0.04,0.09 0.08,0.19 0.12,0.3l0.01 0.03 0 0 0.08 0.22 0.01 0.03 0.01 0.03zm-1.08 -1.94l-0.04 -0.11 -0.01 -0.01 0 -0.02 -0.07 -0.16 -0.01 -0.02 -0.05 -0.1 -0.02 -0.04 -0.01 -0.01 0 -0.02 -0.06 -0.11 -0.02 -0.03 0 -0.02 -0.01 -0.01 -0.02 -0.04 -0.02 -0.03 -0.02 -0.04 -0.02 -0.03 -0.01 -0.02 -0.01 -0.02 -0.02 -0.03 -0.02 -0.03 -0.02 -0.04 -0.02 -0.03 -0.02 -0.04 -0.02 -0.03 -0.02 -0.04 -0.02 -0.03 -0.02 -0.03 -0.02 -0.03 -0.01 -0.01 -0.02 -0.03 -0.02 -0.04 -0.02 -0.03 -0.03 -0.03 -0.01 -0.03 -0.01 -0.01 -0.02 -0.03 -0.02 -0.03 -0.03 -0.04 -0.02 -0.03 -0.02 -0.03 -0.01 0 -0.02 -0.04 -0.08 -0.1 -0.02 -0.03 0 0 -0.03 -0.03 -0.08 -0.11 -0.02 -0.03 -0.03 -0.03 -0.02 -0.03 -0.01 0 0 0 -0.02 -0.03 0 -0.01 -0.02 -0.01 -0.01 -0.02 -0.01 -0.01 -0.01 -0.01 -0.04 -0.04 -0.01 -0.02 -0.06 -0.07 -0.01 -0.01 -0.01 -0.01 -0.02 -0.02 0.11 0.13 0.03 0.03 0 0 0.03 0.03c-0.03,-0.03 0,0 0.33,0.4l-0.27 -0.33z"/>
   <path class="fil0" d="M29.31 83.97c-0.65,0.63 -1.45,1.22 -2.4,1.75 -2.64,1.47 -6,2.24 -9.4,2.32 -1.7,0.04 -3.41,-0.09 -5.05,-0.4 -2.14,-0.41 -4.15,-1.12 -5.82,-2.13l-0.15 -0.09c-0.37,-0.23 -0.71,-0.46 -1.03,-0.71 -1.78,-1.39 -2.72,-3.03 -2.81,-4.68 -0.08,-1.57 0.6,-3.15 2.04,-4.54 0.64,-0.62 1.43,-1.2 2.37,-1.72 1.28,-0.72 2.74,-1.27 4.28,-1.65 5.33,-1.33 11.74,-0.7 15.99,1.85 2.04,1.23 3.3,2.73 3.77,4.29 0.29,0.96 0.3,1.93 0.01,2.89 -0.29,0.98 -0.9,1.94 -1.8,2.82zm3.21 -5.1c-0.52,-1.72 -1.9,-3.37 -4.15,-4.72 -4.67,-2.81 -11.73,-3.51 -17.59,-2.04 -1.7,0.42 -3.3,1.03 -4.72,1.82 -1.03,0.57 -1.9,1.21 -2.6,1.89 -1.59,1.53 -2.34,3.27 -2.25,5 0.1,1.81 1.13,3.62 3.1,5.15 0.34,0.27 0.72,0.53 1.12,0.78l0.17 0.1c1.84,1.11 4.05,1.89 6.41,2.33 1.8,0.35 3.68,0.5 5.56,0.45 3.73,-0.08 7.43,-0.93 10.34,-2.55 1.05,-0.59 1.93,-1.24 2.64,-1.93 1,-0.97 1.66,-2.02 1.98,-3.11 0.32,-1.04 0.31,-2.12 -0.01,-3.17z"/>
   <path class="fil3" d="M11.09 41.05c0.01,-0.32 0,-0.54 -0.11,-0.95 -0.05,-0.18 -0.18,-0.5 -0.33,-0.67 0.23,0.22 0.62,0.45 1.16,0.68 0.57,0.26 1.18,0.42 1.52,0.51 0.19,0.05 0.44,0.11 0.63,0.14 0.39,0.06 0.91,0.14 1.3,0.19 0.25,0.03 0.99,0.08 1.41,0.08 0.89,-0.01 1.35,-0.03 2.07,-0.12 0.84,-0.1 1.45,-0.26 1.86,-0.36 0.03,-0.01 0.75,-0.19 1.45,-0.51 0.63,-0.3 0.92,-0.53 1.04,-0.64 -0.02,0.02 -0.48,0.58 -0.43,1.61 0.04,0.91 -0.55,1.84 -1.78,2.52 -2.31,1.29 -5.97,1.25 -8.18,-0.08 -1.11,-0.67 -1.64,-1.54 -1.61,-2.4z"/>
   <path class="fil0" d="M22.56 41.74c-0.05,-0.6 -0.02,-0.93 -0.01,-0.99 0.07,-0.64 0.08,-0.68 0.01,-0.7l-0.15 0.07c-0.8,0.37 -1.48,0.65 -1.49,0.65 -1.38,0.49 -2.88,0.6 -4.19,1.34 -1.09,0.62 -1.3,1.18 -1.68,2.2 -0.87,-0.17 -1.67,-0.46 -2.35,-0.86 -0.25,-0.15 -0.48,-0.32 -0.67,-0.49 -0.32,-1.87 -0.93,-2.84 -1.3,-3.41l-0.04 -0.07 0 -0.01 -0.02 -0.02 -0.02 -0.02 0.04 0.04 0.12 0.09 0.15 0.11 0.13 0.08 0.27 0.15c0.13,0.06 0.31,0.15 0.45,0.21l0.41 0.17c0.17,0.05 0.39,0.13 0.56,0.19l0.55 0.15c0.19,0.04 0.44,0.1 0.63,0.14l0.64 0.11c0.2,0.02 0.48,0.06 0.68,0.08l0.69 0.05c0.21,0.01 0.49,0.02 0.7,0.03l0.7 -0.01c0.21,-0.01 0.49,-0.03 0.7,-0.04l0.67 -0.07c0.2,-0.03 0.47,-0.07 0.67,-0.1l0.61 -0.12c0.19,-0.04 0.44,-0.1 0.62,-0.15l0.5 -0.15c0.16,-0.06 0.39,-0.14 0.55,-0.2l0.36 -0.15 0.44 -0.23 0.2 -0.12 0.24 -0.16 0.08 -0.06 0.08 -0.07 -0.01 0 -0.03 0.04 -0.04 0.06 -0.06 0.11 -0.06 0.11 -0.07 0.16 -0.05 0.14 -0.05 0.2 -0.03 0.16 -0.03 0.22 -0.01 0.18 0.01 0.23c0.01,0.24 -0.03,0.49 -0.1,0.73z"/>
   <path class="fil4" d="M24.4 64.06l-0.87 0.69c3.49,2.09 3.37,5.44 -0.26,7.46 -3.64,2.03 -9.41,1.97 -12.9,-0.13 -2.6,-1.56 -3.19,-3.82 -1.82,-5.71 0.47,-0.64 1.16,-1.24 2.09,-1.75 1.99,-1.11 4.62,-1.6 7.16,-1.47l0.11 -0.89c-2.88,-0.15 -5.85,0.4 -8.1,1.66 -1.05,0.58 -1.84,1.26 -2.37,1.99 -1.55,2.13 -0.88,4.69 2.07,6.46 3.94,2.37 10.47,2.44 14.59,0.15 4.11,-2.3 4.24,-6.08 0.3,-8.46z"/>
   <path class="fil5" d="M7.84 68.29c0.13,-0.76 2.71,-15.26 3.25,-27.24 -0.03,0.86 0.5,1.73 1.61,2.4 2.21,1.33 5.87,1.37 8.18,0.08 1.23,-0.68 1.82,-1.61 1.78,-2.52 0.61,11.98 3.27,26.47 3.41,27.23 0.07,1.44 -0.87,2.89 -2.8,3.97 -3.64,2.03 -9.41,1.97 -12.9,-0.13 -1.76,-1.05 -2.6,-2.42 -2.53,-3.79z"/>
   <path class="fil6" d="M18.38 53.12c0,0 0.34,-8.79 0.68,-9.82 0.35,-1.02 0.85,2.25 1.71,10.53 0.86,8.29 2.14,18.33 2.14,18.33 0,0 -1.39,1.18 -4.91,1.36 0.18,-1.7 0.38,-20.4 0.38,-20.4z"/>
   <path class="fil4" d="M15 44.88c-1.14,28.48 -1.14,28.48 -1.12,28.52 -1.29,-0.27 -2.49,-0.7 -3.51,-1.32 -0.3,-0.18 -0.57,-0.37 -0.82,-0.57 0.57,-1.73 2.48,-21.68 2.48,-28.55 0.19,0.17 0.42,0.34 0.67,0.49 0.68,0.4 1.48,0.69 2.35,0.86 -0.02,0.17 -0.04,0.4 -0.05,0.57z"/>
   <path class="fil7" d="M27.7 32.34l-0.02 -0.28c-0.03,-0.24 -0.03,-0.24 -0.14,-0.72l-0.12 -0.35c-0.08,-0.18 -0.19,-0.42 -0.28,-0.6l-0.24 -0.38c-0.11,-0.16 -0.28,-0.37 -0.4,-0.52l-0.37 -0.39c-0.6,-0.59 -1.3,-1.03 -1.54,-1.18 -0.19,-0.11 -0.46,-0.25 -0.66,-0.36l-0.65 -0.31c-0.22,-0.09 -0.51,-0.2 -0.72,-0.29l-0.72 -0.24c-0.23,-0.07 -0.54,-0.14 -0.77,-0.21l-0.77 -0.17c-0.23,-0.04 -0.55,-0.09 -0.79,-0.13l-0.81 -0.1c-0.24,-0.02 -0.57,-0.04 -0.81,-0.06l-0.82 -0.03c-0.25,0 -0.57,0.01 -0.82,0.01l-0.82 0.05c-0.24,0.01 -0.57,0.05 -0.81,0.08l-0.8 0.12c-0.24,0.04 -0.56,0.11 -0.79,0.15l-0.77 0.19c-0.23,0.07 -0.53,0.17 -0.76,0.24l-0.72 0.26c-0.21,0.09 -0.5,0.22 -0.71,0.31l-0.65 0.34c-0.2,0.11 -0.45,0.27 -0.64,0.39l-0.53 0.38c-0.17,0.13 -0.38,0.31 -0.54,0.45l-0.4 0.4c-0.13,0.15 -0.3,0.37 -0.42,0.53l-0.27 0.41c-0.1,0.17 -0.22,0.42 -0.3,0.61l-0.14 0.39c-0.08,0.28 -0.09,0.32 -0.16,0.75l-0.02 0.35c-0.01,0.25 -0.01,0.28 0.02,0.64l0.04 0.28 0.03 0.24 0.01 0.11 0.02 0.17 0.02 0.17 0.03 0.24 0.03 0.22 0.06 0.31 0.06 0.28 0.12 0.42 0.12 0.33c0.07,0.17 0.18,0.39 0.25,0.56l0.21 0.36c0.15,0.23 0.37,0.53 0.54,0.75l0.33 0.37c0.51,0.5 0.64,0.6 1.21,1.02l0.52 0.33c0.2,0.12 0.47,0.27 0.68,0.38l0.61 0.28c0.21,0.09 0.49,0.2 0.71,0.28l0.66 0.22c0.22,0.07 0.51,0.14 0.72,0.2l0.71 0.16c0.22,0.04 0.51,0.09 0.73,0.12l0.73 0.09c0.23,0.03 0.52,0.04 0.74,0.06l0.75 0.02c0.22,0.01 0.52,0 0.74,-0.01l0.75 -0.04c0.22,-0.01 0.51,-0.05 0.74,-0.07l0.73 -0.11c0.22,-0.04 0.52,-0.1 0.74,-0.15l0.7 -0.17c0.22,-0.07 0.51,-0.16 0.73,-0.23l0.67 -0.24c0.22,-0.09 0.5,-0.22 0.72,-0.32l0.6 -0.31c0.75,-0.45 0.91,-0.57 1.47,-1.01l0.42 -0.38c0.26,-0.25 0.26,-0.26 0.67,-0.76l0.28 -0.4c0.1,-0.16 0.23,-0.4 0.32,-0.57l0.17 -0.38 0.16 -0.43 0.1 -0.34 0.07 -0.32 0.06 -0.29 0.03 -0.24 0.03 -0.23 0.02 -0.18 0.02 -0.18 0.01 -0.13 0.02 -0.13 0 -0.02 0.02 -0.11c0.06,-0.41 0.06,-0.65 0.05,-0.95z"/>
   <path class="fil4" d="M23.78 39.39c-0.78,0.41 -0.82,0.42 -1.32,0.63l-0.67 0.24c-0.22,0.07 -0.51,0.17 -0.73,0.23l-0.7 0.17c-0.22,0.05 -0.52,0.11 -0.74,0.15l-0.73 0.11c-0.23,0.02 -0.52,0.06 -0.74,0.07l-0.75 0.04c-0.22,0.01 -0.52,0.02 -0.74,0.01l-0.74 -0.02c-0.23,-0.02 -0.52,-0.03 -0.75,-0.06l-0.73 -0.09c-0.22,-0.03 -0.51,-0.08 -0.73,-0.12l-0.71 -0.16c-0.21,-0.06 -0.5,-0.13 -0.72,-0.2l-0.66 -0.22c-0.22,-0.08 -0.5,-0.19 -0.71,-0.28l-0.61 -0.28c-0.21,-0.11 -0.48,-0.26 -0.68,-0.38l-0.52 -0.33c-0.57,-0.42 -0.7,-0.52 -1.21,-1.02l-0.1 -0.11 0.01 0.02c0.57,0.55 1.05,0.41 1.01,-0.3 -0.02,-0.48 -0.02,-0.48 0.01,-0.5 0.03,-0.03 2.96,0.74 2.99,1.65 0.06,2.48 7.99,3.5 12.87,0.18l-0.51 0.34 -0.39 0.23z"/>
   <path class="fil5" d="M27.7 32.34l-0.02 -0.28c-0.03,-0.24 -0.03,-0.24 -0.14,-0.72l-0.12 -0.35c-0.08,-0.18 -0.19,-0.42 -0.28,-0.6l-0.24 -0.38c-0.11,-0.16 -0.28,-0.37 -0.4,-0.52l-0.37 -0.39c-0.6,-0.59 -1.3,-1.03 -1.54,-1.18 -0.19,-0.11 -0.46,-0.25 -0.66,-0.36l-0.65 -0.31c-0.22,-0.09 -0.51,-0.2 -0.72,-0.29l-0.72 -0.24c-0.23,-0.07 -0.54,-0.14 -0.77,-0.21l-0.77 -0.17c-0.23,-0.04 -0.55,-0.09 -0.79,-0.13l-0.81 -0.1c-0.24,-0.02 -0.57,-0.04 -0.81,-0.06l-0.82 -0.03c-0.25,0 -0.57,0.01 -0.82,0.01l-0.82 0.05c-0.24,0.01 -0.57,0.05 -0.81,0.08l-0.8 0.12c-0.24,0.04 -0.56,0.11 -0.79,0.15l-0.77 0.19 -0.71 0.22 -0.72 0.26c-4.26,1.72 -5.8,4.87 -3.75,7.66 4.02,5.48 19.09,4.72 20.56,-2.6 0.04,0.11 0.08,0.22 0.05,0.75 0.02,-0.18 0.02,-0.2 0.01,-0.57z"/>
   <path class="fil8" d="M26.41 31.24c0.48,1.75 -0.48,3.61 -2.86,4.93 -3.86,2.16 -9.99,2.09 -13.69,-0.14 -2.17,-1.3 -3.03,-3.07 -2.58,-4.74 0.75,0.07 1.69,0 2.19,-1.51l0 0.05 0.01 0.02c-0.14,1.17 0.53,2.36 2.04,3.27 1.41,0.85 3.27,1.29 5.16,1.31l0.06 -0.01c3.66,0.16 6.06,-1.76 6.06,-1.76 1.19,-0.94 1.63,-2.09 1.33,-3.19 0.49,1.77 1.49,1.84 2.28,1.77z"/>
   <path class="fil4" d="M26.41 31.24c0.48,1.75 -0.48,3.61 -2.86,4.93 -3.86,2.16 -9.99,2.09 -13.69,-0.14 -2.17,-1.3 -3.03,-3.07 -2.58,-4.74 0.41,0.04 0.87,0.03 1.29,-0.22 -0.51,2.48 1.8,3.09 2.15,2.83 0.26,-0.19 0.25,-0.43 0.22,-1.18 0.17,0.14 0.37,0.28 0.58,0.4 0.79,0.48 1.74,0.83 2.75,1.04 -1.8,2.39 2.62,2.88 4.6,2.66 1.07,-0.12 3.74,-0.59 5.32,-2.4 0.78,-0.9 0.78,-0.9 -0.05,-3.65 0.11,-0.43 0.11,-0.87 -0.01,-1.3 0.49,1.77 1.49,1.84 2.28,1.77z"/>
   <path class="fil5" d="M16.88 3.72c0,0 -8.45,12.98 -8.45,18.81 0,5.83 2.25,10.97 8.41,10.97 6.17,0 8.59,-4.86 8.59,-11.02 0,-6.16 -8.55,-18.76 -8.55,-18.76z"/>
   <path class="fil4" d="M16.84 33.5c-0.15,0 -0.44,-0.01 -0.82,-0.04l-0.41 -0.05 -0.41 -0.08 -0.42 -0.09 -0.42 -0.11 -0.42 -0.15 -0.43 -0.17 -0.43 -0.2c-0.14,-0.08 -0.33,-0.17 -0.47,-0.26l-0.43 -0.28c-0.4,-0.31 -0.78,-0.6 -1.25,-1.12l-0.37 -0.45c-0.19,-0.28 -0.44,-0.65 -0.61,-0.94l-0.29 -0.56c-0.11,-0.26 -0.26,-0.6 -0.36,-0.86l-0.21 -0.64c-0.07,-0.25 -0.16,-0.57 -0.22,-0.82l-0.14 -0.69c-0.04,-0.24 -0.09,-0.56 -0.13,-0.8l-0.07 -0.71c-0.02,-0.24 -0.05,-0.55 -0.06,-0.79l-0.03 -0.72 -0.01 -0.44 0.04 -0.78c0.05,-0.39 0.12,-0.91 0.19,-1.29l0.22 -0.92c0.11,-0.34 0.24,-0.81 0.35,-1.15l0.35 -0.99c0.13,-0.34 0.31,-0.78 0.44,-1.11l0.45 -1.04c0.15,-0.32 0.35,-0.76 0.5,-1.09l0.51 -1.04c0.16,-0.32 0.38,-0.74 0.54,-1.06l0.54 -1.02c0.17,-0.3 0.39,-0.71 0.56,-1.01l0.54 -0.97c0.17,-0.28 0.38,-0.66 0.55,-0.94l0.52 -0.89c0.15,-0.25 0.35,-0.58 0.5,-0.84l0.47 -0.77c0.13,-0.21 0.31,-0.5 0.44,-0.71l0.39 -0.63c0.11,-0.17 0.27,-0.37 0.35,-0.56 -4.96,11.99 -8.78,26.03 0.17,29.78l-0.21 0z"/>
   <path class="fil6" d="M17.19 7.01c0,0 -0.32,14.52 0.7,17.66 1.02,3.14 4.57,2.22 4.85,0 0.29,-2.22 -0.53,-5.4 -1.78,-9.05 -1.25,-3.65 -4.02,-11.54 -4.02,-11.54l0.25 2.93z"/>
   <path class="fil4" d="M20.43 3.51c0,1.94 -1.57,3.51 -3.51,3.51 -1.94,0 -3.52,-1.57 -3.52,-3.51 0,-1.94 1.58,-3.51 3.52,-3.51 1.94,0 3.51,1.57 3.51,3.51z"/>
   <path class="fil5" d="M20.2 3.15c0,1.61 -1.31,2.92 -2.92,2.92 -1.61,0 -2.92,-1.31 -2.92,-2.92 0,-1.61 1.31,-2.92 2.92,-2.92 1.61,0 2.92,1.31 2.92,2.92z"/>
   <path class="fil6" d="M18.94 2.64c0,0.52 -0.43,0.95 -0.95,0.95 -0.52,0 -0.95,-0.43 -0.95,-0.95 0,-0.52 0.43,-0.95 0.95,-0.95 0.52,0 0.95,0.43 0.95,0.95z"/>
   <path class="fil3" d="M8.6 64.72l-0.21 0.18 0 0 0.21 -0.18zm-0.21 0.18l-0.24 0.21 0.24 -0.21 0 0zm17.11 -0.04l0.26 0.23 -0.26 -0.24 0 0.01zm2.5 4.73c-0.03,-0.9 -0.28,-1.59 -0.33,-1.72 -0.13,-0.34 -0.21,-0.55 -0.37,-0.84 -0.22,-0.41 -0.32,-0.56 -0.61,-0.95 -0.17,-0.22 -0.41,-0.5 -0.6,-0.69l-0.33 -0.3c2.48,2.33 1.9,5.44 -1.66,7.43 -4.12,2.29 -10.65,2.22 -14.59,-0.15 -3.32,-2 -3.75,-4.99 -1.36,-7.26l-0.3 0.28c-0.16,0.16 -0.38,0.4 -0.52,0.58 -0.24,0.32 -0.37,0.49 -0.61,0.9 -0.23,0.38 -0.4,0.82 -0.4,0.82 -0.07,0.17 -0.18,0.47 -0.24,0.76 -0.04,0.16 -0.14,0.58 -0.16,0.97 -0.03,0.61 -0.01,1.16 0.2,1.9 0.36,1.2 1.33,2.36 2.9,3.3 4.21,2.54 11.17,2.61 15.55,0.16 1.77,-0.98 2.84,-2.22 3.23,-3.52 0.11,-0.37 0.23,-0.95 0.2,-1.67z"/>
   <path class="fil4" d="M9.02 74.62c-0.8,-0.48 -1.44,-1.01 -1.93,-1.58l0.02 0.01c0.16,0.12 1.33,0.46 1.09,-0.77 -0.1,-0.46 -0.3,-0.88 -0.44,-1.32 0.45,0.5 1.03,0.98 1.75,1.41 1.27,0.77 2.82,1.29 4.47,1.58 -1.86,1.07 -0.13,2.23 0.67,2.46l0.13 0.03 0.09 0.02c-2.16,-0.24 -4.21,-0.85 -5.85,-1.84z"/>
   <path class="fil6" d="M22.61 74.27c0,0.01 -0.35,0.7 -2.1,1.06 -1.13,0.23 -2.04,-0.01 -2.12,-0.18l-0.01 -0.15c0.14,-0.36 3.87,-1.47 4.22,-0.88l0.01 0.15z"/>
   <path class="fil3" d="M5.34 85.36c-0.43,-0.26 -0.99,-0.64 -1.38,-0.94 -0.61,-0.48 -1.07,-0.93 -1.18,-1.05 -0.13,-0.14 -0.31,-0.32 -0.43,-0.47 -0.19,-0.23 -0.45,-0.54 -0.61,-0.79 -0.25,-0.38 -0.51,-0.77 -0.84,-1.57 -0.01,-0.01 -0.25,-0.63 -0.35,-1.18 -0.05,-0.26 -0.09,-0.6 -0.12,-0.86 -0.01,-0.17 -0.02,-0.39 -0.01,-0.56 0,-0.17 0.01,-0.39 0.03,-0.56 0.03,-0.26 0.08,-0.62 0.14,-0.87 0.05,-0.18 0.11,-0.42 0.17,-0.6 0.1,-0.26 0.24,-0.6 0.35,-0.86 -1.5,3.14 -0.19,6.64 3.98,9.15 6.3,3.79 16.72,3.9 23.29,0.24 4.54,-2.54 6.04,-6.2 4.45,-9.48 0.12,0.26 0.27,0.62 0.36,0.89 0.07,0.17 0.14,0.42 0.18,0.61 0.09,0.46 0.2,0.98 0.17,1.86 -0.07,1.58 -0.77,2.86 -0.99,3.21 -0.38,0.63 -1.05,1.71 -2.74,2.99 -0.77,0.58 -1.66,1.07 -1.67,1.08 -0.27,0.14 -0.63,0.34 -0.9,0.47 -0.45,0.2 -1.06,0.46 -1.52,0.65 -5.3,2.01 -12.16,2.01 -17.44,0.04 -0.56,-0.22 -1.31,-0.54 -1.86,-0.8 -0.33,-0.16 -0.77,-0.41 -1.08,-0.6z"/>
   <path class="fil5" d="M6.65 67.94l0 0 0 0zm-0.01 0.06l0 -0.03 0 0.03 0 0zm20.62 -0.06l0 0 0 -0.04 0 0.04zm4.58 5.5c-0.15,-0.18 -0.34,-0.42 -0.49,-0.6l-0.25 -0.3c-0.15,-0.18 -0.35,-0.42 -0.5,-0.6 -0.14,-0.18 -0.34,-0.42 -0.49,-0.6l-0.25 -0.3c-0.15,-0.18 -0.35,-0.42 -0.5,-0.6 -0.14,-0.18 -0.34,-0.42 -0.49,-0.6l-0.25 -0.3c-0.15,-0.18 -0.34,-0.42 -0.5,-0.6l-0.23 -0.29c0.05,0.27 0.1,0.59 0.11,0.94 0.03,0.65 -0.07,1.2 -0.17,1.56l0 0.01 -0.03 0.1 0 0.01 -0.02 0.06 -0.02 0.06 -0.03 0.06 -0.01 0.06 -0.03 0.06 -0.02 0.06 -0.03 0.06 -0.02 0.06 -0.03 0.06 -0.03 0.06 -0.02 0.06 -0.03 0.06 -0.04 0.06 -0.03 0.06 -0.03 0.06 -0.03 0.06 -0.04 0.05 -0.03 0.06 -0.04 0.06 -0.04 0.06 -0.04 0.06 -0.04 0.05 -0.04 0.07 -0.04 0.05 -0.05 0.06 -0.04 0.05 -0.04 0.06 -0.05 0.06 -0.05 0.06 -0.04 0.05 -0.05 0.06 -0.05 0.05 -0.06 0.06 -0.04 0.05 -0.06 0.06 -0.05 0.05 -0.06 0.06 -0.05 0.05 -0.06 0.06 -0.06 0.05 -0.06 0.06 -0.06 0.05 -0.06 0.05 -0.06 0.05 -0.07 0.06 -0.05 0.05 -0.08 0.06 -0.06 0.04 -0.07 0.06 -0.06 0.04 -0.07 0.05 -0.07 0.05 -0.08 0.06 -0.06 0.04 -0.09 0.06 -0.06 0.04 -0.07 0.05 -0.08 0.05 -0.07 0.04 -0.08 0.05 -0.33 0.19c-4.38,2.45 -11.34,2.38 -15.55,-0.16l-0.15 -0.09 -0.05 -0.03 -0.09 -0.06 -0.05 -0.03 -0.09 -0.06 -0.06 -0.04 -0.08 -0.06 -0.06 -0.04 -0.07 -0.05 -0.06 -0.05 -0.07 -0.05 -0.06 -0.04 -0.07 -0.06 -0.06 -0.04 -0.06 -0.06 -0.06 -0.04 -0.06 -0.06 -0.06 -0.04 -0.06 -0.06 -0.05 -0.04 -0.06 -0.06 -0.05 -0.05 -0.05 -0.05 -0.05 -0.05 -0.06 -0.05 -0.05 -0.05 -0.05 -0.06 -0.04 -0.05 -0.06 -0.05 -0.04 -0.06 -0.05 -0.05 -0.04 -0.05 -0.05 -0.06 -0.04 -0.05 -0.04 -0.06 -0.04 -0.05 -0.05 -0.05 -0.03 -0.06 -0.04 -0.05 -0.04 -0.06 -0.04 -0.05 -0.03 -0.05 -0.04 -0.06 -0.03 -0.06 -0.04 -0.06 -0.03 -0.05 -0.03 -0.06 -0.03 -0.05 -0.03 -0.06 -0.03 -0.05 -0.03 -0.07 -0.02 -0.04 -0.03 -0.07 -0.02 -0.05 -0.04 -0.08 -0.01 -0.03 -0.04 -0.11 -0.01 -0.02 -0.03 -0.1 -0.01 -0.04 -0.03 -0.07 0 0 -0.07 -0.26c-0.14,-0.61 -0.16,-1.11 -0.13,-1.64 0.01,-0.25 0.06,-0.51 0.1,-0.71l-3.93 4.81c-2.84,3.48 -1.86,7.75 3,10.68 6.3,3.79 16.72,3.9 23.29,0.24 5.26,-2.94 6.44,-7.4 3.46,-11z"/>
   <path class="fil4" d="M2.09 73.52l4.92 -6.03c-1.3,1.59 -1.4,3.44 -0.28,5.07l-5.07 8.55c-1.67,-2.44 -1.52,-5.2 0.43,-7.59z"/>
   <path class="fil4" d="M3.23 82.85l4.54 -9.13c0.3,0.27 0.64,0.52 1.01,0.76l-4.03 9.5c-0.57,-0.36 -1.07,-0.74 -1.52,-1.13z"/>
   <path class="fil4" d="M4.75 83.98l4.03 -9.5 0.24 0.14c0.72,0.44 1.52,0.8 2.37,1.09l-2.75 10.11c-1.27,-0.43 -2.47,-0.97 -3.55,-1.62l-0.34 -0.22z"/>
   <path class="fil4" d="M8.64 85.82l2.75 -10.11c0.62,0.2 1.26,0.38 1.93,0.51l-1.79 10.37c-0.99,-0.2 -1.96,-0.46 -2.89,-0.77z"/>
   <path class="fil6" d="M22.19 75.79c-0.3,0.1 -0.6,0.18 -0.91,0.26 -0.44,0.11 -0.89,0.2 -1.36,0.28l1.5 10.42c0.69,-0.11 1.37,-0.25 2.03,-0.41 0.46,-0.12 0.92,-0.25 1.37,-0.39l-2.63 -10.16z"/>
   <path class="fil6" d="M23.64 89.1c-0.6,-0.1 -2.44,0.38 -2.92,0.66 -0.15,0.09 -1.07,0.82 -0.65,1.42 0.8,1.12 4.53,0.2 4.7,-1.16 0.02,-0.17 0,-0.74 -1.13,-0.92z"/>
   <path class="fil0" d="M12.02 92.86l-0.26 -0.23c-1.38,-1.62 -0.02,-3.45 0.1,-3.47 -2.3,-0.46 -4.46,-1.22 -6.26,-2.31 -0.74,-0.45 -1.39,-0.92 -1.94,-1.43 0.13,0.18 0.59,3.32 -1.12,3.22l0 0.01 0.01 1.98c0.43,0.4 0.93,0.8 1.48,1.17 0.23,0.16 0.46,0.31 0.71,0.45 1.4,0.85 2.99,1.51 4.71,2 0.83,0.24 1.69,0.44 2.57,0.59l0 -1.98z"/>
  </g>
 </g>
</svg>
