<?xml version="1.0" encoding="UTF-8"?>
<!DOCTYPE svg PUBLIC "-//W3C//DTD SVG 1.0//EN" "http://www.w3.org/TR/2001/REC-SVG-20010904/DTD/svg10.dtd">
<!-- Creator: CorelDRAW 2018 (64 Bit Versão de avaliação) -->
<svg xmlns="http://www.w3.org/2000/svg" xml:space="preserve" width="34px" height="97px" version="1.0" style="shape-rendering:geometricPrecision; text-rendering:geometricPrecision; image-rendering:optimizeQuality; fill-rule:evenodd; clip-rule:evenodd"
viewBox="0 0 34 95.28"
 xmlns:xlink="http://www.w3.org/1999/xlink">
 <defs>
  <style type="text/css">
   <![CDATA[
    .fil4 {fill:#4B4B4D;fill-rule:nonzero}
    .fil1 {fill:#4A4A4B;fill-rule:nonzero}
    .fil9 {fill:#8F9193;fill-rule:nonzero}
    .fil3 {fill:#5C5E60;fill-rule:nonzero}
    .fil5 {fill:#353739;fill-rule:nonzero}
    .fil8 {fill:#323436;fill-rule:nonzero}
    .fil6 {fill:#303233;fill-rule:nonzero}
    .fil0 {fill:#2F3132;fill-rule:nonzero}
    .fil2 {fill:#2C2D2F;fill-rule:nonzero}
    .fil7 {fill:#2B2C2E;fill-rule:nonzero}
    .fil10 {fill:#292A2C;fill-rule:nonzero}
   ]]>
  </style>
 </defs>
 <g id="Camada_x0020_1">
  <metadata id="CorelCorpID_0Corel-Layer"/>
  <g id="_1659208587712">
   <path class="fil0" d="M0 85.49c0.01,1.79 0.86,3.57 2.55,5.15l0 0.01 0.05 0.04c0.38,0.36 0.82,0.7 1.29,1.03l0.13 0.1c0.23,0.16 0.47,0.31 0.72,0.46 0.76,0.46 1.59,0.85 2.45,1.2 0.29,0.12 0.59,0.21 0.89,0.31 0.45,0.17 0.89,0.35 1.36,0.48 0.16,0.05 0.33,0.07 0.49,0.12 0.34,0.09 0.69,0.16 1.04,0.23 0.36,0.08 0.69,0.18 1.05,0.24l0 -0.05c5.7,1.01 12.14,0.28 16.75,-2.29 3.48,-1.94 5.23,-4.54 5.23,-7.13l-0.01 -1.98 0 0 0 0 0 -0.13 0 -0.04 -0.01 -0.12c0,-0.15 -0.01,-0.3 -0.02,-0.43l-0.02 -0.17 -0.02 -0.17 -0.03 -0.22c-0.03,-0.18 -0.08,-0.42 -0.11,-0.61l-0.13 -0.5c-0.04,-0.16 -0.11,-0.36 -0.16,-0.52l-0.03 -0.08 -0.02 -0.06 -0.05 -0.14 0.01 0.02 -0.07 -0.19 -0.07 -0.17c0.14,-0.46 0.25,-0.97 0.28,-1.54 0.03,-0.88 -0.07,-1.4 -0.17,-1.87 -0.04,-0.18 -0.11,-0.43 -0.17,-0.6 -0.1,-0.27 -0.25,-0.63 -0.36,-0.89 0.2,0.42 0.35,0.85 0.45,1.28 -0.23,-0.97 -0.71,-1.91 -1.44,-2.8 -0.15,-0.18 -0.35,-0.43 -0.5,-0.61l-0.25 -0.3c-0.15,-0.17 -0.35,-0.41 -0.49,-0.59 -0.15,-0.19 -0.35,-0.43 -0.5,-0.6l-0.25 -0.31c-0.15,-0.18 -0.34,-0.42 -0.49,-0.6 -0.15,-0.18 -0.35,-0.42 -0.5,-0.6l-0.25 -0.3c-0.14,-0.18 -0.34,-0.42 -0.49,-0.6l-0.24 -0.28 0.01 0.07c-0.08,-0.44 -0.19,-0.77 -0.22,-0.85 -0.13,-0.34 -0.21,-0.55 -0.38,-0.85 -0.22,-0.4 -0.32,-0.55 -0.61,-0.94 -0.17,-0.22 -0.41,-0.5 -0.6,-0.69l-0.33 -0.31c0.32,0.31 0.59,0.62 0.81,0.95 -0.24,-0.34 -0.52,-0.68 -0.87,-1l0.06 0.05 -0.06 -0.05 -0.03 -0.03 -0.17 -0.15 0 0 0.15 0.14 -0.17 -0.13c-0.85,-5.12 -2.37,-15.14 -2.82,-23.86 -0.01,-0.25 0.01,-0.48 0.04,-0.68l0 0c0.04,-0.19 0.09,-0.34 0.14,-0.47l0.28 -0.13 0.06 -0.03 0.6 -0.31 0.39 -0.23 0.51 -0.34 -0.06 0.04c0.19,-0.13 0.37,-0.27 0.64,-0.48l0.42 -0.38c0.25,-0.25 0.25,-0.26 0.67,-0.76l0.27 -0.4c0.1,-0.16 0.23,-0.4 0.33,-0.57l0.17 -0.38 0.15 -0.43 0.1 -0.34 0.07 -0.32 0.06 -0.29 0.03 -0.24 0.03 -0.23 0.02 -0.18 0.02 -0.18 0.02 -0.13 0.01 -0.13 0 -0.02 0.02 -0.11c0.03,-0.19 0.04,-0.34 0.05,-0.48l-0.01 0.1c0.02,-0.18 0.02,-0.21 0.01,-0.56l-0.02 -0.29c-0.03,-0.24 -0.03,-0.24 -0.14,-0.72l-0.12 -0.35c-0.07,-0.18 -0.19,-0.42 -0.28,-0.6l-0.24 -0.38c-0.11,-0.16 -0.28,-0.37 -0.4,-0.52l-0.36 -0.39c-0.6,-0.58 -1.28,-1.01 -1.52,-1.16 0.55,-1.61 0.81,-3.47 0.81,-5.46 0,-4.35 -4.24,-11.88 -6.75,-15.95 1.04,-0.61 1.75,-1.73 1.75,-3.03 0,-1.93 -1.57,-3.51 -3.51,-3.51 -1.94,0 -3.51,1.58 -3.51,3.51 0,1.3 0.7,2.41 1.74,3.03 -0.08,0.13 -0.16,0.25 -0.24,0.39l-0.18 0.31 -0.52 0.89c-0.17,0.28 -0.39,0.65 -0.55,0.94l-0.54 0.96c-0.17,0.31 -0.39,0.71 -0.56,1.02l-0.54 1.02c-0.16,0.31 -0.38,0.74 -0.54,1.06l-0.51 1.04c-0.15,0.33 -0.35,0.76 -0.5,1.09l-0.45 1.03c-0.14,0.34 -0.31,0.78 -0.44,1.11l-0.35 1c-0.11,0.34 -0.25,0.8 -0.35,1.15l-0.22 0.91c-0.07,0.39 -0.14,0.91 -0.19,1.3l-0.04 0.78 0.01 0.44 0.01 0.42 0.01 0.29 0 0.01c0.02,0.24 0.04,0.55 0.06,0.79l0.01 0.08 0.03 0.29 0.04 0.34c0.02,0.13 0.04,0.28 0.07,0.43l0.02 0.15 0.04 0.22 0.14 0.69c0.06,0.25 0.15,0.57 0.22,0.82l0.05 0.14 0.01 0.04 0.07 0.21c-0.15,0.09 -0.31,0.19 -0.45,0.27l-0.52 0.38c-0.17,0.13 -0.38,0.31 -0.54,0.45l-0.4 0.4c-0.13,0.15 -0.3,0.37 -0.43,0.53l-0.26 0.4c-0.1,0.19 -0.22,0.43 -0.3,0.62l-0.14 0.39c-0.08,0.28 -0.09,0.32 -0.16,0.75l-0.02 0.35c-0.01,0.25 -0.01,0.28 0.02,0.64l0.03 0.28 0.04 0.24 0.01 0.11 0.02 0.17 0.02 0.17 0.03 0.24 0.03 0.22 0.06 0.31 0.06 0.28 0.12 0.42 0.12 0.33c0.07,0.17 0.17,0.39 0.25,0.56l0.21 0.36c0.15,0.23 0.37,0.53 0.54,0.75l0.25 0.28 -0.01 0 0.09 0.09c0.51,0.5 0.64,0.6 1.21,1.02l0.51 0.33c0.21,0.12 0.48,0.27 0.69,0.38l0.6 0.28 0.08 0.21c0.11,0.41 0.12,0.63 0.11,0.95 -0.4,8.7 -1.86,18.7 -2.68,23.84l-0.03 0.02 0 0 0.03 -0.02c-0.31,0.27 -0.56,0.55 -0.79,0.83 0.17,-0.2 0.32,-0.41 0.53,-0.6l-0.3 0.27c-0.17,0.17 -0.38,0.4 -0.52,0.59 -0.24,0.32 -0.38,0.49 -0.62,0.89 -0.22,0.38 -0.39,0.83 -0.39,0.83 -0.07,0.17 -0.18,0.47 -0.25,0.76l-0.05 0.25 0 0.01 0 0 -3.93 4.81c-0.32,0.38 -0.57,0.78 -0.79,1.19l-0.16 0.32 -0.08 0.15 0.05 -0.13 -0.1 0.23 -0.07 0.16c-0.06,0.16 -0.13,0.33 -0.18,0.47 -0.06,0.18 -0.13,0.42 -0.17,0.6 -0.06,0.25 -0.11,0.6 -0.14,0.87 -0.02,0.17 -0.03,0.39 -0.04,0.56 0,0.17 0,0.39 0.02,0.56 0.02,0.26 0.07,0.6 0.11,0.86 0.04,0.21 0.1,0.42 0.16,0.61l-0.06 0.16 0 0c-0.06,0.16 -0.12,0.32 -0.18,0.51 -0.13,0.39 -0.17,0.56 -0.28,1.07l-0.09 0.5 -0.01 0.09 -0.01 0.07 -0.01 0.11c-0.02,0.16 -0.03,0.32 -0.05,0.45l0 0.2 -0.01 0.03 0 0.33c0,0.61 0.1,1.22 0.3,1.82 -0.2,-0.6 -0.3,-1.21 -0.3,-1.82l0 1.98z"/>
   <path class="fil0" d="M0 83.51c0.01,-0.34 0.03,-0.78 0.07,-1.12 0.02,-0.2 0.07,-0.46 0.11,-0.66 0.11,-0.51 0.15,-0.68 0.28,-1.07 0.11,-0.36 0.23,-0.63 0.35,-0.92 0.17,-0.42 0.84,-1.91 2.14,-3.38 -3,3.38 -2.14,7.63 2.65,10.51 6.03,3.63 16.02,3.73 22.31,0.23 5.18,-2.89 6.23,-7.31 3.09,-10.82 0.44,0.51 0.84,1.03 1.19,1.55 0.57,0.9 0.87,1.58 0.95,1.77 0.19,0.44 0.44,1.05 0.64,1.92 0.14,0.64 0.2,1.2 0.21,1.89 0.01,2.59 -1.74,5.18 -5.23,7.13 -6.77,3.78 -17.53,3.67 -24.03,-0.24 -3.16,-1.9 -4.73,-4.35 -4.73,-6.79z"/>
   <path class="fil0" d="M0 83.51l0 -0.02 0 -0.02 0 -0.01 0 0 0 -0.02 0 -0.01 0 -0.02 0 0 0 -0.02c0.01,-0.12 0.01,-0.25 0.02,-0.38l0 -0.02 0 0 0 -0.02 0 -0.02 0 -0.02 0.01 -0.01c0.09,-1.22 0.48,-3.53 2.57,-6.13zm-0.17 0.21l0 0.01 -0.11 0.16 0 0c-0.04,0.05 -0.08,0.11 -0.11,0.16l0 0 -0.1 0.17 -0.01 0 -0.09 0.17 0 0 -0.1 0.16 0 0 -0.08 0.17 0 0 -0.08 0.17 -0.08 0.17 0 0 -0.07 0.17 0 0 -0.06 0.17 0 0 -0.06 0.17 -0.05 0.17 -0.01 0.01c-0.03,0.11 -0.06,0.23 -0.08,0.34l0 0c-0.03,0.12 -0.05,0.23 -0.07,0.35l0 0 -0.02 0.17 -0.01 0 -0.01 0.17 0 0 -0.02 0.18 0 0 0 0.17 0 0c-0.01,0.06 -0.01,0.12 -0.01,0.18 0.01,0.17 0.02,0.35 0.03,0.52l0 0 0.02 0.17 0 0 0.03 0.18 0 0 0.03 0.17 0 0 0.04 0.17 0 0c0.04,0.18 0.09,0.35 0.15,0.52 0.04,0.11 0.08,0.23 0.13,0.34 0.04,0.12 0.1,0.23 0.15,0.34l0 0 0.08 0.17 0 0 0.09 0.17 0 0 0.1 0.17 0.1 0.16 0 0 0.11 0.17 0.11 0.16 0.12 0.17 0.12 0.16 0.13 0.16 0.14 0.16 0.14 0.16 0.14 0.16 0.16 0.15 0 0 0.16 0.16 0.16 0.15 0.17 0.15 0.18 0.15 0.18 0.15 0.18 0.15 0.2 0.14 0.2 0.15 0.2 0.14 0.21 0.14 0.22 0.14 0.22 0.13c6.03,3.63 16.02,3.73 22.31,0.23 5.08,-2.84 6.19,-7.15 3.26,-10.62l0 -0.01 -0.03 -0.02 0 0 -0.02 -0.02 -0.02 -0.03 -0.02 -0.02 -0.02 -0.02 -0.02 -0.03 -0.02 -0.02 -0.02 -0.03zm0.33 0.39c2.41,2.96 2.6,5.56 2.66,6.51l0 0.01 0 0.01 0 0.09c-0.01,2.35 -1.3,4.58 -3.86,6.39l0 0 -0.14 0.1 0 0 -0.15 0.1 0 0 -0.14 0.09 0 0.01 -0.15 0.09 -0.15 0.1 -0.16 0.09 -0.16 0.09 -0.16 0.1 -0.16 0.09c-6.77,3.78 -17.53,3.67 -24.03,-0.24 -3.16,-1.9 -4.73,-4.35 -4.73,-6.79z"/>
   <path class="fil0" d="M31.43 76.79l0 0 0 0.01 0.01 0 0 0.01 0 0 0 0 0.01 0.01 0 0 0.01 0.01 0 0 0 0 0 0.01 0.01 0 0 0.01 0.01 0 0 0.01 0 0 0.02 0.02 0.08 0.1 0.01 0.02 0.02 0.03 0.02 0.02 0.01 0.02 0.01 0.01 0.02 0.02 0.15 0.2 0.18 0.25 0.19 0.28 0.18 0.31 0.18 0.28 0.02 0.04 0.01 0.03 0.01 0.01 0.02 0.03 0.15 0.29 0.2 0.38 0.18 0.4 0.01 0.01 0 0 0 0.01 0 0 0 0.01 0.01 0 0 0.01 0 0 0 0.01 0.01 0 0 0.01 0 0 0 0.01 0 0 0.01 0.01 0 0.01 0 0 0 0.01 0.01 0 0 0.01 0 0 0 0.01 0.01 0 0 0.01 0 0 0 0.01 0 0.01 0.01 0 0 0 0 0.01 0 0.01 0.01 0 0 0 0 0.01 0 0.01 0.01 0.01 0 0 0 0 0 0.01 0 0.01 0 0c0.05,0.1 0.09,0.21 0.13,0.33l0.01 0.02 0.09 0.24 0.05 0.13 0 0 0 0.01 0 0.02 0.01 0.01c0.03,0.11 0.07,0.24 0.11,0.36l0 0.01 0 0 0 0 0.01 0.01 0 0.01 0 0.01 0 0.01 0 0 0 0 0.01 0.01 0 0.01 0 0.01 0 0 0 0 0.01 0.01 0.12 0.49c0.03,0.19 0.08,0.43 0.11,0.61l0.07 0.56c0.01,0.19 0.03,0.43 0.03,0.63l0 0.01 0 0.02 0 0.01 0 0.01 0 0.01 0 0.01 0 0.01 0 0.01c0.01,2.59 -1.74,5.18 -5.23,7.13 -6.77,3.78 -17.53,3.67 -24.03,-0.24 -3.16,-1.9 -4.73,-4.35 -4.73,-6.79l0 -0.02 0 -0.01 0 -0.01 0 0c0.01,-0.27 0.03,-0.61 0.05,-0.9l0 -0.01 0 0 0 -0.02 0 0 0 -0.01 0 0c0.02,-0.11 0.03,-0.21 0.04,-0.3l0.09 -0.5 0 -0.01 0 -0.01 0 -0.01 0.01 0c0.03,-0.18 0.09,-0.41 0.13,-0.58l0.14 -0.46 0 0 0 -0.01 0 0c0.05,-0.13 0.1,-0.29 0.15,-0.42l0 0 0 -0.01 0 0 0 -0.01 0.01 0 0 -0.01 0 0 0 -0.01 0 0 0.01 -0.01 0 0 0 -0.01 0 0 0.03 -0.07 0 -0.01 0.1 -0.23 0 -0.01 0.01 -0.02 0.01 -0.04 0.01 -0.01 0 -0.01 0.01 -0.02 0.01 -0.01 0.2 -0.45 0.18 -0.35 0.2 -0.38 0.18 -0.32 0.21 -0.32 0.17 -0.27 0.19 -0.27 0.16 -0.22 0.17 -0.22 0.02 -0.03 0.11 -0.14 0.02 -0.01 0.04 -0.06 0.1 -0.11 0.07 -0.09 0.12 -0.14c-3,3.38 -2.14,7.63 2.65,10.51l0.25 0.15 0.08 0.05 0.2 0.11 0.04 0.02 0.01 0 0.03 0.02 0.22 0.12 0.09 0.04 0.2 0.11 0.05 0.02 0 0 0.06 0.03 0.19 0.09 0.12 0.06 0.18 0.08 0.07 0.03 0 0 0.21 0.09 0.04 0.02 0.16 0.06 0.05 0.03c0.33,0.13 0.65,0.25 0.99,0.37l0.1 0.03 0.18 0.06 0.01 0.01 0.23 0.07 0.13 0.04 0.13 0.04 0.16 0.05 0.08 0.03c0.37,0.1 0.74,0.2 1.11,0.29l0.01 0c0.79,0.18 1.59,0.33 2.41,0.44l0.04 0c0.23,0.03 0.47,0.06 0.7,0.09l0.04 0c0.24,0.03 0.47,0.05 0.71,0.06l0.01 0.01 0.25 0.01 0.18 0.01 0.1 0.01 0.21 0.01 0.06 0 0.37 0.02 0.13 0 0.2 0.01 0.01 0 0.25 0 0.01 0 0.11 0 0.2 0 0.13 0 0.16 0 0.36 -0.01 0.06 0 0.23 0 0 0 0.26 -0.02 0 0 0.1 0 0.24 -0.01 0.08 -0.01 0.3 -0.02 0.03 0 0.01 0 0.05 0 0.28 -0.03 0.08 0 0.33 -0.03 0.01 -0.01 0.02 0 0.31 -0.03 0.04 -0.01 0.12 -0.01 0.25 -0.03 0.01 0 0.07 -0.01 0.16 -0.02 0 0.02c-1.86,0.68 -1.8,1.82 -1.14,2.21 1.83,1.1 6.47,-0.48 6.12,-2.08 -0.2,-0.9 -1.25,-0.4 -1.77,-0.82 0.56,-0.16 1.12,-0.34 1.66,-0.55l0.06 -0.02 0.07 -0.02 0.12 -0.05 0.07 -0.03 0.06 -0.02 0.07 -0.03 0.12 -0.05 0.06 -0.03 0.07 -0.03 0.06 -0.02 0.06 -0.03 0.06 -0.02 0.01 0 0.06 -0.03 0.06 -0.03 0.06 -0.03 0.06 -0.02 0.06 -0.03 0.07 -0.03 0.06 -0.03 0.06 -0.03 0.06 -0.03 0.06 -0.02 0.06 -0.03 0.18 -0.09 0.04 -0.02 0.02 -0.01 0.01 -0.01 0.26 -0.13 0.02 -0.01 0 -0.01 0.01 0c0.1,-0.05 0.19,-0.1 0.28,-0.15 5.08,-2.84 6.19,-7.15 3.26,-10.62 0.09,0.1 0.17,0.21 0.26,0.31zm-0.26 -0.31l0 -0.01 -0.03 -0.02 0 0 -0.02 -0.02 -0.02 -0.03 -0.02 -0.02 0.01 0.01 0.01 0.01zm-0.02 -0.02l-0.02 -0.02 0.02 0.02zm-0.02 -0.02l-0.02 -0.03 0.02 0.03zm-0.02 -0.03l-0.02 -0.02 0.02 0.02zm-0.02 -0.02l-0.02 -0.03 0.02 0.03z"/>
   <path class="fil0" d="M31.43 76.79l0 0 0 0.01 0.01 0 0 0.01 0 0 0 0 0.01 0.01 0 0 0.01 0.01 0 0 0 0 0 0.01 0.01 0 0 0.01 0.01 0 0 0.01 0 0 0.02 0.02 0.08 0.1 0.01 0.02 0.02 0.03 0.02 0.02 0.01 0.02 0.01 0.01 0.02 0.02 0.15 0.2 0.18 0.25 0.19 0.28 0.18 0.31 0.18 0.28 0.02 0.04 0.01 0.03 0.01 0.01 0.02 0.03 0.15 0.29 0.2 0.38 0.18 0.4 0.01 0.01 0 0 0 0.01 0 0 0 0.01 0.01 0 0 0.01 0 0 0 0.01 0.01 0 0 0.01 0 0 0 0.01 0 0 0.01 0.01 0 0.01 0 0 0 0.01 0.01 0 0 0.01 0 0 0 0.01 0.01 0 0 0.01 0 0 0 0.01 0 0.01 0.01 0 0 0 0 0.01 0 0.01 0.01 0 0 0 0 0.01 0 0.01 0.01 0.01 0 0 0 0 0 0.01 0 0.01 0 0c0.05,0.1 0.09,0.21 0.13,0.33l0.01 0.02 0.09 0.24 0.05 0.13 0 0 0 0.01 0 0.02 0.01 0.01c0.03,0.11 0.07,0.24 0.11,0.36l0 0.01 0 0 0 0 0.01 0.01 0 0.01 0 0.01 0 0.01 0 0 0 0 0.01 0.01 0 0.01 0 0.01 0 0 0 0 0.01 0.01 0.12 0.49c0.03,0.19 0.08,0.43 0.11,0.61l0.07 0.56c0.01,0.19 0.03,0.43 0.03,0.63l0 0.01 0 0.02 0 0.01 0 0.01 0 0.01 0 0.01 0 0.01 0 0.01c0.01,2.59 -1.74,5.18 -5.23,7.13 -6.77,3.78 -17.53,3.67 -24.03,-0.24 -3.16,-1.9 -4.73,-4.35 -4.73,-6.79l0 -0.02 0 -0.01 0 -0.01 0 0c0.01,-0.27 0.03,-0.61 0.05,-0.9l0 -0.01 0 0 0 -0.02 0 0 0 -0.01 0 0c0.02,-0.11 0.03,-0.21 0.04,-0.3l0.09 -0.5 0 -0.01 0 -0.01 0 -0.01 0.01 0c0.03,-0.18 0.09,-0.41 0.13,-0.58l0.14 -0.46 0 0 0 -0.01 0 0c0.05,-0.13 0.1,-0.29 0.15,-0.42l0 0 0 -0.01 0 0 0 -0.01 0.01 0 0 -0.01 0 0 0 -0.01 0 0 0.01 -0.01 0 0 0 -0.01 0 0 0.03 -0.07 0 -0.01 0.1 -0.23 0 -0.01 0.01 -0.02 0.01 -0.04 0.01 -0.01 0 -0.01 0.01 -0.02 0.01 -0.01 0.2 -0.45 0.18 -0.35 0.2 -0.38 0.18 -0.32 0.21 -0.32 0.17 -0.27 0.19 -0.27 0.16 -0.22 0.17 -0.22 0.02 -0.03 0.11 -0.14 0.02 -0.01 0.04 -0.06 0.1 -0.11 0.07 -0.09 0.12 -0.14c-3,3.38 -2.14,7.63 2.65,10.51l0.23 0.14 0.1 0.05 0.02 0.02 0.18 0.1 0.05 0.02 0.03 0.02 0.23 0.12 0.03 0.02 0.03 0.02 0.24 0.12 0.08 0.04 0.2 0.09 0.05 0.02 0.01 0.01 0.07 0.03 0.19 0.09 0.08 0.03 0.23 0.1 0.15 0.07 0.12 0.04 0.14 0.06 0.2 0.08 0.03 0.01 0.16 0.06 0.01 0 0.21 0.08 0.14 0.05 0.11 0.03 0.16 0.06 0.21 0.07 0.03 0.01 0.1 0.03 0.23 0.07 0.05 0.02 0.02 0 0.21 0.06 0.03 0.01 0.15 0.05 0.04 0.01 0.21 0.05 0.19 0.05 0.05 0.02 0.2 0.05 0.22 0.05 0.01 0 0.19 0.04 0.06 0.02c0.13,0.03 0.27,0.06 0.4,0.08l0.01 0 0.2 0.05 0.02 0 0.23 0.04 0.17 0.03 0.11 0.02 0.17 0.03 0.23 0.04 0.03 0 0.12 0.02 0.26 0.04 0.05 0 0 0.01 0.23 0.03 0.05 0 0.16 0.02 0.02 0 0.23 0.03 0.05 0.01 0.08 0 0.21 0.02 0.12 0.02 0.24 0.02 0.1 0.01 0.06 0 0.3 0.02 0.02 0 0.32 0.02 0.06 0.01 0.07 0 0.29 0.01 0.04 0 0.29 0.01 0.06 0 0.03 0.01c0.23,0 0.47,0 0.7,0l0.03 0 0.03 0 0.31 0 0.04 0 0.06 0 0.24 -0.01 0.08 0 0.06 0 0.31 -0.02 0.02 0 0.35 -0.01 0.03 -0.01c0.24,-0.01 0.48,-0.03 0.72,-0.05l0.02 0 0.28 -0.03 -0.05 0.03c-1.31,0.47 -1.69,2 -0.28,2.5 2.61,0.94 8.06,-0.95 7.12,-2.97 -0.16,-0.35 -0.52,-0.76 -1.31,-0.73l0.05 -0.02 0.04 -0.01 0.05 -0.02 0.05 -0.02 0.05 -0.01 0.01 -0.01 0.08 -0.03 0.05 -0.02 0.04 -0.01 0.05 -0.02 0.05 -0.02 0.04 -0.02 0.05 -0.01 0 -0.01 0.09 -0.03 0.05 -0.02 0.04 -0.01 0.05 -0.02 0.04 -0.02 0.05 -0.02 0.05 -0.02 0 0 0.04 -0.02 0.04 -0.02 0.05 -0.01 0.09 -0.04 0.05 -0.02 0.04 -0.02 0.04 -0.02 0.05 -0.02 0.04 -0.02 0.05 -0.02 0.04 -0.02 0.05 -0.02 0.09 -0.04 0.04 -0.02 0.04 -0.02 0.05 -0.02 0.04 -0.02 0.05 -0.02 0.04 -0.02 0.08 -0.04 0.01 0 0.04 -0.02 0.04 -0.03 0.05 -0.02 0.04 -0.02 0.04 -0.02 0.04 -0.02 0.05 -0.02 0.04 -0.02 0.04 -0.03 0.13 -0.06 0.04 -0.02 0 0 0.04 -0.03 0.05 -0.02c0.07,-0.04 0.14,-0.07 0.2,-0.11 5.08,-2.84 6.19,-7.15 3.26,-10.62 0.09,0.1 0.17,0.21 0.26,0.31zm-0.26 -0.31l0 -0.01 -0.03 -0.02 0 0 -0.02 -0.02 -0.02 -0.03 -0.02 -0.02 0.01 0.01 0.01 0.01zm-0.02 -0.02l-0.02 -0.02 0.02 0.02zm-0.02 -0.02l-0.02 -0.03 0.02 0.03zm-0.02 -0.03l-0.02 -0.02 0.02 0.02zm-0.02 -0.02l-0.02 -0.03 0.02 0.03z"/>
   <path class="fil0" d="M31.43 76.79l0 0 0 0.01 0.01 0 0 0.01 0 0 0 0 0.01 0.01 0 0 0.01 0.01 0 0 0 0 0 0.01 0.01 0 0 0.01 0.01 0 0 0.01 0 0 0.02 0.02 0.08 0.1 0.01 0.02 0.02 0.03 0.02 0.02 0.01 0.02 0.01 0.01 0.02 0.02 0.15 0.2 0.18 0.25 0.19 0.28 0.18 0.31 0.18 0.28 0.02 0.04 0.01 0.03 0.01 0.01 0.02 0.03 0.15 0.29 0.2 0.38 0.18 0.4 0.01 0.01 0 0 0 0.01 0 0 0 0.01 0.01 0 0 0.01 0 0 0 0.01 0.01 0 0 0.01 0 0 0 0.01 0 0 0.01 0.01 0 0.01 0 0 0 0.01 0.01 0 0 0.01 0 0 0 0.01 0.01 0 0 0.01 0 0 0 0.01 0 0.01 0.01 0 0 0 0 0.01 0 0.01 0.01 0 0 0 0 0.01 0 0.01 0.01 0.01 0 0 0 0 0 0.01 0 0.01 0 0c0.05,0.1 0.09,0.21 0.13,0.33l0.01 0.02 0.09 0.24 0.05 0.13 0 0 0 0.01 0 0.02 0.01 0.01c0.03,0.11 0.07,0.24 0.11,0.36l0 0.01 0 0 0 0 0.01 0.01 0 0.01 0 0.01 0 0.01 0 0 0 0 0.01 0.01 0 0.01 0 0.01 0 0 0 0 0.01 0.01 0.12 0.49c0.03,0.19 0.08,0.43 0.11,0.61l0.07 0.56c0.01,0.19 0.03,0.43 0.03,0.63l0 0.01 0 0.02 0 0.01 0 0.01 0 0.01 0 0.01 0 0.01 0 0.01c0.01,2.59 -1.74,5.18 -5.23,7.13 -6.77,3.78 -17.53,3.67 -24.03,-0.24 -3.16,-1.9 -4.73,-4.35 -4.73,-6.79l0 -0.02 0 -0.01 0 -0.01 0 0c0.01,-0.27 0.03,-0.61 0.05,-0.9l0 -0.01 0 0 0 -0.02 0 0 0 -0.01 0 0c0.02,-0.11 0.03,-0.21 0.04,-0.3l0.09 -0.5 0 -0.01 0 -0.01 0 -0.01 0.01 0c0.03,-0.18 0.09,-0.41 0.13,-0.58l0.14 -0.46 0 0 0 -0.01 0 0c0.05,-0.13 0.1,-0.29 0.15,-0.42l0 0 0 -0.01 0 0 0 -0.01 0.01 0 0 -0.01 0 0 0 -0.01 0 0 0.01 -0.01 0 0 0 -0.01 0 0 0.03 -0.07 0 -0.01 0.1 -0.23 0 -0.01 0.01 -0.02 0.01 -0.04 0.01 -0.01 0 -0.01 0.01 -0.02 0.01 -0.01 0.2 -0.45 0.18 -0.35 0.2 -0.38 0.18 -0.32 0.21 -0.32 0.17 -0.27 0.19 -0.27 0.16 -0.22 0.17 -0.22 0.02 -0.03 0.11 -0.14 0.02 -0.01 0.04 -0.06 0.1 -0.11 0.07 -0.09 0.12 -0.14c-3,3.38 -2.14,7.63 2.65,10.51l0.25 0.15 0.05 0.03 0.25 0.14 0.05 0.03c0.18,0.09 0.36,0.18 0.54,0.27l0.03 0.02 0.03 0.01 0.17 0.09 0.04 0.01 0.13 0.07 0.01 0 0.18 0.08 0.06 0.03 0.05 0.02 0.2 0.09 0.14 0.06 0.19 0.07 0.09 0.04 0.25 0.1 0.1 0.03 0.18 0.07 0.18 0.06 0.2 0.07 0.05 0.02 0.02 0.01 0.01 0 0.25 0.08 0.1 0.03 0.03 0.01 0.2 0.07 0.03 0 0.14 0.05 0.03 0 0.2 0.06 0.14 0.04 0.1 0.03 0.16 0.04 0.21 0.05 0 0 0.2 0.06 0.21 0.04 0.16 0.04 0.12 0.03 0.33 0.07 0.02 0 0.2 0.04 0.21 0.04 0.21 0.04 0.03 0.01c0.2,0.03 0.41,0.07 0.61,0.1l0.22 0.03 0.03 0 0.16 0.02 0.02 0.01 0.22 0.03 0.21 0.02 0.02 0 0.36 0.04 0.1 0.01 0.17 0.02 0.01 0 0.21 0.02 0.03 0 0.16 0.01 0.03 0.01 0.22 0.01 0.16 0.01 0.13 0.01 0.15 0.01 0.22 0.01 0.02 0 0.2 0.01 0.22 0 0.2 0.01 0.02 0 0.22 0 0.01 0 0.21 0 0.04 0 0.17 0 0.01 0 0.22 0 0.02 0 0.17 0 0.03 0 0.22 -0.01 0.16 0 0.06 -0.01 0.2 -0.01 0.02 0 0.22 -0.01 0.14 0 0.08 -0.01 -0.08 0.03c-1.01,0.52 -1.57,2.05 0.15,2.66 3.08,1.1 9.87,-1.26 8.61,-3.62 -0.22,-0.42 -0.66,-0.82 -1.23,-0.7l0.03 -0.01 0.03 -0.02 0.18 -0.07 0.03 -0.02 0.03 -0.01 0 0 0.02 -0.01 0.04 -0.01 0.02 -0.02 0.18 -0.07 0.03 -0.02 0.02 -0.01 0.01 0 0.03 -0.01 0.03 -0.02 0.03 -0.01 0.14 -0.07 0.03 -0.01 0.03 -0.02 0.02 0 0.01 -0.01 0.03 -0.01 0.02 -0.02 0.03 -0.01 0.17 -0.08 0.03 -0.02 0.01 0 0.02 -0.01 0.03 -0.02 0.03 -0.01 0.22 -0.12 0.01 0 0.02 -0.01 0.03 -0.02c0.08,-0.04 0.16,-0.09 0.24,-0.13 5.08,-2.84 6.19,-7.15 3.26,-10.62 0.09,0.1 0.17,0.21 0.26,0.31zm-0.26 -0.31l0 -0.01 -0.03 -0.02 0 0 -0.02 -0.02 -0.02 -0.03 -0.02 -0.02 0.01 0.01 0.01 0.01zm-0.02 -0.02l-0.02 -0.02 0.02 0.02zm-0.02 -0.02l-0.02 -0.03 0.02 0.03zm-0.02 -0.03l-0.02 -0.02 0.02 0.02zm-0.02 -0.02l-0.02 -0.03 0.02 0.03z"/>
   <path class="fil0" d="M31.43 76.79l0 0 0 0.01 0.01 0 0 0.01 0 0 0 0 0.01 0.01 0 0 0.01 0.01 0 0 0 0 0 0.01 0.01 0 0 0.01 0.01 0 0 0.01 0 0 0.02 0.02 0.08 0.1 0.01 0.02 0.02 0.03 0.02 0.02 0.01 0.02 0.01 0.01 0.02 0.02 0.15 0.2 0.18 0.25 0.19 0.28 0.18 0.31 0.18 0.28 0.02 0.04 0.01 0.03 0.01 0.01 0.02 0.03 0.15 0.29 0.2 0.38 0.18 0.4 0.01 0.01 0 0 0 0.01 0 0 0 0.01 0.01 0 0 0.01 0 0 0 0.01 0.01 0 0 0.01 0 0 0 0.01 0 0 0.01 0.01 0 0.01 0 0 0 0.01 0.01 0 0 0.01 0 0 0 0.01 0.01 0 0 0.01 0 0 0 0.01 0 0.01 0.01 0 0 0 0 0.01 0 0.01 0.01 0 0 0 0 0.01 0 0.01 0.01 0.01 0 0 0 0 0 0.01 0 0.01 0 0c0.05,0.1 0.09,0.21 0.13,0.33l0.01 0.02 0.09 0.24 0.05 0.13 0 0 0 0.01 0 0.02 0.01 0.01c0.03,0.11 0.07,0.24 0.11,0.36l0 0.01 0 0 0 0 0.01 0.01 0 0.01 0 0.01 0 0.01 0 0 0 0 0.01 0.01 0 0.01 0 0.01 0 0 0 0 0.01 0.01 0.12 0.49c0.03,0.19 0.08,0.43 0.11,0.61l0.07 0.56c0.01,0.19 0.03,0.43 0.03,0.63l0 0.01 0 0.02 0 0.01 0 0.01 0 0.01 0 0.01 0 0.01 0 0.01c0.01,2.59 -1.74,5.18 -5.23,7.13 -6.77,3.78 -17.53,3.67 -24.03,-0.24 -3.16,-1.9 -4.73,-4.35 -4.73,-6.79l0 -0.02 0 -0.01 0 -0.01 0 0c0.01,-0.27 0.03,-0.61 0.05,-0.9l0 -0.01 0 0 0 -0.02 0 0 0 -0.01 0 0c0.02,-0.11 0.03,-0.21 0.04,-0.3l0.09 -0.5 0 -0.01 0 -0.01 0 -0.01 0.01 0c0.03,-0.18 0.09,-0.41 0.13,-0.58l0.14 -0.46 0 0 0 -0.01 0 0c0.05,-0.13 0.1,-0.29 0.15,-0.42l0 0 0 -0.01 0 0 0 -0.01 0.01 0 0 -0.01 0 0 0 -0.01 0 0 0.01 -0.01 0 0 0 -0.01 0 0 0.03 -0.07 0 -0.01 0.1 -0.23 0 -0.01 0.01 -0.02 0.01 -0.04 0.01 -0.01 0 -0.01 0.01 -0.02 0.01 -0.01 0.2 -0.45 0.18 -0.35 0.2 -0.38 0.18 -0.32 0.21 -0.32 0.17 -0.27 0.19 -0.27 0.16 -0.22 0.17 -0.22 0.02 -0.03 0.11 -0.14 0.02 -0.01 0.04 -0.06 0.1 -0.11 0.07 -0.09 0.12 -0.14c-3,3.38 -2.14,7.63 2.65,10.51l0.27 0.16 0.01 0.01 0.03 0.01 0.26 0.15 0.01 0c0.09,0.06 0.19,0.11 0.29,0.16l0.01 0c0.18,0.1 0.37,0.19 0.57,0.28l0.03 0.02 0.04 0.01 0.27 0.13 0 0 0.32 0.14 0.02 0.01 0.28 0.11 0.04 0.01 0.3 0.12 0.01 0.01 0.3 0.1 0.05 0.02c0.44,0.16 0.88,0.3 1.33,0.43l0.01 0c0.22,0.06 0.45,0.12 0.68,0.18l0.05 0.01 0.27 0.06 0.05 0.02 0 0 0.33 0.07 0.03 0.01 0.36 0.07 0 0 0.36 0.07 0 0 0.04 0.01 0.32 0.05 0.01 0c1.21,0.21 2.47,0.32 3.72,0.35l0.01 0 0.38 0.01 0.02 0c0.24,0 0.47,0 0.7,0l0.06 0 0.27 -0.01 -0.1 0.03c-0.74,0.41 -1.84,2.38 1.02,3.02 4.2,0.94 11.47,-1.82 9.9,-4.47 -0.34,-0.59 -0.79,-0.85 -1.33,-0.76l0.03 -0.01 0.01 -0.01 0.01 0 0.01 -0.01 0.01 0 0.01 -0.01 0.05 -0.02 0.01 -0.01 0.01 0 0.01 -0.01 0.01 -0.01 0.02 0 0.01 -0.01 0.01 0 0.01 -0.01 0.01 0 0.01 -0.01 0.07 -0.03 0.01 -0.01 0.01 -0.01 0.01 0 0.01 -0.01 0.01 0 0.01 -0.01 0.02 0 0.01 -0.01 0.01 -0.01 0.01 0 0 0 0.01 -0.01 0.01 0 0.01 -0.01 0.22 -0.12 0.01 0 0.01 -0.01 0.01 -0.01 0.01 0c5.08,-2.84 6.19,-7.15 3.26,-10.62 0.09,0.1 0.17,0.21 0.26,0.31zm-0.26 -0.31l0 -0.01 -0.03 -0.02 0 0 -0.02 -0.02 -0.02 -0.03 -0.02 -0.02 0.02 0.02zm-0.02 -0.02l-0.02 -0.02 0.02 0.02zm-0.02 -0.02l-0.02 -0.03 0.02 0.03zm-0.02 -0.03l-0.02 -0.02 0.02 0.02zm-0.02 -0.02l-0.02 -0.03 0.02 0.03z"/>
   <path class="fil0" d="M4.73 90.3c-3.16,-1.9 -4.73,-4.35 -4.73,-6.79l0 -0.02 0 -0.02c0,-0.16 0.01,-0.34 0.02,-0.52l0 0 0 -0.02c0.15,-1.53 0.57,-2.72 0.9,-3.46 0.08,-0.16 0.19,-0.38 0.27,-0.53l0.2 -0.38 0.18 -0.32 0.21 -0.32 0.17 -0.27 0.19 -0.27 0.16 -0.22 0.17 -0.22 0.02 -0.03 0.11 -0.14 0.02 -0.01 0.04 -0.06 0.1 -0.11 0.07 -0.09 0.12 -0.14c-3,3.38 -2.14,7.63 2.65,10.51 0.09,0.06 0.18,0.11 0.28,0.17l0 0 0 0 0.01 0c0.1,0.06 0.19,0.11 0.29,0.16l0 0 0.29 0.16 0 0 0.3 0.15 0.01 0 0.25 0.13 0.05 0.02 0.01 0 0.02 0.01 0.27 0.12 0.01 0.01 0.01 0 0 0.01 0.28 0.12 0.03 0.01 0.01 0 0.24 0.1 0.07 0.03 0.01 0 0.05 0.02 0.23 0.09 0.04 0.01 0.01 0.01 0.16 0.06 0.16 0.06 0.01 0 0.04 0.02 0.24 0.08 0.04 0.01 0.01 0.01 0.02 0 0.31 0.1 0 0 0.01 0.01 0.33 0.1 0 0 0.01 0 0.3 0.09 0.04 0.01 0.01 0 0.18 0.05 0.15 0.04 0.02 0.01 0.18 0.04 0.16 0.04 0.01 0.01 0.18 0.04 0.16 0.04 0.02 0 0.03 0.01 0.24 0.05 0.07 0.02 0.02 0 0.04 0.01 0.21 0.04 0.19 0.04 0.18 0.03 0.17 0.04 0.21 0.03 0.07 0.01 0.02 0.01 0.03 0 0.26 0.04 0.05 0.01 0.03 0.01 0.28 0.04 0.06 0.01 0.03 0 0.18 0.02 0.07 0.01 0.2 0.03 0.2 0.02 0.06 0.01 0.03 0 0.19 0.02 0.06 0 0.18 0.02 0.21 0.02 0.11 0.01 0.19 0.01 0.07 0.01 0.12 0.01 0.19 0.01 0.05 0 0.14 0.01 0.19 0.01 0.03 0 0.16 0 0.19 0.01c0.12,0 0.25,0.01 0.38,0.01l0 0 0.19 0 -0.11 0.02c-0.52,0.38 -2.03,2.76 1.82,3.41 0.28,0.04 0.64,0.09 0.92,0.11l-0.23 0.02 -0.01 0 0 0 -0.02 0.01 -0.32 0.02 -0.13 0 -0.02 0.01 -0.25 0.01 -0.03 0 -0.15 0.01 -0.06 0 -0.24 0.01 -0.01 0 -0.25 0 -0.01 0 -0.23 0.01 -0.25 0 -0.22 0 -0.02 0 -0.24 0 -0.01 0 -0.25 0 -0.05 0 -0.18 -0.01 -0.01 0 -0.25 -0.01 -0.01 0 -0.14 0 -0.23 -0.01 -0.09 -0.01 -0.02 0 -0.05 0 -0.27 -0.02 -0.12 -0.01 -0.05 0 -0.24 -0.02 0 0 -0.14 -0.01 -0.21 -0.02 -0.14 -0.01 -0.24 -0.02 -0.05 -0.01 -0.15 -0.01 -0.04 -0.01 -0.25 -0.03 0 0 -0.14 -0.02 -0.21 -0.02 -0.1 -0.01 -0.03 -0.01 -0.24 -0.03 -0.03 -0.01 -0.16 -0.02 -0.05 -0.01 -0.23 -0.04 -0.18 -0.03 -0.15 -0.02 -0.15 -0.03 -0.23 -0.05 -0.05 -0.01 -0.12 -0.02 -0.29 -0.06 -0.13 -0.03 -0.25 -0.05 -0.05 -0.01 -0.05 -0.01 -0.29 -0.07 -0.1 -0.03 -0.27 -0.07 -0.03 0 -0.02 -0.01 -0.06 -0.02 -0.29 -0.08 -0.03 0 -0.05 -0.02 -0.27 -0.08 -0.11 -0.03 -0.25 -0.08 -0.04 -0.01 -0.02 -0.01 -0.06 -0.02 -0.24 -0.07 -0.1 -0.04 -0.02 0 -0.21 -0.08 -0.09 -0.03 -0.05 -0.02 -0.29 -0.1 -0.02 -0.01 -0.02 -0.01 -0.32 -0.12 -0.02 -0.01 -0.3 -0.12 -0.09 -0.04 -0.25 -0.11 -0.03 -0.01 -0.01 0 -0.04 -0.02 -0.25 -0.12 -0.04 -0.02 -0.06 -0.02 -0.25 -0.12 -0.06 -0.03 -0.28 -0.14 0 -0.01 -0.01 0 -0.02 -0.01c-0.1,-0.05 -0.19,-0.1 -0.28,-0.15l-0.03 -0.01 -0.28 -0.16 -0.06 -0.03 -0.27 -0.16z"/>
   <path class="fil0" d="M1.26 79.73c0.08,-0.52 0.24,-1.59 1.41,-3.04l0.16 -0.19 0.03 -0.04 -0.04 0.05 0 0.01 -0.01 0 0 0.01 -0.12 0.14 0 0 -0.01 0.01 -0.01 0.01 -0.11 0.14 0 0 0 0.01 -0.04 0.04 -0.07 0.11 -0.02 0.01 -0.02 0.04 -0.08 0.11 -0.01 0.02 0 0 -0.06 0.08 -0.03 0.06 -0.02 0.02 -0.02 0.03 -0.07 0.11 -0.01 0.03 -0.02 0.02 -0.08 0.14 0 0.01 -0.02 0.02 -0.07 0.14 -0.01 0 0 0.02 -0.08 0.14 0 0.01 -0.01 0.01 -0.07 0.16 -0.01 0.01 -0.07 0.16 0 0 -0.06 0.14 -0.02 0.06 -0.01 0.03 -0.02 0.05 -0.02 0.06 0 0 -0.02 0.05 -0.04 0.11 0 0 0 0.01 -0.02 0.05 -0.01 0.06 -0.02 0.05 -0.02 0.05 0 0.01 -0.01 0.05 -0.02 0.06 0 0.02 -0.01 0.04 -0.02 0.05 -0.01 0.06 -0.01 0.05 -0.01 0.06 -0.01 0.06 -0.02 0.05 0 0.06 -0.01 0.06 -0.01 0.05 -0.01 0.06 -0.01 0.05 0.01 -0.12z"/>
   <path class="fil0" d="M31.43 76.79l0 0 0 0.01 0.01 0 0 0.01 0 0 0 0 0.01 0.01 0 0 0.01 0.01 0 0 0 0 0 0.01 0.01 0 0 0.01 0.01 0 0 0.01 0 0 0.02 0.02 0.08 0.1 0.01 0.02 0.02 0.03 0.02 0.02 0.01 0.02 0.01 0.01 0.02 0.02 0.15 0.2 0.18 0.25 0.19 0.28 0.18 0.31 0.18 0.28 0.02 0.04 0.01 0.03 0.01 0.01 0.02 0.03 0.15 0.29 0.2 0.38 0.18 0.4 0.01 0.01 0 0 0 0.01 0 0 0 0.01 0.01 0 0 0.01 0 0 0 0.01 0.01 0 0 0.01 0 0 0 0.01 0 0 0.01 0.01 0 0.01 0 0 0 0.01 0.01 0 0 0.01 0 0 0 0.01 0.01 0 0 0.01 0 0 0 0.01 0 0.01 0.01 0 0 0 0 0.01 0 0.01 0.01 0 0 0 0 0.01 0 0.01 0.01 0.01 0 0 0 0 0 0.01 0 0.01 0 0c0.05,0.1 0.09,0.21 0.13,0.33l0.01 0.02 0.09 0.24 0.05 0.13 0 0 0 0.01 0 0.02 0.01 0.01c0.03,0.11 0.07,0.24 0.11,0.36l0 0.01 0 0 0 0 0.01 0.01 0 0.01 0 0.01 0 0.01 0 0 0 0 0.01 0.01 0 0.01 0 0.01 0 0 0 0 0.01 0.01 0.12 0.49c0.03,0.19 0.08,0.43 0.11,0.61l0.07 0.56c0.01,0.19 0.03,0.43 0.03,0.63l0 0.01 0 0.02 0 0.01 0 0.01 0 0.01 0 0.01 0 0.01 0 0.01 0 0.11 0 0.01 0 0.04 0 0.08 -0.01 0.08 0 0.04 0 0.01 -0.01 0.09 0 0.02 0 0.06 -0.01 0.06 0 0.04 -0.01 0.09 0 0.02 -0.02 0.1 0 0.01 -0.02 0.11 0 0 -0.02 0.1 0 0.02 -0.02 0.09 0 0.03 0 0.01c-0.02,0.08 -0.04,0.15 -0.06,0.23l0 0c-0.03,0.12 -0.06,0.24 -0.1,0.36l-0.01 0.01c-0.02,0.07 -0.04,0.14 -0.07,0.22l0 0.01c-0.09,0.24 -0.19,0.48 -0.31,0.71l0 0.01 -0.06 0.11 0 0 -0.05 0.1 -0.01 0.02 0 0 -0.07 0.11 -0.04 0.08 -0.03 0.04c-0.11,0.19 -0.23,0.38 -0.37,0.57l0 0.01 -0.07 0.09 -0.02 0.02c-0.17,0.23 -0.35,0.45 -0.55,0.67l0 0.01 -0.09 0.1 -0.01 0c-0.1,0.11 -0.21,0.22 -0.31,0.33l-0.01 0c-0.11,0.11 -0.22,0.22 -0.34,0.32l-0.02 0.02 -0.1 0.08 0 0.01c-0.39,0.34 -0.83,0.67 -1.3,0.99l0.32 -0.4c1.42,-2.16 -1.19,-2.93 -1.35,-2.9l-0.13 0.06 0.08 -0.05 0.07 -0.05 0.12 -0.08 0.12 -0.08 0.06 -0.04 0.14 -0.1 0.06 -0.04 0.14 -0.11 0.01 -0.01 0.15 -0.11 0.01 -0.01 0.12 -0.1 0.06 -0.04 0.02 -0.02 0.17 -0.14 0.01 -0.01 0.17 -0.14 0.16 -0.16 0.01 0 0.01 -0.01c0.11,-0.1 0.21,-0.21 0.31,-0.31l0.02 -0.02 0.13 -0.13 0.01 -0.01 0.11 -0.12 0.02 -0.02 0.07 -0.08 0.08 -0.1 0.03 -0.03 0.12 -0.15 0 0 0.12 -0.15 0.03 -0.04 0.09 -0.13 0.02 -0.03c0.08,-0.1 0.15,-0.2 0.21,-0.3l0.03 -0.05 0.07 -0.1 0.03 -0.07 0.09 -0.15 0 0 0.08 -0.14 0.02 -0.04c0.06,-0.12 0.11,-0.23 0.16,-0.34l0.01 0c0.05,-0.12 0.1,-0.24 0.14,-0.35l0 0c0.05,-0.12 0.09,-0.24 0.12,-0.36l0.01 -0.03 0.04 -0.13 0.02 -0.07 0.03 -0.11 0.01 -0.05 0.03 -0.13 0.01 -0.04 0.02 -0.14 0.01 -0.05 0.02 -0.12 0.01 -0.07 0.01 -0.11 0 -0.05 0.02 -0.13 0 -0.05 0 -0.13 0.01 -0.05 0 -0.13 0 -0.04 0 -0.15 0 -0.02 -0.01 -0.15 0 -0.04 -0.02 -0.13 0 -0.05 -0.02 -0.15 0 -0.02c-0.02,-0.11 -0.04,-0.23 -0.06,-0.34l0 -0.02 0 0 -0.04 -0.17 0 -0.01 -0.04 -0.16 -0.01 -0.01 -0.04 -0.16 -0.01 -0.02 -0.02 -0.06 -0.03 -0.11 -0.03 -0.06 -0.03 -0.1 -0.04 -0.09 -0.03 -0.09 -0.03 -0.07 -0.05 -0.11 -0.02 -0.04 -0.06 -0.13 -0.04 -0.07 -0.04 -0.08 -0.05 -0.1 -0.05 -0.09 -0.03 -0.06 -0.06 -0.1 -0.05 -0.08 -0.06 -0.1 -0.03 -0.05 -0.09 -0.13 -0.03 -0.04 -0.07 -0.11 -0.05 -0.07 -0.05 -0.07 -0.08 -0.1 -0.01 0 -0.11 -0.14 -0.01 -0.02 -0.13 -0.15 0 -0.01 -0.02 -0.01 -0.02 -0.03 -0.02 -0.02 0.01 0.01 0.01 0.01zm0.07 0.08l0 -0.01 -0.03 -0.02 0 0zm-0.06 -0.07l-0.02 -0.02 0.02 0.02zm-0.02 -0.02l-0.02 -0.03 0.02 0.03zm-0.02 -0.03l-0.02 -0.02 0.02 0.02zm-0.02 -0.02l-0.02 -0.03 0.02 0.03zm0.15 0.17c0.08,0.1 0.17,0.2 0.26,0.31z"/>
   <path class="fil0" d="M31.43 76.79l0 0 0 0.01 0.01 0 0 0.01 0 0 0 0 0.01 0.01 0 0 0.01 0.01 0 0 0 0 0 0.01 0.01 0 0 0.01 0.01 0 0 0.01 0 0 0.02 0.02 0.08 0.1 0.01 0.02 0.02 0.03 0.02 0.02 0.01 0.02 0.01 0.01 0.02 0.02 0.15 0.2 0.18 0.25 0.19 0.28 0.18 0.31 0.18 0.28 0.02 0.04 0.01 0.03 0.01 0.01 0.02 0.03 0.15 0.29 0.2 0.38 0.18 0.4 0.01 0.01 0 0 0 0.01 0 0 0 0.01 0.01 0 0 0.01 0 0 0 0.01 0.01 0 0 0.01 0 0 0 0.01 0 0 0.01 0.01 0 0.01 0 0 0 0.01 0.01 0 0 0.01 0 0 0 0.01 0.01 0 0 0.01 0 0 0 0.01 0 0.01 0.01 0 0 0 0 0.01 0 0.01 0.01 0 0 0 0 0.01 0 0.01 0.01 0.01 0 0 0 0 0 0.01 0 0.01 0 0c0.05,0.1 0.09,0.21 0.13,0.33l0.01 0.02 0.09 0.24 0.05 0.13 0 0 0 0.01 0 0.02 0.01 0.01c0.03,0.11 0.07,0.24 0.11,0.36l0 0.01 0 0 0 0 0.01 0.01 0 0.01 0 0.01 0 0.01 0 0 0 0 0.01 0.01 0 0.01 0 0.01 0 0 0 0 0.01 0.01 0.12 0.49c0.03,0.19 0.08,0.43 0.11,0.61l0.07 0.56c0.01,0.19 0.03,0.43 0.03,0.63l0 0.01 0 0.02 0 0.01 0 0.01 0 0.01 0 0.01 0 0.01 0 0.01 0 0.07 0 0.05 0 0.03 0 0.08 0 0.01 -0.01 0.07 0 0.05 0 0.03 -0.01 0.08 0 0.01 0 0.06 -0.01 0.06 0 0.02 -0.01 0.08 0 0.03 -0.01 0.05 -0.01 0.07 0 0 -0.01 0.08 -0.01 0.08 -0.02 0.08 0 0 -0.01 0.07 -0.02 0.08 0 0 -0.02 0.08 0 0.01 -0.02 0.07 -0.01 0.05 0 0.02 -0.03 0.08 0 0.02 -0.02 0.06 -0.02 0.06 0 0.02 -0.02 0.07 -0.01 0.03 -0.02 0.05 -0.02 0.07 0 0.01 -0.03 0.07 -0.01 0.04 -0.05 0.12 0 0 0 0.01c-0.03,0.07 -0.06,0.14 -0.09,0.22l0 0.01c-0.04,0.08 -0.08,0.16 -0.11,0.24l-0.03 0.05 -0.03 0.06 -0.01 0.02 -0.03 0.07 -0.02 0.03 -0.06 0.12 0 0 -0.05 0.08 -0.02 0.03 0 0.01 -0.06 0.11 -0.01 0c-0.07,0.12 -0.14,0.23 -0.21,0.35l-0.02 0.02 -0.05 0.07 -0.01 0.02 -0.04 0.05 -0.04 0.07 -0.01 0.01 -0.05 0.07 -0.03 0.03 -0.03 0.04 -0.05 0.07 0 0 -0.06 0.08 -0.03 0.04 -0.08 0.1 -0.01 0.01 -0.05 0.06 -0.04 0.05 -0.02 0.02 -0.07 0.08 -0.01 0.01 -0.05 0.06 -0.05 0.05 -0.01 0.02 -0.07 0.07 -0.02 0.02 -0.04 0.05 -0.06 0.06 -0.01 0.01 0.15 -0.35c0.73,-2.11 -1.2,-2.75 -1.45,-2.7 0.31,-0.3 0.58,-0.6 0.82,-0.91l0.01 -0.01c0.17,-0.22 0.33,-0.44 0.47,-0.67l0 0 0.08 -0.13 0.02 -0.03 0.06 -0.12 0.08 -0.13 0.06 -0.12 0.01 -0.03 0.06 -0.13 0.01 -0.01 0.06 -0.12 0 -0.01 0.05 -0.13 0.01 -0.01 0.05 -0.14 0.04 -0.1 0.03 -0.07 0.02 -0.08 0.02 -0.07 0.04 -0.11 0 0 0.04 -0.13 0 -0.01 0.04 -0.14 0.02 -0.1 0.01 -0.06 0.02 -0.1 0.01 -0.07 0.02 -0.09 0.01 -0.06 0.01 -0.1 0.02 -0.14 0 -0.02 0.01 -0.05 0 -0.1 0.01 -0.08 0 -0.09 0.01 -0.07 0 -0.13 0 -0.03 0 -0.01 0 -0.14 0 -0.03 -0.01 -0.04 0 -0.1 -0.01 -0.08 -0.01 -0.11 0 -0.04 -0.02 -0.13 0 -0.04 0 -0.01 -0.02 -0.14 -0.01 -0.03 -0.01 -0.05 -0.01 -0.09 -0.02 -0.09 -0.02 -0.06 -0.02 -0.09 -0.02 -0.09 -0.02 -0.06 0 -0.01 -0.04 -0.14 0 -0.01 -0.03 -0.09 -0.03 -0.07 -0.02 -0.07 -0.04 -0.1 -0.03 -0.08 0 -0.01 -0.05 -0.13 -0.01 -0.01 -0.01 -0.02 -0.06 -0.14 -0.02 -0.04 -0.05 -0.12 -0.03 -0.05 -0.05 -0.1 -0.04 -0.08 0 -0.01 -0.08 -0.13 0 -0.01 -0.08 -0.13 0 -0.01 -0.05 -0.08 -0.06 -0.09 -0.04 -0.06 -0.06 -0.09 -0.04 -0.07 -0.01 -0.01 -0.1 -0.14 0 0 -0.1 -0.13 -0.01 -0.01 -0.06 -0.09 -0.06 -0.06 -0.05 -0.07 -0.09 -0.11 -0.03 -0.03 -0.02 -0.02 0 -0.01 0.02 0.03 0 0 0.03 0.02 0 0.01c0.08,0.1 0.17,0.2 0.26,0.31zm-0.26 -0.31l0 0zm-0.05 -0.06l-0.02 -0.02 -0.02 -0.02 0.01 0.01 0.01 0.01zm-0.02 -0.02l-0.02 -0.02 0.02 0.02zm-0.02 -0.02l-0.02 -0.03 0.02 0.03zm-0.02 -0.03l-0.02 -0.02 0.02 0.02zm-0.02 -0.02l-0.02 -0.03 0.02 0.03z"/>
   <path class="fil0" d="M31.43 76.79l0 0 0 0.01 0.01 0 0 0.01 0 0 0 0 0.01 0.01 0 0 0.01 0.01 0 0 0 0 0 0.01 0.01 0 0 0.01 0.01 0 0 0.01 0 0 0.02 0.02 0.08 0.1 0.01 0.02 0.02 0.03 0.02 0.02 0.01 0.02 0.01 0.01 0.02 0.02 0.15 0.2 0.18 0.25 0.19 0.28 0.18 0.31 0.18 0.28 0.02 0.04 0.01 0.03 0.01 0.01 0.02 0.03 0.15 0.29 0.2 0.38 0.18 0.4 0.01 0.01 0 0 0 0.01 0 0 0 0.01 0.01 0 0 0.01 0 0 0 0.01 0.01 0 0 0.01 0 0 0 0.01 0 0 0.01 0.01 0 0.01 0 0 0 0.01 0.01 0 0 0.01 0 0 0 0.01 0.01 0 0 0.01 0 0 0 0.01 0 0.01 0.01 0 0 0 0 0.01 0 0.01 0.01 0 0 0 0 0.01 0 0.01 0.01 0.01 0 0 0 0 0 0.01 0 0.01 0 0c0.05,0.1 0.09,0.21 0.13,0.33l0.01 0.02 0.09 0.24 0.05 0.13 0 0 0 0.01 0 0.02 0.01 0.01c0.03,0.11 0.07,0.24 0.11,0.36l0 0.01 0 0 0 0 0.01 0.01 0 0.01 0 0.01 0 0.01 0 0 0 0 0.01 0.01 0 0.01 0 0.01 0 0 0 0 0.01 0.01 0.12 0.49c0.03,0.19 0.08,0.43 0.11,0.61l0.07 0.56c0.01,0.19 0.03,0.43 0.03,0.63l0 0.01 0 0.02 0 0.01 0 0.01 0 0.01 0 0.01 0 0.01 0 0.01 0 0.05 0 0.05 0 0.02 0 0.04 0 0.05 0 0.03 0 0.02 -0.01 0.06 0 0.04 0 0.01 0 0.06 -0.01 0.05 0 0 0 0.05 -0.01 0.06 0 0.05 -0.01 0.05 0 0.06 -0.01 0.05c-0.01,0.07 -0.02,0.14 -0.04,0.21l0 0.06 -0.01 0.02 -0.01 0.03 -0.01 0.05 -0.01 0.06 -0.01 0.05 -0.01 0.05 0 0 -0.01 0.06 -0.02 0.05 -0.01 0.05 -0.01 0.06 -0.02 0.05 -0.01 0.05 -0.02 0.04 0 0.02 -0.02 0.05 -0.01 0.05 0 0 -0.02 0.05 -0.04 0.11 -0.01 0.05 -0.02 0.06 -0.02 0.05 -0.04 0.1 -0.02 0.06 -0.03 0.05 -0.02 0.05 -0.02 0.05 -0.02 0.05 -0.03 0.06 -0.02 0.05 -0.02 0.05 -0.01 0 -0.02 0.05c-0.03,0.07 -0.07,0.14 -0.11,0.21l-0.02 0.05c-0.06,0.11 -0.12,0.21 -0.18,0.31l-0.03 0.05 -0.03 0.05 0.08 -0.32c0.39,-2.17 -1.21,-2.86 -1.22,-2.87 0.06,-0.1 0.13,-0.21 0.18,-0.32l0.02 -0.03 0.1 -0.18 0.02 -0.04 0.04 -0.08 0.02 -0.05 0.08 -0.18 0.01 -0.03 0.04 -0.08 0.02 -0.07 0.05 -0.14 0.03 -0.08 0.03 -0.06 0 -0.02 0.04 -0.11 0.03 -0.09 0.01 -0.05 0.02 -0.09 0.01 -0.01 0.02 -0.11 0.02 -0.08 0.02 -0.07 0.01 -0.08 0.03 -0.14 0.01 -0.05 0.02 -0.12 0 -0.03 0 -0.01 0.02 -0.15 0 -0.04 0.01 -0.12 0.01 -0.04 0 0 0 -0.01 0.01 -0.14 0 -0.05 0 -0.16 0 0 0 0 0 -0.15 -0.01 -0.05 0 -0.13 0 -0.02 0 -0.01 -0.01 -0.03 -0.01 -0.13 0 -0.03 -0.02 -0.15 0 -0.02 -0.01 -0.04 -0.01 -0.1 -0.01 -0.04 0 -0.03 -0.03 -0.12 -0.02 -0.09 -0.01 -0.05 -0.02 -0.09 -0.03 -0.12 0 -0.01 -0.02 -0.06 -0.03 -0.1 -0.01 -0.04 0 -0.02 -0.01 -0.01 -0.04 -0.13 -0.02 -0.04 -0.04 -0.11 -0.04 -0.1 -0.03 -0.09 -0.03 -0.07 -0.01 -0.02 -0.05 -0.11 0 -0.01 -0.05 -0.11 -0.01 -0.02 -0.04 -0.08 -0.01 -0.01 -0.05 -0.12 -0.05 -0.07 -0.03 -0.07 -0.04 -0.07 -0.01 -0.01 -0.06 -0.11 -0.05 -0.08 -0.05 -0.07 -0.04 -0.07 0 0 -0.08 -0.12 -0.02 -0.03 -0.02 -0.03 -0.07 -0.1 -0.03 -0.04 -0.01 -0.02 -0.08 -0.11 -0.02 -0.01 -0.05 -0.07 -0.02 -0.02 -0.08 -0.1 0 -0.01 -0.03 -0.03zm-0.06 -0.08l0 0 -0.02 -0.03 -0.01 0zm-0.02 -0.02l-0.01 -0.02 -0.01 0 0.02 0.02zm-0.02 -0.02l-0.02 -0.03 -0.01 -0.01 -0.01 -0.01 0.01 0.01 0.01 0.01zm-0.02 -0.02l-0.02 -0.02 0.02 0.02zm-0.02 -0.02l-0.02 -0.03 0.02 0.03zm-0.02 -0.03l-0.02 -0.02 0.02 0.02zm-0.02 -0.02l-0.02 -0.03 0.02 0.03zm0.17 0.19l0.24 0.29z"/>
   <path class="fil0" d="M4.73 90.3l-0.11 -0.07 -0.04 -0.02 -0.07 -0.05 -0.07 -0.04 -0.03 -0.02 -0.19 -0.13 -0.02 -0.01 -0.04 -0.03 -0.06 -0.04 -0.08 -0.05 -0.02 -0.01 -0.1 -0.07 -0.2 -0.14 -0.08 -0.06 -0.01 -0.01 -0.1 -0.07c-0.09,-0.07 -0.18,-0.14 -0.27,-0.21l-0.09 -0.08 -0.03 -0.02 -0.06 -0.05c-0.5,-0.41 -0.93,-0.83 -1.31,-1.27l-0.06 -0.08c-0.14,-0.16 -0.26,-0.31 -0.37,-0.47l-0.06 -0.08 0 -0.01 -0.05 -0.07 -0.03 -0.03 -0.03 -0.05 -0.04 -0.06 -0.01 -0.02 -0.05 -0.08 -0.01 -0.01 -0.05 -0.07 -0.02 -0.04 -0.02 -0.04 -0.04 -0.07 -0.06 -0.09 -0.01 -0.02c-0.04,-0.07 -0.08,-0.15 -0.12,-0.22l0 -0.01c-0.16,-0.3 -0.29,-0.6 -0.39,-0.9l0.08 0.04c0.99,0.95 0.99,0.95 1.26,0.75 0.5,-0.39 0.52,-2.09 0.52,-2.11 0,-0.01 -0.01,-0.15 -0.11,-0.51l0.03 0.01c0.2,0.32 0.42,0.63 0.68,0.93l0.04 0.05 0.09 0.11 0.05 0.05 0.1 0.11 0.04 0.05 0.1 0.11 0.06 0.05 0.1 0.1 0.05 0.05 0.01 0.01 0.1 0.09 0.05 0.06 0.06 0.05 0 0 0.06 0.05 0.05 0.05 0.01 0.01 0.11 0.09 0.06 0.05 0.06 0.05 0 0 0.05 0.05 0.07 0.05 0.06 0.05 0 0 0.06 0.05 0.06 0.05 0.06 0.05 0 0 0.07 0.04 0.06 0.05 0.07 0.05 0.03 0.03 0.03 0.02 0.07 0.05 0.02 0.01 0.11 0.08 0 0 0.07 0.05 0.07 0.05 0 0 0.07 0.04 0.07 0.05 0.07 0.05 0.07 0.04 0.07 0.05 0.08 0.05 0.22 0.13 0.26 0.15 0.02 0.02 0.02 0.01 0.27 0.15 0.01 0.01 0.28 0.15 0.02 0 0.28 0.14 0.01 0.01 0.03 0.01 0.23 0.11 0.1 0.05 0.22 0.1 0.04 0.02 0.03 0.01 0.26 0.11 0.03 0.02 0.07 0.03 0.22 0.09 0.03 0.01 0.05 0.02 0.24 0.09 0.04 0.01 0.01 0.01 0.15 0.05 0.15 0.06 0.07 0.02 0.27 0.1 0.02 0.01 0.32 0.1 0.02 0 0.31 0.1 0.02 0.01 0.04 0.01 0.28 0.08 0.03 0.01 0 0 0.02 0 0.3 0.08 0.02 0.01 0.14 0.04 0.15 0.04 0.07 0.01 0.09 0.03 0.16 0.03 0.1 0.03 0.06 0.01 0.27 0.06 0.03 0.01 0.03 0 0.25 0.06 0.16 0.03 0.08 0.01 0.16 0.03 0.11 0.02 0.06 0.01 0.16 0.03 0.14 0.02 0.03 0.01 0.16 0.02 0.04 0.01 0.15 0.02 0.24 0.04 0.05 0.01 0.02 0 0.17 0.02 0.04 0.01 0.3 0.03 0.16 0.02 0.17 0.02 0.17 0.02c0.39,0.03 0.79,0.06 1.19,0.08 -0.58,0.1 -1.33,2.16 0.03,3.09 0.28,0.19 0.54,0.3 0.79,0.41l0.55 0.18 -0.21 0 -0.02 0 -0.39 -0.01 -0.02 0 -0.4 -0.01 0 0 -0.41 -0.02 0 0 -0.4 -0.02 -0.01 0 -0.4 -0.03 -0.02 0 -0.38 -0.03 -0.03 -0.01 -0.33 -0.03 -0.05 -0.01 -0.03 0 -0.33 -0.04 -0.04 0 -0.03 -0.01c-0.38,-0.04 -0.75,-0.1 -1.12,-0.16l-0.04 0 -0.06 -0.02 -0.29 -0.05 -0.04 0 -0.07 -0.02 -0.31 -0.06 -0.02 0 -0.36 -0.07 -0.03 -0.01c-0.25,-0.06 -0.5,-0.11 -0.75,-0.17l-0.02 -0.01 -0.35 -0.09 -0.03 -0.01 -0.35 -0.09 -0.02 -0.01 -0.33 -0.09 -0.03 -0.01 -0.11 -0.03 -0.25 -0.08 -0.03 -0.01 -0.31 -0.11 -0.08 -0.02 -0.25 -0.09 -0.06 -0.02 -0.05 -0.02 -0.27 -0.1 -0.09 -0.03 -0.25 -0.1 -0.05 -0.02 -0.03 -0.01 -0.27 -0.11 -0.05 -0.02 -0.03 -0.01 -0.27 -0.12 -0.04 -0.01 -0.03 -0.02 -0.27 -0.12 -0.03 -0.02 -0.04 -0.02 -0.25 -0.11 -0.1 -0.05 -0.25 -0.13 -0.02 -0.01c-0.1,-0.05 -0.21,-0.11 -0.31,-0.16l-0.01 -0.01 -0.02 -0.01 -0.27 -0.15 -0.02 -0.01 0 0 -0.03 -0.02 -0.28 -0.16z"/>
   <path class="fil0" d="M31.43 76.79l0 0 0 0.01 0.01 0 0 0.01 0 0 0 0 0.01 0.01 0 0 0.01 0.01 0 0 0 0 0 0.01 0.01 0 0 0.01 0.01 0 0 0.01 0 0 0.02 0.02 0.08 0.1 0.01 0.02 0.02 0.03 0.02 0.02 0.01 0.02 0.01 0.01 0.02 0.02 0.15 0.2 0.18 0.25 0.19 0.28 0.18 0.31 0.18 0.28 0.02 0.04 0.01 0.03 0.01 0.01 0.02 0.03 0.15 0.29 0.2 0.38 0.18 0.4 0.01 0.01 0 0 0 0.01 0 0 0 0.01 0.01 0 0 0.01 0 0 0 0.01 0.01 0 0 0.01 0 0 0 0.01 0 0 0.01 0.01 0 0.01 0 0 0 0.01 0.01 0 0 0.01 0 0 0 0.01 0.01 0 0 0.01 0 0 0 0.01 0 0.01 0.01 0 0 0 0 0.01 0 0.01 0.01 0 0 0 0 0.01 0 0.01 0.01 0.01 0 0 0 0 0 0.01 0 0.01 0 0c0.05,0.1 0.09,0.21 0.13,0.33l0.01 0.02 0.09 0.24 0.05 0.13 0 0 0 0.01 0 0.02 0.01 0.01c0.03,0.11 0.07,0.24 0.11,0.36l0 0.01 0 0 0 0 0.01 0.01 0 0.01 0 0.01 0 0.01 0 0 0 0 0.01 0.01 0 0.01 0 0.01 0 0 0 0 0.01 0.01 0.12 0.49c0.03,0.19 0.08,0.43 0.11,0.61l0.07 0.56c0.01,0.19 0.03,0.43 0.03,0.63l0 0.01 0 0.02 0 0.01 0 0.01 0 0.01 0 0.01 0 0.01 0 0.01 0 0.09 0 0.03 0 0 0 0.03 0 0.03 0 0.03 0 0.03 0 0 0 0.03 -0.01 0.03 0 0.06 0 0 0 0.09 -0.01 0.03 0 0.01 0 0.03 0 0.03 0 0.03 -0.01 0.02 0 0.01 0 0.03 -0.01 0.03 0 0.03 0 0.03 0 0 -0.01 0.03 0 0.03 -0.01 0.03 0 0.03 0 0 0 0.03 -0.01 0.03 0 0.03 -0.01 0.03 0 0 0 0.03 -0.01 0.03 0 0.03 -0.01 0.03 0 0.01 -0.01 0.03 0 0.03 -0.01 0.03 0 0.03 -0.01 0.03 -0.01 0.03 0 0.03 -0.01 0.02 0 0.01 -0.01 0.03 -0.01 0.03 0 0.03 -0.01 0.02 0 0.01 -0.01 0.03 -0.01 0.03 0 0.03 -0.01 0.02 0 0.01 -0.01 0.03 -0.01 0.03 -0.01 0.03 -0.01 0.02 0 0.01 -0.01 0.03 -0.01 0.03 -0.01 0.03 0 0.02 0 0.01 -0.02 0.03 0 0.03 -0.01 0.03 -0.01 0.02 -0.01 0.01 0.04 -0.28c0.15,-2.18 -1.14,-3.04 -1.15,-3.05 0.08,-0.27 0.13,-0.54 0.17,-0.82l0 0c0.03,-0.23 0.05,-0.47 0.05,-0.71l0 -0.01 0 -0.01c0,-0.17 -0.01,-0.34 -0.03,-0.51l0 -0.02 0 -0.02 -0.02 -0.13 0 -0.03 0 -0.02 -0.02 -0.13 -0.01 -0.05 0 -0.01 -0.02 -0.09 -0.01 -0.02 -0.01 -0.06 0 -0.01 -0.02 -0.09 0 -0.02 -0.02 -0.07 -0.02 -0.09 -0.01 -0.02 -0.02 -0.07 -0.03 -0.09 0 -0.01 -0.02 -0.07 0 -0.01 -0.03 -0.1 -0.01 -0.01 -0.02 -0.06 0 -0.01 -0.04 -0.1 0 -0.01 -0.03 -0.06 0 -0.02 -0.04 -0.09 0 0 -0.03 -0.06 -0.05 -0.12 -0.03 -0.06 -0.01 -0.02 -0.04 -0.09 0 -0.01 -0.03 -0.06 -0.01 -0.02 -0.05 -0.09 0 -0.01 -0.04 -0.08 -0.01 0 -0.04 -0.09 -0.02 -0.02 -0.03 -0.07 -0.06 -0.08 -0.04 -0.07 -0.01 -0.02 -0.05 -0.09 -0.04 -0.05 -0.08 -0.12 -0.01 -0.02 -0.05 -0.07 -0.06 -0.09 -0.01 -0.01 -0.02 -0.03 -0.08 -0.11 -0.02 -0.02 -0.01 -0.01 -0.02 -0.02 -0.08 -0.11 -0.02 -0.03 -0.01 0 -0.02 -0.04 -0.05 -0.06 0.22 0.27zm-0.22 -0.27l-0.02 -0.02 -0.02 -0.03 -0.02 -0.02 -0.01 0 0 0 0.01 0z"/>
   <path class="fil0" d="M4.73 90.3l-0.07 -0.05 -0.07 -0.04 -0.01 0 -0.12 -0.08 -0.02 -0.01 -0.05 -0.03 -0.06 -0.04 -0.03 -0.02 -0.04 -0.03 -0.06 -0.04 -0.04 -0.03 -0.03 -0.01 -0.06 -0.04 -0.05 -0.04 -0.01 -0.01 -0.07 -0.04 -0.06 -0.04 0 0 -0.06 -0.05 -0.06 -0.04 -0.01 -0.01 -0.11 -0.08 -0.02 -0.01 -0.04 -0.03 -0.06 -0.05 -0.03 -0.02 -0.03 -0.02 -0.06 -0.04 -0.03 -0.03 -0.03 -0.02 -0.05 -0.04 -0.05 -0.04 -0.01 -0.01 -0.11 -0.09 0 0 -0.12 -0.09 -0.05 -0.04 -0.05 -0.05 -0.01 -0.01 -0.04 -0.04 -0.06 -0.04 -0.02 -0.02 -0.03 -0.03 -0.05 -0.04 -0.03 -0.03 -0.02 -0.02 -0.05 -0.05 -0.04 -0.03 -0.01 -0.01 -0.05 -0.05 -0.05 -0.04 0 -0.01 -0.05 -0.04 -0.05 -0.05 0 -0.01 -0.05 -0.04 -0.04 -0.05 -0.02 -0.01 -0.03 -0.03 -0.05 -0.05 -0.02 -0.02 -0.02 -0.03 -0.05 -0.05 -0.04 -0.04 -0.05 -0.05 -0.04 -0.05 -0.04 -0.05 -0.04 -0.04 -0.01 -0.01 -0.04 -0.05c-0.15,-0.17 -0.3,-0.36 -0.43,-0.54l0.21 0.09c1.65,0.72 1.28,-2.8 1.26,-2.84l0.03 0.03 0.01 0.01 0 0 0.03 0.04 0.1 0.11 0.01 0.01 0.13 0.14 0.01 0.02 0.14 0.13 0.02 0.02 0.01 0.02 0.12 0.11 0.03 0.03 0 0 0.16 0.15 0 0 0.04 0.04 0.08 0.07 0.04 0.03 0.01 0.01 0.03 0.03 0.04 0.04 0.05 0.03 0.04 0.04 0.02 0.01 0.02 0.02 0.09 0.07 0.04 0.04 0.03 0.02 0.02 0.01 0.04 0.04 0.04 0.03 0.05 0.04 0.03 0.03 0.01 0 0.05 0.04 0.04 0.03 0.05 0.04 0.05 0.03 0 0 0.04 0.04 0.05 0.03 0.09 0.07 0.01 0 0.01 0.01 0.03 0.02 0.05 0.04 0.05 0.03 0.05 0.03 0.02 0.02 0.03 0.02 0.15 0.1 0.03 0.02 0.02 0.01 0.05 0.03 0.1 0.07 0.05 0.03 0.01 0 0.05 0.03 0.16 0.1 0.26 0.15 0.02 0.02 0.05 0.03 0.23 0.12 0.02 0.01 0 0.01c0.19,0.09 0.37,0.19 0.56,0.28l0.03 0.02 0.03 0.01 0.24 0.12 0.04 0.02 0.01 0 0.05 0.03 0.21 0.09 0.09 0.04 0.2 0.09 0.15 0.06 0.04 0.01 0.12 0.06 0.02 0 0.11 0.05 0.12 0.04 0.13 0.05 0.09 0.04 0.04 0.01 0.12 0.05 0.13 0.04 0.13 0.05 0.13 0.04 0.01 0.01 0.1 0.03 0.02 0.01 0.13 0.04 0.05 0.01 0.17 0.06 0.05 0.01 0.13 0.05 0.02 0 0.11 0.03 0 0 0.14 0.04 0.03 0.01 0.23 0.07 0.14 0.04c0.18,0.04 0.36,0.09 0.54,0.14l0.14 0.03 0.27 0.06 0.01 0 0.27 0.06 0.14 0.03c0.33,0.07 0.66,0.13 0.99,0.18l0.14 0.02 0.29 0.05 0.14 0.02 0.14 0.02 0.15 0.02 0.29 0.03 0.14 0.02c-0.51,0.06 -1.24,2.25 -0.11,3.27l0.27 0.22 0.34 0.21c-2.23,-0.19 -4.41,-0.64 -6.39,-1.35l-0.01 0c-0.94,-0.34 -1.84,-0.73 -2.67,-1.19l-0.03 -0.01 -0.01 0c-0.09,-0.06 -0.19,-0.11 -0.28,-0.16l-0.02 -0.01 -0.05 -0.03 -0.26 -0.15z"/>
   <path class="fil0" d="M31.43 76.79l0 0 0 0.01 0.01 0 0 0.01 0 0 0 0 0.01 0.01 0 0 0.01 0.01 0 0 0 0 0 0.01 0.01 0 0 0.01 0.01 0 0 0.01 0 0 0.02 0.02 0.08 0.1 0.01 0.02 0.02 0.03 0.02 0.02 0.01 0.02 0.01 0.01 0.02 0.02 0.15 0.2 0.18 0.25 0.19 0.28 0.18 0.31 0.18 0.28 0.02 0.04 0.01 0.03 0.01 0.01 0.02 0.03 0.15 0.29 0.2 0.38 0.18 0.4 0.01 0.01 0 0 0 0.01 0 0 0 0.01 0.01 0 0 0.01 0 0 0 0.01 0.01 0 0 0.01 0 0 0 0.01 0 0 0.01 0.01 0 0.01 0 0 0 0.01 0.01 0 0 0.01 0 0 0 0.01 0.01 0 0 0.01 0 0 0 0.01 0 0.01 0.01 0 0 0 0 0.01 0 0.01 0.01 0 0 0 0 0.01 0 0.01 0.01 0.01 0 0 0 0 0 0.01 0 0.01 0 0c0.05,0.1 0.09,0.21 0.13,0.33l0.01 0.02 0.09 0.24 0.05 0.13 0 0 0 0.01 0 0.02 0.01 0.01c0.03,0.11 0.07,0.24 0.11,0.36l0 0.01 0 0 0 0 0.01 0.01 0 0.01 0 0.01 0 0.01 0 0 0 0 0.01 0.01 0 0.01 0 0.01 0 0 0 0 0.01 0.01 0.12 0.49c0.03,0.19 0.08,0.43 0.11,0.61l0.07 0.56c0.01,0.19 0.03,0.43 0.03,0.63l0 0.01 0 0.02 0 0.01 0 0.01 0 0.01 0 0.01 0 0.01 0 0.01 0 0 0 0.01 0 0.01 0 0 0 0.01 0 0.01 0 0 0 0.01 0 0 0 0.01 0 0.01 0 0 0 0.01 0 0.01 0 0 0 0.01 0 0.01 0 0.01 0 0.01 0 0.01 0 0 0 0.01 0 0.01 0 0 0 0.01 0 0.01 0 0 0 0.01 0 0 0 0.01 0 0.01 0 0 0 0.01 0 0.01 0 0 0 0.01 0 0 0 0 0 0.01 0 0.01 0 0 0 0.01 0 0.01 0 0 0 0.01 0 0.01 -0.01 0 0 0.01 0 0 0 0.02 0 0 0 0.01 0 0.01 0 0 0 0.01 0 0 0 0.01 0 0 0 0.01 0 0 0 0.01 0 0.01 0 -0.32c-0.11,-2.15 -1.2,-3.11 -1.21,-3.12l-0.01 -0.13 0 -0.06 -0.01 -0.13 0 -0.01 -0.01 -0.06 0 -0.07 -0.01 -0.06 -0.02 -0.13 0 0 -0.01 -0.07 0 -0.02 -0.02 -0.09 0 -0.02 -0.01 -0.07 0 0 -0.03 -0.11 0 -0.02 -0.02 -0.06 -0.01 -0.07 -0.02 -0.06 -0.01 -0.07 -0.01 -0.01 -0.01 -0.05 -0.02 -0.07 -0.01 -0.02 -0.01 -0.04 -0.02 -0.07 -0.02 -0.07 -0.02 -0.04 -0.01 -0.02 -0.02 -0.06 -0.02 -0.07 -0.02 -0.05 -0.05 -0.13 -0.01 -0.01 0 -0.01 -0.01 -0.02 -0.06 -0.15 -0.01 -0.01 0 -0.01 -0.01 -0.01 -0.07 -0.15 0 -0.01 -0.01 -0.02 -0.07 -0.13 -0.01 -0.02 -0.02 -0.04 -0.07 -0.13 -0.01 0 -0.09 -0.16 -0.01 -0.02 0 -0.01 -0.01 0c-0.03,-0.05 -0.06,-0.11 -0.1,-0.16l0 0 -0.1 -0.15 -0.01 -0.02 0 0 -0.11 -0.16 -0.01 0 0 -0.01 -0.01 -0.01 -0.11 -0.15 -0.01 -0.01 0 -0.01 -0.1 -0.12 -0.03 -0.03 -0.02 -0.03 -0.05 -0.06 0.22 0.26 -0.43 -0.51 0.02 0.03 0.02 0.02 0.01 0.02 0.01 0.01 0.02 0.02 0.02 0.02 -0.01 -0.01 -0.01 -0.01 -0.02 -0.02 -0.02 -0.03 -0.02 -0.02c0.02,0.02 0,0 -0.02,-0.03l0.26 0.31zm-0.05 -0.06l0 -0.01 -0.02 -0.02 -0.01 0 -0.04 -0.05 -0.02 -0.02 -0.01 -0.02 -0.01 -0.01z"/>
   <path class="fil0" d="M4.73 90.3l-0.04 -0.03 -0.04 -0.02 -0.04 -0.03 -0.03 -0.01 -0.01 -0.01 -0.04 -0.02 -0.04 -0.03 -0.03 -0.02 -0.02 -0.01 -0.02 -0.02 -0.04 -0.02 -0.04 -0.03 -0.04 -0.02 0 0 -0.03 -0.02 -0.04 -0.03 -0.04 -0.02 -0.03 -0.03 -0.01 0 -0.03 -0.02 -0.04 -0.03 -0.04 -0.02 -0.02 -0.02 -0.01 -0.01 -0.04 -0.02 -0.04 -0.03 -0.03 -0.02 -0.02 -0.01 -0.02 -0.02 -0.03 -0.02 -0.04 -0.03 -0.03 -0.02 -0.01 -0.01 -0.03 -0.02 -0.04 -0.02 -0.03 -0.03 -0.03 -0.02 -0.01 -0.01 -0.03 -0.02 -0.03 -0.03 -0.04 -0.02 -0.02 -0.02 -0.01 -0.01 -0.04 -0.02 -0.03 -0.03 -0.03 -0.02 -0.04 -0.03 -0.03 -0.03 -0.03 -0.02 -0.07 -0.05 -0.03 -0.03 -0.07 -0.05 -0.03 -0.03 -0.03 -0.03c-0.18,-0.14 -0.35,-0.3 -0.52,-0.45 1.72,0.1 1.26,-3.04 1.13,-3.21l0.02 0.02 0.03 0.02 0.03 0.03 0.02 0.02 0.11 0.09 0.03 0.03 0.02 0.02 0.12 0.09 0.02 0.02 0.03 0.03 0.14 0.11 0.03 0.02 0.03 0.03 0.12 0.09 0.03 0.02 0.03 0.02 0.12 0.09 0.03 0.02 0.03 0.03 0.03 0.02 0.03 0.02 0.06 0.04 0.03 0.03 0.04 0.02 0.03 0.02 0.03 0.02 0.03 0.02 0.02 0.02 0.01 0.01 0.04 0.02 0.03 0.02 0.03 0.02 0.07 0.04 0.03 0.03 0 0 0.03 0.02 0.03 0.02 0.07 0.04 0.03 0.02 0.04 0.02 0.02 0.02 0.01 0.01 0.04 0.02 0.17 0.1c0.18,0.11 0.37,0.22 0.56,0.32l0.02 0.01 0.02 0.02 0.27 0.14 0 0 0.27 0.13 0.03 0.02 0.06 0.03 0.18 0.09 0.07 0.03 0.02 0.01 0.28 0.13 0.01 0 0.28 0.12 0.04 0.02 0.05 0.02 0.2 0.08 0.07 0.03 0.02 0.01 0.2 0.07 0.09 0.04 0.02 0 0.08 0.04 0.2 0.07 0.05 0.02 0.05 0.01 0.28 0.1 0.02 0.01 0.3 0.1 0.02 0 0.34 0.11 0.05 0.01 0.29 0.09 0.01 0 0.01 0 0.31 0.09 0.02 0 0.09 0.02 0.21 0.06 0.06 0.01 0.04 0.01 0.31 0.08 0.01 0 0.32 0.07 0.03 0.01 0.01 0 0.28 0.06 0.07 0.01 0.04 0.01c-0.12,0.02 -1.48,1.86 -0.1,3.48l0.25 0.22c-2.55,-0.45 -4.95,-1.25 -6.97,-2.4l-0.01 -0.01 -0.3 -0.17z"/>
   <path class="fil0" d="M31.43 76.79l0 0 0 0.01 0.01 0 0 0.01 0 0 0 0 0.01 0.01 0 0 0.01 0.01 0 0 0 0 0 0.01 0.01 0 0 0.01 0.01 0 0 0.01 0 0 0.02 0.02 0.08 0.1 0.01 0.02 0.02 0.03 0.02 0.02 0.01 0.02 0.01 0.01 0.02 0.02 0.15 0.2 0.18 0.25 0.19 0.28 0.18 0.31 0.18 0.28 0.02 0.04 0.01 0.03 0.01 0.01 0.02 0.03 0.15 0.29 0.2 0.38 0.18 0.4 0.01 0.01 0 0 0 0.01 0 0 0 0.01 0.01 0 0 0.01 0 0 0 0.01 0.01 0 0 0.01 0 0 0 0.01 0 0 0.01 0.01 0 0.01 0 0 0 0.01 0.01 0 0 0.01 0 0 0 0.01 0.01 0 0 0.01 0 0 0 0.01 0 0.01 0.01 0 0 0 0 0.01 0 0.01 0.01 0 0 0 0 0.01 0 0.01 0.01 0.01 0 0 0 0 0 0.01 0 0.01 0 0c0.05,0.1 0.09,0.21 0.13,0.33l0.01 0.02 0.02 0.03 0 0.02c-0.13,-0.34 -0.42,-1.04 -1.01,-1.77l0 0c-0.09,-0.21 -0.18,-0.41 -0.29,-0.62l-0.01 -0.02 -0.01 -0.02c-0.06,-0.1 -0.11,-0.2 -0.18,-0.3l-0.01 -0.03 -0.01 -0.01 -0.02 -0.03c-0.12,-0.21 -0.26,-0.41 -0.41,-0.61l-0.03 -0.03 0 0 -0.13 -0.16 0 -0.01 -0.03 -0.03c0.06,0.07 0.12,0.14 0.18,0.21zm1.96 3.44l0.01 0.03 0 -0.01 0 -0.01 -0.01 -0.01 0 -0.01zm-2.14 -3.64l0 -0.01 -0.04 -0.05 -0.01 -0.01 -0.01 -0.01 -0.02 -0.02 -0.03 -0.03 0 0 0 0 -0.02 -0.02 0 -0.02 -0.02 -0.01 -0.06 -0.07 0.02 0.03 0.02 0.02 0.01 0.01 0.01 0.01zm-0.06 -0.07l-0.01 -0.01 -0.01 -0.01 0.02 0.02zm-0.02 -0.02l-0.02 -0.03 0.02 0.03z"/>
   <path class="fil0" d="M4.73 90.3l-0.01 -0.01 -0.01 -0.01 -0.01 0 -0.02 -0.01 -0.01 -0.01 -0.01 0 -0.07 -0.05 -0.01 0 -0.06 -0.04 -0.01 -0.01 -0.01 -0.01 -0.01 0 -0.01 -0.01 -0.01 -0.01 -0.01 0 -0.01 -0.01 -0.01 0 -0.01 -0.01 -0.01 0 -0.01 -0.01 -0.01 -0.01 -0.01 0 -0.01 -0.01 -0.02 -0.01 -0.01 -0.01 -0.01 -0.01 -0.01 0 -0.01 -0.01 -0.01 -0.01 -0.01 0 -0.01 -0.01 -0.01 -0.01 -0.02 0 -0.21 -0.15 0.32 0.03 0.34 -0.17c0.15,-0.14 0.36,-0.18 0.49,-0.34 0.01,0 0.15,-0.17 0.23,-0.5 0.02,-0.1 0.09,-0.47 0.02,-0.98l-0.07 -0.39c-0.05,-0.22 0.01,-0.44 -0.05,-0.65 -0.03,-0.14 -0.03,-0.14 -0.2,-0.28l0.01 0 0 0.01 0.01 0 0.02 0.02 0.01 0 0.01 0.01 0.01 0 0 0 0.01 0.01 0.01 0 0 0.01 0.01 0 0.01 0.01 0.01 0 0 0.01 0.01 0 0.01 0.01 0 0 0.01 0.01 0.01 0 0.01 0.01 0 0 0.01 0 0.01 0.01 0.01 0 0 0.01 0.01 0 0.01 0.01 0 0 0.01 0.01 0.01 0 0.01 0.01 0 0 0.01 0 0.01 0.01 0.01 0 0 0.01 0.01 0 0.01 0.01 0 0 0.02 0.01 0.01 0.01 0 0 0.01 0 0.03 0.02 0.01 0.01 0.01 0 0.02 0.02 0.01 0 0 0 0.01 0.01 0.01 0 0.01 0.01 0 0 0.01 0.01 0.01 0 0.25 0.15 0.03 0.02 0.02 0.01 0.25 0.14 0.03 0.01 0.02 0.02 0.26 0.13 0.01 0.01 0.05 0.02 0.21 0.11 0.04 0.02 0.01 0 0.05 0.03 0.11 0.05 0.05 0.03 0.06 0.02 0.09 0.05 0.02 0 0.05 0.03 0.06 0.02 0.05 0.03 0.06 0.02 0.01 0.01 0.04 0.02 0.06 0.02 0.05 0.02 0.06 0.03 0.05 0.02 0.11 0.05 0.06 0.02 0.06 0.02 0.05 0.03 0.06 0.02 0.11 0.05 0.06 0.02 0.05 0.02 0.06 0.02 0.17 0.07 0.06 0.02 0.06 0.02 0.23 0.08 0.06 0.02 0.06 0.02 0.06 0.02 0.11 0.04 -0.17 -0.03c-0.06,0.02 -0.7,0.86 -0.66,1.93 0.01,0.18 0.03,0.66 0.81,1.65l0.35 0.28 -0.24 -0.07 -0.02 0 -0.06 -0.02 -0.31 -0.1 -0.01 0 -0.35 -0.11 0 0 -0.03 -0.01zm-0.69 -0.25l0 0 -0.35 -0.14 -0.03 -0.01 -0.29 -0.12 -0.03 -0.01 -0.05 -0.02 -0.28 -0.12 -0.01 0 0 -0.01 -0.01 0c-0.21,-0.09 -0.42,-0.19 -0.63,-0.29l-0.02 -0.02 -0.05 -0.02 -0.27 -0.13 -0.01 -0.01 0 0 -0.02 -0.01 -0.3 -0.16 -0.02 -0.01 -0.26 -0.14 -0.01 -0.01 -0.02 -0.01 -0.02 -0.01 -0.29 -0.17z"/>
   <path class="fil0" d="M24.77 90.04c-0.16,1.36 -3.9,2.29 -4.7,1.16 -0.42,-0.6 0.5,-1.33 0.65,-1.41 0.48,-0.28 2.32,-0.77 2.92,-0.67 1.13,0.18 1.15,0.75 1.13,0.92z"/>
   <path class="fil0" d="M23.8 90.32c-0.07,0.35 -1.4,0.88 -1.41,0.88 -0.01,0 -1.18,0.02 -1.43,-0.31l-0.06 -0.17c0.04,-0.36 1.24,-0.96 1.29,-0.98 0.16,-0.04 1.43,0.05 1.54,0.23l0.07 0.35z"/>
   <path class="fil1" d="M29.31 83.99c-0.64,0.63 -1.44,1.22 -2.4,1.75 -2.64,1.47 -6,2.25 -9.4,2.33 -1.7,0.03 -3.41,-0.1 -5.05,-0.41 -2.14,-0.41 -4.15,-1.12 -5.83,-2.13l-0.15 -0.09c-0.36,-0.23 -0.71,-0.46 -1.02,-0.71 -1.79,-1.39 -2.72,-3.03 -2.81,-4.68 -0.09,-1.57 0.6,-3.15 2.04,-4.54 0.64,-0.62 1.43,-1.2 2.37,-1.72 1.28,-0.72 2.73,-1.27 4.28,-1.65 5.33,-1.34 11.74,-0.7 15.99,1.85 2.04,1.23 3.3,2.73 3.78,4.29 0.29,0.96 0.29,1.93 0,2.89 -0.29,0.98 -0.89,1.94 -1.8,2.82zm3.22 -5.1c-0.53,-1.72 -1.91,-3.37 -4.16,-4.72 -4.67,-2.81 -11.73,-3.51 -17.6,-2.04 -1.69,0.42 -3.3,1.03 -4.71,1.81 -1.03,0.58 -1.9,1.22 -2.61,1.9 -1.58,1.53 -2.33,3.27 -2.24,5 0.1,1.82 1.13,3.62 3.1,5.15 0.34,0.27 0.72,0.53 1.12,0.78l0.17 0.1c1.84,1.11 4.05,1.89 6.41,2.34 1.8,0.34 3.68,0.49 5.56,0.44 3.73,-0.08 7.44,-0.93 10.34,-2.55 1.05,-0.59 1.93,-1.23 2.64,-1.93 1,-0.97 1.66,-2.02 1.98,-3.11 0.32,-1.05 0.32,-2.12 0,-3.17z"/>
   <path class="fil0" d="M11.09 41.06c0.01,-0.32 0,-0.54 -0.11,-0.95 -0.05,-0.17 -0.18,-0.49 -0.33,-0.67 0.23,0.22 0.62,0.45 1.15,0.68 0.58,0.26 1.19,0.42 1.53,0.51 0.18,0.05 0.44,0.11 0.63,0.14 0.39,0.07 0.91,0.14 1.3,0.19 0.26,0.03 0.99,0.08 1.41,0.08 0.89,0 1.35,-0.03 2.07,-0.12 0.84,-0.1 1.45,-0.26 1.86,-0.36 0.03,-0.01 0.75,-0.19 1.45,-0.51 0.63,-0.3 0.92,-0.53 1.04,-0.64 -0.02,0.02 -0.48,0.58 -0.43,1.61 0.04,0.92 -0.55,1.84 -1.78,2.52 -2.31,1.29 -5.97,1.25 -8.18,-0.08 -1.11,-0.67 -1.65,-1.54 -1.61,-2.4z"/>
   <path class="fil1" d="M22.56 41.75c-0.05,-0.6 -0.02,-0.93 -0.01,-0.99 0.07,-0.64 0.08,-0.68 0.01,-0.7l-0.14 0.07c-0.8,0.37 -1.49,0.65 -1.5,0.65 -1.38,0.49 -2.88,0.6 -4.19,1.34 -1.08,0.62 -1.3,1.18 -1.68,2.2 -0.87,-0.17 -1.68,-0.45 -2.35,-0.86 -0.25,-0.15 -0.48,-0.32 -0.67,-0.49 -0.32,-1.87 -0.93,-2.84 -1.3,-3.41l-0.04 -0.07 -0.01 0 -0.02 -0.03 -0.01 -0.02 0.04 0.04 0.12 0.09 0.15 0.11 0.13 0.08 0.27 0.15c0.13,0.07 0.31,0.15 0.44,0.21l0.42 0.17c0.17,0.06 0.39,0.14 0.56,0.19l0.55 0.15c0.19,0.04 0.44,0.1 0.63,0.14l0.64 0.11c0.2,0.02 0.48,0.06 0.68,0.08l0.69 0.06c0.21,0 0.49,0.02 0.7,0.02l0.7 -0.01c0.21,-0.01 0.49,-0.02 0.7,-0.04l0.67 -0.07c0.2,-0.03 0.47,-0.06 0.67,-0.1l0.61 -0.11c0.19,-0.05 0.44,-0.11 0.63,-0.16l0.49 -0.15c0.17,-0.06 0.39,-0.14 0.55,-0.2l0.36 -0.15 0.44 -0.23 0.2 -0.12 0.24 -0.16 0.08 -0.06 0.08 -0.07 -0.01 0.01 -0.02 0.03 -0.05 0.06 -0.06 0.11 -0.06 0.11 -0.06 0.16 -0.05 0.14 -0.06 0.2 -0.03 0.16 -0.03 0.22 -0.01 0.18 0.01 0.23c0.01,0.25 -0.02,0.49 -0.1,0.73z"/>
   <path class="fil2" d="M24.4 64.08l-0.86 0.68c3.48,2.1 3.36,5.45 -0.27,7.47 -3.64,2.03 -9.41,1.97 -12.9,-0.13 -2.6,-1.56 -3.2,-3.82 -1.82,-5.71 0.47,-0.64 1.16,-1.24 2.09,-1.76 1.99,-1.11 4.62,-1.59 7.16,-1.46l0.11 -0.89c-2.88,-0.15 -5.85,0.4 -8.1,1.65 -1.05,0.59 -1.84,1.27 -2.37,1.99 -1.55,2.14 -0.88,4.7 2.07,6.47 3.94,2.37 10.47,2.44 14.59,0.14 4.11,-2.29 4.24,-6.07 0.3,-8.45z"/>
   <path class="fil0" d="M7.83 68.31c0.14,-0.76 2.71,-15.27 3.26,-27.25 -0.04,0.86 0.5,1.73 1.61,2.4 2.21,1.33 5.87,1.37 8.18,0.08 1.23,-0.68 1.82,-1.6 1.78,-2.52 0.61,11.99 3.27,26.48 3.41,27.24 0.07,1.44 -0.87,2.89 -2.8,3.97 -3.64,2.03 -9.41,1.97 -12.9,-0.13 -1.76,-1.05 -2.6,-2.43 -2.54,-3.79z"/>
   <path class="fil3" d="M18.38 53.13c0,0 0.34,-8.79 0.68,-9.81 0.35,-1.03 0.85,2.24 1.71,10.53 0.86,8.29 2.14,18.33 2.14,18.33 0,0 -1.39,1.18 -4.91,1.36 0.18,-1.7 0.38,-20.41 0.38,-20.41z"/>
   <path class="fil1" d="M15 44.89c-1.14,28.48 -1.14,28.48 -1.12,28.53 -1.29,-0.27 -2.5,-0.71 -3.51,-1.32 -0.3,-0.18 -0.58,-0.37 -0.82,-0.57 0.57,-1.73 2.48,-21.69 2.48,-28.56 0.19,0.17 0.42,0.34 0.67,0.49 0.67,0.41 1.48,0.69 2.35,0.86 -0.02,0.17 -0.04,0.4 -0.05,0.57z"/>
   <path class="fil0" d="M27.7 32.36l-0.02 -0.29c-0.03,-0.24 -0.03,-0.24 -0.14,-0.72l-0.12 -0.35c-0.07,-0.18 -0.19,-0.42 -0.28,-0.6l-0.24 -0.38c-0.11,-0.16 -0.28,-0.37 -0.4,-0.52l-0.36 -0.39c-0.61,-0.59 -1.31,-1.03 -1.54,-1.18 -0.2,-0.11 -0.47,-0.26 -0.67,-0.37l-0.65 -0.3c-0.22,-0.09 -0.51,-0.2 -0.72,-0.29l-0.72 -0.24c-0.23,-0.07 -0.54,-0.14 -0.77,-0.21l-0.77 -0.17c-0.23,-0.04 -0.55,-0.09 -0.79,-0.13l-0.81 -0.1c-0.24,-0.03 -0.57,-0.05 -0.81,-0.07l-0.82 -0.02c-0.25,0 -0.57,0.01 -0.82,0.01l-0.82 0.04c-0.24,0.02 -0.57,0.06 -0.81,0.09l-0.8 0.12c-0.24,0.04 -0.56,0.11 -0.79,0.15l-0.77 0.19c-0.23,0.07 -0.53,0.17 -0.76,0.24l-0.72 0.26c-0.21,0.09 -0.5,0.22 -0.71,0.31l-0.65 0.34c-0.2,0.11 -0.45,0.27 -0.65,0.39l-0.52 0.38c-0.17,0.13 -0.38,0.31 -0.54,0.45l-0.4 0.4c-0.13,0.15 -0.3,0.37 -0.43,0.53l-0.26 0.4c-0.1,0.19 -0.22,0.43 -0.3,0.62l-0.14 0.39c-0.08,0.28 -0.09,0.32 -0.16,0.75l-0.02 0.35c-0.01,0.25 -0.01,0.28 0.02,0.64l0.03 0.28 0.04 0.24 0.01 0.11 0.02 0.17 0.02 0.17 0.03 0.24 0.03 0.22 0.06 0.31 0.06 0.28 0.12 0.42 0.12 0.33c0.07,0.17 0.17,0.39 0.25,0.56l0.21 0.36c0.15,0.23 0.37,0.53 0.54,0.75l0.33 0.37c0.51,0.5 0.64,0.6 1.21,1.02l0.51 0.33c0.21,0.12 0.48,0.27 0.69,0.38l0.61 0.29c0.21,0.09 0.49,0.19 0.71,0.28l0.66 0.22c0.21,0.06 0.51,0.13 0.72,0.19l0.71 0.16c0.22,0.04 0.51,0.09 0.73,0.12l0.73 0.09c0.23,0.03 0.52,0.05 0.74,0.06l0.75 0.03c0.22,0 0.52,-0.01 0.74,-0.01l0.74 -0.04c0.23,-0.02 0.53,-0.06 0.75,-0.08l0.73 -0.11c0.22,-0.04 0.52,-0.1 0.74,-0.15l0.7 -0.17c0.22,-0.06 0.52,-0.16 0.74,-0.23l0.66 -0.24c0.22,-0.09 0.5,-0.22 0.72,-0.32l0.6 -0.31c0.75,-0.45 0.91,-0.57 1.48,-1.01l0.42 -0.38c0.25,-0.25 0.25,-0.26 0.67,-0.76l0.27 -0.4c0.1,-0.16 0.23,-0.4 0.33,-0.57l0.17 -0.38 0.15 -0.43 0.1 -0.34 0.07 -0.32 0.06 -0.29 0.03 -0.24 0.03 -0.23 0.02 -0.18 0.02 -0.18 0.02 -0.13 0.01 -0.13 0 -0.02 0.02 -0.11c0.06,-0.41 0.06,-0.65 0.05,-0.94z"/>
   <path class="fil1" d="M23.78 39.4c-0.78,0.41 -0.81,0.42 -1.32,0.63l-0.66 0.24c-0.22,0.07 -0.52,0.17 -0.74,0.23l-0.7 0.17c-0.22,0.05 -0.52,0.11 -0.74,0.15l-0.73 0.11c-0.22,0.02 -0.52,0.06 -0.75,0.08l-0.74 0.04c-0.22,0 -0.52,0.01 -0.74,0.01l-0.75 -0.03c-0.22,-0.01 -0.51,-0.03 -0.74,-0.06l-0.73 -0.09c-0.22,-0.03 -0.51,-0.08 -0.73,-0.12l-0.71 -0.16c-0.21,-0.06 -0.51,-0.13 -0.72,-0.19l-0.66 -0.22c-0.22,-0.09 -0.5,-0.19 -0.71,-0.28l-0.61 -0.29c-0.21,-0.11 -0.48,-0.26 -0.69,-0.38l-0.51 -0.33c-0.57,-0.42 -0.7,-0.52 -1.21,-1.02l-0.11 -0.11 0.02 0.02c0.57,0.55 1.05,0.41 1.01,-0.3 -0.02,-0.48 -0.02,-0.48 0.01,-0.5 0.03,-0.03 2.96,0.74 2.99,1.65 0.06,2.48 7.99,3.51 12.87,0.18l-0.51 0.34 -0.39 0.23z"/>
   <path class="fil4" d="M27.7 32.36l-0.02 -0.29c-0.03,-0.24 -0.03,-0.24 -0.14,-0.72l-0.12 -0.35c-0.07,-0.18 -0.19,-0.42 -0.28,-0.6l-0.24 -0.38c-0.11,-0.16 -0.28,-0.37 -0.4,-0.52l-0.36 -0.39c-0.61,-0.59 -1.31,-1.03 -1.54,-1.18 -0.2,-0.11 -0.47,-0.26 -0.67,-0.37l-0.65 -0.3c-0.22,-0.09 -0.51,-0.2 -0.72,-0.29l-0.72 -0.24c-0.23,-0.07 -0.54,-0.14 -0.77,-0.21l-0.77 -0.17c-0.23,-0.04 -0.55,-0.09 -0.79,-0.13l-0.81 -0.1c-0.24,-0.03 -0.57,-0.05 -0.81,-0.07l-0.82 -0.02c-0.25,0 -0.57,0.01 -0.82,0.01l-0.82 0.04c-0.24,0.02 -0.57,0.06 -0.81,0.09l-0.8 0.12c-0.24,0.04 -0.56,0.11 -0.79,0.15l-0.77 0.19 -0.71 0.22 -0.72 0.26c-4.26,1.72 -5.8,4.87 -3.75,7.66 4.02,5.49 19.09,4.72 20.56,-2.6 0.04,0.11 0.09,0.22 0.05,0.75 0.02,-0.18 0.02,-0.21 0.01,-0.56z"/>
   <path class="fil5" d="M26.42 31.25c0.48,1.75 -0.49,3.61 -2.86,4.93 -3.87,2.16 -10,2.1 -13.7,-0.14 -2.18,-1.3 -3.03,-3.07 -2.58,-4.74 0.75,0.07 1.69,0 2.19,-1.51l0 0.05 0.01 0.02c-0.15,1.17 0.53,2.37 2.04,3.27 1.41,0.85 3.27,1.29 5.16,1.31l0.06 -0.01c3.66,0.17 6.07,-1.76 6.07,-1.76 1.18,-0.94 1.63,-2.09 1.32,-3.19 0.49,1.76 1.49,1.84 2.29,1.77z"/>
   <path class="fil1" d="M26.42 31.25c0.48,1.75 -0.49,3.61 -2.86,4.93 -3.87,2.16 -10,2.1 -13.7,-0.14 -2.18,-1.3 -3.03,-3.07 -2.58,-4.74 0.41,0.04 0.87,0.04 1.29,-0.22 -0.51,2.48 1.8,3.09 2.15,2.83 0.26,-0.19 0.25,-0.43 0.21,-1.17 0.18,0.13 0.38,0.27 0.59,0.39 0.79,0.48 1.74,0.83 2.75,1.04 -1.8,2.39 2.62,2.88 4.6,2.66 1.07,-0.12 3.74,-0.58 5.32,-2.4 0.78,-0.9 0.78,-0.9 -0.05,-3.65 0.12,-0.43 0.11,-0.87 -0.01,-1.3 0.49,1.76 1.49,1.84 2.29,1.77z"/>
   <path class="fil6" d="M16.88 3.73c0,0 -8.45,12.97 -8.45,18.81 0,5.82 2.25,10.97 8.41,10.97 6.17,0 8.59,-4.86 8.59,-11.02 0,-6.16 -8.55,-18.76 -8.55,-18.76z"/>
   <path class="fil7" d="M16.84 33.51c-0.15,0 -0.44,-0.01 -0.82,-0.05l-0.41 -0.05 -0.41 -0.07 -0.42 -0.09 -0.42 -0.11 -0.42 -0.14 -0.44 -0.18 -0.42 -0.2c-0.14,-0.08 -0.33,-0.17 -0.47,-0.26l-0.44 -0.28c-0.4,-0.31 -0.77,-0.59 -1.24,-1.12l-0.37 -0.45c-0.19,-0.28 -0.44,-0.65 -0.61,-0.94l-0.29 -0.56c-0.11,-0.26 -0.26,-0.6 -0.36,-0.86l-0.21 -0.64c-0.07,-0.25 -0.16,-0.57 -0.22,-0.82l-0.14 -0.69c-0.04,-0.24 -0.09,-0.56 -0.13,-0.8l-0.08 -0.71c-0.02,-0.24 -0.04,-0.55 -0.06,-0.79l-0.02 -0.72 -0.01 -0.44 0.04 -0.78c0.05,-0.39 0.12,-0.91 0.19,-1.3l0.22 -0.91c0.1,-0.35 0.24,-0.81 0.35,-1.15l0.35 -1c0.13,-0.33 0.3,-0.77 0.44,-1.11l0.45 -1.03c0.15,-0.33 0.35,-0.76 0.5,-1.09l0.51 -1.04c0.16,-0.32 0.38,-0.75 0.54,-1.06l0.54 -1.02c0.17,-0.31 0.39,-0.71 0.56,-1.02l0.54 -0.96c0.17,-0.29 0.38,-0.66 0.55,-0.94l0.52 -0.89c0.15,-0.25 0.35,-0.59 0.5,-0.84l0.47 -0.78c0.13,-0.21 0.31,-0.49 0.44,-0.71l0.39 -0.63c0.11,-0.16 0.27,-0.37 0.35,-0.55 -4.96,11.98 -8.78,26.03 0.17,29.78l-0.21 0z"/>
   <path class="fil3" d="M17.19 7.02c0,0 -0.32,14.52 0.7,17.66 1.02,3.14 4.57,2.22 4.86,0 0.28,-2.23 -0.54,-5.4 -1.79,-9.05 -1.25,-3.66 -4.02,-11.55 -4.02,-11.55l0.25 2.94z"/>
   <path class="fil7" d="M20.43 3.51c0,1.95 -1.57,3.52 -3.51,3.52 -1.94,0 -3.51,-1.57 -3.51,-3.52 0,-1.93 1.57,-3.51 3.51,-3.51 1.94,0 3.51,1.58 3.51,3.51z"/>
   <path class="fil8" d="M20.2 3.15c0,1.61 -1.31,2.92 -2.92,2.92 -1.61,0 -2.92,-1.31 -2.92,-2.92 0,-1.61 1.31,-2.92 2.92,-2.92 1.61,0 2.92,1.31 2.92,2.92z"/>
   <path class="fil9" d="M18.94 2.64c0,0.53 -0.43,0.95 -0.95,0.95 -0.53,0 -0.95,-0.42 -0.95,-0.95 0,-0.52 0.42,-0.94 0.95,-0.94 0.52,0 0.95,0.42 0.95,0.94z"/>
   <path class="fil0" d="M8.6 64.74l-0.22 0.18 0 0 0.22 -0.18zm-0.22 0.18l-0.23 0.21 0.23 -0.21 0 0zm17.12 -0.05l0.26 0.23 -0.26 -0.23 0 0zm2.5 4.74c-0.03,-0.91 -0.27,-1.59 -0.32,-1.72 -0.13,-0.34 -0.21,-0.55 -0.38,-0.85 -0.22,-0.4 -0.32,-0.55 -0.61,-0.94 -0.17,-0.22 -0.41,-0.5 -0.6,-0.69l-0.33 -0.31c2.48,2.34 1.9,5.45 -1.66,7.43 -4.12,2.3 -10.65,2.23 -14.59,-0.14 -3.32,-2 -3.75,-5 -1.36,-7.26l-0.3 0.27c-0.17,0.17 -0.38,0.4 -0.52,0.59 -0.24,0.32 -0.38,0.49 -0.62,0.89 -0.22,0.38 -0.39,0.83 -0.39,0.83 -0.07,0.17 -0.18,0.47 -0.25,0.76 -0.03,0.16 -0.13,0.58 -0.15,0.97 -0.03,0.6 -0.01,1.16 0.2,1.9 0.36,1.2 1.33,2.36 2.9,3.3 4.21,2.53 11.17,2.61 15.55,0.16 1.77,-0.98 2.85,-2.23 3.23,-3.53 0.11,-0.36 0.23,-0.94 0.2,-1.66z"/>
   <path class="fil1" d="M9.02 74.64c-0.8,-0.48 -1.45,-1.02 -1.93,-1.58l0.02 0.01c0.16,0.12 1.33,0.46 1.08,-0.77 -0.08,-0.46 -0.29,-0.88 -0.43,-1.33 0.45,0.51 1.03,0.99 1.75,1.42 1.27,0.77 2.82,1.29 4.47,1.58 -1.86,1.07 -0.13,2.23 0.67,2.46l0.12 0.03 0.1 0.02c-2.16,-0.24 -4.21,-0.85 -5.85,-1.84z"/>
   <path class="fil3" d="M22.61 74.29c0,0.01 -0.35,0.7 -2.1,1.06 -1.13,0.23 -2.04,-0.02 -2.12,-0.18l-0.01 -0.15c0.14,-0.36 3.87,-1.47 4.22,-0.88l0.01 0.15z"/>
   <path class="fil0" d="M6.64 67.96l0 0 0 0 0 0zm0 0.06l0 -0.03 0 0.03 0 0zm20.62 -0.06l0 0 0 -0.05 0 0.05zm4.59 5.5c-0.15,-0.18 -0.35,-0.43 -0.5,-0.61l-0.25 -0.3c-0.15,-0.17 -0.35,-0.41 -0.49,-0.59 -0.15,-0.19 -0.35,-0.43 -0.5,-0.6l-0.25 -0.31c-0.15,-0.18 -0.34,-0.42 -0.49,-0.6 -0.15,-0.18 -0.35,-0.42 -0.5,-0.6l-0.25 -0.3c-0.14,-0.18 -0.34,-0.42 -0.49,-0.6l-0.24 -0.28c0.05,0.26 0.1,0.58 0.11,0.94 0.03,0.65 -0.07,1.2 -0.17,1.56l0 0.01 -0.03 0.09 0 0.02 -0.02 0.06 -0.02 0.06 -0.02 0.06 -0.02 0.06 -0.03 0.06 -0.02 0.06 -0.02 0.06 -0.03 0.06 -0.03 0.06 -0.02 0.06 -0.03 0.06 -0.03 0.06 -0.03 0.06 -0.03 0.06 -0.04 0.06 -0.03 0.05 -0.04 0.06 -0.03 0.06 -0.04 0.06 -0.04 0.06 -0.04 0.05 -0.03 0.06 -0.05 0.06 -0.04 0.06 -0.04 0.06 -0.04 0.05 -0.05 0.06 -0.04 0.06 -0.05 0.06 -0.05 0.05 -0.05 0.06 -0.05 0.05 -0.05 0.06 -0.05 0.05 -0.06 0.06 -0.05 0.05 -0.06 0.06 -0.05 0.05 -0.06 0.06 -0.05 0.05 -0.07 0.06 -0.05 0.05 -0.07 0.05 -0.05 0.05 -0.08 0.06 -0.05 0.05 -0.08 0.06 -0.05 0.04 -0.08 0.06 -0.06 0.04 -0.07 0.05 -0.07 0.05 -0.08 0.06 -0.06 0.04 -0.09 0.06 -0.06 0.04 -0.07 0.05 -0.08 0.05 -0.07 0.04 -0.08 0.05 -0.33 0.19c-4.38,2.45 -11.34,2.37 -15.55,-0.16l-0.15 -0.09 -0.05 -0.03 -0.1 -0.06 -0.04 -0.03 -0.09 -0.06 -0.06 -0.04 -0.08 -0.06 -0.06 -0.04 -0.08 -0.05 -0.05 -0.05 -0.08 -0.05 -0.05 -0.05 -0.07 -0.05 -0.06 -0.04 -0.06 -0.06 -0.06 -0.04 -0.06 -0.06 -0.06 -0.04 -0.06 -0.06 -0.05 -0.04 -0.06 -0.06 -0.05 -0.05 -0.06 -0.05 -0.05 -0.05 -0.05 -0.06 -0.05 -0.04 -0.05 -0.06 -0.05 -0.05 -0.05 -0.06 -0.04 -0.05 -0.05 -0.05 -0.04 -0.05 -0.05 -0.06 -0.04 -0.05 -0.04 -0.06 -0.05 -0.05 -0.04 -0.06 -0.03 -0.05 -0.05 -0.06 -0.03 -0.05 -0.04 -0.06 -0.03 -0.05 -0.04 -0.06 -0.03 -0.05 -0.04 -0.06 -0.03 -0.05 -0.03 -0.06 -0.03 -0.05 -0.03 -0.06 -0.03 -0.05 -0.03 -0.07 -0.02 -0.05 -0.03 -0.07 -0.02 -0.04 -0.04 -0.08 -0.01 -0.03 -0.05 -0.12 0 -0.01 -0.04 -0.1 -0.01 -0.04 -0.02 -0.07 0 0 -0.07 -0.26c-0.15,-0.61 -0.16,-1.11 -0.13,-1.64 0.01,-0.25 0.06,-0.52 0.1,-0.71l-3.93 4.81c-2.84,3.48 -1.87,7.75 3,10.68 6.3,3.79 16.73,3.9 23.29,0.24 5.26,-2.94 6.44,-7.4 3.47,-11z"/>
   <path class="fil0" d="M5.33 85.38c-0.42,-0.26 -0.98,-0.64 -1.38,-0.94 -0.61,-0.48 -1.06,-0.93 -1.17,-1.04 -0.13,-0.15 -0.31,-0.33 -0.44,-0.48 -0.19,-0.23 -0.44,-0.54 -0.6,-0.79 -0.26,-0.38 -0.52,-0.77 -0.85,-1.58 0,0 -0.24,-0.62 -0.35,-1.17 -0.04,-0.26 -0.09,-0.6 -0.11,-0.86 -0.02,-0.17 -0.02,-0.39 -0.02,-0.56 0.01,-0.17 0.02,-0.39 0.04,-0.56 0.03,-0.27 0.08,-0.62 0.14,-0.87 0.04,-0.18 0.11,-0.42 0.17,-0.6 0.09,-0.26 0.24,-0.61 0.35,-0.86 -1.5,3.14 -0.19,6.64 3.98,9.15 6.3,3.79 16.73,3.9 23.29,0.24 4.54,-2.53 6.05,-6.2 4.46,-9.48 0.11,0.26 0.26,0.62 0.36,0.89 0.06,0.17 0.13,0.42 0.17,0.6 0.1,0.47 0.2,0.99 0.17,1.87 -0.07,1.58 -0.77,2.85 -0.98,3.21 -0.38,0.63 -1.06,1.71 -2.75,2.99 -0.77,0.59 -1.66,1.08 -1.67,1.08 -0.27,0.14 -0.62,0.34 -0.9,0.47 -0.45,0.2 -1.06,0.46 -1.52,0.65 -5.29,2.01 -12.16,2.01 -17.44,0.05 -0.56,-0.23 -1.31,-0.55 -1.86,-0.81 -0.33,-0.16 -0.77,-0.4 -1.09,-0.6z"/>
   <path class="fil1" d="M2.09 73.54l4.92 -6.03c-1.3,1.59 -1.4,3.44 -0.29,5.07l-5.06 8.55c-1.67,-2.44 -1.52,-5.21 0.43,-7.59z"/>
   <path class="fil1" d="M3.22 82.87l4.55 -9.13c0.3,0.26 0.64,0.52 1.01,0.76l-4.04 9.5c-0.56,-0.36 -1.07,-0.74 -1.52,-1.13z"/>
   <path class="fil1" d="M4.74 84l4.04 -9.5 0.24 0.14c0.72,0.44 1.52,0.8 2.37,1.09l-2.75 10.11c-1.27,-0.43 -2.47,-0.97 -3.55,-1.62l-0.35 -0.22z"/>
   <path class="fil1" d="M8.64 85.84l2.75 -10.11c0.62,0.21 1.26,0.38 1.93,0.51l-1.79 10.37c-1,-0.2 -1.96,-0.46 -2.89,-0.77z"/>
   <path class="fil3" d="M22.19 75.81c-0.29,0.1 -0.6,0.18 -0.91,0.26 -0.44,0.11 -0.89,0.2 -1.36,0.28l1.5 10.42c0.69,-0.11 1.37,-0.25 2.03,-0.41 0.47,-0.12 0.92,-0.25 1.37,-0.39l-2.63 -10.16z"/>
   <path class="fil10" d="M0 85.49l0 -1.98c0,2.44 1.57,4.89 4.73,6.79 6.5,3.91 17.26,4.02 24.03,0.24 3.49,-1.95 5.24,-4.54 5.23,-7.13l0.01 1.98c0,2.59 -1.75,5.19 -5.23,7.13 -6.78,3.78 -17.54,3.67 -24.03,-0.24 -3.16,-1.9 -4.73,-4.35 -4.74,-6.79z"/>
   <path class="fil1" d="M12.02 92.88l-0.26 -0.22c-1.38,-1.62 -0.02,-3.46 0.1,-3.48 -2.3,-0.45 -4.46,-1.22 -6.26,-2.31 -0.74,-0.44 -1.39,-0.92 -1.94,-1.42 0.13,0.17 0.59,3.31 -1.13,3.21l0.01 0.01 0.01 1.98c0.43,0.41 0.92,0.8 1.47,1.17 0.23,0.16 0.47,0.31 0.72,0.46 1.39,0.84 2.99,1.51 4.7,1.99 0.84,0.24 1.7,0.44 2.58,0.59l0 -1.98z"/>
   <path class="fil3" d="M23.64 89.12c-0.6,-0.1 -2.44,0.39 -2.92,0.67 -0.15,0.08 -1.07,0.81 -0.65,1.41 0.8,1.13 4.54,0.2 4.7,-1.16 0.02,-0.17 0,-0.74 -1.13,-0.92z"/>
  </g>
 </g>
</svg>
