<?xml version="1.0" encoding="UTF-8"?>
<!DOCTYPE svg PUBLIC "-//W3C//DTD SVG 1.0//EN" "http://www.w3.org/TR/2001/REC-SVG-20010904/DTD/svg10.dtd">
<!-- Creator: CorelDRAW 2018 (64 Bit Versão de avaliação) -->
<svg xmlns="http://www.w3.org/2000/svg" xml:space="preserve" width="37px" height="83px" version="1.0" style="shape-rendering:geometricPrecision; text-rendering:geometricPrecision; image-rendering:optimizeQuality; fill-rule:evenodd; clip-rule:evenodd"
viewBox="0 0 37 82.84"
 xmlns:xlink="http://www.w3.org/1999/xlink">
 <defs>
  <style type="text/css">
   <![CDATA[
    .fil1 {fill:#545456;fill-rule:nonzero}
    .fil7 {fill:#F1F5F5;fill-rule:nonzero}
    .fil8 {fill:#E8EDEC;fill-rule:nonzero}
    .fil3 {fill:#DDE3E4;fill-rule:nonzero}
    .fil11 {fill:#D4DADA;fill-rule:nonzero}
    .fil10 {fill:#CED4D5;fill-rule:nonzero}
    .fil9 {fill:#C9CFCF;fill-rule:nonzero}
    .fil5 {fill:#C1C7C9;fill-rule:nonzero}
    .fil4 {fill:#AEB4B5;fill-rule:nonzero}
    .fil0 {fill:#A5ABAD;fill-rule:nonzero}
    .fil12 {fill:#969A9B;fill-rule:nonzero}
    .fil13 {fill:#6F7678;fill-rule:nonzero}
    .fil2 {fill:#38393C;fill-rule:nonzero}
    .fil6 {fill:#2F3132;fill-rule:nonzero}
   ]]>
  </style>
 </defs>
 <g id="Camada_x0020_1">
  <metadata id="CorelCorpID_0Corel-Layer"/>
  <g id="_1659221330800">
   <path class="fil0" d="M36.77 69.1c-0.16,-0.73 -0.35,-1.24 -0.53,-1.65 0.34,-1.14 0.36,-2.33 0.06,-3.55l0.03 0.22c-0.05,-0.24 -0.11,-0.48 -0.18,-0.72l0.06 0.16 -0.09 -0.29 -0.15 -0.39 -0.14 -0.37 0.11 0.32c-0.15,-0.36 -0.31,-0.71 -0.53,-1.05 -0.55,-0.86 -1.09,-1.71 -1.64,-2.57 -0.21,-0.32 -0.42,-0.64 -0.62,-0.97 0.25,-0.78 0.33,-1.51 0.34,-2.04l0 -0.23 0.04 -0.38c0.17,-0.81 0.13,-1.63 -0.13,-2.43 1.53,-5.4 2.97,-14.03 0.64,-23.65 -3.91,-16.09 -14.75,-22.62 -14.75,-22.62 0,0 0.02,-1.34 -2.55,-4.23 -2.57,-2.89 -4.7,-2.65 -4.7,-2.65 0,0 -0.89,2.16 3.26,7.64 -0.21,-0.27 -0.51,-0.62 -0.89,-1.02l0.02 0.03 -0.28 -0.28 -0.27 -0.27c-0.35,-0.37 -0.7,-0.75 -1.09,-1.09 -0.58,-0.51 -1.22,-0.96 -1.9,-1.35 -0.67,-0.4 -1.41,-0.72 -2.2,-0.87 -0.8,-0.14 -1.63,-0.19 -2.46,0.23l-0.13 0.06 -0.01 0.17c-0.05,1.5 0.2,2.96 0.69,4.37 0.24,0.7 0.58,1.37 0.98,1.99 0.17,0.27 0.36,0.51 0.57,0.75 -0.77,0.46 -1.47,0.9 -1.91,1.24l-0.12 0.07 -0.15 0.15 -0.05 0.06 -0.19 0.21c-0.22,0.22 -0.44,0.49 -0.65,0.81 -0.76,1.15 -1.44,2.01 -2.04,2.67l0 0 0 0c-0.17,0.18 -0.33,0.35 -0.48,0.5l0 0c-0.16,0.17 -0.32,0.31 -0.48,0.44l-0.02 0.03 0 0c-1.14,0.99 -1.82,1.14 -2,1.41l-0.02 0.05c-0.21,0.5 -0.26,2.26 -0.18,3.08 0.09,0.81 1.05,3.12 1.05,3.12l2.47 -0.78 0 3.74 2.68 1.55 2.28 -1.73 0.4 -0.3 0.74 -0.56c1.8,1.57 2.93,2.5 3.87,3.27 0.22,0.18 0.44,0.35 0.64,0.52 1.06,1.26 1.6,2.29 1.8,3.15 0.34,1.5 -0.36,2.46 -1.22,3.16 -1.1,0.52 -2.08,0.97 -2.4,1.21 -0.03,0.03 -5.57,3.12 -5.65,3.26l0 0.01c-0.76,0.55 1.38,10.12 1.38,10.12l0.02 0.01c-1.72,1.81 -2.14,3.92 -1.23,5.88l-0.13 -0.32 -0.01 0.1c-0.04,0.34 -0.05,1.09 0.18,1.82 -0.74,1.18 -1.49,2.36 -2.24,3.54 -0.21,0.32 -0.35,0.65 -0.49,0.98l0.08 -0.24 -0.1 0.29c-0.08,0.18 -0.14,0.36 -0.2,0.54 -0.06,0.17 -0.11,0.33 -0.15,0.51l0.09 -0.27c-0.04,0.15 -0.09,0.31 -0.12,0.46l0.03 -0.19 -0.07 0.35 -0.03 0.26c-0.16,1 -0.1,1.98 0.18,2.93 -0.1,0.23 -0.19,0.46 -0.28,0.75 -0.13,0.4 -0.18,0.57 -0.28,1.07 -0.05,0.2 -0.1,0.47 -0.11,0.67 -0.04,0.33 -0.06,0.78 -0.08,1.11l0.01 2c0.01,2.24 1.35,4.47 4,6.29l0 0.02c0.23,0.15 0.46,0.3 0.71,0.45 0.76,0.46 1.59,0.85 2.45,1.2 0.28,0.12 0.58,0.21 0.87,0.31 0.45,0.16 0.89,0.34 1.37,0.48l0 -0.05c6.21,1.79 13.94,1.26 19.24,-1.7 3.47,-1.93 5.21,-4.52 5.2,-7.1l0 -2c-0.01,-0.69 -0.07,-1.25 -0.22,-1.88z"/>
   <path class="fil1" d="M26.36 70.15c0,0 1.11,-0.4 2.91,-1.48 1.8,-1.07 2.46,-2.1 2.46,-2.1l-2.05 0 -3.32 3.58z"/>
   <polygon class="fil2" points="29.31,60.82 29.11,60.66 29.11,60.66 "/>
   <path class="fil1" d="M28.63 68.42l-2.27 1.73 -2.69 -1.55 0 -3.74 -2.47 0.78c0,0 -0.96,-2.31 -1.04,-3.12 -0.09,-0.82 -0.04,-2.58 0.17,-3.08l0.03 -0.05c0.44,-0.8 2.8,-2.28 2.97,-2.38l0 0c-0.06,0.07 -0.56,0.64 -0.95,0.94l-0.03 0.03 0 0c-0.35,0.65 0.44,2.97 2.24,6.2 1.81,3.23 4.04,4.24 4.04,4.24z"/>
   <path class="fil0" d="M6.71 62.3l0.2 -3.97 4.7 3.27 21.25 -3.15 0.53 1.76c0,0 -7.63,8.14 -8.37,8.15 -0.73,0.01 -9.21,-0.17 -10.45,-0.29 -1.23,-0.11 -7.86,-5.77 -7.86,-5.77z"/>
   <path class="fil3" d="M3.14 71.08c0.02,-0.33 0.04,-0.78 0.08,-1.11 0.01,-0.2 0.06,-0.47 0.11,-0.67 0.1,-0.5 0.15,-0.67 0.28,-1.07 0.11,-0.36 0.23,-0.63 0.35,-0.92 0.17,-0.43 0.84,-1.92 2.15,-3.38 -2.99,3.36 -2.15,7.58 2.62,10.46 6,3.61 15.94,3.71 22.19,0.22 5.15,-2.87 6.2,-7.28 3.06,-10.76 0.45,0.5 0.85,1.02 1.19,1.55 0.58,0.89 0.89,1.58 0.97,1.77 0.18,0.44 0.44,1.05 0.63,1.93 0.15,0.63 0.21,1.19 0.22,1.88 0.01,2.59 -1.74,5.17 -5.21,7.1 -6.74,3.76 -17.46,3.66 -23.93,-0.24 -3.13,-1.89 -4.7,-4.32 -4.71,-6.76z"/>
   <path class="fil4" d="M31.38 61.76l-1.05 -0.19c-5.44,-3.27 -14.46,-3.36 -20.13,-0.2 -5.68,3.16 -5.87,8.39 -0.42,11.66 5.44,3.28 14.46,3.37 20.14,0.21 5.67,-3.17 5.86,-8.39 0.41,-11.67l1.05 0.19c6,3.61 5.8,9.36 -0.46,12.85 -6.25,3.49 -16.19,3.39 -22.19,-0.22 -6,-3.62 -5.79,-9.37 0.46,-12.86 6.26,-3.48 16.19,-3.38 22.19,0.23z"/>
   <path class="fil0" d="M9.77 73.03l-0.31 -0.19 -0.73 -0.51c-1.81,-1.37 -2.78,-2.98 -2.9,-4.62l-1.45 0.81c0.14,1.8 1.21,3.59 3.2,5.09l0.8 0.56 0.35 0.21c1.82,1.1 4.01,1.87 6.34,2.32l0.46 -1.56c-2.12,-0.41 -4.1,-1.11 -5.76,-2.11z"/>
   <path class="fil3" d="M4.67 61.86c1.09,-1.71 2.17,-3.43 3.26,-5.14 -1.65,2.6 -0.73,5.62 2.8,7.74 4.93,2.97 13.09,3.05 18.23,0.19 3.82,-2.13 4.9,-5.3 3.16,-8l0.17 0.26c0.22,0.34 0.43,0.68 0.65,1.02 0.28,0.43 0.55,0.86 0.83,1.28 0.55,0.86 1.09,1.71 1.64,2.57 2.21,3.43 0.85,7.45 -4.01,10.17 -6.54,3.64 -16.91,3.53 -23.18,-0.24 -4.48,-2.7 -5.65,-6.54 -3.55,-9.85z"/>
   <path class="fil5" d="M7.2 59.05c-0.07,-0.15 -0.13,-0.3 -0.19,-0.45l-0.06 -0.16c-0.28,-0.76 -0.26,-1.58 -0.22,-1.94l-0.02 -0.17c0.05,0.15 0.12,0.3 0.19,0.45 0.3,0.54 -0.02,1.59 0.3,2.27z"/>
   <path class="fil5" d="M33.49 56.2c-0.02,0.69 -0.15,1.73 -0.63,2.77 0.31,-0.65 0.02,-1.65 0.26,-2.2 0.07,-0.16 0.16,-0.38 0.22,-0.55 0.05,-0.13 0.19,-0.62 0.18,-1 -0.03,0.05 -0.03,0.25 -0.03,0.66 0.01,0.17 0,0.27 0,0.32z"/>
   <path class="fil5" d="M32.36 61.04l-0.08 -0.19 -0.02 -0.09 -0.01 -0.04c-0.01,-0.12 -0.01,-0.26 0.01,-0.4l0.01 -0.07 0.03 -0.1 0.01 -0.05 0.05 -0.13c0.07,-0.14 0.19,-0.37 0.41,-0.8l0.01 -0.04 0.02 -0.02 0.01 -0.02 0.05 -0.12 -0.17 0.34c-0.09,0.16 -0.19,0.32 -0.3,0.48l-0.11 0.15 -0.25 0.32 -0.15 0.18 -0.27 0.29 -0.17 0.17 -0.32 0.29c-0.53,0.47 -1.16,0.91 -1.88,1.31 -2.23,1.25 -5.02,1.95 -7.88,2.12 -0.16,0.01 -0.31,0.02 -0.47,0.03l-0.27 0.01c-0.14,0 -0.29,0 -0.44,0l-0.27 0c-0.15,0 -0.3,0 -0.45,0l-0.25 -0.01c-0.18,-0.01 -0.35,-0.01 -0.52,-0.02l-0.14 -0.01c-0.32,-0.02 -0.64,-0.05 -0.97,-0.08l-0.24 -0.03c-0.3,-0.04 -0.61,-0.08 -0.9,-0.12l-0.17 -0.03c-0.29,-0.05 -0.59,-0.11 -0.88,-0.17l-0.23 -0.05c-0.28,-0.06 -0.56,-0.13 -0.83,-0.21l-0.25 -0.07c-0.24,-0.07 -0.49,-0.14 -0.72,-0.22l-0.1 -0.04 -0.16 -0.05c-0.27,-0.09 -0.54,-0.2 -0.8,-0.3l-0.08 -0.04 -0.12 -0.05c-0.23,-0.09 -0.45,-0.2 -0.67,-0.31l-0.21 -0.1 -0.02 -0.01c-0.27,-0.14 -0.53,-0.28 -0.78,-0.43 -0.16,-0.1 -0.32,-0.2 -0.47,-0.3l-0.06 -0.04 -0.07 -0.05 -0.31 -0.22 -0.01 -0.01 -0.13 -0.09 -0.32 -0.26 -0.08 -0.07 -0.36 -0.33 -0.09 -0.08 -0.24 -0.26 -0.1 -0.11 -0.22 -0.26 -0.08 -0.09c-0.19,-0.25 -0.36,-0.5 -0.5,-0.76l-0.18 -0.33 0.1 0.2 0.01 0.02c0.27,0.53 0.43,0.86 0.5,1.11l0.02 0.14 0 0.03 0 0.2 -0.06 0.24 -0.03 0.07 -0.01 0.02 -0.04 0.09 -0.08 0.13c0.08,0.17 0.17,0.34 0.28,0.5l-0.02 -0.01c0.16,0.25 0.34,0.5 0.55,0.75l0.03 0.04 0 0 0.23 0.26 0.05 0.05 0.03 0.04 0.08 0.08 0.15 0.14 0.09 0.09 0.08 0.07 0 0 0 0.01 0.04 0.03 0.06 0.05 0.1 0.08 0.06 0.06 0.06 0.05 0.1 0.08 0.05 0.04 0.07 0.05 0.09 0.07 0.06 0.05 0.1 0.07 0.19 0.13 0.07 0.05 0.06 0.04 0.06 0.04 0.05 0.03 0 0 0 0.01 0.35 0.21c0.15,0.1 0.31,0.19 0.47,0.28l0.02 0.01 0.04 0.02 0.03 0.01 0.02 0.01 0.04 0.02 0.04 0.02 0.04 0.03 0.11 0.05 0.09 0.05 0.06 0.03 0.05 0.02 0.08 0.04 0.05 0.02 0.05 0.02 0.08 0.04 0.08 0.04 0.06 0.03 0.06 0.03 0.03 0.01 0.05 0.02 0.12 0.05 0.08 0.03 0.03 0.02 0.04 0.01 0.1 0.04 0.07 0.03 0.03 0.01 0.05 0.03 0.07 0.02 0.13 0.05 0.01 0 0.06 0.03 0.03 0.01 0.08 0.03 0.08 0.03 0.01 0 0.01 0 0.11 0.04 0.08 0.03 0 0 0.02 0.01 0.01 0 0.06 0.02 0.04 0.01 0 0 0.01 0.01 0.14 0.04 0.04 0.01 0.02 0.01 0.06 0.02 0.06 0.02 0.1 0.03 0.16 0.05 0.11 0.03 0.07 0.02 0 0 0.05 0.01 0.06 0.02 0.09 0.02 0.13 0.04 0.06 0.01 0.08 0.02 0.11 0.03 0.05 0.01 0.04 0.01 0.05 0.01 0.15 0.04 0.14 0.03 0.07 0.02 0.08 0.02 0.02 0 0 0 0.08 0.01 0.07 0.02 0.08 0.02 0.03 0 0.02 0.01 0 0 0 0 0.07 0.01 0.15 0.03 0.07 0.01 0.02 0 0.01 0.01 0.15 0.02 0.23 0.04 0.08 0.01 0.02 0.01 0.01 0 0.04 0 0.04 0.01 0.1 0.02 0.18 0.02 0.21 0.03 0.1 0.01 0 0 0.02 0 0.08 0.01 0.09 0.01 0.03 0.01 0 0 0.02 0 0.14 0.02 0.07 0 0.11 0.01 0.07 0.01 0.03 0 0.12 0.01 0.08 0.01 0.19 0.01 0.11 0.01 0.07 0.01 0.01 0 0.06 0 0.16 0.01 0.06 0.01 0 -0.01 0.01 0 0.01 0 0.24 0.02 0.05 0 0.03 0 0.02 0 0.04 0 0.06 0 0.22 0.01 0.28 0 0.02 0 0 0 0.08 0 0 0 0.08 0.01 0.02 0 0.18 -0.01 0.37 0 0.13 0 -0.01 -0.01 0.07 0 0.06 0 0.1 -0.01 0.37 -0.01 0.17 -0.01 0 0 0.14 -0.01 0.07 -0.01 0.09 0c0.18,-0.02 0.36,-0.03 0.54,-0.05l0.03 0 -0.01 0 0.1 -0.02 0.22 -0.02c0.19,-0.02 0.38,-0.05 0.57,-0.08l0.13 -0.02 -0.01 0.01c0.75,-0.12 1.49,-0.28 2.21,-0.47l-0.01 0 0.08 -0.02c0.28,-0.08 0.55,-0.16 0.81,-0.25l0.09 -0.03 0.05 -0.02 -0.01 0.01 0.15 -0.06 0.38 -0.13 0.2 -0.08 0.1 -0.04 0.1 -0.04 0.02 -0.01 0.17 -0.07 0.22 -0.09 0.23 -0.11 0.09 -0.04 0.11 -0.05 0.05 -0.03 0 0 0.02 -0.01 0.06 -0.03c0.18,-0.09 0.36,-0.18 0.54,-0.28 0.21,-0.12 0.41,-0.24 0.61,-0.36l-0.01 0 0.02 -0.01 0.1 -0.07c0.15,-0.1 0.3,-0.2 0.44,-0.3l0.18 -0.14 0.31 -0.25 0.19 -0.15 0.26 -0.25 0.02 -0.01 0 0 0.03 -0.03 0.12 -0.13 0.21 -0.22 0.09 -0.09 0.08 -0.1 0.2 -0.25 0.09 -0.11 0.05 -0.07 0.18 -0.28 0.02 -0.03 0 0.01 0.04 -0.06 0.02 -0.04 0.02 -0.04 0.04 -0.07 0.2 -0.37 -0.07 -0.11 -0.02 -0.03 -0.02 -0.05z"/>
   <path class="fil5" d="M7.38 59.38l-0.18 -0.33 -0.04 -0.09c-0.07,-0.25 -0.08,-0.44 -0.03,-0.93 0.03,-0.4 0.06,-0.71 -0.05,-0.91l0.04 0.08c0.25,0.71 -0.04,1.48 0.26,2.18z"/>
   <path class="fil6" d="M7.08 57.12c0.09,0.21 0.09,0.38 0.05,0.91 -0.05,0.58 -0.03,0.77 0.07,1.02 -0.32,-0.68 0,-1.73 -0.3,-2.27l0.18 0.34z"/>
   <path class="fil5" d="M7.2 59.05c-0.32,-0.68 0,-1.73 -0.3,-2.27l0.18 0.34 0.03 0.07c0.18,0.61 -0.2,1.25 0.09,1.86z"/>
   <path class="fil5" d="M32.86 58.98c0.1,-0.25 0.13,-0.44 0.07,-1.02 -0.04,-0.4 -0.07,-0.71 0.05,-0.91l0.17 -0.35c-0.3,0.55 0.03,1.6 -0.29,2.28z"/>
   <path class="fil5" d="M32.69 59.31c0.32,-0.67 -0.01,-1.73 0.29,-2.26l-0.03 0.06c-0.19,0.62 0.2,1.26 -0.09,1.87l-0.17 0.33z"/>
   <path class="fil5" d="M3.15 73.08l-0.01 -2c0.01,2.44 1.58,4.87 4.71,6.76 6.47,3.9 17.19,4 23.93,0.24 3.47,-1.93 5.22,-4.51 5.21,-7.1l0 2c0.01,2.58 -1.73,5.17 -5.2,7.1 -6.75,3.76 -17.46,3.65 -23.93,-0.24 -3.14,-1.89 -4.7,-4.32 -4.71,-6.76z"/>
   <path class="fil5" d="M8.47 72.88c-4.37,-2.7 -5.9,-6.44 -4.21,-10.28 -1.5,3.13 -0.19,6.61 3.96,9.11 6.27,3.77 16.64,3.88 23.18,0.24 4.51,-2.52 6.01,-6.17 4.43,-9.44 2.07,4.65 -0.6,9.12 -6.97,11.67 -5.32,2.07 -12.28,2.07 -17.58,0.05 -0.99,-0.4 -1.85,-0.75 -2.81,-1.35z"/>
   <path class="fil5" d="M7.38 59.38c-0.32,-0.67 0,-1.73 -0.3,-2.26 0.61,1.09 1.65,2.12 3.11,3 5.21,3.13 13.83,3.22 19.26,0.19 1.68,-0.94 2.86,-2.06 3.53,-3.26 -0.3,0.53 0.03,1.59 -0.29,2.26 -0.65,1.17 -1.81,2.27 -3.45,3.19 -5.3,2.96 -13.73,2.88 -18.82,-0.19 -1.43,-0.86 -2.44,-1.87 -3.04,-2.93z"/>
   <path class="fil4" d="M7.85 77.84c-0.23,-0.14 -0.46,-0.29 -0.68,-0.43l0.32 0.02 0.35 -0.17c0.14,-0.14 0.35,-0.18 0.48,-0.34 0.01,0 0.15,-0.18 0.23,-0.52 0.03,-0.12 0.09,-0.48 0.03,-0.99l-0.08 -0.39 -0.01 -0.03c-0.07,-0.3 0.06,-0.66 -0.23,-0.9 0.15,0.1 0.31,0.2 0.47,0.29 1.05,0.64 2.22,1.16 3.47,1.58l-0.17 -0.04c-0.07,0.02 -0.71,0.87 -0.67,1.95 0,0.18 0.02,0.67 0.8,1.67l0.35 0.28c-1.69,-0.48 -3.27,-1.15 -4.66,-1.98z"/>
   <path class="fil7" d="M27.8 77.55c-0.06,0.68 -0.85,1.21 -2.32,1.58 -0.02,0 -1.83,0.37 -2.36,-0.42 -0.41,-0.6 0.5,-1.33 0.65,-1.41 0.56,-0.34 2.37,-0.76 2.87,-0.67 1.12,0.19 1.19,0.71 1.16,0.92z"/>
   <path class="fil4" d="M8.17 71.68l2.52 -7.24 0.03 0.02c0.82,0.49 1.72,0.91 2.69,1.24l-1.78 7.58c-1.23,-0.42 -2.37,-0.95 -3.41,-1.57l-0.05 -0.03z"/>
   <path class="fil7" d="M26.13 65.84c-0.24,0.08 -0.49,0.15 -0.74,0.22 -0.74,0.19 -1.49,0.35 -2.26,0.46l0.86 7.8c0.98,-0.14 1.93,-0.33 2.86,-0.58 0.32,-0.08 0.64,-0.18 0.96,-0.27l-1.68 -7.63z"/>
   <path class="fil0" d="M16.53 64.8c-0.06,0.12 -0.61,0.32 -1.83,0.33l-1.61 0.09 0 0.15c0.07,0.16 0.33,0.25 0.47,0.35l0.04 0.04c-1.04,-0.34 -2.01,-0.77 -2.88,-1.3l-0.35 -0.22 0.4 0.1c0.4,0.18 0.4,0.18 0.69,0.15 -0.59,-0.86 -1.44,-1.5 -2.04,-2.34 -0.53,-0.74 -0.48,-0.84 -0.46,-0.89 0.42,0.37 0.91,0.72 1.46,1.05 1.59,0.96 3.52,1.63 5.57,2l0.26 0.13c0,0 0.33,0.2 0.28,0.34l0 0.02z"/>
   <path class="fil0" d="M7.15 79.39l-0.01 -2c0.23,0.15 0.47,0.3 0.71,0.45 1.39,0.84 2.98,1.5 4.69,1.99l0.01 2c-1.71,-0.49 -3.3,-1.15 -4.69,-1.99 -0.25,-0.15 -0.48,-0.3 -0.71,-0.45z"/>
   <path class="fil0" d="M31.15 73.12c-1.13,0.58 -1.27,0.66 -2.29,1.06 -5.32,2.06 -12.28,2.07 -17.58,0.05 -0.28,-0.11 -0.66,-0.27 -0.94,-0.38 -1.16,-0.55 -1.23,-0.59 -1.88,-0.97l-0.71 -0.46c-0.86,-0.62 -0.89,-0.65 -1.33,-1.04l-0.48 -0.46 -0.21 -0.22 0.09 0.09c0.7,0.68 1.91,1.15 2.69,1.25l-0.13 -0.24c0.98,0.58 2.07,1.07 3.23,1.47l-0.13 0.04c2.63,2.62 13.26,4.02 20.89,-0.95l-0.73 0.47 -0.49 0.29z"/>
   <path class="fil0" d="M15.58 62.18c-1.74,-0.13 -2.26,0.22 -1.55,1.05 0.38,0.46 1.28,0.84 1.96,1.08 -2.05,-0.37 -3.98,-1.04 -5.57,-2 -0.55,-0.33 -1.04,-0.68 -1.46,-1.05l0.1 0.03c1.39,0.26 0.86,-0.73 0.56,-1.16 -0.18,-0.26 -0.84,-0.96 -1.11,-1.25 0.48,0.44 1.04,0.85 1.68,1.24 1.79,1.08 3.99,1.79 6.32,2.15 -0.28,-0.03 -0.65,-0.07 -0.93,-0.09z"/>
   <path class="fil8" d="M29.85 49.16l0 0c5.2,3.13 5.03,8.13 -0.4,11.15 -5.43,3.03 -14.05,2.94 -19.26,-0.19 -5.2,-3.14 -5.03,-8.13 0.4,-11.16 5.43,-3.02 14.05,-2.94 19.26,0.2z"/>
   <path class="fil0" d="M7.21 13.19c-0.33,0.26 -0.68,0.33 -0.99,0.39 0.62,-0.21 1.32,-0.64 0.99,-0.39zm19.22 41.71c0.43,-1.13 4.8,-13.28 2.36,-26.4 -2.56,-13.77 -6.6,-15.6 -6.6,-15.6l-2.9 -6.01c0,0 0.02,-1.34 -2.55,-4.23 -2.57,-2.89 -4.7,-2.65 -4.7,-2.65 0,0 -0.97,2.3 3.71,8.22 0,0 -1.56,-1.03 -3.21,-0.18 -0.55,0.29 -6.04,3.16 -6.56,3.97 -0.88,1.37 -0.67,1.7 -0.18,1.65 -0.16,0.06 -0.28,0.13 -0.35,0.29 -0.21,0.5 0.71,2.37 0.79,3.19 0.09,0.82 1.05,3.12 1.05,3.12l1.92 -0.11 0 3.75 3.02 3.04 3.04 -2.99c2.22,1.94 3.49,1.83 4.55,2.69 4.24,5.04 0.23,6.47 -1.17,7.52 -1.39,1.05 -5.55,2.72 -6.3,3.27l-5.65 3.27c0.41,2.2 14.08,17.45 14.08,17.45l2.04 -0.86 3.61 -2.4z"/>
   <path class="fil5" d="M6.38 3.27c0,0 1.78,-1.2 4.79,0.7 3,1.91 4.58,4.26 4.58,4.26 0,0 0.09,1.85 -2.11,1.92 -2.2,0.07 -7.26,-6.88 -7.26,-6.88z"/>
   <path class="fil9" d="M20.78 58.16l-12.7 -7.33c0,0 -2.14,-9.57 -1.39,-10.12 0.76,-0.56 4.91,-2.22 6.3,-3.28 1.4,-1.05 5.42,-2.47 1.18,-7.51 -1.06,-0.87 -2.3,-1.86 -4.51,-3.79l-0.74 0.56 -0.4 0.3 -2.28 1.73 -2.68 -1.55 0 -3.74 -2.47 0.78c0,0 -0.96,-2.31 -1.05,-3.12 -0.08,-0.82 -0.03,-2.58 0.18,-3.08l0.02 -0.05c0.18,-0.27 0.86,-0.42 2,-1.41l0 0 0.02 -0.03c0.16,-0.13 0.32,-0.27 0.48,-0.44l0 0c0.15,-0.15 0.31,-0.32 0.48,-0.5l0 0 0 0c0.6,-0.66 1.28,-1.52 2.04,-2.67 1.62,-2.45 3.58,-1.99 4.42,-1.63 -0.95,-0.57 -3.15,-2.5 -3.3,-8.01 0,0 1.59,-0.07 4.16,2.82 2.57,2.89 3.1,4.06 3.1,4.06l2.89 6.01c0,0 4.04,1.84 6.6,15.6 2.45,13.12 -1.93,25.27 -2.35,26.4z"/>
   <path class="fil0" d="M14.22 38.52c0,0 -7.11,2.64 -7.52,2.19 0.75,-0.56 4.9,-2.22 6.3,-3.27 1.39,-1.05 5.41,-2.48 1.17,-7.52 -1.06,-0.87 -2.29,-1.86 -4.51,-3.79 0.04,0 3.23,0.01 6.01,3.68 2.78,3.7 2.24,5.86 -1.45,8.71z"/>
   <path class="fil0" d="M34.04 29.51c-3.91,-16.09 -14.75,-22.62 -14.75,-22.62l-5.65 3.26c0,0 11.73,5.37 14.3,19.14 2.44,13.11 1,30.35 0.57,31.48l2.78 -1.79c0,0 6.65,-13.39 2.75,-29.47z"/>
   <path class="fil10" d="M31.25 31.3c-3.9,-16.09 -17.61,-21.15 -17.61,-21.15l2.9 6.02c0,0 6.05,1.14 8.62,14.9 2.44,13.12 -1.93,25.27 -2.36,26.4l5.71 3.3c0,0 6.65,-13.39 2.74,-29.47z"/>
   <path class="fil0" d="M6.87 14.71c-0.97,0.15 -2.13,0.23 -1.89,1.41 0.04,0.22 0.34,0.26 0.82,0.31 0.24,0.03 0.52,0.01 0.81,-0.12 0.87,-0.4 1.04,-1.44 1.04,-1.44l-0.78 -0.16z"/>
   <path class="fil3" d="M6.9 15.18l-0.17 0.16 0 0.12c0.01,0.12 -0.1,0.26 -0.25,0.37 -0.14,0.1 -0.23,0.32 -0.23,0.32l0.03 0.01c0.1,0.02 0.4,0.03 0.64,-0.32 0.28,-0.42 -0.02,-0.66 -0.02,-0.66z"/>
   <path class="fil11" d="M6.64 14.59c-0.32,-0.04 -1.26,0.12 -1.59,0.81 0,0 1.3,-0.69 2.45,-0.23 0.39,0.15 0.61,0.3 0.61,0.3 0,0 -0.51,-0.77 -1.47,-0.88z"/>
   <path class="fil7" d="M33.61 54.64c0.03,0.87 -0.14,1.76 -0.52,2.57 -0.41,0.78 -0.95,1.52 -1.61,2.12 -1.31,1.22 -2.95,2.01 -4.62,2.56 -1.7,0.5 -3.46,0.77 -5.21,0.82 -1.76,0.04 -3.5,-0.15 -5.21,-0.48 1.74,0.08 3.47,0.15 5.19,0.01 1.71,-0.15 3.42,-0.41 5.04,-0.94 1.64,-0.48 3.19,-1.25 4.49,-2.33 1.32,-1.06 2.29,-2.58 2.45,-4.33z"/>
   <path class="fil11" d="M13.31 21.03c0,0 -1.47,-3.09 -4.54,-3.27 -3.07,-0.17 -3.11,1.64 -3.35,2.01 -0.25,0.37 0.56,-3.08 7.89,1.26z"/>
   <path class="fil12" d="M14.43 6.66c-0.59,-0.49 -1.17,-0.99 -1.8,-1.43 -0.62,-0.44 -1.25,-0.87 -1.93,-1.19 -0.67,-0.35 -1.39,-0.58 -2.11,-0.72 -0.7,-0.12 -1.5,-0.09 -2.05,0.2l0.13 -0.23c-0.01,0.68 0.07,1.4 0.16,2.1 0.1,0.69 0.26,1.38 0.49,2.05 0.21,0.67 0.52,1.31 0.87,1.91 0.34,0.62 0.8,1.16 1.28,1.67l0.46 0.48 -0.63 -0.16c-0.64,-0.15 -1.35,-0.16 -2,0 -0.66,0.17 -1.24,0.6 -1.66,1.16 0.18,-0.3 0.38,-0.6 0.66,-0.82 0.27,-0.24 0.59,-0.43 0.93,-0.55 0.69,-0.25 1.43,-0.29 2.16,-0.15l-0.17 0.32c-0.54,-0.5 -1.06,-1.05 -1.46,-1.68 -0.4,-0.62 -0.74,-1.29 -0.98,-1.99 -0.49,-1.41 -0.74,-2.87 -0.69,-4.37l0.01 -0.17 0.13 -0.06c0.83,-0.42 1.66,-0.37 2.46,-0.23 0.79,0.15 1.53,0.47 2.2,0.87 0.68,0.39 1.32,0.84 1.9,1.35 0.58,0.52 1.13,1.06 1.64,1.64z"/>
   <path class="fil7" d="M14.31 8.77c0,0 -1.28,-3.55 -5.8,-4.71 -1.06,-0.28 0.15,2.69 1.22,4.11 1.08,1.42 2.41,2.02 2.78,2.07 0.37,0.06 2.57,-0.28 1.8,-1.47z"/>
   <path class="fil7" d="M12.73 0.7c0,0 -0.15,1.06 1.49,3.34 1.63,2.28 2.89,3.88 2.89,3.88 0,0 1.25,0.06 1.63,-0.18 0.39,-0.24 0.55,-0.85 0.55,-0.85 0,0 -2.22,-5.42 -6.56,-6.19z"/>
   <path class="fil7" d="M15.54 14.1c0.58,1.89 2.16,3.12 3.22,4.76 1.06,1.62 1.97,3.34 2.73,5.13 1.48,3.6 2.23,7.46 2.54,11.32 0.25,3.88 0.04,7.77 -0.53,11.6 -0.58,3.83 -1.57,7.57 -2.72,11.25 0.43,-1.88 0.97,-3.73 1.28,-5.63 0.18,-0.95 0.41,-1.89 0.55,-2.84l0.42 -2.85c0.47,-3.81 0.68,-7.66 0.38,-11.48 -0.25,-3.82 -1,-7.61 -2.36,-11.19 -0.69,-1.79 -1.54,-3.51 -2.55,-5.14 -0.53,-0.8 -1.05,-1.61 -1.65,-2.36 -0.68,-0.72 -0.97,-1.68 -1.31,-2.57z"/>
   <path class="fil4" d="M8.92 26.69l-0.4 0.3 -2.28 1.73 -2.68 -1.55 0 -3.74 -2.47 0.78c0,0 -0.96,-2.31 -1.05,-3.12 -0.08,-0.82 -0.03,-2.58 0.18,-3.08l0.02 -0.05c0.18,-0.27 0.86,-0.42 2,-1.41l0 0 0.02 -0.03c0.16,-0.13 0.32,-0.27 0.48,-0.44 -0.19,0.73 0.25,1.97 0.48,3.07 0.23,1.1 0.52,2.18 2.16,3.44 1.64,1.26 3.54,4.1 3.54,4.1z"/>
   <path class="fil13" d="M1.33 17.79c-0.33,0.07 -0.67,0.26 -0.67,0.26 0,0 -0.33,0.29 -0.34,0.66 0,0.26 -0.01,0.47 0.16,0.64 0.07,0.07 0.22,0.08 0.39,0.04 0.16,-0.04 0.34,-0.13 0.46,-0.24 0.44,-0.4 0.73,-0.9 0.58,-1.23 -0.09,-0.19 -0.33,-0.19 -0.58,-0.13z"/>
  </g>
 </g>
</svg>
