<?xml version="1.0" encoding="UTF-8"?>
<!DOCTYPE svg PUBLIC "-//W3C//DTD SVG 1.0//EN" "http://www.w3.org/TR/2001/REC-SVG-20010904/DTD/svg10.dtd">
<!-- Creator: CorelDRAW 2018 (64 Bit Versão de avaliação) -->
<svg xmlns="http://www.w3.org/2000/svg" xml:space="preserve" width="39px" height="72px" version="1.0" style="shape-rendering:geometricPrecision; text-rendering:geometricPrecision; image-rendering:optimizeQuality; fill-rule:evenodd; clip-rule:evenodd"
viewBox="0 0 39 72.61"
 xmlns:xlink="http://www.w3.org/1999/xlink">
 <defs>
  <style type="text/css">
   <![CDATA[
    .fil6 {fill:none;fill-rule:nonzero}
    .fil12 {fill:#67686A;fill-rule:nonzero}
    .fil11 {fill:#626365;fill-rule:nonzero}
    .fil10 {fill:#58585A;fill-rule:nonzero}
    .fil13 {fill:#545456;fill-rule:nonzero}
    .fil16 {fill:#4E4E4F;fill-rule:nonzero}
    .fil2 {fill:#4A4A4B;fill-rule:nonzero}
    .fil9 {fill:#464546;fill-rule:nonzero}
    .fil7 {fill:#5C5E60;fill-rule:nonzero}
    .fil15 {fill:#56595A;fill-rule:nonzero}
    .fil5 {fill:#424647;fill-rule:nonzero}
    .fil8 {fill:#323436;fill-rule:nonzero}
    .fil0 {fill:#2F3132;fill-rule:nonzero}
    .fil17 {fill:#2D3031;fill-rule:nonzero}
    .fil3 {fill:#2D2E2F;fill-rule:nonzero}
    .fil4 {fill:#2C2D2F;fill-rule:nonzero}
    .fil1 {fill:#292A2C;fill-rule:nonzero}
    .fil14 {fill:#292A2B;fill-rule:nonzero}
   ]]>
  </style>
 </defs>
 <g id="Camada_x0020_1">
  <metadata id="CorelCorpID_0Corel-Layer"/>
  <g id="_1624372626064">
   <path class="fil0" d="M9.49 71.59l0 -0.04c6.28,1.8 14.08,1.26 19.43,-1.72 3.51,-1.96 5.27,-4.56 5.26,-7.17l-0.01 -2.02c0,-0.69 -0.07,-1.26 -0.21,-1.9 -0.17,-0.73 -0.36,-1.25 -0.54,-1.67 0.34,-1.15 0.36,-2.35 0.06,-3.58l0.02 0.22c-0.04,-0.24 -0.1,-0.49 -0.17,-0.73l0.06 0.17 -0.1 -0.3 -0.15 -0.39 -0.14 -0.37 0.12 0.31c-0.15,-0.35 -0.31,-0.71 -0.54,-1.05 -0.55,-0.87 -1.1,-1.73 -1.66,-2.59 -0.21,-0.33 -0.42,-0.66 -0.63,-0.98 0.26,-0.79 0.34,-1.53 0.35,-2.07 0.01,-0.05 0.01,-0.15 0.01,-0.32l-0.01 -0.16 0.06 -0.2c0.75,-1.56 1.42,-3.32 1.04,-4.05 -0.76,-1.44 -3.96,-8.39 -5.37,-11.08 -0.12,-0.23 -0.27,-0.49 -0.42,-0.77l0.12 0.06c0.21,0.09 0.22,0.45 0.45,0.52l0.68 1.34 0.83 1.78 4.18 2.41c4.42,-0.92 5.72,-3.52 5.72,-3.52 0,0 0.97,-1.2 1.05,-1.93 0.01,-0.11 0.02,-0.28 0.02,-0.48l0 -0.15c-0.01,-0.15 -0.01,-0.32 -0.02,-0.51l0 -0.12 -0.01 -0.11c-0.01,-0.14 -0.02,-0.29 -0.03,-0.45l-0.02 -0.26c-0.01,-0.24 -0.04,-0.48 -0.06,-0.71l-0.01 -0.09c-0.02,-0.21 -0.04,-0.4 -0.07,-0.58l-0.02 -0.16c-0.02,-0.13 -0.04,-0.26 -0.06,-0.37l-0.01 -0.08 -0.05 -0.2c-0.21,-0.75 -1.05,-1.43 -1.77,-2.82 -0.46,-0.97 -0.8,-1.79 -1.1,-2.55 -0.2,-0.5 -0.42,-1.1 -0.68,-1.8 -0.62,-1.76 -1.07,-3.27 -2.05,-5.49 -0.07,-0.18 -0.16,-0.37 -0.25,-0.58l-0.15 -0.34c-0.14,-0.32 -0.31,-0.67 -0.51,-1.05 -1.25,-2.43 -2.31,-3.41 -2.68,-3.69l-0.01 -0.01c0,0 2.79,-2.82 3.6,-4.08l-0.15 -0.12c-3.01,-2.68 -6.49,-1.85 -9.03,-0.5 -0.32,-0.2 -1.37,-0.83 -2.8,-1.41l-0.05 -0.02 0.02 0.01c-2.5,-1 -6.14,-1.83 -9.09,0.07 -0.19,0.12 -1.74,1 -2.88,1.67 -0.87,0.41 -1.68,0.99 -2.42,1.78l-0.04 0.04c-0.27,0.28 -0.52,0.6 -0.76,0.95 -0.15,0.21 -0.3,0.44 -0.44,0.68 -0.12,0.21 -0.24,0.41 -0.36,0.64 -0.24,0.48 -0.46,1.01 -0.67,1.59l-0.04 0.1 -0.02 0.04 -0.05 0.13c-0.06,0.2 -0.1,0.43 -0.16,0.64 -1.77,5.99 -1.31,13.44 -0.63,19.77 0.13,1.21 1.38,11.29 1.38,11.29l0.02 0.01c-1.62,1.78 -1.99,3.85 -1.1,5.77l-0.14 -0.31 0 0.08c-0.05,0.35 -0.05,1.11 0.18,1.84 -0.76,1.2 -1.51,2.39 -2.27,3.58 -0.21,0.32 -0.35,0.66 -0.5,0.99l0.09 -0.24 -0.11 0.28c-0.07,0.19 -0.14,0.37 -0.2,0.56 -0.05,0.17 -0.11,0.33 -0.15,0.5l0.09 -0.26c-0.04,0.15 -0.09,0.31 -0.11,0.46l0.02 -0.2 -0.06 0.36 -0.04 0.27c-0.16,1.01 -0.1,1.99 0.18,2.95 -0.09,0.23 -0.19,0.47 -0.28,0.76 -0.12,0.4 -0.17,0.57 -0.28,1.08 -0.05,0.2 -0.1,0.47 -0.12,0.68 -0.03,0.33 -0.06,0.78 -0.07,1.12l0.01 2.02c0,2.26 1.36,4.51 4.04,6.35l0 0.02c0.23,0.15 0.46,0.3 0.71,0.45 0.77,0.46 1.6,0.86 2.48,1.22 0.28,0.12 0.58,0.2 0.87,0.31 0.46,0.16 0.91,0.35 1.38,0.48z"/>
   <polygon class="fil1" points="3.98,47.76 3.79,50.37 5.86,55.94 16.72,58.5 30.01,52.88 30.64,49.33 29.82,47.76 "/>
   <path class="fil0" d="M0 60.74c0.01,-0.34 0.04,-0.79 0.07,-1.12 0.02,-0.21 0.07,-0.48 0.12,-0.68 0.11,-0.51 0.16,-0.68 0.28,-1.08 0.12,-0.36 0.23,-0.64 0.35,-0.93 0.18,-0.43 0.86,-1.93 2.18,-3.42 -3.03,3.4 -2.17,7.67 2.65,10.57 6.05,3.64 16.08,3.74 22.4,0.22 5.2,-2.9 6.26,-7.34 3.09,-10.86 0.45,0.5 0.85,1.03 1.2,1.56 0.58,0.91 0.89,1.6 0.97,1.79 0.19,0.45 0.45,1.06 0.65,1.95 0.14,0.64 0.21,1.21 0.21,1.9 0.01,2.61 -1.75,5.22 -5.25,7.17 -6.81,3.8 -17.63,3.69 -24.16,-0.24 -3.17,-1.91 -4.75,-4.37 -4.76,-6.83z"/>
   <path class="fil2" d="M28.51 51.32l-1.06 -0.18c-5.49,-3.31 -14.6,-3.4 -20.33,-0.21 -5.73,3.2 -5.92,8.47 -0.42,11.78 5.5,3.31 14.6,3.4 20.33,0.21 5.73,-3.2 5.92,-8.47 0.42,-11.78l1.06 0.18c6.06,3.65 5.85,9.46 -0.46,12.98 -6.32,3.52 -16.35,3.42 -22.4,-0.22 -6.06,-3.65 -5.85,-9.46 0.46,-12.98 6.31,-3.52 16.34,-3.42 22.4,0.22z"/>
   <path class="fil1" d="M6.7 62.71l-0.32 -0.2 -0.73 -0.51c-1.83,-1.38 -2.81,-3.01 -2.94,-4.66l-1.46 0.81c0.14,1.82 1.22,3.62 3.23,5.15l0.81 0.55 0.35 0.22c1.84,1.11 1.57,3.19 3.33,1.56 1.17,-1.08 5.94,-0.27 5.94,-0.27 -2.14,-0.41 -6.54,-1.64 -8.21,-2.65z"/>
   <path class="fil0" d="M1.54 51.43c1.1,-1.73 2.2,-3.46 3.3,-5.19 -1.67,2.62 -0.74,5.67 2.82,7.82 4.98,2.99 13.22,3.08 18.41,0.18 3.86,-2.15 4.94,-5.34 3.19,-8.07l0.17 0.26c0.22,0.34 0.44,0.69 0.66,1.03 0.28,0.43 0.55,0.86 0.83,1.3 0.56,0.86 1.11,1.72 1.66,2.59 2.23,3.46 0.86,7.53 -4.05,10.26 -6.6,3.68 -17.07,3.57 -23.4,-0.23 -4.53,-2.73 -5.7,-6.61 -3.59,-9.95z"/>
   <path class="fil3" d="M29.5 50.6l-0.07 -0.19 -0.03 -0.09 -0.01 -0.04c-0.01,-0.12 -0.01,-0.26 0.01,-0.41l0.01 -0.07 0.03 -0.1 0.02 -0.05 0.04 -0.13c0.07,-0.14 0.19,-0.38 0.41,-0.81l0.02 -0.04 0.01 -0.02 0.01 -0.02 0.06 -0.11 -0.18 0.33c-0.09,0.17 -0.19,0.33 -0.3,0.49l-0.11 0.15 -0.25 0.33 -0.15 0.17 -0.28 0.3 -0.17 0.17 -0.33 0.3c-0.53,0.47 -1.16,0.91 -1.89,1.32 -2.26,1.26 -5.07,1.97 -7.96,2.14 -0.16,0.01 -0.31,0.02 -0.47,0.02l-0.27 0.01c-0.15,0 -0.3,0.01 -0.44,0.01l-0.28 0c-0.15,0 -0.3,0 -0.45,-0.01l-0.26 0c-0.17,-0.01 -0.35,-0.02 -0.52,-0.03l-0.14 0c-0.33,-0.02 -0.66,-0.05 -0.98,-0.09l-0.24 -0.03c-0.31,-0.03 -0.62,-0.07 -0.92,-0.12l-0.16 -0.03c-0.3,-0.05 -0.6,-0.1 -0.89,-0.17l-0.24 -0.05c-0.28,-0.06 -0.56,-0.13 -0.84,-0.21l-0.25 -0.07c-0.24,-0.07 -0.49,-0.14 -0.73,-0.23l-0.1 -0.03 -0.16 -0.05c-0.27,-0.1 -0.54,-0.2 -0.8,-0.31l-0.09 -0.04 -0.11 -0.05c-0.23,-0.09 -0.46,-0.2 -0.68,-0.31l-0.21 -0.1 -0.02 -0.01c-0.27,-0.14 -0.54,-0.28 -0.79,-0.43 -0.16,-0.1 -0.32,-0.2 -0.47,-0.31l-0.06 -0.04 -0.08 -0.05 -0.32 -0.23 0 0 -0.13 -0.1 -0.32 -0.26 -0.08 -0.06 -0.37 -0.34 -0.09 -0.08 -0.25 -0.26 -0.1 -0.11 -0.22 -0.26 -0.07 -0.1c-0.2,-0.25 -0.37,-0.51 -0.52,-0.76l-0.17 -0.34 0.1 0.2 0.01 0.02c0.27,0.54 0.43,0.87 0.5,1.12l0.02 0.15 0.01 0.03 -0.01 0.19 -0.06 0.25 -0.03 0.08 -0.01 0.01 -0.04 0.09 -0.08 0.14c0.08,0.17 0.18,0.33 0.28,0.5l-0.01 -0.01c0.15,0.26 0.34,0.51 0.54,0.75l0.04 0.05 0 0 0.24 0.26 0.04 0.05 0.04 0.04 0.07 0.08 0.15 0.14 0.1 0.09 0.07 0.07 0 0 0.01 0.01 0.04 0.03 0.05 0.05 0.1 0.09 0.07 0.06 0.06 0.05 0.1 0.07 0.05 0.04 0.07 0.06 0.09 0.07 0.06 0.05 0.11 0.07 0.18 0.13 0.08 0.06 0.06 0.04 0.06 0.04 0.04 0.02 0 0 0.01 0.01 0.35 0.22c0.16,0.09 0.32,0.18 0.48,0.27l0.02 0.01 0.04 0.03 0.02 0.01 0.03 0.01 0.04 0.02 0.04 0.02 0.04 0.03 0.11 0.05 0.09 0.04 0.06 0.04 0.05 0.02 0.08 0.04 0.05 0.02 0.05 0.02 0.09 0.05 0.07 0.03 0.07 0.03 0.05 0.03 0.03 0.01 0.06 0.02 0.12 0.05 0.08 0.04 0.03 0.01 0.04 0.02 0.1 0.04 0.07 0.03 0.03 0.01 0.05 0.02 0.07 0.03 0.13 0.04 0.01 0.01 0.06 0.02 0.04 0.01 0.08 0.03 0.08 0.03 0 0 0.01 0.01 0.12 0.04 0.08 0.02 0 0.01 0.02 0 0.01 0.01 0.06 0.01 0.04 0.02 0 0 0.01 0 0.14 0.05 0.04 0.01 0.02 0.01 0.06 0.02 0.06 0.02 0.1 0.03 0.17 0.05 0.1 0.03 0.07 0.02 0.01 0 0.05 0.01 0.06 0.02 0.09 0.02 0.13 0.04 0.06 0.01 0.08 0.02 0.11 0.03 0.05 0.01 0.04 0.01 0.05 0.02 0.15 0.03 0.14 0.03 0.08 0.02 0.08 0.02 0.02 0 0.01 0 0.07 0.02 0.07 0.01 0.08 0.02 0.03 0 0.02 0.01 0 0 0.07 0.01 0.15 0.03 0.07 0.02 0.02 0 0.02 0 0.14 0.02 0.23 0.04 0.09 0.02 0.02 0 0.01 0 0.04 0.01 0.04 0.01 0.11 0.01 0.17 0.02 0.21 0.03 0.1 0.02 0.01 0 0.01 0 0.09 0.01 0.09 0.01 0.03 0 0 0 0.02 0 0.14 0.02 0.07 0.01 0.11 0.01 0.07 0.01 0.03 0 0.13 0.01 0.08 0 0.18 0.02 0.12 0.01 0.07 0 0.01 0 0.06 0.01 0.16 0.01 0.06 0 0 0 0.01 0 0.01 0 0.25 0.01 0.04 0 0.03 0.01 0.03 0 0.04 0 0.06 0 0.22 0 0.28 0.01 0.02 0 0 0 0.08 0 0 0 0.08 0 0.02 0 0.18 0 0.37 -0.01 0.13 0 0 0 0.07 0 0.05 0 0.11 -0.01 0.38 -0.02 0.17 -0.01 0 0 0.13 -0.01 0.08 0 0.08 -0.01c0.19,-0.01 0.37,-0.03 0.55,-0.05l0.03 0 0 0 0.09 -0.01 0.23 -0.03c0.19,-0.02 0.38,-0.05 0.58,-0.07l0.13 -0.02 -0.02 0c0.76,-0.12 1.51,-0.27 2.23,-0.47l-0.01 0 0.09 -0.02c0.27,-0.08 0.55,-0.16 0.81,-0.25l0.09 -0.03 0.06 -0.02 -0.01 0.01 0.15 -0.06 0.38 -0.14 0.2 -0.07 0.1 -0.04 0.11 -0.05 -0.01 0.01 0.03 -0.01 0.17 -0.08 0.22 -0.09 0.23 -0.11 0.1 -0.04 0.1 -0.05 0.05 -0.03 0 0 0.02 -0.01 0.06 -0.03c0.19,-0.09 0.37,-0.19 0.55,-0.29 0.21,-0.11 0.41,-0.24 0.61,-0.36l0 0 0.01 -0.01 0.1 -0.06c0.16,-0.1 0.3,-0.21 0.45,-0.31l0.18 -0.14 0.32 -0.25 0.18 -0.16 0.27 -0.25 0.02 -0.01 0 0 0.03 -0.03 0.12 -0.12 0.21 -0.23 0.1 -0.1 0.08 -0.1 0.19 -0.24 0.1 -0.12 0.04 -0.07 0.19 -0.28 0.02 -0.04 0 0.02 0.04 -0.06 0.02 -0.04 0.02 -0.04 0.04 -0.07 0.2 -0.37 -0.07 -0.11 -0.02 -0.03 -0.02 -0.06z"/>
   <path class="fil0" d="M3.97 46.64c0.1,0.21 0.1,0.39 0.05,0.92 -0.05,0.59 -0.02,0.78 0.08,1.03 -0.33,-0.68 0,-1.75 -0.31,-2.29l0.18 0.34z"/>
   <path class="fil1" d="M0.01 62.76l-0.01 -2.02c0.01,2.46 1.59,4.92 4.76,6.83 6.53,3.93 17.35,4.04 24.16,0.24 3.5,-1.95 5.26,-4.56 5.25,-7.17l0.01 2.02c0.01,2.61 -1.75,5.21 -5.26,7.17 -6.81,3.8 -17.62,3.69 -24.16,-0.25 -3.17,-1.9 -4.74,-4.36 -4.75,-6.82z"/>
   <path class="fil4" d="M5.38 62.56c-4.41,-2.73 -5.96,-6.51 -4.25,-10.38 -1.51,3.16 -0.19,6.67 4,9.2 6.33,3.8 16.8,3.91 23.4,0.23 4.56,-2.54 6.07,-6.23 4.47,-9.52 2.09,4.69 -0.6,9.21 -7.03,11.78 -5.37,2.08 -12.4,2.09 -17.75,0.05 -1,-0.41 -1.87,-0.76 -2.84,-1.36z"/>
   <polygon class="fil4" points="3.63,45.93 3.6,45.84 "/>
   <path class="fil4" d="M30.64 45.11l0.03 -0.39c-0.02,0.04 -0.03,0.16 -0.03,0.39z"/>
   <path class="fil3" d="M30.06 48.37l0.03 -0.09 0.01 -0.03 -0.04 0.13 0 -0.01zm-0.01 -1.44l0.01 -0.1 -0.01 0.1zm-0.01 0.05c0,0.14 0.02,0.3 0.03,0.47 -0.01,-0.16 -0.03,-0.31 -0.03,-0.47zm0.11 0.98l-0.04 0.19 0.04 -0.19zm0.01 -0.31l-0.01 0.17 0.01 -0.17zm0 -0.17l0 -0.21 0 0.21zm0.03 -0.84l-0.02 0.11 0.02 -0.11zm0.05 -0.26l-0.03 0.11 0.03 -0.11zm-0.08 0.54l0 0.13 0 -0.13zm-26.06 0.19l0 0.03 0 -0.03zm-0.08 1.25c-0.07,-0.28 -0.03,-0.56 0.01,-0.84l-0.01 0.04c-0.04,0.45 -0.03,0.65 0.02,0.87l-0.02 -0.07zm0.02 -1.46l-0.03 -0.14 0.03 0.14zm-0.01 -0.11l0.04 0.16 -0.04 -0.16zm0.02 0.27l0 -0.06 0 0.06zm26.6 -1.67l-0.01 -0.28c-0.04,0.28 -0.12,0.53 -0.15,0.63 -0.06,0.16 -0.15,0.37 -0.22,0.54l-0.15 0.29 -0.04 0.11 0.01 -0.02 0.03 -0.09c-0.67,1.21 -1.86,2.35 -3.56,3.3 -5.48,3.05 -14.18,2.97 -19.44,-0.2 -1.48,-0.89 -2.53,-1.93 -3.15,-3.03l-0.18 -0.34 -0.16 -0.37 0 0.08c-0.05,0.37 -0.06,1.2 0.21,1.97l0.07 0.16c0.05,0.15 0.12,0.3 0.19,0.45l0.17 0.34 0 -0.01 0 0.01c0.61,1.07 1.64,2.08 3.08,2.96 5.14,3.09 13.64,3.17 19,0.19 1.66,-0.93 2.82,-2.04 3.48,-3.23l0.18 -0.33 0 -0.02 0 0.01c0.49,-1.05 0.61,-2.1 0.63,-2.8 0.01,-0.05 0.01,-0.15 0.01,-0.32z"/>
   <path class="fil5" d="M30.64 44.27c0.04,0.88 -0.14,1.78 -0.52,2.6 -0.41,0.79 -0.95,1.53 -1.63,2.13 -1.32,1.24 -2.97,2.04 -4.66,2.59 -1.71,0.51 -3.49,0.78 -5.26,0.83 -1.77,0.04 -3.54,-0.15 -5.26,-0.49 1.76,0.08 3.5,0.15 5.24,0.01 1.73,-0.14 3.45,-0.4 5.09,-0.94 1.65,-0.49 3.22,-1.26 4.54,-2.35 1.33,-1.07 2.3,-2.61 2.46,-4.38z"/>
   <line class="fil6" x1="4.27" y1="48.93" x2="4.27" y2= "48.93" />
   <path class="fil1" d="M4.75 67.56c-0.23,-0.14 -0.46,-0.28 -0.68,-0.43l0.32 0.02 0.35 -0.17c0.15,-0.14 0.36,-0.19 0.49,-0.35 0,0 0.15,-0.18 0.23,-0.52 0.03,-0.13 0.09,-0.48 0.03,-1l-0.08 -0.39 -0.01 -0.04c-0.08,-0.3 0.06,-0.66 -0.23,-0.9 0.15,0.1 0.31,0.2 0.47,0.29 1.06,0.64 2.24,1.17 3.5,1.59l-0.17 -0.03c-0.06,0.02 -0.72,0.87 -0.68,1.97 0.01,0.18 0.03,0.67 0.82,1.68l0.35 0.28c-1.71,-0.49 -3.31,-1.15 -4.71,-2z"/>
   <path class="fil7" d="M24.9 67.28c-0.07,0.68 -0.86,1.22 -2.35,1.59 -0.02,0 -1.84,0.37 -2.38,-0.42 -0.41,-0.61 0.5,-1.35 0.66,-1.44 0.57,-0.33 2.39,-0.76 2.9,-0.67 1.12,0.19 1.19,0.72 1.17,0.94z"/>
   <path class="fil4" d="M5.08 61.35l2.54 -7.31 0.04 0.02c0.82,0.49 1.73,0.91 2.71,1.24l-1.8 7.66c-1.24,-0.43 -2.4,-0.96 -3.44,-1.58l-0.05 -0.03z"/>
   <path class="fil7" d="M23.21 55.45c-0.24,0.08 -0.5,0.15 -0.75,0.22 -0.74,0.2 -1.5,0.35 -2.27,0.46l0.86 7.88c0.99,-0.14 1.95,-0.34 2.89,-0.58 0.32,-0.09 0.65,-0.18 0.96,-0.28l-1.69 -7.7z"/>
   <path class="fil1" d="M13.51 54.4c-0.05,0.12 -0.61,0.32 -1.84,0.33l-1.62 0.09 -0.01 0.15c0.08,0.16 0.33,0.26 0.48,0.36l0.04 0.04c-1.05,-0.35 -2.03,-0.78 -2.9,-1.31l-0.36 -0.23 0.41 0.11c0.4,0.17 0.4,0.17 0.68,0.14 -0.59,-0.87 -1.44,-1.51 -2.05,-2.36 -0.54,-0.74 -0.49,-0.84 -0.47,-0.89 0.43,0.37 0.92,0.72 1.48,1.06 1.61,0.96 3.55,1.64 5.63,2.01l0.25 0.14c0,0 0.34,0.19 0.29,0.34l-0.01 0.02z"/>
   <path class="fil1" d="M4.05 69.13l-0.01 -2.02c0.23,0.15 0.47,0.31 0.71,0.45 1.41,0.85 3.02,1.52 4.74,2.01l0 2.02c-1.72,-0.49 -3.32,-1.16 -4.73,-2.01 -0.25,-0.15 -0.48,-0.3 -0.71,-0.45z"/>
   <path class="fil1" d="M28.28 62.8c-1.14,0.58 -1.28,0.66 -2.31,1.07 -5.38,2.08 -12.4,2.09 -17.76,0.05 -0.28,-0.11 -0.65,-0.27 -0.94,-0.38 -1.17,-0.56 -1.24,-0.6 -1.9,-0.99l-0.72 -0.46c-0.86,-0.63 -0.9,-0.65 -1.34,-1.05l-0.49 -0.46 -0.2 -0.22 0.08 0.09c0.71,0.68 1.93,1.16 2.72,1.26l-0.14 -0.24c1,0.58 2.1,1.08 3.27,1.48l-0.13 0.04c2.65,2.64 13.39,4.06 21.09,-0.96l-0.73 0.48 -0.5 0.29z"/>
   <path class="fil1" d="M12.56 51.76c-1.75,-0.14 -2.28,0.22 -1.57,1.06 0.39,0.45 1.29,0.84 1.99,1.08 -2.08,-0.37 -4.02,-1.05 -5.63,-2.01 -0.56,-0.34 -1.05,-0.69 -1.48,-1.06l0.11 0.02c1.4,0.27 0.86,-0.73 0.56,-1.17 -0.18,-0.26 -0.84,-0.97 -1.12,-1.26 0.48,0.44 1.05,0.86 1.7,1.25 1.81,1.09 4.02,1.81 6.38,2.17 -0.28,-0.02 -0.66,-0.06 -0.94,-0.08z"/>
   <path class="fil8" d="M26.96 38.61l0 0c5.26,3.16 5.08,8.2 -0.4,11.26 -5.48,3.05 -14.18,2.97 -19.44,-0.2 -5.26,-3.16 -5.08,-8.21 0.4,-11.26 5.48,-3.06 14.19,-2.97 19.44,0.2z"/>
   <path class="fil9" d="M13.73 19.4c-1.55,-12.98 3.58,-12.59 5.73,-13.79 2.69,-1.51 4.51,-3.05 4.51,-3.05 0,0 -7.01,-4.65 -12.03,-1.42 -0.3,0.19 -3.84,2.19 -4.12,2.44 -1.13,1 2.88,-0.26 2.15,1.89 -2.06,6.12 -1.5,13.79 -0.79,20.4 0.13,1.21 1.38,11.29 1.38,11.29l5.06 2.92c0,0 -0.54,-9.43 -1.89,-20.68z"/>
   <polygon class="fil9" points="30.78,30.4 31.16,31.68 30.78,32 "/>
   <path class="fil0" d="M38.98 29.79c-0.08,0.73 -1.05,1.93 -1.05,1.93l-5.72 3.52 -1.05 -3.56 2.58 -2.15 -2.69 -4.07 -1.27 -1.93c-2.24,-0.63 -3.53,-2.23 -4.59,-2.59 -1.13,0.04 -1.68,0.49 -1.85,1.18 -0.25,0.99 0.27,2.46 0.97,3.93 0.68,1.44 1.55,2.87 2.06,3.85 1.41,2.69 4.61,9.64 5.37,11.08 0.76,1.44 -2.6,6.91 -2.6,6.91 0,0 -0.54,0.71 -1.68,1.48 -1.48,1.01 -3.94,1.79 -4.02,1.81l0 0.01 -1.25 -1.4 -10.81 -12.16c0,0 0.17,-14.8 4.11,-26.49 0.64,-1.89 -3.56,-0.57 -2.6,-1.55 0.29,-0.3 5.63,-3.25 5.94,-3.48 0.81,-0.6 0.53,-0.76 1.18,-1.22 3.39,-2.36 5.87,-3.1 5.87,-3.1 0,0 0.17,-0.45 2.76,-0.38 2.59,0.08 4.4,1.7 4.4,1.7l-3.74 3.98c0,0 2.11,1.25 4.2,6.95 2.1,5.69 2.65,7.28 3.37,8.66 0.72,1.39 1.56,2.07 1.77,2.82 0.21,0.75 0.42,3.54 0.34,4.27z"/>
   <path class="fil10" d="M29.44 7.19c0,0 -0.82,0.27 -1.44,0 -0.61,-0.28 -0.8,0.07 -0.8,0.07l-2.04 2.46 -1.57 0.66c0,0 3.05,2.63 5.13,7.72 2.09,5.09 3.83,6.51 3.83,6.51 0,0 4.1,-0.47 4.32,-1.91 -2.04,-4.38 -2.17,-6.08 -3.83,-9.84 -0.53,-1.22 -1.34,-3.33 -3.6,-5.67z"/>
   <path class="fil0" d="M24.93 9.15c0,0 2.32,-0.18 4.22,4.36 1.89,4.54 2.8,7.49 4.91,10.43 1.55,-0.68 1.94,-0.85 1.94,-0.85 0,0 -1.43,-2.08 -2.5,-5.92 -1.06,-3.84 -3.36,-7.22 -5.16,-8.86 -1.79,-1.64 -3.15,-1.1 -3.15,-1.1l-0.26 1.94z"/>
   <path class="fil11" d="M33.04 3.11c0,0 -2.21,-1.82 -5.43,-1.35 -3.22,0.47 -6.61,2.92 -6.61,2.92 0,0 -0.57,0.28 0,-0.22 1.92,-1.69 7.54,-5.54 12.04,-1.35z"/>
   <path class="fil12" d="M31.74 40.98c0.02,1.66 -1.12,1.69 -1.12,1.69 0,0 -5.57,-10.82 -6.89,-14.71 -1.35,-3.98 -0.39,-5.84 -0.39,-5.84l0 0c-0.25,0.99 0.27,2.46 0.97,3.93 0.68,1.44 1.55,2.87 2.06,3.85 1.41,2.69 4.61,9.64 5.37,11.08z"/>
   <path class="fil2" d="M29.14 47.89c0,0 -0.54,0.71 -1.68,1.48 -1.48,1.01 -3.94,1.79 -4.02,1.81l0 0.01 -1.25 -1.4c0.06,-0.5 0.1,-0.88 0.1,-0.88l3.83 -3.72c5.43,-2.03 5.62,-4.21 5.62,-4.21 0.76,1.44 -2.6,6.91 -2.6,6.91z"/>
   <path class="fil0" d="M35.21 31.89c-0.08,0.72 -1.05,1.93 -1.05,1.93l-1.95 -2.36 0 3.78 -4.18 -2.41 -0.83 -1.78 -0.68 -1.34c-0.23,-0.07 -0.24,-0.43 -0.45,-0.52 -1.84,-0.71 -5.79,-4.62 -5.7,-5.5 -3.92,0.67 -1.12,6.82 0.29,9.51 1.18,2.24 3.6,7.46 4.81,9.96 0.24,0.5 0.43,0.88 0.56,1.12 0.75,1.42 -2.5,6.75 -2.59,6.9l0 0.01 -18.59 -10.73c0,0 -0.43,-9.03 -0.56,-10.24 -0.72,-6.62 -2.09,-15.34 -0.03,-21.46 3.95,-11.68 15.75,-3.87 15.75,-3.87 0,0 0.21,-0.22 1.02,-0.37 0.47,-0.08 1.15,-0.15 2.11,-0.12 2.59,0.08 4.19,2.01 4.19,2.01l-3.74 3.97c0,0 2.79,1.37 4.88,7.06 1.09,2.98 2.73,5.41 4.08,7.17 1.24,1.61 2.23,2.65 2.33,3.01 0.21,0.75 0.42,3.54 0.33,4.27z"/>
   <path class="fil13" d="M21.31 4.29c-0.2,-0.03 -3.59,-0.44 -6.18,0.57 -0.27,0.1 -0.53,0.23 -0.78,0.36 -2.15,1.21 -7.88,4.5 -6.33,17.48 1.35,11.25 1.89,20.68 1.89,20.68l-1.71 -0.99 -3.35 -1.93c0,0 -1.25,-10.08 -1.38,-11.29 -0.71,-6.62 -1.21,-14.46 0.86,-20.58 3.88,-11.51 16.58,-4.53 16.98,-4.3z"/>
   <path class="fil14" d="M24.73 17.32c1.07,1 1.64,2.98 1.64,2.98 0,0 -0.49,-0.05 -1.07,-0.43 -0.29,-0.19 -0.6,-0.45 -0.89,-0.83 -0.86,-1.13 -0.66,-2.25 -0.66,-2.25l0.98 0.53z"/>
   <path class="fil7" d="M24.51 17.75l0.13 0.28 -0.05 0.11c-0.05,0.11 0.02,0.34 0.15,0.56 0.12,0.22 0.15,0.51 0.15,0.51l-0.04 -0.02c-0.13,-0.07 -0.48,-0.32 -0.62,-0.85 -0.17,-0.65 0.28,-0.59 0.28,-0.59z"/>
   <path class="fil15" d="M24.43 17.03c0.38,0.25 0.81,0.64 1.15,1.25 0.89,1.55 0.94,2.56 0.94,2.56 0,0 -0.89,-2.26 -1.72,-3.16 -0.37,-0.4 -0.7,-0.65 -0.95,-0.81 -0.32,-0.21 -0.51,-0.26 -0.51,-0.26 0,0 0.5,0.05 1.09,0.42z"/>
   <path class="fil4" d="M38.98 29.79c-0.08,0.73 -1.05,1.93 -1.05,1.93 0,0 -1.3,2.6 -5.72,3.52l0 -3.78 1.95 2.36c0,0 0.97,-1.21 1.05,-1.93 0.09,-0.73 -0.12,-3.52 -0.33,-4.27 -0.1,-0.36 -1.09,-1.4 -2.33,-3.01 4.32,-1.91 4.32,-1.91 4.32,-1.91 0.72,1.39 1.56,2.07 1.77,2.82l0.05 0.2c0.12,0.61 0.24,1.84 0.29,2.81 0.02,0.55 0.03,1.02 0,1.26z"/>
   <path class="fil16" d="M35.21 31.89c-0.08,0.72 -1.05,1.93 -1.05,1.93l-1.95 -2.36 0 3.78 -4.18 -2.41 -0.83 -1.78c0,0 0.79,-3.44 3.85,-5.59 0.45,-0.31 0.95,-0.6 1.5,-0.85 1.24,1.61 2.23,2.65 2.33,3.01 0.21,0.75 0.42,3.54 0.33,4.27z"/>
   <polygon class="fil9" points="34.16,33.82 32.21,31.46 32.21,35.24 "/>
   <path class="fil12" d="M26.12 45.18c0,0 -3.83,-4.78 -6.11,-11.11 -2.28,-6.33 -2.8,-10.04 0.36,-10.38 -1.32,2.51 1.89,10.75 5.38,16.39 1.9,3.07 2.89,4.09 2.89,4.09 0,0 -2.07,1.19 -2.52,1.01z"/>
   <path class="fil9" d="M20.77 4.58l-0.76 0.31c-1.44,-1.13 -6.87,0.34 -9.39,3.42 1.84,-4.37 8.58,-5 8.58,-5l2.12 0 1.54 -0.98 -1.85 -1.27 2.86 1.44 -3.1 2.08z"/>
   <path class="fil13" d="M27.33 6.41c0,0 -2.12,0.49 -3.6,2.26 -1,1.19 -2.18,2.24 -0.14,1.71 0.38,-0.09 1.22,-0.31 1.57,-0.66 1.3,-1.26 2.83,-3.31 2.17,-3.31z"/>
   <path class="fil11" d="M27.33 6.41l-0.13 -0.1c-0.53,-0.36 -2.48,-1.58 -4.52,-1.25 -2.39,0.39 -4.46,1.89 -4.46,1.89 0,0 1.23,-1.82 2.63,-2.48 1.78,-0.84 3.61,-1.45 6.6,1.98l-0.12 -0.04z"/>
   <path class="fil14" d="M33.84 27.67c0.54,0.13 1.1,0.44 1.1,0.44 0,0 0.53,0.46 0.55,1.07 0.01,0.42 0.01,0.78 -0.26,1.05 -0.11,0.11 -0.36,0.12 -0.64,0.06 -0.26,-0.07 -0.56,-0.2 -0.76,-0.39 -0.72,-0.65 -1.18,-1.48 -0.94,-2.01 0.15,-0.31 0.55,-0.31 0.95,-0.22z"/>
   <path class="fil14" d="M38.98 28.53l-0.04 0.01c-0.28,0.04 -0.45,-0.17 -0.64,-0.43 -0.28,-0.37 -0.2,-1.04 -0.2,-1.04 0,0 0.17,-0.59 0.41,-1.06l0.18 -0.29c0.12,0.61 0.24,1.84 0.29,2.81z"/>
   <path class="fil13" d="M33.04 3.11c0,0 -0.59,-0.01 -1.78,0.95 -1.19,0.96 -2.31,2.6 -2.42,2.89 -0.12,0.3 -0.21,0.56 0.06,0.43 0.27,-0.13 0.54,-0.19 0.54,-0.19 0,0 2.79,-2.82 3.6,-4.08z"/>
   <path class="fil17" d="M15.13 4.86c-0.27,0.1 -0.53,0.23 -0.78,0.36 -2.15,1.21 -7.88,4.5 -6.33,17.48 1.35,11.25 1.89,20.68 1.89,20.68l-1.71 -0.99c0,0 -2.28,-18.99 -1.71,-27.13 0.66,-9.56 8.64,-10.4 8.64,-10.4l0 0z"/>
  </g>
 </g>
</svg>
