<?xml version="1.0" encoding="UTF-8"?>
<!DOCTYPE svg PUBLIC "-//W3C//DTD SVG 1.0//EN" "http://www.w3.org/TR/2001/REC-SVG-20010904/DTD/svg10.dtd">
<!-- Creator: CorelDRAW 2018 (64 Bit Versão de avaliação) -->
<svg xmlns="http://www.w3.org/2000/svg" xml:space="preserve" width="39px" height="72px" version="1.0" style="shape-rendering:geometricPrecision; text-rendering:geometricPrecision; image-rendering:optimizeQuality; fill-rule:evenodd; clip-rule:evenodd"
viewBox="0 0 39 72.62"
 xmlns:xlink="http://www.w3.org/1999/xlink">
 <defs>
  <style type="text/css">
   <![CDATA[
    .fil7 {fill:none;fill-rule:nonzero}
    .fil9 {fill:#464546;fill-rule:nonzero}
    .fil6 {fill:#F1F5F5;fill-rule:nonzero}
    .fil8 {fill:#E8EDEC;fill-rule:nonzero}
    .fil1 {fill:#DDE3E4;fill-rule:nonzero}
    .fil10 {fill:#D4DADA;fill-rule:nonzero}
    .fil12 {fill:#CED4D5;fill-rule:nonzero}
    .fil11 {fill:#C9CFCF;fill-rule:nonzero}
    .fil3 {fill:#C1C7C9;fill-rule:nonzero}
    .fil2 {fill:#AEB4B5;fill-rule:nonzero}
    .fil0 {fill:#A5ABAD;fill-rule:nonzero}
    .fil13 {fill:#6F7678;fill-rule:nonzero}
    .fil4 {fill:#2F3132;fill-rule:nonzero}
    .fil5 {fill:#2C2D2F;fill-rule:nonzero}
   ]]>
  </style>
 </defs>
 <g id="Camada_x0020_1">
  <metadata id="CorelCorpID_0Corel-Layer"/>
  <g id="_1658857615216">
   <path class="fil0" d="M38.99 29.17c0,-0.16 0,-0.33 -0.01,-0.51l0 -0.12 -0.01 -0.11c-0.01,-0.15 -0.02,-0.3 -0.03,-0.45l-0.02 -0.26c-0.01,-0.24 -0.04,-0.48 -0.06,-0.71l-0.01 -0.11c-0.02,-0.19 -0.04,-0.38 -0.06,-0.56l-0.03 -0.17 -0.06 -0.36 -0.01 -0.08 -0.05 -0.2c-0.21,-0.76 -1.06,-1.44 -1.77,-2.82 -0.45,-0.97 -0.8,-1.8 -1.1,-2.55 -0.2,-0.5 -0.42,-1.1 -0.68,-1.8 -0.62,-1.76 -1.07,-3.27 -2.05,-5.5 -0.07,-0.17 -0.16,-0.37 -0.25,-0.58l-0.15 -0.34c-0.14,-0.32 -0.31,-0.67 -0.51,-1.05 -1.25,-2.42 -2.31,-3.4 -2.68,-3.69l-0.01 -0.01c0,0 2.79,-2.81 3.6,-4.08l-0.15 -0.12c-3.02,-2.68 -6.5,-1.85 -9.03,-0.5 -0.32,-0.2 -1.37,-0.83 -2.81,-1.4l-0.04 -0.03 0.01 0.01c-2.5,-1 -6.13,-1.83 -9.09,0.07 -0.19,0.12 -1.73,1 -2.88,1.68 -0.87,0.4 -1.68,0.98 -2.42,1.77l-0.03 0.04c-0.27,0.29 -0.52,0.6 -0.77,0.95 -0.15,0.21 -0.29,0.44 -0.44,0.68 -0.12,0.21 -0.24,0.41 -0.35,0.64 -0.25,0.48 -0.47,1.01 -0.68,1.59l-0.04 0.1 -0.01 0.05 -0.05 0.13c-0.07,0.2 -0.1,0.42 -0.16,0.63 -1.78,6 -1.32,13.44 -0.63,19.77 0.13,1.21 1.38,11.29 1.38,11.29l0.01 0.01c-1.61,1.79 -1.99,3.86 -1.1,5.78l-0.13 -0.32 -0.01 0.09c-0.05,0.35 -0.05,1.11 0.18,1.84 -0.75,1.19 -1.51,2.39 -2.26,3.58 -0.21,0.32 -0.36,0.66 -0.5,0.99l0.08 -0.24 -0.1 0.28c-0.08,0.18 -0.14,0.37 -0.2,0.55 -0.05,0.17 -0.11,0.34 -0.15,0.51l0.09 -0.26c-0.04,0.15 -0.09,0.3 -0.12,0.46l0.03 -0.2 -0.07 0.36 -0.04 0.26c-0.16,1.01 -0.09,2 0.19,2.96 -0.1,0.23 -0.19,0.47 -0.28,0.76 -0.13,0.4 -0.18,0.57 -0.29,1.08 -0.04,0.2 -0.09,0.47 -0.11,0.68 -0.04,0.33 -0.06,0.78 -0.07,1.12l0 2.02c0.01,2.26 1.36,4.51 4.04,6.35l0 0.02c0.23,0.15 0.47,0.3 0.72,0.45 0.76,0.46 1.6,0.86 2.47,1.22 0.29,0.11 0.59,0.2 0.88,0.31 0.46,0.16 0.9,0.34 1.38,0.48l0 -0.04c6.28,1.8 14.08,1.26 19.43,-1.72 3.51,-1.96 5.27,-4.56 5.26,-7.17l-0.01 -2.02c-0.01,-0.7 -0.07,-1.27 -0.21,-1.91 -0.17,-0.73 -0.37,-1.24 -0.54,-1.66 0.34,-1.15 0.36,-2.35 0.06,-3.58l0.02 0.22c-0.04,-0.24 -0.1,-0.49 -0.17,-0.73l0.05 0.16 -0.09 -0.29 -0.15 -0.39 -0.14 -0.37 0.12 0.31c-0.15,-0.35 -0.31,-0.71 -0.54,-1.06 -0.55,-0.86 -1.1,-1.72 -1.66,-2.59 -0.21,-0.32 -0.42,-0.65 -0.63,-0.98 0.26,-0.78 0.34,-1.53 0.35,-2.06 0,-0.05 0.01,-0.15 0,-0.32l0 -0.17 0.06 -0.19c0.75,-1.56 1.42,-3.32 1.04,-4.05 -0.76,-1.44 -3.97,-8.4 -5.37,-11.08 -0.12,-0.24 -0.27,-0.5 -0.42,-0.78l0.12 0.07c0.21,0.09 0.22,0.45 0.44,0.52l0.69 1.33 0.83 1.78 4.18 2.42c4.42,-0.93 5.71,-3.52 5.71,-3.52 0,0 0.98,-1.21 1.06,-1.94 0.01,-0.11 0.02,-0.28 0.02,-0.47l-0.01 -0.15z"/>
   <polygon class="fil0" points="3.97,47.77 3.79,50.37 5.85,55.95 16.72,58.5 30.01,52.89 30.64,49.34 29.82,47.77 "/>
   <path class="fil1" d="M0 60.75c0.01,-0.34 0.03,-0.79 0.07,-1.12 0.02,-0.21 0.07,-0.48 0.11,-0.68 0.11,-0.51 0.16,-0.68 0.29,-1.08 0.11,-0.36 0.23,-0.64 0.35,-0.93 0.17,-0.43 0.85,-1.94 2.17,-3.42 -3.02,3.4 -2.17,7.67 2.65,10.56 6.06,3.65 16.09,3.75 22.41,0.23 5.2,-2.9 6.26,-7.35 3.09,-10.87 0.45,0.51 0.85,1.04 1.2,1.57 0.58,0.9 0.89,1.6 0.97,1.79 0.19,0.45 0.45,1.06 0.65,1.94 0.14,0.64 0.2,1.21 0.21,1.91 0.01,2.61 -1.75,5.21 -5.26,7.17 -6.81,3.8 -17.62,3.69 -24.16,-0.24 -3.17,-1.91 -4.75,-4.37 -4.75,-6.83z"/>
   <path class="fil2" d="M28.51 51.33l-1.06 -0.18c-5.5,-3.31 -14.6,-3.4 -20.33,-0.21 -5.73,3.2 -5.92,8.47 -0.42,11.78 5.5,3.31 14.6,3.4 20.33,0.21 5.73,-3.2 5.92,-8.47 0.42,-11.78l1.06 0.18c6.06,3.65 5.85,9.46 -0.46,12.98 -6.32,3.52 -16.35,3.42 -22.41,-0.23 -6.06,-3.64 -5.85,-9.45 0.47,-12.98 6.31,-3.52 16.34,-3.42 22.4,0.23z"/>
   <path class="fil0" d="M6.69 62.72l-0.32 -0.2 -0.73 -0.51c-1.83,-1.38 -2.81,-3.01 -2.94,-4.67l-1.46 0.82c0.15,1.82 1.22,3.62 3.24,5.14l0.8 0.56 0.36 0.22c1.84,1.11 1.57,3.19 3.33,1.56 1.17,-1.08 5.94,-0.27 5.94,-0.27 -2.14,-0.41 -6.55,-1.65 -8.22,-2.65z"/>
   <path class="fil1" d="M1.54 51.44c1.1,-1.73 2.19,-3.47 3.29,-5.2 -1.66,2.63 -0.74,5.68 2.83,7.83 4.97,2.99 13.22,3.08 18.41,0.18 3.86,-2.15 4.94,-5.35 3.19,-8.08l0.16 0.26c0.23,0.35 0.45,0.69 0.67,1.04 0.28,0.43 0.55,0.86 0.83,1.29 0.56,0.87 1.11,1.73 1.66,2.59 2.23,3.47 0.85,7.53 -4.05,10.27 -6.6,3.68 -17.08,3.57 -23.4,-0.24 -4.53,-2.72 -5.71,-6.61 -3.59,-9.94z"/>
   <path class="fil3" d="M29.5 50.61l-0.08 -0.19 -0.02 -0.09 -0.01 -0.04c-0.02,-0.13 -0.01,-0.26 0.01,-0.41l0.01 -0.07 0.03 -0.1 0.01 -0.05 0.05 -0.13c0.07,-0.15 0.19,-0.38 0.41,-0.82l0.02 -0.03 0.01 -0.02 0.01 -0.02 0.06 -0.12 -0.18 0.34c-0.09,0.16 -0.19,0.33 -0.3,0.49l-0.11 0.15 -0.25 0.32 -0.16 0.18 -0.27 0.3 -0.17 0.17 -0.33 0.29c-0.53,0.47 -1.16,0.92 -1.89,1.32 -2.26,1.26 -5.07,1.97 -7.96,2.15 -0.16,0.01 -0.32,0.01 -0.47,0.02l-0.27 0.01c-0.15,0 -0.3,0.01 -0.45,0.01l-0.27 0c-0.15,0 -0.3,0 -0.45,-0.01l-0.26 0c-0.18,-0.01 -0.35,-0.02 -0.53,-0.03l-0.13 -0.01c-0.33,-0.02 -0.66,-0.05 -0.98,-0.08l-0.25 -0.03c-0.3,-0.03 -0.61,-0.07 -0.91,-0.12l-0.17 -0.03c-0.3,-0.05 -0.59,-0.11 -0.88,-0.17l-0.24 -0.05c-0.28,-0.06 -0.56,-0.13 -0.84,-0.21l-0.25 -0.07c-0.25,-0.07 -0.49,-0.15 -0.73,-0.23l-0.1 -0.03 -0.16 -0.06c-0.28,-0.09 -0.54,-0.19 -0.8,-0.3l-0.09 -0.04 -0.12 -0.05c-0.23,-0.1 -0.45,-0.2 -0.68,-0.31l-0.2 -0.1 -0.03 -0.01c-0.27,-0.14 -0.53,-0.28 -0.78,-0.44 -0.17,-0.09 -0.32,-0.2 -0.48,-0.3l-0.06 -0.04 -0.07 -0.05 -0.32 -0.23 -0.01 0 -0.12 -0.1 -0.33 -0.26 -0.08 -0.07 -0.36 -0.33 -0.09 -0.09 -0.25 -0.25 -0.1 -0.12 -0.22 -0.26 -0.08 -0.09c-0.19,-0.25 -0.36,-0.51 -0.51,-0.77l-0.18 -0.33 0.11 0.2 0.01 0.02c0.27,0.54 0.43,0.87 0.5,1.12l0.02 0.15 0 0.03 0 0.19 -0.06 0.25 -0.03 0.07 -0.01 0.02 -0.04 0.08 -0.08 0.14c0.08,0.17 0.17,0.34 0.27,0.51l-0.01 -0.01c0.16,0.25 0.34,0.51 0.55,0.75l0.03 0.05 0 -0.01 0.24 0.27 0.05 0.05 0.03 0.04 0.08 0.07 0.15 0.15 0.09 0.09 0.08 0.07 0 0 0 0.01 0.04 0.03 0.06 0.05 0.1 0.08 0.07 0.06 0.06 0.05 0.1 0.08 0.04 0.04 0.08 0.06 0.08 0.06 0.07 0.05 0.1 0.08 0.19 0.13 0.08 0.05 0.06 0.04 0.06 0.04 0.04 0.03 0 0 0.36 0.23c0.15,0.09 0.31,0.18 0.47,0.27l0.03 0.01 0.04 0.02 0.02 0.02 0.02 0.01 0.05 0.02 0.03 0.02 0.05 0.02 0.1 0.06 0.1 0.04 0.06 0.03 0.05 0.03 0.08 0.04 0.05 0.02 0.04 0.02 0.09 0.04 0.08 0.04 0.06 0.03 0.06 0.02 0.03 0.02 0.05 0.02 0.12 0.05 0.08 0.03 0.03 0.02 0.05 0.01 0.09 0.04 0.08 0.04 0.02 0 0.06 0.03 0.07 0.02 0.13 0.05 0.01 0.01 0.06 0.02 0.03 0.01 0.08 0.03 0.08 0.03 0.01 0 0.01 0.01 0.12 0.04 0.08 0.02 0 0 0.02 0.01 0 0 0.06 0.02 0.05 0.02 0 0 0.01 0 0.14 0.05 0.04 0.01 0.02 0.01 0.06 0.02 0.06 0.01 0.1 0.03 0.16 0.05 0.11 0.04 0.07 0.02 0.01 0 0.04 0.01 0.07 0.02 0.08 0.02 0.13 0.03 0.07 0.02 0.07 0.02 0.12 0.03 0.05 0.01 0.04 0.01 0.05 0.01 0.15 0.04 0.14 0.03 0.07 0.02 0.08 0.01 0.02 0.01 0.01 0 0.07 0.01 0.07 0.02 0.08 0.01 0.03 0.01 0.03 0.01 0 0 0.07 0.01 0.15 0.03 0.07 0.01 0.02 0.01 0.02 0 0.14 0.02 0.23 0.04 0.09 0.02 0.02 0 0 0 0.04 0.01 0.05 0 0.1 0.02 0.18 0.02 0.2 0.03 0.11 0.01 0.01 0.01 0.01 0 0.09 0.01 0.08 0.01 0.04 0 0 0 0.02 0 0.14 0.02 0.07 0 0.11 0.02 0.07 0 0.02 0.01 0.14 0.01 0.07 0 0.19 0.02 0.11 0.01 0.07 0 0.02 0 0.06 0.01 0.16 0 0.06 0.01 0 0 0.02 0 0.24 0.01 0.05 0 0.03 0 0.03 0.01 0.01 0 0.03 0 0.05 0 0.22 0 0.29 0.01 0.02 0 0 0 0.08 0 0.07 0 0.03 0 0.18 0 0.37 -0.01 0.13 0 0 0 0.07 0 0.05 0 0.11 -0.01 0.38 -0.02 0.17 -0.01 -0.01 0 0.14 -0.01 0.07 0 0.09 -0.01c0.18,-0.01 0.37,-0.03 0.55,-0.05l0.03 0 0 0 0.09 -0.01 0.23 -0.03c0.19,-0.02 0.38,-0.05 0.57,-0.08l0.14 -0.01 -0.02 0c0.76,-0.12 1.51,-0.28 2.23,-0.48l-0.01 0.01 0.09 -0.03c0.27,-0.07 0.54,-0.15 0.81,-0.24l0.09 -0.03 0.06 -0.02 -0.01 0 0.14 -0.05 0.39 -0.14 0.19 -0.08 0.11 -0.04 0.1 -0.04 0 0 0.02 -0.01 0.18 -0.07 0.22 -0.1 0.22 -0.1 0.1 -0.04 0.11 -0.06 0.05 -0.02 0 0 0.02 -0.01 0.06 -0.03c0.19,-0.09 0.37,-0.19 0.55,-0.29 0.21,-0.12 0.41,-0.24 0.61,-0.36l0 0 0.01 -0.01 0.1 -0.07c0.15,-0.1 0.3,-0.2 0.45,-0.3l0.17 -0.14 0.33 -0.25 0.18 -0.16 0.27 -0.25 0.02 -0.02 0 0.01 0.03 -0.03 0.12 -0.13 0.21 -0.22 0.09 -0.1 0.09 -0.1 0.19 -0.24 0.1 -0.12 0.04 -0.07 0.19 -0.29 0.02 -0.03 0 0.01 0.04 -0.06 0.02 -0.04 0.02 -0.03 0.04 -0.08 0.2 -0.37 -0.07 -0.11 -0.02 -0.03 -0.02 -0.05z"/>
   <path class="fil4" d="M3.97 46.65c0.09,0.21 0.1,0.38 0.05,0.92 -0.05,0.59 -0.03,0.78 0.07,1.03 -0.32,-0.68 0.01,-1.75 -0.3,-2.3l0.18 0.35z"/>
   <path class="fil3" d="M0 62.77l0 -2.02c0,2.46 1.58,4.92 4.75,6.83 6.54,3.93 17.35,4.04 24.16,0.24 3.51,-1.96 5.27,-4.56 5.26,-7.17l0.01 2.02c0.01,2.61 -1.75,5.21 -5.26,7.17 -6.81,3.8 -17.63,3.69 -24.16,-0.25 -3.17,-1.91 -4.75,-4.36 -4.76,-6.82z"/>
   <path class="fil3" d="M5.37 62.56c-4.4,-2.72 -5.95,-6.5 -4.25,-10.37 -1.51,3.15 -0.19,6.67 4.01,9.19 6.32,3.81 16.8,3.92 23.4,0.24 4.56,-2.54 6.07,-6.23 4.47,-9.52 2.09,4.69 -0.6,9.2 -7.03,11.78 -5.38,2.08 -12.4,2.09 -17.75,0.05 -1.01,-0.41 -1.87,-0.76 -2.85,-1.37l0 0z"/>
   <polygon class="fil5" points="3.63,45.93 3.59,45.85 "/>
   <path class="fil5" d="M30.64 45.12l0.03 -0.39c-0.02,0.04 -0.03,0.16 -0.03,0.39z"/>
   <path class="fil3" d="M30.06 48.37l0.03 -0.08 0.01 -0.04 -0.04 0.14 0 -0.02zm-0.01 -1.43l0 -0.1 0 0.1zm-0.01 0.05c0,0.14 0.02,0.29 0.03,0.47 -0.02,-0.16 -0.03,-0.31 -0.03,-0.47zm0.11 0.97l-0.04 0.2 0.04 -0.2zm0.01 -0.31l-0.01 0.18 0.01 -0.18zm0 -0.17l0 -0.2 0 0.2zm0.02 -0.84l-0.01 0.12 0.01 -0.12zm0.06 -0.25l-0.03 0.1 0.03 -0.1zm-0.08 0.54l0 0.12 0 -0.12zm-26.07 0.19l0.01 0.03 -0.01 -0.03zm-0.08 1.24c-0.06,-0.27 -0.02,-0.55 0.01,-0.83l0 0.04c-0.04,0.45 -0.04,0.65 0.02,0.87l-0.03 -0.08zm0.03 -1.45l-0.03 -0.15 0.03 0.15zm-0.01 -0.11l0.04 0.16 -0.04 -0.16zm0.02 0.26l0 -0.05 0 0.05zm26.59 -1.66l0 -0.28c-0.04,0.27 -0.12,0.53 -0.15,0.62 -0.07,0.17 -0.15,0.38 -0.22,0.54l-0.15 0.29 -0.04 0.12 0.01 -0.02 0.03 -0.1c-0.67,1.22 -1.86,2.36 -3.56,3.3 -5.48,3.06 -14.19,2.97 -19.44,-0.19 -1.48,-0.89 -2.53,-1.93 -3.15,-3.03l-0.18 -0.35 -0.16 -0.37 -0.01 0.09c-0.05,0.37 -0.06,1.19 0.22,1.97l0.06 0.16c0.06,0.15 0.12,0.3 0.19,0.45l0.18 0.33 0 0 0 0c0.61,1.08 1.63,2.09 3.08,2.96 5.13,3.1 13.64,3.18 19,0.19 1.66,-0.92 2.82,-2.03 3.48,-3.22l0.18 -0.34 0 -0.01 0 0.01c0.48,-1.05 0.61,-2.1 0.63,-2.8 0,-0.05 0.01,-0.15 0,-0.32z"/>
   <path class="fil6" d="M30.64 44.28c0.04,0.88 -0.14,1.78 -0.52,2.59 -0.41,0.8 -0.95,1.54 -1.63,2.14 -1.32,1.24 -2.97,2.04 -4.66,2.59 -1.72,0.51 -3.49,0.78 -5.26,0.83 -1.77,0.04 -3.54,-0.15 -5.26,-0.49 1.75,0.08 3.5,0.15 5.24,0.01 1.73,-0.15 3.45,-0.41 5.09,-0.94 1.65,-0.49 3.22,-1.26 4.54,-2.35 1.33,-1.07 2.3,-2.61 2.46,-4.38z"/>
   <line class="fil7" x1="4.27" y1="48.93" x2="4.27" y2= "48.93" />
   <path class="fil2" d="M4.75 67.57c-0.24,-0.14 -0.47,-0.29 -0.69,-0.43l0.33 0.02 0.35 -0.17c0.14,-0.14 0.36,-0.19 0.49,-0.35 0,0 0.15,-0.18 0.22,-0.52 0.03,-0.13 0.1,-0.48 0.03,-1l-0.07 -0.39 -0.01 -0.04c-0.08,-0.3 0.06,-0.66 -0.23,-0.9 0.15,0.1 0.31,0.19 0.47,0.29 1.06,0.64 2.24,1.17 3.5,1.59l-0.17 -0.03c-0.07,0.02 -0.72,0.87 -0.68,1.96 0.01,0.19 0.03,0.68 0.82,1.69l0.34 0.28c-1.71,-0.49 -3.3,-1.16 -4.7,-2z"/>
   <path class="fil6" d="M24.9 67.28c-0.07,0.69 -0.86,1.23 -2.35,1.59 -0.02,0.01 -1.84,0.38 -2.38,-0.42 -0.41,-0.6 0.5,-1.34 0.65,-1.43 0.58,-0.33 2.4,-0.76 2.91,-0.67 1.12,0.19 1.19,0.72 1.17,0.93z"/>
   <path class="fil2" d="M5.08 61.36l2.54 -7.32 0.03 0.02c0.83,0.5 1.74,0.92 2.71,1.25l-1.79 7.66c-1.24,-0.43 -2.4,-0.96 -3.45,-1.59l-0.04 -0.02z"/>
   <path class="fil6" d="M23.21 55.46c-0.25,0.08 -0.5,0.15 -0.76,0.22 -0.73,0.2 -1.49,0.35 -2.27,0.46l0.87 7.88c0.98,-0.14 1.95,-0.34 2.89,-0.58 0.32,-0.09 0.64,-0.19 0.96,-0.28l-1.69 -7.7z"/>
   <path class="fil0" d="M13.51 54.4c-0.06,0.13 -0.61,0.33 -1.84,0.34l-1.63 0.09 0 0.15c0.07,0.16 0.33,0.25 0.48,0.36l0.03 0.04c-1.04,-0.35 -2.02,-0.79 -2.9,-1.32l-0.36 -0.22 0.41 0.1c0.4,0.18 0.4,0.18 0.69,0.15 -0.59,-0.87 -1.45,-1.51 -2.06,-2.36 -0.53,-0.75 -0.49,-0.85 -0.46,-0.9 0.43,0.37 0.92,0.73 1.47,1.06 1.61,0.97 3.56,1.65 5.63,2.02l0.26 0.13c0,0.01 0.33,0.2 0.28,0.35l0 0.01z"/>
   <path class="fil0" d="M4.04 69.14l0 -2.02c0.22,0.15 0.46,0.3 0.71,0.45 1.41,0.85 3.01,1.52 4.73,2.01l0.01 2.02c-1.72,-0.49 -3.33,-1.16 -4.73,-2.01 -0.25,-0.15 -0.49,-0.3 -0.72,-0.45z"/>
   <path class="fil0" d="M28.28 62.81c-1.14,0.58 -1.28,0.66 -2.31,1.07 -5.38,2.08 -12.4,2.09 -17.76,0.05 -0.28,-0.11 -0.66,-0.27 -0.94,-0.39 -1.18,-0.55 -1.25,-0.59 -1.9,-0.98l-0.72 -0.46c-0.87,-0.63 -0.9,-0.65 -1.35,-1.05l-0.48 -0.47 -0.21 -0.21 0.09 0.09c0.71,0.68 1.92,1.15 2.71,1.26l-0.13 -0.24c1,0.58 2.09,1.08 3.26,1.48l-0.13 0.04c2.66,2.64 13.4,4.06 21.1,-0.96l-0.73 0.47 -0.5 0.3z"/>
   <path class="fil0" d="M12.56 51.76c-1.76,-0.13 -2.29,0.23 -1.57,1.06 0.39,0.46 1.29,0.85 1.98,1.09 -2.07,-0.37 -4.02,-1.05 -5.63,-2.02 -0.55,-0.33 -1.04,-0.69 -1.47,-1.06l0.1 0.03c1.4,0.26 0.87,-0.73 0.57,-1.17 -0.18,-0.27 -0.85,-0.97 -1.13,-1.26 0.49,0.44 1.05,0.86 1.7,1.24 1.81,1.09 4.03,1.82 6.39,2.18 -0.29,-0.03 -0.66,-0.07 -0.94,-0.09z"/>
   <path class="fil8" d="M26.96 38.61l0 0c5.26,3.16 5.08,8.21 -0.4,11.26 -5.48,3.06 -14.19,2.97 -19.44,-0.19 -5.26,-3.17 -5.08,-8.21 0.4,-11.27 5.48,-3.05 14.18,-2.96 19.44,0.2z"/>
   <path class="fil0" d="M13.73 19.4c-1.56,-12.98 3.57,-12.59 5.73,-13.79 2.69,-1.51 4.51,-3.05 4.51,-3.05 0,0 -7.01,-4.65 -12.04,-1.42 -0.29,0.19 -3.83,2.19 -4.11,2.44 -1.14,1 2.88,-0.26 2.15,1.89 -2.06,6.12 -1.51,13.79 -0.79,20.41 0.13,1.21 1.38,11.29 1.38,11.29l5.05 2.92c0,0 -0.53,-9.43 -1.88,-20.69z"/>
   <polygon class="fil9" points="30.78,30.41 31.16,31.69 30.78,32.01 "/>
   <path class="fil2" d="M38.98 29.79c-0.08,0.73 -1.06,1.94 -1.06,1.94l-5.71 3.52 -1.05 -3.56 2.58 -2.15 -2.69 -4.08 -1.27 -1.93c-2.25,-0.63 -3.53,-2.22 -4.59,-2.59 -1.13,0.04 -1.68,0.49 -1.85,1.19 -0.25,0.98 0.26,2.45 0.96,3.92 0.69,1.44 1.55,2.88 2.07,3.86 1.4,2.68 4.61,9.64 5.37,11.08 0.76,1.44 -2.6,6.91 -2.6,6.91 0,0 -0.54,0.7 -1.68,1.48 -1.48,1.01 -3.95,1.79 -4.02,1.81l0 0.01 -1.25 -1.41 -10.81 -12.15c0,0 0.17,-14.81 4.11,-26.5 0.64,-1.88 -3.56,-0.57 -2.6,-1.55 0.29,-0.3 5.63,-3.25 5.94,-3.48 0.81,-0.6 0.53,-0.76 1.18,-1.21 3.39,-2.37 5.87,-3.1 5.87,-3.1 0,0 0.17,-0.46 2.76,-0.39 2.59,0.08 4.4,1.7 4.4,1.7l-3.74 3.98c0,0 2.11,1.26 4.2,6.95 2.1,5.69 2.65,7.28 3.37,8.67 0.71,1.38 1.56,2.06 1.77,2.82 0.21,0.74 0.42,3.54 0.34,4.26z"/>
   <path class="fil2" d="M29.44 7.19c0,0 -0.82,0.27 -1.44,0 -0.61,-0.28 -0.8,0.07 -0.8,0.07l-2.04 2.47 -1.57 0.66c0,0 3.05,2.62 5.13,7.71 2.09,5.09 3.83,6.52 3.83,6.52 0,0 4.1,-0.48 4.32,-1.91 -2.05,-4.38 -2.17,-6.08 -3.83,-9.85 -0.53,-1.22 -1.34,-3.33 -3.6,-5.67z"/>
   <path class="fil0" d="M24.93 9.15c0,0 2.32,-0.17 4.21,4.37 1.9,4.53 2.8,7.48 4.92,10.43 1.55,-0.69 1.94,-0.86 1.94,-0.86 0,0 -1.43,-2.08 -2.5,-5.92 -1.06,-3.84 -3.36,-7.22 -5.16,-8.86 -1.8,-1.64 -3.15,-1.1 -3.15,-1.1l-0.26 1.94z"/>
   <path class="fil10" d="M33.04 3.11c0,0 -2.21,-1.81 -5.43,-1.35 -3.22,0.47 -6.61,2.93 -6.61,2.93 0,0 -0.57,0.27 0,-0.23 1.92,-1.69 7.54,-5.54 12.04,-1.35z"/>
   <path class="fil10" d="M31.74 40.99c0.02,1.66 -1.12,1.69 -1.12,1.69 0,0 -5.57,-10.82 -6.89,-14.71 -1.35,-3.99 -0.39,-5.84 -0.39,-5.84l0 0c-0.25,0.98 0.26,2.45 0.96,3.92 0.69,1.44 1.55,2.88 2.07,3.86 1.4,2.68 4.61,9.64 5.37,11.08z"/>
   <path class="fil0" d="M29.14 47.9c0,0 -0.54,0.7 -1.68,1.48 -1.48,1.01 -3.95,1.79 -4.02,1.81l0 0.01 -1.25 -1.41c0.05,-0.5 0.09,-0.87 0.09,-0.87l3.84 -3.73c5.43,-2.02 5.62,-4.2 5.62,-4.2 0.76,1.44 -2.6,6.91 -2.6,6.91z"/>
   <path class="fil11" d="M35.21 31.89c-0.08,0.73 -1.05,1.94 -1.05,1.94l-1.95 -2.36 0 3.78 -4.18 -2.42 -0.83 -1.78 -0.69 -1.33c-0.22,-0.07 -0.23,-0.43 -0.44,-0.52 -1.84,-0.72 -5.8,-4.62 -5.7,-5.51 -3.92,0.67 -1.12,6.82 0.29,9.51 1.17,2.25 3.6,7.47 4.81,9.97 0.24,0.49 0.43,0.88 0.56,1.11 0.75,1.43 -2.5,6.76 -2.59,6.91l0 0.01 -18.59 -10.74c0,0 -0.43,-9.03 -0.57,-10.24 -0.71,-6.62 -2.08,-15.33 -0.02,-21.45 3.95,-11.69 15.75,-3.87 15.75,-3.87 0,0 0.21,-0.23 1.01,-0.37 0.48,-0.09 1.15,-0.15 2.12,-0.13 2.59,0.08 4.19,2.01 4.19,2.01l-3.74 3.98c0,0 2.79,1.37 4.88,7.06 1.09,2.97 2.73,5.41 4.08,7.17 1.24,1.6 2.23,2.64 2.33,3 0.21,0.75 0.42,3.54 0.33,4.27z"/>
   <path class="fil12" d="M21.31 4.29c-0.2,-0.03 -3.59,-0.44 -6.18,0.57 -0.27,0.1 -0.53,0.22 -0.78,0.36 -2.16,1.21 -7.89,4.5 -6.33,17.48 1.35,11.25 1.88,20.68 1.88,20.68l-1.7 -0.98 -3.35 -1.94c0,0 -1.25,-10.08 -1.38,-11.29 -0.72,-6.61 -1.21,-14.46 0.85,-20.58 3.88,-11.51 16.59,-4.52 16.99,-4.3z"/>
   <path class="fil0" d="M24.72 17.32c1.08,1 1.65,2.99 1.65,2.99 0,0 -0.49,-0.06 -1.07,-0.44 -0.29,-0.18 -0.61,-0.45 -0.89,-0.82 -0.86,-1.13 -0.66,-2.26 -0.66,-2.26l0.97 0.53z"/>
   <path class="fil1" d="M24.51 17.75l0.13 0.28 -0.05 0.11c-0.05,0.11 0.02,0.35 0.15,0.57 0.12,0.22 0.15,0.51 0.15,0.51l-0.05 -0.03c-0.12,-0.07 -0.48,-0.31 -0.61,-0.85 -0.17,-0.65 0.28,-0.59 0.28,-0.59z"/>
   <path class="fil10" d="M24.42 17.04c0.39,0.24 0.81,0.63 1.16,1.25 0.89,1.55 0.93,2.56 0.93,2.56 0,0 -0.88,-2.27 -1.71,-3.16 -0.37,-0.4 -0.7,-0.66 -0.95,-0.82 -0.32,-0.2 -0.51,-0.26 -0.51,-0.26 0,0 0.49,0.05 1.08,0.43z"/>
   <path class="fil0" d="M38.98 29.79c-0.08,0.73 -1.06,1.94 -1.06,1.94 0,0 -1.29,2.59 -5.71,3.52l0 -3.78 1.95 2.36c0,0 0.97,-1.21 1.05,-1.94 0.09,-0.73 -0.12,-3.52 -0.33,-4.27 -0.1,-0.36 -1.09,-1.4 -2.33,-3 4.32,-1.91 4.32,-1.91 4.32,-1.91 0.71,1.38 1.56,2.06 1.77,2.82l0.05 0.2c0.12,0.61 0.24,1.83 0.29,2.81 0.02,0.54 0.03,1.01 0,1.25z"/>
   <path class="fil2" d="M35.21 31.89c-0.08,0.73 -1.05,1.94 -1.05,1.94l-1.95 -2.36 0 3.78 -4.18 -2.42 -0.83 -1.78c0,0 0.79,-3.44 3.85,-5.59 0.45,-0.31 0.95,-0.6 1.5,-0.84 1.24,1.6 2.23,2.64 2.33,3 0.21,0.75 0.42,3.54 0.33,4.27z"/>
   <polygon class="fil13" points="34.16,33.83 32.21,31.47 32.21,35.25 "/>
   <path class="fil10" d="M26.12 45.19c0,0 -3.83,-4.79 -6.11,-11.12 -2.28,-6.32 -2.81,-10.03 0.36,-10.38 -1.33,2.51 1.89,10.76 5.37,16.4 1.91,3.07 2.9,4.08 2.9,4.08 0,0 -2.07,1.2 -2.52,1.02z"/>
   <path class="fil0" d="M20.77 4.58l-0.76 0.32c-1.45,-1.13 -6.87,0.33 -9.39,3.41 1.83,-4.37 8.58,-5 8.58,-5l2.12 0 1.54 -0.97 -1.85 -1.28 2.85 1.45 -3.09 2.07z"/>
   <path class="fil13" d="M27.33 6.41c0,0 -2.12,0.5 -3.6,2.26 -1,1.19 -2.19,2.24 -0.14,1.72 0.38,-0.1 1.21,-0.32 1.57,-0.66 1.3,-1.26 2.83,-3.32 2.17,-3.32z"/>
   <path class="fil10" d="M27.33 6.41l-0.13 -0.1c-0.53,-0.36 -2.49,-1.58 -4.53,-1.25 -2.38,0.39 -4.46,1.9 -4.46,1.9 0,0 1.24,-1.83 2.64,-2.49 1.78,-0.84 3.61,-1.44 6.6,1.98l-0.12 -0.04z"/>
   <path class="fil13" d="M33.84 27.68c0.54,0.13 1.09,0.43 1.09,0.43 0,0 0.54,0.47 0.56,1.07 0.01,0.43 0.01,0.78 -0.26,1.05 -0.12,0.12 -0.36,0.13 -0.64,0.06 -0.27,-0.06 -0.56,-0.2 -0.76,-0.38 -0.72,-0.66 -1.18,-1.48 -0.94,-2.01 0.15,-0.31 0.55,-0.32 0.95,-0.22z"/>
   <path class="fil13" d="M38.98 28.54l-0.04 0c-0.28,0.04 -0.45,-0.17 -0.64,-0.43 -0.28,-0.37 -0.2,-1.04 -0.2,-1.04 0,0 0.17,-0.59 0.41,-1.05l0.18 -0.29c0.12,0.61 0.24,1.83 0.29,2.81z"/>
   <path class="fil13" d="M33.04 3.11c0,0 -0.59,-0.01 -1.78,0.96 -1.19,0.95 -2.31,2.59 -2.42,2.89 -0.12,0.29 -0.21,0.55 0.06,0.42 0.27,-0.13 0.54,-0.19 0.54,-0.19 0,0 2.79,-2.81 3.6,-4.08z"/>
   <path class="fil0" d="M15.13 4.86c-0.27,0.1 -0.53,0.22 -0.78,0.36 -2.16,1.21 -7.89,4.5 -6.33,17.48 1.35,11.25 1.88,20.68 1.88,20.68l-1.7 -0.98c0,0 -2.28,-19 -1.72,-27.14 0.67,-9.56 8.64,-10.4 8.64,-10.4l0.01 0z"/>
  </g>
 </g>
</svg>
