<?xml version="1.0" encoding="UTF-8"?>
<!DOCTYPE svg PUBLIC "-//W3C//DTD SVG 1.0//EN" "http://www.w3.org/TR/2001/REC-SVG-20010904/DTD/svg10.dtd">
<!-- Creator: CorelDRAW 2018 (64 Bit Versão de avaliação) -->
<svg xmlns="http://www.w3.org/2000/svg" xml:space="preserve" width="37px" height="83px" version="1.0" style="shape-rendering:geometricPrecision; text-rendering:geometricPrecision; image-rendering:optimizeQuality; fill-rule:evenodd; clip-rule:evenodd"
viewBox="0 0 38.17 85.46"
 xmlns:xlink="http://www.w3.org/1999/xlink">
 <defs>
  <style type="text/css">
   <![CDATA[
    .fil11 {fill:#565658;fill-rule:nonzero}
    .fil1 {fill:#545456;fill-rule:nonzero}
    .fil10 {fill:#525253;fill-rule:nonzero}
    .fil16 {fill:#4E4E4F;fill-rule:nonzero}
    .fil4 {fill:#4A4A4B;fill-rule:nonzero}
    .fil9 {fill:#464546;fill-rule:nonzero}
    .fil7 {fill:#5C5E60;fill-rule:nonzero}
    .fil13 {fill:#56595A;fill-rule:nonzero}
    .fil14 {fill:#424647;fill-rule:nonzero}
    .fil2 {fill:#38393C;fill-rule:nonzero}
    .fil8 {fill:#323436;fill-rule:nonzero}
    .fil0 {fill:#2F3132;fill-rule:nonzero}
    .fil15 {fill:#2D3031;fill-rule:nonzero}
    .fil5 {fill:#2D2E2F;fill-rule:nonzero}
    .fil6 {fill:#2C2D2F;fill-rule:nonzero}
    .fil3 {fill:#292A2C;fill-rule:nonzero}
    .fil12 {fill:#292A2B;fill-rule:nonzero}
   ]]>
  </style>
 </defs>
 <g id="Camada_x0020_1">
  <metadata id="CorelCorpID_0Corel-Layer"/>
  <g id="_1658857447168">
   <path class="fil0" d="M32.79 82.62c3.58,-2 5.38,-4.66 5.38,-7.33l-0.01 -2.06c-0.01,-0.71 -0.08,-1.29 -0.22,-1.95 -0.17,-0.74 -0.37,-1.27 -0.55,-1.7 0.35,-1.17 0.37,-2.4 0.05,-3.65l0.04 0.22c-0.05,-0.25 -0.11,-0.5 -0.19,-0.74l0.06 0.16 -0.09 -0.3 -0.15 -0.4 -0.15 -0.38 0.12 0.32c-0.16,-0.36 -0.32,-0.72 -0.55,-1.08 -0.56,-0.88 -1.13,-1.76 -1.69,-2.64 -0.22,-0.34 -0.43,-0.67 -0.65,-1 0.26,-0.81 0.35,-1.57 0.36,-2.11l0 -0.24 0.04 -0.39c0.18,-0.84 0.13,-1.68 -0.13,-2.51 1.58,-5.57 3.06,-14.47 0.65,-24.4 -4.03,-16.59 -15.21,-23.34 -15.21,-23.34 0,0 0.02,-1.38 -2.63,-4.36 -2.65,-2.98 -4.85,-2.74 -4.85,-2.74 0,0 -0.92,2.23 3.37,7.89 -0.23,-0.28 -0.54,-0.64 -0.93,-1.05l0.03 0.02 -0.29 -0.28 -0.28 -0.28c-0.37,-0.38 -0.73,-0.77 -1.12,-1.12 -0.61,-0.53 -1.26,-1 -1.96,-1.4 -0.7,-0.41 -1.46,-0.74 -2.28,-0.9 -0.82,-0.14 -1.67,-0.19 -2.54,0.24l-0.13 0.06 -0.01 0.17c-0.05,1.56 0.21,3.07 0.72,4.51 0.24,0.73 0.59,1.42 1,2.06 0.17,0.28 0.38,0.53 0.59,0.78 -0.79,0.47 -1.51,0.92 -1.97,1.27l-0.12 0.07 -0.15 0.16 -0.06 0.06 -0.2 0.22c-0.22,0.23 -0.45,0.5 -0.66,0.83 -0.79,1.19 -1.49,2.08 -2.11,2.76l0 0 -0.01 0c-0.16,0.19 -0.33,0.36 -0.48,0.51l0 0.01c-0.17,0.17 -0.34,0.32 -0.49,0.45l-0.04 0.03 0 0c-1.17,1.03 -1.86,1.18 -2.05,1.46l-0.03 0.05c-0.22,0.52 -0.26,2.33 -0.18,3.17 0.09,0.84 1.08,3.23 1.08,3.23l2.55 -0.81 0 3.86 2.77 1.6 2.35 -1.79 0.41 -0.31 0.76 -0.58c1.78,1.55 2.94,2.51 3.89,3.28 0.26,0.23 0.52,0.43 0.76,0.63 0.88,1.05 1.41,1.93 1.69,2.71 0.68,1.86 -0.1,3.01 -1.09,3.81 -1.13,0.53 -2.14,1 -2.47,1.25 -0.03,0.02 -5.74,3.21 -5.83,3.36l-0.01 0.01c-0.77,0.57 1.44,10.44 1.44,10.44l0.02 0.01c-1.78,1.86 -2.21,4.05 -1.27,6.06l-0.14 -0.32 -0.01 0.09c-0.04,0.36 -0.05,1.14 0.19,1.89l0 0c-0.77,1.22 -1.54,2.43 -2.32,3.65 -0.21,0.33 -0.36,0.67 -0.5,1.01l0.08 -0.24 -0.11 0.29c-0.08,0.18 -0.14,0.37 -0.2,0.56 -0.05,0.17 -0.12,0.34 -0.15,0.52l0.09 -0.27c-0.04,0.15 -0.09,0.31 -0.12,0.47l0.03 -0.2 -0.07 0.36 -0.04 0.27c-0.16,1.04 -0.1,2.05 0.19,3.02 -0.1,0.24 -0.19,0.48 -0.29,0.78 -0.13,0.41 -0.18,0.58 -0.29,1.1 -0.04,0.21 -0.09,0.49 -0.12,0.7 -0.03,0.34 -0.06,0.8 -0.07,1.14l0.01 2.06c0,2.32 1.39,4.62 4.13,6.49l0 0.02c0.23,0.16 0.47,0.32 0.72,0.47 0.79,0.47 1.64,0.88 2.53,1.24 0.29,0.12 0.6,0.21 0.9,0.31 0.47,0.17 0.92,0.36 1.41,0.5l0 -0.05c6.41,1.84 14.39,1.3 19.85,-1.75z"/>
   <path class="fil1" d="M27.19 72.37c0,0 1.15,-0.41 3,-1.52 1.86,-1.12 2.55,-2.18 2.55,-2.18l-2.12 0 -3.43 3.7z"/>
   <polygon class="fil2" points="30.24,62.74 30.03,62.58 30.04,62.58 "/>
   <path class="fil1" d="M29.54 70.59l-2.35 1.78 -2.77 -1.6 0 -3.86 -2.55 0.81c0,0 -0.99,-2.38 -1.08,-3.23 -0.08,-0.84 -0.04,-2.65 0.18,-3.17l0.03 -0.05c0.45,-0.83 2.89,-2.35 3.06,-2.46l0.01 0c-0.07,0.08 -0.58,0.67 -0.99,0.98l-0.03 0.02 0 0.01c-0.35,0.67 0.46,3.06 2.32,6.39 1.87,3.34 4.17,4.38 4.17,4.38z"/>
   <path class="fil3" d="M6.92 64.28l0.21 -4.11 4.85 3.38 21.92 -3.25 0.55 1.82c0,0 -7.88,8.4 -8.64,8.4 -0.76,0.01 -9.5,-0.18 -10.77,-0.29 -1.28,-0.12 -8.12,-5.95 -8.12,-5.95z"/>
   <path class="fil0" d="M3.24 73.33c0.01,-0.34 0.04,-0.8 0.07,-1.14 0.03,-0.21 0.08,-0.49 0.12,-0.7 0.11,-0.52 0.16,-0.69 0.29,-1.1 0.12,-0.37 0.23,-0.65 0.36,-0.95 0.18,-0.44 0.87,-1.98 2.22,-3.49 -3.09,3.47 -2.21,7.83 2.71,10.79 6.19,3.73 16.44,3.83 22.89,0.23 5.31,-2.96 6.4,-7.51 3.16,-11.1 0.46,0.52 0.87,1.06 1.22,1.6 0.6,0.92 0.92,1.63 1,1.83 0.19,0.45 0.46,1.08 0.66,1.98 0.14,0.66 0.21,1.24 0.22,1.95 0.01,2.66 -1.79,5.33 -5.37,7.33 -6.96,3.88 -18.01,3.76 -24.69,-0.25 -3.24,-1.95 -4.85,-4.46 -4.86,-6.98z"/>
   <path class="fil4" d="M32.38 63.71l-1.09 -0.19c-5.62,-3.38 -14.92,-3.47 -20.77,-0.21 -5.86,3.27 -6.05,8.66 -0.43,12.04 5.61,3.38 14.92,3.47 20.77,0.21 5.86,-3.27 6.05,-8.66 0.43,-12.04l1.09 0.19c6.19,3.73 5.97,9.66 -0.48,13.26 -6.45,3.6 -16.7,3.5 -22.89,-0.23 -6.19,-3.73 -5.98,-9.66 0.47,-13.26 6.46,-3.6 16.7,-3.49 22.9,0.23z"/>
   <path class="fil3" d="M10.08 75.35l-0.33 -0.21 -0.74 -0.52c-1.87,-1.41 -2.87,-3.08 -3,-4.77l-1.5 0.84c0.15,1.86 1.25,3.7 3.31,5.25l0.82 0.57 0.36 0.23c1.88,1.13 4.14,1.93 6.55,2.39l0.47 -1.62c-2.19,-0.41 -4.23,-1.14 -5.94,-2.16z"/>
   <path class="fil0" d="M4.81 63.82c1.13,-1.77 2.25,-3.54 3.37,-5.31 -1.7,2.68 -0.75,5.8 2.89,8 5.08,3.06 13.5,3.14 18.81,0.19 3.94,-2.21 5.05,-5.47 3.26,-8.26l0.17 0.27c0.22,0.35 0.45,0.7 0.68,1.05 0.28,0.44 0.56,0.89 0.85,1.33 0.56,0.88 1.13,1.76 1.69,2.64 2.28,3.55 0.87,7.7 -4.14,10.49 -6.74,3.76 -17.44,3.65 -23.91,-0.24 -4.63,-2.78 -5.83,-6.75 -3.67,-10.16z"/>
   <path class="fil0" d="M7.43 60.92c-0.08,-0.16 -0.14,-0.31 -0.2,-0.46l-0.06 -0.17c-0.29,-0.79 -0.28,-1.63 -0.23,-2.01l-0.02 -0.17c0.05,0.16 0.12,0.31 0.19,0.46 0.32,0.56 -0.02,1.65 0.32,2.35z"/>
   <path class="fil0" d="M34.55 57.98c-0.02,0.71 -0.15,1.79 -0.65,2.86 0.32,-0.67 0.02,-1.7 0.27,-2.28 0.07,-0.16 0.16,-0.39 0.23,-0.56 0.04,-0.14 0.2,-0.64 0.18,-1.04 -0.03,0.06 -0.03,0.26 -0.03,0.69 0.01,0.17 0,0.27 0,0.33z"/>
   <path class="fil5" d="M33.38 62.97l-0.07 -0.19 -0.03 -0.1 0 -0.03c-0.02,-0.13 -0.02,-0.27 0,-0.42l0.01 -0.07 0.03 -0.11 0.02 -0.05 0.05 -0.13c0.06,-0.15 0.18,-0.39 0.42,-0.83l0.01 -0.04 0.02 -0.02 0.01 -0.02 0.05 -0.12 -0.17 0.35c-0.1,0.16 -0.2,0.33 -0.32,0.49l-0.11 0.16 -0.26 0.33 -0.15 0.18 -0.28 0.3 -0.18 0.18 -0.33 0.3c-0.55,0.48 -1.19,0.93 -1.93,1.35 -2.31,1.29 -5.19,2.01 -8.14,2.19 -0.16,0.01 -0.32,0.02 -0.48,0.02l-0.27 0.01c-0.16,0.01 -0.31,0.01 -0.46,0.01l-0.28 0c-0.15,0 -0.31,0 -0.46,-0.01l-0.26 0c-0.18,-0.01 -0.36,-0.02 -0.54,-0.03l-0.14 0c-0.34,-0.03 -0.67,-0.05 -1,-0.09l-0.25 -0.03c-0.31,-0.03 -0.63,-0.08 -0.94,-0.13l-0.16 -0.02c-0.31,-0.06 -0.61,-0.11 -0.91,-0.18l-0.24 -0.05c-0.29,-0.07 -0.58,-0.14 -0.86,-0.21l-0.26 -0.07c-0.25,-0.08 -0.5,-0.16 -0.74,-0.24l-0.11 -0.03 -0.16 -0.06c-0.28,-0.1 -0.55,-0.2 -0.82,-0.31l-0.09 -0.04 -0.11 -0.05c-0.24,-0.1 -0.47,-0.21 -0.7,-0.32l-0.21 -0.1 -0.03 -0.01c-0.27,-0.14 -0.54,-0.29 -0.8,-0.45 -0.17,-0.1 -0.33,-0.2 -0.48,-0.3l-0.07 -0.05 -0.07 -0.05 -0.32 -0.23 -0.01 -0.01 -0.13 -0.09 -0.33 -0.27 -0.09 -0.07 -0.37 -0.34 -0.09 -0.09 -0.25 -0.26 -0.11 -0.12 -0.22 -0.26 -0.08 -0.1c-0.2,-0.25 -0.37,-0.52 -0.52,-0.78l-0.18 -0.34 0.1 0.2 0.01 0.02c0.28,0.55 0.44,0.89 0.51,1.15l0.02 0.15 0.01 0.03 -0.01 0.2 -0.06 0.25 -0.03 0.08 0 0.01 -0.05 0.09 -0.08 0.14c0.08,0.18 0.18,0.35 0.28,0.52l-0.01 -0.01c0.16,0.26 0.35,0.52 0.56,0.77l0.03 0.04 0 0 0.25 0.28 0.04 0.04 0.04 0.04 0.08 0.08 0.15 0.15 0.1 0.09 0.08 0.07 -0.01 0 0.01 0.01 0.04 0.03 0.06 0.05 0.1 0.09 0.07 0.06 0.06 0.05 0.1 0.08 0.05 0.04 0.07 0.06 0.09 0.07 0.07 0.05 0.11 0.08 0.19 0.13 0.08 0.05 0.06 0.05 0.06 0.04 0.04 0.03 0 0 0.01 0 0.36 0.23c0.16,0.09 0.32,0.18 0.48,0.27l0.03 0.02 0.04 0.02 0.02 0.01 0.03 0.01 0.04 0.03 0.04 0.02 0.05 0.02 0.1 0.05 0.09 0.05 0.07 0.03 0.05 0.03 0.08 0.04 0.06 0.02 0.04 0.03 0.09 0.04 0.08 0.03 0.06 0.03 0.06 0.03 0.03 0.01 0.06 0.03 0.12 0.05 0.08 0.03 0.03 0.02 0.04 0.01 0.11 0.04 0.07 0.03 0.03 0.01 0.06 0.03 0.07 0.03 0.13 0.04 0.01 0.01 0.06 0.02 0.04 0.02 0.08 0.02 0.08 0.03 0 0.01 0.01 0 0.13 0.04 0.08 0.03 0 0 0.02 0.01 0 0 0.07 0.02 0.04 0.02 0 -0.01 0.01 0.01 0.14 0.05 0.04 0.01 0.03 0 0.06 0.02 0.06 0.02 0.1 0.03 0.17 0.05 0.11 0.04 0.07 0.02 0.01 0 0.04 0.01 0.07 0.02 0.09 0.02 0.13 0.04 0.06 0.01 0.09 0.03 0.11 0.03 0.05 0.01 0.04 0.01 0.05 0.01 0.16 0.04 0.14 0.03 0.08 0.01 0.08 0.02 0.02 0.01 0.01 0 0.07 0.01 0.07 0.02 0.09 0.02 0.02 0 0.03 0.01 0 0 0 0 0.07 0.01 0.16 0.03 0.07 0.01 0.02 0.01 0.02 0 0.14 0.02 0.24 0.04 0.09 0.02 0.02 0 0.01 0 0.03 0.01 0.05 0.01 0.11 0.01 0.18 0.03 0.21 0.02 0.11 0.02 0 0 0.01 0 0.09 0.01 0.09 0.01 0.04 0.01 -0.01 0 0.03 0 0.14 0.01 0.08 0.01 0.1 0.01 0.07 0.01 0.03 0 0.14 0.01 0.08 0.01 0.19 0.02 0.11 0 0.08 0.01 0.01 0 0.06 0 0.16 0.01 0.07 0.01 -0.01 -0.01 0.02 0.01 0.01 0 0.25 0.01 0.04 0 0.04 0 0.02 0 0.01 0 0.03 0 0.06 0.01 0.23 0 0.29 0.01 0.02 0 0 0 0.08 0 0.08 0 0.02 0 0.18 -0.01 0.39 0 0.13 0 0 0 0.07 -0.01 0.05 0 0.11 0 0.39 -0.02 0.17 -0.01 0 0 0.14 -0.01 0.07 0 0.09 -0.01c0.19,-0.02 0.38,-0.03 0.56,-0.05l0.03 -0.01 0 0 0.1 -0.01 0.23 -0.02c0.19,-0.03 0.39,-0.06 0.59,-0.08l0.13 -0.02 -0.02 0c0.78,-0.12 1.55,-0.28 2.28,-0.48l-0.01 0 0.09 -0.02c0.29,-0.08 0.56,-0.16 0.84,-0.26l0.08 -0.03 0.06 -0.02 -0.01 0.01 0.15 -0.05 0.4 -0.15 0.2 -0.08 0.1 -0.04 0.11 -0.04 0 0 0.02 -0.01 0.18 -0.08 0.22 -0.09 0.24 -0.11 0.1 -0.04 0.1 -0.06 0.06 -0.02 0 0 0.02 -0.01 0.06 -0.03c0.19,-0.1 0.37,-0.19 0.56,-0.29 0.21,-0.13 0.42,-0.25 0.62,-0.38l0 0 0.01 0 0.11 -0.07c0.15,-0.11 0.31,-0.21 0.45,-0.32l0.18 -0.14 0.33 -0.25 0.19 -0.17 0.28 -0.25 0.02 -0.02 -0.01 0.01 0.03 -0.03 0.13 -0.13 0.22 -0.23 0.09 -0.1 0.08 -0.1 0.2 -0.25 0.1 -0.12 0.05 -0.08 0.19 -0.29 0.02 -0.03 0 0.01 0.04 -0.06 0.02 -0.04 0.02 -0.03 0.05 -0.08 0.19 -0.38 -0.06 -0.11 -0.02 -0.03 -0.03 -0.06z"/>
   <path class="fil0" d="M7.61 61.26l-0.18 -0.34 -0.04 -0.09c-0.08,-0.26 -0.08,-0.46 -0.04,-0.96 0.04,-0.41 0.06,-0.74 -0.05,-0.94l0.04 0.08c0.26,0.73 -0.04,1.53 0.27,2.25z"/>
   <path class="fil0" d="M7.3 58.93c0.1,0.21 0.1,0.39 0.05,0.94 -0.05,0.6 -0.02,0.79 0.08,1.05 -0.34,-0.7 0,-1.79 -0.32,-2.35l0.19 0.36z"/>
   <path class="fil0" d="M7.43 60.92c-0.34,-0.7 0,-1.79 -0.32,-2.35l0.19 0.36 0.03 0.06c0.19,0.64 -0.2,1.3 0.1,1.93z"/>
   <path class="fil0" d="M33.9 60.84c0.1,-0.25 0.13,-0.45 0.07,-1.05 -0.03,-0.41 -0.07,-0.73 0.05,-0.94l0.18 -0.35c-0.31,0.56 0.03,1.65 -0.3,2.34z"/>
   <path class="fil0" d="M33.73 61.19c0.32,-0.69 -0.01,-1.79 0.29,-2.34l-0.03 0.07c-0.19,0.63 0.21,1.29 -0.09,1.92l-0.17 0.35z"/>
   <path class="fil3" d="M3.25 75.39l-0.01 -2.06c0.01,2.52 1.62,5.03 4.86,6.98 6.68,4.01 17.73,4.13 24.69,0.25 3.58,-2 5.38,-4.67 5.37,-7.33l0.01 2.06c0,2.67 -1.8,5.33 -5.38,7.33 -6.95,3.88 -18.01,3.77 -24.68,-0.25 -3.24,-1.95 -4.86,-4.46 -4.86,-6.98z"/>
   <path class="fil6" d="M8.73 75.19c-4.5,-2.79 -6.08,-6.65 -4.34,-10.6 -1.54,3.22 -0.19,6.81 4.09,9.39 6.47,3.89 17.17,4 23.91,0.24 4.66,-2.6 6.2,-6.36 4.57,-9.73 2.14,4.79 -0.61,9.41 -7.18,12.05 -5.5,2.12 -12.67,2.13 -18.14,0.04 -1.03,-0.41 -1.91,-0.78 -2.91,-1.39z"/>
   <path class="fil5" d="M7.61 61.26c-0.33,-0.69 0,-1.79 -0.31,-2.33 0.63,1.12 1.7,2.18 3.21,3.09 5.38,3.23 14.27,3.32 19.87,0.2 1.74,-0.97 2.95,-2.13 3.64,-3.37 -0.3,0.55 0.03,1.65 -0.29,2.34 -0.68,1.21 -1.87,2.34 -3.56,3.29 -5.48,3.05 -14.17,2.96 -19.42,-0.2 -1.48,-0.88 -2.52,-1.92 -3.14,-3.02z"/>
   <path class="fil3" d="M8.1 80.31c-0.25,-0.15 -0.48,-0.3 -0.7,-0.45l0.32 0.03 0.36 -0.18c0.15,-0.15 0.37,-0.19 0.51,-0.36 0,0 0.15,-0.18 0.23,-0.53 0.03,-0.13 0.09,-0.49 0.03,-1.02l-0.08 -0.4 -0.01 -0.04c-0.08,-0.31 0.06,-0.67 -0.24,-0.92 0.16,0.1 0.32,0.2 0.48,0.3 1.09,0.65 2.29,1.19 3.58,1.62l-0.17 -0.03c-0.07,0.02 -0.74,0.89 -0.69,2.01 0,0.19 0.02,0.69 0.83,1.72l0.35 0.29c-1.74,-0.5 -3.37,-1.18 -4.8,-2.04z"/>
   <path class="fil7" d="M28.69 80.01c-0.07,0.7 -0.88,1.25 -2.41,1.62 -0.02,0.01 -1.88,0.39 -2.43,-0.42 -0.42,-0.62 0.51,-1.38 0.67,-1.47 0.59,-0.34 2.44,-0.77 2.97,-0.68 1.14,0.19 1.22,0.73 1.2,0.95z"/>
   <path class="fil6" d="M8.43 73.95l2.6 -7.47 0.03 0.02c0.84,0.51 1.78,0.93 2.77,1.28l-1.84 7.82c-1.26,-0.44 -2.44,-0.98 -3.51,-1.62l-0.05 -0.03z"/>
   <path class="fil7" d="M26.96 67.93c-0.25,0.08 -0.51,0.15 -0.77,0.22 -0.76,0.2 -1.53,0.36 -2.32,0.48l0.88 8.05c1.01,-0.15 1.99,-0.35 2.95,-0.6 0.33,-0.09 0.66,-0.19 0.99,-0.29l-1.73 -7.86z"/>
   <path class="fil3" d="M17.05 66.85c-0.06,0.13 -0.63,0.33 -1.88,0.34l-1.66 0.09 -0.01 0.15c0.08,0.17 0.34,0.27 0.49,0.37l0.04 0.04c-1.07,-0.35 -2.07,-0.8 -2.97,-1.34l-0.36 -0.23 0.41 0.11c0.41,0.18 0.41,0.18 0.71,0.15 -0.61,-0.89 -1.48,-1.54 -2.11,-2.41 -0.54,-0.76 -0.49,-0.87 -0.47,-0.92 0.44,0.38 0.94,0.74 1.51,1.08 1.64,0.99 3.63,1.68 5.75,2.07l0.26 0.13c0,0 0.34,0.2 0.29,0.35l0 0.02z"/>
   <path class="fil3" d="M7.38 81.9l-0.01 -2.06c0.23,0.16 0.48,0.31 0.73,0.47 1.44,0.86 3.08,1.55 4.84,2.05l0 2.06c-1.76,-0.5 -3.4,-1.19 -4.84,-2.05 -0.25,-0.15 -0.49,-0.31 -0.72,-0.47z"/>
   <path class="fil3" d="M32.13 75.43c-1.16,0.6 -1.3,0.68 -2.36,1.1 -5.49,2.13 -12.67,2.13 -18.14,0.05 -0.29,-0.11 -0.67,-0.27 -0.96,-0.39 -1.2,-0.57 -1.27,-0.61 -1.94,-1l-0.74 -0.47c-0.88,-0.65 -0.92,-0.68 -1.37,-1.08l-0.5 -0.48 -0.21 -0.22 0.09 0.09c0.72,0.7 1.97,1.19 2.77,1.29l-0.13 -0.24c1.02,0.6 2.14,1.1 3.33,1.51l-0.13 0.04c2.72,2.7 13.68,4.15 21.55,-0.98l-0.75 0.49 -0.51 0.29z"/>
   <path class="fil3" d="M16.07 64.15c-1.79,-0.14 -2.33,0.23 -1.6,1.09 0.4,0.46 1.32,0.86 2.03,1.11 -2.12,-0.39 -4.11,-1.08 -5.75,-2.07 -0.57,-0.34 -1.07,-0.7 -1.51,-1.08l0.11 0.03c1.42,0.27 0.88,-0.75 0.57,-1.2 -0.18,-0.27 -0.86,-0.99 -1.15,-1.29 0.5,0.45 1.08,0.88 1.74,1.28 1.85,1.11 4.12,1.85 6.52,2.22 -0.28,-0.03 -0.67,-0.07 -0.96,-0.09z"/>
   <path class="fil8" d="M30.79 50.71l0 0c5.37,3.24 5.19,8.39 -0.41,11.51 -5.6,3.12 -14.49,3.03 -19.87,-0.2 -5.37,-3.23 -5.18,-8.39 0.42,-11.51 5.6,-3.12 14.49,-3.03 19.86,0.2z"/>
   <path class="fil9" d="M7.44 13.61c-0.34,0.26 -0.71,0.34 -1.03,0.4 0.65,-0.22 1.37,-0.67 1.03,-0.4zm19.83 43.02c0.44,-1.16 4.95,-13.7 2.43,-27.23 -2.65,-14.2 -6.81,-16.09 -6.81,-16.09l-2.99 -6.21c0,0 0.02,-1.38 -2.63,-4.36 -2.65,-2.98 -4.85,-2.74 -4.85,-2.74 0,0 -1,2.38 3.82,8.49 0,0 -1.6,-1.07 -3.3,-0.19 -0.57,0.3 -6.24,3.26 -6.77,4.1 -0.91,1.42 -0.69,1.75 -0.19,1.7 -0.16,0.06 -0.29,0.14 -0.36,0.29 -0.21,0.53 0.73,2.46 0.81,3.3 0.09,0.84 1.09,3.22 1.09,3.22l1.98 -0.11 0 3.86 3.12 3.14 3.14 -3.08c2.28,2 3.59,1.88 4.69,2.78 4.37,5.2 0.23,6.67 -1.21,7.75 -1.44,1.09 -5.73,2.8 -6.5,3.38l-5.84 3.37c0.44,2.27 14.54,18 14.54,18l2.1 -0.88 3.73 -2.49z"/>
   <path class="fil10" d="M6.58 3.37c0,0 1.84,-1.24 4.94,0.72 3.1,1.97 4.72,4.4 4.72,4.4 0,0 0.1,1.91 -2.17,1.98 -2.27,0.06 -7.49,-7.1 -7.49,-7.1z"/>
   <path class="fil0" d="M21.44 60l-13.1 -7.56c0,0 -2.21,-9.87 -1.44,-10.44 0.78,-0.58 5.06,-2.3 6.51,-3.38 1.44,-1.09 5.58,-2.56 1.2,-7.76 -1.09,-0.89 -2.36,-1.91 -4.65,-3.91l-0.76 0.58 -0.41 0.31 -2.35 1.79 -2.77 -1.6 0 -3.86 -2.55 0.81c0,0 -0.99,-2.39 -1.08,-3.23 -0.08,-0.84 -0.04,-2.65 0.18,-3.17l0.03 -0.05c0.19,-0.28 0.88,-0.43 2.05,-1.46l0 0 0.03 -0.03c0.16,-0.13 0.33,-0.28 0.5,-0.45l0 -0.01c0.15,-0.15 0.32,-0.32 0.48,-0.51l0.01 0 0 0c0.62,-0.68 1.32,-1.57 2.11,-2.76 1.66,-2.52 3.69,-2.05 4.55,-1.67 -0.97,-0.6 -3.24,-2.59 -3.4,-8.27 0,0 1.64,-0.08 4.29,2.91 2.65,2.98 3.2,4.19 3.2,4.19l2.98 6.2c0,0 4.17,1.9 6.81,16.1 2.52,13.53 -1.99,26.07 -2.42,27.23z"/>
   <path class="fil9" d="M14.67 39.74c0,0 -7.34,2.72 -7.77,2.26 0.78,-0.58 5.06,-2.3 6.51,-3.38 1.44,-1.08 5.58,-2.56 1.2,-7.76 -1.09,-0.89 -2.36,-1.91 -4.65,-3.91 0.05,0 3.34,0.01 6.2,3.8 2.88,3.82 2.32,6.05 -1.49,8.99z"/>
   <path class="fil11" d="M35.11 30.44c-4.03,-16.59 -15.21,-23.34 -15.21,-23.34l-5.83 3.37c0,0 12.1,5.54 14.75,19.74 2.52,13.53 1.03,31.32 0.6,32.48l2.86 -1.84c0,0 6.86,-13.81 2.83,-30.41z"/>
   <path class="fil0" d="M32.24 32.28c-4.03,-16.59 -18.17,-21.81 -18.17,-21.81l2.99 6.2c0,0 6.25,1.18 8.89,15.38 2.52,13.53 -1.99,26.07 -2.43,27.24l5.9 3.4c0,0 6.85,-13.81 2.82,-30.41z"/>
   <path class="fil12" d="M7.09 15.17c-1.01,0.15 -2.21,0.24 -1.96,1.46 0.05,0.22 0.35,0.26 0.85,0.32 0.25,0.03 0.53,0 0.83,-0.13 0.9,-0.41 1.08,-1.48 1.08,-1.48l-0.8 -0.17z"/>
   <path class="fil7" d="M7.11 15.66l-0.17 0.16 0 0.12c0.01,0.13 -0.1,0.28 -0.25,0.38 -0.15,0.11 -0.25,0.34 -0.25,0.34l0.04 0.01c0.1,0.02 0.41,0.03 0.65,-0.33 0.3,-0.44 -0.02,-0.68 -0.02,-0.68z"/>
   <path class="fil13" d="M6.85 15.05c-0.33,-0.04 -1.3,0.12 -1.64,0.83 0,0 1.34,-0.71 2.53,-0.23 0.4,0.16 0.62,0.31 0.62,0.31 0,0 -0.52,-0.8 -1.51,-0.91z"/>
   <path class="fil14" d="M34.67 56.37c0.03,0.9 -0.15,1.81 -0.54,2.65 -0.42,0.81 -0.97,1.57 -1.66,2.18 -1.35,1.26 -3.04,2.08 -4.76,2.65 -1.75,0.52 -3.57,0.79 -5.37,0.84 -1.82,0.05 -3.62,-0.15 -5.38,-0.49 1.79,0.08 3.58,0.15 5.35,0.01 1.77,-0.16 3.53,-0.42 5.2,-0.97 1.69,-0.5 3.3,-1.29 4.64,-2.4 1.36,-1.09 2.36,-2.67 2.52,-4.47z"/>
   <path class="fil1" d="M13.73 21.69c0,0 -1.52,-3.19 -4.69,-3.37 -3.16,-0.18 -3.2,1.69 -3.45,2.07 -0.26,0.38 0.58,-3.17 8.14,1.3z"/>
   <path class="fil15" d="M14.89 6.86c-0.62,-0.5 -1.22,-1.02 -1.86,-1.47 -0.65,-0.45 -1.3,-0.89 -2,-1.23 -0.69,-0.36 -1.43,-0.59 -2.17,-0.73 -0.72,-0.14 -1.55,-0.1 -2.12,0.2l0.14 -0.24c-0.01,0.7 0.07,1.45 0.16,2.16 0.11,0.72 0.28,1.43 0.51,2.12 0.21,0.7 0.53,1.35 0.9,1.97 0.35,0.64 0.82,1.2 1.32,1.72l0.47 0.5 -0.65 -0.16c-0.65,-0.16 -1.39,-0.17 -2.06,0 -0.68,0.17 -1.28,0.61 -1.72,1.19 0.19,-0.31 0.4,-0.62 0.69,-0.85 0.28,-0.24 0.61,-0.44 0.96,-0.56 0.71,-0.26 1.47,-0.3 2.23,-0.16l-0.18 0.33c-0.56,-0.52 -1.1,-1.08 -1.51,-1.73 -0.41,-0.64 -0.76,-1.33 -1,-2.06 -0.51,-1.44 -0.77,-2.95 -0.72,-4.51l0.01 -0.17 0.13 -0.06c0.87,-0.43 1.72,-0.38 2.54,-0.24 0.82,0.16 1.58,0.49 2.28,0.9 0.7,0.4 1.35,0.87 1.96,1.4 0.6,0.53 1.16,1.09 1.69,1.68z"/>
   <path class="fil11" d="M14.76 9.04c0,0 -1.32,-3.66 -5.98,-4.86 -1.1,-0.28 0.15,2.78 1.26,4.24 1.11,1.47 2.48,2.1 2.87,2.15 0.38,0.05 2.65,-0.29 1.85,-1.53z"/>
   <path class="fil11" d="M13.13 0.71c0,0 -0.15,1.1 1.54,3.45 1.68,2.36 2.98,4.01 2.98,4.01 0,0 1.29,0.05 1.69,-0.19 0.39,-0.25 0.56,-0.88 0.56,-0.88 0,0 -2.29,-5.59 -6.77,-6.39z"/>
   <path class="fil14" d="M16.03 14.54c0.6,1.95 2.23,3.22 3.32,4.91 1.1,1.68 2.04,3.45 2.82,5.3 1.52,3.71 2.3,7.7 2.62,11.68 0.26,4 0.04,8.01 -0.55,11.96 -0.59,3.95 -1.62,7.82 -2.8,11.61 0.44,-1.94 1,-3.85 1.32,-5.81 0.18,-0.98 0.42,-1.94 0.56,-2.92l0.44 -2.95c0.48,-3.93 0.7,-7.9 0.39,-11.84 -0.26,-3.94 -1.03,-7.86 -2.44,-11.55 -0.71,-1.84 -1.59,-3.62 -2.62,-5.3 -0.55,-0.83 -1.08,-1.67 -1.71,-2.43 -0.7,-0.75 -1,-1.74 -1.35,-2.66z"/>
   <path class="fil16" d="M9.2 27.53l-0.41 0.31 -2.35 1.79 -2.77 -1.6 0 -3.86 -2.55 0.81c0,0 -0.99,-2.39 -1.08,-3.23 -0.08,-0.84 -0.04,-2.65 0.18,-3.17l0.03 -0.05c0.19,-0.28 0.88,-0.43 2.05,-1.46l0 0 0.03 -0.03c0.16,-0.13 0.33,-0.28 0.5,-0.45 -0.21,0.75 0.25,2.03 0.49,3.16 0.24,1.14 0.53,2.26 2.23,3.56 1.69,1.29 3.65,4.22 3.65,4.22z"/>
   <path class="fil12" d="M1.37 18.35c-0.34,0.08 -0.69,0.27 -0.69,0.27 0,0 -0.34,0.3 -0.35,0.68 -0.01,0.26 -0.01,0.49 0.16,0.66 0.07,0.07 0.23,0.08 0.4,0.04 0.17,-0.04 0.36,-0.13 0.49,-0.25 0.45,-0.41 0.74,-0.93 0.59,-1.26 -0.09,-0.2 -0.35,-0.21 -0.6,-0.14z"/>
  </g>
 </g>
</svg>
