<?xml version="1.0" encoding="UTF-8"?>
<!DOCTYPE svg PUBLIC "-//W3C//DTD SVG 1.0//EN" "http://www.w3.org/TR/2001/REC-SVG-20010904/DTD/svg10.dtd">
<!-- Creator: CorelDRAW 2018 (64 Bit Versão de avaliação) -->
<svg xmlns="http://www.w3.org/2000/svg" xml:space="preserve" width="34px" height="110px" version="1.0" style="shape-rendering:geometricPrecision; text-rendering:geometricPrecision; image-rendering:optimizeQuality; fill-rule:evenodd; clip-rule:evenodd"
viewBox="0 0 34 111.63"
 xmlns:xlink="http://www.w3.org/1999/xlink">
 <defs>
  <style type="text/css">
   <![CDATA[
    .fil8 {fill:none;fill-rule:nonzero}
    .fil4 {fill:#4A4A4B;fill-rule:nonzero}
    .fil15 {fill:#8F9193;fill-rule:nonzero}
    .fil9 {fill:#848789;fill-rule:nonzero}
    .fil11 {fill:#6B7070;fill-rule:nonzero}
    .fil2 {fill:#5C5E60;fill-rule:nonzero}
    .fil17 {fill:#424647;fill-rule:nonzero}
    .fil16 {fill:#424546;fill-rule:nonzero}
    .fil5 {fill:#38393C;fill-rule:nonzero}
    .fil6 {fill:#333537;fill-rule:nonzero}
    .fil14 {fill:#323436;fill-rule:nonzero}
    .fil10 {fill:#303233;fill-rule:nonzero}
    .fil0 {fill:#2F3132;fill-rule:nonzero}
    .fil7 {fill:#2D3031;fill-rule:nonzero}
    .fil12 {fill:#2D2E2F;fill-rule:nonzero}
    .fil1 {fill:#2C2D2F;fill-rule:nonzero}
    .fil13 {fill:#2B2C2E;fill-rule:nonzero}
    .fil3 {fill:#292A2C;fill-rule:nonzero}
   ]]>
  </style>
 </defs>
 <g id="Camada_x0020_1">
  <metadata id="CorelCorpID_0Corel-Layer"/>
  <g id="_1659227493456">
   <path class="fil0" d="M33.96 101.78l0 -2.04c-0.01,-0.53 -0.05,-1.39 -0.34,-2.71 -0.09,-0.39 -0.19,-0.77 -0.3,-1.13 0.09,-0.2 0.18,-0.42 0.26,-0.66 0.27,-0.77 0.36,-1.41 0.4,-1.81 0.04,-0.56 0.02,-0.88 0,-1.16 -0.02,-0.28 -0.09,-0.64 -0.14,-0.91 -0.05,-0.29 -0.18,-0.66 -0.28,-0.93 -0.06,-0.19 -0.18,-0.43 -0.25,-0.61 0.2,0.44 0.36,0.87 0.46,1.32 -0.23,-0.99 -0.72,-1.97 -1.48,-2.88 -0.16,-0.19 -0.36,-0.44 -0.51,-0.62l-0.26 -0.31c-0.15,-0.18 -0.35,-0.43 -0.51,-0.61 -0.42,-0.52 -0.85,-1.03 -1.27,-1.54 -0.15,-0.19 -0.36,-0.44 -0.51,-0.62l-0.25 -0.31c-0.16,-0.19 -0.36,-0.43 -0.51,-0.62l-0.08 -0.08c-0.16,-0.96 -0.5,-1.61 -0.84,-2.16l-0.28 -0.4c-0.19,-0.23 -0.44,-0.53 -0.64,-0.74 -0.23,-0.25 -0.58,-0.54 -0.84,-0.76l0.2 0.19 -0.38 -0.28 -0.06 -0.26c-0.09,-0.44 -0.21,-1.01 -0.3,-1.44l-0.32 -1.63c-0.1,-0.53 -0.23,-1.25 -0.33,-1.79l-0.33 -1.9c-0.1,-0.6 -0.22,-1.41 -0.31,-2.01l-0.29 -2.05c-0.08,-0.63 -0.17,-1.47 -0.25,-2.11l-0.19 -2.03c-0.04,-0.63 -0.09,-1.46 -0.13,-2.09l-0.04 -1.86c-0.01,-0.58 0.02,-1.35 0.04,-1.93l0.12 -1.47c0.07,-0.49 0.18,-1.13 0.28,-1.62l0.22 -0.74 0 -0.11 -0.28 0.15 -0.19 0.13c-0.21,0.15 -0.43,0.29 -0.68,0.43 1.29,-0.72 2.09,-1.63 2.39,-2.58 0.15,-0.47 0.4,-1.04 0.52,-1.29 0.06,-0.13 0.14,-0.31 0.25,-0.5 0.54,-0.31 1.12,-0.7 1.63,-1.13 0.39,-0.33 0.71,-0.64 0.95,-0.92 0.17,-0.2 0.53,-0.62 0.86,-1.19 0.56,-0.95 0.79,-1.88 0.89,-2.49 0.05,-0.31 0.07,-0.49 0.11,-0.89l0.03 -0.25 0.01 -0.1 0.05 -0.43c0.02,-0.17 0.01,-0.39 0.01,-0.56 0,-0.34 -0.11,-0.8 -0.18,-1.13 0,-0.01 -0.12,-0.51 -0.46,-1.21 -0.25,-0.49 -0.5,-0.86 -0.72,-1.19l-0.12 -0.17c1.04,-1.83 1.97,-3.65 2.55,-5.04 0.58,-1.37 0.78,-2.15 0.78,-2.16 0.12,-0.49 0.26,-1.15 0.34,-1.65 0.04,-0.23 0.05,-0.55 0.05,-0.79 0.02,-1.28 -0.39,-2.66 -1.12,-3.78 -0.28,-0.44 -0.74,-0.98 -1.08,-1.37 -0.19,-0.21 -0.48,-0.45 -0.68,-0.64 -0.44,-0.41 -1.12,-0.83 -1.62,-1.16 -0.99,-0.6 -1.89,-0.97 -1.9,-0.97 -0.31,-0.13 -0.71,-0.3 -1.02,-0.41 -0.66,-0.22 -1.01,-0.34 -1.27,-0.42l-0.14 -0.33 0 0 -0.03 -0.07 -0.13 -0.21 0 -0.01 0 0.01 -0.09 -0.16 -0.25 -0.34 -0.3 -0.33 -0.33 -0.31c-0.15,-0.12 -0.28,-0.22 -0.41,-0.3l0.06 -0.06 0.2 -0.23 0.19 -0.23 0.13 -0.16 0.07 -0.08 -0.01 0 0 0 0.01 -0.01 0.01 0 0 0 0 -0.01 0 -0.01 0 -0.01 -0.01 -0.02 0 -0.02 0 0 0 0.01 0 -0.01 -0.01 -0.01 -0.03 -0.06 -0.02 -0.02c-0.2,-0.26 -0.38,-0.56 -0.54,-0.9l0 0c-0.28,-0.58 -0.5,-1.29 -0.7,-2.17 0.18,-0.1 0.35,-0.19 0.53,-0.28 0.38,-0.2 0.73,-0.38 1.04,-0.54 0.14,-0.07 0.28,-0.14 0.42,-0.21l0.13 -0.07c0.22,-0.11 0.45,-0.23 0.67,-0.33l0 -0.01 0.01 0 0 0 0 0 0 0 0 0 0 0 0 0c0.08,-0.17 0.24,-0.54 0.39,-0.96l0.02 -0.04 0.01 -0.03 0.08 -0.22 0.02 -0.05 0 -0.02 0.03 -0.1 0.05 -0.16 0.07 -0.24 0.01 -0.02 0.03 -0.15 0.01 -0.04 0.01 -0.06 0.01 -0.06 0.02 -0.1 0.01 -0.07 0.02 -0.14 0 -0.04 0.01 -0.05 0 -0.03 0.01 -0.18 -0.01 -0.05c0.01,-0.36 -0.09,-0.68 -0.26,-1.02l-0.05 -0.09 -0.07 -0.15 -0.11 -0.17 -0.02 -0.04 -0.01 -0.01 -0.09 -0.13 -0.06 -0.07 -0.04 -0.05 -0.14 -0.17 -0.13 -0.15 -0.01 -0.01 -0.02 -0.02 0 0 0 0 0 0 -0.02 -0.02 -0.13 -0.13 -0.02 -0.02 -0.08 -0.07 0 0 -0.02 -0.02 -0.09 -0.07 -0.04 -0.04 -0.02 -0.01 -0.04 -0.03 -0.15 -0.11 -0.02 -0.02 -0.03 -0.02 0 0 -0.01 -0.01 -0.05 -0.03 -0.16 -0.11 -0.03 -0.02 -0.02 -0.01 -0.03 -0.02 -0.25 -0.15 -0.39 -0.23 -0.15 -0.08 0 0 -0.05 -0.03c0.17,-0.42 0.35,-0.84 0.56,-1.24l0.12 -0.22 -0.22 -0.03 0 -0.01 -0.02 -0.04 -0.05 -0.09 -0.02 -0.03 -0.12 -0.14 -0.02 -0.03 -0.14 -0.13 -0.07 -0.06 -0.14 -0.11 -0.08 -0.06 -0.17 -0.12 -0.08 -0.05 -0.27 -0.17 -0.39 -0.22c-0.57,-0.33 -1.12,-0.54 -1.5,-0.61 0.14,-0.32 0.23,-0.68 0.23,-1.06 0,-1.43 -1.16,-2.6 -2.6,-2.6 -1.43,0 -2.6,1.17 -2.6,2.6 0,0.74 0.32,1.41 0.82,1.88l-0.08 0.05 -0.06 0.03 0 0 0 0 -0.08 0.05 0 0 0 0 -0.07 0.03 0 0 0 0.01 0 0 -0.21 0.12 -0.2 0.13 -0.21 0.14 -0.02 0.02 -0.01 0 -0.17 0.13 -0.21 0.15 -0.19 0.15 0.06 -0.04 -0.07 0.05 -0.01 0 -0.01 0.01 -0.01 0.01 -0.18 0.15 -0.18 0.15 -0.01 0.01 -0.01 0.01 -0.2 0.18 -0.05 0.04 -0.09 0.08 -0.06 0.06 -0.2 0.19 -0.2 0.2 -0.19 0.19 -0.13 0.14 -0.03 0.03 -0.04 0.04 -0.08 0.09 -0.08 0.08 -0.03 0.04 -0.12 0.13 -0.03 0.03 -0.04 0.05 -0.19 0.21 -0.12 0.14 0.04 -0.05 -0.1 0.13 -0.18 0.22 -0.18 0.22 -0.01 0.01 0 -0.01 -0.01 0.05 0.01 -0.01 0.02 0.03 0.16 0.22 0.02 0.03 -0.04 -0.04c0.79,0.79 1.11,2.41 1.22,2.95l-0.08 0.04c-0.25,0.13 -0.48,0.25 -0.69,0.36 -0.24,0.13 -0.49,0.25 -0.73,0.38l-0.12 0.06c-0.2,0.1 -0.39,0.2 -0.57,0.29l-0.15 0.07c-0.18,0.09 -0.36,0.18 -0.54,0.27l0 0 -0.01 0.01 -0.13 0.3 -0.02 0.05 -0.02 0.04c-0.19,0.46 -0.29,0.76 -0.34,0.91l0 0 -0.09 0.27 -0.03 0.1 -0.03 0.11 -0.01 0.05 -0.01 0.04c-0.04,0.15 -0.07,0.3 -0.09,0.43l0 0.02 -0.01 0.06 -0.01 0.08 0 0.09 -0.01 0.04 0 0.17 0.01 0.21 0.01 0.08 0.01 0.09 0 0.03 0.05 0.21 0.01 0.04 0.01 0.04 0.04 0.11 0.07 0.17 0 0 0.03 0.06 0.09 0.18 0.02 0.04 0.01 0 0.13 0.22 0.03 0.03 0 0.01 0.1 0.13 0.06 0.08 0.03 0.04 0.14 0.17 0.16 0.19c0.24,0.26 0.69,0.6 1.22,0.91l0.01 0.01c-0.21,0.17 -0.44,0.37 -0.66,0.61 -0.18,0.21 -0.35,0.44 -0.5,0.69l-0.15 0.31 -0.08 0.21 -0.03 0.08c-1.06,0.31 -2.32,0.77 -3.7,1.53 -0.62,0.34 -1.51,0.93 -2.12,1.48 -0.21,0.18 -0.49,0.43 -0.67,0.64 -0.34,0.39 -0.78,0.94 -1.07,1.37 -0.28,0.4 -0.57,0.99 -0.71,1.46 -0.07,0.23 -0.18,0.53 -0.22,0.76 -0.08,0.46 -0.16,1.09 -0.17,1.56 0,0.13 0.01,0.4 0.06,0.77l0 0.01 0 0.02c0.04,0.33 0.11,0.72 0.23,1.18 0.04,0.17 0.12,0.43 0.22,0.77l0.03 0.09 0.01 0.04 0.05 0.14c0.06,0.15 0.11,0.31 0.17,0.46l0.06 0.19 0.03 0.08 0.34 0.83c0.11,0.25 0.26,0.58 0.37,0.83l0.29 0.62 0.04 0.08 0.05 0.1c0.11,0.23 0.27,0.54 0.39,0.77l0.39 0.74c0.11,0.21 0.26,0.49 0.38,0.7l0.36 0.65c0.08,0.13 0.17,0.29 0.25,0.43l0.06 0.11 0 0c-0.2,0.29 -0.46,0.66 -0.63,0.98 -0.1,0.19 -0.24,0.45 -0.32,0.66 -0.12,0.27 -0.26,0.65 -0.33,0.93 -0.22,0.82 -0.18,1.45 -0.17,1.57 0.01,0.14 0.03,0.3 0.04,0.45l-0.01 -0.07 0.02 0.18 0.03 0.2 0.03 0.29 0.02 0.17 0.01 0.04 0.03 0.22 0.03 0.24 0.03 0.14 0.02 0.11 0.02 0.11 0.07 0.32 0.02 0.05 0.01 0.05 0.03 0.1 0.08 0.28 0.07 0.18 0.04 0.13 0.03 0.07 0.05 0.11c0.07,0.18 0.14,0.34 0.22,0.48l0.03 0.08 0.04 0.07 0.2 0.36c0.17,0.29 0.44,0.65 0.66,0.9l0.4 0.45 0.16 0.15 0.2 0.2 0.29 0.26 0.06 0.05c0.24,0.2 0.48,0.38 0.7,0.54l0.07 0.04 0.16 0.11c0.19,0.13 0.37,0.24 0.47,0.3l0.24 0.14c0.07,0.13 0.15,0.27 0.23,0.43l0.01 0.01c0.09,0.2 0.19,0.42 0.27,0.63l0.04 0.08c0.08,0.21 0.17,0.43 0.24,0.64 0.28,0.88 0.99,1.72 2.14,2.41 -0.15,-0.09 -0.29,-0.18 -0.42,-0.28 -0.23,-0.15 -0.23,-0.15 -0.5,-0.23l0.02 0.07c0.14,0.41 0.28,0.97 0.37,1.38l0.15 0.97c0.06,0.54 0.11,1.26 0.15,1.79l0.04 1.62c0,0.6 -0.03,1.41 -0.05,2.01l-0.11 1.93c-0.05,0.62 -0.13,1.44 -0.18,2.05l-0.23 2.04c-0.42,3.46 -1.04,7.19 -1.83,11.1l-0.29 0.2 0.06 -0.06 -0.11 0.09 -0.05 0.04c-0.21,0.19 -0.45,0.39 -0.63,0.58 -0.23,0.25 -0.63,0.68 -0.88,1.07l-0.25 0.41c-0.1,0.19 -0.23,0.44 -0.31,0.64 -0.15,0.39 -0.26,0.69 -0.35,1.25l-0.07 0.08c-0.15,0.18 -0.35,0.43 -0.51,0.62l-0.25 0.31c-0.15,0.18 -0.35,0.43 -0.5,0.62 -0.16,0.18 -0.36,0.43 -0.51,0.61l-0.25 0.31c-0.16,0.19 -0.36,0.44 -0.51,0.62 -0.15,0.19 -0.35,0.44 -0.5,0.62l-0.26 0.31c-0.15,0.19 -0.35,0.43 -0.5,0.62 -0.73,0.89 -1.22,1.84 -1.46,2.8 0.11,-0.41 0.25,-0.82 0.45,-1.22 -0.14,0.32 -0.31,0.75 -0.42,1.08 -0.06,0.17 -0.1,0.41 -0.14,0.58 -0.03,0.15 -0.12,0.58 -0.13,1.29 0,0.53 0.06,1.6 0.6,2.9l0.12 0.25c-0.1,0.38 -0.23,0.77 -0.31,1.12 -0.12,0.56 -0.2,1.08 -0.22,1.24 -0.08,0.7 -0.08,0.77 -0.1,1.46 0,0.24 0.03,0.49 0.06,0.74 -0.03,-0.25 -0.06,-0.5 -0.06,-0.74l0.01 2.03c0,0.18 0.02,0.36 0.04,0.54l0 0.17 0.02 0.11 0.07 0.35c0.04,0.17 0.08,0.34 0.13,0.52l0.12 0.35c0.07,0.17 0.13,0.34 0.21,0.5l0.18 0.36c0.09,0.17 0.18,0.33 0.29,0.49l0.23 0.35c0.12,0.16 0.24,0.32 0.37,0.47l0.29 0.34c0.14,0.16 0.3,0.32 0.47,0.47l0.31 0.31c0.19,0.16 0.4,0.33 0.61,0.49l0.32 0.25c0.33,0.24 0.68,0.47 1.05,0.7 0.69,0.41 1.43,0.79 2.2,1.11l0 -0.03c6.51,2.77 15.71,2.53 21.74,-0.84 3.48,-1.94 5.22,-4.52 5.21,-7.1z"/>
   <path class="fil1" d="M28.55 89.42l-1.07 -0.18c-5.55,-3.34 -14.74,-3.43 -20.52,-0.21 -5.78,3.23 -5.97,8.55 -0.42,11.89 5.54,3.34 14.73,3.44 20.52,0.21 5.78,-3.22 5.97,-8.55 0.42,-11.89l1.07 0.18c6.12,3.68 5.91,9.55 -0.46,13.11 -6.38,3.55 -16.51,3.45 -22.62,-0.23 -6.12,-3.69 -5.91,-9.55 0.47,-13.1 6.37,-3.56 16.5,-3.46 22.61,0.22z"/>
   <path class="fil0" d="M0.09 99.84c0.02,-0.69 0.02,-0.76 0.1,-1.46 0.02,-0.16 0.1,-0.68 0.22,-1.24 0.15,-0.68 0.36,-1.43 0.61,-2.2 0.05,-0.14 0.2,-0.61 0.38,-1.07 -1.12,2.93 0.22,6.11 4.07,8.43 6.11,3.68 16.24,3.78 22.62,0.23 4.19,-2.34 5.72,-5.68 4.53,-8.74 0.19,0.5 0.68,1.82 1,3.24 0.29,1.32 0.33,2.18 0.34,2.71 0,2.58 -1.74,5.17 -5.21,7.1 -6.75,3.77 -17.47,3.66 -23.95,-0.24 -3.14,-1.89 -4.7,-4.32 -4.71,-6.76z"/>
   <path class="fil2" d="M25.19 104.46c-0.61,-0.1 -2.5,0.4 -2.99,0.69 -0.16,0.09 -1.11,0.84 -0.67,1.45 0.82,1.15 4.66,0.21 4.83,-1.19 0.02,-0.18 0,-0.76 -1.17,-0.95z"/>
   <path class="fil0" d="M1.7 88.34c0.15,-0.19 0.35,-0.43 0.5,-0.62l0.26 -0.31c0.15,-0.18 0.35,-0.43 0.5,-0.62 0.15,-0.18 0.35,-0.43 0.51,-0.62l0.25 -0.31c0.15,-0.18 0.35,-0.43 0.51,-0.61 0.15,-0.19 0.35,-0.44 0.5,-0.62l0.25 -0.31c0.16,-0.19 0.36,-0.44 0.51,-0.62 0.15,-0.19 0.35,-0.44 0.5,-0.62l0.26 -0.31c0.15,-0.19 0.35,-0.43 0.5,-0.62 -1.95,2.39 -1.28,5.33 2.07,7.34 4.32,2.6 11.48,2.68 15.99,0.16 3.62,-2.01 4.43,-5.08 2.38,-7.56 0.16,0.19 0.36,0.43 0.51,0.62l0.26 0.31c0.15,0.18 0.35,0.43 0.51,0.61 0.15,0.19 0.35,0.43 0.51,0.62l0.25 0.31c0.15,0.18 0.36,0.43 0.51,0.62 0.42,0.51 0.85,1.02 1.27,1.54 0.16,0.18 0.36,0.43 0.51,0.61l0.26 0.31c0.15,0.18 0.35,0.43 0.51,0.62 3.06,3.71 1.84,8.29 -3.56,11.31 -6.75,3.76 -17.47,3.65 -23.95,-0.24 -5,-3.02 -6.01,-7.41 -3.08,-10.99z"/>
   <path class="fil3" d="M0.1 101.87l-0.01 -2.03c0.01,2.44 1.57,4.87 4.71,6.76 6.48,3.9 17.2,4.01 23.95,0.24 3.47,-1.93 5.21,-4.52 5.21,-7.1l0 2.04c0.01,2.58 -1.73,5.16 -5.21,7.1 -6.75,3.76 -17.47,3.65 -23.94,-0.24 -3.14,-1.89 -4.71,-4.33 -4.71,-6.77z"/>
   <path class="fil3" d="M5.21 100.77c-0.44,-0.27 -1.01,-0.66 -1.42,-0.98 -0.45,-0.35 -0.95,-0.79 -1.22,-1.08 -0.53,-0.58 -0.73,-0.79 -1.23,-1.54 -0.09,-0.14 -0.43,-0.67 -0.74,-1.4 -0.54,-1.3 -0.6,-2.37 -0.6,-2.9 0.01,-0.71 0.1,-1.14 0.13,-1.29 0.04,-0.17 0.08,-0.41 0.14,-0.58 0.11,-0.33 0.28,-0.76 0.42,-1.08 -1.55,3.23 -0.2,6.83 4.09,9.41 6.48,3.89 17.2,4 23.95,0.24 4.66,-2.6 6.21,-6.38 4.58,-9.75 0.07,0.18 0.19,0.42 0.25,0.61 0.1,0.27 0.23,0.64 0.28,0.93 0.05,0.27 0.12,0.63 0.14,0.91 0.02,0.28 0.04,0.6 0,1.16 -0.04,0.4 -0.13,1.04 -0.4,1.81 -0.3,0.87 -0.66,1.47 -0.84,1.75 -0.95,1.55 -2.33,2.62 -2.6,2.82 -0.21,0.16 -0.49,0.37 -0.7,0.51 -0.34,0.22 -0.78,0.5 -1.13,0.69 -0.28,0.16 -0.66,0.36 -0.95,0.49 -0.49,0.22 -1.14,0.5 -1.63,0.69 -5.31,1.97 -12.12,1.98 -17.4,0.05 -0.31,-0.12 -0.73,-0.28 -1.03,-0.41 -0.31,-0.13 -0.71,-0.32 -1.01,-0.47 -0.33,-0.15 -0.76,-0.4 -1.08,-0.59z"/>
   <path class="fil1" d="M24.83 78.83c-4.16,-2.51 -11.05,-2.58 -15.39,-0.16 -4.34,2.42 -4.49,6.42 -0.32,8.92 4.16,2.51 11.06,2.58 15.4,0.16 4.33,-2.42 4.48,-6.41 0.31,-8.92z"/>
   <path class="fil0" d="M6.91 87.95c-0.29,-0.34 -0.84,-0.98 -1.18,-2.01 -0.32,-1 -0.25,-1.86 -0.2,-2.19 0.1,-0.65 0.22,-0.96 0.38,-1.38 0.08,-0.2 0.21,-0.45 0.31,-0.64l0.25 -0.41c0.25,-0.39 0.65,-0.82 0.88,-1.07 0.22,-0.23 0.55,-0.51 0.79,-0.71 -3.02,2.42 -2.72,5.83 0.98,8.05 4.16,2.51 11.06,2.58 15.4,0.16 3.97,-2.22 4.42,-5.76 1.27,-8.26 0.26,0.22 0.61,0.51 0.84,0.76 0.2,0.21 0.45,0.51 0.64,0.74l0.28 0.4c0.36,0.57 0.72,1.25 0.88,2.3 0.11,0.74 -0.01,1.59 -0.16,2.07 -0.09,0.29 -0.21,0.64 -0.47,1.11 -0.08,0.14 -0.3,0.53 -0.73,1.02 -0.56,0.64 -1.31,1.24 -2.26,1.76 -4.51,2.52 -11.67,2.44 -15.99,-0.16 -0.79,-0.47 -1.42,-0.99 -1.91,-1.54z"/>
   <path class="fil2" d="M23.49 89.4c0,0 -0.36,0.71 -2.16,1.08 -1.16,0.24 -2.09,-0.01 -2.18,-0.18l0 -0.16c0.13,-0.36 3.97,-1.5 4.33,-0.9l0.01 0.16z"/>
   <path class="fil0" d="M8.82 52.54c-0.29,-0.88 -0.8,-1.93 -1.17,-2.4 0.11,0.12 1.15,1.17 3.75,1.96 0.36,0.11 1.32,0.38 2.52,0.56 1.43,0.21 2.69,0.21 2.7,0.21 1.02,-0.01 1.71,-0.03 2.73,-0.16 1.35,-0.17 2.31,-0.43 2.57,-0.5 0.23,-0.07 0.54,-0.16 0.76,-0.24 1,-0.36 1.08,-0.39 1.41,-0.56 0.75,-0.38 0.8,-0.4 1.08,-0.58 0.2,-0.13 0.46,-0.32 0.65,-0.47l0.29 -0.27c-0.29,0.4 -0.51,0.85 -0.63,1.11 -0.12,0.25 -0.37,0.82 -0.52,1.29 -0.3,0.95 -1.1,1.86 -2.39,2.57 -3.27,1.83 -8.47,1.78 -11.61,-0.11 -1.15,-0.69 -1.86,-1.53 -2.14,-2.41z"/>
   <path class="fil4" d="M24.97 50.96c-1.01,0.56 -2.88,1.61 -7.49,2.14 -1.44,0.17 -1.82,0.31 -2.1,0.41 -0.18,0.07 -0.66,0.25 -0.92,0.75 -0.31,0.58 -0.24,1.25 -0.45,1.85 -1.12,-0.24 -2.17,-0.63 -3.05,-1.16 -1.15,-0.69 -1.86,-1.53 -2.14,-2.41l-0.02 -0.03 -0.03 -0.09 -0.04 -0.12 -0.06 -0.16 -0.07 -0.18 -0.09 -0.22 -0.09 -0.22 -0.12 -0.25 -0.11 -0.23 -0.13 -0.25 -0.12 -0.2 -0.13 -0.21 -0.07 -0.12 -0.09 -0.12 0.03 0.03 0.09 0.09 0.25 0.21c0.39,0.29 0.41,0.31 0.7,0.48l0.54 0.3c0.2,0.1 0.47,0.23 0.67,0.32l0.7 0.27c0.23,0.08 0.54,0.19 0.77,0.26l0.8 0.22c0.26,0.06 0.59,0.14 0.85,0.19l0.87 0.15c0.26,0.03 0.62,0.08 0.89,0.11l0.9 0.07c0.27,0.01 0.64,0.02 0.91,0.03l0.92 -0.01c0.27,-0.02 0.64,-0.04 0.91,-0.06l0.9 -0.09c0.26,-0.04 0.62,-0.08 0.88,-0.13l0.85 -0.17c0.25,-0.06 0.59,-0.13 0.84,-0.2l0.76 -0.24c0.24,-0.08 0.54,-0.19 0.77,-0.28l0.64 -0.28c0.2,-0.1 0.47,-0.23 0.66,-0.34l0.42 -0.24 0.25 -0.16 -0.45 0.29z"/>
   <path class="fil0" d="M7.79 50.61c-0.3,-0.18 -1.1,-0.68 -1.75,-1.3 -0.24,-0.23 -0.55,-0.54 -0.76,-0.8 -0.22,-0.25 -0.49,-0.61 -0.66,-0.9 -0.21,-0.37 -0.54,-0.92 -0.79,-1.86 -0.11,-0.41 -0.16,-0.76 -0.2,-1.02l-0.06 -0.43 -0.03 -0.29 -0.03 -0.2c-0.01,-0.17 -0.04,-0.39 -0.05,-0.56 -0.01,-0.12 -0.05,-0.75 0.17,-1.57 0.07,-0.28 0.21,-0.66 0.33,-0.93 0.08,-0.21 0.22,-0.47 0.32,-0.66 0.29,-0.54 0.83,-1.25 0.94,-1.39 0.23,-0.29 0.78,-0.97 1.57,-1.72 -2.69,2.57 -2.18,5.96 1.58,8.23 4.49,2.71 11.94,2.78 16.62,0.17 4.06,-2.26 4.72,-5.8 1.91,-8.46 1.25,1.19 1.93,2.18 2.01,2.29 0.22,0.33 0.47,0.7 0.72,1.19 0.34,0.7 0.46,1.2 0.46,1.21 0.07,0.34 0.18,0.79 0.18,1.13 0,0.17 0.01,0.39 -0.01,0.56l-0.05 0.43 -0.01 0.1 -0.03 0.25c-0.04,0.4 -0.06,0.58 -0.11,0.89 -0.1,0.61 -0.33,1.54 -0.89,2.49 -0.33,0.57 -0.69,0.99 -0.86,1.19 -0.24,0.28 -0.56,0.59 -0.95,0.92 -0.82,0.71 -1.86,1.3 -2.55,1.62 -0.82,0.38 -3.31,1.54 -7.26,1.68 -1.42,0.04 -2.46,-0.06 -2.8,-0.1 -0.56,-0.05 -1.29,-0.17 -1.83,-0.26 -0.28,-0.05 -0.63,-0.14 -0.9,-0.2 -0.28,-0.06 -0.64,-0.16 -0.91,-0.25 -0.5,-0.16 -1.15,-0.4 -1.64,-0.59 -0.72,-0.29 -1.67,-0.85 -1.68,-0.86z"/>
   <path class="fil3" d="M5.12 40.08c0.07,-0.63 0.13,-1.25 0.2,-1.87 -0.19,1.8 0.87,3.64 3.19,5.04 4.42,2.66 11.73,2.73 16.34,0.17 2.56,-1.43 3.74,-3.38 3.53,-5.28l0.21 1.87c0.22,1.93 -0.99,3.91 -3.6,5.37 -4.68,2.61 -12.13,2.54 -16.62,-0.17 -2.37,-1.43 -3.45,-3.3 -3.25,-5.13z"/>
   <path class="fil5" d="M19.42 26.21c-1.34,0.74 -3.36,0.8 -4.8,0.2 -0.19,-0.07 -0.36,-0.16 -0.53,-0.26l-0.01 0 -0.29 -0.2 -0.07 -0.07 -0.18 -0.16 -0.07 -0.07 -0.1 -0.12 -0.06 -0.08 -0.08 -0.13 -0.04 -0.08 -0.1 -0.25 -0.01 -0.07 -0.03 -0.21 0 -0.07 0.02 -0.26 0 -0.01 0.08 -0.24 0.04 -0.07 0.11 -0.2 0.04 -0.06 0.19 -0.23 0.06 -0.05 0.21 -0.18 0.08 -0.07 0.32 -0.2 0.34 -0.17 0.12 -0.04 0.26 -0.1 0.12 -0.04 0.3 -0.08 0.09 -0.03 0.41 -0.08 0.09 -0.01 0.32 -0.04 0.14 -0.01 0.3 -0.01 0.13 0 0.38 0.01 0.04 0c0.14,0.01 0.28,0.02 0.42,0.04l0.17 0.03 0.17 0.02 0.17 0.04 0.17 0.04 0.16 0.05 0.16 0.05 0.17 0.05 0.15 0.06 0.19 0.09 0.09 0.04 0.27 0.14c0.55,0.34 0.89,0.74 1,1.17 0.18,0.68 -0.19,1.4 -1.11,1.92zm10.54 -2.06c-0.6,-0.6 -1.32,-1.16 -2.18,-1.67 -0.17,-0.11 -0.35,-0.21 -0.53,-0.31l-0.18 -0.09 -0.37 -0.19 -0.22 -0.11 -0.34 -0.16 -0.25 -0.1 -0.2 -0.09 -0.13 -0.05 -0.31 -0.12 -0.32 -0.12 -0.31 -0.11 -0.32 -0.11 -0.33 -0.11 -0.33 -0.1 -0.32 -0.09 -0.35 -0.09 -0.33 -0.08 -0.34 -0.08 -0.35 -0.07 -0.34 -0.07 -0.35 -0.06 -0.35 -0.06 -0.35 -0.05 -0.18 -0.03 -0.14 -0.02c-0.2,-0.03 -0.4,-0.05 -0.61,-0.07l-0.23 -0.03c-0.28,-0.02 -0.56,-0.04 -0.84,-0.06l-0.14 -0.01c-0.23,-0.02 -0.47,-0.03 -0.71,-0.03l-0.27 -0.01c-0.2,-0.01 -0.4,-0.01 -0.6,-0.01l-0.28 0c-0.23,0.01 -0.46,0.01 -0.69,0.02l-0.16 0.01c-0.28,0.01 -0.56,0.03 -0.84,0.05l-0.23 0.02c-0.21,0.02 -0.41,0.03 -0.62,0.06l-0.28 0.03c-0.2,0.03 -0.4,0.05 -0.6,0.08l-0.17 0.02 -0.07 0.02c-0.28,0.04 -0.55,0.08 -0.82,0.14l-0.09 0.02c-0.24,0.04 -0.48,0.09 -0.72,0.15l-0.25 0.06c-0.19,0.04 -0.38,0.09 -0.56,0.14l-0.26 0.07c-0.21,0.06 -0.41,0.12 -0.61,0.19l-0.17 0.05c-0.25,0.08 -0.5,0.17 -0.75,0.26l-0.18 0.07c-0.19,0.07 -0.37,0.15 -0.56,0.22l-0.23 0.1c-0.17,0.08 -0.34,0.15 -0.5,0.23l-0.22 0.11c-0.22,0.11 -0.45,0.23 -0.67,0.35 -0.24,0.13 -0.47,0.27 -0.68,0.41l-0.18 0.12c-0.17,0.1 -0.34,0.22 -0.5,0.33l-0.13 0.1c-0.19,0.15 -0.38,0.29 -0.56,0.44l-0.11 0.1c-0.14,0.13 -0.27,0.25 -0.4,0.37l-0.08 0.08 -0.05 0.06c-0.15,0.15 -0.29,0.3 -0.42,0.45l-0.02 0.02c-0.13,0.16 -0.26,0.32 -0.37,0.49l-0.1 0.13 -0.25 0.39 -0.07 0.13c-0.1,0.16 -0.18,0.33 -0.26,0.5l-0.03 0.1c-0.07,0.14 -0.12,0.28 -0.17,0.42l-0.05 0.15c-0.05,0.15 -0.09,0.3 -0.12,0.45l-0.02 0.07c-0.03,0.17 -0.06,0.35 -0.08,0.52l0 0.14 -0.02 0.41 0 0.08 0 0.05c0.01,0.18 0.02,0.36 0.04,0.53l0.02 0.08c0.02,0.15 0.05,0.3 0.08,0.46l0.04 0.14c0.04,0.16 0.09,0.31 0.15,0.46l0.02 0.07c0.07,0.17 0.14,0.35 0.23,0.51l0.02 0.06 0.07 0.12 0.13 0.24 0.11 0.18 0.16 0.24 0.13 0.18 0.17 0.23 0.15 0.18 0.2 0.23 0.1 0.11 0.05 0.05c0.14,0.16 0.29,0.3 0.45,0.45l0.01 0.01c0.16,0.15 0.33,0.29 0.51,0.43l0.16 0.13c0.13,0.1 0.27,0.2 0.42,0.31l0.17 0.12c0.19,0.13 0.39,0.26 0.6,0.39l0.02 0.01 0.01 0.01c5.81,3.49 15.42,3.59 21.47,0.21 5.16,-2.87 6.07,-7.34 2.63,-10.76z"/>
   <path class="fil6" d="M29.96 24.15c-3.39,-0.96 -6.32,-0.73 -9.43,0.14 -1.81,0.51 -3.69,1.23 -5.75,2.06l-0.16 0.06c-5.65,2.34 -9.56,7.76 -9.56,7.76 -0.15,-0.11 -0.29,-0.21 -0.42,-0.31l-0.16 -0.13c-0.18,-0.14 -0.35,-0.28 -0.51,-0.43l-0.01 -0.01c-0.16,-0.15 -0.31,-0.29 -0.45,-0.45l-0.05 -0.05 -0.1 -0.11 -0.2 -0.23 -0.15 -0.18 -0.17 -0.23 -0.13 -0.18 -0.16 -0.24 -0.11 -0.18 -0.13 -0.24 -0.07 -0.12 -0.02 -0.06c-0.09,-0.16 -0.16,-0.34 -0.23,-0.51l-0.02 -0.07c-0.06,-0.15 -0.11,-0.3 -0.15,-0.46l-0.04 -0.14c-0.03,-0.16 -0.06,-0.31 -0.08,-0.46l-0.02 -0.08c-0.02,-0.17 -0.03,-0.35 -0.04,-0.53l0 -0.05 0 -0.08 0.02 -0.41 0 -0.14c0.02,-0.17 0.05,-0.35 0.08,-0.52l0.02 -0.07c0.03,-0.15 0.07,-0.3 0.12,-0.45l0.05 -0.15c0.05,-0.14 0.1,-0.28 0.17,-0.42l0.03 -0.1c0.08,-0.17 0.16,-0.34 0.26,-0.5l0.07 -0.13 0.25 -0.39 0.1 -0.13c0.11,-0.17 0.24,-0.33 0.37,-0.49l0.02 -0.02c0.13,-0.15 0.27,-0.3 0.42,-0.45l0.05 -0.06 0.08 -0.08c0.13,-0.12 0.26,-0.24 0.4,-0.37l0.11 -0.1c0.18,-0.15 0.37,-0.29 0.56,-0.44l0.13 -0.1c0.16,-0.11 0.33,-0.23 0.5,-0.33l0.18 -0.12c0.21,-0.14 0.44,-0.28 0.68,-0.41 0.22,-0.12 0.45,-0.24 0.67,-0.35l0.22 -0.11c0.16,-0.08 0.33,-0.15 0.5,-0.23l0.23 -0.1c0.19,-0.07 0.37,-0.15 0.56,-0.22l0.18 -0.07c0.25,-0.09 0.5,-0.18 0.75,-0.26l0.17 -0.05c0.2,-0.07 0.4,-0.13 0.61,-0.19l0.26 -0.07c0.18,-0.05 0.37,-0.1 0.56,-0.14l0.25 -0.06c0.24,-0.06 0.48,-0.11 0.72,-0.15l0.09 -0.02c0.27,-0.06 0.54,-0.1 0.82,-0.14l0.07 -0.02 0.17 -0.02c0.2,-0.03 0.4,-0.05 0.6,-0.08l0.28 -0.03c0.21,-0.03 0.41,-0.04 0.62,-0.06l0.23 -0.02c0.28,-0.02 0.56,-0.04 0.84,-0.05l0.16 -0.01c0.23,-0.01 0.46,-0.01 0.69,-0.02l0.28 0c0.2,0 0.4,0 0.6,0.01l0.27 0.01c0.24,0 0.48,0.01 0.71,0.03l0.14 0.01c0.28,0.02 0.56,0.04 0.84,0.06l0.23 0.03c0.21,0.02 0.41,0.04 0.61,0.07l0.14 0.02 0.18 0.03 0.35 0.05 0.35 0.06 0.35 0.06 0.34 0.07 0.35 0.07 0.34 0.08 0.33 0.08 0.35 0.09 0.32 0.09 0.33 0.1 0.33 0.11 0.32 0.11 0.31 0.11 0.32 0.12 0.31 0.12 0.13 0.05 0.2 0.09 0.25 0.1 0.34 0.16 0.22 0.11 0.37 0.19 0.18 0.09c0.18,0.1 0.36,0.2 0.53,0.31 0.86,0.51 1.58,1.07 2.18,1.67z"/>
   <path class="fil7" d="M6.09 22.23c2.12,-1.17 3.98,-1.65 5.21,-1.93 1.78,-0.4 3.85,-0.62 5.84,-0.6 2.01,0.02 3.96,0.26 5.79,0.72 0.76,0.19 0.76,0.19 2.16,0.65 0.31,0.11 0.71,0.28 1.02,0.41 0.01,0 0.91,0.37 1.9,0.97l-0.23 0.03c-5.81,-3.5 -15.42,-3.6 -21.47,-0.22 -6.05,3.37 -6.25,8.94 -0.45,12.44 5.81,3.49 15.42,3.59 21.47,0.21 6.06,-3.37 6.26,-8.94 0.45,-12.43l0.23 -0.03c0.5,0.33 1.18,0.75 1.62,1.16 0.2,0.19 0.49,0.43 0.68,0.64 0.34,0.39 0.8,0.93 1.08,1.37 0.73,1.12 1.14,2.5 1.12,3.78 0,0.24 -0.01,0.56 -0.05,0.79 -0.08,0.5 -0.22,1.16 -0.34,1.65 0,0.01 -0.2,0.79 -0.78,2.16 -0.77,1.85 -2.15,4.46 -3.61,6.83 -0.58,0.95 -1.54,1.84 -2.88,2.59 -4.61,2.56 -11.92,2.49 -16.34,-0.17 -1.15,-0.7 -2,-1.5 -2.53,-2.36 -1.5,-2.42 -2.87,-4.97 -3.65,-6.81 -0.6,-1.41 -0.81,-2.21 -0.91,-2.6 -0.26,-1.01 -0.29,-1.72 -0.29,-1.98 0.01,-0.47 0.09,-1.1 0.17,-1.56 0.04,-0.23 0.15,-0.53 0.22,-0.76 0.14,-0.47 0.43,-1.06 0.71,-1.46 0.29,-0.43 0.73,-0.98 1.07,-1.37 0.18,-0.21 0.46,-0.46 0.67,-0.64 0.61,-0.55 1.5,-1.14 2.12,-1.48z"/>
   <path class="fil0" d="M26.11 84.34l0.06 -0.16 0.04 -0.12 0.05 -0.16 0.03 -0.13 0.03 -0.16 0.02 -0.13 0.01 -0.16 0.01 -0.12 0 -0.18 0 -0.11 -0.02 -0.19 -0.01 -0.1 -0.06 -0.29 -0.08 -0.35 -0.16 -0.67c-0.06,-0.29 -0.15,-0.67 -0.21,-0.96l-0.27 -1.21c-0.09,-0.44 -0.21,-1.01 -0.3,-1.44l-0.32 -1.63c-0.1,-0.53 -0.23,-1.25 -0.33,-1.79l-0.33 -1.9c-0.1,-0.6 -0.22,-1.41 -0.31,-2.01l-0.29 -2.05c-0.08,-0.63 -0.17,-1.47 -0.25,-2.11l-0.19 -2.03c-0.04,-0.63 -0.09,-1.46 -0.13,-2.09l-0.05 -1.86c0,-0.58 0.03,-1.35 0.05,-1.93l0.12 -1.47c0.07,-0.49 0.18,-1.13 0.28,-1.62l0.22 -0.74 0 -0.11 -0.28 0.15 -0.19 0.13c-0.21,0.15 -0.43,0.29 -0.68,0.42 -2.23,1.25 -5.37,1.62 -8.13,1.13l-0.17 -0.03c-0.18,-0.04 -0.35,-0.07 -0.52,-0.11l-0.2 -0.05c-0.19,-0.05 -0.38,-0.11 -0.57,-0.16l-0.08 -0.03c-0.21,-0.06 -0.41,-0.14 -0.61,-0.22l-0.17 -0.06c-0.15,-0.07 -0.3,-0.13 -0.44,-0.2l-0.17 -0.08c-0.19,-0.1 -0.37,-0.19 -0.55,-0.3 -0.15,-0.09 -0.29,-0.18 -0.42,-0.28 0.19,0.14 0.37,0.34 0.52,0.59l-0.52 -0.59c-0.23,-0.15 -0.23,-0.15 -0.5,-0.23l0.02 0.07c0.14,0.41 0.28,0.97 0.37,1.38l0.15 0.97c0.06,0.54 0.11,1.26 0.15,1.79l0.04 1.62c0,0.6 -0.03,1.41 -0.05,2.01l-0.11 1.93c-0.05,0.62 -0.13,1.44 -0.18,2.05l-0.23 2.04c-0.55,4.44 -1.4,9.31 -2.54,14.48l-0.07 0.29c-0.02,1.24 0.69,2.48 2.13,3.5 0.06,-0.38 0.12,-0.78 0.19,-1.19 -0.1,0.63 -0.17,1.04 -0.19,1.19 0.15,0.11 0.31,0.21 0.48,0.31 0.2,0.12 0.41,0.24 0.62,0.34l0.13 0.06 0.08 0.04 0.08 0.05 0 -0.01 0.09 0.04c0.18,0.08 0.36,0.16 0.54,0.23l0.33 0.11c0.17,0.06 0.34,0.12 0.51,0.18l0.37 0.1c0.17,0.05 0.34,0.09 0.51,0.13l0.39 0.08c0.17,0.04 0.35,0.07 0.53,0.1l0.39 0.06c0.18,0.03 0.36,0.05 0.55,0.07l0.39 0.03c0.19,0.02 0.38,0.03 0.57,0.03l0.38 0.02c0.2,0 0.41,0 0.61,-0.01l0.28 0 0 0c2.06,-0.08 4.09,-0.55 5.72,-1.41l0 0.01 0.2 -0.11c0.29,-0.16 0.54,-0.32 0.78,-0.49 0.78,-0.56 1.34,-1.18 1.69,-1.83l0 0 0.04 -0.07 0.07 -0.16 0.06 -0.13z"/>
   <path class="fil4" d="M18.04 56.37c-3.11,0.38 -3.37,0.42 -3.57,1.59 -0.93,5.31 -0.41,10.7 -0.77,16.04 -0.31,4.64 -0.84,9.26 -1.16,13.91 -0.85,-0.26 -1.64,-0.61 -2.34,-1.03 -0.17,-0.1 -0.33,-0.2 -0.48,-0.31l0.07 -0.41c1.99,-12.51 3.75,-28.12 0.75,-31.49 0.13,0.1 0.27,0.19 0.42,0.28 2.01,1.21 4.86,1.67 7.52,1.36l-0.44 0.06z"/>
   <line class="fil8" x1="9.72" y1="86.57" x2="9.72" y2= "86.57" />
   <path class="fil2" d="M17.55 88.53c0,0 0.23,-13.92 0.65,-19.97 0.42,-6.04 1.01,-11.16 2.13,-2.78 1.12,8.37 2.94,21.35 2.94,21.35 0,0 -1.87,1.33 -5.72,1.4z"/>
   <path class="fil4" d="M4.8 106.6c-2.84,-1.71 -4.39,-3.86 -4.66,-6.06l0.03 0.08 0.07 0.06c0.25,0.07 1.36,-2.26 1.37,-2.28 0.69,1.42 1.97,2.76 3.86,3.9 0.43,0.26 0.88,0.5 1.35,0.72 -0.04,0.07 -0.59,2.91 0,4.43l0.17 0.26c-0.77,-0.33 -1.5,-0.7 -2.19,-1.11z"/>
   <path class="fil1" d="M1.65 96.69l5.07 -8.96c0.51,0.63 1.21,1.23 2.1,1.76 0.22,0.14 0.45,0.26 0.69,0.39l-3.68 10.02c-0.36,-0.18 -0.71,-0.37 -1.05,-0.57 -1.32,-0.8 -2.36,-1.69 -3.13,-2.64z"/>
   <path class="fil2" d="M23.05 90.46c-0.22,0.08 -0.45,0.16 -0.68,0.23 -0.31,0.1 -0.63,0.19 -0.95,0.27 -0.46,0.11 -0.92,0.21 -1.39,0.29 -0.29,0.04 -0.59,0.08 -0.89,0.12l1.09 10.77c0.45,-0.05 0.9,-0.12 1.34,-0.19 0.7,-0.11 1.4,-0.25 2.07,-0.42 0.48,-0.12 0.96,-0.26 1.42,-0.4 0.35,-0.11 0.69,-0.23 1.02,-0.35l-3.03 -10.32z"/>
   <path class="fil4" d="M0.14 102.58l-0.01 -2.04c0.28,2.2 1.83,4.35 4.67,6.06 0.69,0.42 1.43,0.79 2.2,1.12l0.01 2.03c-0.77,-0.32 -1.51,-0.7 -2.2,-1.11 -2.84,-1.71 -4.39,-3.87 -4.67,-6.06z"/>
   <path class="fil7" d="M8.82 89.49c-0.79,-0.47 -1.42,-0.99 -1.91,-1.54l-0.16 -0.19 -0.19 -0.24 -0.18 -0.25 -0.21 -0.34 -0.15 -0.29 -0.17 -0.39 -0.12 -0.31 -0.12 -0.44 -0.06 -0.35c-0.02,-0.14 -0.04,-0.34 -0.05,-0.49l-0.01 -0.37c0.01,-0.15 0.02,-0.35 0.04,-0.5l-0.02 0.16c0.02,0.27 0.06,0.97 1.23,1.43 0.5,0.8 1.29,1.56 2.38,2.21 0.82,0.5 1.76,0.9 2.76,1.2 -1.54,1.49 1.35,2.45 3.9,2.67 -2.56,-0.16 -5.04,-0.81 -6.96,-1.97z"/>
   <path class="fil1" d="M18.49 52.81c-0.29,0.02 -0.96,0.08 -1.87,0.07l-0.94 -0.03c-0.28,-0.03 -0.65,-0.05 -0.93,-0.08l-0.92 -0.11c-0.28,-0.04 -0.65,-0.1 -0.93,-0.16l-0.88 -0.19c-0.28,-0.08 -0.64,-0.17 -0.91,-0.25l-0.83 -0.27c-0.27,-0.11 -0.62,-0.24 -0.88,-0.35l-0.76 -0.36c-0.26,-0.14 -0.6,-0.32 -0.85,-0.47l-0.63 -0.41c-0.72,-0.52 -0.86,-0.63 -1.48,-1.24l-0.4 -0.45c-0.21,-0.26 -0.47,-0.62 -0.66,-0.9l-0.24 -0.43c-0.09,-0.2 -0.22,-0.46 -0.3,-0.67l-0.14 -0.38c-0.04,-0.14 -0.1,-0.34 -0.14,-0.48l-0.07 -0.32 -0.07 -0.36 -0.03 -0.24 -0.04 -0.26 -0.02 -0.17 -0.02 -0.18 -0.01 -0.11 -0.03 -0.2 -0.02 -0.18 0.07 0.36c0.21,0.6 0.44,1.11 1.27,1.21 0.39,0.04 0.93,-0.39 1.14,-0.55 0.04,-0.04 0.04,-0.04 1.09,-0.24l-0.29 -0.41c0.44,0.43 0.98,0.83 1.6,1.21l0.23 0.13 -0.27 -0.11 -0.17 -0.06c0.12,0.97 -0.18,1.95 0.01,2.92 0.11,0.61 0.11,0.61 0.13,0.65 0.14,0.32 0.53,0.39 0.69,0.69 0.15,0.29 0.08,0.62 0.17,0.91 0.06,0.19 0.26,0.52 0.89,0.95 0.3,0.21 3.13,2.01 9.14,1.46 -0.21,0.02 -0.49,0.05 -0.7,0.06z"/>
   <path class="fil9" d="M22.76 49.42c-0.14,0.17 -2.05,0.63 -2.07,0.63 -0.2,0.02 -0.47,0.05 -0.66,-0.01l-0.26 -0.26 0.77 -0.87 2.11 -0.02 0.24 0.23 -0.13 0.3z"/>
   <path class="fil1" d="M5.2 41.43l0.2 -1.89c0.32,1.35 1.36,2.65 3.11,3.71 0.42,0.25 0.85,0.48 1.31,0.68l-0.12 1.97c-0.46,-0.21 -0.91,-0.44 -1.33,-0.69 -1.79,-1.08 -2.84,-2.41 -3.17,-3.78z"/>
   <path class="fil1" d="M8.51 43.25c-1.15,-0.7 -2,-1.5 -2.53,-2.36l-0.09 -0.14 -0.15 -0.25 -0.22 -0.36 -0.27 -0.45 -0.31 -0.52c-0.1,-0.18 -0.24,-0.42 -0.34,-0.6l-0.36 -0.65c-0.12,-0.21 -0.27,-0.49 -0.38,-0.7l-0.39 -0.74c-0.12,-0.23 -0.28,-0.54 -0.39,-0.77l-0.38 -0.8c-0.11,-0.25 -0.26,-0.58 -0.37,-0.83l-0.34 -0.83c-0.09,-0.27 -0.23,-0.63 -0.32,-0.91l-0.25 -0.86c-0.08,-0.36 -0.18,-0.84 -0.23,-1.2 -0.01,-0.15 -0.03,-0.36 -0.05,-0.51l0.04 0.31c0.16,0.81 0.75,1.68 0.99,2.02 1.53,2.12 4.17,2.97 5.75,5.04 1.04,1.37 1.85,3.22 2.79,5.37 0.83,1.91 0.88,1.98 0.96,2.09 -1.14,-0.34 -2.22,-0.79 -3.16,-1.35z"/>
   <path class="fil2" d="M24.61 36.96c-1.53,0.65 -2.99,0.84 -3.86,0.96 -1.48,0.19 -1.59,0.06 -1.81,-0.21 1.4,-0.21 3.52,-0.53 5.61,-1.15 0.19,-0.05 0.45,-0.24 0.64,-0.19l0.2 0.21c-0.05,0.26 -0.54,0.28 -0.78,0.38z"/>
   <path class="fil10" d="M20.91 18.29l-0.08 0.02 -0.09 0.01 -0.15 0.04 -0.1 0.03 -0.03 0 0 0.01c-0.71,0.2 -1.72,0.64 -3.11,1.38 1.71,-0.92 2.84,-1.36 3.56,-1.49zm0.76 0.01l-0.01 0 -0.04 -0.01 -0.08 -0.02 -0.05 -0.01 -0.09 -0.01 -0.07 0 -0.1 0 -0.07 0.01 -0.12 0.01 -0.08 0.01 -0.05 0.01c0.34,-0.06 0.59,-0.05 0.76,0.01zm2.01 2.02l-0.03 -0.07 -0.22 -0.37 -0.25 -0.34 -0.3 -0.33 -0.33 -0.31c-0.31,-0.25 -0.53,-0.39 -0.79,-0.55l-0.07 -0.04 0.07 0.04c-3.37,-1.87 -7.3,-1.4 -9.71,-0.11 -0.4,0.22 -1.41,0.84 -2,1.86 -0.1,0.18 -0.25,0.47 -0.34,0.85l0 -0.02 -0.07 0.32 -0.04 0.38 0.01 0.44 0.02 0.11 0.04 0.25 0.01 0.03 0.02 0.06 0.11 0.37 0.01 0.03 0.01 0.02 0.14 0.32 0.02 0.04 0.02 0.05 0.17 0.29 0.07 0.12 0.27 0.35 0.39 0.43 0.35 0.32c0.14,0.12 0.34,0.26 0.49,0.37 0.75,0.54 1.87,1.07 3.21,1.33l0.02 0.01 0.02 0 0.39 0.06 0.03 0.01 0.03 0 0.39 0.05 0.01 0 0.02 0.01c0.52,0.05 1.05,0.06 1.61,0.01l0.05 0 0.05 0 0.31 -0.04 0.08 0 0.12 -0.02 0.27 -0.04 0.03 -0.01c0.14,-0.02 0.33,-0.06 0.47,-0.09l0.37 -0.09 0.06 -0.02 0.09 -0.03c0.94,-0.26 2.11,-0.75 3.07,-1.63l0.13 -0.11 0.33 -0.33 0.34 -0.43 0.25 -0.37 0.22 -0.44 0.14 -0.39 0.02 -0.05 0 -0.01c0.12,-0.34 0.34,-1.23 -0.2,-2.29z"/>
   <path class="fil5" d="M18.09 17.51l-0.18 0.09 0.18 -0.09zm3.07 0.75l-0.08 0 0.12 -0.01 -0.04 0.01zm0.23 -0.01l-0.06 0 -0.05 0 0.11 0zm0.1 0.01l-0.04 0 0.11 0.01 -0.02 0 -0.05 -0.01zm-1.27 0.21l0.17 -0.05 -0.17 0.05zm-0.34 0.12l0.17 -0.06 -0.17 0.06zm0.7 -0.22l0.1 -0.03 -0.09 0.02 -0.01 0.01zm-1.2 0.42l0.15 -0.06 -0.15 0.06zm-0.46 0.2l0.18 -0.08 -0.18 0.08zm-0.48 0.23l0.19 -0.09 -0.19 0.09zm-0.53 0.27l0.18 -0.09 -0.18 0.09zm-8.09 1.54l0.01 0.02 0.14 0.32 0.02 0.04 0.02 0.05 0.17 0.29 0.07 0.12 0.27 0.35 0.39 0.43 0.35 0.32c0.14,0.12 0.34,0.26 0.49,0.37 0.75,0.54 1.87,1.07 3.21,1.33l0.02 0.01 0.02 0 0.39 0.07 0.03 0 0.03 0 0.39 0.05 0.01 0 0.01 0c0.53,0.06 1.06,0.07 1.62,0.02l0.05 0 0.05 0 0.31 -0.04 0.08 0 0.12 -0.02 0.27 -0.04 0.03 -0.01c0.14,-0.02 0.33,-0.06 0.47,-0.09l0.37 -0.09 0.06 -0.02 0.09 -0.02c0.94,-0.27 2.11,-0.76 3.07,-1.64l0.13 -0.11 0.33 -0.33 0.34 -0.43 0.25 -0.36 0.22 -0.45 0.14 -0.39 0 -0.01c-0.04,-0.14 -0.1,-0.29 -0.18,-0.45l-0.03 -0.07 -0.22 -0.37 -0.25 -0.34 -0.3 -0.33 -0.33 -0.31c-0.31,-0.25 -0.53,-0.39 -0.79,-0.55l-0.07 -0.04 0.07 0.04c-1.02,-0.57 -2.09,-0.92 -3.16,-1.1l-0.16 0.08 0.16 -0.08c-2.45,-0.41 -4.87,0.09 -6.55,0.99 -0.4,0.22 -1.41,0.84 -2,1.86 -0.09,0.15 -0.21,0.4 -0.3,0.71l0.06 0.19 0.01 0.03z"/>
   <polygon class="fil10" points="9.71,20.92 9.71,20.93 9.73,20.85 "/>
   <path class="fil1" d="M17.53 26.71c-0.56,0.03 -0.56,0.03 -0.84,0.03l-0.42 -0.01 -0.42 -0.04 -0.43 -0.05 -0.44 -0.07 -0.43 -0.1c-0.14,-0.04 -0.33,-0.09 -0.47,-0.13l-0.44 -0.14c-0.15,-0.06 -0.36,-0.14 -0.51,-0.21l-0.44 -0.2c-0.16,-0.09 -0.37,-0.2 -0.53,-0.29l-0.41 -0.27c-0.15,-0.11 -0.35,-0.25 -0.49,-0.37l-0.35 -0.32 -0.39 -0.43 -0.27 -0.35c-0.08,-0.14 -0.19,-0.32 -0.26,-0.46l-0.17 -0.38c-0.05,-0.13 -0.11,-0.32 -0.14,-0.46l-0.07 -0.39 -0.01 -0.09 0.02 0.13c0.1,0.3 0.14,0.43 0.5,0.77l0.06 0.05c0.49,0.43 1.07,0.71 1.57,1.12 0.15,0.13 0.34,0.33 0.42,0.51 0.23,0.49 0.68,0.91 1.31,1.24 1.55,0.8 3.13,1.07 4.83,0.82l-0.43 0.06 -0.35 0.03z"/>
   <path class="fil11" d="M20.36 25.13c-1.28,0.65 -2.32,0.48 -2.33,0.48l0.08 -0.29 2.16 -0.46 0.13 0.24 -0.04 0.03z"/>
   <path class="fil12" d="M24.29 13.16l0 0 0 0 0 0zm-1.52 4.69l-0.01 0 0.01 0 0 0zm-7.47 -13.24l0 0 0 0zm0.08 -0.05l0 0 0 0 0 0zm8.91 8.59l0 0 0 0 0 0zm-1.54 4.71l0.01 -0.01 -0.01 0.01zm1.54 -4.72l0 0.01 0 0 0 -0.01zm-2.81 1.46l0 0 -0.01 0 0.01 0zm-0.01 -0.01l0 0.01 0 0 0 -0.01zm-0.02 0l0.01 0 0 0 -0.01 0zm2.82 -6.02l0 0 0 0zm-9.5 13.9l0 0 0 0 0.01 -0.01 0 0.01 -0.01 0zm10.32 -11.86l0 -0.03 0.01 -0.18 -0.01 -0.05c0.01,-0.45 -0.11,-0.83 -0.38,-1.26l-0.11 -0.17 -0.02 -0.04 -0.01 -0.01 -0.09 -0.13 -0.06 -0.07 -0.04 -0.05 -0.14 -0.17 -0.13 -0.15 -0.01 -0.01 -0.02 -0.02 0 0 0 0 0 0 -0.02 -0.02 -0.13 -0.13 -0.02 -0.02 -0.08 -0.07 0 0 -0.03 -0.02 -0.08 -0.07 -0.04 -0.04 -0.02 -0.01 -0.04 -0.03 -0.15 -0.11 -0.02 -0.02 -0.03 -0.02 0 0 -0.01 -0.01 -0.05 -0.03 -0.16 -0.11 -0.03 -0.02 -0.02 -0.01 -0.03 -0.02 -0.25 -0.15 -0.39 -0.23 -0.15 -0.08 0 0 -0.07 -0.04 -0.05 -0.03c0.16,-0.46 0.33,-0.9 0.53,-1.33l-0.03 0.04 0 0 0.03 -0.13 0.01 0 -0.01 -0.04 -0.02 -0.04 -0.05 -0.09 -0.02 -0.03 -0.12 -0.14 -0.02 -0.03 -0.14 -0.13 -0.07 -0.06 -0.14 -0.11 -0.08 -0.06 -0.17 -0.12 -0.08 -0.05 -0.27 -0.17 -0.39 -0.22c-0.61,-0.36 -1.22,-0.59 -1.6,-0.63l-0.02 0 -0.01 -0.01 0 0 -0.21 -0.01 -0.2 -0.02 -0.22 0 -0.21 0 -0.21 0.01 -0.21 0.01 -0.21 0.03 -0.09 0.01 -0.03 0 -0.08 0.01 -0.17 0.03 0.01 0 -0.05 0.01 -0.21 0.04 0 0 0 0 -0.01 0 -0.2 0.05 -0.13 0.03 -0.04 0.02 -0.03 0 -0.21 0.07 -0.05 0.01 -0.09 0.03 -0.07 0.03 -0.12 0.04 -0.09 0.03 0 0.01 -0.2 0.08 -0.01 0 -0.08 0.04 -0.12 0.05 -0.05 0.02 -0.06 0.03 -0.1 0.05 -0.05 0.03 0.03 -0.02 -0.01 0 -0.06 0.04 -0.02 0.01 -0.03 0.01 -0.07 0.04 -0.04 0.02 -0.13 0.07 -0.03 0.02 0 0 0 0 -0.08 0.05 0 0 -0.07 0.04 -0.21 0.12 -0.06 0.04 -0.13 0.08 -0.01 0.01 -0.21 0.14 -0.02 0.02 -0.08 0.05 -0.1 0.08 -0.21 0.15 -0.19 0.15 0.06 -0.04 -0.07 0.05 -0.01 0 -0.01 0.02 -0.01 0 -0.18 0.15 -0.18 0.15 -0.01 0.01 -0.01 0.01 -0.2 0.18 -0.05 0.04 -0.09 0.08 -0.06 0.06c-0.17,0.15 -0.38,0.36 -0.63,0.62l-0.12 0.13 -0.04 0.04 -0.08 0.09 -0.08 0.08 -0.03 0.04 -0.12 0.13 -0.04 0.05 -0.03 0.03 -0.19 0.21 -0.12 0.15 0.04 -0.06 -0.1 0.13 -0.18 0.22 -0.18 0.22 -0.01 0.01 0 -0.01 -0.01 0.05 0.01 -0.01 0.2 0.28 -0.04 -0.04c0.79,0.79 1.11,2.41 1.22,2.95 -0.19,0.09 -0.37,0.19 -0.55,0.29l-0.17 0.09 -0.04 0.01c-0.25,0.13 -0.49,0.26 -0.74,0.39l-0.14 0.07 -0.38 0.19 -0.04 0.02 -0.11 0.06c-0.24,0.12 -0.72,0.35 -0.72,0.36l-0.13 0.3 -0.02 0.05 -0.02 0.04c-0.19,0.46 -0.29,0.76 -0.34,0.91l0 0 -0.09 0.27 -0.03 0.1 -0.03 0.11 -0.01 0.05 -0.01 0.04c-0.04,0.15 -0.07,0.3 -0.09,0.43l0 0.02 -0.01 0.06 -0.01 0.08 0 0.09 -0.01 0.04 0 0.17 0.01 0.21 0.01 0.08 0.01 0.09 0 0.03 0.05 0.21 0.01 0.04 0.01 0.04 0.04 0.11 0.07 0.17 0 0 0.03 0.06 0.09 0.18 0.02 0.04 0.01 0 0.13 0.22 0.03 0.03 0 0.01 0.1 0.13 0.06 0.08 0.03 0.04 0.14 0.17 0.16 0.19c0.24,0.26 0.69,0.6 1.22,0.91l0.38 0.22 0.21 0.12c-0.15,0.47 -0.31,0.92 -0.49,1.36 -0.08,0.21 0.42,0.71 1.2,1.17l0.39 0.22 0.25 0.14 0.02 0.01 0.01 0.01 0.01 0 0 0 0.01 0 0.01 0.01 0.05 0.02 0.14 0.07 0.05 0.03 0.01 0 0.01 0.01 0.01 0 0.01 0.01 0.02 0.01 0.03 0.01 0.1 0.04 0.07 0.03 0.02 0.01 0.02 0.01 0.01 0 0.01 0 0 0.01 0.03 0.01 0 0 0.06 0.02 0.02 0 0.07 0.03 0.02 0.01 0.01 0 0.02 0.01 0.02 0 0.01 0.01 0.04 0.01 0.05 0.01 0.03 0.01 0.01 0.01 0.02 0 0.04 0.01 0.02 0.01 0.01 0 0.02 0 0.03 0.01 0.03 0.01 0.02 0 0.03 0.01 0.04 0 0.02 0.01 0.01 0 0.02 0 0 0 0.01 0 0.03 0 0 0 -0.01 0 0.26 0.02 0.02 0 0 0 0.13 0.01 0.08 0 0.24 0 0.22 -0.02 0.04 0 0.05 0 0.13 -0.02 0.09 -0.01 0.1 -0.01 0.02 0 0.22 -0.04 0.01 0 0.12 -0.03 0.08 -0.01 0.11 -0.03 0.06 -0.01 0.02 -0.01 0.02 0 0.08 -0.03 0.09 -0.02 -0.03 0.01 0.07 -0.02 0.21 -0.06 0.13 -0.05 0.02 0 0.06 -0.02 0.21 -0.08 0.19 -0.07 0.15 -0.07 0.07 -0.02 0.1 -0.05 0.06 -0.03 0.04 -0.01 0.05 -0.03 0.29 -0.14 0.06 -0.03 0.15 -0.08 0.31 -0.17 0.01 -0.01 0 0 0.22 -0.13c0.3,-0.19 0.59,-0.39 0.89,-0.61l0.02 -0.01 0.09 -0.08 0.29 -0.22 0.02 -0.02 0 0 0.02 -0.01 0.37 -0.31 0.03 -0.03 0.2 -0.18 0.2 -0.18 0.21 -0.2 0.08 -0.08 0.05 -0.04 0.07 -0.08 0.04 -0.04 0.04 -0.04 0.09 -0.09 0.01 -0.02 -0.01 0.02 0.04 -0.04 0.04 -0.04 0.11 -0.12 0.05 -0.05 0.11 -0.12 0.03 -0.03 0.06 -0.07 0.2 -0.23 0.19 -0.23 0.13 -0.16 0.07 -0.08 -0.01 0 0 0 0.01 -0.01 0.01 0 0 0 0 -0.01 0 -0.01 0 -0.01 -0.01 -0.02 0 -0.02 0 0 0 0.01 0 -0.01 -0.01 -0.01 -0.03 -0.06 -0.02 -0.02c-0.2,-0.26 -0.38,-0.56 -0.54,-0.9l0 0c-0.28,-0.58 -0.5,-1.29 -0.7,-2.17 0.18,-0.1 0.35,-0.19 0.53,-0.28 0.38,-0.2 0.73,-0.38 1.04,-0.54 0.14,-0.07 0.28,-0.14 0.42,-0.21l0.13 -0.07c0.22,-0.11 0.45,-0.23 0.67,-0.33l0 -0.01 0.01 0 0 0 0 0 0 0 0 0c0.08,-0.17 0.24,-0.54 0.39,-0.96l0.02 -0.04 0.01 -0.03 0.08 -0.22 0.02 -0.05 0 -0.02 0.03 -0.1 0.05 -0.16 0.07 -0.24 0.01 -0.02 0.03 -0.15 0.01 -0.04 0.01 -0.06 0.01 -0.06 0.02 -0.1 0.01 -0.07 0.02 -0.14 0 -0.04 0.01 -0.05z"/>
   <path class="fil5" d="M22.74 5.52l-0.02 -0.04 -0.05 -0.09 -0.02 -0.03 -0.12 -0.14 -0.02 -0.03 -0.14 -0.13 -0.07 -0.06 -0.14 -0.11 -0.08 -0.06 -0.17 -0.12 -0.08 -0.05 -0.27 -0.17 -0.39 -0.22c-0.61,-0.36 -1.22,-0.59 -1.6,-0.63l-0.24 -0.02 -0.2 -0.02 -0.22 0 -0.21 0 -0.21 0.01 -0.21 0.01 -0.21 0.03 -0.2 0.02 -0.21 0.04 -0.21 0.04 -0.21 0.05 -0.2 0.05 -0.21 0.07 -0.21 0.07 -0.21 0.08 -0.2 0.08 -0.21 0.09 -0.21 0.1 -0.21 0.11 -0.2 0.11 0.04 -0.01 -0.04 0.01 -0.01 0 0 0.01 0 0 -0.01 0 0 0 -0.01 0.01 0 0 0 0 -0.01 0 0 0.01 0 0 -0.01 0 0 0 -0.01 0 0 0 0 0.01 -0.01 0 0 0 -0.01 0 0 0.01 0 0 0 0 -0.01 0 0 0 0 0.01 -0.01 0 0 0 0 0 -0.01 0 0 0 0 0.01 -0.01 0 0 0 0 0 -0.01 0.01 0 0 -0.01 0 0 0 0 0 -0.01 0 0 0.01 0 0 -0.21 0.12 -0.2 0.13 -0.21 0.14 -0.2 0.15 -0.21 0.15 -0.2 0.16 -0.21 0.17 -0.2 0.17 -0.2 0.18 -0.2 0.18 -0.2 0.19 -0.2 0.2 -0.19 0.19 -0.2 0.21 -0.19 0.21 -0.19 0.21 -0.19 0.21 -0.18 0.22 -0.18 0.22 -0.18 0.22c-0.1,0.12 0.39,0.55 1.18,1.01l0.38 0.22 0.01 0.01 0.05 0.02 0 0c0.78,0.45 1.56,0.76 1.82,0.74l0.04 -0.05 -0.03 0.05 0.04 -0.01c1.15,-1.44 2.53,-2.79 3.88,-3.57l0.16 -0.09c1.35,-0.78 2.73,-1.02 3.88,-0.92l0.04 -0.13 0.01 0 -0.01 -0.04z"/>
   <path class="fil5" d="M24.27 8.56l0 -0.02 -0.06 -0.11 -0.02 -0.02 -0.02 -0.03 0 0 -0.06 -0.08 0 0 -0.02 -0.02 -0.03 -0.03 -0.13 -0.13 -0.02 -0.02 -0.08 -0.07 0 0 -0.03 -0.02 -0.08 -0.07 -0.04 -0.04 -0.02 -0.01 -0.04 -0.03 -0.15 -0.11 -0.02 -0.02 -0.03 -0.02 0 0 -0.01 -0.01 -0.05 -0.03 -0.16 -0.11 -0.03 -0.02 -0.02 -0.01 -0.03 -0.02 -0.25 -0.15 -0.39 -0.23c-0.76,-0.44 -1.44,-0.66 -1.63,-0.54 -0.85,0.57 -1.65,1.08 -2.87,1.84 0.27,-0.17 1.02,0.02 1.79,0.46l0.38 0.22 0.33 0.21 0.07 0.05 0.03 0.03 0.19 0.14 0.05 0.05 0.14 0.12 0.08 0.08 0.11 0.11c0.21,0.25 0.3,0.48 0.21,0.62 1.24,-0.78 2.15,-1.36 2.91,-1.87l0 -0.09z"/>
   <path class="fil5" d="M13.9 12.28c-0.76,-0.44 -1.27,-0.76 -1.24,-0.77 -1.22,0.64 -2.03,1.06 -2.88,1.47 0.07,-0.03 0.65,0.24 1.4,0.68l0.38 0.22c0.85,0.5 1.6,1.01 1.68,1.14 0.76,-0.37 1.67,-0.84 2.91,-1.49 -0.18,-0.08 -1.02,-0.54 -1.87,-1.03l-0.38 -0.22z"/>
   <path class="fil0" d="M18.81 6.61c1.36,-0.78 2.74,-1.02 3.89,-0.92 -0.58,1.24 -1.05,2.86 -1.34,4.83 1.24,-0.78 2.15,-1.36 2.91,-1.87 1.07,1.18 1.07,2.08 0.02,4.49 -0.74,0.35 -1.62,0.8 -2.84,1.45 0.35,1.58 0.82,2.65 1.3,3.27 -1.25,1.57 -2.69,2.76 -3.97,3.5 -1.28,0.74 -2.72,1.21 -3.98,1.09 0.48,-1.18 0.94,-2.78 1.28,-4.76 -1.22,0.77 -2.1,1.32 -2.83,1.82 -1.07,-1.18 -1.07,-2.09 -0.01,-4.49 0.76,-0.37 1.67,-0.84 2.91,-1.49 -0.31,-1.62 -0.79,-2.69 -1.37,-3.26 1.15,-1.44 2.53,-2.79 3.88,-3.57l0.08 -0.04 0.07 -0.05z"/>
   <path class="fil1" d="M15.98 4.23c-0.08,0.25 0.03,0.51 0.35,0.7 0.52,0.31 1.38,0.32 1.92,0.02 0.35,-0.2 0.48,-0.47 0.39,-0.72l0.27 0.77c0.11,0.31 -0.05,0.64 -0.47,0.87 -0.65,0.37 -1.68,0.35 -2.31,-0.02 -0.38,-0.23 -0.52,-0.55 -0.42,-0.84l0.03 -0.08 0.01 -0.04 0.03 -0.08 0.03 -0.07 0.01 -0.04 0.03 -0.08 0.02 -0.08 0.02 -0.04 0.03 -0.07 0.02 -0.08 0.02 -0.04 0.02 -0.08z"/>
   <path class="fil13" d="M19.9 2.6c0,1.44 -1.16,2.6 -2.6,2.6 -1.43,0 -2.6,-1.16 -2.6,-2.6 0,-1.43 1.17,-2.6 2.6,-2.6 1.44,0 2.6,1.17 2.6,2.6z"/>
   <path class="fil14" d="M19.73 2.33c0,1.2 -0.96,2.16 -2.15,2.16 -1.2,0 -2.17,-0.96 -2.17,-2.16 0,-1.19 0.97,-2.16 2.17,-2.16 1.19,0 2.15,0.97 2.15,2.16z"/>
   <path class="fil15" d="M18.8 1.96c0,0.39 -0.31,0.7 -0.7,0.7 -0.39,0 -0.71,-0.31 -0.71,-0.7 0,-0.39 0.32,-0.7 0.71,-0.7 0.39,0 0.7,0.31 0.7,0.7z"/>
   <path class="fil16" d="M27.54 32.6c0.27,1.15 -1.83,2.61 -4.68,3.28 -2.84,0.66 -5.37,0.27 -5.64,-0.88 -0.26,-1.15 -0.46,-6.75 2.39,-7.41 2.85,-0.66 7.66,3.86 7.93,5.01z"/>
   <path class="fil17" d="M23.52 20.03c0.17,0.49 0.25,1.04 0.09,1.56 -0.17,0.51 -0.46,0.98 -0.83,1.35 -0.76,0.77 -1.74,1.25 -2.74,1.58 -1.01,0.3 -2.06,0.44 -3.11,0.44 -1.05,-0.02 -2.09,-0.19 -3.08,-0.48 2.04,0.31 4.14,0.32 6.09,-0.31 0.97,-0.28 1.9,-0.74 2.64,-1.42 0.76,-0.65 1.2,-1.69 0.94,-2.72z"/>
   <path class="fil17" d="M12.51 18.24c-0.22,-1.11 0.13,-2.27 0.66,-3.26l0.01 -0.02 0.02 -0.01 2.89 -1.53 -0.06 0.12c-0.11,-0.58 -0.25,-1.16 -0.45,-1.71 -0.21,-0.54 -0.46,-1.12 -0.89,-1.43l-0.13 -0.1 0.09 -0.12c0.5,-0.66 1.06,-1.22 1.64,-1.77 0.58,-0.55 1.18,-1.08 1.83,-1.56 1.31,-0.95 2.96,-1.5 4.6,-1.32l0.24 0.03 -0.12 0.22c-0.76,1.45 -1.22,3.09 -1.36,4.74l-0.18 -0.11 2.94 -1.82 0.04 -0.03 0.03 0.03c0.45,0.39 0.65,0.96 0.71,1.51 0.06,0.55 -0.02,1.11 -0.18,1.64 0.13,-0.53 0.19,-1.09 0.11,-1.63 -0.08,-0.54 -0.31,-1.08 -0.72,-1.4l0.08 0 -2.88 1.91 -0.21 0.13 0.02 -0.24c0.09,-1.7 0.52,-3.38 1.32,-4.9l0.12 0.25c-1.53,-0.17 -3.1,0.38 -4.35,1.27 -0.64,0.46 -1.23,0.98 -1.81,1.52 -0.57,0.54 -1.14,1.1 -1.61,1.71l-0.04 -0.22c0.54,0.42 0.78,1.02 0.98,1.59 0.2,0.58 0.33,1.17 0.42,1.78l0.01 0.09 -0.08 0.03 -2.93 1.46 0.03 -0.03c-0.56,0.94 -0.96,2.06 -0.79,3.18z"/>
  </g>
 </g>
</svg>
