<?xml version="1.0" encoding="UTF-8"?>
<!DOCTYPE svg PUBLIC "-//W3C//DTD SVG 1.0//EN" "http://www.w3.org/TR/2001/REC-SVG-20010904/DTD/svg10.dtd">
<!-- Creator: CorelDRAW 2018 (64 Bit Versão de avaliação) -->
<svg xmlns="http://www.w3.org/2000/svg" xml:space="preserve" width="34px" height="110px" version="1.0" style="shape-rendering:geometricPrecision; text-rendering:geometricPrecision; image-rendering:optimizeQuality; fill-rule:evenodd; clip-rule:evenodd"
viewBox="0 0 34 111.62"
 xmlns:xlink="http://www.w3.org/1999/xlink">
 <defs>
  <style type="text/css">
   <![CDATA[
    .fil6 {fill:none;fill-rule:nonzero}
    .fil9 {fill:#FEFEFE;fill-rule:nonzero}
    .fil2 {fill:#F1F5F5;fill-rule:nonzero}
    .fil3 {fill:#DDE3E4;fill-rule:nonzero}
    .fil1 {fill:#C9CFCF;fill-rule:nonzero}
    .fil4 {fill:#C1C7C9;fill-rule:nonzero}
    .fil5 {fill:#AEB4B5;fill-rule:nonzero}
    .fil0 {fill:#A5ABAD;fill-rule:nonzero}
    .fil8 {fill:#757B7E;fill-rule:nonzero}
    .fil7 {fill:#303233;fill-rule:nonzero}
   ]]>
  </style>
 </defs>
 <g id="Camada_x0020_1">
  <metadata id="CorelCorpID_0Corel-Layer"/>
  <g id="_1659227491888">
   <path class="fil0" d="M33.84 91.34c-0.05,-0.28 -0.18,-0.65 -0.28,-0.93 -0.07,-0.19 -0.18,-0.42 -0.26,-0.6 0.21,0.43 0.37,0.87 0.47,1.31 -0.24,-0.99 -0.73,-1.96 -1.49,-2.88 -0.15,-0.18 -0.35,-0.43 -0.51,-0.61l-0.25 -0.31c-0.15,-0.19 -0.36,-0.43 -0.51,-0.62 -0.43,-0.51 -0.85,-1.03 -1.27,-1.54 -0.15,-0.19 -0.36,-0.43 -0.51,-0.62l-0.26 -0.3c-0.15,-0.19 -0.35,-0.44 -0.51,-0.62l-0.07 -0.09c-0.17,-0.96 -0.5,-1.61 -0.84,-2.16l-0.28 -0.4c-0.19,-0.23 -0.44,-0.52 -0.64,-0.74 -0.23,-0.25 -0.58,-0.54 -0.84,-0.76l0.2 0.2 -0.38 -0.28 -0.06 -0.27c-0.09,-0.43 -0.21,-1 -0.3,-1.44l-0.32 -1.62c-0.1,-0.54 -0.23,-1.25 -0.33,-1.79l-0.33 -1.9c-0.1,-0.61 -0.22,-1.41 -0.32,-2.02l-0.28 -2.04c-0.08,-0.63 -0.17,-1.47 -0.25,-2.11l-0.19 -2.04c-0.05,-0.62 -0.09,-1.45 -0.13,-2.08l-0.05 -1.86c0,-0.58 0.03,-1.36 0.05,-1.94l0.12 -1.46c0.07,-0.49 0.18,-1.13 0.28,-1.62l0.22 -0.74 0 -0.11 -0.28 0.15 -0.19 0.13c-0.21,0.14 -0.44,0.29 -0.68,0.43 1.29,-0.73 2.09,-1.63 2.39,-2.58 0.15,-0.47 0.39,-1.04 0.51,-1.29 0.07,-0.13 0.15,-0.3 0.26,-0.5 0.54,-0.31 1.12,-0.7 1.63,-1.13 0.38,-0.33 0.7,-0.64 0.95,-0.92 0.17,-0.2 0.52,-0.62 0.86,-1.18 0.56,-0.96 0.79,-1.89 0.89,-2.5 0.04,-0.3 0.07,-0.49 0.11,-0.89l0.03 -0.25 0.01 -0.1 0.05 -0.43c0.01,-0.17 0,-0.39 0,-0.56 0.01,-0.34 -0.1,-0.79 -0.17,-1.13 0,0 -0.12,-0.51 -0.47,-1.21 -0.24,-0.49 -0.49,-0.86 -0.71,-1.19l-0.12 -0.17c1.04,-1.82 1.97,-3.65 2.55,-5.04 0.57,-1.37 0.77,-2.15 0.78,-2.16 0.12,-0.49 0.26,-1.15 0.34,-1.65 0.04,-0.23 0.05,-0.55 0.05,-0.79 0.02,-1.27 -0.39,-2.65 -1.12,-3.78 -0.29,-0.44 -0.74,-0.97 -1.09,-1.37 -0.18,-0.21 -0.47,-0.44 -0.68,-0.63 -0.43,-0.41 -1.11,-0.84 -1.61,-1.16 -1,-0.6 -1.9,-0.97 -1.91,-0.98 -0.3,-0.12 -0.7,-0.3 -1.02,-0.4 -0.66,-0.22 -1,-0.34 -1.27,-0.42l-0.13 -0.33 0 0 -0.04 -0.08 -0.12 -0.21 0 0 0 0 -0.09 -0.16 -0.25 -0.34 -0.31 -0.33 -0.33 -0.3c-0.15,-0.13 -0.27,-0.22 -0.4,-0.31l0.06 -0.06 0.2 -0.22 0.19 -0.24 0.13 -0.15 0.07 -0.09 -0.01 0 0 0.01 0.01 -0.01 0 -0.01 0 0 0 0 0.01 -0.01 0 -0.02 -0.01 -0.02 0 -0.01 0 0 0 0 0 0 -0.01 -0.01 -0.04 -0.06 -0.01 -0.02c-0.2,-0.27 -0.38,-0.56 -0.54,-0.91l0 0c-0.28,-0.58 -0.5,-1.28 -0.7,-2.17 0.17,-0.09 0.35,-0.18 0.53,-0.28 0.38,-0.2 0.72,-0.38 1.04,-0.54 0.14,-0.07 0.27,-0.14 0.41,-0.21l0.14 -0.07c0.22,-0.11 0.44,-0.22 0.67,-0.33l0 0 0 0 0.01 0 0 0 0 0 0 -0.01 0 0.01c0.07,-0.18 0.24,-0.55 0.39,-0.96l0.02 -0.05 0.01 -0.03 0.07 -0.21 0.02 -0.05 0.01 -0.02 0.03 -0.1 0.05 -0.16 0.07 -0.24 0 -0.02 0.04 -0.15 0.01 -0.04 0.01 -0.06 0.01 -0.07 0.02 -0.09 0.01 -0.08 0.01 -0.13 0.01 -0.04 0 -0.05 0.01 -0.04 0 -0.18 0 -0.04c0.01,-0.36 -0.09,-0.68 -0.27,-1.02l-0.04 -0.1 -0.07 -0.14 -0.11 -0.17 -0.03 -0.04 0 -0.01 -0.1 -0.13 -0.05 -0.07 -0.04 -0.05 -0.14 -0.17 -0.13 -0.16 0 0 -0.01 0 -0.02 -0.02 0 0 0 0 0 0 -0.02 -0.02 -0.13 -0.13 -0.03 -0.03 -0.07 -0.06 0 0 -0.03 -0.03 -0.08 -0.06 -0.05 -0.04 -0.01 -0.01 -0.04 -0.04 -0.15 -0.1 -0.02 -0.02 -0.03 -0.02 -0.01 -0.01 -0.05 -0.03 -0.16 -0.11 -0.04 -0.02 -0.01 -0.02 -0.04 -0.02 -0.24 -0.15 -0.39 -0.22 -0.15 -0.09 0 0 -0.05 -0.02c0.17,-0.43 0.35,-0.85 0.56,-1.25l0.12 -0.22 -0.22 -0.02 -0.01 -0.01 -0.01 -0.04 -0.05 -0.09 -0.02 -0.04 -0.12 -0.14 -0.02 -0.02 -0.14 -0.13 -0.07 -0.06 -0.14 -0.11 -0.08 -0.06 -0.17 -0.12 -0.08 -0.05 -0.28 -0.18 -0.38 -0.22c-0.57,-0.33 -1.12,-0.54 -1.5,-0.6 0.14,-0.33 0.23,-0.68 0.23,-1.06 0,-1.44 -1.16,-2.6 -2.6,-2.6 -1.43,0 -2.6,1.16 -2.6,2.6 0,0.74 0.32,1.4 0.82,1.88l-0.1 0.05 -0.01 0.01 -0.03 0.02 -0.01 0 -0.07 0.04 0 0 -0.01 0.01 0 0 -0.06 0.04 -0.21 0.12 -0.06 0.04 -0.07 0.04 -0.08 0.05 -0.2 0.14 -0.09 0.06 -0.01 0.01 -0.11 0.07 -0.2 0.16 -0.2 0.15 0.06 -0.05 -0.06 0.06 -0.01 0 -0.01 0.01 -0.01 0.01 -0.18 0.14 -0.18 0.16 0 0 -0.02 0.02 -0.2 0.17 -0.07 0.07 -0.07 0.06 -0.06 0.06 -0.2 0.19 -0.2 0.19 -0.19 0.2 -0.04 0.04 0 0 -0.12 0.13 -0.04 0.04 -0.08 0.09 -0.08 0.08 -0.03 0.03 -0.11 0.13 -0.05 0.05 -0.03 0.03 -0.19 0.22 -0.12 0.14 0.05 -0.05 -0.11 0.13 -0.18 0.22 -0.19 0.22 0 0 0 0 -0.01 0.04 0.01 0 0.02 0.03 0.16 0.22 0.02 0.03 -0.04 -0.04c0.79,0.79 1.11,2.41 1.21,2.94l-0.02 0.02c-0.26,0.13 -0.51,0.26 -0.74,0.38 -0.24,0.13 -0.48,0.26 -0.73,0.38l-0.13 0.07c-0.2,0.1 -0.39,0.2 -0.57,0.29l-0.12 0.06c-0.19,0.09 -0.37,0.19 -0.56,0.28l0 0 -0.01 0 -0.13 0.31 -0.02 0.05 -0.02 0.03c-0.19,0.47 -0.29,0.76 -0.34,0.91l0 0 -0.09 0.28 -0.03 0.1 -0.03 0.11 -0.01 0.05 -0.01 0.03c-0.04,0.16 -0.07,0.3 -0.09,0.44l0 0.01 -0.01 0.06 -0.01 0.08 0 0.09 0 0.04 -0.01 0.17 0.01 0.22 0.01 0.08 0.01 0.09 0 0.03 0.05 0.21 0.01 0.04 0.01 0.03 0.04 0.12 0.07 0.16 0 0 0.03 0.06 0.09 0.18 0.02 0.04 0.01 0.01 0.13 0.21 0.02 0.04 0.01 0.01 0.1 0.13 0.05 0.07 0.04 0.05 0.14 0.17 0.16 0.18c0.24,0.27 0.68,0.61 1.21,0.92l0.02 0.01c-0.4,0.31 -0.84,0.74 -1.16,1.3l-0.15 0.3 -0.08 0.22 -0.03 0.08c-1.06,0.31 -2.32,0.76 -3.7,1.52 -0.61,0.34 -1.51,0.93 -2.12,1.48 -0.2,0.19 -0.49,0.43 -0.67,0.64 -0.34,0.39 -0.77,0.94 -1.07,1.37 -0.27,0.4 -0.58,1 -0.71,1.47 -0.07,0.23 -0.18,0.52 -0.22,0.76 -0.08,0.46 -0.16,1.08 -0.16,1.55 -0.01,0.14 0,0.41 0.05,0.77l0 0.01 0 0.03c0.04,0.32 0.11,0.71 0.23,1.17 0.04,0.17 0.12,0.44 0.22,0.78l0.03 0.09 0.01 0.03 0.06 0.16c0.05,0.15 0.1,0.29 0.16,0.45l0.06 0.18 0.03 0.08 0.34 0.83c0.11,0.26 0.26,0.58 0.37,0.83l0.29 0.62 0.05 0.08 0.04 0.1c0.12,0.23 0.27,0.54 0.39,0.77l0.39 0.74c0.11,0.21 0.26,0.49 0.38,0.7l0.36 0.65c0.08,0.13 0.16,0.28 0.25,0.43l0.06 0.11 0 0c-0.2,0.29 -0.45,0.66 -0.63,0.98 -0.1,0.2 -0.24,0.45 -0.32,0.66 -0.12,0.27 -0.26,0.65 -0.33,0.94 -0.21,0.81 -0.18,1.44 -0.17,1.56 0.01,0.14 0.03,0.3 0.04,0.45l-0.01 -0.07 0.02 0.18 0.03 0.21 0.04 0.28 0.02 0.17 0 0.03 0.03 0.23 0.04 0.25 0.02 0.14 0.02 0.1 0.02 0.11 0.07 0.32 0.02 0.05 0.01 0.05 0.03 0.1 0.08 0.28 0.07 0.19 0.04 0.11 0.03 0.09 0.05 0.11c0.07,0.17 0.14,0.33 0.22,0.47l0.03 0.08 0.04 0.07 0.2 0.36c0.17,0.29 0.44,0.65 0.66,0.9l0.4 0.45 0.16 0.15 0.2 0.2 0.3 0.26 0.05 0.05c0.25,0.2 0.48,0.38 0.7,0.54l0.06 0.04 0.17 0.11c0.19,0.13 0.37,0.24 0.47,0.3l0.24 0.14c0.08,0.13 0.15,0.27 0.23,0.43l0.01 0.01c0.09,0.2 0.19,0.42 0.27,0.63l0.04 0.07c0.08,0.22 0.17,0.44 0.23,0.65 0.29,0.88 1,1.72 2.15,2.41 -0.15,-0.09 -0.29,-0.18 -0.42,-0.28 -0.23,-0.15 -0.23,-0.15 -0.5,-0.23l0.02 0.07c0.14,0.41 0.28,0.96 0.37,1.38l0.15 0.97c0.06,0.54 0.11,1.26 0.15,1.79l0.04 1.62c0,0.6 -0.03,1.4 -0.05,2.01l-0.11 1.93c-0.05,0.62 -0.13,1.43 -0.18,2.05l-0.23 2.04c-0.42,3.46 -1.04,7.18 -1.83,11.1l-0.29 0.2 0.06 -0.07 -0.11 0.1 -0.05 0.04c-0.21,0.18 -0.45,0.39 -0.63,0.58 -0.23,0.25 -0.63,0.68 -0.88,1.07l-0.25 0.41c-0.1,0.18 -0.23,0.44 -0.31,0.63 -0.15,0.39 -0.26,0.7 -0.36,1.25l-0.06 0.08c-0.15,0.19 -0.36,0.44 -0.5,0.62l-0.26 0.31c-0.15,0.19 -0.35,0.43 -0.51,0.62 -0.15,0.18 -0.35,0.43 -0.5,0.62l-0.25 0.31c-0.15,0.18 -0.36,0.43 -0.51,0.62 -0.15,0.18 -0.35,0.43 -0.5,0.62l-0.26 0.31c-0.15,0.18 -0.35,0.43 -0.5,0.62 -0.73,0.89 -1.22,1.83 -1.46,2.8 0.11,-0.41 0.25,-0.82 0.45,-1.23 -0.14,0.32 -0.31,0.75 -0.42,1.08 -0.05,0.18 -0.1,0.41 -0.14,0.59 -0.03,0.15 -0.11,0.57 -0.13,1.28 0,0.53 0.07,1.61 0.61,2.9l0.11 0.26c-0.1,0.37 -0.23,0.77 -0.31,1.12 -0.12,0.55 -0.2,1.07 -0.22,1.23 -0.08,0.71 -0.08,0.78 -0.1,1.46l0.01 2.04c0,0.18 0.02,0.35 0.04,0.53l0 0.17 0.02 0.11 0.07 0.35c0.04,0.17 0.08,0.35 0.13,0.52l0.13 0.36c0.06,0.17 0.12,0.33 0.2,0.5l0.18 0.36c0.09,0.16 0.18,0.32 0.29,0.48l0.23 0.35c0.12,0.16 0.24,0.32 0.37,0.47l0.29 0.34c0.14,0.16 0.3,0.32 0.47,0.47l0.32 0.31c0.19,0.17 0.39,0.33 0.6,0.49l0.32 0.25c0.32,0.24 0.68,0.47 1.05,0.7 0.69,0.42 1.43,0.79 2.2,1.12l0 -0.04c6.51,2.77 15.7,2.53 21.74,-0.84 3.47,-1.93 5.22,-4.52 5.21,-7.1l-0.01 -2.04c0,-0.53 -0.04,-1.38 -0.34,-2.71 -0.09,-0.39 -0.19,-0.77 -0.29,-1.13 0.09,-0.2 0.18,-0.41 0.26,-0.66 0.27,-0.77 0.36,-1.41 0.39,-1.81 0.05,-0.55 0.03,-0.87 0.01,-1.16 -0.02,-0.27 -0.09,-0.64 -0.14,-0.91z"/>
   <path class="fil0" d="M28.55 89.41l-1.07 -0.18c-5.55,-3.34 -14.74,-3.44 -20.52,-0.21 -5.78,3.22 -5.97,8.55 -0.43,11.89 5.55,3.34 14.74,3.43 20.53,0.2 5.78,-3.22 5.97,-8.55 0.42,-11.88l1.07 0.18c6.12,3.68 5.91,9.55 -0.47,13.1 -6.37,3.55 -16.5,3.45 -22.61,-0.23 -6.12,-3.68 -5.91,-9.55 0.47,-13.1 6.37,-3.55 16.5,-3.45 22.61,0.23z"/>
   <path class="fil1" d="M0.09 99.82c0.02,-0.68 0.02,-0.75 0.1,-1.46 0.02,-0.16 0.1,-0.68 0.22,-1.23 0.15,-0.69 0.36,-1.43 0.61,-2.21 0.05,-0.13 0.21,-0.61 0.38,-1.06 -1.12,2.93 0.22,6.1 4.07,8.42 6.11,3.68 16.24,3.78 22.61,0.23 4.2,-2.34 5.72,-5.68 4.53,-8.74 0.2,0.5 0.68,1.82 1,3.24 0.3,1.33 0.34,2.18 0.34,2.71 0.01,2.59 -1.73,5.17 -5.21,7.11 -6.74,3.76 -17.46,3.65 -23.94,-0.25 -3.14,-1.89 -4.7,-4.32 -4.71,-6.76z"/>
   <path class="fil2" d="M25.19 104.44c-0.61,-0.1 -2.5,0.4 -2.99,0.69 -0.16,0.09 -1.11,0.84 -0.67,1.45 0.82,1.16 4.66,0.21 4.83,-1.19 0.02,-0.17 -0.01,-0.76 -1.17,-0.95z"/>
   <path class="fil3" d="M1.7 88.33c0.15,-0.19 0.35,-0.44 0.5,-0.62l0.26 -0.31c0.15,-0.19 0.35,-0.44 0.5,-0.62 0.15,-0.19 0.36,-0.44 0.51,-0.62l0.25 -0.31c0.15,-0.19 0.35,-0.44 0.51,-0.62 0.15,-0.19 0.35,-0.43 0.5,-0.62l0.26 -0.31c0.14,-0.18 0.35,-0.43 0.5,-0.62 0.15,-0.18 0.35,-0.43 0.51,-0.62l0.25 -0.31c0.15,-0.18 0.35,-0.43 0.5,-0.62 -1.95,2.39 -1.28,5.33 2.07,7.35 4.32,2.6 11.48,2.67 15.99,0.16 3.62,-2.02 4.43,-5.08 2.38,-7.56 0.15,0.18 0.36,0.43 0.51,0.61l0.26 0.31c0.15,0.19 0.35,0.43 0.5,0.62 0.16,0.18 0.36,0.43 0.51,0.62l0.26 0.3c0.15,0.19 0.36,0.43 0.51,0.62 0.42,0.51 0.84,1.03 1.27,1.54 0.15,0.19 0.36,0.43 0.51,0.62l0.25 0.31c0.16,0.18 0.36,0.43 0.51,0.61 3.07,3.71 1.85,8.3 -3.56,11.31 -6.75,3.77 -17.46,3.66 -23.94,-0.24 -5,-3.01 -6,-7.41 -3.08,-10.98z"/>
   <path class="fil0" d="M0.1 101.86l-0.01 -2.04c0.01,2.44 1.57,4.87 4.71,6.76 6.48,3.9 17.2,4.01 23.94,0.25 3.48,-1.94 5.22,-4.52 5.21,-7.11l0.01 2.04c0.01,2.58 -1.74,5.17 -5.21,7.1 -6.75,3.77 -17.47,3.66 -23.94,-0.24 -3.14,-1.89 -4.71,-4.33 -4.71,-6.76z"/>
   <path class="fil4" d="M5.21 100.75c-0.44,-0.27 -1.01,-0.65 -1.42,-0.97 -0.45,-0.35 -0.95,-0.8 -1.22,-1.09 -0.53,-0.58 -0.72,-0.79 -1.22,-1.54 -0.1,-0.14 -0.44,-0.67 -0.74,-1.4 -0.54,-1.29 -0.61,-2.37 -0.61,-2.9 0.02,-0.71 0.1,-1.13 0.13,-1.28 0.04,-0.18 0.09,-0.41 0.14,-0.59 0.11,-0.33 0.28,-0.76 0.42,-1.08 -1.55,3.23 -0.2,6.83 4.09,9.41 6.48,3.9 17.19,4.01 23.94,0.24 4.67,-2.6 6.22,-6.37 4.58,-9.74 0.08,0.18 0.19,0.41 0.26,0.6 0.1,0.28 0.23,0.65 0.28,0.93 0.05,0.27 0.12,0.64 0.14,0.91 0.02,0.29 0.04,0.61 -0.01,1.16 -0.03,0.4 -0.12,1.04 -0.39,1.81 -0.3,0.88 -0.67,1.47 -0.84,1.76 -0.95,1.55 -2.33,2.61 -2.6,2.81 -0.21,0.16 -0.49,0.37 -0.71,0.51 -0.33,0.22 -0.78,0.51 -1.12,0.7 -0.29,0.15 -0.67,0.35 -0.96,0.49 -0.48,0.22 -1.13,0.49 -1.62,0.68 -5.31,1.97 -12.12,1.98 -17.4,0.05 -0.31,-0.12 -0.73,-0.27 -1.03,-0.41 -0.31,-0.13 -0.71,-0.32 -1.01,-0.46 -0.33,-0.16 -0.76,-0.4 -1.08,-0.6z"/>
   <path class="fil5" d="M24.83 78.81c-4.16,-2.5 -11.05,-2.57 -15.39,-0.15 -4.34,2.42 -4.48,6.41 -0.32,8.92 4.16,2.5 11.05,2.57 15.39,0.15 4.34,-2.42 4.48,-6.41 0.32,-8.92z"/>
   <path class="fil4" d="M6.91 87.93c-0.29,-0.34 -0.84,-0.97 -1.18,-2.01 -0.32,-0.99 -0.25,-1.86 -0.2,-2.18 0.1,-0.66 0.22,-0.96 0.38,-1.39 0.08,-0.19 0.21,-0.45 0.31,-0.63l0.25 -0.41c0.25,-0.39 0.65,-0.82 0.88,-1.07 0.22,-0.24 0.55,-0.51 0.79,-0.72 -3.02,2.43 -2.72,5.83 0.98,8.06 4.16,2.5 11.05,2.57 15.39,0.15 3.98,-2.21 4.43,-5.75 1.28,-8.26 0.26,0.22 0.61,0.51 0.84,0.76 0.2,0.22 0.45,0.51 0.64,0.74l0.28 0.4c0.36,0.58 0.71,1.26 0.87,2.3 0.11,0.74 0,1.6 -0.15,2.07 -0.1,0.29 -0.21,0.64 -0.47,1.11 -0.08,0.15 -0.3,0.53 -0.74,1.03 -0.56,0.64 -1.31,1.23 -2.25,1.76 -4.51,2.51 -11.67,2.44 -15.99,-0.16 -0.78,-0.47 -1.42,-1 -1.91,-1.55z"/>
   <path class="fil2" d="M23.49 89.38c0,0.01 -0.36,0.72 -2.16,1.09 -1.16,0.24 -2.1,-0.02 -2.18,-0.19l0 -0.15c0.13,-0.37 3.97,-1.51 4.33,-0.91l0.01 0.16z"/>
   <path class="fil4" d="M8.81 52.53c-0.28,-0.88 -0.8,-1.93 -1.16,-2.4 0.11,0.12 1.15,1.17 3.75,1.96 0.36,0.11 1.32,0.38 2.51,0.56 1.44,0.21 2.7,0.21 2.71,0.21 1.01,-0.01 1.71,-0.03 2.72,-0.16 1.36,-0.17 2.31,-0.43 2.57,-0.5 0.24,-0.07 0.55,-0.16 0.77,-0.24 1,-0.36 1.08,-0.39 1.41,-0.56 0.75,-0.38 0.8,-0.4 1.08,-0.58 0.2,-0.13 0.46,-0.32 0.65,-0.47l0.29 -0.27c-0.3,0.4 -0.51,0.85 -0.64,1.11 -0.12,0.25 -0.36,0.82 -0.51,1.29 -0.3,0.95 -1.1,1.85 -2.39,2.58 -3.27,1.82 -8.47,1.77 -11.61,-0.12 -1.15,-0.69 -1.86,-1.53 -2.15,-2.41z"/>
   <path class="fil0" d="M24.96 50.95c-1,0.56 -2.87,1.61 -7.48,2.14 -1.44,0.17 -1.82,0.31 -2.1,0.41 -0.18,0.07 -0.66,0.25 -0.92,0.75 -0.31,0.58 -0.24,1.24 -0.45,1.85 -1.12,-0.24 -2.17,-0.63 -3.05,-1.16 -1.15,-0.69 -1.86,-1.53 -2.15,-2.41l-0.01 -0.03 -0.02 -0.09 -0.05 -0.12 -0.06 -0.16 -0.07 -0.18 -0.09 -0.22 -0.09 -0.22 -0.12 -0.25 -0.11 -0.23 -0.13 -0.25 -0.11 -0.2 -0.14 -0.21 -0.07 -0.12 -0.09 -0.12 0.03 0.03 0.09 0.09 0.25 0.21c0.39,0.29 0.41,0.3 0.7,0.48l0.54 0.3c0.2,0.1 0.47,0.23 0.67,0.32l0.7 0.28c0.23,0.07 0.54,0.18 0.77,0.25l0.8 0.22c0.25,0.06 0.59,0.14 0.85,0.19l0.86 0.15c0.27,0.03 0.63,0.08 0.9,0.11l0.9 0.07c0.27,0.01 0.64,0.02 0.91,0.03l0.92 -0.01c0.27,-0.02 0.63,-0.03 0.91,-0.06l0.89 -0.09c0.27,-0.04 0.62,-0.08 0.89,-0.13l0.85 -0.16c0.25,-0.07 0.59,-0.14 0.83,-0.21l0.77 -0.24c0.23,-0.08 0.54,-0.19 0.77,-0.28l0.64 -0.28c0.2,-0.1 0.47,-0.23 0.66,-0.34l0.42 -0.24 0.24 -0.16 -0.45 0.29z"/>
   <path class="fil4" d="M7.79 50.6c-0.3,-0.18 -1.1,-0.68 -1.75,-1.3 -0.24,-0.23 -0.55,-0.54 -0.76,-0.8 -0.22,-0.25 -0.49,-0.61 -0.66,-0.9 -0.21,-0.37 -0.54,-0.92 -0.79,-1.86 -0.11,-0.41 -0.16,-0.76 -0.2,-1.02l-0.05 -0.43 -0.04 -0.28 -0.03 -0.21c-0.01,-0.17 -0.04,-0.39 -0.05,-0.56 -0.01,-0.12 -0.04,-0.75 0.17,-1.56 0.07,-0.29 0.21,-0.67 0.33,-0.94 0.08,-0.21 0.22,-0.46 0.32,-0.66 0.29,-0.54 0.82,-1.24 0.94,-1.39 0.23,-0.29 0.78,-0.97 1.57,-1.72 -2.69,2.57 -2.18,5.96 1.58,8.23 4.5,2.71 11.94,2.78 16.62,0.17 4.06,-2.26 4.72,-5.79 1.91,-8.46 1.25,1.19 1.93,2.18 2.01,2.29 0.22,0.33 0.47,0.7 0.71,1.19 0.35,0.71 0.47,1.21 0.47,1.21 0.07,0.34 0.18,0.79 0.17,1.13 0,0.17 0.01,0.39 0,0.56l-0.05 0.43 -0.01 0.1 -0.03 0.25c-0.04,0.4 -0.07,0.59 -0.11,0.89 -0.1,0.61 -0.33,1.54 -0.89,2.5 -0.34,0.56 -0.69,0.98 -0.86,1.18 -0.25,0.28 -0.57,0.59 -0.95,0.92 -0.83,0.71 -1.86,1.3 -2.56,1.62 -0.81,0.38 -3.3,1.54 -7.25,1.68 -1.42,0.04 -2.46,-0.06 -2.81,-0.09 -0.55,-0.06 -1.28,-0.18 -1.82,-0.27 -0.28,-0.05 -0.63,-0.14 -0.91,-0.2 -0.27,-0.06 -0.63,-0.16 -0.9,-0.25 -0.5,-0.16 -1.15,-0.4 -1.64,-0.59 -0.72,-0.29 -1.67,-0.85 -1.68,-0.86z"/>
   <path class="fil0" d="M5.12 40.07c0.07,-0.62 0.13,-1.25 0.2,-1.87 -0.19,1.8 0.87,3.64 3.19,5.04 4.42,2.66 11.73,2.73 16.34,0.17 2.56,-1.43 3.74,-3.38 3.52,-5.28l0.21 1.87c0.22,1.94 -0.98,3.91 -3.59,5.37 -4.68,2.61 -12.12,2.54 -16.62,-0.17 -2.37,-1.43 -3.45,-3.3 -3.25,-5.13z"/>
   <path class="fil3" d="M19.41 26.2c-1.33,0.74 -3.35,0.81 -4.79,0.21 -0.19,-0.08 -0.37,-0.16 -0.53,-0.26l-0.01 -0.01 -0.29 -0.2 -0.08 -0.06 -0.17 -0.17 -0.07 -0.06 -0.1 -0.12 -0.06 -0.09 -0.08 -0.12 -0.04 -0.09 -0.1 -0.25 -0.01 -0.06 -0.03 -0.21 0 -0.07 0.02 -0.26 0.01 -0.02 0.07 -0.24 0.03 -0.07 0.12 -0.2 0.04 -0.05 0.19 -0.24 0.06 -0.05 0.21 -0.18 0.08 -0.06 0.32 -0.21 0.34 -0.16 0.12 -0.05 0.26 -0.1 0.12 -0.04 0.3 -0.08 0.09 -0.03 0.41 -0.07 0.09 -0.02 0.32 -0.03 0.14 -0.01 0.29 -0.01 0.14 -0.01 0.38 0.01 0.04 0c0.14,0.01 0.28,0.03 0.41,0.05l0.18 0.02 0.17 0.03 0.17 0.04 0.17 0.03 0.16 0.05 0.16 0.05 0.16 0.06 0.15 0.06 0.2 0.08 0.09 0.04 0.27 0.15c0.55,0.33 0.89,0.74 1,1.16 0.18,0.68 -0.19,1.41 -1.12,1.92zm10.54 -2.06c-0.59,-0.59 -1.32,-1.15 -2.17,-1.67 -0.18,-0.1 -0.35,-0.2 -0.53,-0.3l-0.18 -0.1 -0.37 -0.19 -0.22 -0.1 -0.35 -0.16 -0.24 -0.11 -0.21 -0.09 -0.13 -0.05 -0.3 -0.12 -0.32 -0.12 -0.31 -0.11 -0.33 -0.11 -0.32 -0.1 -0.33 -0.1 -0.33 -0.09 -0.34 -0.09 -0.33 -0.08 -0.35 -0.08 -0.34 -0.07 -0.35 -0.07 -0.34 -0.07 -0.35 -0.06 -0.35 -0.05 -0.18 -0.03 -0.14 -0.01c-0.2,-0.03 -0.4,-0.05 -0.61,-0.08l-0.23 -0.02c-0.28,-0.03 -0.56,-0.05 -0.84,-0.07l-0.14 -0.01c-0.24,-0.01 -0.47,-0.02 -0.71,-0.03l-0.27 -0.01c-0.2,0 -0.4,0 -0.6,0l-0.28 0c-0.23,0 -0.46,0.01 -0.7,0.02l-0.15 0c-0.28,0.02 -0.56,0.03 -0.84,0.05l-0.23 0.02c-0.21,0.02 -0.41,0.04 -0.62,0.06l-0.28 0.04c-0.2,0.02 -0.4,0.05 -0.6,0.08l-0.17 0.02 -0.07 0.01c-0.28,0.04 -0.55,0.09 -0.82,0.14l-0.09 0.02c-0.24,0.05 -0.48,0.1 -0.72,0.16l-0.25 0.05c-0.19,0.05 -0.38,0.1 -0.56,0.14l-0.26 0.08c-0.2,0.05 -0.41,0.12 -0.61,0.18l-0.17 0.05c-0.25,0.08 -0.5,0.17 -0.75,0.26l-0.18 0.07c-0.19,0.08 -0.37,0.15 -0.55,0.22l-0.24 0.11c-0.17,0.07 -0.34,0.15 -0.5,0.23l-0.22 0.1c-0.23,0.11 -0.45,0.23 -0.67,0.36 -0.24,0.13 -0.46,0.26 -0.68,0.4l-0.18 0.12c-0.17,0.11 -0.34,0.22 -0.49,0.34l-0.14 0.09c-0.19,0.15 -0.38,0.3 -0.55,0.45l-0.12 0.1c-0.14,0.12 -0.27,0.25 -0.4,0.37l-0.08 0.07 -0.05 0.06c-0.15,0.15 -0.29,0.3 -0.42,0.45l-0.02 0.02c-0.13,0.16 -0.26,0.33 -0.37,0.49l-0.1 0.14 -0.25 0.39 -0.07 0.12c-0.09,0.17 -0.18,0.33 -0.25,0.5l-0.05 0.1c-0.06,0.14 -0.11,0.28 -0.16,0.42l-0.05 0.15c-0.05,0.15 -0.09,0.3 -0.12,0.45l-0.02 0.08c-0.03,0.17 -0.06,0.34 -0.07,0.51l-0.02 0.14 -0.01 0.41 0 0.09 0 0.05c0.01,0.17 0.02,0.35 0.04,0.53l0.02 0.07c0.02,0.15 0.05,0.31 0.08,0.46l0.04 0.15c0.05,0.15 0.09,0.3 0.15,0.45l0.02 0.07c0.07,0.18 0.15,0.35 0.23,0.52l0.02 0.05 0.07 0.12 0.13 0.24 0.11 0.19 0.16 0.23 0.13 0.18 0.17 0.24 0.15 0.18 0.2 0.23 0.1 0.11 0.05 0.05c0.14,0.15 0.29,0.29 0.45,0.44l0.01 0.01c0.16,0.15 0.33,0.29 0.5,0.43l0.17 0.13c0.13,0.1 0.27,0.21 0.42,0.31l0.17 0.12c0.19,0.13 0.39,0.26 0.6,0.39l0.03 0.02 0 0c5.81,3.5 15.42,3.59 21.47,0.22 5.16,-2.88 6.07,-7.35 2.62,-10.77z"/>
   <path class="fil0" d="M29.95 24.14c-3.38,-0.95 -6.31,-0.72 -9.42,0.14 -1.81,0.51 -3.69,1.23 -5.75,2.06l-0.16 0.07c-5.65,2.33 -9.56,7.75 -9.56,7.75 -0.15,-0.1 -0.29,-0.21 -0.42,-0.31l-0.17 -0.13c-0.17,-0.14 -0.34,-0.28 -0.5,-0.43l-0.01 -0.01c-0.16,-0.15 -0.31,-0.29 -0.45,-0.44l-0.05 -0.05 -0.1 -0.11 -0.2 -0.23 -0.15 -0.18 -0.17 -0.24 -0.13 -0.18 -0.16 -0.23 -0.11 -0.19 -0.13 -0.24 -0.07 -0.12 -0.02 -0.05c-0.08,-0.17 -0.16,-0.34 -0.23,-0.52l-0.02 -0.07c-0.06,-0.15 -0.1,-0.3 -0.15,-0.45l-0.04 -0.15c-0.03,-0.15 -0.06,-0.31 -0.08,-0.46l-0.02 -0.07c-0.02,-0.18 -0.03,-0.36 -0.04,-0.53l0 -0.05 0 -0.09 0.01 -0.41 0.02 -0.14c0.01,-0.17 0.04,-0.34 0.07,-0.51l0.02 -0.08c0.03,-0.15 0.07,-0.3 0.12,-0.45l0.05 -0.15c0.05,-0.14 0.1,-0.28 0.16,-0.42l0.05 -0.1c0.07,-0.17 0.16,-0.33 0.25,-0.5l0.07 -0.12 0.25 -0.39 0.1 -0.14c0.11,-0.16 0.24,-0.33 0.37,-0.49l0.02 -0.02c0.13,-0.15 0.27,-0.3 0.42,-0.45l0.05 -0.06 0.08 -0.07c0.13,-0.12 0.26,-0.25 0.4,-0.37l0.12 -0.1c0.17,-0.15 0.36,-0.3 0.55,-0.45l0.14 -0.09c0.15,-0.12 0.32,-0.23 0.49,-0.34l0.18 -0.12c0.22,-0.14 0.44,-0.27 0.68,-0.4 0.22,-0.13 0.44,-0.25 0.67,-0.36l0.22 -0.1c0.16,-0.08 0.33,-0.16 0.5,-0.23l0.24 -0.11c0.18,-0.07 0.36,-0.14 0.55,-0.22l0.18 -0.07c0.25,-0.09 0.5,-0.18 0.75,-0.26l0.17 -0.05c0.2,-0.06 0.41,-0.13 0.61,-0.18l0.26 -0.08c0.18,-0.04 0.37,-0.09 0.56,-0.14l0.25 -0.05c0.24,-0.06 0.48,-0.11 0.72,-0.16l0.09 -0.02c0.27,-0.05 0.54,-0.1 0.82,-0.14l0.07 -0.01 0.17 -0.02c0.2,-0.03 0.4,-0.06 0.6,-0.08l0.28 -0.04c0.21,-0.02 0.41,-0.04 0.62,-0.06l0.23 -0.02c0.28,-0.02 0.56,-0.03 0.84,-0.05l0.15 0c0.24,-0.01 0.47,-0.02 0.7,-0.02l0.28 0c0.2,0 0.4,0 0.6,0l0.27 0.01c0.24,0.01 0.47,0.02 0.71,0.03l0.14 0.01c0.28,0.02 0.56,0.04 0.84,0.07l0.23 0.02c0.21,0.03 0.41,0.05 0.61,0.08l0.14 0.01 0.18 0.03 0.35 0.05 0.35 0.06 0.34 0.07 0.35 0.07 0.34 0.07 0.35 0.08 0.33 0.08 0.34 0.09 0.33 0.09 0.33 0.1 0.32 0.1 0.33 0.11 0.31 0.11 0.32 0.12 0.3 0.12 0.13 0.05 0.21 0.09 0.24 0.11 0.35 0.16 0.22 0.1 0.37 0.19 0.18 0.1c0.18,0.1 0.35,0.2 0.53,0.3 0.85,0.52 1.58,1.08 2.17,1.67z"/>
   <path class="fil5" d="M6.09 22.22c2.12,-1.16 3.98,-1.64 5.21,-1.93 1.78,-0.4 3.85,-0.61 5.84,-0.59 2.01,0.02 3.96,0.26 5.79,0.71 0.76,0.19 0.76,0.19 2.15,0.66 0.32,0.1 0.72,0.28 1.02,0.4 0.01,0.01 0.91,0.38 1.91,0.98l-0.23 0.02c-5.81,-3.49 -15.42,-3.59 -21.47,-0.22 -6.05,3.38 -6.25,8.94 -0.45,12.44 5.81,3.49 15.42,3.59 21.47,0.22 6.05,-3.38 6.25,-8.95 0.45,-12.44l0.23 -0.02c0.5,0.32 1.18,0.75 1.61,1.16 0.21,0.19 0.5,0.42 0.68,0.63 0.35,0.4 0.8,0.93 1.09,1.37 0.73,1.13 1.14,2.51 1.12,3.78 0,0.24 -0.01,0.56 -0.05,0.79 -0.08,0.5 -0.22,1.16 -0.34,1.65 -0.01,0.01 -0.21,0.79 -0.78,2.16 -0.77,1.85 -2.16,4.46 -3.61,6.83 -0.58,0.95 -1.55,1.84 -2.88,2.59 -4.61,2.56 -11.92,2.49 -16.34,-0.17 -1.15,-0.7 -2,-1.5 -2.53,-2.36 -1.5,-2.42 -2.87,-4.97 -3.65,-6.81 -0.6,-1.41 -0.81,-2.21 -0.91,-2.6 -0.26,-1 -0.29,-1.72 -0.28,-1.98 0,-0.47 0.08,-1.09 0.16,-1.55 0.04,-0.24 0.15,-0.53 0.22,-0.76 0.13,-0.47 0.44,-1.07 0.71,-1.47 0.3,-0.43 0.73,-0.98 1.07,-1.37 0.18,-0.21 0.47,-0.45 0.67,-0.64 0.61,-0.55 1.51,-1.14 2.12,-1.48z"/>
   <path class="fil3" d="M26.11 84.33l0.06 -0.16 0.04 -0.13 0.04 -0.16 0.03 -0.12 0.03 -0.17 0.02 -0.12 0.02 -0.17 0.01 -0.12 0 -0.17 -0.01 -0.12 -0.01 -0.19 -0.01 -0.09 -0.06 -0.29 -0.08 -0.35 -0.16 -0.68c-0.07,-0.28 -0.15,-0.67 -0.22,-0.95l-0.26 -1.22c-0.09,-0.43 -0.21,-1 -0.3,-1.44l-0.32 -1.62c-0.1,-0.54 -0.23,-1.25 -0.33,-1.79l-0.33 -1.9c-0.1,-0.61 -0.22,-1.41 -0.32,-2.02l-0.28 -2.04c-0.08,-0.63 -0.17,-1.47 -0.25,-2.11l-0.19 -2.04c-0.05,-0.62 -0.09,-1.45 -0.13,-2.08l-0.05 -1.86c0,-0.58 0.03,-1.36 0.05,-1.94l0.12 -1.46c0.07,-0.49 0.18,-1.13 0.28,-1.62l0.22 -0.74 0 -0.11 -0.28 0.15 -0.19 0.13c-0.21,0.14 -0.44,0.29 -0.68,0.43 -2.24,1.24 -5.37,1.61 -8.13,1.12l-0.17 -0.03c-0.18,-0.04 -0.35,-0.07 -0.52,-0.12l-0.19 -0.04c-0.2,-0.05 -0.39,-0.11 -0.58,-0.17l-0.08 -0.02c-0.21,-0.07 -0.41,-0.14 -0.61,-0.22l-0.17 -0.07c-0.15,-0.06 -0.3,-0.12 -0.44,-0.19l-0.17 -0.08c-0.19,-0.1 -0.38,-0.19 -0.55,-0.3 -0.15,-0.09 -0.29,-0.18 -0.42,-0.28 0.19,0.14 0.37,0.34 0.52,0.59l-0.52 -0.59c-0.23,-0.15 -0.23,-0.15 -0.5,-0.23l0.02 0.07c0.14,0.41 0.28,0.96 0.37,1.38l0.15 0.97c0.06,0.54 0.11,1.26 0.15,1.79l0.04 1.62c0,0.6 -0.03,1.4 -0.05,2.01l-0.11 1.93c-0.05,0.62 -0.13,1.43 -0.18,2.05l-0.23 2.04c-0.54,4.44 -1.4,9.31 -2.54,14.47l-0.07 0.3c-0.02,1.24 0.68,2.48 2.13,3.49 0.06,-0.38 0.12,-0.78 0.19,-1.18 -0.1,0.62 -0.17,1.04 -0.19,1.18 0.15,0.11 0.31,0.22 0.48,0.32 0.2,0.12 0.41,0.23 0.63,0.34l0.11 0.06 0.09 0.04 0.08 0.04 0 -0.01 0.1 0.04c0.17,0.08 0.35,0.16 0.53,0.23l0.33 0.12c0.17,0.06 0.34,0.12 0.51,0.17l0.37 0.1c0.17,0.05 0.34,0.1 0.51,0.14l0.39 0.08c0.17,0.03 0.35,0.07 0.53,0.1l0.39 0.06c0.18,0.02 0.36,0.04 0.55,0.06l0.39 0.04c0.19,0.01 0.38,0.02 0.57,0.03l0.38 0.01c0.2,0.01 0.41,0 0.61,0l0.28 0 0 -0.01c2.06,-0.07 4.08,-0.54 5.72,-1.41l0 0.01 0.2 -0.11c0.28,-0.15 0.54,-0.32 0.78,-0.49 0.78,-0.55 1.34,-1.17 1.69,-1.82l0 0 0.04 -0.08 0.07 -0.16 0.06 -0.12z"/>
   <path class="fil5" d="M18.04 56.36c-3.11,0.38 -3.37,0.41 -3.57,1.59 -0.93,5.31 -0.41,10.69 -0.77,16.03 -0.31,4.65 -0.84,9.27 -1.16,13.91 -0.85,-0.26 -1.64,-0.6 -2.34,-1.02 -0.17,-0.1 -0.33,-0.21 -0.48,-0.32l0.06 -0.4c2,-12.51 3.76,-28.12 0.76,-31.49 0.13,0.1 0.27,0.19 0.42,0.28 2.01,1.21 4.86,1.67 7.52,1.36l-0.44 0.06z"/>
   <line class="fil6" x1="9.72" y1="86.55" x2="9.72" y2= "86.55" />
   <path class="fil2" d="M17.55 88.52c0,0 0.23,-13.93 0.65,-19.97 0.42,-6.04 1.01,-11.16 2.13,-2.79 1.12,8.37 2.94,21.35 2.94,21.35 0,0 -1.87,1.33 -5.72,1.41z"/>
   <path class="fil0" d="M4.8 106.58c-2.84,-1.7 -4.39,-3.86 -4.66,-6.06l0.03 0.08 0.07 0.06c0.25,0.07 1.36,-2.26 1.37,-2.28 0.69,1.42 1.97,2.76 3.86,3.9 0.43,0.26 0.88,0.5 1.36,0.73 -0.05,0.06 -0.6,2.9 -0.01,4.42l0.17 0.26c-0.77,-0.32 -1.5,-0.69 -2.19,-1.11z"/>
   <path class="fil5" d="M1.65 96.67l5.07 -8.96c0.51,0.64 1.21,1.23 2.1,1.77 0.22,0.13 0.45,0.26 0.69,0.38l-3.68 10.03c-0.36,-0.18 -0.71,-0.38 -1.05,-0.58 -1.32,-0.8 -2.36,-1.69 -3.13,-2.64z"/>
   <path class="fil2" d="M23.05 90.44c-0.23,0.09 -0.46,0.17 -0.69,0.24 -0.31,0.1 -0.62,0.19 -0.95,0.27 -0.45,0.11 -0.91,0.2 -1.38,0.28 -0.29,0.05 -0.59,0.09 -0.89,0.12l1.09 10.77c0.45,-0.05 0.9,-0.11 1.34,-0.19 0.7,-0.11 1.39,-0.25 2.07,-0.42 0.48,-0.12 0.95,-0.25 1.42,-0.4 0.34,-0.11 0.69,-0.22 1.02,-0.35l-3.03 -10.32z"/>
   <path class="fil0" d="M0.14 102.56l0 -2.04c0.27,2.2 1.82,4.35 4.66,6.06 0.69,0.42 1.43,0.79 2.2,1.12l0.01 2.04c-0.77,-0.33 -1.51,-0.7 -2.2,-1.12 -2.84,-1.71 -4.39,-3.86 -4.67,-6.06z"/>
   <path class="fil5" d="M8.82 89.48c-0.78,-0.47 -1.42,-1 -1.91,-1.55l-0.16 -0.19 -0.19 -0.24 -0.18 -0.25 -0.21 -0.34 -0.15 -0.28 -0.17 -0.39 -0.12 -0.32 -0.12 -0.44 -0.06 -0.34c-0.02,-0.15 -0.04,-0.34 -0.05,-0.49l-0.01 -0.37c0.01,-0.15 0.02,-0.35 0.03,-0.5l-0.01 0.16c0.02,0.26 0.06,0.97 1.23,1.43 0.5,0.8 1.29,1.55 2.38,2.21 0.83,0.49 1.76,0.89 2.76,1.2 -1.54,1.48 1.35,2.45 3.9,2.66 -2.56,-0.15 -5.04,-0.81 -6.96,-1.96z"/>
   <path class="fil0" d="M18.49 52.8c-0.29,0.02 -0.96,0.07 -1.88,0.07l-0.93 -0.03c-0.28,-0.03 -0.66,-0.05 -0.94,-0.07l-0.92 -0.12c-0.27,-0.04 -0.64,-0.1 -0.92,-0.16l-0.89 -0.19c-0.27,-0.08 -0.63,-0.17 -0.9,-0.25l-0.83 -0.27c-0.27,-0.11 -0.62,-0.24 -0.88,-0.35l-0.76 -0.36c-0.25,-0.14 -0.6,-0.32 -0.85,-0.47l-0.64 -0.41c-0.7,-0.52 -0.85,-0.63 -1.47,-1.24l-0.4 -0.45c-0.21,-0.26 -0.47,-0.62 -0.66,-0.9l-0.24 -0.43c-0.09,-0.2 -0.22,-0.46 -0.3,-0.66l-0.14 -0.39c-0.04,-0.14 -0.1,-0.34 -0.14,-0.48l-0.07 -0.32 -0.06 -0.35 -0.04 -0.25 -0.03 -0.26 -0.02 -0.17 -0.03 -0.18 -0.01 -0.1 -0.03 -0.21 -0.02 -0.18 0.07 0.36c0.21,0.6 0.45,1.11 1.28,1.21 0.38,0.05 0.92,-0.39 1.13,-0.55 0.04,-0.04 0.04,-0.04 1.09,-0.24l-0.29 -0.41c0.44,0.43 0.98,0.83 1.6,1.21l0.23 0.13 -0.28 -0.11 -0.16 -0.06c0.12,0.97 -0.18,1.95 0.01,2.92 0.11,0.61 0.11,0.61 0.13,0.65 0.14,0.32 0.53,0.4 0.69,0.69 0.15,0.29 0.08,0.62 0.17,0.91 0.06,0.2 0.26,0.52 0.89,0.95 0.3,0.21 3.12,2.01 9.13,1.46 -0.2,0.02 -0.48,0.05 -0.69,0.06z"/>
   <path class="fil2" d="M22.76 49.41c-0.15,0.16 -2.05,0.63 -2.07,0.63 -0.2,0.02 -0.47,0.05 -0.66,-0.01l-0.26 -0.26 0.77 -0.87 2.11 -0.02 0.24 0.23 -0.13 0.3z"/>
   <path class="fil0" d="M5.21 41.42l0.19 -1.89c0.32,1.35 1.36,2.66 3.11,3.71 0.42,0.25 0.86,0.48 1.31,0.68l-0.12 1.97c-0.47,-0.21 -0.91,-0.44 -1.33,-0.69 -1.79,-1.07 -2.84,-2.41 -3.16,-3.78z"/>
   <path class="fil0" d="M8.51 43.24c-1.15,-0.7 -2,-1.5 -2.53,-2.36l-0.09 -0.14 -0.16 -0.25 -0.21 -0.36 -0.27 -0.45 -0.31 -0.52c-0.1,-0.18 -0.23,-0.42 -0.34,-0.6l-0.36 -0.65c-0.12,-0.21 -0.27,-0.49 -0.38,-0.7l-0.39 -0.74c-0.12,-0.23 -0.27,-0.54 -0.39,-0.77l-0.38 -0.8c-0.11,-0.25 -0.26,-0.57 -0.37,-0.83l-0.34 -0.83c-0.09,-0.27 -0.23,-0.63 -0.32,-0.9l-0.25 -0.87c-0.08,-0.35 -0.18,-0.83 -0.23,-1.2 -0.01,-0.15 -0.03,-0.35 -0.05,-0.51l0.04 0.31c0.16,0.81 0.75,1.68 0.99,2.02 1.53,2.12 4.17,2.98 5.75,5.04 1.04,1.37 1.85,3.23 2.79,5.37 0.83,1.91 0.88,1.98 0.96,2.09 -1.14,-0.33 -2.22,-0.78 -3.16,-1.35z"/>
   <path class="fil2" d="M24.61 36.95c-1.53,0.65 -2.99,0.84 -3.87,0.96 -1.47,0.2 -1.58,0.06 -1.8,-0.21 1.4,-0.21 3.52,-0.53 5.61,-1.15 0.19,-0.05 0.45,-0.24 0.64,-0.19l0.2 0.22c-0.05,0.25 -0.54,0.27 -0.78,0.37z"/>
   <path class="fil4" d="M20.91 18.28l-0.08 0.02 -0.09 0.02 -0.16 0.04 -0.09 0.02 -0.03 0.01 0 0c-0.71,0.21 -1.72,0.64 -3.11,1.39 1.71,-0.92 2.84,-1.37 3.56,-1.5zm0.76 0.02l-0.01 0 -0.04 -0.01 -0.08 -0.02 -0.05 -0.01 -0.09 -0.01 -0.07 0 -0.1 0 -0.07 0 -0.12 0.01 -0.08 0.02 -0.05 0c0.34,-0.06 0.59,-0.05 0.76,0.02zm2.01 2.02l-0.04 -0.08 -0.21 -0.37 -0.25 -0.34 -0.31 -0.33 -0.33 -0.3c-0.3,-0.26 -0.52,-0.39 -0.78,-0.56l-0.07 -0.03 0.06 0.03c-3.36,-1.86 -7.29,-1.4 -9.7,-0.1 -0.4,0.21 -1.41,0.83 -2,1.86 -0.1,0.17 -0.25,0.46 -0.34,0.85l0 -0.03 -0.07 0.32 -0.04 0.39 0.01 0.44 0.02 0.1 0.04 0.26 0.01 0.03 0.02 0.05 0.11 0.37 0.01 0.04 0.01 0.02 0.14 0.32 0.02 0.04 0.02 0.04 0.17 0.29 0.07 0.12 0.27 0.36 0.39 0.42 0.35 0.32c0.15,0.12 0.34,0.26 0.49,0.37 0.75,0.55 1.87,1.07 3.21,1.33l0.02 0.01 0.02 0 0.39 0.07 0.03 0.01 0.03 0 0.39 0.05 0.01 0 0.02 0c0.52,0.05 1.05,0.06 1.61,0.02l0.05 -0.01 0.04 0 0.32 -0.03 0.08 -0.01 0.12 -0.02 0.27 -0.04 0.03 0c0.14,-0.03 0.33,-0.07 0.46,-0.1l0.38 -0.09 0.06 -0.01 0.09 -0.03c0.93,-0.27 2.11,-0.76 3.07,-1.64l0.13 -0.11 0.32 -0.33 0.35 -0.42 0.24 -0.37 0.23 -0.45 0.14 -0.39 0.01 -0.04 0.01 -0.01c0.12,-0.35 0.33,-1.24 -0.2,-2.29z"/>
   <path class="fil3" d="M18.09 17.5l-0.18 0.09 0.18 -0.09zm3.07 0.75l-0.08 0.01 0.12 -0.01 -0.04 0zm0.23 0l-0.06 0 -0.05 0 0.11 0zm0.1 0.01l-0.05 -0.01 0.12 0.02 -0.02 0 -0.05 -0.01zm-1.27 0.2l0.17 -0.05 -0.17 0.05zm-0.34 0.12l0.17 -0.06 -0.17 0.06zm0.69 -0.22l0.11 -0.03 -0.1 0.03 -0.01 0zm-1.2 0.43l0.16 -0.07 -0.16 0.07zm-0.45 0.2l0.18 -0.08 -0.18 0.08zm-0.49 0.23l0.19 -0.09 -0.19 0.09zm-0.52 0.26l0.18 -0.09 -0.18 0.09zm-8.09 1.55l0.01 0.02 0.14 0.32 0.02 0.04 0.02 0.04 0.17 0.29 0.07 0.12 0.27 0.36 0.39 0.43 0.35 0.31c0.15,0.12 0.34,0.27 0.49,0.37 0.75,0.55 1.87,1.07 3.21,1.33l0.02 0.01 0.02 0 0.39 0.07 0.03 0.01 0.03 0 0.39 0.05 0.01 0 0.01 0c0.53,0.05 1.06,0.06 1.62,0.02l0.05 -0.01 0.04 0 0.32 -0.03 0.08 -0.01 0.12 -0.02 0.27 -0.04 0.03 0c0.14,-0.03 0.33,-0.07 0.46,-0.09l0.38 -0.1 0.06 -0.01 0.09 -0.03c0.93,-0.27 2.11,-0.76 3.07,-1.64l0.13 -0.1 0.32 -0.34 0.35 -0.42 0.24 -0.37 0.23 -0.45 0.14 -0.39 0 0c-0.05,-0.15 -0.11,-0.3 -0.18,-0.45l-0.04 -0.08 -0.21 -0.37 -0.25 -0.34 -0.31 -0.33 -0.33 -0.3c-0.3,-0.26 -0.52,-0.39 -0.78,-0.56l-0.07 -0.03 0.06 0.03c-1.01,-0.56 -2.08,-0.91 -3.15,-1.09l-0.17 0.08 0.17 -0.08c-2.45,-0.41 -4.87,0.09 -6.55,0.99 -0.4,0.21 -1.41,0.83 -2,1.86 -0.09,0.15 -0.21,0.39 -0.3,0.7l0.06 0.2 0.01 0.03z"/>
   <polygon class="fil7" points="9.71,20.91 9.71,20.92 9.73,20.85 "/>
   <path class="fil0" d="M17.53 26.7c-0.56,0.04 -0.56,0.04 -0.84,0.03l-0.42 -0.01 -0.42 -0.03 -0.43 -0.05 -0.44 -0.08 -0.43 -0.1c-0.14,-0.03 -0.33,-0.08 -0.47,-0.13l-0.44 -0.14c-0.15,-0.06 -0.36,-0.14 -0.51,-0.2l-0.44 -0.21c-0.16,-0.08 -0.37,-0.2 -0.53,-0.29l-0.41 -0.27c-0.15,-0.11 -0.34,-0.25 -0.49,-0.37l-0.35 -0.32 -0.39 -0.42 -0.27 -0.36c-0.08,-0.13 -0.19,-0.31 -0.26,-0.45l-0.17 -0.38c-0.05,-0.14 -0.11,-0.32 -0.14,-0.46l-0.07 -0.39 0 -0.09 0.01 0.12c0.1,0.31 0.14,0.44 0.49,0.77l0.07 0.06c0.48,0.42 1.07,0.71 1.57,1.12 0.15,0.12 0.34,0.32 0.42,0.5 0.23,0.5 0.67,0.91 1.31,1.25 1.55,0.8 3.13,1.06 4.83,0.81l-0.43 0.06 -0.35 0.03z"/>
   <path class="fil2" d="M20.36 25.12c-1.28,0.65 -2.32,0.49 -2.33,0.48l0.07 -0.28 2.17 -0.46 0.13 0.24 -0.04 0.02z"/>
   <path class="fil8" d="M24.29 13.16l0 -0.01 0 0.01 0 0zm-1.52 4.69l-0.01 0 0.01 0 0 0zm-7.47 -13.25l0 0 0 0zm0.08 -0.04l0 0 -0.01 0 0.01 0zm8.91 8.59l0 0 0 0 0 0zm-1.54 4.7l0.01 0 0 0 -0.01 0zm1.53 -4.72l0.01 0.01 -0.01 0 0 -0.01zm-2.8 1.46l0 0 -0.01 0 0.01 0zm-0.02 0l0.01 0 0 0 -0.01 0zm-0.01 -0.01l0.01 0.01 0 0 -0.01 -0.01zm2.82 -6.02l0 0 0 0zm-9.5 13.9l0 0 0 0 0 0 0.01 0 -0.01 0zm10.31 -11.85l0.01 -0.04 0 -0.18 0 -0.04c0.01,-0.45 -0.11,-0.83 -0.38,-1.26l-0.11 -0.17 -0.03 -0.04 0 -0.01 -0.1 -0.13 -0.05 -0.07 -0.04 -0.05 -0.14 -0.17 -0.13 -0.16 0 0 -0.01 0 -0.02 -0.02 0 0 0 0 0 0 -0.02 -0.02 -0.13 -0.13 -0.03 -0.03 -0.07 -0.06 0 0 -0.03 -0.03 -0.08 -0.06 -0.05 -0.04 -0.01 -0.01 -0.04 -0.04 -0.15 -0.1 -0.02 -0.02 -0.03 -0.02 -0.01 -0.01 -0.05 -0.03 -0.16 -0.11 -0.04 -0.02 -0.01 -0.02 -0.04 -0.02 -0.24 -0.15 -0.39 -0.22 -0.15 -0.09 0 0 -0.07 -0.03 -0.05 -0.03c0.16,-0.46 0.33,-0.9 0.53,-1.33l-0.04 0.04 0 0 0.04 -0.14 0.01 0 -0.02 -0.03 -0.01 -0.04 -0.05 -0.09 -0.02 -0.04 -0.12 -0.14 -0.02 -0.02 -0.14 -0.13 -0.07 -0.06 -0.14 -0.11 -0.08 -0.06 -0.17 -0.12 -0.08 -0.05 -0.28 -0.18 -0.38 -0.22c-0.61,-0.35 -1.22,-0.59 -1.6,-0.63l-0.02 0 -0.01 0 -0.01 0 -0.2 -0.02 -0.21 -0.01 -0.22 0 -0.2 0 -0.22 0 -0.2 0.02 -0.21 0.02 -0.09 0.01 -0.03 0.01 -0.09 0.01 -0.16 0.03 0.01 0 -0.05 0.01 -0.21 0.04 0 0 0 0 -0.01 0 -0.2 0.05 -0.13 0.03 -0.05 0.01 -0.03 0.01 -0.2 0.06 -0.05 0.02 -0.1 0.03 -0.06 0.02 -0.12 0.05 -0.09 0.03 -0.21 0.08 -0.01 0.01 -0.07 0.03 -0.12 0.06 -0.05 0.02 -0.06 0.03 -0.1 0.05 -0.06 0.02 0.04 -0.02 -0.01 0.01 -0.07 0.04 -0.01 0.01 -0.03 0.01 -0.07 0.03 -0.04 0.03 -0.13 0.07 -0.03 0.02 -0.01 0 -0.07 0.04 0 0 -0.07 0.05 -0.21 0.12 -0.06 0.04 -0.13 0.08 -0.02 0.01 -0.2 0.14 -0.02 0.01 -0.08 0.06 -0.11 0.07 -0.2 0.16 -0.2 0.15 0.06 -0.05 -0.06 0.06 -0.01 0 -0.01 0.01 -0.01 0.01 -0.18 0.14 -0.18 0.16 -0.01 0.01 -0.01 0.01 -0.2 0.17 -0.05 0.05 -0.09 0.08 -0.06 0.06c-0.17,0.15 -0.38,0.36 -0.63,0.62l-0.12 0.13 -0.04 0.04 -0.08 0.09 -0.08 0.08 -0.03 0.03 -0.11 0.13 -0.06 0.06 -0.02 0.02 -0.19 0.22 -0.12 0.15 0.05 -0.06 -0.11 0.13 -0.18 0.22 -0.19 0.22 0 0 0 0 -0.01 0.04 0.01 0 0.2 0.28 -0.04 -0.04c0.79,0.79 1.11,2.41 1.21,2.94 -0.18,0.1 -0.36,0.19 -0.54,0.29l-0.17 0.09 -0.04 0.02c-0.25,0.13 -0.49,0.26 -0.74,0.38l-0.14 0.07 -0.38 0.2 -0.04 0.02 -0.11 0.06c-0.24,0.11 -0.72,0.35 -0.72,0.35l-0.13 0.31 -0.02 0.05 -0.02 0.03c-0.19,0.47 -0.29,0.76 -0.34,0.91l0 0 -0.09 0.28 -0.03 0.1 -0.03 0.11 -0.01 0.05 -0.01 0.03c-0.04,0.16 -0.07,0.3 -0.09,0.44l0 0.01 -0.01 0.06 -0.01 0.08 0 0.09 -0.01 0.04 0 0.17 0.01 0.22 0.01 0.08 0.01 0.09 0 0.03 0.05 0.21 0.01 0.04 0.01 0.03 0.04 0.12 0.07 0.16 0 0 0.03 0.06 0.09 0.18 0.02 0.04 0.01 0.01 0.13 0.21 0.02 0.03 0.01 0.02 0.1 0.13 0.05 0.07 0.04 0.05 0.14 0.17 0.16 0.18c0.24,0.27 0.68,0.61 1.21,0.92l0.39 0.22 0.21 0.11c-0.15,0.47 -0.31,0.92 -0.49,1.36 -0.08,0.22 0.42,0.72 1.2,1.17l0.39 0.22 0.25 0.14 0.02 0.02 0.01 0 0.01 0 0 0.01 0.01 0 0.01 0 0.05 0.03 0.13 0.07 0.05 0.02 0.02 0.01 0.01 0 0.01 0.01 0.01 0 0.02 0.01 0.03 0.01 0.1 0.04 0.07 0.03 0.02 0.01 0.02 0.01 0.01 0 0.01 0.01 0.01 0 0.02 0.01 0 0 0.06 0.02 0.02 0.01 0.07 0.02 0.02 0.01 0.01 0.01 0.02 0 0.02 0.01 0.01 0 0.04 0.01 0.05 0.02 0.03 0.01 0 0 0.03 0.01 0.04 0.01 0.02 0 0.01 0 0.02 0.01 0.03 0 0.03 0.01 0.01 0 0.04 0.01 0.04 0.01 0.02 0 0.02 0 0.01 0.01 0.01 0 0 0 0.02 0 0.01 0 -0.01 0 0.26 0.02 0.01 0 0.01 0 0.13 0 0.08 0 0.24 0 0.21 -0.01 0.05 -0.01 0.05 0 0.13 -0.01 0.09 -0.01 0.1 -0.02 0.02 0 0.22 -0.04 0.01 0 0.12 -0.02 0.08 -0.02 0.11 -0.02 0.06 -0.02 0.02 0 0.02 -0.01 0.08 -0.02 0.09 -0.02 -0.03 0 0.07 -0.02 0.21 -0.06 0.13 -0.04 0.02 -0.01 0.06 -0.02 0.21 -0.07 0.19 -0.08 0.15 -0.06 0.07 -0.03 0.1 -0.05 0.06 -0.02 0.04 -0.02 0.05 -0.02 0.28 -0.14 0.07 -0.04 0.15 -0.08 0.31 -0.17 0.01 -0.01 0 0 0.22 -0.13c0.3,-0.18 0.59,-0.39 0.89,-0.6l0.01 -0.02 0.1 -0.07 0.29 -0.23 0.02 -0.01 0 -0.01 0.02 -0.01 0.37 -0.31 0.02 -0.02 0.21 -0.18 0.2 -0.19 0.21 -0.2 0.08 -0.08 0.04 -0.04 0.08 -0.08 0.04 -0.04 0.04 -0.04 0.08 -0.08 0.02 -0.02 -0.02 0.02 0.04 -0.04 0.05 -0.05 0.11 -0.12 0.05 -0.05 0.1 -0.12 0.04 -0.03 0.06 -0.07 0.2 -0.22 0.19 -0.24 0.13 -0.15 0.07 -0.09 -0.01 0 0 0.01 0.01 -0.01 0 -0.01 0 0 0 0 0.01 -0.01 0 -0.02 -0.01 -0.02 0 -0.01 0 0 0 0 0 0 -0.01 -0.01 -0.04 -0.06 -0.01 -0.02c-0.2,-0.27 -0.38,-0.56 -0.54,-0.91l0 0c-0.28,-0.58 -0.5,-1.28 -0.7,-2.17 0.17,-0.09 0.35,-0.18 0.53,-0.28 0.38,-0.2 0.72,-0.38 1.04,-0.54 0.14,-0.07 0.27,-0.14 0.41,-0.21l0.14 -0.07c0.22,-0.11 0.44,-0.22 0.67,-0.33l0 0 0.01 0 -0.01 0 0.01 0 0 0 0 0c0.07,-0.18 0.24,-0.55 0.39,-0.96l0.02 -0.05 0.01 -0.03 0.07 -0.21 0.02 -0.05 0.01 -0.02 0.03 -0.1 0.05 -0.16 0.07 -0.24 0 -0.02 0.04 -0.15 0.01 -0.04 0.01 -0.06 0.01 -0.07 0.02 -0.09 0.01 -0.08 0.01 -0.13 0.01 -0.04 0 -0.05z"/>
   <path class="fil0" d="M22.73 5.52l-0.01 -0.04 -0.05 -0.09 -0.02 -0.04 -0.12 -0.14 -0.02 -0.02 -0.14 -0.13 -0.07 -0.06 -0.14 -0.11 -0.08 -0.06 -0.17 -0.12 -0.08 -0.05 -0.28 -0.18 -0.38 -0.22c-0.61,-0.35 -1.22,-0.59 -1.6,-0.63l-0.24 -0.02 -0.21 -0.01 -0.22 0 -0.2 0 -0.22 0 -0.2 0.02 -0.21 0.02 -0.21 0.03 -0.2 0.04 -0.21 0.04 -0.21 0.05 -0.21 0.05 -0.2 0.06 -0.21 0.07 -0.21 0.08 -0.21 0.08 -0.2 0.1 -0.21 0.1 -0.21 0.1 -0.2 0.12 0.04 -0.01 -0.05 0.01 0 0 0 0 -0.01 0.01 0 0 0 0 -0.01 0 0 0.01 0 0 -0.01 0 0 0 -0.01 0 0 0 0 0.01 -0.01 0 0 0 0 0 -0.01 0.01 0 0 -0.01 0 0 0 0 0 0 0 -0.01 0.01 0 0 0 0 -0.01 0 0 0.01 0 0 -0.01 0 0 0 0 0 -0.01 0 0 0.01 0 0 -0.01 0 0 0 -0.01 0 0 0.01 0 0 -0.01 0 0 0 0 0.01 -0.21 0.12 -0.21 0.13 -0.2 0.14 -0.21 0.14 -0.2 0.16 -0.2 0.16 -0.21 0.16 -0.2 0.18 -0.2 0.17 -0.2 0.19 -0.2 0.19 -0.2 0.19 -0.19 0.2 -0.2 0.21 -0.19 0.2 -0.19 0.21 -0.19 0.22 -0.18 0.22 -0.18 0.22 -0.19 0.22c-0.09,0.12 0.4,0.55 1.19,1.01l0.38 0.22 0.01 0 0.05 0.03 0 0c0.78,0.45 1.56,0.76 1.82,0.73l0.04 -0.04 -0.03 0.04 0.04 -0.01c1.15,-1.43 2.53,-2.79 3.88,-3.56l0.16 -0.09c1.35,-0.78 2.73,-1.02 3.88,-0.92l0.04 -0.14 0.01 0 -0.02 -0.03z"/>
   <path class="fil0" d="M24.27 8.55l-0.01 -0.01 -0.05 -0.11 -0.02 -0.02 -0.02 -0.04 0 0.01 -0.07 -0.08 0.01 0 -0.02 -0.02 -0.03 -0.03 -0.13 -0.13 -0.03 -0.03 -0.07 -0.06 0 0 -0.03 -0.03 -0.08 -0.06 -0.05 -0.04 -0.01 -0.01 -0.04 -0.04 -0.15 -0.1 -0.02 -0.02 -0.03 -0.02 -0.01 -0.01 -0.05 -0.03 -0.16 -0.11 -0.04 -0.02 -0.01 -0.02 -0.04 -0.02 -0.24 -0.15 -0.39 -0.22c-0.76,-0.44 -1.45,-0.67 -1.63,-0.55 -0.85,0.57 -1.65,1.09 -2.87,1.85 0.27,-0.17 1.02,0.01 1.78,0.45l0.39 0.23 0.33 0.21 0.07 0.05 0.03 0.03 0.19 0.14 0.05 0.04 0.14 0.12 0.08 0.09 0.11 0.11c0.21,0.25 0.3,0.47 0.21,0.61 1.24,-0.77 2.14,-1.35 2.91,-1.87l0 -0.09z"/>
   <path class="fil0" d="M13.9 12.27c-0.76,-0.44 -1.27,-0.75 -1.25,-0.77 -1.22,0.65 -2.02,1.06 -2.87,1.48 0.07,-0.04 0.65,0.24 1.4,0.68l0.38 0.22c0.85,0.49 1.6,1 1.67,1.14 0.77,-0.38 1.68,-0.84 2.92,-1.5 -0.18,-0.07 -1.02,-0.53 -1.87,-1.03l-0.38 -0.22z"/>
   <path class="fil4" d="M18.81 6.61c1.36,-0.78 2.74,-1.02 3.89,-0.92 -0.58,1.24 -1.05,2.86 -1.34,4.82 1.24,-0.77 2.14,-1.35 2.91,-1.87 1.06,1.18 1.07,2.09 0.01,4.49 -0.73,0.36 -1.61,0.81 -2.83,1.45 0.34,1.59 0.81,2.65 1.3,3.27 -1.25,1.58 -2.69,2.77 -3.97,3.51 -1.28,0.73 -2.72,1.2 -3.98,1.09 0.48,-1.19 0.94,-2.79 1.28,-4.77 -1.22,0.77 -2.1,1.33 -2.83,1.82 -1.07,-1.18 -1.07,-2.09 -0.02,-4.48 0.77,-0.38 1.68,-0.84 2.92,-1.5 -0.31,-1.62 -0.79,-2.69 -1.37,-3.26 1.15,-1.43 2.53,-2.79 3.88,-3.56l0.07 -0.05 0.08 -0.04z"/>
   <path class="fil8" d="M15.98 4.23c-0.08,0.24 0.03,0.51 0.35,0.7 0.52,0.31 1.38,0.32 1.92,0.02 0.34,-0.2 0.48,-0.47 0.38,-0.73l0.28 0.77c0.11,0.31 -0.05,0.65 -0.47,0.88 -0.65,0.36 -1.68,0.35 -2.31,-0.02 -0.38,-0.24 -0.52,-0.55 -0.42,-0.84l0.03 -0.08 0.01 -0.04 0.03 -0.08 0.03 -0.08 0.01 -0.04 0.03 -0.07 0.02 -0.08 0.02 -0.04 0.02 -0.08 0.03 -0.07 0.01 -0.04 0.03 -0.08z"/>
   <path class="fil5" d="M19.9 2.6c0,1.44 -1.16,2.6 -2.6,2.6 -1.43,0 -2.6,-1.16 -2.6,-2.6 0,-1.44 1.17,-2.6 2.6,-2.6 1.44,0 2.6,1.16 2.6,2.6z"/>
   <path class="fil3" d="M19.73 2.33c0,1.19 -0.96,2.16 -2.16,2.16 -1.19,0 -2.16,-0.97 -2.16,-2.16 0,-1.19 0.97,-2.16 2.16,-2.16 1.2,0 2.16,0.97 2.16,2.16z"/>
   <path class="fil2" d="M18.8 1.96c0,0.38 -0.32,0.7 -0.7,0.7 -0.39,0 -0.71,-0.32 -0.71,-0.7 0,-0.39 0.32,-0.71 0.71,-0.71 0.38,0 0.7,0.32 0.7,0.71z"/>
   <path class="fil2" d="M27.54 32.59c0.26,1.15 -1.83,2.62 -4.68,3.28 -2.85,0.66 -5.37,0.27 -5.64,-0.88 -0.27,-1.15 -0.46,-6.74 2.39,-7.41 2.85,-0.66 7.66,3.86 7.93,5.01z"/>
   <path class="fil2" d="M23.52 20.03c0.17,0.48 0.24,1.03 0.08,1.55 -0.16,0.51 -0.45,0.98 -0.83,1.36 -0.75,0.77 -1.73,1.24 -2.73,1.57 -1.01,0.3 -2.06,0.45 -3.11,0.44 -1.05,-0.02 -2.09,-0.18 -3.08,-0.47 2.04,0.3 4.14,0.32 6.09,-0.31 0.97,-0.29 1.9,-0.75 2.64,-1.43 0.76,-0.65 1.2,-1.69 0.94,-2.71z"/>
   <path class="fil9" d="M12.51 18.24c-0.22,-1.12 0.13,-2.27 0.66,-3.26l0.01 -0.02 0.02 -0.01 2.89 -1.54 -0.06 0.13c-0.11,-0.58 -0.25,-1.17 -0.45,-1.72 -0.21,-0.54 -0.46,-1.11 -0.89,-1.43l-0.13 -0.09 0.09 -0.13c0.5,-0.65 1.06,-1.21 1.64,-1.77 0.58,-0.55 1.18,-1.08 1.83,-1.56 1.31,-0.95 2.96,-1.49 4.6,-1.31l0.24 0.02 -0.12 0.22c-0.77,1.45 -1.22,3.1 -1.36,4.75l-0.18 -0.11 2.93 -1.83 0.05 -0.02 0.03 0.03c0.45,0.39 0.65,0.95 0.71,1.5 0.06,0.56 -0.02,1.12 -0.18,1.65 0.13,-0.54 0.19,-1.1 0.11,-1.64 -0.08,-0.53 -0.31,-1.07 -0.72,-1.4l0.08 0 -2.89 1.92 -0.2 0.13 0.02 -0.25c0.09,-1.69 0.52,-3.37 1.32,-4.89l0.12 0.24c-1.53,-0.16 -3.1,0.38 -4.35,1.28 -0.64,0.46 -1.23,0.98 -1.81,1.52 -0.57,0.54 -1.14,1.1 -1.61,1.71l-0.04 -0.22c0.54,0.41 0.78,1.02 0.98,1.59 0.2,0.58 0.33,1.17 0.42,1.77l0.01 0.09 -0.08 0.04 -2.93 1.45 0.03 -0.03c-0.56,0.95 -0.96,2.06 -0.79,3.19z"/>
  </g>
 </g>
</svg>
