<?xml version="1.0" encoding="UTF-8"?>
<!DOCTYPE svg PUBLIC "-//W3C//DTD SVG 1.0//EN" "http://www.w3.org/TR/2001/REC-SVG-20010904/DTD/svg10.dtd">
<!-- Creator: CorelDRAW 2018 (64 Bit Versão de avaliação) -->
<svg xmlns="http://www.w3.org/2000/svg" xml:space="preserve" width="30px" height="64px" version="1.0" style="shape-rendering:geometricPrecision; text-rendering:geometricPrecision; image-rendering:optimizeQuality; fill-rule:evenodd; clip-rule:evenodd"
viewBox="0 0 25.88 55.6"
 xmlns:xlink="http://www.w3.org/1999/xlink">
 <defs>
  <style type="text/css">
   <![CDATA[
    .fil8 {fill:#FEFEFE;fill-rule:nonzero}
    .fil10 {fill:#EBECEC;fill-rule:nonzero}
    .fil7 {fill:#DADBDC;fill-rule:nonzero}
    .fil5 {fill:#F1F5F5;fill-rule:nonzero}
    .fil4 {fill:#DDE3E4;fill-rule:nonzero}
    .fil9 {fill:#CBD1D1;fill-rule:nonzero}
    .fil1 {fill:#C9CFCF;fill-rule:nonzero}
    .fil6 {fill:#C1C7C9;fill-rule:nonzero}
    .fil3 {fill:#B6BCBD;fill-rule:nonzero}
    .fil2 {fill:#AEB4B5;fill-rule:nonzero}
    .fil0 {fill:#A5ABAD;fill-rule:nonzero}
   ]]>
  </style>
 </defs>
 <g id="Camada_x0020_1">
  <metadata id="CorelCorpID_0Corel-Layer"/>
  <g id="_1658857630768">
   <path class="fil0" d="M25.87 46.32c0,-0.22 -0.02,-0.52 -0.05,-0.74 -0.03,-0.16 -0.07,-0.36 -0.12,-0.55l-0.01 -0.03 -0.01 -0.04 -0.02 -0.08 -0.04 -0.09c-0.05,-0.17 -0.11,-0.34 -0.17,-0.49l-0.22 -0.46 0.02 -0.11c0.03,-0.63 -0.03,-1 -0.12,-1.42 -0.03,-0.15 -0.08,-0.34 -0.13,-0.48 -0.07,-0.21 -0.19,-0.47 -0.27,-0.67l0.12 0.35c-0.26,-0.69 -0.68,-1.35 -1.3,-1.98 -0.56,-0.56 -1.12,-1.13 -1.69,-1.7l0 0.07c0,-0.18 0,-0.37 -0.02,-0.57 -0.1,-0.86 -0.47,-1.53 -0.58,-1.72 -0.29,-0.47 -0.42,-0.61 -0.72,-0.96 -0.11,-0.12 -0.25,-0.24 -0.39,-0.37l-0.04 -0.03 -0.3 -0.26 0.17 0.15c-0.12,-0.1 -0.27,-0.19 -0.4,-0.29 -0.6,-2.68 -1.35,-6.82 -1.62,-11.57l0.26 -0.11 0.13 -0.05 0.14 -0.07 0.25 -0.12 0.01 -0.01c0.16,-0.08 0.27,-0.14 0.27,-0.14l0.01 -0.01 0.03 -0.02c0.17,-0.1 0.29,-0.17 0.4,-0.24l0.03 -0.02 0.07 -0.04 0.02 -0.02 0.03 -0.01 0.27 -0.19 0 0 0.18 -0.14 0.01 -0.01 0.05 -0.03 0.11 -0.1 0.31 -0.26 0.04 -0.04 0.08 -0.08 0.12 -0.13 0.13 -0.13 0 0 0 0 0.01 0 0.02 -0.03 0.04 -0.05c0.1,-0.11 0.21,-0.25 0.31,-0.39l0.01 0 0.21 -0.32 0.04 -0.07 0.02 -0.02c0.12,-0.22 0.2,-0.39 0.27,-0.54l0 -0.01 0.1 -0.26 0.02 -0.05 0.02 -0.09 0.02 -0.04c0.05,-0.14 0.12,-0.43 0.16,-0.8l0.01 -0.07 0 -0.13c0,-0.12 0.01,-0.24 0,-0.37 0,-0.17 -0.01,-0.31 -0.03,-0.44l0 -0.07 -0.01 -0.01 0 -0.05 -0.06 -0.27c-0.06,-0.28 -0.13,-0.52 -0.18,-0.67l-0.03 -0.1 -0.02 -0.05c-0.04,-0.11 -0.09,-0.23 -0.14,-0.36l-0.03 -0.07c-0.08,-0.18 -0.16,-0.34 -0.21,-0.45l-0.03 -0.06 0.01 0.01 -0.01 -0.01c-0.31,-0.64 -0.85,-1.25 -1.59,-1.79l0.12 -0.19 0.05 -0.06 0.16 -0.31 0.16 -0.29 0.1 -0.25 0.12 -0.26 0.05 -0.16 0.1 -0.26 0.06 -0.18 -0.02 0.05c0.18,-0.57 0.26,-1.02 0.3,-1.23 0.13,-0.85 0.11,-1.77 0.03,-2.31 -0.11,-0.75 -0.11,-0.75 -0.36,-1.61 -0.09,-0.3 -0.27,-0.69 -0.4,-0.98 -0.14,-0.31 -0.56,-1.12 -1.34,-1.97 -0.39,-0.42 -0.69,-0.66 -0.93,-0.86 -0.26,-0.21 -0.62,-0.45 -0.9,-0.62 -0.65,-0.39 -1.14,-0.58 -1.44,-0.69 -0.41,-0.15 -0.64,-0.21 -0.84,-0.26 -0.29,-0.07 -0.45,-0.1 -0.78,-0.15 -0.31,-0.05 -1.38,-0.17 -2.67,0.06l0.13 -0.04 -0.06 0.01c-0.12,0.02 -0.28,0.06 -0.4,0.08l-0.39 0.1c-0.14,0.04 -0.31,0.1 -0.45,0.14l-0.34 0.13 -0.05 0.01 -0.02 0.01c-0.16,0.07 -0.36,0.16 -0.52,0.23l-0.44 0.23 -0.1 0.06 -0.05 0.02 -0.16 0.11 -0.29 0.18 -0.16 0.11 -0.16 0.12 -0.11 0.08 -0.2 0.16c-0.12,0.1 -0.23,0.2 -0.33,0.29l-0.14 0.12 -0.07 0.08c-0.13,0.13 -0.25,0.25 -0.33,0.33 -0.1,0.11 -0.34,0.39 -0.62,0.78l-0.05 0.07 -0.16 0.24 -0.12 0.2 -0.05 0.08c-0.14,0.23 -0.2,0.35 -0.29,0.55l-0.03 0.05 -0.04 0.1c-0.05,0.12 -0.12,0.27 -0.21,0.47l-0.04 0.12 -0.09 0.26 -0.08 0.23 -0.03 0.11c-0.13,0.45 -0.19,0.81 -0.22,1 -0.03,0.19 -0.05,0.4 -0.07,0.6l-0.01 0.05 0 0.26 -0.02 0.33 0 0.07 0 0.1c0.01,0.29 0.02,0.55 0.05,0.74 0.02,0.19 0.05,0.46 0.09,0.65 0.06,0.29 0.16,0.68 0.24,0.97 0.05,0.18 0.13,0.39 0.21,0.59l0.01 0.01 0 0.01c0.06,0.13 0.11,0.26 0.16,0.37l0.12 0.21 0.16 0.34 0.1 0.16 0.07 0.13 -0.07 0.06 -0.41 0.36c-0.12,0.13 -0.28,0.31 -0.4,0.44l-0.31 0.41c-0.13,0.2 -0.29,0.48 -0.4,0.68l0 0 0 0 0 0c-0.06,0.14 -0.11,0.25 -0.16,0.35l-0.08 0.18 -0.13 0.33 -0.05 0.14 -0.02 0.07 -0.02 0.04 -0.01 0.05 -0.08 0.25 -0.01 0.05 -0.02 0.09 -0.05 0.21 -0.01 0.02c-0.03,0.14 -0.04,0.22 -0.05,0.3l0 0.04 0 0.01 -0.01 0.07 -0.03 0.31 0 0.04 0 0.08 0 0.32 0 0.03 0 0.02 0.03 0.27 0.01 0.08 0.01 0.08 0.03 0.13 0.01 0.06 0.02 0.08 0 0 0.01 0.06 0.06 0.21 0.03 0.09c0,0.02 0.04,0.14 0.11,0.31l0.05 0.12 0.04 0.08 0.02 0.04 0.02 0.04 0.11 0.2 0.07 0.11 0.03 0.07c0.1,0.17 0.18,0.28 0.28,0.41l0 0 0.01 0.02 0.01 0 0.02 0.03 0.27 0.32 0.04 0.05 0.01 0 0.03 0.04 0.01 0.01c0.12,0.14 0.3,0.3 0.44,0.42 0.1,0.09 0.23,0.19 0.35,0.28l0.04 0.03 0.04 0.04 0.01 0 0 0.01c0.1,0.07 0.26,0.18 0.49,0.33l0.18 0.11c0.11,0.07 0.35,0.21 0.69,0.37 0.07,0.04 0.18,0.09 0.31,0.15l0.19 0.08 0.16 0.07c-0.23,4.75 -0.96,8.89 -1.55,11.58l-0.32 0.22 0.09 -0.08 -0.13 0.11 -0.08 0.07c-0.14,0.13 -0.29,0.26 -0.41,0.38l-0.32 0.35c-0.21,0.25 -0.42,0.59 -0.5,0.74 -0.11,0.18 -0.47,0.84 -0.56,1.71 -0.02,0.15 0,0.31 0,0.47l-0.12 0.12 -0.32 0.32 -0.16 0.16 -0.31 0.33 -0.32 0.32 -0.16 0.16 -0.32 0.32c-0.59,0.61 -1,1.26 -1.27,1.93l0.11 -0.3c-0.06,0.14 -0.13,0.31 -0.19,0.47l-0.01 0.03 -0.07 0.17c-0.05,0.14 -0.09,0.32 -0.12,0.46 -0.11,0.45 -0.12,0.82 -0.13,1.09 -0.01,0.13 0,0.3 0.01,0.43l0.01 0.07c-0.15,0.31 -0.3,0.65 -0.4,0.94 -0.09,0.27 -0.14,0.65 -0.19,0.93 -0.02,0.17 -0.02,0.41 -0.03,0.59 0,0.23 0.02,0.46 0.06,0.7 -0.04,-0.24 -0.06,-0.47 -0.06,-0.7l0.01 1.75c0,1.36 0.65,2.72 1.93,3.92l0 0 0.04 0.03c0.29,0.27 0.63,0.53 0.99,0.79l0.1 0.08c0.17,0.11 0.35,0.23 0.54,0.34 0.58,0.35 1.21,0.65 1.87,0.92 0.21,0.09 0.44,0.16 0.67,0.24 0.34,0.12 0.68,0.26 1.04,0.36 0.12,0.04 0.25,0.05 0.37,0.09 0.26,0.07 0.53,0.12 0.79,0.18 0.27,0.06 0.53,0.13 0.8,0.18l0 -0.04c4.34,0.77 9.24,0.21 12.75,-1.74 2.65,-1.48 3.98,-3.46 3.98,-5.43l-0.01 -1.75z"/>
   <path class="fil1" d="M4.21 40.48c0.95,-0.51 2.14,-1.09 4.27,-1.58 1.41,-0.32 3.13,-0.5 4.71,-0.48 2.27,0.02 4.02,0.41 4.67,0.57 0.27,0.07 0.63,0.17 0.89,0.25 0.26,0.08 0.6,0.2 0.86,0.28 0.25,0.09 0.58,0.23 0.82,0.33 0.01,0 0.75,0.3 1.61,0.82 -0.55,-0.33 -1.95,0.41 -2.04,0.46 -3.74,-2.26 -9.94,-2.32 -13.85,-0.14 -3.9,2.18 -4.03,5.77 -0.28,8.02 3.74,2.25 9.94,2.32 13.84,0.14 3.91,-2.18 4.03,-5.77 0.29,-8.02 0.09,-0.05 1.49,-0.79 2.04,-0.46 0.21,0.14 0.49,0.3 0.69,0.45 0.33,0.25 0.76,0.59 1.06,0.86 0.23,0.21 0.74,0.76 0.98,1.11 0.13,0.19 0.31,0.44 0.41,0.65 0.17,0.33 0.36,0.78 0.48,1.14 0.07,0.2 0.12,0.49 0.16,0.7 0.03,0.22 0.05,0.52 0.05,0.74 0.01,1.98 -1.33,3.95 -3.98,5.43 -5.15,2.88 -13.34,2.79 -18.29,-0.18 -2.4,-1.45 -3.59,-3.31 -3.6,-5.17 0.01,-0.18 0.01,-0.42 0.03,-0.59 0.05,-0.28 0.1,-0.66 0.19,-0.93 0.13,-0.35 0.32,-0.81 0.49,-1.14 0.11,-0.21 0.29,-0.46 0.43,-0.66 0.13,-0.19 0.33,-0.44 0.5,-0.61 0.3,-0.31 0.74,-0.71 1.07,-1 0.01,0 0.77,-0.59 1.5,-0.99z"/>
   <path class="fil2" d="M22.04 40.67c0.37,0.23 0.84,0.56 1.19,0.82l0.56 0.49c0.17,0.18 0.4,0.4 0.56,0.58l0.42 0.53c0.13,0.2 0.3,0.45 0.41,0.65l0.27 0.56c0.08,0.21 0.18,0.48 0.24,0.7l0.13 0.58c0.02,0.22 0.05,0.52 0.05,0.74 0,0.5 -0.08,1 -0.25,1.48 0.11,-0.53 0.08,-0.64 0.05,-0.65 -0.16,-0.12 -0.39,0.28 -0.52,0.43 -1.74,2.06 -4.16,3.51 -7.21,4.31 -3.26,0.87 -5.76,0.92 -8.65,0.98 -0.37,0 -0.65,0.08 -0.65,0.08l-0.15 0.14c0,0.1 0.11,0.16 0.66,0.45 -2.05,-0.36 -3.96,-1.02 -5.55,-1.97 -0.64,-0.39 -1.2,-0.81 -1.67,-1.25l0.1 0.06c0.14,0.06 0.43,0.24 0.49,0.1 0.08,-0.18 -0.23,-0.41 -0.36,-0.57 -3.93,-5.02 -0.08,-8.15 1.76,-9.26 0.31,-0.18 0.74,-0.4 1.07,-0.57 0.25,-0.11 0.59,-0.27 0.85,-0.37l0.85 -0.31c0.26,-0.08 0.62,-0.2 0.89,-0.28l0.9 -0.22c0.28,-0.06 0.65,-0.14 0.93,-0.18l0.93 -0.14c0.29,-0.03 0.67,-0.08 0.95,-0.1l0.95 -0.05c0.28,-0.01 0.66,-0.02 0.95,-0.01l0.95 0.03c0.29,0.02 0.66,0.04 0.95,0.07l0.93 0.11c0.28,0.05 0.66,0.11 0.93,0.16l0.91 0.2c0.27,0.08 0.63,0.17 0.89,0.25l0.86 0.28c0.25,0.11 0.6,0.23 0.85,0.34l0.79 0.37c0.24,0.13 0.56,0.3 0.79,0.44 -0.55,-0.33 -1.95,0.41 -2.04,0.46 -3.74,-2.26 -9.94,-2.32 -13.85,-0.14 -3.9,2.18 -4.03,5.77 -0.28,8.02 3.74,2.25 9.94,2.32 13.84,0.14 3.91,-2.18 4.03,-5.77 0.29,-8.02 0.09,-0.05 1.49,-0.79 2.04,-0.46z"/>
   <path class="fil3" d="M22.13 16.5c-0.05,-0.4 -0.2,-0.83 -0.29,-1.09 -0.11,-0.32 -0.33,-0.79 -0.41,-0.94 -0.38,-0.79 -1.1,-1.54 -2.14,-2.17 -0.26,-0.15 -0.54,-0.3 -0.82,-0.43 -3.45,-1.62 -8.51,-1.53 -11.8,0.3 -1.19,0.67 -2,1.48 -2.41,2.35 -0.11,0.21 -0.32,0.67 -0.46,1.1 -0.18,0.58 -0.23,0.93 -0.24,1.09 -0.04,0.46 -0.06,0.69 0.02,1.23 0.09,0.57 0.32,1.06 0.32,1.06 0.12,0.23 0.32,0.65 0.57,0.95 0.12,0.14 0.27,0.34 0.4,0.47 0.24,0.23 0.57,0.52 0.83,0.73 0.15,0.13 0.51,0.39 1.26,0.79 0.05,0.03 0.51,0.27 1.19,0.52 1.26,0.46 2.42,0.62 2.54,0.63 0.61,0.08 0.95,0.12 1.32,0.13 0.96,0.04 1.06,0.04 2,-0.02 0.48,-0.03 1.57,-0.16 2.6,-0.45 0.22,-0.07 0.69,-0.2 1.23,-0.42 0.72,-0.29 1.17,-0.55 1.18,-0.55 0.67,-0.41 0.71,-0.43 1.04,-0.69 0.46,-0.36 0.74,-0.65 0.85,-0.78 0.49,-0.53 0.85,-1.13 1.05,-1.74 0.03,-0.09 0.09,-0.27 0.13,-0.5 0.03,-0.15 0.06,-0.33 0.08,-0.5 0.03,-0.47 -0.01,-0.8 -0.04,-1.07z"/>
   <path class="fil2" d="M18.71 15.9c0,0 0.93,-1.66 -0.68,-3.43 -1.62,-1.77 1.95,0.72 1.95,0.72 0,0 1.31,0.92 1.16,2.47 -0.15,1.56 -0.38,1.71 -0.38,1.71l-2.05 -1.47z"/>
   <path class="fil4" d="M22.17 17.57c-0.02,0.17 -0.05,0.35 -0.08,0.5l-1.02 -0.18 -0.36 -1.37c0,0 0.72,-2.3 -1.52,-3.67 -0.35,-0.22 -0.59,-0.57 -0.72,-0.98 0.28,0.13 0.56,0.28 0.82,0.43 1.04,0.63 1.76,1.38 2.14,2.17 0.08,0.15 0.3,0.62 0.41,0.94 0.09,0.26 0.24,0.69 0.29,1.09 0.03,0.27 0.07,0.6 0.04,1.07z"/>
   <path class="fil4" d="M21.5 38.81l0 0.06 0 -0.06zm0 -0.1l0 0.06 0 -0.06zm0 -0.11l0 0.07 0 -0.07zm-0.01 -0.13l0.01 0.1 -0.01 -0.1zm-0.02 -0.09l0.01 0.07 -0.01 -0.07zm-0.01 -0.1l0.01 0.06 -0.01 -0.06zm-0.02 -0.1l0.01 0.06 -0.01 -0.06zm-0.03 -0.1l0.02 0.06 -0.02 -0.06zm-0.02 -0.09l0.01 0.05 -0.01 -0.05zm-0.03 -0.1l0.01 0.05 -0.01 -0.05zm-0.04 -0.1l0.02 0.06 -0.02 -0.06zm-0.62 3.13l0 -0.01 0.04 -0.05 -0.04 0.06zm2.85 -1.39c-0.56,-0.56 -1.12,-1.13 -1.69,-1.7 0,0.48 -0.08,0.95 -0.24,1.42 -0.27,0.81 -0.68,1.37 -0.92,1.66l-0.01 0.01 -0.02 0.03 -0.08 0.09 0.03 -0.03c-0.43,0.51 -1.02,0.98 -1.76,1.39 -3.42,1.91 -8.86,1.86 -12.14,-0.12 -2.04,-1.23 -2.77,-2.9 -2.22,-4.45 -0.04,-0.14 -0.07,-0.27 -0.09,-0.4l-0.07 0.07 -0.16 0.16 -0.31 0.32 -0.32 0.32 -0.16 0.16 -0.31 0.33 -0.32 0.32 -0.16 0.16 -0.32 0.32c-2.62,2.67 -2.04,6.11 1.81,8.42 4.68,2.82 12.43,2.9 17.32,0.18 4.14,-2.31 4.88,-5.9 2.14,-8.66zm-2.05 -0.57l0 -0.05 0 0.05zm-0.01 0.1l0.01 -0.06 -0.01 0.06zm-0.01 0.1l0.01 -0.06 -0.01 0.06zm-0.01 0.1l0.01 -0.06 -0.01 0.06zm-0.02 0.1l0.01 -0.06 -0.01 0.06zm-0.02 0.09l0.01 -0.05 -0.01 0.05zm-0.02 0.1l0.01 -0.06 -0.01 0.06zm-0.03 0.11l0.02 -0.07 -0.02 0.07zm-0.04 0.12l0.03 -0.09 -0.03 0.09zm-0.04 0.1l0.04 -0.09 -0.04 0.09zm-0.04 0.1l0.03 -0.07 -0.03 0.07zm-0.04 0.09l0.03 -0.06 -0.03 0.06zm-0.04 0.1l0.03 -0.06 -0.03 0.06zm-0.05 0.09l0.03 -0.05 -0.03 0.05zm-0.05 0.1l0.03 -0.06 -0.03 0.06zm-0.06 0.09l0.04 -0.05 -0.04 0.05zm-0.05 0.09l0.03 -0.05 -0.03 0.05zm-0.07 0.1l0.04 -0.06 -0.04 0.06zm-0.06 0.09l0.04 -0.05 -0.04 0.05zm-0.07 0.1l0.04 -0.06 -0.04 0.06z"/>
   <path class="fil5" d="M17.59 42.99c-0.23,0.09 -0.47,0.17 -0.71,0.24 -0.66,0.2 -1.36,0.35 -2.07,0.44l0.82 6.33c1.02,-0.13 2.01,-0.34 2.95,-0.63 0.35,-0.1 0.69,-0.22 1.02,-0.35l-2.01 -6.03z"/>
   <path class="fil6" d="M0.01 48.15l-0.01 -1.75c0.01,1.86 1.2,3.72 3.6,5.17 4.95,2.97 13.14,3.06 18.29,0.18 2.65,-1.48 3.99,-3.45 3.98,-5.43l0.01 1.75c0,1.97 -1.33,3.95 -3.98,5.43 -5.16,2.87 -13.35,2.79 -18.29,-0.19 -2.4,-1.44 -3.6,-3.3 -3.6,-5.16z"/>
   <path class="fil6" d="M4.3 49.03c-0.31,-0.19 -0.73,-0.47 -1.03,-0.7 -0.46,-0.36 -0.79,-0.69 -0.87,-0.78l-0.33 -0.36c-0.15,-0.17 -0.34,-0.4 -0.46,-0.59 -0.18,-0.27 -0.4,-0.6 -0.64,-1.19 0,0 -0.19,-0.48 -0.27,-0.89 -0.04,-0.2 -0.07,-0.46 -0.09,-0.65 -0.01,-0.13 -0.02,-0.3 -0.01,-0.43 0.01,-0.27 0.02,-0.64 0.13,-1.09 0.03,-0.14 0.07,-0.32 0.12,-0.46 0.07,-0.2 0.18,-0.47 0.27,-0.67 -1.11,2.33 -0.13,4.93 2.97,6.79 4.68,2.82 12.43,2.9 17.32,0.18 3.37,-1.88 4.49,-4.6 3.32,-7.03 0.08,0.2 0.2,0.46 0.27,0.67 0.05,0.14 0.1,0.33 0.13,0.48 0.09,0.42 0.15,0.79 0.12,1.42 -0.03,0.8 -0.31,1.69 -0.75,2.43 -0.6,1.02 -1.31,1.67 -2.07,2.25 -0.53,0.41 -1.23,0.8 -1.24,0.8 -0.2,0.11 -0.46,0.25 -0.67,0.35 -0.3,0.14 -0.72,0.32 -1.04,0.45 -3.96,1.53 -9.13,1.54 -13.07,0.04 -0.42,-0.17 -0.97,-0.41 -1.37,-0.61 -0.23,-0.11 -0.52,-0.27 -0.74,-0.41z"/>
   <path class="fil4" d="M5.25 41.08c-0.2,-0.23 -0.72,-0.84 -1.04,-1.78 -0.22,-0.63 -0.29,-1.27 -0.22,-1.91 0.09,-0.87 0.45,-1.53 0.56,-1.71 0.08,-0.15 0.29,-0.49 0.5,-0.74l0.32 -0.35c0.18,-0.17 0.43,-0.4 0.62,-0.56 -2.38,1.9 -2.15,4.58 0.75,6.32 3.27,1.97 8.68,2.03 12.08,0.13 3.13,-1.75 3.48,-4.53 0.99,-6.49 0.23,0.19 0.53,0.44 0.73,0.66 0.3,0.35 0.43,0.49 0.72,0.96 0.11,0.19 0.48,0.86 0.58,1.72 0.09,0.87 -0.1,1.58 -0.19,1.85 -0.1,0.29 -0.35,1.05 -1.06,1.86 -0.42,0.49 -1,0.96 -1.73,1.36 -3.42,1.91 -8.86,1.86 -12.14,-0.12 -0.61,-0.37 -1.1,-0.77 -1.47,-1.2z"/>
   <path class="fil2" d="M19.08 33.48l-0.77 0.6c2.87,1.73 -6.71,-1.43 -4.58,-1.3l0.11 -0.78c-2.42,-0.15 -4.95,0.3 -6.84,1.36 -0.91,0.5 -1.57,1.09 -2.01,1.72 -1.22,1.75 -0.65,3.83 1.75,5.27 3.27,1.97 8.68,2.03 12.08,0.13 3.41,-1.9 3.52,-5.03 0.26,-7z"/>
   <path class="fil7" d="M17.51 9.66l-4.68 0.99 4.68 -0.99c2.47,1.49 2.39,3.86 -0.19,5.29 -2.58,1.44 -6.67,1.4 -9.15,-0.09 -2.47,-1.49 -2.39,-3.86 0.19,-5.29 2.58,-1.44 6.67,-1.4 9.15,0.09z"/>
   <path class="fil8" d="M19.35 52.64c-0.24,0.11 -2.43,1.03 -4.95,0.85l0.21 -0.19 0.14 -0.03c0.27,-0.05 0.63,-0.11 0.91,-0.16 0.02,0 2.44,-0.48 3.4,-0.73 0.75,-0.2 0.75,-0.2 0.97,-0.09 -0.2,0.1 -0.47,0.26 -0.68,0.35z"/>
   <path class="fil0" d="M9.15 53.54c-0.67,-0.12 -1.33,-0.27 -1.96,-0.45 -1.31,-0.38 -2.52,-0.88 -3.59,-1.52 -0.19,-0.12 -0.36,-0.23 -0.54,-0.35 -0.42,-0.28 -0.79,-0.58 -1.12,-0.89l0 1.74c0.33,0.31 0.71,0.61 1.13,0.9 0.17,0.11 0.35,0.23 0.54,0.34 1.06,0.64 2.28,1.15 3.58,1.52 0.64,0.18 1.29,0.33 1.96,0.45l0 -1.74z"/>
   <path class="fil2" d="M2.44 46.78l3.12 -5.37c0.22,0.21 0.47,0.41 0.75,0.61l-2.8 5.62c-0.4,-0.27 -0.75,-0.56 -1.07,-0.86z"/>
   <path class="fil2" d="M3.51 47.64l2.8 -5.62c0.13,0.09 0.27,0.17 0.41,0.26 0.58,0.35 1.24,0.64 1.94,0.87l-1.8 6.11c-1,-0.33 -1.93,-0.74 -2.77,-1.25 -0.2,-0.12 -0.39,-0.24 -0.58,-0.37z"/>
   <path class="fil2" d="M6.86 49.26l1.8 -6.11c0.5,0.17 1.01,0.3 1.54,0.4l-1.14 6.28c-0.76,-0.15 -1.49,-0.34 -2.2,-0.57z"/>
   <path class="fil2" d="M6.72 42.28c-0.54,-0.32 -0.99,-0.68 -1.34,-1.05l0.02 0.02c0.13,0.1 1.31,-0.09 1.33,-0.22 0.02,-0.07 0.02,-0.07 -0.69,-1.16 0.21,0.17 0.45,0.33 0.7,0.48 0.63,0.38 1.34,0.69 2.1,0.93 -0.53,0.22 -0.72,0.31 -0.5,0.61 0.6,0.8 1.55,1.28 2.06,1.49 0.57,0.23 1.08,0.33 1.41,0.37l0.13 0.02c-1.92,-0.12 -3.78,-0.62 -5.22,-1.49z"/>
   <path class="fil4" d="M5.42 37.12c0.12,-0.42 2.46,-8.44 2.44,-18.02 0,0.71 0.46,1.43 1.39,1.99 1.91,1.16 5.08,1.19 7.07,0.08 1.03,-0.58 1.55,-1.34 1.54,-2.1 0.03,9.58 2.41,17.58 2.54,18 0,1.15 -0.77,2.29 -2.3,3.15 -2.99,1.66 -7.73,1.61 -10.59,-0.11 -1.39,-0.84 -2.09,-1.92 -2.09,-2.99z"/>
   <path class="fil5" d="M13.16 41.43c0,0 0.37,-8.99 0.56,-12.05 0.2,-3.06 1.42,-7.83 1.96,-4.11 0.53,3.71 1.7,12.65 2.42,14.95 0.05,0.03 -2.21,1.21 -4.94,1.21z"/>
   <path class="fil2" d="M11.37 23.05c-0.26,10.93 -0.98,17.74 -1.01,18.02l0 0.11c-1.05,-0.22 -2.03,-0.57 -2.85,-1.07 -0.24,-0.15 -0.46,-0.3 -0.66,-0.46 0.02,-0.07 1.85,-8.4 1.75,-19.04 0.18,0.17 0.4,0.34 0.65,0.48 0.61,0.37 1.35,0.63 2.14,0.77 -0.01,0.35 -0.02,0.83 -0.02,1.19z"/>
   <path class="fil2" d="M6.42 21.64c-0.21,-0.13 -0.48,-0.3 -0.67,-0.45 -0.13,-0.1 -0.31,-0.24 -0.44,-0.35 -0.14,-0.12 -0.32,-0.28 -0.44,-0.42 -0.37,-0.43 -0.48,-0.55 -0.68,-0.88 -0.31,-0.5 -0.44,-0.92 -0.45,-0.97 -0.11,-0.34 -0.3,-0.98 -0.17,-1.94 0.11,-0.86 0.46,-1.62 0.69,-2.12 -0.45,0.94 -0.44,1.95 0.04,2.88 0.4,0.76 1.1,1.48 2.11,2.09 3.42,2.05 9.06,2.11 12.62,0.13 1.15,-0.65 1.95,-1.43 2.37,-2.27 0.48,-0.93 0.49,-1.93 0.03,-2.87 0.2,0.42 0.33,0.7 0.46,1.09 0.07,0.2 0.18,0.52 0.25,1 0.13,0.92 -0.06,1.62 -0.14,1.88 -0.1,0.32 -0.19,0.56 -0.43,0.99 -0.15,0.26 -0.39,0.58 -0.59,0.8 -0.12,0.14 -0.39,0.44 -0.86,0.82 -0.36,0.28 -0.52,0.38 -1.06,0.7 0,0 -0.46,0.27 -1.19,0.57 -0.53,0.22 -1.02,0.36 -1.25,0.43 -0.95,0.27 -2,0.41 -2.62,0.45 -0.19,0.01 -0.46,0.04 -0.66,0.04 -0.2,0 -0.46,0.01 -0.66,0.01 -0.2,-0.01 -0.47,-0.02 -0.67,-0.03 -0.37,-0.01 -0.66,-0.04 -1.31,-0.13 -0.05,0 -1.25,-0.16 -2.53,-0.62 -0.93,-0.34 -1.54,-0.7 -1.75,-0.83z"/>
   <path class="fil2" d="M4.3 17.39c-0.48,-0.93 -0.49,-1.94 -0.04,-2.88 0.56,-1.17 2.07,-0.36 2.72,-0.56l-0.11 0.27c-0.25,0.77 0,1.38 0.17,1.68 -0.63,0.45 -2.16,0.11 -2.74,1.49z"/>
   <path class="fil2" d="M4.26 14.51c0.11,-0.2 0.27,-0.48 0.4,-0.68l0.31 -0.41c0.12,-0.13 0.28,-0.31 0.4,-0.44l0.41 -0.36 0.18 -0.14 0.46 -0.33c0.16,-0.1 0.36,-0.23 0.53,-0.32l0.54 -0.28c0.17,-0.08 0.39,-0.18 0.57,-0.25l0.58 -0.21c0.18,-0.06 0.42,-0.14 0.6,-0.19l0.61 -0.15c0.19,-0.04 0.43,-0.09 0.62,-0.12l0.63 -0.1c0.19,-0.02 0.45,-0.05 0.64,-0.06l0.64 -0.04c0.19,0 0.45,-0.01 0.64,-0.01l0.64 0.02c0.19,0.02 0.45,0.03 0.64,0.05l0.63 0.08c0.19,0.03 0.44,0.07 0.63,0.11l0.61 0.13c0.18,0.05 0.42,0.11 0.6,0.17l0.59 0.19c0.17,0.07 0.4,0.16 0.57,0.23l0.55 0.26c0.16,0.09 0.38,0.2 0.54,0.3 -0.57,-0.34 -1.52,0.66 -1.88,0.45l-0.34 -0.19 -0.37 -0.17 -0.38 -0.16c-0.12,-0.04 -0.28,-0.09 -0.4,-0.13l-0.43 -0.11c-0.13,-0.03 -0.3,-0.08 -0.43,-0.1l-0.44 -0.08c-0.14,-0.01 -0.32,-0.04 -0.46,-0.05l-0.46 -0.04c-0.13,0 -0.32,-0.01 -0.46,-0.01l-0.46 0c-0.14,0.01 -0.32,0.02 -0.46,0.03l-0.46 0.05 -0.35 0.04 -0.06 0.02c-0.84,0.15 -3.37,0.63 -4.34,2.47 -0.72,0.07 -2.06,-0.56 -2.58,0.53z"/>
   <path class="fil2" d="M21.4 17.34c-0.42,0.84 -1.22,1.62 -2.37,2.27 -3.56,1.98 -9.2,1.92 -12.62,-0.13 -1.01,-0.61 -1.71,-1.33 -2.11,-2.09 0.58,-1.38 2.11,-1.04 2.74,-1.49l0.12 0.18c0.84,0.97 1.47,0.88 1.47,0.88 0.15,-0.13 -1.21,-2.63 -1.22,-2.66 0.22,0.2 0.47,0.39 0.76,0.56 0.82,0.49 1.82,0.83 2.87,1 -0.02,0.12 -0.06,0.28 -0.09,0.4 -0.13,0.46 -0.28,0.75 -0.71,1l-0.28 0.24c-0.16,1.03 4.73,1.78 7.52,-0.14 0.92,-0.64 1.14,-1.24 1.23,-1.46l0.18 0.08c0.58,0.18 1.2,0.2 1.74,0.49 0.59,0.33 0.77,0.87 0.77,0.87z"/>
   <path class="fil4" d="M4.3 17.39c-0.48,-0.93 -0.49,-1.94 -0.04,-2.88 0.15,-0.31 0.37,-0.48 0.63,-0.57l-0.15 0.36c-0.09,0.28 -0.37,1.14 0.11,2.36 -0.22,0.17 -0.41,0.4 -0.55,0.73z"/>
   <path class="fil9" d="M6.71 20.4c-0.32,0.56 -1.32,0.54 -1.89,-0.03l-0.33 -0.4c-0.09,-0.13 -0.22,-0.29 -0.3,-0.43l-0.23 -0.42c-0.07,-0.16 -0.16,-0.38 -0.22,-0.55l-0.12 -0.44c-0.03,-0.19 -0.07,-0.44 -0.09,-0.64l0 -0.43c0.02,-0.24 0.06,-0.55 0.1,-0.79l0.08 -0.35c0.17,-0.55 0.23,-0.72 0.55,-1.41 -0.45,0.94 -0.44,1.95 0.04,2.88 0.4,0.76 1.1,1.48 2.11,2.09 0.12,0.07 0.24,0.14 0.37,0.21l0.03 0.34c0.02,0.15 -0.1,0.37 -0.1,0.37z"/>
   <path class="fil9" d="M22.01 16.34c0.2,0.6 0.18,0.99 0.14,1.42l-0.08 0.44 -0.07 0.24 -0.16 0.44c-0.08,0.17 -0.18,0.39 -0.27,0.55l-0.27 0.41c-0.12,0.14 -0.26,0.33 -0.39,0.47l-0.37 0.38c-0.14,0.12 -0.33,0.29 -0.48,0.4l-0.48 0.34 -0.02 0.02 -0.07 0.04c-4.99,2.97 -11.89,1.55 -11.61,-0.87 0.01,-0.12 0.08,-0.27 0.12,-0.38 3.4,1.27 7.98,1.07 11.03,-0.63 1.15,-0.65 1.95,-1.43 2.37,-2.27 0.26,-0.51 0.39,-1.04 0.37,-1.57l0.11 0.24 0.13 0.33z"/>
   <path class="fil4" d="M6.41 19.48c-1.01,-0.61 -1.71,-1.33 -2.11,-2.09 0.14,-0.33 0.33,-0.56 0.55,-0.73l0.13 0.28c0.23,0.48 0.23,0.48 0.39,0.72 0.07,0.12 0.18,0.28 0.26,0.39 0.21,0.31 0.48,0.58 0.7,0.89 0.15,0.21 0.28,0.54 0.45,0.75 -0.13,-0.07 -0.25,-0.14 -0.37,-0.21z"/>
   <path class="fil4" d="M21.4 17.34c-0.42,0.84 -1.22,1.62 -2.37,2.27 -3.05,1.7 -7.63,1.9 -11.03,0.63l0.38 -0.21c0,0 0.56,-0.25 1.27,-0.22 2.65,0.08 8.15,0.26 11.06,-3.29 0.28,0.17 0.53,0.43 0.69,0.82z"/>
   <path class="fil10" d="M15.92 17.55c-0.98,0.53 -1.86,0.52 -2.43,0.42 0.28,-0.14 1.72,-0.66 2.69,-0.59l-0.26 0.17z"/>
   <path class="fil4" d="M8.63 15.32c-0.54,-0.34 -2.18,-1.36 -3.23,-3.6 -0.13,-0.29 -0.3,-0.68 -0.38,-0.98 -0.08,-0.29 -0.18,-0.68 -0.24,-0.97 -0.04,-0.19 -0.07,-0.46 -0.09,-0.65 -0.07,-0.47 -0.07,-1.39 0.05,-2.15 0.05,-0.34 0.2,-1.22 0.71,-2.29 0.5,-1.05 1.14,-1.77 1.32,-1.97 0.3,-0.32 0.92,-0.98 1.95,-1.58 0.76,-0.43 1.53,-0.74 2.36,-0.93 1.44,-0.32 2.67,-0.17 3,-0.11 0.33,0.05 0.49,0.08 0.78,0.15 0.2,0.05 0.43,0.11 0.84,0.26 0.3,0.11 0.79,0.3 1.44,0.69 -1.08,-0.66 -1.08,-0.66 0,0 0.28,0.17 0.64,0.41 0.9,0.62 0.24,0.2 0.54,0.44 0.93,0.86 0.78,0.85 1.2,1.66 1.34,1.97 0.13,0.29 0.31,0.68 0.4,0.98 0.25,0.86 0.25,0.86 0.36,1.61 0.08,0.54 0.1,1.46 -0.03,2.31 -0.06,0.33 -0.2,1.21 -0.71,2.29 -0.51,1.05 -1.14,1.76 -1.33,1.96 -0.29,0.32 -0.92,0.98 -1.94,1.58 -0.76,0.44 -1.53,0.74 -2.37,0.93 -1.43,0.32 -2.66,0.17 -3,0.11 -0.32,-0.05 -0.48,-0.08 -0.78,-0.15 -0.2,-0.05 -0.42,-0.11 -0.83,-0.25 -0.75,-0.27 -1.34,-0.63 -1.45,-0.69z"/>
   <path class="fil2" d="M20.01 12.43c-0.39,0.6 -0.48,0.75 -1.01,1.36l-0.4 0.41c-0.19,0.18 -0.45,0.41 -0.66,0.57l-0.44 0.32c-0.17,0.11 -0.41,0.26 -0.59,0.36l-0.44 0.23c-0.16,0.07 -0.36,0.17 -0.52,0.23l-0.42 0.15c-0.13,0.05 -0.31,0.1 -0.44,0.14l-0.4 0.1c-0.12,0.02 -0.28,0.06 -0.4,0.08l-0.37 0.05 -0.38 0.04 -0.37 0.02 -0.36 0.01 -0.37 -0.01 -0.37 -0.03 -0.38 -0.05 -0.38 -0.06 -0.4 -0.09c-0.12,-0.03 -0.29,-0.08 -0.41,-0.11l-0.42 -0.14c-0.14,-0.06 -0.33,-0.13 -0.47,-0.19l-0.44 -0.21c-0.16,-0.08 -0.38,-0.2 -0.54,-0.29l-0.45 -0.3c-0.54,-0.4 -0.64,-0.47 -1.08,-0.89l-0.4 -0.43c-0.22,-0.26 -0.5,-0.62 -0.7,-0.9l-0.32 -0.53c-0.14,-0.27 -0.32,-0.65 -0.44,-0.93l-0.22 -0.6c-0.08,-0.29 -0.18,-0.68 -0.24,-0.97l-0.09 -0.65c-0.02,-0.25 -0.05,-0.59 -0.05,-0.84l0.02 -0.66c0.1,-0.77 0.11,-0.96 0.33,-1.76l0.21 -0.61c0.33,-0.76 0.34,-0.77 0.57,-1.17l0.33 -0.52c0.19,-0.26 0.46,-0.6 0.67,-0.85l0.4 -0.41c0.2,-0.17 0.46,-0.41 0.67,-0.57l0.43 -0.31c0.18,-0.12 0.42,-0.27 0.6,-0.37l0.44 -0.23c0.16,-0.07 0.36,-0.16 0.52,-0.23l0.41 -0.15c0.14,-0.04 0.31,-0.1 0.45,-0.14l0.39 -0.1c0.12,-0.02 0.28,-0.06 0.4,-0.08l0.27 -0.04 -0.21 0.03c-6.36,1.27 -6.85,9.68 -0.79,13.65 3.44,2.26 8.57,1.42 10.01,-3.04l-0.21 0.6c-0.15,0.34 -0.36,0.79 -0.54,1.11z"/>
   <path class="fil5" d="M16.93 6.34c0.22,1.61 -1.38,2.96 -3.06,1.99 -0.69,-0.39 -1.09,-1.25 -1.08,-1.82 0.04,-1.1 0.8,-1.72 1.2,-1.89 0.95,-0.42 2.73,0.26 2.94,1.72z"/>
   <path class="fil5" d="M16.81 20.83l-0.11 -0.28 -0.26 -0.02c-0.34,0.04 -0.79,0.14 -1.13,0.21 -0.13,0.02 -0.27,0.12 -0.38,0.17l-0.08 0.38c0,0 0.37,0.3 0.54,0.3l1.16 -0.32c0.12,-0.09 0.27,-0.25 0.28,-0.39l-0.02 -0.05z"/>
  </g>
 </g>
</svg>
