<?xml version="1.0" encoding="UTF-8"?>
<!DOCTYPE svg PUBLIC "-//W3C//DTD SVG 1.0//EN" "http://www.w3.org/TR/2001/REC-SVG-20010904/DTD/svg10.dtd">
<!-- Creator: CorelDRAW 2018 (64 Bit Versão de avaliação) -->
<svg xmlns="http://www.w3.org/2000/svg" xml:space="preserve" width="30px" height="64px" version="1.0" style="shape-rendering:geometricPrecision; text-rendering:geometricPrecision; image-rendering:optimizeQuality; fill-rule:evenodd; clip-rule:evenodd"
viewBox="0 0 30 64.46"
 xmlns:xlink="http://www.w3.org/1999/xlink">
 <defs>
  <style type="text/css">
   <![CDATA[
    .fil2 {fill:#4B4B4D;fill-rule:nonzero}
    .fil1 {fill:#4A4A4B;fill-rule:nonzero}
    .fil3 {fill:#5C5E60;fill-rule:nonzero}
    .fil6 {fill:#323436;fill-rule:nonzero}
    .fil0 {fill:#2F3132;fill-rule:nonzero}
    .fil7 {fill:#2D3031;fill-rule:nonzero}
    .fil5 {fill:#2C2D2F;fill-rule:nonzero}
    .fil8 {fill:#2B2C2E;fill-rule:nonzero}
    .fil4 {fill:#292A2C;fill-rule:nonzero}
   ]]>
  </style>
 </defs>
 <g id="Camada_x0020_1">
  <metadata id="CorelCorpID_0Corel-Layer"/>
  <g id="_1659208600512">
   <path class="fil0" d="M29.93 52.85c-0.03,-0.2 -0.08,-0.43 -0.13,-0.64l-0.01 -0.04 -0.02 -0.04 -0.02 -0.1 -0.04 -0.1c-0.07,-0.2 -0.14,-0.4 -0.2,-0.57l-0.26 -0.53 0.02 -0.13c0.04,-0.73 -0.03,-1.16 -0.13,-1.65 -0.04,-0.17 -0.1,-0.39 -0.16,-0.55 -0.09,-0.24 -0.21,-0.55 -0.32,-0.78l0.15 0.4c-0.31,-0.79 -0.79,-1.56 -1.51,-2.28 -0.65,-0.66 -1.3,-1.32 -1.96,-1.97l0 0.07c0,-0.21 0,-0.42 -0.03,-0.66 -0.11,-1 -0.54,-1.77 -0.67,-1.99 -0.33,-0.55 -0.48,-0.71 -0.83,-1.11 -0.13,-0.14 -0.28,-0.29 -0.45,-0.43l-0.05 -0.05 -0.34 -0.29 0.19 0.18c-0.14,-0.12 -0.31,-0.23 -0.46,-0.34 -0.7,-3.11 -1.57,-7.91 -1.88,-13.41l0.12 -0.06 0.34 -0.14 0.12 -0.06 0.31 -0.15 0.08 -0.04 0.19 -0.1 0.12 -0.07c0.19,-0.11 0.33,-0.2 0.45,-0.28l0.05 -0.02 0.07 -0.05 0.03 -0.02 0.03 -0.02c0.19,-0.12 0.31,-0.21 0.52,-0.37l0 0 0.02 -0.02 0.05 -0.04 0.12 -0.1 0.37 -0.31 0.05 -0.05 0.09 -0.09 0.15 -0.15 0.14 -0.15 0.03 -0.04 0.05 -0.05c0.12,-0.13 0.24,-0.29 0.37,-0.45l0 -0.01 0.24 -0.37 0.05 -0.08 0.02 -0.03c0.15,-0.25 0.24,-0.45 0.32,-0.62l0 -0.01 0.11 -0.3 0.03 -0.06 0.02 -0.08 0.02 -0.06c0.06,-0.17 0.14,-0.51 0.18,-0.94l0.02 -0.08 0 -0.17c0.01,-0.13 0.01,-0.26 0,-0.4 0,-0.19 -0.01,-0.35 -0.03,-0.49l-0.01 -0.11 0 -0.03 -0.01 -0.04 -0.06 -0.26c-0.07,-0.36 -0.15,-0.65 -0.21,-0.84l-0.04 -0.08 -0.02 -0.08c-0.04,-0.13 -0.11,-0.28 -0.17,-0.43l-0.03 -0.07c-0.11,-0.25 -0.22,-0.49 -0.28,-0.6 -0.35,-0.73 -0.98,-1.44 -1.84,-2.07l0.14 -0.22 0.05 -0.07 0.19 -0.36 0.18 -0.34 0.12 -0.29 0.14 -0.29 0.06 -0.19 0.11 -0.3 0.07 -0.21 -0.02 0.06c0.21,-0.66 0.31,-1.19 0.35,-1.43 0.16,-0.98 0.13,-2.05 0.04,-2.67 -0.13,-0.88 -0.13,-0.88 -0.43,-1.87 -0.1,-0.36 -0.3,-0.8 -0.46,-1.14 -0.17,-0.35 -0.65,-1.29 -1.55,-2.28 -0.45,-0.5 -0.8,-0.78 -1.08,-1 -0.29,-0.24 -0.72,-0.52 -1.04,-0.73 -0.76,-0.45 -1.32,-0.67 -1.68,-0.8 -0.47,-0.16 -0.73,-0.23 -0.96,-0.29 -0.34,-0.08 -0.53,-0.11 -0.9,-0.18 -0.37,-0.05 -1.61,-0.19 -3.11,0.08l0.15 -0.05 -0.06 0.01c-0.14,0.03 -0.33,0.07 -0.47,0.09l-0.45 0.12c-0.16,0.04 -0.36,0.11 -0.52,0.16l-0.39 0.14 -0.06 0.03 -0.03 0.01c-0.18,0.07 -0.42,0.18 -0.6,0.26l-0.51 0.26 -0.11 0.07 -0.06 0.03 -0.19 0.13 -0.33 0.2 -0.19 0.14 -0.19 0.14 -0.13 0.09 -0.22 0.18c-0.14,0.12 -0.27,0.23 -0.38,0.34l-0.17 0.14 -0.09 0.09c-0.15,0.15 -0.28,0.28 -0.37,0.38 -0.12,0.13 -0.4,0.45 -0.72,0.91l-0.06 0.08 -0.18 0.28 -0.15 0.23 -0.05 0.09c-0.16,0.27 -0.24,0.41 -0.35,0.64l-0.02 0.05 -0.05 0.12c-0.07,0.14 -0.14,0.31 -0.24,0.55l-0.05 0.13 -0.1 0.3 -0.09 0.27 -0.04 0.13c-0.15,0.53 -0.22,0.94 -0.26,1.15 -0.04,0.23 -0.06,0.47 -0.08,0.71l-0.01 0.05 -0.01 0.3 -0.01 0.39 0 0.08 0 0.12c0,0.33 0.02,0.64 0.05,0.85 0.03,0.23 0.06,0.53 0.11,0.75 0.07,0.34 0.18,0.79 0.28,1.13 0.06,0.21 0.15,0.45 0.24,0.69l0.01 0 0 0.02c0.07,0.15 0.13,0.3 0.19,0.43l0.13 0.25 0.19 0.39 0.12 0.18 0.08 0.15 -0.08 0.07 -0.47 0.42c-0.15,0.15 -0.33,0.35 -0.47,0.51l-0.37 0.48c-0.15,0.23 -0.32,0.55 -0.46,0.79l-0.13 0.29 -0.09 0.21 -0.05 0.11c-0.06,0.14 -0.11,0.26 -0.15,0.38l-0.06 0.16 -0.01 0.05 -0.03 0.08 -0.03 0.08 -0.08 0.26 -0.01 0.06 -0.03 0.11 -0.06 0.25 0 0.02c-0.03,0.15 -0.05,0.23 -0.06,0.33l-0.01 0.06 0 0.03 -0.01 0.06 -0.03 0.35 0 0.06 0 0.1 0 0.35 0 0.05 0.01 0.03 0.02 0.29 0.02 0.12 0.01 0.08 0.03 0.13 0.01 0.09 0.03 0.09 0.01 0.08 0.07 0.24 0.03 0.1 0.04 0.13c0.08,0.22 0.15,0.37 0.15,0.37l0.04 0.08 0 0 0.03 0.06 0.02 0.04 0.13 0.23 0.08 0.14 0.04 0.08c0.12,0.19 0.21,0.32 0.32,0.47l0 0 0.01 0.01 0.01 0.02 0.03 0.03 0.31 0.36 0.05 0.06 0 0.01 0.05 0.05c0.14,0.16 0.35,0.35 0.51,0.49l0.37 0.3 0.08 0.06c0.1,0.09 0.31,0.24 0.63,0.44l0.2 0.13c0.14,0.08 0.39,0.23 0.75,0.41 0.1,0.05 0.26,0.12 0.45,0.21l0.17 0.07 0.21 0.09c-0.27,5.51 -1.12,10.31 -1.8,13.42l-0.37 0.26 0.1 -0.1 -0.15 0.13 -0.09 0.08c-0.17,0.15 -0.34,0.31 -0.48,0.44l-0.36 0.41c-0.26,0.29 -0.49,0.69 -0.59,0.86 -0.13,0.21 -0.55,0.97 -0.65,1.98 -0.02,0.18 0,0.36 0,0.54l-0.14 0.15 -0.37 0.37 -0.18 0.19 -0.37 0.37 -0.37 0.37 -0.18 0.19 -0.37 0.37c-0.69,0.71 -1.16,1.46 -1.47,2.24l0.12 -0.35c-0.07,0.16 -0.14,0.36 -0.22,0.54l-0.01 0.04 -0.08 0.2c-0.05,0.16 -0.1,0.37 -0.14,0.53 -0.13,0.52 -0.14,0.95 -0.15,1.26 -0.01,0.15 0,0.35 0.01,0.5l0.01 0.09c-0.16,0.35 -0.34,0.75 -0.45,1.09 -0.11,0.31 -0.18,0.74 -0.23,1.07 -0.02,0.2 -0.02,0.48 -0.03,0.69l0 2.02c0.01,1.58 0.76,3.15 2.25,4.55l0 0 0.04 0.04c0.34,0.31 0.73,0.62 1.14,0.91l0.12 0.09c0.2,0.14 0.41,0.27 0.63,0.4 0.67,0.41 1.4,0.76 2.17,1.07 0.25,0.1 0.51,0.18 0.77,0.27 0.4,0.14 0.79,0.3 1.22,0.42 0.13,0.04 0.28,0.06 0.42,0.1 0.3,0.08 0.61,0.14 0.92,0.21 0.31,0.07 0.61,0.16 0.93,0.21l0 -0.04c5.03,0.88 10.71,0.24 14.77,-2.02 3.08,-1.72 4.62,-4.01 4.62,-6.3l-0.01 -2.02c0,-0.26 -0.03,-0.61 -0.06,-0.86z"/>
   <path class="fil0" d="M4.88 46.94c1.1,-0.6 2.48,-1.27 4.95,-1.84 1.63,-0.37 3.62,-0.58 5.46,-0.56 2.63,0.03 4.66,0.48 5.41,0.67 0.31,0.08 0.73,0.19 1.04,0.28 0.3,0.1 0.69,0.23 0.99,0.33 0.29,0.1 0.67,0.27 0.96,0.38 0,0.01 0.86,0.35 1.86,0.96 -0.64,-0.39 -2.26,0.47 -2.37,0.52 -4.34,-2.61 -11.52,-2.68 -16.05,-0.16 -4.53,2.53 -4.67,6.69 -0.33,9.3 4.34,2.62 11.53,2.69 16.05,0.17 4.53,-2.53 4.68,-6.69 0.33,-9.31 0.11,-0.05 1.73,-0.91 2.37,-0.52 0.24,0.15 0.57,0.35 0.8,0.52 0.38,0.28 0.88,0.68 1.23,1 0.27,0.23 0.86,0.88 1.14,1.28 0.15,0.22 0.35,0.51 0.47,0.75 0.19,0.38 0.42,0.91 0.56,1.32 0.08,0.24 0.14,0.57 0.18,0.82 0.03,0.25 0.06,0.6 0.06,0.86 0.01,2.29 -1.54,4.58 -4.61,6.29 -5.98,3.33 -15.47,3.24 -21.21,-0.21 -2.78,-1.68 -4.17,-3.84 -4.17,-5.99 0.01,-0.21 0.01,-0.49 0.03,-0.69 0.05,-0.33 0.12,-0.76 0.23,-1.07 0.13,-0.41 0.37,-0.94 0.56,-1.33 0.13,-0.24 0.34,-0.54 0.49,-0.76 0.16,-0.22 0.39,-0.51 0.58,-0.71 0.36,-0.36 0.86,-0.82 1.25,-1.16 0.01,0 0.89,-0.69 1.74,-1.14z"/>
   <path class="fil1" d="M25.55 47.16c0.43,0.26 0.97,0.65 1.38,0.95l0.65 0.57c0.2,0.2 0.47,0.46 0.65,0.67l0.49 0.61c0.14,0.23 0.34,0.52 0.47,0.75l0.32 0.65c0.08,0.24 0.21,0.56 0.28,0.81l0.14 0.68c0.02,0.26 0.06,0.6 0.06,0.86 0,0.57 -0.09,1.15 -0.29,1.71 0.12,-0.61 0.09,-0.74 0.06,-0.76 -0.19,-0.14 -0.45,0.33 -0.61,0.51 -2.01,2.38 -4.82,4.06 -8.35,5 -3.78,1 -6.68,1.06 -10.04,1.13 -0.43,0 -0.75,0.09 -0.75,0.09l-0.17 0.16c0,0.12 0.13,0.19 0.76,0.52 -2.37,-0.42 -4.59,-1.18 -6.43,-2.28 -0.74,-0.45 -1.39,-0.94 -1.94,-1.44l0.12 0.06c0.16,0.07 0.5,0.28 0.57,0.12 0.09,-0.22 -0.27,-0.48 -0.42,-0.66 -4.56,-5.83 -0.09,-9.45 2.04,-10.74 0.37,-0.21 0.86,-0.46 1.24,-0.66 0.29,-0.13 0.69,-0.31 0.99,-0.43l0.98 -0.36c0.31,-0.1 0.72,-0.23 1.04,-0.32l1.04 -0.26c0.32,-0.06 0.75,-0.15 1.08,-0.21l1.08 -0.16c0.33,-0.03 0.76,-0.09 1.09,-0.11l1.11 -0.07c0.33,0 0.77,-0.01 1.1,-0.01l1.1 0.04c0.33,0.02 0.77,0.05 1.1,0.08l1.08 0.14c0.33,0.05 0.76,0.12 1.08,0.18l1.05 0.23c0.31,0.09 0.73,0.19 1.04,0.28l0.99 0.33c0.3,0.12 0.7,0.27 0.99,0.4l0.91 0.43c0.28,0.15 0.65,0.34 0.92,0.51 -0.64,-0.39 -2.26,0.47 -2.37,0.52 -4.34,-2.61 -11.52,-2.68 -16.05,-0.16 -4.53,2.53 -4.67,6.69 -0.33,9.3 4.34,2.62 11.53,2.69 16.05,0.17 4.53,-2.53 4.68,-6.69 0.33,-9.31 0.11,-0.05 1.73,-0.91 2.37,-0.52z"/>
   <path class="fil2" d="M25.65 19.13c-0.06,-0.46 -0.23,-0.96 -0.33,-1.26 -0.13,-0.37 -0.39,-0.92 -0.48,-1.1 -0.44,-0.91 -1.27,-1.78 -2.48,-2.51 -3.96,-2.38 -10.5,-2.44 -14.63,-0.15 -1.38,0.78 -2.31,1.72 -2.8,2.72 -0.12,0.25 -0.37,0.79 -0.52,1.28 -0.22,0.67 -0.28,1.08 -0.29,1.26 -0.04,0.54 -0.07,0.81 0.03,1.43 0.1,0.66 0.37,1.23 0.37,1.23 0.13,0.26 0.37,0.75 0.66,1.1 0.14,0.16 0.31,0.39 0.46,0.54 0.28,0.27 0.66,0.61 0.96,0.85 0.17,0.15 0.6,0.46 1.46,0.92 0.06,0.03 0.6,0.31 1.38,0.6 1.47,0.54 2.81,0.71 2.95,0.73 0.71,0.09 1.1,0.14 1.53,0.16 1.12,0.03 1.23,0.04 2.31,-0.03 0.56,-0.04 1.83,-0.19 3.02,-0.52 0.26,-0.08 0.81,-0.23 1.44,-0.49 0.83,-0.33 1.35,-0.64 1.35,-0.64 0.79,-0.47 0.83,-0.5 1.21,-0.79 0.54,-0.42 0.86,-0.77 0.99,-0.91 0.56,-0.61 0.98,-1.31 1.22,-2.02 0.05,-0.18 0.2,-0.64 0.24,-1.16 0.04,-0.54 -0.01,-0.93 -0.05,-1.24z"/>
   <path class="fil0" d="M24.93 44.99l0 0.07 0 -0.07zm0 -0.11l0 0.07 0 -0.07zm-0.01 -0.13l0 0.08 0 -0.08zm-0.01 -0.14l0.01 0.11 -0.01 -0.11zm-0.02 -0.12l0.01 0.09 -0.01 -0.09zm-0.02 -0.11l0.01 0.07 -0.01 -0.07zm-0.02 -0.11l0.01 0.06 -0.01 -0.06zm-0.03 -0.12l0.02 0.07 -0.02 -0.07zm-0.03 -0.11l0.02 0.06 -0.02 -0.06zm-0.03 -0.11l0.02 0.06 -0.02 -0.06zm-0.04 -0.11l0.02 0.06 -0.02 -0.06zm-0.73 3.62l0.01 0 0.05 -0.07 -0.06 0.07zm3.31 -1.6c-0.65,-0.66 -1.3,-1.32 -1.96,-1.97 0,0.55 -0.09,1.09 -0.27,1.64 -0.32,0.93 -0.8,1.59 -1.07,1.93l-0.01 0.01 -0.03 0.03 -0.09 0.1 0.03 -0.03c-0.5,0.59 -1.18,1.13 -2.04,1.61 -3.96,2.21 -10.27,2.15 -14.08,-0.14 -2.36,-1.42 -3.2,-3.37 -2.56,-5.17 -0.05,-0.15 -0.09,-0.3 -0.11,-0.45l-0.08 0.08 -0.18 0.18 -0.37 0.38 -0.37 0.37 -0.18 0.19 -0.37 0.37 -0.37 0.37 -0.18 0.19 -0.37 0.37c-3.03,3.09 -2.36,7.08 2.1,9.77 5.43,3.27 14.41,3.36 20.08,0.2 4.8,-2.68 5.66,-6.84 2.48,-10.03zm-2.38 -0.67l0.01 -0.06 -0.01 0.06zm0 0.12l0 -0.07 0 0.07zm-0.02 0.11l0.01 -0.06 -0.01 0.06zm-0.01 0.11l0.01 -0.06 -0.01 0.06zm-0.02 0.12l0.01 -0.07 -0.01 0.07zm-0.03 0.11l0.02 -0.06 -0.02 0.06zm-0.02 0.12l0.01 -0.07 -0.01 0.07zm-0.04 0.12l0.03 -0.08 -0.03 0.08zm-0.04 0.14l0.03 -0.11 -0.03 0.11zm-0.04 0.12l0.04 -0.11 -0.04 0.11zm-0.05 0.11l0.03 -0.08 -0.03 0.08zm-0.05 0.11l0.03 -0.07 -0.03 0.07zm-0.05 0.11l0.03 -0.07 -0.03 0.07zm-0.05 0.11l0.03 -0.06 -0.03 0.06zm-0.06 0.11l0.03 -0.06 -0.03 0.06zm-0.07 0.11l0.04 -0.06 -0.04 0.06zm-0.06 0.11l0.03 -0.06 -0.03 0.06zm-0.08 0.11l0.04 -0.07 -0.04 0.07zm-0.07 0.1l0.04 -0.06 -0.04 0.06zm-0.08 0.11l0.05 -0.06 -0.05 0.06z"/>
   <path class="fil3" d="M20.4 49.84c-0.27,0.1 -0.55,0.2 -0.83,0.28 -0.77,0.23 -1.57,0.41 -2.4,0.51l0.95 7.34c1.18,-0.15 2.33,-0.4 3.42,-0.73 0.4,-0.12 0.79,-0.25 1.18,-0.4l-2.32 -7z"/>
   <path class="fil4" d="M0 55.82l0 -2.02c0,2.15 1.39,4.31 4.17,5.99 5.74,3.45 15.23,3.54 21.21,0.21 3.07,-1.71 4.62,-4 4.61,-6.29l0.01 2.02c0,2.29 -1.54,4.58 -4.62,6.3 -5.97,3.33 -15.47,3.23 -21.2,-0.22 -2.78,-1.67 -4.17,-3.83 -4.18,-5.99z"/>
   <path class="fil4" d="M4.98 56.85c-0.36,-0.23 -0.85,-0.55 -1.19,-0.82 -0.53,-0.41 -0.92,-0.79 -1.01,-0.9l-0.39 -0.41c-0.16,-0.2 -0.38,-0.47 -0.53,-0.69 -0.2,-0.31 -0.46,-0.69 -0.74,-1.38 0,0 -0.22,-0.56 -0.31,-1.04 -0.04,-0.22 -0.08,-0.53 -0.11,-0.75 -0.01,-0.15 -0.02,-0.35 -0.01,-0.5 0.01,-0.31 0.02,-0.74 0.15,-1.26 0.04,-0.16 0.09,-0.37 0.14,-0.53 0.08,-0.23 0.21,-0.55 0.31,-0.78 -1.28,2.71 -0.14,5.72 3.45,7.88 5.43,3.27 14.41,3.36 20.08,0.2 3.9,-2.18 5.2,-5.33 3.84,-8.16 0.11,0.24 0.23,0.55 0.32,0.79 0.06,0.16 0.12,0.38 0.16,0.55 0.1,0.49 0.17,0.92 0.13,1.65 -0.04,0.93 -0.36,1.96 -0.87,2.82 -0.69,1.18 -1.51,1.94 -2.39,2.61 -0.62,0.47 -1.44,0.92 -1.44,0.93 -0.23,0.12 -0.54,0.29 -0.78,0.4 -0.36,0.17 -0.84,0.38 -1.2,0.52 -4.6,1.78 -10.59,1.78 -15.17,0.05 -0.48,-0.2 -1.12,-0.48 -1.59,-0.71 -0.26,-0.13 -0.6,-0.32 -0.85,-0.47z"/>
   <path class="fil0" d="M6.08 47.63c-0.23,-0.27 -0.83,-0.97 -1.2,-2.06 -0.25,-0.73 -0.34,-1.48 -0.26,-2.22 0.1,-1.01 0.52,-1.77 0.65,-1.98 0.1,-0.17 0.33,-0.57 0.59,-0.86l0.36 -0.41c0.21,-0.2 0.49,-0.46 0.72,-0.65 -2.76,2.21 -2.49,5.31 0.88,7.34 3.78,2.28 10.05,2.34 14,0.14 3.62,-2.02 4.03,-5.24 1.15,-7.52 0.26,0.22 0.61,0.51 0.84,0.77 0.35,0.4 0.5,0.56 0.83,1.11 0.13,0.22 0.56,0.99 0.67,1.99 0.11,1.01 -0.11,1.84 -0.22,2.14 -0.11,0.34 -0.4,1.22 -1.22,2.16 -0.49,0.58 -1.16,1.11 -2.01,1.58 -3.96,2.21 -10.27,2.15 -14.08,-0.14 -0.7,-0.42 -1.27,-0.89 -1.7,-1.39z"/>
   <path class="fil5" d="M22.11 38.82l-0.88 0.69c3.32,2 -7.78,-1.65 -5.32,-1.5l0.14 -0.91c-2.82,-0.18 -5.74,0.35 -7.94,1.57 -1.05,0.59 -1.82,1.27 -2.33,2 -1.42,2.03 -0.75,4.44 2.04,6.12 3.78,2.28 10.05,2.34 14,0.14 3.95,-2.2 4.08,-5.83 0.29,-8.11z"/>
   <path class="fil2" d="M20.29 11.2l-5.41 1.15 5.41 -1.15c2.87,1.72 2.77,4.47 -0.22,6.14 -2.98,1.66 -7.73,1.62 -10.6,-0.11 -2.87,-1.72 -2.77,-4.47 0.22,-6.14 2.99,-1.67 7.74,-1.62 10.6,0.11z"/>
   <path class="fil3" d="M22.43 61.03c-0.28,0.12 -2.82,1.2 -5.75,0.98l0.25 -0.21 0.17 -0.03c0.31,-0.06 0.73,-0.13 1.05,-0.19 0.02,-0.01 2.83,-0.56 3.95,-0.85 0.86,-0.23 0.86,-0.23 1.12,-0.11 -0.24,0.13 -0.55,0.3 -0.79,0.41z"/>
   <path class="fil1" d="M10.6 62.07c-0.77,-0.14 -1.54,-0.31 -2.27,-0.52 -1.51,-0.43 -2.92,-1.02 -4.16,-1.76 -0.22,-0.13 -0.42,-0.27 -0.62,-0.41 -0.49,-0.32 -0.92,-0.67 -1.31,-1.03l0.01 2.02c0.38,0.36 0.82,0.71 1.3,1.04 0.2,0.14 0.41,0.27 0.63,0.4 1.23,0.74 2.64,1.33 4.16,1.76 0.73,0.21 1.49,0.39 2.27,0.52l-0.01 -2.02z"/>
   <path class="fil1" d="M2.83 54.23l3.62 -6.22c0.25,0.25 0.54,0.48 0.87,0.71l-3.25 6.52c-0.46,-0.32 -0.88,-0.66 -1.24,-1.01z"/>
   <path class="fil1" d="M4.07 55.24l3.25 -6.52c0.14,0.1 0.3,0.2 0.46,0.3 0.68,0.41 1.45,0.75 2.26,1.01l-2.09 7.08c-1.16,-0.38 -2.24,-0.86 -3.21,-1.44 -0.24,-0.14 -0.46,-0.29 -0.67,-0.43z"/>
   <path class="fil1" d="M7.95 57.11l2.09 -7.08c0.57,0.19 1.17,0.35 1.79,0.46l-1.33 7.28c-0.88,-0.17 -1.73,-0.39 -2.55,-0.66z"/>
   <path class="fil1" d="M7.78 49.02c-0.62,-0.37 -1.14,-0.79 -1.55,-1.22l0.03 0.02c0.14,0.13 1.52,-0.1 1.54,-0.25 0.02,-0.08 0.02,-0.08 -0.8,-1.34 0.25,0.19 0.52,0.38 0.82,0.56 0.73,0.44 1.55,0.79 2.43,1.07 -0.61,0.26 -0.84,0.35 -0.58,0.71 0.69,0.93 1.79,1.48 2.39,1.72 0.65,0.27 1.24,0.39 1.63,0.44l0.15 0.02c-2.22,-0.15 -4.38,-0.72 -6.06,-1.73z"/>
   <path class="fil0" d="M6.28 43.03c0.14,-0.49 2.85,-9.78 2.82,-20.89 0,0.83 0.54,1.67 1.62,2.32 2.22,1.33 5.89,1.37 8.2,0.08 1.19,-0.66 1.79,-1.55 1.79,-2.43 0.03,11.1 2.79,20.38 2.94,20.87 0,1.33 -0.89,2.65 -2.67,3.65 -3.46,1.93 -8.96,1.87 -12.28,-0.13 -1.62,-0.97 -2.42,-2.22 -2.42,-3.47z"/>
   <path class="fil3" d="M15.25 48.03c0,0 0.43,-10.42 0.66,-13.97 0.22,-3.54 1.64,-9.07 2.26,-4.77 0.62,4.31 1.98,14.68 2.81,17.34 0.06,0.04 -2.56,1.4 -5.73,1.4z"/>
   <path class="fil1" d="M13.17 26.72c-0.29,12.67 -1.13,20.57 -1.17,20.9l0.01 0.12c-1.22,-0.25 -2.35,-0.66 -3.31,-1.24 -0.28,-0.17 -0.53,-0.34 -0.77,-0.52 0.03,-0.09 2.15,-9.75 2.04,-22.08 0.21,0.19 0.46,0.38 0.75,0.56 0.71,0.42 1.57,0.72 2.48,0.88 0,0.41 -0.02,0.96 -0.03,1.38z"/>
   <path class="fil2" d="M7.43 25.09c-0.23,-0.15 -0.55,-0.34 -0.77,-0.52 -0.15,-0.12 -0.36,-0.28 -0.51,-0.41 -0.16,-0.14 -0.37,-0.33 -0.51,-0.49 -0.43,-0.49 -0.55,-0.63 -0.78,-1.01 -0.36,-0.59 -0.51,-1.08 -0.53,-1.13 -0.12,-0.4 -0.34,-1.14 -0.2,-2.25 0.13,-1 0.54,-1.87 0.8,-2.45 -0.52,1.09 -0.5,2.25 0.06,3.33 0.45,0.89 1.27,1.72 2.44,2.42 3.96,2.38 10.5,2.45 14.62,0.15 1.35,-0.75 2.27,-1.66 2.76,-2.62 0.55,-1.09 0.57,-2.25 0.04,-3.34 0.22,0.49 0.38,0.81 0.53,1.26 0.08,0.25 0.2,0.61 0.28,1.17 0.15,1.07 -0.06,1.88 -0.16,2.19 -0.11,0.36 -0.21,0.63 -0.5,1.13 -0.17,0.3 -0.45,0.68 -0.68,0.94 -0.13,0.15 -0.45,0.51 -1,0.94 -0.41,0.33 -0.6,0.44 -1.22,0.82 -0.01,0 -0.54,0.31 -1.38,0.66 -0.63,0.25 -1.18,0.41 -1.45,0.49 -1.1,0.32 -2.32,0.48 -3.04,0.53 -0.23,0.01 -0.54,0.04 -0.76,0.04 -0.24,0.01 -0.54,0.02 -0.77,0.01 -0.24,0 -0.55,-0.01 -0.78,-0.02 -0.42,-0.02 -0.77,-0.06 -1.52,-0.15 -0.06,-0.01 -1.45,-0.19 -2.94,-0.73 -1.07,-0.39 -1.77,-0.8 -2.03,-0.96z"/>
   <path class="fil2" d="M4.99 20.16c-0.56,-1.08 -0.58,-2.24 -0.06,-3.33 0.66,-1.36 2.4,-0.42 3.16,-0.66l-0.12 0.31c-0.31,0.89 -0.01,1.61 0.19,1.95 -0.74,0.52 -2.51,0.13 -3.17,1.73z"/>
   <path class="fil2" d="M4.93 16.83c0.14,-0.24 0.31,-0.56 0.46,-0.79l0.37 -0.48c0.14,-0.16 0.32,-0.36 0.47,-0.51l0.47 -0.42 0.2 -0.17 0.54 -0.38c0.18,-0.11 0.42,-0.26 0.61,-0.37l0.62 -0.32c0.2,-0.09 0.47,-0.21 0.67,-0.29l0.67 -0.25c0.21,-0.06 0.49,-0.15 0.7,-0.21l0.7 -0.18c0.22,-0.04 0.51,-0.1 0.73,-0.14l0.73 -0.11c0.22,-0.02 0.52,-0.06 0.74,-0.07l0.74 -0.05c0.22,0 0.52,-0.01 0.74,0l0.75 0.02c0.22,0.02 0.52,0.03 0.74,0.06l0.73 0.09c0.22,0.03 0.51,0.08 0.72,0.12l0.72 0.16c0.2,0.05 0.49,0.13 0.7,0.19l0.67 0.22c0.2,0.08 0.47,0.18 0.67,0.27l0.63 0.3c0.19,0.1 0.44,0.23 0.62,0.34 -0.65,-0.39 -1.76,0.78 -2.17,0.53l-0.39 -0.22 -0.43 -0.2 -0.45 -0.18c-0.14,-0.05 -0.32,-0.11 -0.47,-0.15l-0.48 -0.14c-0.15,-0.03 -0.35,-0.08 -0.5,-0.11l-0.52 -0.09c-0.16,-0.02 -0.37,-0.05 -0.53,-0.06l-0.53 -0.04c-0.16,-0.01 -0.37,-0.02 -0.54,-0.02l-0.53 0.01c-0.16,0 -0.38,0.01 -0.54,0.03l-0.52 0.05 -0.41 0.06 -0.08 0.01c-0.96,0.18 -3.9,0.73 -5.03,2.87 -0.82,0.08 -2.38,-0.65 -2.99,0.62z"/>
   <path class="fil2" d="M24.81 20.11c-0.49,0.96 -1.41,1.87 -2.76,2.62 -4.12,2.3 -10.66,2.23 -14.62,-0.15 -1.17,-0.7 -1.99,-1.53 -2.44,-2.42 0.66,-1.6 2.43,-1.21 3.17,-1.73l0.13 0.21c0.98,1.12 1.71,1.03 1.71,1.02 0.17,-0.15 -1.4,-3.05 -1.41,-3.08 0.25,0.23 0.54,0.45 0.88,0.65 0.95,0.57 2.1,0.96 3.33,1.16 -0.03,0.14 -0.08,0.33 -0.11,0.46 -0.15,0.53 -0.32,0.87 -0.82,1.16l-0.32 0.28c-0.19,1.2 5.48,2.07 8.71,-0.17 1.07,-0.73 1.33,-1.43 1.43,-1.69l0.21 0.1c0.66,0.21 1.38,0.23 2.01,0.57 0.69,0.37 0.9,1 0.9,1.01z"/>
   <path class="fil6" d="M4.99 20.16c-0.56,-1.08 -0.58,-2.24 -0.06,-3.33 0.18,-0.37 0.44,-0.57 0.73,-0.67l-0.17 0.42c-0.1,0.32 -0.43,1.32 0.14,2.73 -0.26,0.2 -0.48,0.47 -0.64,0.85z"/>
   <path class="fil7" d="M7.77 23.65c-0.36,0.65 -1.52,0.63 -2.18,-0.04l-0.39 -0.45c-0.1,-0.15 -0.25,-0.35 -0.34,-0.5l-0.27 -0.49c-0.08,-0.19 -0.19,-0.45 -0.26,-0.64l-0.14 -0.51c-0.03,-0.22 -0.08,-0.52 -0.1,-0.74l0 -0.5c0.02,-0.27 0.06,-0.64 0.11,-0.91l0.1 -0.42c0.19,-0.62 0.26,-0.82 0.63,-1.62 -0.52,1.09 -0.5,2.25 0.06,3.33 0.45,0.89 1.27,1.72 2.44,2.42 0.14,0.09 0.28,0.17 0.42,0.25l0.04 0.39c0.02,0.17 -0.12,0.43 -0.12,0.43z"/>
   <path class="fil7" d="M25.51 18.95c0.23,0.68 0.21,1.15 0.16,1.64l-0.09 0.51 -0.08 0.29 -0.18 0.5c-0.09,0.19 -0.21,0.45 -0.32,0.63l-0.31 0.48c-0.13,0.17 -0.31,0.39 -0.45,0.55l-0.43 0.44c-0.17,0.14 -0.38,0.33 -0.56,0.47l-0.55 0.39 -0.03 0.02 -0.07 0.05c-5.8,3.43 -13.8,1.79 -13.47,-1.01 0.01,-0.14 0.09,-0.31 0.15,-0.45 3.93,1.48 9.24,1.24 12.77,-0.73 1.35,-0.75 2.27,-1.66 2.76,-2.62 0.3,-0.6 0.45,-1.21 0.42,-1.83l0.13 0.28 0.15 0.39z"/>
   <path class="fil6" d="M7.43 22.58c-1.17,-0.7 -1.99,-1.53 -2.44,-2.42 0.16,-0.38 0.38,-0.65 0.64,-0.85l0.14 0.33c0.27,0.56 0.27,0.56 0.45,0.83 0.09,0.14 0.21,0.33 0.3,0.46 0.25,0.36 0.56,0.67 0.81,1.02 0.18,0.25 0.33,0.64 0.52,0.88 -0.14,-0.08 -0.28,-0.16 -0.42,-0.25z"/>
   <path class="fil6" d="M24.81 20.11c-0.49,0.96 -1.41,1.87 -2.76,2.62 -3.53,1.97 -8.84,2.21 -12.77,0.73l0.43 -0.24c0.01,0 0.65,-0.29 1.48,-0.26 3.07,0.1 9.45,0.31 12.82,-3.81 0.32,0.2 0.61,0.5 0.8,0.96z"/>
   <path class="fil3" d="M18.45 20.34c-1.14,0.63 -2.16,0.62 -2.81,0.5 0.33,-0.16 1.99,-0.77 3.11,-0.69l-0.3 0.19z"/>
   <path class="fil6" d="M10.01 17.76c-0.63,-0.39 -2.54,-1.57 -3.75,-4.17 -0.16,-0.34 -0.35,-0.79 -0.44,-1.14 -0.1,-0.34 -0.21,-0.79 -0.28,-1.13 -0.05,-0.22 -0.08,-0.52 -0.11,-0.74 -0.08,-0.56 -0.08,-1.62 0.06,-2.51 0.06,-0.38 0.23,-1.4 0.83,-2.65 0.58,-1.21 1.32,-2.05 1.53,-2.28 0.35,-0.36 1.06,-1.13 2.26,-1.83 0.87,-0.51 1.77,-0.86 2.73,-1.08 1.67,-0.37 3.09,-0.19 3.49,-0.13 0.37,0.07 0.56,0.1 0.9,0.18 0.23,0.06 0.49,0.13 0.96,0.29 0.36,0.13 0.92,0.35 1.68,0.8 -1.26,-0.75 -1.26,-0.75 0,0 0.32,0.21 0.75,0.49 1.04,0.73 0.28,0.22 0.63,0.5 1.08,1 0.9,0.99 1.38,1.93 1.55,2.28 0.16,0.34 0.36,0.78 0.46,1.14 0.3,0.99 0.3,0.99 0.43,1.87 0.09,0.62 0.12,1.69 -0.04,2.67 -0.07,0.38 -0.23,1.4 -0.83,2.65 -0.58,1.22 -1.32,2.05 -1.53,2.28 -0.35,0.37 -1.07,1.13 -2.26,1.83 -0.87,0.51 -1.77,0.86 -2.74,1.08 -1.66,0.37 -3.08,0.19 -3.48,0.13 -0.37,-0.06 -0.56,-0.09 -0.9,-0.18 -0.23,-0.06 -0.5,-0.12 -0.97,-0.29 -0.87,-0.31 -1.55,-0.72 -1.67,-0.8z"/>
   <path class="fil8" d="M23.19 14.41c-0.45,0.7 -0.56,0.87 -1.16,1.58l-0.47 0.47c-0.22,0.21 -0.53,0.48 -0.76,0.67l-0.51 0.36c-0.21,0.13 -0.48,0.31 -0.69,0.43l-0.51 0.26c-0.18,0.08 -0.42,0.19 -0.6,0.27l-0.48 0.18c-0.16,0.04 -0.36,0.11 -0.52,0.15l-0.46 0.12c-0.13,0.02 -0.32,0.07 -0.46,0.09l-0.44 0.07 -0.44 0.04 -0.42 0.02 -0.43 0.01 -0.42 -0.02 -0.43 -0.03 -0.44 -0.05 -0.45 -0.08 -0.45 -0.1c-0.15,-0.04 -0.34,-0.09 -0.48,-0.13l-0.49 -0.16c-0.16,-0.07 -0.38,-0.15 -0.54,-0.22l-0.51 -0.24c-0.19,-0.1 -0.44,-0.23 -0.62,-0.34l-0.53 -0.34c-0.63,-0.47 -0.74,-0.56 -1.25,-1.04l-0.47 -0.49c-0.25,-0.31 -0.58,-0.73 -0.8,-1.05l-0.38 -0.61c-0.16,-0.32 -0.37,-0.76 -0.51,-1.09l-0.25 -0.69c-0.09,-0.34 -0.21,-0.79 -0.28,-1.13l-0.11 -0.74c-0.02,-0.3 -0.05,-0.69 -0.05,-0.98l0.02 -0.77c0.11,-0.89 0.13,-1.11 0.39,-2.04l0.24 -0.7c0.38,-0.88 0.39,-0.9 0.66,-1.36l0.38 -0.6c0.22,-0.3 0.53,-0.7 0.78,-0.99l0.46 -0.47c0.23,-0.2 0.54,-0.47 0.77,-0.66l0.51 -0.37c0.2,-0.13 0.48,-0.3 0.69,-0.43l0.51 -0.26c0.18,-0.08 0.42,-0.19 0.6,-0.26l0.48 -0.18c0.16,-0.05 0.36,-0.12 0.52,-0.16l0.45 -0.12c0.14,-0.02 0.33,-0.06 0.47,-0.09l0.32 -0.05 -0.25 0.04c-7.38,1.46 -7.95,11.22 -0.92,15.82 3.99,2.62 9.94,1.65 11.6,-3.52l-0.24 0.7c-0.18,0.39 -0.41,0.91 -0.63,1.28z"/>
   <path class="fil3" d="M19.62 7.35c0.26,1.87 -1.6,3.43 -3.54,2.31 -0.8,-0.46 -1.27,-1.46 -1.25,-2.11 0.04,-1.28 0.92,-2 1.38,-2.2 1.11,-0.48 3.18,0.31 3.41,2z"/>
   <path class="fil3" d="M19.49 24.15l-0.14 -0.33 -0.29 -0.02c-0.4,0.06 -0.92,0.16 -1.32,0.24 -0.14,0.03 -0.3,0.14 -0.43,0.21l-0.1 0.43c0.01,0 0.43,0.35 0.63,0.35l1.34 -0.37c0.14,-0.1 0.31,-0.28 0.33,-0.45l-0.02 -0.06z"/>
  </g>
 </g>
</svg>
