<?xml version="1.0" encoding="UTF-8"?>
<!DOCTYPE svg PUBLIC "-//W3C//DTD SVG 1.0//EN" "http://www.w3.org/TR/2001/REC-SVG-20010904/DTD/svg10.dtd">
<!-- Creator: CorelDRAW 2018 (64 Bit Versão de avaliação) -->
<svg xmlns="http://www.w3.org/2000/svg" xml:space="preserve" width="34px" height="94px" version="1.0" style="shape-rendering:geometricPrecision; text-rendering:geometricPrecision; image-rendering:optimizeQuality; fill-rule:evenodd; clip-rule:evenodd"
viewBox="0 0 34 94.81"
 xmlns:xlink="http://www.w3.org/1999/xlink">
 <defs>
  <style type="text/css">
   <![CDATA[
    .fil7 {fill:#FEFEFE;fill-rule:nonzero}
    .fil5 {fill:#F1F5F5;fill-rule:nonzero}
    .fil2 {fill:#DDE3E4;fill-rule:nonzero}
    .fil1 {fill:#C9CFCF;fill-rule:nonzero}
    .fil3 {fill:#C1C7C9;fill-rule:nonzero}
    .fil4 {fill:#AEB4B5;fill-rule:nonzero}
    .fil0 {fill:#A5ABAD;fill-rule:nonzero}
    .fil6 {fill:#2F3132;fill-rule:nonzero}
   ]]>
  </style>
 </defs>
 <g id="Camada_x0020_1">
  <metadata id="CorelCorpID_0Corel-Layer"/>
  <g id="_1659208620672">
   <polygon class="fil0" points="33.7,74.21 33.76,74.4 "/>
   <path class="fil0" d="M33.97 76.83c0.08,-0.99 -0.04,-1.78 -0.21,-2.43l0.01 0.06 -0.07 -0.27 0 0.02 -0.02 -0.07c-0.06,-0.23 -0.14,-0.46 -0.24,-0.69l-0.15 -0.37 0.06 0.16c-0.57,-1.26 -1.57,-2.47 -3.03,-3.55 -1.1,-0.81 -2.2,-1.61 -3.29,-2.42l-0.02 -0.04 -0.04 -0.08 -0.04 -0.09 -0.06 -0.12 -0.03 -0.05 -0.09 -0.18 -0.09 -0.14 -0.07 -0.12 -0.05 -0.09 -0.09 -0.12 -0.05 -0.08 -0.02 -0.02c-0.12,-0.17 -0.21,-0.28 -0.36,-0.46l-0.1 -0.11 -0.08 -0.09 -0.2 -0.21 -0.01 -0.01 -0.01 -0.02 -0.09 -0.07 -0.14 -0.14 -0.03 -0.02 -0.07 -0.07 0.03 0.02 -0.06 -0.05 -0.39 -0.32 0.06 0.05 -0.33 -0.25 -0.1 -0.38c-0.1,-0.4 -0.22,-0.93 -0.32,-1.33l-0.33 -1.49c-0.11,-0.5 -0.25,-1.17 -0.35,-1.66l-0.34 -1.76c-0.1,-0.56 -0.22,-1.32 -0.32,-1.88l-0.28 -1.89c-0.08,-0.59 -0.16,-1.39 -0.23,-1.99l-0.16 -1.87c-0.04,-0.6 -0.06,-1.4 -0.09,-2l0.01 -1.69c0.02,-0.57 0.09,-1.32 0.13,-1.89l0.19 -1.28c0.07,-0.32 0.1,-0.49 0.16,-0.69 0.71,-0.25 1.39,-0.53 2.01,-0.88 2.08,-1.16 3.22,-2.68 3.39,-4.23 0.05,-0.47 0.11,-0.94 0.16,-1.4l-0.03 0.11c0.03,-0.25 0.06,-0.5 0.04,-0.75 2.33,-1.59 3.49,-3.56 3.49,-5.53l-0.01 -1.64 -0.01 0.09c0.04,-2.03 -1.18,-4.06 -3.64,-5.69 -0.43,-0.59 -1,-1.15 -1.73,-1.67l0.12 -0.15 0.17 -0.22c0.12,-0.14 0.28,-0.32 0.41,-0.45l0.28 -0.29 0 0c1.03,-1 1.88,-1.89 2.57,-2.67 1.05,-0.86 1.94,-1.91 2.44,-3.17 0.21,-0.56 0.33,-1.15 0.39,-1.74 0.14,-0.94 0.03,-1.88 -0.32,-2.81l-0.05 -0.14 0.02 0.08c-0.62,-1.57 -1.94,-3.05 -4,-4.29 -2.18,-1.31 -4.88,-2.15 -7.73,-2.54 -0.43,-1.5 -1.8,-2.61 -3.44,-2.61 -1.62,0 -2.97,1.08 -3.42,2.55 -2.86,0.34 -5.6,1.11 -7.86,2.37 -3.93,2.19 -5.49,5.26 -4.67,8.15l-0.02 -0.04 0.03 0.08 0.02 0.07 0.08 0.25 0.12 0.33 0.17 0.37 0.17 0.33 0.18 0.31 0.19 0.3 0.19 0.28 0.2 0.28 0.21 0.28 0.23 0.29 0.24 0.29 0.26 0.31 0.19 0.22 0.04 0.05 0.05 0.05 0.31 0.34 0.33 0.36 0.36 0.37 0.38 0.4 0.43 0.43 0.45 0.45c0.15,0.14 0.34,0.33 0.49,0.48 0.23,0.22 0.41,0.42 0.6,0.63l0.14 0.16 0.2 0.25 0.05 0.07c-0.72,0.52 -1.3,1.07 -1.72,1.67 -2.55,1.69 -3.74,3.84 -3.59,5.96l-0.03 -0.34 0 1.64c0,0.16 0.03,0.31 0.04,0.47l0 0.14 0.02 0.06c0.06,0.42 0.17,0.84 0.34,1.25l0.09 0.21c0.18,0.41 0.41,0.81 0.7,1.19l0.15 0.2c0.31,0.39 0.66,0.78 1.08,1.15l0.16 0.13c0.29,0.24 0.6,0.47 0.94,0.71 -0.01,0.23 0,0.47 0.03,0.71l-0.01 -0.07c0.05,0.47 0.11,0.94 0.16,1.4 0.17,1.46 1.19,2.88 3.07,4.01 0.51,0.31 1.07,0.59 1.66,0.82l0 0c0.22,0.09 0.46,0.15 0.69,0.23l0.17 0.72c0.08,0.44 0.16,1 0.22,1.49l0.06 0.69 0.04 0.64c0.02,0.43 0.03,0.88 0.04,1.34 0,0.32 0,0.65 0,0.93l-0.07 1.76 -0.14 1.69 -0.2 1.88c-0.42,3.37 -1.07,6.9 -1.95,10.68 -0.17,0.12 -0.34,0.24 -0.49,0.36l0.16 -0.15 -0.32 0.27 -0.01 0.01 -0.1 0.09 -0.06 0.04 -0.01 0.02 -0.13 0.12 -0.08 0.08 -0.17 0.17 -0.09 0.09 -0.1 0.13 -0.23 0.28 -0.11 0.13 -0.15 0.22 -0.01 0 0.01 -0.01 -0.1 0.15c-0.1,0.15 -0.21,0.36 -0.3,0.52l-0.09 0.18 -0.02 0.03 0.01 -0.01 -0.01 0.02 -0.01 0.03 -0.05 0.1 -0.01 0.04c-1.1,0.81 -2.19,1.62 -3.28,2.43 -1.45,1.09 -2.45,2.3 -3.02,3.58l0.06 -0.17c-0.04,0.11 -0.11,0.25 -0.17,0.42l-0.1 0.28c-0.05,0.13 -0.09,0.27 -0.13,0.42l0.02 -0.05 -0.04 0.14 0.02 -0.09 -0.05 0.17 -0.03 0.13c-0.07,0.32 -0.13,0.68 -0.16,1.08l-0.01 -0.07 0.03 -0.3 -0.03 0.24 -0.03 0.52 0.01 0.24 0 0.19 0 0.03 0.02 0.42 0.03 0.24c0.02,0.18 0.04,0.37 0.07,0.57l0.06 0.31 0.07 0.35 0.01 0.05 0.08 0.32 0 0.01 0.09 0.34 0.13 0.41 0.07 0.2 0 0c-0.28,0.84 -0.38,1.43 -0.43,1.75 -0.03,0.16 -0.06,0.38 -0.07,0.55 -0.03,0.29 -0.04,0.69 -0.05,0.98l0 2.04c0.01,0.18 0.03,0.36 0.05,0.54l0 0.16 0.02 0.11 0.07 0.35c0.04,0.18 0.08,0.35 0.13,0.52l0.12 0.36c0.07,0.17 0.13,0.33 0.21,0.5l0.18 0.36c0.09,0.16 0.18,0.32 0.28,0.48l0.24 0.35c0.12,0.16 0.24,0.32 0.37,0.48l0.28 0.33c0.15,0.16 0.31,0.32 0.47,0.48l0.32 0.3c0.19,0.17 0.4,0.33 0.61,0.5l0.31 0.24c0.33,0.24 0.68,0.48 1.06,0.7 0.68,0.42 1.42,0.79 2.2,1.12l0 -0.04c6.51,2.78 15.69,2.53 21.73,-0.84 3.47,-1.93 5.22,-4.52 5.21,-7.1l-0.01 -2.03c0,-0.76 -0.08,-1.82 -0.57,-3.3 0.26,-0.73 0.49,-1.65 0.6,-2.8z"/>
   <path class="fil1" d="M0.09 83.02c0.01,-0.29 0.02,-0.69 0.05,-0.98 0.01,-0.17 0.04,-0.39 0.07,-0.55 0.05,-0.32 0.15,-0.91 0.43,-1.75 0.36,-1.07 0.93,-2.21 1.57,-3.12 -2.32,3.29 -1.26,7.21 3.26,9.93 6.11,3.67 16.24,3.78 22.61,0.22 4.89,-2.72 6.15,-6.81 3.71,-10.23 0.89,1.27 1.37,2.48 1.57,3.08 0.51,1.49 0.58,2.55 0.58,3.31 0.01,2.58 -1.73,5.16 -5.2,7.1 -6.75,3.76 -17.47,3.65 -23.94,-0.24 -3.14,-1.89 -4.7,-4.33 -4.71,-6.77z"/>
   <path class="fil0" d="M29.71 74.46c-0.36,-0.27 -0.75,-0.53 -1.16,-0.78 -0.79,-0.47 -1.64,-0.89 -2.54,-1.24 -1.19,-0.47 -2.47,-0.84 -3.79,-1.1 -1.53,-0.3 -3.13,-0.46 -4.73,-0.49 -4.14,-0.06 -8.33,0.8 -11.55,2.6 -3.94,2.19 -5.52,5.27 -4.72,8.17 0.14,0.5 0.35,0.99 0.63,1.48 0.29,0.5 0.65,0.98 1.09,1.45 0.67,0.71 1.51,1.38 2.53,2 0.2,0.11 0.4,0.23 0.6,0.34 1,0.54 2.09,1 3.25,1.36 2.46,0.78 5.19,1.15 7.93,1.12 3.9,-0.04 7.79,-0.9 10.83,-2.6 1.14,-0.63 2.08,-1.34 2.83,-2.1 1.21,-1.24 1.9,-2.61 2.05,-3.99 0.25,-2.18 -0.83,-4.4 -3.25,-6.22z"/>
   <path class="fil2" d="M3.64 69.76c1.72,-1.28 3.45,-2.56 5.17,-3.84 -3.11,2.32 -2.91,5.66 0.7,7.83 3.96,2.38 10.51,2.45 14.63,0.15 3.88,-2.16 4.23,-5.64 0.98,-8.03 1.73,1.28 3.47,2.55 5.2,3.82 5.31,3.91 4.73,9.6 -1.61,13.13 -6.74,3.76 -17.46,3.65 -23.93,-0.24 -5.9,-3.55 -6.24,-9.02 -1.14,-12.82z"/>
   <path class="fil0" d="M0.09 85.06l0 -2.04c0.01,2.44 1.57,4.88 4.71,6.77 6.47,3.89 17.19,4 23.94,0.24 3.47,-1.94 5.21,-4.52 5.2,-7.1l0.01 2.03c0.01,2.58 -1.74,5.17 -5.21,7.1 -6.75,3.77 -17.46,3.66 -23.93,-0.24 -3.14,-1.89 -4.71,-4.32 -4.72,-6.76z"/>
   <path class="fil3" d="M7.47 71.98c-0.16,-0.22 -0.35,-0.5 -0.54,-0.91 -0.19,-0.42 -0.26,-0.72 -0.32,-0.99 -0.1,-0.43 -0.13,-1.15 0.01,-1.81 0.18,-0.84 0.52,-1.47 0.78,-1.86 0.6,-0.89 1.13,-1.34 1.66,-1.78 -2.74,2.18 -2.48,5.25 0.85,7.25 3.74,2.26 9.94,2.32 13.84,0.14 3.58,-1.99 3.98,-5.18 1.12,-7.43 0.23,0.19 0.54,0.44 0.75,0.65 0.18,0.19 0.51,0.53 0.78,0.92 0.1,0.15 0.34,0.5 0.53,0.9 0.17,0.35 0.31,0.73 0.37,1.01 0.11,0.51 0.13,0.77 0.13,1.12 0,0.42 -0.06,0.72 -0.12,1.02 -0.08,0.39 -0.29,0.82 -0.36,0.98 -0.03,0.06 -0.17,0.35 -0.45,0.74 -0.53,0.72 -1.32,1.39 -2.36,1.97 -4.12,2.3 -10.67,2.23 -14.63,-0.15 -0.88,-0.53 -1.56,-1.13 -2.04,-1.77z"/>
   <path class="fil3" d="M7.47 71.98l-0.01 -0.01 0 -0.01c-0.57,-0.8 -0.88,-1.64 -0.93,-2.49l0 -0.03 0 -0.01c-0.02,-0.36 0,-0.77 0.09,-1.16 0.03,-0.15 0.07,-0.28 0.1,-0.41l0.02 -0.04 0.01 -0.04 0 0 0.01 -0.03c0.29,-0.89 0.87,-1.77 1.71,-2.59l0 0zm0.54 -0.49l0.02 -0.02 0.03 -0.02c-0.08,0.06 -0.15,0.12 -0.23,0.19l0.18 -0.15zm-0.18 0.15l-0.02 0.02 0 0 -0.01 0c-2.46,2.17 -2.11,5.1 1.11,7.04 3.74,2.26 9.94,2.32 13.84,0.14 3.44,-1.92 3.94,-4.94 1.44,-7.17l-0.3 -0.25 -0.01 -0.01 -0.01 0c0.11,0.08 0.22,0.17 0.32,0.26zm0.39 0.38c0.67,0.68 1.13,1.34 1.41,1.96l0 0.01 0.01 0.01 0.01 0.02 0.01 0.01 0 0.02c0.13,0.29 0.23,0.59 0.28,0.81 0.08,0.37 0.11,0.61 0.12,0.85l0.01 0.02c0.05,1.31 -0.5,2.36 -0.9,2.94l-0.02 0.03 -0.01 0.02 -0.01 0 -0.02 0.03 0 0c-0.42,0.55 -0.96,1.06 -1.64,1.52l0 0 -0.04 0.03 0 0 -0.05 0.03 -0.04 0.02 0 0 -0.05 0.03 -0.04 0.03 0 0 -0.04 0.03 -0.05 0.03 0 0 -0.05 0.03 0 0 -0.04 0.02 -0.05 0.03 -0.05 0.03 -0.04 0.03 -0.05 0.02 -0.05 0.03 -0.05 0.03c-4.12,2.3 -10.67,2.23 -14.63,-0.15 -0.88,-0.53 -1.56,-1.13 -2.04,-1.77z"/>
   <path class="fil3" d="M25.86 65.49l0 0.01 0 0c0.33,0.38 0.41,0.47 0.65,0.83l0.01 0 0 0.01 0 0 0.01 0.01 0.01 0.01 0 0.01 0.01 0.01 0.2 0.32 0 0.01 0 0.01 0.01 0c0.06,0.13 0.15,0.3 0.22,0.44l0 0 0 0.01 0.01 0.01 0 0 0 0.01 0 0 0.04 0.08 0 0.01 0.01 0.01 0.1 0.27 0.01 0.02 0 0 0 0.01 0 0 0 0 0.01 0.01c0.04,0.14 0.1,0.33 0.14,0.47l0 0.03 0.01 0.02 0.03 0.17 0.01 0.02 0 0.02 0.02 0.12 0 0.01 0 0.01 0 0 0.01 0c0.01,0.12 0.03,0.26 0.04,0.37l0 0.01 0 0 0 0.01 0 0 0 0 0 0.01 0 0.01 0 0.01 0.01 0.3 -0.02 0.43 -0.03 0.22 0 0.01 -0.03 0.15 0 0.01 -0.07 0.3 -0.08 0.28 -0.11 0.28 0 0.01 -0.08 0.17 0 0.01 -0.01 0.02 0 0.01 -0.01 0.01 -0.01 0.01 0 0.01 0 0.01 -0.01 0.01 0 0.01 -0.01 0.01 0 0.01 -0.01 0.01 0 0 0 0.01 -0.18 0.32 0 0 -0.12 0.19 0 0 -0.15 0.23c-0.53,0.72 -1.32,1.39 -2.36,1.97 -4.12,2.3 -10.67,2.23 -14.63,-0.15 -0.88,-0.53 -1.56,-1.13 -2.04,-1.77l-0.01 -0.01 0 -0.01 -0.01 -0.01 -0.01 -0.01 -0.01 -0.01 -0.01 -0.03 -0.01 -0.01 -0.01 -0.01 -0.02 -0.03 -0.01 -0.01 -0.01 -0.01 -0.01 -0.02 0 -0.01 -0.02 -0.02 -0.01 -0.01 -0.13 -0.21 -0.13 -0.24 -0.16 -0.32 -0.11 -0.27 -0.1 -0.32 0 -0.01 -0.03 -0.08 0 -0.02 0 -0.01 0 -0.02 -0.01 -0.01 0 -0.01 0 -0.02 -0.02 -0.05 0 -0.01 0 -0.01 -0.01 -0.02 0 -0.01 0 -0.01 -0.01 -0.01 0 -0.02 0 -0.01 -0.06 -0.4 -0.02 -0.26 0 -0.1 0 -0.34 0 -0.09 0.03 -0.29c0.02,-0.13 0.06,-0.32 0.09,-0.46l0 0 0 -0.01 0 -0.02 0.09 -0.3 0.01 -0.04 0 0 0 -0.01 0.01 -0.01 0 0c0.05,-0.13 0.11,-0.3 0.16,-0.43l0 -0.01 0.01 -0.02 0 0 0 0 0.17 -0.35c0.09,-0.16 0.2,-0.37 0.3,-0.53l0.21 -0.3 0.06 -0.08 0.01 0 0 -0.01 0 0c0.13,-0.16 0.29,-0.35 0.41,-0.5l0.34 -0.34 0 0 0 0 0.01 -0.01 0.23 -0.21 0.01 0 0 -0.01zm0.27 -0.23l0.01 -0.01 0 0 0.01 -0.01 0.01 -0.01 0 0 0.01 -0.01 0.01 0 0.01 -0.01 0 0 0.01 -0.01 0.01 -0.01 0 0 0.01 0 0.01 -0.01 0.01 -0.01c-0.08,0.06 -0.15,0.12 -0.23,0.19l0.12 -0.1zm-0.12 0.1l-0.02 0.02 0 0 -0.01 0c-2.46,2.17 -2.11,5.1 1.11,7.04l0.17 0.1 0.01 0.01 0.17 0.09 0.01 0.01 0.03 0.01 0.13 0.07 0.03 0.02c0.12,0.06 0.23,0.11 0.35,0.17l0.02 0.01 0.03 0.02c0.12,0.05 0.24,0.1 0.36,0.15l0.02 0.01 0.17 0.07 0.03 0.01 0.18 0.07 0.01 0.01 0.2 0.07 0.2 0.07 0.01 0c2.1,0.71 4.57,0.93 6.9,0.65 -0.17,0.05 -0.4,0.12 -0.57,0.18 -0.84,0.33 -1.99,0.78 -1.3,1.14 1.8,0.94 7.29,-0.83 7.2,-1.87 -0.04,-0.37 -0.81,-0.3 -2.21,-0.17 0.25,-0.09 0.49,-0.18 0.73,-0.29l0.01 0c0.12,-0.05 0.24,-0.11 0.36,-0.17l0.02 -0.01 0.01 0 0 0 0.18 -0.09 0.01 0 0.18 -0.1 0.01 0 0.18 -0.1c3.44,-1.92 3.94,-4.94 1.44,-7.17l-0.07 -0.06 0 0 -0.04 -0.03 0 0 -0.01 -0.01 0 0 -0.01 -0.01 -0.01 0 -0.01 -0.01 0 -0.01 -0.01 0 -0.01 -0.01 0 0 -0.01 -0.01 -0.01 0 0 -0.01 -0.01 -0.01 -0.01 0 -0.01 -0.01 0 0 -0.01 -0.01 -0.01 -0.01 0 0 -0.01 -0.01 0 0 -0.01 -0.01 -0.01 0 0 -0.01 -0.02 -0.01 0 0 -0.01 -0.01 0 0 -0.01 -0.01 -0.01 0c0.11,0.08 0.22,0.17 0.32,0.26zm0.02 0.02l0.01 0.01 0.02 0.02c0.12,0.1 0.23,0.2 0.35,0.32l0.01 0 0.02 0.02 0 0.01c0.06,0.06 0.14,0.15 0.24,0.24z"/>
   <path class="fil3" d="M25.86 65.49l0 0.01 0 0c0.33,0.38 0.41,0.47 0.65,0.83l0.01 0 0 0.01 0 0 0.01 0.01 0.01 0.01 0 0.01 0.01 0.01 0.2 0.32 0 0.01 0 0.01 0.01 0c0.06,0.13 0.15,0.3 0.22,0.44l0 0 0 0.01 0.01 0.01 0 0 0 0.01 0 0 0.04 0.08 0 0.01 0.01 0.01 0.1 0.27 0.01 0.02 0 0 0 0.01 0 0 0 0 0.01 0.01c0.04,0.14 0.1,0.33 0.14,0.47l0 0.03 0.01 0.02 0.03 0.17 0.01 0.02 0 0.02 0.02 0.12 0 0.01 0 0.01 0 0 0.01 0c0.01,0.12 0.03,0.26 0.04,0.37l0 0.01 0 0 0 0.01 0 0 0 0 0 0.01 0 0.01 0 0.01 0.01 0.3 -0.02 0.43 -0.03 0.22 0 0.01 -0.03 0.15 0 0.01 -0.07 0.3 -0.08 0.28 -0.11 0.28 0 0.01 -0.08 0.17 0 0.01 -0.01 0.02 0 0.01 -0.01 0.01 -0.01 0.01 0 0.01 0 0.01 -0.01 0.01 0 0.01 -0.01 0.01 0 0.01 -0.01 0.01 0 0 0 0.01 -0.18 0.32 0 0 -0.12 0.19 0 0 -0.15 0.23c-0.53,0.72 -1.32,1.39 -2.36,1.97 -4.12,2.3 -10.67,2.23 -14.63,-0.15 -0.88,-0.53 -1.56,-1.13 -2.04,-1.77l-0.01 -0.01 0 -0.01 -0.01 -0.01 -0.01 -0.01 -0.01 -0.01 -0.01 -0.03 -0.01 -0.01 -0.01 -0.01 -0.02 -0.03 -0.01 -0.01 -0.01 -0.01 -0.01 -0.02 0 -0.01 -0.02 -0.02 -0.01 -0.01 -0.13 -0.21 -0.13 -0.24 -0.16 -0.32 -0.11 -0.27 -0.1 -0.32 0 -0.01 -0.03 -0.08 0 -0.02 0 -0.01 0 -0.02 -0.01 -0.01 0 -0.01 0 -0.02 -0.02 -0.05 0 -0.01 0 -0.01 -0.01 -0.02 0 -0.01 0 -0.01 -0.01 -0.01 0 -0.02 0 -0.01 -0.06 -0.4 -0.02 -0.26 0 -0.1 0 -0.34 0 -0.09 0.03 -0.29c0.02,-0.13 0.06,-0.32 0.09,-0.46l0 0 0 -0.01 0 -0.02 0.09 -0.3 0.01 -0.04 0 0 0 -0.01 0.01 -0.01 0 0c0.05,-0.13 0.11,-0.3 0.16,-0.43l0 -0.01 0.01 -0.02 0 0 0 0 0.17 -0.35c0.09,-0.16 0.2,-0.37 0.3,-0.53l0.21 -0.3 0.06 -0.08 0.01 0 0 -0.01 0 0c0.13,-0.16 0.29,-0.35 0.41,-0.5l0.34 -0.34 0 0 0 0 0.03 -0.03 0.02 -0.02 0.03 -0.03 0.09 -0.08 0.07 -0.06c-0.11,0.1 -0.21,0.2 -0.31,0.31l0 0 -0.09 0.11 -0.1 0.1 0 0.01 -0.08 0.1 -0.01 0.01 -0.07 0.09 -0.02 0.02 -0.06 0.09 -0.01 0.01 -0.05 0.08 -0.02 0.03 -0.05 0.07 -0.03 0.04 -0.03 0.06 -0.04 0.05 -0.04 0.08 -0.02 0.03 -0.03 0.07 -0.03 0.05 -0.03 0.07 -0.02 0.05 -0.04 0.07 -0.01 0.02 -0.03 0.09 -0.02 0.04 -0.03 0.08 0 0.01c-0.03,0.08 -0.05,0.15 -0.08,0.22l0 0.02 -0.03 0.1 -0.02 0.09 0 0.02 -0.03 0.11 0 0.01 0 0.02c-0.06,0.33 -0.07,0.66 -0.02,1l0 0.02 0.01 0.08 0.01 0.04c0.01,0.07 0.02,0.14 0.04,0.21l0 0.01c0.03,0.11 0.06,0.22 0.1,0.33l0.01 0.02 0.03 0.09 0.01 0.02c0.02,0.07 0.06,0.14 0.09,0.21l0.04 0.1 0.01 0.02 0.05 0.1 0.01 0.01 0.06 0.11 0.06 0.11 0.01 0c0.08,0.13 0.17,0.27 0.28,0.4l0.02 0.03 0.01 0.02 0.07 0.09 0.01 0.01 0.05 0.05 0.05 0.06 0.03 0.04 0.07 0.07 0.01 0.02 0.06 0.06 0.05 0.04 0.02 0.02 0.07 0.08 0.03 0.03 0.07 0.06 0.06 0.06 0.02 0.02 0.07 0.05 0.02 0.02 0.06 0.06 0.07 0.06 0.01 0.01 0.09 0.06 0 0.01 0.1 0.07 0.03 0.02 0.03 0.03 0.1 0.07 0.03 0.02 0.11 0.08 0.03 0.02 0.12 0.08 0.01 0.01 0.14 0.09 0.01 0 0.14 0.09 0.17 0.1 0.01 0.01 0.03 0.01 0.1 0.06 0.01 0.01 0.07 0.03 0.02 0.02 0.11 0.05 0.02 0.01 0.09 0.05 0.1 0.05 0 0 0.16 0.08 0.03 0.01 0.03 0.02 0 0c0.11,0.05 0.23,0.1 0.34,0.14l0.02 0.01 0.09 0.04 0.11 0.04 0.01 0.01 0.19 0.07 0 0 0.04 0.02 0.12 0.04 0.05 0.02 0.18 0.06 0.03 0.01 0.09 0.03 0.11 0.04 0.01 0c1.74,0.55 3.7,0.78 5.63,0.67l-0.42 0.16c-1.79,0.74 -1.06,1.06 -0.82,1.17 2.65,1.17 8.82,-1.26 8.75,-2.49 -0.02,-0.43 -0.79,-0.33 -2.07,-0.18l0.05 -0.03 0.01 0 0 0 0.01 -0.01c0.11,-0.05 0.22,-0.11 0.33,-0.17l0.01 -0.01 0 0 0.01 0 0.01 -0.01c3.44,-1.92 3.94,-4.94 1.44,-7.17l0.12 0.11 0 0 0.01 0 0 0c0.11,0.11 0.24,0.23 0.36,0.35l0 0 0.01 0.01 0 0.01 0.01 0 0 0 0.01 0.01 0 0 0.01 0.01 0 0 0.14 0.14zm-18.43 3.72c0.02,0.07 0.06,0.14 0.09,0.21zm17.67 -4.57c-0.1,-0.09 -0.21,-0.18 -0.32,-0.26l0.01 0 0.01 0.01 0.01 0.01 0.02 0.01 0.01 0.01 0.01 0.01 0.01 0.01 0.01 0.01 0.01 0.01 0.01 0.01 0.02 0.01 0.01 0.01 0.01 0.01 0.01 0.01 0.01 0.01 0.02 0.01 0.02 0.02 0.01 0.01 0.07 0.06z"/>
   <path class="fil3" d="M25.86 65.49l0 0.01 0 0c0.33,0.38 0.41,0.47 0.65,0.83l0.01 0 0 0.01 0 0 0.01 0.01 0.01 0.01 0 0.01 0.01 0.01 0.2 0.32 0 0.01 0 0.01 0.01 0c0.06,0.13 0.15,0.3 0.22,0.44l0 0 0 0.01 0.01 0.01 0 0 0 0.01 0 0 0.04 0.08 0 0.01 0.01 0.01 0.1 0.27 0.01 0.02 0 0 0 0.01 0 0 0 0 0.01 0.01c0.04,0.14 0.1,0.33 0.14,0.47l0 0.03 0.01 0.02 0.03 0.17 0.01 0.02 0 0.02 0.02 0.12 0 0.01 0 0.01 0 0 0.01 0c0.01,0.12 0.03,0.26 0.04,0.37l0 0.01 0 0 0 0.01 0 0 0 0 0 0.01 0 0.01 0 0.01 0.01 0.3 -0.02 0.43 -0.03 0.22 0 0.01 -0.03 0.15 0 0.01 -0.07 0.3 -0.08 0.28 -0.11 0.28 0 0.01 -0.08 0.17 0 0.01 -0.01 0.02 0 0.01 -0.01 0.01 -0.01 0.01 0 0.01 0 0.01 -0.01 0.01 0 0.01 -0.01 0.01 0 0.01 -0.01 0.01 0 0 0 0.01 -0.18 0.32 0 0 -0.12 0.19 0 0 -0.15 0.23c-0.53,0.72 -1.32,1.39 -2.36,1.97 -4.12,2.3 -10.67,2.23 -14.63,-0.15 -0.88,-0.53 -1.56,-1.13 -2.04,-1.77l-0.01 -0.01 0 -0.01 -0.01 -0.01 -0.01 -0.01 -0.01 -0.01 -0.01 -0.03 -0.01 -0.01 -0.01 -0.01 -0.02 -0.03 -0.01 -0.01 -0.01 -0.01 -0.01 -0.02 0 -0.01 -0.02 -0.02 -0.01 -0.01 -0.13 -0.21 -0.13 -0.24 -0.16 -0.32 -0.11 -0.27 -0.1 -0.32 0 -0.01 -0.03 -0.08 0 -0.02 0 -0.01 0 -0.02 -0.01 -0.01 0 -0.01 0 -0.02 -0.02 -0.05 0 -0.01 0 -0.01 -0.01 -0.02 0 -0.01 0 -0.01 -0.01 -0.01 0 -0.02 0 -0.01 -0.06 -0.4 -0.02 -0.26 0 -0.1 0 -0.34 0 -0.09 0.03 -0.29c0.02,-0.13 0.06,-0.32 0.09,-0.46l0 0 0 -0.01 0 -0.02 0.09 -0.3 0.01 -0.04 0 0 0 -0.01 0.01 -0.01 0 0c0.05,-0.13 0.11,-0.3 0.16,-0.43l0 -0.01 0.01 -0.02 0 0 0 0 0.17 -0.35c0.09,-0.16 0.2,-0.37 0.3,-0.53l0.03 -0.04 0.03 -0.04 0.02 -0.04 0.02 -0.02 -0.01 0.01 0.13 0.01 -0.05 0.11 -0.01 0.01c-0.03,0.07 -0.06,0.14 -0.09,0.21l-0.01 0.02 -0.01 0.01 -0.03 0.09 -0.01 0.02 -0.03 0.1 -0.02 0.04c-0.02,0.07 -0.04,0.14 -0.06,0.21l0 0.01 -0.02 0.08 -0.01 0.03 0 0.03 -0.02 0.08 -0.01 0.02 -0.02 0.12 -0.01 0.1 -0.01 0.07 0 0.02 0 0.08 0 0 -0.01 0.09 0 0.01 0 0.09 0 0.02 0 0.01 0 0.09 0 0.06 0 0.02 0.01 0.08 0.01 0.09 0 0 0 0.07 0.01 0.03 0.01 0.06 0 0.02 0.01 0.07 0.01 0.03 0.02 0.09 0 0.01 0.02 0.08 0 0.01 0.02 0.08 0 0 0.03 0.09 0 0.03 0.05 0.12 0.01 0.04 0.01 0.02 0.02 0.07 0.01 0 0.03 0.09 0.04 0.08 0 0.01 0.04 0.09 0.01 0.02 0.04 0.07 0 0.01 0.04 0.07 0 0.01 0.05 0.07 0 0.01 0.06 0.09 0 0.02 0.05 0.07 0.03 0.04 0.03 0.05 0.05 0.07 0.01 0.02 0.06 0.08 0.01 0.01 0.01 0.02 0.07 0.09 0.01 0.01 0.08 0.1 0.01 0.01 0.09 0.11 0 0c0.06,0.07 0.13,0.13 0.19,0.2l0.02 0.02 0.11 0.1 0 0.01 0.09 0.08 0.02 0.02 0.07 0.06 0.05 0.04 0.04 0.04 0.08 0.07 0.11 0.09 0.02 0.01 0.08 0.07 0.05 0.03 0.02 0.02 0.09 0.07 0.02 0.01 0.03 0.02 0.11 0.08 0 0 0.01 0.01 0.13 0.08 0.02 0.02 0.12 0.07 0.02 0.02 0.03 0.02 0.12 0.07 0.18 0.11 0 0 0.09 0.05 0.09 0.05 0 0 0.1 0.05 0.08 0.04 0.01 0.01 0.1 0.05 0.08 0.04 0.01 0 0.1 0.05 0.03 0.01 0.1 0.05 0.14 0.07 0.02 0 0.15 0.07 0.03 0.01 0.02 0.01 0.1 0.04 0.01 0.01 0.09 0.03 0.1 0.04 0.08 0.03 0.03 0.01 0.1 0.04 0.08 0.03 0.02 0.01 0.11 0.03 0.1 0.04 0.11 0.03 0.07 0.03 0.04 0.01 0.1 0.03 0.08 0.02 0.03 0.01 0.17 0.05 0.01 0.01 0.04 0.01 0.11 0.03 0 0 0.1 0.02 0.01 0.01 0.11 0.02 0.06 0.02 0.05 0.01 0.11 0.03 0.06 0.01 0.05 0.01 0.11 0.03 0.07 0.01 0.05 0.01 0.11 0.03 0.11 0.02 0.11 0.02 0.06 0.01 0.06 0.01 0.11 0.02 0.06 0.01 0.06 0.01 0.11 0.02 0.06 0.01 0 0c0.23,0.03 0.46,0.06 0.69,0.09l0.07 0c0.55,0.06 1.1,0.09 1.65,0.1l-0.32 0.14c-0.43,0.22 -1.73,0.86 -0.29,1.33 4.33,1.41 11.06,-2.45 10.02,-3.76 -0.14,-0.17 -0.42,-0.13 -1.5,0.02l0.02 -0.01 0.05 -0.04 0.08 -0.06 0.04 -0.03 0.09 -0.08 0.03 -0.03 0.09 -0.08 0.04 -0.03 0.06 -0.05 0.07 -0.06 0 -0.01 0.09 -0.08 0.01 -0.02 0.09 -0.09 0.01 0 0.09 -0.11 0.01 -0.01 0.08 -0.09 0.01 0 0.07 -0.09 0.01 -0.02 0.06 -0.07 0.04 -0.04 0.04 -0.06 0.03 -0.04 0.06 -0.09 0.01 -0.02 0.06 -0.08 0.01 -0.02c0.04,-0.06 0.09,-0.13 0.13,-0.2l0.06 -0.11c0.05,-0.1 0.1,-0.2 0.14,-0.29l0.02 -0.05 0.03 -0.07 0.02 -0.04 0.02 -0.07 0.02 -0.05 0.03 -0.07 0.01 -0.04 0.02 -0.08 0 0 0.03 -0.1 0 -0.01 0.03 -0.11 0 0 0.02 -0.11 0.01 -0.07 0.01 -0.06 0 -0.01 0.01 -0.09 0.01 -0.01 0 -0.06 0.01 -0.07 0 -0.06 0 -0.04 0.01 -0.08 0 -0.04 0 -0.08 0 -0.01 -0.01 -0.1 0 -0.01 0 -0.1 0 -0.01 -0.02 -0.11 0 0 -0.01 -0.12 0 -0.01 -0.02 -0.09 0 -0.01 -0.02 -0.07 -0.01 -0.05 -0.01 -0.06 -0.02 -0.07 -0.01 -0.04 -0.03 -0.08 -0.01 -0.03 -0.03 -0.1 -0.01 -0.03c-0.02,-0.07 -0.06,-0.15 -0.09,-0.23l0 0 -0.05 -0.11 -0.01 -0.01 -0.01 -0.04 -0.04 -0.08 -0.01 -0.01 -0.05 -0.1 -0.02 -0.04 -0.05 -0.08 -0.02 -0.04 -0.04 -0.06 -0.04 -0.05 -0.06 -0.09 -0.01 -0.02 -0.06 -0.09 -0.02 -0.02 -0.01 -0.02 -0.08 -0.09 0 -0.01 -0.08 -0.1 -0.01 -0.01 -0.08 -0.1 -0.02 -0.02 -0.02 -0.01 -0.08 -0.1 -0.01 -0.01 -0.08 -0.08 -0.05 -0.05 -0.07 -0.07 -0.02 -0.02 -0.1 -0.1 -0.01 -0.01 -0.03 -0.03 0.09 0.09 0 0 0.01 0 0 0c0.11,0.11 0.24,0.23 0.36,0.35l0 0 0.01 0.01 0 0.01 0.01 0 0 0 0.01 0.01 0 0 0.01 0.01 0 0 0.14 0.14zm0.26 4.45c0.04,-0.06 0.09,-0.13 0.13,-0.2zm-1.14 -4.96l-0.01 0 -0.1 -0.09 -0.01 -0.01 -0.12 -0.09 0.01 0 0.01 0.01 0.01 0.01 0.02 0.01 0.01 0.01 0.01 0.01 0.01 0.01 0.01 0.01 0.01 0.01 0.01 0.01 0.02 0.01 0.01 0.01 0.01 0.01 0.01 0.01 0.01 0.01 0.02 0.01 0.02 0.02 0.01 0.01 0.07 0.06 -0.05 -0.05z"/>
   <path class="fil3" d="M25.86 65.49l0 0.01 0 0c0.33,0.38 0.41,0.47 0.65,0.83l0.01 0 0 0.01 0 0 0.01 0.01 0.01 0.01 0 0.01 0.01 0.01 0.2 0.32 0 0.01 0 0.01 0.01 0c0.06,0.13 0.15,0.3 0.22,0.44l0 0 0 0.01 0.01 0.01 0 0 0 0.01 0 0 0.04 0.08 0 0.01 0.01 0.01 0.1 0.27 0.01 0.02 0 0 0 0.01 0 0 0 0 0.01 0.01c0.04,0.14 0.1,0.33 0.14,0.47l0 0.03 0.01 0.02 0.03 0.17 0.01 0.02 0 0.02 0.02 0.12 0 0.01 0 0.01 0 0 0.01 0c0.01,0.12 0.03,0.26 0.04,0.37l0 0.01 0 0 0 0.01 0 0 0 0 0 0.01 0 0.01 0 0.01 0.01 0.3 -0.02 0.43 -0.03 0.22 0 0.01 -0.03 0.15 0 0.01 -0.07 0.3 -0.08 0.28 -0.11 0.28 0 0.01 -0.08 0.17 0 0.01 -0.01 0.02 0 0.01 -0.01 0.01 -0.01 0.01 0 0.01 0 0.01 -0.01 0.01 0 0.01 -0.01 0.01 0 0.01 -0.01 0.01 0 0 0 0.01 -0.18 0.32 0 0 -0.12 0.19 0 0 -0.15 0.23c-0.53,0.72 -1.32,1.39 -2.36,1.97 -4.12,2.3 -10.67,2.23 -14.63,-0.15 -0.88,-0.53 -1.56,-1.13 -2.04,-1.77l-0.01 -0.01 0 -0.01 -0.01 -0.01 -0.01 -0.01 -0.01 -0.01 -0.01 -0.03 -0.01 -0.01 -0.01 -0.01 -0.02 -0.03 -0.01 -0.01 -0.01 -0.01 -0.01 -0.02 0 -0.01 -0.02 -0.02 -0.01 -0.01 -0.13 -0.21 -0.13 -0.24 -0.16 -0.32 -0.11 -0.27 -0.1 -0.32 0 -0.01 -0.03 -0.08 0 -0.02 0 -0.01 0 -0.02 -0.01 -0.01 0 -0.01 0 -0.02 -0.02 -0.05 0 -0.01 0 -0.01 -0.01 -0.02 0 -0.01 0 -0.01 -0.01 -0.01 0 -0.02 0 -0.01 -0.06 -0.4 -0.02 -0.26 0 -0.1 0 -0.34 0 -0.09 0.03 -0.29c0.02,-0.13 0.06,-0.32 0.09,-0.46l0 0 0 -0.01 0 -0.02 0.09 -0.3 0.01 -0.04 0 0 0 -0.01 0.01 -0.01 0 0c0.05,-0.13 0.11,-0.3 0.16,-0.43l0 -0.01 0.01 -0.02 0 0 0 0 0.07 -0.15 -0.03 0.08c-0.01,0.12 -0.01,0.23 0.22,0.56l0 0.02 0 0.05 0 0.07 0 0.04 0 0.03 0 0.07 0 0 0 0.05 0 0.02 0.01 0.06 0 0.01 0 0.06 0.01 0.06 0 0.01 0.01 0.07 0 0.04 0 0.01 0.02 0.11 0 0.01 0.03 0.11 0 0 0 0.01 0.01 0.05 0.01 0.03 0.01 0.04 0.02 0.07 0.01 0.05 0.01 0.02 0.02 0.07 0.01 0.02 0 0.02 0.03 0.09 0.01 0.01 0 0.01 0.04 0.1 0.01 0.01 0 0.01 0.03 0.07 0.02 0.04 0.01 0.02 0.03 0.07 0.01 0.03 0.01 0.01 0.05 0.09 0 0.02 0.06 0.1 0.01 0.01 0 0.01 0.04 0.06 0.02 0.05 0.02 0.02 0.04 0.06 0.02 0.03 0.02 0.04 0.05 0.07 0.01 0.01 0.03 0.05 0.05 0.06 0 0.01c0.11,0.14 0.24,0.29 0.37,0.44l0 0c0.1,0.1 0.2,0.21 0.31,0.31l0.02 0.01 0.12 0.1 0 0.01 0.11 0.09 0.01 0.01 0.02 0.02c0.07,0.05 0.14,0.11 0.22,0.17l0.02 0.01 0.13 0.1 0 0.01c0.19,0.13 0.39,0.26 0.59,0.38l0.18 0.11 0.05 0.03 0.08 0.04 0.05 0.03 0.03 0.01 0.15 0.08 0 0c0.5,0.26 1.03,0.48 1.59,0.67l0.02 0.01 0.18 0.06 0 0c0.36,0.11 0.72,0.21 1.08,0.29l0.03 0.01c0.21,0.05 0.43,0.09 0.64,0.13l0.03 0.01 0.19 0.03 0 0 0.01 0 0.09 0.01 0.1 0.02 0.04 0.01 0.05 0.01 0.1 0.01 0.08 0.01 0.02 0 0.2 0.03 0.01 0 0.09 0.01 0.09 0.01 0.05 0.01 0.05 0 0.1 0.01 0.1 0.01 0.1 0.01 0.1 0.01 0.01 0 0.09 0.01 -0.06 0.03c-0.46,0.22 -1.84,1 -0.19,1.59 0.73,0.26 1.54,0.37 2.38,0.37zm2.42 -0.29c3.71,-0.83 7.18,-3.29 6.67,-4.73 -0.12,-0.35 -0.48,-0.34 -0.98,-0.32l0.08 -0.11 0.01 -0.02c0.05,-0.07 0.1,-0.15 0.15,-0.22l0 0 0 -0.01 0.07 -0.1 0.01 -0.03 0.05 -0.09 0.01 -0.02 0.06 -0.1 0 -0.01c0.08,-0.16 0.15,-0.33 0.2,-0.49l0.01 0 0.03 -0.12 0.01 -0.01c0.02,-0.07 0.04,-0.15 0.06,-0.23l0 -0.01 0 -0.03 0.02 -0.09 0 -0.01 0.02 -0.12 0 0c0.02,-0.12 0.03,-0.24 0.04,-0.35l0 -0.05 0 -0.02 0 -0.08 0 -0.01 0 -0.1 -0.01 -0.01 0 -0.03 0 -0.08 -0.01 -0.03 -0.01 -0.11 0 -0.01 -0.01 -0.11 0 -0.01 -0.02 -0.06 -0.01 -0.06 0 -0.01 -0.02 -0.11 0 0 0 -0.01 -0.01 -0.01 -0.02 -0.1 -0.01 -0.03 -0.02 -0.08 -0.01 -0.02 -0.01 -0.03 -0.03 -0.09 0 -0.01 -0.01 -0.02 -0.04 -0.09 0 -0.01 -0.02 -0.05 -0.03 -0.07 -0.01 -0.02 -0.04 -0.09 -0.03 -0.05 -0.01 -0.03 -0.03 -0.05 0 -0.02 -0.04 -0.08 -0.02 -0.02 0 -0.01 -0.05 -0.09 -0.02 -0.02 -0.04 -0.07 -0.01 -0.01 -0.04 -0.07 -0.06 -0.09 0 0 -0.06 -0.09 -0.01 0 -0.05 -0.08 -0.01 0 -0.05 -0.06 -0.01 -0.03 -0.07 -0.08 -0.01 -0.01 -0.06 -0.08 -0.04 -0.04 -0.02 -0.02 -0.06 -0.07 -0.02 -0.02 -0.01 -0.01 -0.08 -0.09 -0.02 -0.01 -0.06 -0.07 -0.05 -0.04 -0.02 -0.02 -0.07 -0.07 -0.03 -0.02 -0.01 -0.01 -0.04 -0.04 0.11 0.1 0 0 0.01 0 0 0c0.11,0.11 0.24,0.23 0.36,0.35l0 0 0.01 0.01 0 0.01 0.01 0 0 0 0.01 0.01 0 0 0.01 0.01 0 0 0.14 0.14zm-0.71 -0.67l-0.02 -0.02 -0.07 -0.06 -0.06 -0.05 -0.01 -0.01 -0.12 -0.09 0.01 0 0.01 0.01 0.01 0.01 0.02 0.01 0.01 0.01 0.01 0.01 0.01 0.01 0.01 0.01 0.01 0.01 0.01 0.01 0.02 0.01 0.01 0.01 0.01 0.01 0.01 0.01 0.01 0.01 0.02 0.01 0.02 0.02 0.01 0.01 0.07 0.06 -0.01 -0.01z"/>
   <path class="fil3" d="M9.51 73.75c-0.88,-0.53 -1.56,-1.13 -2.04,-1.77l-0.01 -0.01 0 -0.01 -0.01 -0.01 -0.01 -0.01 -0.01 -0.01 -0.01 -0.03 -0.01 -0.01 -0.01 -0.01 -0.02 -0.03 -0.01 -0.01 -0.01 -0.01 -0.01 -0.02 0 -0.01 -0.02 -0.02 -0.01 -0.01 -0.13 -0.21 -0.13 -0.24 -0.16 -0.32 -0.11 -0.27 -0.1 -0.32 0 -0.01 -0.03 -0.08 0 -0.02 0 -0.01 0 -0.02 -0.01 -0.01 0 -0.01 0 -0.02 -0.02 -0.05 0 -0.01 0 -0.01 -0.01 -0.02 0 -0.01 0 -0.01 -0.01 -0.01 0 -0.02 0 -0.01 -0.06 -0.4 -0.02 -0.26 0 -0.1 0 -0.34 0 -0.09 0.03 -0.29c0.02,-0.13 0.06,-0.32 0.09,-0.46l0 0 0 -0.01 0 -0.02 0.05 -0.17 0.01 -0.02 -0.03 0.12c-0.02,0.35 0.21,0.67 0.67,0.94l0.01 0.05 0.02 0.05 0 0 0.02 0.05 0.01 0.05 0.02 0.05 0.02 0.05 0.02 0.04 0.02 0.05 0.02 0.03 0.01 0.02 0.02 0.05 0.02 0.05 0 0 0.03 0.05 0.02 0.05 0.01 0.02 0.02 0.03 0.02 0.04 0.03 0.04 0 0.01 0.01 0.01 0.05 0.09 0 0.01 0.03 0.04 0.03 0.04 0.02 0.03 0.01 0.02 0.05 0.08 0.02 0.02 0 0 0.03 0.04 0.03 0.05 0.02 0.02 0.02 0.03 0.06 0.08 0 0 0.01 0.01 0.08 0.09 0.01 0.02 0 0c0.06,0.07 0.12,0.14 0.19,0.21l0 0.01 0.09 0.08 0.02 0.02 0 0.01 0.11 0.1 0 0.01 0.09 0.09 0.02 0.01 0.12 0.1 0.01 0.02 0.1 0.08 0.01 0.01c0.08,0.07 0.17,0.14 0.26,0.2l0 0 0 0.01 0.11 0.08 0.02 0.01 0.04 0.03 0.1 0.07 0 0 0.02 0.01 0.06 0.04 0.06 0.04 0.01 0.01 0.11 0.07 0.04 0.03 0.02 0.01 0.07 0.04 0.06 0.04 0.17 0.1 0.01 0.01 0.05 0.03 0.11 0.06 0.01 0 0.01 0.01 0.05 0.02 0.12 0.07 0.01 0 0.01 0.01c0.12,0.06 0.23,0.11 0.34,0.17l0.03 0.01 0.04 0.02c0.11,0.05 0.23,0.1 0.35,0.15l0.03 0.01c0.19,0.08 0.38,0.16 0.58,0.23l0.01 0 0.2 0.07 0 0 0.2 0.07 0 0c0.21,0.06 0.41,0.12 0.62,0.18l0.03 0 0.19 0.05 0.02 0.01 0.22 0.05 0.04 0.01 0.19 0.04 0.03 0.01 0.07 0.01 0.07 0.02 0.05 0.01 0.02 0 0.08 0.02 0.07 0.01 0.05 0.01 0.02 0 0.08 0.02 0.07 0.01 -0.21 0.16c-1.86,1.71 1.82,1.98 2.57,2.01 0.56,0.03 1,0.02 1.25,0.01 -0.17,0.01 -0.34,0.02 -0.51,0.02l-0.02 0c-0.14,0 -0.28,0 -0.42,0l-0.06 0 -0.01 0zm-0.48 -0.01l-0.01 0 -0.14 -0.01 -0.1 0 -0.04 0 -0.14 -0.01 -0.07 -0.01 -0.07 0 -0.14 -0.01 -0.03 -0.01 -0.11 0 -0.14 -0.02 0 0 -0.05 0 -0.19 -0.02 -0.03 0 -0.14 -0.02 -0.08 -0.01 -0.06 -0.01 -0.14 -0.01 -0.11 -0.02 -0.02 0 -0.14 -0.02 -0.01 -0.01 -0.13 -0.02 -0.11 -0.01 -0.02 -0.01 -0.14 -0.02 -0.08 -0.02 -0.05 -0.01 -0.14 -0.02 -0.05 -0.01 -0.08 -0.02 -0.13 -0.03 -0.03 0 0 0 -0.2 -0.05 -0.03 0 -0.01 0 -0.13 -0.04 -0.01 0 -0.12 -0.03 0 0 -0.13 -0.03 -0.06 -0.02 -0.07 -0.02 -0.13 -0.03 -0.09 -0.03 -0.04 -0.01 -0.13 -0.04 0 0 -0.13 -0.03 -0.09 -0.03 -0.03 -0.01 -0.13 -0.04 -0.06 -0.03 -0.06 -0.02 -0.13 -0.04 -0.03 -0.01 -0.01 -0.01 -0.2 -0.07 -0.01 0 -0.19 -0.08 -0.02 -0.01 -0.02 0 -0.12 -0.05 -0.08 -0.03 -0.04 -0.02 -0.12 -0.05 -0.04 -0.02 -0.01 -0.01 -0.18 -0.08 -0.02 0 -0.02 -0.01 -0.18 -0.09 -0.01 0 -0.18 -0.1 -0.01 0 -0.03 -0.02 -0.11 -0.06 -0.05 -0.02 -0.01 -0.01 -0.16 -0.09 -0.02 -0.01 -0.02 -0.01 -0.17 -0.1z"/>
   <path class="fil3" d="M9.51 73.75c-0.88,-0.53 -1.56,-1.13 -2.04,-1.77l-0.01 -0.01 0 -0.01 -0.01 -0.01 -0.01 -0.01 -0.01 -0.01 -0.01 -0.03 -0.01 -0.01 -0.01 -0.01 -0.02 -0.03 -0.01 -0.01 -0.01 -0.01 -0.01 -0.02 0 -0.01 -0.02 -0.02 -0.01 -0.01 -0.13 -0.21 -0.13 -0.24 -0.16 -0.32 -0.11 -0.27 -0.1 -0.32 0 -0.01 -0.03 -0.08 0 -0.02 0 -0.01 0 -0.02 -0.01 -0.01 0 -0.01 0 -0.02 -0.02 -0.05 0 -0.01 0 -0.01 -0.01 -0.02 0 -0.01 0 -0.01 -0.01 -0.01 0 -0.02 0 -0.01 -0.06 -0.4 -0.02 -0.26 0 -0.1 0 -0.34 0.01 -0.11 0.01 -0.19 0 0 0 0c-0.02,0.84 0.66,1.13 1.23,1.23l0.02 0.03 0.02 0.03 0.02 0.04 0.03 0.03 0.02 0.03 0.02 0.03 0 0.01 0.03 0.03 0.02 0.03 0.02 0.04 0.01 0 0.02 0.03c0.05,0.06 0.1,0.13 0.15,0.19l0.01 0.01 0 0 0 0 0.05 0.06 0.03 0.03 0.01 0.02 0.1 0.11 0.01 0 0.09 0.1 0.01 0 0.08 0.09 0.03 0.02 0 0.01 0.07 0.06 0.03 0.03 0.01 0.01 0.03 0.03 0.03 0.03 0.04 0.03 0.02 0.01 0.01 0.02 0.04 0.03 0.03 0.03 0.04 0.03 0 0 0.04 0.03 0.07 0.06 0.02 0.01 0.02 0.02 0.04 0.03 0.03 0.03 0.04 0.02 0 0.01 0.01 0 0.1 0.08 0.01 0.01 0.01 0 0.03 0.03 0.04 0.02 0.04 0.03 0.03 0.02 0.02 0.01 0.04 0.03 0.04 0.03 0.04 0.03 0.01 0 0.15 0.1 0.02 0.01 0.04 0.03 0.05 0.02 0.04 0.03 0.18 0.11 0 0 0.18 0.1 0 0c0.48,0.26 1,0.49 1.55,0.68l0.01 0.01 0.19 0.07 0.02 0 0.02 0.01 0.04 0.01 0.14 0.05 0.03 0.01 0.13 0.04 -0.14 0.15c-0.82,1.22 0.14,2.02 2.87,2.37l-0.07 -0.01 -0.02 0 -0.08 -0.01 -0.1 -0.01 -0.07 -0.01 -0.02 0 -0.1 -0.02 -0.1 -0.01 -0.02 0 -0.07 -0.01 -0.17 -0.03 -0.03 0 -0.09 -0.01 -0.1 -0.02 -0.02 0 -0.07 -0.02 -0.1 -0.01 -0.07 -0.02 -0.02 0 -0.1 -0.02 -0.09 -0.02 -0.03 0 -0.07 -0.02 -0.09 -0.01 -0.08 -0.02 -0.02 0 -0.18 -0.05 -0.03 0 -0.16 -0.04 -0.07 -0.02 -0.02 0 -0.18 -0.05 -0.03 -0.01 -0.01 0 -0.15 -0.04 -0.07 -0.02 -0.02 0 -0.21 -0.07 -0.06 -0.01 -0.16 -0.05 -0.02 -0.01 -0.08 -0.03 -0.09 -0.03 -0.03 -0.01 -0.06 -0.02c-0.2,-0.06 -0.39,-0.14 -0.59,-0.21l0 -0.01 -0.01 0 0 0zm-4.55 -5.85l0.01 -0.03 -0.01 0.03zm3.73 5.49l0 0 -0.19 -0.1 -0.01 0 -0.04 -0.02 -0.15 -0.08 0 0 -0.16 -0.09 -0.03 -0.02 -0.01 0 -0.18 -0.11z"/>
   <path class="fil3" d="M25.86 65.49l0 0.01 0 0c0.33,0.38 0.41,0.47 0.65,0.83l0.01 0 0 0.01 0 0 0.01 0.01 0.01 0.01 0 0.01 0.01 0.01 0.2 0.32 0 0.01 0 0.01 0.01 0c0.06,0.13 0.15,0.3 0.22,0.44l0 0 0 0.01 0.01 0.01 0 0 0 0.01 0 0 0.04 0.08 0 0.01 0.01 0.01 0.1 0.27 0.01 0.02 0 0 0 0.01 0 0 0 0 0.01 0.01c0.04,0.14 0.1,0.33 0.14,0.47l0 0.03 0.01 0.02 0.03 0.17 0.01 0.02 0 0.02 0.02 0.12 0 0.01 0 0.01 0 0 0.01 0c0.01,0.12 0.03,0.26 0.04,0.37l0 0.01 0 0 0 0.01 0 0 0 0 0 0.01 0 0.01 0 0.01 0.01 0.3 -0.02 0.43 -0.03 0.22 0 0.01 -0.03 0.15 0 0.01 -0.07 0.3 -0.08 0.28 -0.11 0.28 0 0.01 -0.08 0.17 0 0.01 -0.01 0.02 0 0.01 -0.01 0.01 -0.01 0.01 0 0.01 0 0.01 -0.01 0.01 0 0.01 -0.01 0.01 0 0.01 -0.01 0.01 0 0 0 0.01 -0.18 0.32 0 0 -0.12 0.19 0 0 -0.15 0.23 -0.01 0.01 -0.02 0.01 0 0.01 -0.01 0.01 -0.01 0.01 -0.02 0.03 -0.01 0.02 0 0 -0.01 0.01 -0.01 0.01 -0.01 0.01 0 0.01 -0.01 0.01 -0.01 0.01 0 0 -0.02 0.02c-0.16,0.21 -0.36,0.41 -0.57,0.61l-0.01 0.02 -0.01 0.01 -0.01 0 -0.01 0.02 -0.02 0.01 0 0 -0.01 0.01 -0.02 0.01 0.05 -0.04c1.13,-1.08 2.39,-3.29 0.8,-3.65 0.03,-0.07 0.05,-0.14 0.07,-0.21l0.01 -0.01c0.02,-0.07 0.04,-0.14 0.05,-0.22l0.01 -0.02 0 -0.01 0.02 -0.11 0 -0.01c0.03,-0.12 0.04,-0.24 0.05,-0.36l0 -0.01 0.01 -0.12 0 0 0 -0.02 0 -0.07 0 -0.04 0 -0.01c0,-0.08 -0.01,-0.16 -0.01,-0.24l0 -0.01c-0.06,-0.66 -0.32,-1.32 -0.78,-1.94l0 0c-0.14,-0.19 -0.3,-0.38 -0.48,-0.56l-0.01 -0.02c-0.09,-0.08 -0.17,-0.16 -0.26,-0.25l0.09 0.09 0 0 0.01 0 0 0c0.11,0.11 0.24,0.23 0.36,0.35l0 0 0.01 0.01 0 0.01 0.01 0 0 0 0.01 0.01 0 0 0.01 0.01 0 0 0.14 0.14zm-0.72 -0.69l-0.01 0 -0.03 -0.03 -0.07 -0.06 -0.03 -0.02 -0.05 -0.04 -0.08 -0.06 0.01 0 0.01 0.01 0.01 0.01 0.02 0.01 0.01 0.01 0.01 0.01 0.01 0.01 0.01 0.01 0.01 0.01 0.01 0.01 0.02 0.01 0.01 0.01 0.01 0.01 0.01 0.01 0.01 0.01 0.02 0.01 0.02 0.02 0.01 0.01 0.07 0.06 -0.02 -0.03z"/>
   <path class="fil3" d="M9.51 73.75c-0.88,-0.53 -1.56,-1.13 -2.04,-1.77l-0.01 -0.01 0 -0.01 -0.01 -0.01 -0.01 -0.01 -0.01 -0.01 -0.01 -0.03 -0.01 -0.01 -0.01 -0.01 -0.02 -0.03 -0.01 -0.01 -0.01 -0.01 -0.01 -0.02 0 -0.01 -0.02 -0.02 -0.01 -0.01 -0.13 -0.21 -0.13 -0.24 -0.16 -0.32 -0.11 -0.27 -0.1 -0.32 0 -0.01 -0.03 -0.08 0 -0.02 0 -0.01 0 -0.02 -0.01 -0.01 0 -0.01 0 -0.02 -0.02 -0.05 0 -0.01 0 -0.01 -0.01 -0.02 0 -0.01 0 -0.01 -0.01 -0.01 0 -0.02 0 -0.01 -0.06 -0.4 -0.02 -0.19 0.02 0.16c0.15,0.76 0.15,0.76 2.66,1.77l0.07 0.04 0.12 0.09 0.07 0.05c0.27,0.23 0.76,0.66 0.83,1.53 0.02,0.29 0.09,1.19 2.24,1.88l0.17 0.05 -0.05 -0.01 0 -0.01 -0.05 -0.01 -0.06 -0.01 -0.1 -0.03 -0.02 -0.01 -0.04 -0.01 -0.16 -0.05 -0.03 -0.01c-0.83,-0.24 -1.6,-0.56 -2.31,-0.94l-0.02 -0.01 -0.17 -0.1 -0.01 0 -0.05 -0.03 -0.13 -0.08zm-2.98 -4.26l0 0 0 0z"/>
   <path class="fil3" d="M25.86 65.49l0 0.01 0 0c0.33,0.38 0.41,0.47 0.65,0.83l0.01 0 0 0.01 0 0 0.01 0.01 0.01 0.01 0 0.01 0.01 0.01 0.2 0.32 0 0.01 0 0.01 0.01 0c0.06,0.13 0.15,0.3 0.22,0.44l0 0 0 0.01 0.01 0.01 0 0 0 0.01 0 0 0.04 0.08 0 0.01 0.01 0.01 0.1 0.27 0.01 0.02 0 0 0 0.01 0 0 0 0 0.01 0.01c0.04,0.14 0.1,0.33 0.14,0.47l0 0.03 0.01 0.02 0.03 0.17 0.01 0.02 0 0.02 0.02 0.12 0 0.01 0 0.01 0 0 0.01 0c0.01,0.12 0.03,0.26 0.04,0.37l0 0.01 0 0 0 0.01 0 0 0 0 0 0.01 0 0.01 0 0.01 0.01 0.3 -0.02 0.43 -0.01 0.06 0.01 -0.1c0.07,-1 -0.19,-1.35 -0.65,-1.62l0 -0.05 0 -0.03 0 -0.08 -0.01 -0.02 0 -0.01 0 -0.08 0 -0.04 -0.01 -0.02 -0.01 -0.1 0 0 0 -0.01 -0.01 -0.06 0 -0.05 0 -0.01 -0.01 -0.01 -0.01 -0.09 -0.01 -0.02 0 -0.01 -0.02 -0.11 0 -0.01 -0.01 -0.02 -0.01 -0.05 -0.02 -0.05 0 -0.01 -0.03 -0.11 0 0 -0.04 -0.11 0 -0.02 -0.02 -0.03c-0.02,-0.07 -0.05,-0.14 -0.08,-0.2l0 -0.01 0 -0.01 -0.04 -0.09 -0.03 -0.05 -0.04 -0.08 -0.01 -0.01 0 -0.01 -0.04 -0.08 -0.02 -0.03 -0.01 -0.03 -0.06 -0.09 0 0 -0.01 -0.01 -0.03 -0.06 -0.03 -0.05 -0.02 -0.03 -0.05 -0.08 -0.01 -0.01 -0.03 -0.04 -0.04 -0.05 0 -0.01 -0.03 -0.04 0 0 -0.04 -0.05 -0.04 -0.04 0 -0.02 -0.05 -0.05 -0.04 -0.05 0 0 -0.04 -0.05 -0.05 -0.05 -0.01 -0.02 -0.03 -0.03c-0.05,-0.06 -0.1,-0.11 -0.16,-0.17l-0.03 -0.03 -0.05 -0.05 -0.05 -0.05 0 0 0 0 -0.1 -0.1 -0.02 -0.01 -0.03 -0.04 0.09 0.09 0 0 0.01 0 0 0c0.11,0.11 0.24,0.23 0.36,0.35l0 0 0.01 0.01 0 0.01 0.01 0 0 0 0.01 0.01 0 0 0.01 0.01 0 0 0.14 0.14zm1.54 4.19l0 0.02 0 -0.02zm0 0.02l0 0.01 0 -0.01zm-2.25 -4.88l-0.05 -0.04 -0.05 -0.05 -0.05 -0.04 -0.01 -0.01 -0.12 -0.09 0.01 0 0.01 0.01 0.01 0.01 0.02 0.01 0.01 0.01 0.01 0.01 0.01 0.01 0.01 0.01 0.01 0.01 0.01 0.01 0.02 0.01 0.01 0.01 0.01 0.01 0.01 0.01 0.01 0.01 0.02 0.01 0.02 0.02 0.01 0.01 0.07 0.06z"/>
   <path class="fil3" d="M25.86 65.49l0 0.01 0 0c0.33,0.38 0.41,0.47 0.65,0.83l0.01 0 0 0.01 0 0 0.01 0.01 0.01 0.01 0 0.01 0.01 0.01 0.2 0.32 0 0.01 0 0.01 0.01 0c0.06,0.13 0.15,0.3 0.22,0.44l0 0 0 0.01 0.01 0.01 0 0 0 0.01 0 0 0.04 0.08 0 0.01 0.01 0.01 0.1 0.27 0 0 0 -0.02c-0.18,-0.43 -0.34,-0.65 -0.85,-1.35l-0.01 -0.01 0 0 -0.01 -0.02 -0.01 -0.02 -0.01 -0.02 -0.03 -0.05 0 0 -0.01 -0.01 0 -0.01 -0.01 -0.01 -0.01 -0.02 -0.01 -0.02 -0.01 -0.02 -0.02 -0.01 -0.01 -0.02 -0.01 -0.02 -0.01 -0.02 -0.01 -0.01 -0.01 -0.02 -0.01 -0.02 -0.02 -0.02 -0.01 -0.01 0 -0.01 -0.01 -0.01 -0.01 -0.02 -0.01 -0.01 -0.02 -0.02 -0.01 -0.02 -0.01 -0.02 -0.04 -0.05 -0.01 -0.02 -0.02 -0.01 -0.01 -0.02 -0.01 -0.02 -0.02 -0.01 0 0 -0.01 -0.02 -0.01 -0.02 -0.02 -0.01 -0.01 -0.02 -0.01 -0.02 -0.02 -0.02 -0.03 -0.03 -0.01 -0.02 -0.01 -0.01 -0.02 -0.02 -0.01 -0.02 -0.02 -0.01 -0.01 -0.02 -0.02 -0.02 -0.01 -0.01 -0.02 -0.02 -0.01 -0.02 -0.02 -0.01 -0.01 -0.02 -0.04 -0.03 -0.01 -0.02 -0.02 -0.02 -0.08 -0.08 -0.03 -0.03 -0.11 -0.12 0.01 0.02 0.31 0.29 0.01 0.01 0 0 0.01 0.01 0.01 0.01 0.01 0.01 0.01 0.01 0.01 0.01 0.01 0.01 0.01 0.01 0.01 0.01 0.01 0.01 0.01 0.01 0.01 0.02 0.02 0.01 0.01 0.01 0.01 0.01 0.01 0.02 0.06 0.05zm1.28 2.07l0.01 0.02 0 0 0 0.01 0.01 0.02 -0.01 -0.02zm0.01 0.02l0.01 0.02 -0.01 -0.02z"/>
   <path class="fil3" d="M23.47 73.37c-0.42,1.11 -5.94,2.21 -6.09,1.21 -0.1,-0.68 5.37,-2 6.03,-1.46l0.06 0.25z"/>
   <path class="fil3" d="M22.83 73.64c-0.57,0.89 -4.85,1.67 -4.97,0.92 -0.09,-0.57 4.45,-1.65 4.96,-1.18l0.07 0.11 -0.06 0.15z"/>
   <path class="fil3" d="M22.27 73.85c-0.62,0.68 -3.82,1.22 -3.94,0.68 -0.11,-0.48 3.5,-1.35 3.98,-0.96l0.06 0.12 -0.1 0.16z"/>
   <path class="fil3" d="M21.64 74.05c-0.66,0.5 -2.67,0.74 -2.76,0.43 -0.13,-0.46 2.58,-0.89 2.85,-0.72l0.08 0.12 -0.17 0.17z"/>
   <path class="fil3" d="M20.61 74.32c-0.38,0.14 -0.47,0.13 -1.06,0.07 0.19,-0.15 0.49,-0.31 0.73,-0.36 0.2,-0.03 0.47,-0.06 0.67,-0.05l0.2 0.08c-0.16,0.08 -0.37,0.2 -0.54,0.26z"/>
   <path class="fil4" d="M9.91 64.04l0.98 0.35c-1.54,0.93 -2.32,2.14 -2.34,3.34l-1.36 0.19c0.02,-1.4 0.93,-2.8 2.72,-3.88z"/>
   <path class="fil4" d="M7.19 67.92l1.36 -0.19c-0.01,1.1 0.61,2.2 1.88,3.11l-1.06 0.69c-1.47,-1.05 -2.2,-2.33 -2.18,-3.61z"/>
   <path class="fil4" d="M9.37 71.53l1.06 -0.69c0.15,0.1 0.3,0.2 0.47,0.3 1.58,0.96 3.68,1.45 5.8,1.49l-0.05 0.98c-2.46,-0.04 -4.9,-0.62 -6.74,-1.73 -0.19,-0.11 -0.37,-0.23 -0.54,-0.35z"/>
   <path class="fil4" d="M16.65 73.61l0.05 -0.98c2.19,0.04 4.4,-0.42 6.1,-1.37 2.87,-1.6 3.37,-4.08 1.44,-5.98l1.18 -0.21c2.24,2.21 1.66,5.1 -1.67,6.95 -1.98,1.11 -4.55,1.63 -7.1,1.59z"/>
   <path class="fil4" d="M25.42 65.07l-1.18 0.21c-0.33,-0.32 -0.72,-0.63 -1.19,-0.91l0.98 -0.36c0.55,0.33 1.01,0.68 1.39,1.06z"/>
   <path class="fil3" d="M5.25 85.04c-2.25,-1.36 -3.73,-3.01 -4.51,-5.05 -1.43,-3.71 -0.4,-6.05 -0.06,-6.82 -1.54,3.23 -0.19,6.83 4.1,9.41 6.47,3.89 17.19,4 23.93,0.24 4.67,-2.6 6.21,-6.37 4.58,-9.74 0.33,0.77 0.83,1.94 0.68,3.75 -0.21,2.39 -1.01,3.82 -1.39,4.51 -0.65,1.16 -2.38,3.36 -6.72,5.05 -5.37,2.04 -12.33,2.04 -17.68,0.05 -1.21,-0.49 -1.88,-0.76 -2.93,-1.4z"/>
   <path class="fil2" d="M25.28 66.94l-0.09 -0.32 -0.17 -0.62c-0.07,-0.26 -0.16,-0.61 -0.23,-0.88l-0.29 -1.11c-0.1,-0.4 -0.22,-0.93 -0.32,-1.33l-0.33 -1.49c-0.11,-0.5 -0.25,-1.17 -0.35,-1.66l-0.34 -1.76c-0.1,-0.56 -0.22,-1.32 -0.32,-1.88l-0.28 -1.89c-0.08,-0.59 -0.16,-1.39 -0.23,-1.99l-0.16 -1.87c-0.04,-0.6 -0.06,-1.4 -0.09,-2l0.01 -1.69c0.02,-0.57 0.09,-1.32 0.13,-1.89l0.19 -1.28c0.13,-0.63 0.14,-0.67 0.42,-1.53l0.25 -0.56 -0.02 -0.06 -0.36 0.23 -0.22 0.15c-0.25,0.14 -0.51,0.27 -0.78,0.38 -2.85,1.24 -6.77,1.24 -9.6,0.03 -0.15,-0.06 -0.33,-0.15 -0.47,-0.22l-0.39 -0.21c-0.38,-0.23 -0.38,-0.23 -0.54,-0.3l0.01 0.04c0.21,0.38 0.22,0.44 0.5,1.31l0.18 0.78c0.1,0.52 0.18,1.22 0.25,1.74l0.1 1.42c0.02,0.58 0.01,1.35 0.01,1.93l-0.07 1.76 -0.14 1.69 -0.2 1.88c-0.54,4.29 -1.42,8.81 -2.71,13.82l-0.08 0.28c0.03,1.19 0.81,2.38 2.35,3.3 0.34,0.21 0.7,0.39 1.08,0.55 2.96,1.26 7.04,1.26 10.01,-0.03 0.28,-0.12 0.55,-0.25 0.81,-0.4 2.08,-1.16 2.92,-2.79 2.48,-4.32z"/>
   <path class="fil0" d="M4.8 89.79c-2.84,-1.71 -4.39,-3.87 -4.67,-6.06l0.04 0.08c0.13,0.32 0.42,0.26 1,0.13 0.27,-0.06 0.53,-0.18 0.82,-0.22l0.29 0.06 0 -0.02c0.74,1.01 1.8,1.95 3.19,2.79 0.35,0.21 0.72,0.41 1.1,0.6l-0.09 -0.02c0.01,0.06 0.03,0.18 -0.01,0.62 -0.16,1.47 -0.01,2.14 0.34,2.89l0.18 0.25c-0.77,-0.32 -1.51,-0.69 -2.19,-1.1z"/>
   <path class="fil4" d="M1.19 79.32l6.13 -7.56c0.48,0.72 1.21,1.4 2.19,1.99 0.8,0.48 1.7,0.87 2.68,1.16l-3.03 9.56c-1.59,-0.47 -3.07,-1.11 -4.38,-1.89 -1.61,-0.97 -2.8,-2.08 -3.59,-3.26z"/>
   <path class="fil5" d="M23.39 74.28c-0.54,0.25 -1.1,0.46 -1.69,0.63 -0.63,0.19 -1.27,0.34 -1.94,0.45l1.79 9.84c1.08,-0.17 2.14,-0.41 3.16,-0.72 0.97,-0.29 1.89,-0.63 2.77,-1.03l-4.09 -9.17z"/>
   <path class="fil0" d="M0.14 85.76l-0.01 -2.04c0.28,2.2 1.83,4.36 4.67,6.07 0.69,0.41 1.42,0.78 2.2,1.11l0.01 2.04c-0.78,-0.33 -1.52,-0.7 -2.2,-1.12 -2.84,-1.71 -4.4,-3.86 -4.67,-6.06z"/>
   <path class="fil4" d="M9.51 73.75c-0.88,-0.53 -1.56,-1.13 -2.04,-1.77l-0.13 -0.19 -0.15 -0.23 -0.13 -0.24 -0.16 -0.32 -0.11 -0.27 -0.11 -0.36 -0.07 -0.29 -0.06 -0.4 -0.03 -0.31 0.01 -0.44 0.03 -0.28 -0.01 0.03c-0.03,0.84 0.65,1.13 1.23,1.23 0.45,0.71 1.16,1.39 2.13,1.97 0.75,0.45 1.59,0.81 2.49,1.09l-0.14 0.15c-0.82,1.23 0.15,2.03 2.9,2.37 -2.09,-0.21 -4.07,-0.79 -5.65,-1.74z"/>
   <path class="fil5" d="M21.64 74.05c-0.66,0.5 -2.67,0.74 -2.76,0.43 -0.13,-0.46 2.58,-0.89 2.85,-0.72l0.08 0.12 -0.17 0.17z"/>
   <path class="fil0" d="M28.27 85.28c-0.4,0.22 -1.06,0.58 -2.41,1.11 -5.37,2.04 -12.33,2.04 -17.68,0.05 -0.31,-0.13 -0.73,-0.3 -1.05,-0.43 -0.57,-0.27 -1.32,-0.66 -1.88,-0.97l-0.83 -0.54c-1.24,-0.94 -1.57,-1.22 -2.49,-2.35l-0.35 -0.5c-0.14,-0.25 -0.34,-0.57 -0.47,-0.82l-0.2 -0.41c-0.06,-0.16 -0.15,-0.36 -0.21,-0.51l-0.13 -0.37 -0.13 -0.41 -0.09 -0.34 -0.09 -0.38 -0.07 -0.35 -0.07 -0.37 -0.05 -0.37 -0.04 -0.38 -0.02 -0.42c0,-0.14 -0.01,-0.32 -0.01,-0.46l0.03 -0.52 0.03 -0.24 -0.03 0.3c0,0.38 0,0.65 0.13,1.21 0.37,2.09 1.91,4.13 4.62,5.77 1.19,0.72 2.53,1.3 3.96,1.76 3.41,3.31 3.55,3.44 7.54,3.54 6.55,0.17 10.77,-1.82 12.7,-3.02 -0.21,0.12 -0.49,0.3 -0.71,0.42z"/>
   <path class="fil4" d="M13.85 49.69c-0.18,7.34 -1.51,14.57 -2.17,21.87 -0.27,-0.13 -0.53,-0.27 -0.78,-0.42 -1.09,-0.65 -1.8,-1.44 -2.13,-2.27l0.07 -0.28c2.24,-9.67 3.18,-17.1 2.87,-22.7l-0.13 -1.38 -0.19 -1.19 -0.18 -0.78c-0.28,-0.87 -0.29,-0.93 -0.5,-1.31l-0.01 -0.04c0.16,0.07 0.16,0.07 0.54,0.3l0.39 0.21c0.14,0.07 0.32,0.16 0.47,0.22 1.26,0.54 1.72,3.7 1.75,7.77z"/>
   <path class="fil5" d="M17.31 72.63c0,0 0.1,-23.42 1.17,-25.47 1.07,-2.05 2.03,-1.71 2.65,6.19 0.62,7.91 2.66,17.26 2.66,17.26 0,0 -1.57,1.68 -6.48,2.02z"/>
   <path class="fil5" d="M25.68 87.91c0,0 -2.13,0.83 -3.44,1.05 -1.31,0.22 -3.91,0.51 -3.91,0.51 0,0 -0.4,0.34 -0.23,0.91 0.17,0.57 1.47,1.68 4.39,1.12 2.93,-0.57 3.56,-2.17 3.65,-2.74 0.09,-0.57 -0.46,-0.85 -0.46,-0.85z"/>
   <path class="fil5" d="M28.41 82.97c0,0 -1.24,1.53 -5.18,2.44 -3.94,0.91 -6.47,0.31 -6.47,0.31 0,0 7.05,0.1 11.65,-2.75z"/>
   <path class="fil4" d="M27.51 22.37l-2.39 0.61c-4.38,-2.64 -11.63,-2.71 -16.19,-0.17 -4.56,2.55 -4.71,6.75 -0.33,9.38 4.37,2.63 11.62,2.71 16.19,0.16 4.56,-2.54 4.71,-6.74 0.33,-9.37l2.39 -0.61c5.65,3.4 5.45,8.81 -0.43,12.09 -5.88,3.28 -15.23,3.19 -20.87,-0.21 -5.65,-3.4 -5.45,-8.81 0.43,-12.09 5.88,-3.28 15.23,-3.19 20.87,0.21z"/>
   <path class="fil6" d="M5.8 37.54c-0.05,-0.46 -0.11,-0.93 -0.16,-1.4 0.17,1.48 1.2,2.92 3.11,4.07 4.31,2.59 11.44,2.67 15.93,0.16 2.12,-1.18 3.27,-2.72 3.45,-4.29 -0.05,0.46 -0.11,0.93 -0.16,1.4 -0.17,1.55 -1.31,3.07 -3.39,4.23 -4.43,2.47 -11.46,2.4 -15.71,-0.16 -1.88,-1.13 -2.9,-2.55 -3.07,-4.01z"/>
   <path class="fil2" d="M25.57 20.55l-2.19 -0.18c-3.46,-2.09 -9.19,-2.15 -12.79,-0.13 -3.61,2 -3.73,5.32 -0.27,7.4 3.46,2.08 9.19,2.14 12.79,0.13 3.6,-2.01 3.72,-5.32 0.27,-7.4l2.19 0.18c4.61,2.78 4.45,7.21 -0.36,9.89 -4.81,2.68 -12.45,2.61 -17.07,-0.17 -4.62,-2.78 -4.46,-7.21 0.35,-9.89 4.81,-2.69 12.46,-2.61 17.08,0.17z"/>
   <path class="fil0" d="M5.57 28.73c-0.2,-0.71 -0.41,-1.41 -0.62,-2.11 0.39,1.33 1.45,2.6 3.19,3.65 4.62,2.78 12.26,2.85 17.07,0.17 1.95,-1.09 3.14,-2.46 3.55,-3.89 -0.2,0.7 -0.41,1.41 -0.61,2.11 -0.39,1.36 -1.52,2.66 -3.36,3.69 -4.57,2.55 -11.82,2.47 -16.19,-0.16 -1.65,-0.99 -2.65,-2.2 -3.03,-3.46z"/>
   <path class="fil3" d="M7.86 24.58c-0.13,-0.66 -0.25,-1.33 -0.37,-1.99 0.21,1.15 1.06,2.28 2.56,3.18 3.6,2.17 9.56,2.23 13.31,0.14 1.67,-0.94 2.62,-2.14 2.84,-3.38l-0.36 2c-0.21,1.19 -1.12,2.35 -2.73,3.24 -3.6,2.01 -9.33,1.95 -12.79,-0.13 -1.44,-0.86 -2.26,-1.95 -2.46,-3.06z"/>
   <path class="fil6" d="M6.08 12.06c0.54,0.69 1.28,1.34 2.24,1.92 4.5,2.7 11.94,2.78 16.63,0.17 1.13,-0.64 2,-1.37 2.6,-2.15 -0.76,0.99 -1.52,1.98 -2.28,2.96 -0.47,0.62 -1.16,1.19 -2.05,1.69 -3.68,2.06 -9.54,2 -13.08,-0.13 -0.76,-0.45 -1.34,-0.97 -1.77,-1.51 -0.76,-0.98 -1.52,-1.97 -2.29,-2.95z"/>
   <path class="fil2" d="M28.27 5.15c-6.07,-3.65 -16.12,-3.76 -22.45,-0.23 -6.33,3.53 -6.54,9.35 -0.47,13.01 6.08,3.65 16.13,3.76 22.46,0.23 6.33,-3.53 6.53,-9.36 0.46,-13.01z"/>
   <path class="fil3" d="M25.99 13.49l-0.03 0.01c-0.31,0.23 -0.65,0.44 -1.01,0.64 -3.04,1.69 -7.22,2.26 -11.02,1.71 -0.43,-0.06 -0.86,-0.13 -1.28,-0.23 -1.59,-0.34 -3.07,-0.89 -4.33,-1.64 -0.24,-0.15 -0.46,-0.29 -0.67,-0.44l0 -0.01c-3.79,-2.71 -3.42,-6.71 1.02,-9.18 4.68,-2.62 12.13,-2.54 16.62,0.16 4.14,2.49 4.34,6.34 0.7,8.98z"/>
   <path class="fil0" d="M28.29 7.77c-0.17,-0.46 -0.42,-0.9 -0.75,-1.33 -0.54,-0.69 -1.29,-1.35 -2.25,-1.92l-1.79 4.55c0.75,0.46 1.34,0.97 1.76,1.52 0.27,0.34 0.46,0.69 0.6,1.04 0.12,0.34 0.19,0.68 0.21,1.02l2.49 -3.59c-0.02,-0.43 -0.11,-0.87 -0.27,-1.29z"/>
   <path class="fil5" d="M10.36 3.56c-0.23,0.09 -0.45,0.18 -0.67,0.28 -0.27,0.12 -0.53,0.24 -0.79,0.38l-0.23 0.13c-0.31,0.17 -0.6,0.35 -0.87,0.53l1.93 4.48c0.21,-0.15 0.44,-0.28 0.68,-0.42l0.18 -0.1c0.21,-0.11 0.41,-0.21 0.62,-0.3 0.18,-0.08 0.35,-0.15 0.53,-0.22 0.16,-0.06 0.33,-0.12 0.5,-0.18l-1.25 -4.8c-0.21,0.07 -0.43,0.14 -0.63,0.22z"/>
   <path class="fil2" d="M25.99 13.49c-0.32,0.22 -0.67,0.44 -1.04,0.65 -4.69,2.61 -12.13,2.54 -16.63,-0.16 -0.24,-0.15 -0.46,-0.29 -0.67,-0.45 -0.15,-0.64 -0.1,-1.29 0.15,-1.93 0.46,-1.12 1.11,-2.16 1.92,-3.1 1.12,-1.28 2.26,-1.97 2.71,-2.21 0.29,-0.16 0.67,-0.35 0.98,-0.48 0.57,-0.23 1.02,-0.35 1.02,-0.35 0.48,-0.12 0.73,-0.18 1.28,-0.26 0.59,-0.07 1.19,-0.07 1.2,-0.07 1.14,0.02 1.85,0.2 2.49,0.38 0.42,0.13 1.08,0.36 1.9,0.83l0.19 0.1c0.15,0.1 0.36,0.23 0.51,0.33 0.22,0.16 0.5,0.37 0.7,0.54 0.67,0.56 1.08,1.02 1.19,1.15 0.36,0.43 0.7,0.84 1.12,1.5 0.43,0.7 0.7,1.3 0.82,1.59 0.25,0.63 0.31,1.29 0.16,1.94z"/>
   <path class="fil3" d="M27.81 18.16c-0.84,0.46 -1.75,0.87 -2.7,1.21l-0.02 0c-6.23,2.22 -14.48,1.73 -19.74,-1.44 -2.03,-1.22 -3.36,-2.69 -3.99,-4.23 0.29,0.7 0.7,1.4 1.33,2.21 1.12,1.47 2.9,3.2 3.76,4.04 0.21,0.21 0.41,0.42 0.6,0.63l0.14 0.16 0.2 0.25 0.13 0.19 0.03 0.04c-0.04,0.15 -0.07,0.31 -0.1,0.48l-0.02 0.32c0.01,0.96 0.45,1.92 1.32,2.77 0.29,0.28 0.63,0.55 1.02,0.8l0.28 0.18c0.18,0.11 0.36,0.21 0.55,0.3 0.18,0.09 0.36,0.17 0.54,0.25l0.26 0.12c0.33,0.13 0.67,0.26 1.02,0.36l0.03 0.01c0.83,0.25 1.7,0.43 2.6,0.53 0.14,0.01 0.29,0.03 0.43,0.04l-0.15 -0.02c0.85,0.08 1.72,0.09 2.57,0.03l0.2 -0.01c0.23,-0.02 0.46,-0.04 0.69,-0.07l0.34 -0.05 0.37 -0.05c0.2,-0.04 0.41,-0.08 0.6,-0.12l0.27 -0.06c0.18,-0.05 0.37,-0.09 0.55,-0.14l0.17 -0.05c0.22,-0.07 0.45,-0.14 0.67,-0.22l0.17 -0.06c0.22,-0.08 0.44,-0.17 0.65,-0.27l0.12 -0.05c0.23,-0.11 0.45,-0.22 0.66,-0.33 0.27,-0.15 0.51,-0.31 0.74,-0.47l0.21 -0.15c0.22,-0.17 0.42,-0.34 0.6,-0.52l0.04 -0.02c1.11,-1.1 1.51,-2.38 1.19,-3.6l0.04 -0.06 0.18 -0.24 0.17 -0.22c0.12,-0.14 0.28,-0.32 0.41,-0.45l0.28 -0.29 0 0c1.7,-1.66 2.96,-3.03 3.75,-4.07 0.16,-0.22 0.61,-0.8 0.98,-1.51 0.18,-0.33 0.3,-0.62 0.34,-0.72l0.08 -0.23c-0.62,1.77 -2.15,3.45 -4.56,4.8z"/>
   <path class="fil6" d="M1.36 13.7c-0.09,-0.22 -0.16,-0.45 -0.23,-0.67 0.06,0.22 0.14,0.45 0.23,0.67z"/>
   <polygon class="fil6" points="32.37,13.36 32.45,13.11 "/>
   <polygon class="fil6" points="32.45,13.11 32.5,12.94 "/>
   <path class="fil3" d="M6.1 33.78c0.28,-0.53 0.56,-1.06 0.84,-1.59 -1.07,2.02 1.12,0.8 3.82,2.42 3.97,2.39 8.56,2.68 12.7,0.37 2.93,-1.64 4.47,-0.74 3.34,-2.84 0.28,0.52 0.57,1.05 0.85,1.58 1.22,2.28 0.22,4.88 -2.97,6.65 -4.49,2.51 -11.62,2.43 -15.93,-0.16 -2.93,-1.76 -3.8,-4.24 -2.65,-6.43z"/>
   <path class="fil0" d="M2.1 29.99l0 -1.64c0,2.12 1.37,4.25 4.11,5.9 5.64,3.4 14.99,3.49 20.87,0.21 3.03,-1.69 4.55,-3.94 4.54,-6.19l0.01 1.64c0,2.25 -1.52,4.5 -4.54,6.19 -5.89,3.28 -15.23,3.19 -20.88,-0.21 -2.74,-1.65 -4.1,-3.77 -4.11,-5.9z"/>
   <path class="fil0" d="M5.68 34.78c-0.09,-0.19 -0.17,-0.39 -0.26,-0.59 -0.08,-0.2 -0.17,-0.39 -0.25,-0.59 0.49,1.14 1.49,2.23 2.99,3.13 4.62,2.78 12.26,2.86 17.06,0.18 1.71,-0.96 2.84,-2.13 3.36,-3.38 -0.16,0.4 -0.33,0.79 -0.5,1.19 -0.5,1.19 -1.58,2.31 -3.21,3.22 -4.6,2.57 -11.91,2.5 -16.32,-0.16 -1.45,-0.87 -2.4,-1.9 -2.87,-3z"/>
   <path class="fil0" d="M5.8 37.54c-0.05,-0.46 -0.11,-0.93 -0.16,-1.4 0.17,1.48 1.2,2.92 3.11,4.07 4.31,2.59 11.44,2.67 15.93,0.16 2.12,-1.18 3.27,-2.72 3.45,-4.29 -0.05,0.46 -0.11,0.93 -0.16,1.4 -0.17,1.55 -1.31,3.07 -3.39,4.23 -4.43,2.47 -11.46,2.4 -15.71,-0.16 -1.88,-1.13 -2.9,-2.55 -3.07,-4.01z"/>
   <path class="fil0" d="M6.23 37.84l0.83 -1.9c0.48,0.79 1.25,1.54 2.32,2.18 0.25,0.15 0.52,0.3 0.79,0.43l-0.56 2.12c-0.3,-0.14 -0.59,-0.29 -0.86,-0.46 -1.16,-0.7 -2,-1.51 -2.52,-2.37z"/>
   <path class="fil5" d="M21.83 39.22c-0.18,0.06 -0.36,0.11 -0.55,0.17 -0.66,0.18 -1.34,0.31 -2.04,0.41l0.21 2.23c0.75,-0.11 1.49,-0.25 2.21,-0.45 0.2,-0.05 0.4,-0.11 0.6,-0.18l-0.43 -2.18z"/>
   <path class="fil0" d="M5.8 37.54l-0.16 -1.4c0.17,1.48 1.2,2.92 3.11,4.07 0.52,0.32 1.09,0.59 1.69,0.84l0.09 1.32c-0.59,-0.23 -1.15,-0.51 -1.66,-0.82 -1.88,-1.13 -2.9,-2.55 -3.07,-4.01z"/>
   <path class="fil0" d="M5.57 28.73l-0.62 -2.11c0.39,1.33 1.45,2.6 3.19,3.65 0.7,0.42 1.46,0.78 2.28,1.07l0.34 1.87c-0.77,-0.28 -1.5,-0.62 -2.16,-1.02 -1.65,-0.99 -2.65,-2.2 -3.03,-3.46z"/>
   <path class="fil0" d="M7.86 24.58l-0.37 -1.99c0.21,1.15 1.06,2.28 2.56,3.18 0.48,0.29 0.99,0.54 1.54,0.75l0.21 1.84c-0.52,-0.2 -1.02,-0.44 -1.48,-0.72 -1.44,-0.86 -2.26,-1.95 -2.46,-3.06z"/>
   <path class="fil0" d="M2.14 30.6l0 -1.64c0.24,1.92 1.59,3.8 4.07,5.29 0.6,0.36 1.24,0.68 1.92,0.97l0 1.64c-0.67,-0.29 -1.32,-0.61 -1.92,-0.97 -2.48,-1.49 -3.83,-3.37 -4.07,-5.29z"/>
   <path class="fil0" d="M12.76 23.31c-0.01,0.05 -1.07,4.45 -3.92,1.36 0.23,-0.4 0.64,-1.79 -2.39,-4.72 0.46,0.44 1.01,0.87 1.66,1.26 1.34,0.8 2.94,1.38 4.65,1.73l0 0.31 0 0.06z"/>
   <path class="fil5" d="M22.36 26.18c-0.81,0.55 -3.78,1.36 -5.06,0.93 0.52,-0.25 4.6,-1.28 5.32,-1.18l-0.26 0.25z"/>
   <path class="fil0" d="M12.76 22.94c-1.71,-0.35 -3.31,-0.93 -4.65,-1.73 -0.65,-0.39 -1.2,-0.82 -1.66,-1.26 -0.15,-0.15 -0.34,-0.34 -0.49,-0.48l-0.45 -0.45 -0.43 -0.43 -0.38 -0.4 -0.36 -0.37 -0.33 -0.36 -0.31 -0.34 -0.28 -0.32 -0.26 -0.31 -0.24 -0.29 -0.23 -0.29 -0.21 -0.28 -0.2 -0.28 -0.19 -0.28 -0.19 -0.3 -0.18 -0.31 -0.17 -0.33 -0.17 -0.37 -0.12 -0.33 -0.13 -0.4c0.49,1.78 1.9,3.5 4.22,4.9 0.89,0.53 1.86,0.99 2.88,1.37l0.2 0.08c1.19,0.48 2.98,1.21 4.33,3.56z"/>
   <path class="fil3" d="M25.99 13.49l-0.01 0.06 -0.02 -0.05 -0.01 -0.03c-2.09,-5.27 -8.39,-6.07 -11.26,0.2 -0.25,0.54 -0.54,1.32 -0.76,2.18 -0.43,-0.06 -0.86,-0.13 -1.28,-0.23 -1.59,-0.34 -3.07,-0.89 -4.33,-1.64 -0.24,-0.15 -0.46,-0.29 -0.67,-0.44l0 -0.01 -0.01 -0.04 -0.03 -0.14 -0.02 -0.1 0 -0.07c-0.04,-0.33 -0.03,-0.66 0.03,-0.99l0.02 -0.02c0.74,-1.04 1.28,-1.79 5.29,-2.99 3.52,-1.05 4.97,-1.49 5.45,-3.04 1.33,-0.38 2.34,-0.16 3.11,0.3 0.36,0.23 0.64,0.4 1.21,0.87l0.48 0.42c0.21,0.22 0.5,0.51 0.71,0.73l0.38 0.46c0.14,0.18 0.32,0.42 0.45,0.61l0.29 0.43c0.08,0.15 0.2,0.34 0.28,0.49l0.2 0.36 0.17 0.35 0.1 0.22 0.07 0.17c0.25,0.64 0.31,1.29 0.16,1.94z"/>
   <path class="fil0" d="M13.89 12.27c-0.64,1.46 -1.01,2.55 -1.24,3.35 -1.59,-0.34 -3.07,-0.89 -4.33,-1.64 -0.24,-0.15 -0.46,-0.29 -0.67,-0.44l-0.01 -0.05 -0.03 -0.14 -0.02 -0.1 -0.01 -0.07 0.01 0 0.03 -0.01c1.74,-1.7 2.15,-2.1 3.65,-2.7 1.5,-0.58 3.08,-0.58 3.15,0.01 0.05,0.46 -0.08,0.77 -0.53,1.79z"/>
   <path class="fil0" d="M13.98 6.81c0.25,-0.5 0.5,-0.99 0.75,-1.48 -0.24,0.48 -0.05,1.01 0.59,1.39 0.94,0.57 2.5,0.58 3.48,0.03 0.69,-0.38 0.91,-0.94 0.66,-1.43 0.25,0.49 0.5,0.98 0.75,1.47 0.34,0.65 0.04,1.39 -0.86,1.89 -1.3,0.72 -3.35,0.7 -4.59,-0.04 -0.83,-0.51 -1.09,-1.21 -0.78,-1.83z"/>
   <path class="fil4" d="M20.69 3.59c0,1.99 -1.61,3.59 -3.59,3.59 -1.98,0 -3.59,-1.6 -3.59,-3.59 0,-1.98 1.61,-3.59 3.59,-3.59 1.98,0 3.59,1.61 3.59,3.59z"/>
   <path class="fil2" d="M20.46 3.22c0,1.65 -1.34,2.98 -2.99,2.98 -1.64,0 -2.98,-1.33 -2.98,-2.98 0,-1.65 1.34,-2.98 2.98,-2.98 1.65,0 2.99,1.33 2.99,2.98z"/>
   <path class="fil5" d="M19.17 2.7c0,0.54 -0.44,0.97 -0.97,0.97 -0.54,0 -0.97,-0.43 -0.97,-0.97 0,-0.53 0.43,-0.97 0.97,-0.97 0.53,0 0.97,0.44 0.97,0.97z"/>
   <path class="fil5" d="M21.61 13.33c0,0 -1.16,-1.16 -2.59,-0.78 -1.42,0.39 -1.92,1.86 -2.2,2.44 -0.28,0.58 5.4,-0.18 5.52,-0.84 -0.15,-0.32 -0.73,-0.82 -0.73,-0.82z"/>
   <path class="fil7" d="M32.25 9.36c0.59,1.47 0.56,3.18 -0.02,4.69 -0.6,1.51 -1.76,2.74 -3.06,3.67 -1.33,0.93 -2.82,1.56 -4.34,2.05 -1.52,0.48 -3.07,0.86 -4.65,1.08 -3.16,0.43 -6.42,0.32 -9.49,-0.57 -3.06,-0.88 -5.98,-2.4 -8.21,-4.65 2.4,2.06 5.31,3.42 8.33,4.19 3.03,0.76 6.2,0.88 9.28,0.42 3.07,-0.48 6.19,-1.26 8.8,-2.93 1.28,-0.84 2.43,-1.97 3.05,-3.38 0.65,-1.4 0.76,-3.06 0.31,-4.57z"/>
  </g>
 </g>
</svg>
