<?xml version="1.0" encoding="UTF-8"?>
<!DOCTYPE svg PUBLIC "-//W3C//DTD SVG 1.0//EN" "http://www.w3.org/TR/2001/REC-SVG-20010904/DTD/svg10.dtd">
<!-- Creator: CorelDRAW 2018 (64 Bit Versão de avaliação) -->
<svg xmlns="http://www.w3.org/2000/svg" xml:space="preserve" width="34px" height="94px" version="1.0" style="shape-rendering:geometricPrecision; text-rendering:geometricPrecision; image-rendering:optimizeQuality; fill-rule:evenodd; clip-rule:evenodd"
viewBox="0 0 34 94.83"
 xmlns:xlink="http://www.w3.org/1999/xlink">
 <defs>
  <style type="text/css">
   <![CDATA[
    .fil7 {fill:#58585A;fill-rule:nonzero}
    .fil9 {fill:#8F9193;fill-rule:nonzero}
    .fil5 {fill:#848789;fill-rule:nonzero}
    .fil4 {fill:#5C5E60;fill-rule:nonzero}
    .fil10 {fill:#424647;fill-rule:nonzero}
    .fil6 {fill:#323436;fill-rule:nonzero}
    .fil0 {fill:#2F3132;fill-rule:nonzero}
    .fil3 {fill:#2D3031;fill-rule:nonzero}
    .fil1 {fill:#2C2D2F;fill-rule:nonzero}
    .fil8 {fill:#2B2C2E;fill-rule:nonzero}
    .fil2 {fill:#292A2C;fill-rule:nonzero}
   ]]>
  </style>
 </defs>
 <g id="Camada_x0020_1">
  <metadata id="CorelCorpID_0Corel-Layer"/>
  <g id="_1668150938592">
   <path class="fil0" d="M33.77 74.46l-0.07 -0.27 0.01 0.03 -0.02 -0.08c-0.07,-0.23 -0.15,-0.46 -0.24,-0.68l-0.15 -0.38 0.06 0.17c-0.57,-1.27 -1.58,-2.48 -3.04,-3.55 -1.1,-0.81 -2.19,-1.62 -3.29,-2.42l-0.01 -0.04 -0.05 -0.09 -0.03 -0.09 -0.07 -0.11 -0.03 -0.06 -0.09 -0.18 -0.08 -0.14 -0.08 -0.12 -0.05 -0.08 -0.09 -0.13 -0.04 -0.07 -0.03 -0.03c-0.11,-0.16 -0.21,-0.28 -0.36,-0.46l-0.09 -0.1 -0.09 -0.1 -0.19 -0.2 -0.02 -0.02 -0.01 -0.01 -0.08 -0.07 -0.15 -0.15 -0.02 -0.02 -0.08 -0.07 0.03 0.03 -0.06 -0.06 -0.38 -0.32 0.05 0.06 -0.33 -0.25 -0.09 -0.38c-0.1,-0.4 -0.23,-0.94 -0.32,-1.33l-0.34 -1.5c-0.11,-0.49 -0.24,-1.16 -0.35,-1.66l-0.34 -1.76c-0.1,-0.56 -0.22,-1.31 -0.32,-1.88l-0.27 -1.89c-0.08,-0.59 -0.17,-1.39 -0.24,-1.99l-0.16 -1.87c-0.04,-0.6 -0.06,-1.4 -0.09,-2l0.01 -1.69c0.03,-0.57 0.09,-1.32 0.13,-1.89l0.2 -1.27c0.06,-0.33 0.1,-0.5 0.15,-0.7 0.71,-0.25 1.39,-0.53 2.01,-0.88 2.09,-1.16 3.22,-2.68 3.4,-4.23 0.05,-0.47 0.1,-0.94 0.15,-1.41l-0.03 0.12c0.04,-0.25 0.06,-0.5 0.05,-0.75 2.32,-1.59 3.49,-3.56 3.48,-5.54l0 -1.64 -0.01 0.1c0.03,-2.03 -1.18,-4.06 -3.64,-5.69 -0.44,-0.59 -1.01,-1.15 -1.73,-1.67l0.11 -0.15 0.18 -0.22c0.12,-0.14 0.28,-0.32 0.4,-0.45l0.29 -0.29 0 0c1.02,-1.01 1.87,-1.89 2.57,-2.67 1.04,-0.86 1.94,-1.91 2.43,-3.18 0.22,-0.55 0.33,-1.14 0.39,-1.73 0.14,-0.94 0.03,-1.89 -0.32,-2.81l-0.04 -0.14 0.01 0.07c-0.62,-1.56 -1.94,-3.05 -3.99,-4.29 -2.18,-1.31 -4.89,-2.14 -7.74,-2.54 -0.43,-1.5 -1.8,-2.6 -3.44,-2.6 -1.61,0 -2.97,1.07 -3.42,2.54 -2.86,0.34 -5.6,1.12 -7.86,2.38 -3.92,2.19 -5.49,5.26 -4.67,8.14l-0.02 -0.04 0.03 0.09 0.02 0.07 0.08 0.24 0.12 0.33 0.18 0.38 0.16 0.33 0.18 0.31 0.19 0.29 0.19 0.29 0.2 0.28 0.21 0.28 0.23 0.29 0.24 0.29 0.26 0.31 0.19 0.22 0.05 0.04 0.04 0.06 0.31 0.34 0.33 0.35 0.36 0.38 0.39 0.4 0.42 0.42 0.45 0.46c0.15,0.14 0.34,0.33 0.49,0.48 0.23,0.22 0.41,0.42 0.6,0.62l0.14 0.17 0.2 0.25 0.05 0.07c-0.72,0.51 -1.3,1.07 -1.72,1.66 -2.55,1.7 -3.74,3.85 -3.59,5.97l-0.03 -0.34 0 1.64c0,0.16 0.03,0.31 0.04,0.47l0 0.14 0.02 0.06c0.06,0.42 0.18,0.84 0.34,1.25l0.09 0.21c0.18,0.4 0.41,0.81 0.7,1.19l0.15 0.2c0.31,0.39 0.66,0.78 1.08,1.15l0.16 0.13c0.29,0.24 0.6,0.48 0.94,0.7 -0.01,0.24 0,0.48 0.04,0.72l-0.02 -0.07c0.05,0.47 0.11,0.94 0.16,1.4 0.17,1.46 1.19,2.88 3.07,4.01 0.52,0.32 1.07,0.59 1.66,0.83l0 -0.01c0.23,0.09 0.47,0.15 0.7,0.23l0.16 0.72 0.01 0.03c0.08,0.44 0.15,0.98 0.21,1.46l0.06 0.69 0.05 0.64c0.02,0.44 0.02,0.89 0.03,1.34 0,0.32 0,0.65 0,0.93l-0.07 1.76 -0.13 1.69 -0.21 1.88c-0.42,3.38 -1.07,6.9 -1.95,10.68 -0.17,0.12 -0.34,0.24 -0.49,0.37l0.16 -0.16 -0.32 0.27 -0.01 0.01 -0.1 0.09 -0.06 0.05 -0.01 0.01 -0.13 0.12 -0.08 0.09 -0.17 0.17 -0.08 0.09 -0.11 0.13 -0.23 0.27 -0.11 0.14 -0.15 0.21 -0.01 0 0.01 -0.01 -0.1 0.15c-0.09,0.15 -0.21,0.37 -0.3,0.52l-0.09 0.18 -0.02 0.03 0.01 -0.01 -0.01 0.02 -0.01 0.03 -0.05 0.1 -0.01 0.04c-1.1,0.82 -2.19,1.63 -3.28,2.44 -1.45,1.08 -2.45,2.3 -3.02,3.57l0.06 -0.17c-0.04,0.11 -0.1,0.25 -0.17,0.42l-0.1 0.29c-0.05,0.13 -0.09,0.26 -0.13,0.41l0.02 -0.04 -0.04 0.13 0.02 -0.09 -0.05 0.17 -0.03 0.14c-0.07,0.31 -0.13,0.68 -0.16,1.08l-0.01 -0.07 0.03 -0.31 -0.03 0.24 -0.03 0.52 0.01 0.25 0 0.19 0 0.03 0.02 0.41 0.03 0.25c0.01,0.18 0.04,0.37 0.07,0.56l0.06 0.32 0.07 0.35 0.01 0.05 0.08 0.32 0 0 0.09 0.35 0.13 0.41 0.07 0.19 0 0.01c-0.28,0.84 -0.38,1.43 -0.43,1.75 -0.03,0.16 -0.06,0.38 -0.07,0.54 -0.03,0.3 -0.04,0.69 -0.05,0.99l0 2.04c0,0.18 0.03,0.36 0.05,0.53l0 0.17 0.02 0.11 0.07 0.35c0.04,0.17 0.07,0.35 0.13,0.52l0.12 0.36c0.07,0.17 0.13,0.33 0.21,0.5l0.18 0.36c0.09,0.16 0.18,0.32 0.29,0.48l0.23 0.35c0.12,0.16 0.24,0.32 0.37,0.47l0.28 0.34c0.15,0.16 0.31,0.32 0.47,0.47l0.32 0.31c0.19,0.17 0.4,0.33 0.61,0.49l0.31 0.25c0.33,0.24 0.68,0.48 1.06,0.7 0.69,0.41 1.42,0.79 2.2,1.12l0 -0.04c6.51,2.77 15.7,2.53 21.74,-0.84 3.47,-1.93 5.21,-4.52 5.2,-7.1l0 -2.04c-0.01,-0.75 -0.08,-1.81 -0.58,-3.29 0.26,-0.74 0.5,-1.65 0.6,-2.81 0.09,-0.99 -0.03,-1.77 -0.2,-2.42l0 0.05z"/>
   <path class="fil0" d="M0.09 83.03c0.01,-0.3 0.02,-0.69 0.05,-0.99 0.01,-0.16 0.04,-0.38 0.07,-0.54 0.05,-0.32 0.15,-0.91 0.43,-1.75 0.36,-1.07 0.93,-2.21 1.57,-3.12 -2.32,3.29 -1.26,7.2 3.26,9.92 6.11,3.68 16.24,3.79 22.61,0.23 4.89,-2.73 6.15,-6.81 3.71,-10.23 0.9,1.27 1.37,2.47 1.58,3.08 0.5,1.49 0.57,2.54 0.58,3.3 0.01,2.59 -1.74,5.17 -5.21,7.11 -6.75,3.76 -17.47,3.65 -23.94,-0.25 -3.14,-1.89 -4.7,-4.32 -4.71,-6.76z"/>
   <path class="fil1" d="M29.72 74.47c-0.36,-0.27 -0.75,-0.54 -1.17,-0.79 -0.78,-0.47 -1.63,-0.88 -2.53,-1.24 -1.2,-0.47 -2.47,-0.83 -3.8,-1.09 -1.53,-0.3 -3.12,-0.47 -4.72,-0.49 -4.15,-0.07 -8.34,0.8 -11.56,2.59 -3.94,2.2 -5.52,5.28 -4.72,8.17 0.14,0.51 0.35,1 0.63,1.49 0.29,0.49 0.65,0.98 1.09,1.44 0.67,0.72 1.51,1.39 2.53,2 0.2,0.12 0.4,0.24 0.6,0.35 1,0.54 2.1,0.99 3.25,1.36 2.46,0.77 5.2,1.15 7.93,1.12 3.9,-0.04 7.79,-0.9 10.83,-2.6 1.14,-0.64 2.09,-1.34 2.83,-2.1 1.22,-1.24 1.91,-2.61 2.06,-4 0.24,-2.17 -0.84,-4.39 -3.25,-6.21z"/>
   <path class="fil0" d="M3.64 69.77c1.72,-1.28 3.45,-2.57 5.17,-3.85 -3.11,2.32 -2.91,5.66 0.7,7.84 3.96,2.38 10.51,2.44 14.64,0.14 3.87,-2.16 4.23,-5.64 0.98,-8.02 1.73,1.27 3.46,2.54 5.19,3.82 5.32,3.9 4.73,9.59 -1.6,13.13 -6.75,3.76 -17.47,3.65 -23.94,-0.25 -5.9,-3.55 -6.24,-9.02 -1.14,-12.81z"/>
   <path class="fil2" d="M0.09 85.07l0 -2.04c0.01,2.44 1.57,4.87 4.71,6.76 6.47,3.9 17.19,4.01 23.94,0.25 3.47,-1.94 5.22,-4.52 5.21,-7.11l0 2.04c0.01,2.58 -1.73,5.17 -5.2,7.1 -6.75,3.77 -17.47,3.66 -23.94,-0.24 -3.14,-1.89 -4.71,-4.33 -4.72,-6.76z"/>
   <path class="fil0" d="M7.47 71.98c-0.15,-0.22 -0.35,-0.49 -0.54,-0.9 -0.19,-0.43 -0.26,-0.73 -0.32,-0.99 -0.1,-0.43 -0.13,-1.16 0.01,-1.82 0.18,-0.83 0.52,-1.47 0.78,-1.85 0.6,-0.9 1.13,-1.35 1.66,-1.79 -2.74,2.19 -2.48,5.25 0.85,7.26 3.75,2.25 9.94,2.31 13.84,0.14 3.58,-2 3.98,-5.19 1.13,-7.44 0.22,0.19 0.53,0.44 0.74,0.66 0.18,0.18 0.51,0.53 0.79,0.92 0.1,0.15 0.34,0.49 0.53,0.89 0.16,0.36 0.3,0.74 0.36,1.02 0.11,0.5 0.13,0.76 0.14,1.11 0,0.42 -0.07,0.73 -0.13,1.02 -0.08,0.4 -0.28,0.82 -0.36,0.99 -0.03,0.05 -0.17,0.35 -0.45,0.73 -0.53,0.72 -1.32,1.39 -2.35,1.97 -4.13,2.3 -10.68,2.24 -14.64,-0.14 -0.88,-0.54 -1.56,-1.14 -2.04,-1.78z"/>
   <path class="fil0" d="M7.47 71.98l0 -0.01 -0.01 -0.01c-0.57,-0.8 -0.88,-1.65 -0.93,-2.5 -0.02,-0.37 0,-0.79 0.09,-1.19 0.03,-0.14 0.07,-0.28 0.11,-0.41l0.01 -0.04 0.01 -0.03 0 -0.01 0.01 -0.03c0.3,-0.89 0.87,-1.77 1.71,-2.59l0 0zm0.54 -0.49l0.02 -0.02 0.03 -0.02c-0.1,0.08 -0.19,0.15 -0.27,0.23l0.22 -0.19zm-0.22 0.19c-2.45,2.17 -2.09,5.09 1.12,7.03l0.18 0.1 0.18 0.1 0.19 0.1 0.18 0.1 0.19 0.09 0.2 0.08 0 0 0.19 0.09 0.2 0.08 0 0 0.21 0.08 0.2 0.07 0.21 0.08 0.21 0.06 0.21 0.07 0.21 0.06 0.22 0.06 0.22 0.06 0.22 0.05 0 0 0.22 0.05 0.22 0.04 0 0 0.23 0.05 0 0 0.22 0.04 0 0 0.23 0.03 0.23 0.04 0.23 0.03 0 0 0.23 0.02 0.23 0.03 0.23 0.02 0 0 0.24 0.01 0.23 0.02 0 0 0.23 0.01 0 0 0.24 0 0.23 0.01 0 0 0.24 0 0 0 0.23 0 0 0 0.24 -0.01 0 0 0.23 -0.01 0.24 -0.01 0 0 0.23 -0.02 0 0 0.23 -0.01 0 0 0.24 -0.03 0 0 0.23 -0.02 0 0 0.23 -0.03 0 0 0.23 -0.03 0 0 0.23 -0.04 0 0 0.22 -0.04 0 0 0.23 -0.04 0.23 -0.04 0 0 0.22 -0.05 0 0 0.22 -0.05 0 0 0.22 -0.06 0 0 0.22 -0.05 0 0 0.22 -0.06 0 0 0.21 -0.07 0.21 -0.07 0 0 0.21 -0.07 0 0 0.21 -0.07 0 0 0.2 -0.08 0 0 0.21 -0.08 0.2 -0.08 0.19 -0.09 0.2 -0.09 0.19 -0.1 0 0 0.19 -0.09 0 0 0.18 -0.1 0.17 -0.1 0.16 -0.09 0.15 -0.1 0.15 -0.1 0.15 -0.1 0.14 -0.1 0.14 -0.11 0.13 -0.1 0.13 -0.11 0.13 -0.11 0.11 -0.11 0.12 -0.11 0.11 -0.11 0.1 -0.11 0.1 -0.12 0.1 -0.11 0.09 -0.12 0.09 -0.11 0.08 -0.12 0.07 -0.12 0.08 -0.12 0.06 -0.12 0.07 -0.12 0.05 -0.12 0.06 -0.12 0.05 -0.12 0.04 -0.13 0.04 -0.12 0.03 -0.12 0.03 -0.13 0.03 -0.12 0.02 -0.13 0.01 -0.12 0.01 -0.13 0.01 -0.12 0 -0.13 0 -0.12 0 0 -0.01 -0.12 -0.01 -0.13 -0.02 -0.12 0 0 -0.02 -0.13 -0.03 -0.12 -0.03 -0.13 -0.04 -0.12 -0.04 -0.12 -0.04 -0.13 -0.06 -0.12 -0.05 -0.12 -0.06 -0.12 -0.07 -0.12 0 0 -0.07 -0.12 -0.07 -0.12 0 0 -0.08 -0.12 -0.08 -0.11 0 0 -0.09 -0.12 -0.09 -0.12 -0.01 0 -0.09 -0.11 0 0 -0.11 -0.11 0 0c0,0 0,0 -18.12,6.73 0.48,0.64 1.16,1.24 2.04,1.78l14.64 0.14 0.04 -0.02 0.05 -0.03 0.05 -0.03 0.05 -0.03 0.04 -0.02 0.05 -0.03 0.05 -0.03 0.04 -0.03 0 0 0.05 -0.03 0.04 -0.02 0 0 0.05 -0.03 0.04 -0.03 0 0 0.05 -0.03 0 0 0.04 -0.03 0 0 0.04 -0.03 0 0 0.05 -0.03 0 0 0.04 -0.03 0 0 0.08 -0.06 0 0 0.17 -0.11c-0.17,0.11 0,0 0,-0.01l1.33 -1.31 0 0 0.01 -0.02 0.02 -0.01 0 -0.01c0,0.01 0,0 0.01,-0.01l0.88 -3.06 0 -0.02c0,0.02 0,0 0,-0.01 -0.02,-0.2 -0.05,-0.41 -0.12,-0.71l-0.26 -0.8 0 0 -0.01 -0.01 -0.01 -0.02c0.01,0.02 0,0 -0.01,-0.02l-1.42 -1.98zm0 0l-0.1 -0.12 0 0 -0.12 -0.11 0 0 -0.11 -0.11 -0.04 -0.03 -0.01 -0.01 -0.02 -0.01 -0.26 -0.22 -0.01 -0.01 -0.01 -0.01 -0.01 -0.01 -0.01 -0.01 -0.01 -0.01 0 0.01 0.13 0.1 0 0 0.12 0.1 0 0 0.06 0.06z"/>
   <path class="fil0" d="M25.88 65.52l0 0 0 0c0.31,0.35 0.39,0.45 0.61,0.78l0.01 0 0 0.01 0 0 0.01 0.01 0.01 0.01 0 0.01 0.03 0.04 0.2 0.33c0.08,0.14 0.17,0.33 0.24,0.48l0.01 0.01 0 0 0 0.01 0.01 0.01 0 0 0.02 0.05 0.01 0.01 0.09 0.25 0.01 0.02 0.02 0.04 0 0.01 0 0 0 0.01 0 0c0.05,0.15 0.11,0.33 0.14,0.47l0.01 0.02 0 0.02 0.04 0.18 0 0.02 0.01 0.02 0.02 0.12 0 0.01 0 0 0 0 0 0.01c0.02,0.13 0.04,0.28 0.05,0.4l0.01 0.31 0 0 -0.03 0.43 -0.03 0.24 0 0.01 -0.02 0.1 0 0.02 -0.01 0.01 -0.06 0.31 -0.09 0.28 -0.1 0.28 -0.01 0.02 -0.07 0.17 -0.01 0.01 0 0.01 -0.01 0.01 -0.01 0.01 0 0.01 -0.01 0.02 0 0.01 -0.01 0.01 0 0.01 0 0 -0.01 0.01 0 0.01 -0.01 0.01 0 0.01 -0.17 0.31 -0.1 0.17 -0.02 0.01 0 0 -0.01 0.03 -0.01 0 -0.01 0.02 -0.13 0.19c-0.53,0.72 -1.32,1.39 -2.35,1.97 -4.13,2.3 -10.68,2.24 -14.64,-0.14 -0.88,-0.54 -1.56,-1.14 -2.04,-1.78l0 -0.01 -0.01 -0.01 -0.01 -0.01 -0.01 -0.01 0 -0.01 -0.01 -0.01 -0.01 -0.01 0 0 -0.02 -0.02 0 -0.01 -0.09 -0.13 -0.01 -0.02 -0.01 -0.01 -0.08 -0.13 -0.01 -0.02 -0.01 0 0 -0.01 0 0 -0.13 -0.23 -0.15 -0.31 -0.02 -0.03 0 -0.01 -0.01 -0.02 -0.08 -0.21 -0.01 -0.01 0 -0.01 -0.1 -0.32 -0.02 -0.09 -0.01 -0.01 0 -0.02 0 -0.01 -0.01 -0.01 -0.03 -0.13 0 -0.02 0 -0.01 -0.01 -0.01 0 -0.01 -0.06 -0.41 -0.02 -0.27 0 -0.08 0 -0.35 0.01 -0.1 0.02 -0.26 0 -0.01 0 -0.01 0.01 -0.01c0.02,-0.12 0.04,-0.28 0.07,-0.41l0 0 0 -0.01 0 -0.01 0.02 -0.08 0.07 -0.25 0.03 -0.07 0 0 0 -0.01 0 0 0 -0.01 0.01 -0.01c0.05,-0.14 0.11,-0.31 0.16,-0.44l0.17 -0.35c0.09,-0.15 0.21,-0.37 0.3,-0.52l0.22 -0.31 0.05 -0.07 0.01 -0.01 0 0c0.13,-0.16 0.29,-0.36 0.42,-0.5l0.33 -0.35 0.22 -0.19 0.01 -0.01zm0.31 -0.28l0.01 0 0 0 0.01 -0.01 0.01 -0.01 0.01 -0.01 0 0 0.01 -0.01 0.01 0 0 -0.01 0.01 0 0.01 -0.01 0.01 -0.01c-0.1,0.08 -0.19,0.15 -0.27,0.23l0.18 -0.16zm-0.18 0.16c-2.45,2.17 -2.09,5.09 1.12,7.03l0.16 0.09 0.02 0.01 0.05 0.03 0.12 0.07 0.01 0 0.03 0.02 0.14 0.07 0.02 0.01 0.04 0.02 0.12 0.06 0.02 0.02 0.02 0 0.14 0.07 0.03 0.02 0.04 0.01 0.12 0.06 0.04 0.01 0.09 0.04 0.1 0.05 0.02 0.01 0.13 0.05 0.01 0 0.11 0.05 0.01 0 0.13 0.05 0 0 0.13 0.05 0.07 0.02 0.07 0.03 0.13 0.04 0.01 0.01 0.12 0.04 0.09 0.02 0.05 0.02 0.14 0.04 0.02 0.01 0.11 0.03 0.03 0.01 0.11 0.03 0.14 0.04 0.04 0.01 0.1 0.03 0.02 0c0.13,0.03 0.25,0.06 0.38,0.09l0.03 0.01 0.13 0.03 0.01 0 0.15 0.03 0.14 0.03 0 0 0.15 0.03 0 0 0.14 0.02c1.56,0.27 3.21,0.31 4.8,0.12l-0.56 0.19c-0.85,0.32 -2,0.77 -1.31,1.13 1.8,0.95 7.29,-0.82 7.2,-1.86 -0.03,-0.37 -0.81,-0.3 -2.21,-0.17l0.03 -0.01 0.02 -0.01 0.03 -0.01 0.03 -0.01 0.02 -0.01 0.01 -0.01 0.03 0 0.16 -0.07 0 0c0.13,-0.05 0.26,-0.1 0.38,-0.15l0.03 -0.01 0 0 0.18 -0.09 0.01 0 0.02 -0.01 0.16 -0.07 0.02 -0.01c0.12,-0.06 0.24,-0.12 0.36,-0.18l0.02 -0.01 0.01 -0.01 0.17 -0.09 0.17 -0.1 0.16 -0.09 0.15 -0.1 0.15 -0.1 0.15 -0.1 0.14 -0.1 0.14 -0.11 0.13 -0.1 0.13 -0.11 0.13 -0.11 0.11 -0.11 0.12 -0.11 0.11 -0.11 0.1 -0.11 0.1 -0.12 0.1 -0.11 0.09 -0.12 0.09 -0.11 0.08 -0.12 0.07 -0.12 0.08 -0.12 0.06 -0.12 0.07 -0.12 0.05 -0.12 0.06 -0.12 0.05 -0.12 0.04 -0.13 0.04 -0.12 0.03 -0.12 0.03 -0.13 0.03 -0.12 0.02 -0.13 0.01 -0.12 0.01 -0.13 0.01 -0.12 0 -0.13 0 -0.12 0 0 -0.01 -0.12 -0.01 -0.13 -0.02 -0.12 0 0 -0.02 -0.13 -0.03 -0.12 -0.03 -0.13 -0.04 -0.12 -0.04 -0.12 -0.04 -0.13 -0.06 -0.12 -0.05 -0.12 -0.06 -0.12 -0.07 -0.12 0 0 -0.07 -0.12 -0.07 -0.12 0 0 -0.08 -0.12 -0.08 -0.11 0 0 -0.09 -0.12 -0.09 -0.12 -0.01 0 -0.09 -0.11 0 0 -0.11 -0.11 -0.1 -0.12 0 0 -0.12 -0.11 0 0 -0.11 -0.11c0.11,0.1 0.22,0.2 0.33,0.31l0 0 0.01 0.01 0.01 0.01 0 0 0.01 0.01 0 0 0.01 0.01c0.07,0.07 0.15,0.15 0.25,0.26zm-11.74 7.86c1.56,0.27 3.21,0.31 4.8,0.12l0 0zm6.32 -8.59l-0.04 -0.03 -0.01 -0.01 -0.02 -0.01 -0.12 -0.11 0 0 -0.01 -0.01 0 0 -0.01 -0.01 -0.03 -0.02 0 0 -0.01 -0.01 0 0 -0.01 -0.01 -0.01 0 0 -0.01 -0.01 -0.01 0 0 -0.02 -0.01 0 0 -0.01 -0.01 -0.01 0 0 -0.01 -0.01 0 0 -0.01 -0.01 0 -0.01 -0.01 -0.02 -0.02 0.01 0.01 0.01 0.01 0 0 0.1 0.08 0 0 0.12 0.1 0 0 0.06 0.06zm-0.31 -0.27l0.01 0.01 0 0 -0.01 -0.01z"/>
   <path class="fil0" d="M25.88 65.52l0 0 0 0c0.31,0.35 0.39,0.45 0.61,0.78l0.01 0 0 0.01 0 0 0.01 0.01 0.01 0.01 0 0.01 0.03 0.04 0.2 0.33c0.08,0.14 0.17,0.33 0.24,0.48l0.01 0.01 0 0 0 0.01 0.01 0.01 0 0 0.02 0.05 0.01 0.01 0.09 0.25 0.01 0.02 0.02 0.04 0 0.01 0 0 0 0.01 0 0c0.05,0.15 0.11,0.33 0.14,0.47l0.01 0.02 0 0.02 0.04 0.18 0 0.02 0.01 0.02 0.02 0.12 0 0.01 0 0 0 0 0 0.01c0.02,0.13 0.04,0.28 0.05,0.4l0.01 0.31 0 0 -0.03 0.43 -0.03 0.24 0 0.01 -0.02 0.1 0 0.02 -0.01 0.01 -0.06 0.31 -0.09 0.28 -0.1 0.28 -0.01 0.02 -0.07 0.17 -0.01 0.01 0 0.01 -0.01 0.01 -0.01 0.01 0 0.01 -0.01 0.02 0 0.01 -0.01 0.01 0 0.01 0 0 -0.01 0.01 0 0.01 -0.01 0.01 0 0.01 -0.17 0.31 -0.1 0.17 -0.02 0.01 0 0 -0.01 0.03 -0.01 0 -0.01 0.02 -0.13 0.19c-0.53,0.72 -1.32,1.39 -2.35,1.97 -4.13,2.3 -10.68,2.24 -14.64,-0.14 -0.88,-0.54 -1.56,-1.14 -2.04,-1.78l0 -0.01 -0.01 -0.01 -0.01 -0.01 -0.01 -0.01 0 -0.01 -0.01 -0.01 -0.01 -0.01 0 0 -0.02 -0.02 0 -0.01 -0.09 -0.13 -0.01 -0.02 -0.01 -0.01 -0.08 -0.13 -0.01 -0.02 -0.01 0 0 -0.01 0 0 -0.13 -0.23 -0.15 -0.31 -0.02 -0.03 0 -0.01 -0.01 -0.02 -0.08 -0.21 -0.01 -0.01 0 -0.01 -0.1 -0.32 -0.02 -0.09 -0.01 -0.01 0 -0.02 0 -0.01 -0.01 -0.01 -0.03 -0.13 0 -0.02 0 -0.01 -0.01 -0.01 0 -0.01 -0.06 -0.41 -0.02 -0.27 0 -0.08 0 -0.35 0.01 -0.1 0.02 -0.26 0 -0.01 0 -0.01 0.01 -0.01c0.02,-0.12 0.04,-0.28 0.07,-0.41l0 0 0 -0.01 0 -0.01 0.02 -0.08 0.07 -0.25 0.03 -0.07 0 0 0 -0.01 0 0 0 -0.01 0.01 -0.01c0.05,-0.14 0.11,-0.31 0.16,-0.44l0.17 -0.35c0.09,-0.15 0.21,-0.37 0.3,-0.52l0.22 -0.31 0.05 -0.07 0.01 -0.01 0 0c0.13,-0.16 0.29,-0.36 0.42,-0.5l0.33 -0.35 0.08 -0.07 0.03 -0.03 0.04 -0.04 0.09 -0.07 -0.09 0.08 -0.02 0.02 -0.09 0.09 -0.01 0.01 -0.09 0.1 -0.01 0.01 -0.09 0.1 0 0 -0.1 0.11 -0.08 0.1 -0.01 0.01 -0.02 0.02 -0.07 0.09 -0.06 0.1 -0.02 0.02 -0.01 0.02c-0.13,0.18 -0.24,0.36 -0.33,0.55l-0.01 0.01c-0.03,0.08 -0.07,0.15 -0.1,0.23l0 0c-0.13,0.32 -0.21,0.64 -0.25,0.96l0 0c-0.03,0.24 -0.03,0.48 0,0.72l0 0.02c0.02,0.15 0.05,0.3 0.08,0.46l0.01 0.02 0.03 0.1 0 0.02 0.04 0.1 0 0.01c0.03,0.08 0.05,0.15 0.08,0.23l0.01 0.01c0.03,0.07 0.06,0.14 0.1,0.22l0 0.01 0.01 0.02 0.05 0.1c0.04,0.08 0.09,0.16 0.14,0.23l0.07 0.11 0 0.01c0.07,0.11 0.16,0.23 0.25,0.34l0.06 0.08 0.03 0.03 0.03 0.04 0.05 0.06 0.03 0.03 0.07 0.08 0.03 0.03 0.07 0.07 0.04 0.05 0.07 0.06 0.04 0.04 0.06 0.05 0.07 0.07 0.01 0.01 0.07 0.06 0.02 0.02 0.07 0.06 0.05 0.04 0.1 0.08 0.01 0.01 0.09 0.07 0.07 0.05 0.02 0.02 0.11 0.08 0 0 0.12 0.08 0.02 0.01 0.12 0.09 0.02 0.01 0.13 0.08 0.01 0.01 0.14 0.09 0.17 0.1 0.01 0 0.03 0.02 0.13 0.07 0.02 0.01 0.06 0.03 0.12 0.07 0.01 0 0.08 0.04 0.1 0.06 0.01 0 0.11 0.05 0.07 0.04 0.04 0.01 0.11 0.05 0.1 0.05 0.01 0 0.11 0.05 0.02 0.01 0.09 0.04 0.03 0.01 0.21 0.08 0.08 0.03 0.03 0.01 0.12 0.05 0.01 0 0.1 0.04 0.01 0 0.12 0.04 0.12 0.04 0.11 0.03 0.01 0.01 0.12 0.03c0.12,0.04 0.24,0.08 0.37,0.11l0.12 0.04c0.25,0.06 0.5,0.12 0.76,0.17l0.13 0.03c0.47,0.09 0.95,0.17 1.44,0.22l0.13 0.01c0.18,0.02 0.35,0.03 0.53,0.04l0.14 0.01 0 0 0.13 0.01 0.13 0.01 0.04 0 0.1 0 0.13 0 0.01 0 0.13 0.01 0.1 0 0.03 0 0.14 0 0.07 0 0.06 0 0.14 0 0.03 0 0.1 -0.01 0.14 0 0 0 0 0c0.13,0 0.27,-0.01 0.4,-0.02l-0.42 0.17c-1.79,0.73 -1.06,1.06 -0.81,1.17 2.64,1.17 8.81,-1.26 8.75,-2.5 -0.03,-0.42 -0.8,-0.33 -2.08,-0.18 0.14,-0.06 0.27,-0.13 0.4,-0.21l0.01 0 0.01 0 0 -0.01 0.01 0 0.17 -0.1 0.16 -0.09 0.15 -0.1 0.15 -0.1 0.15 -0.1 0.14 -0.1 0.14 -0.11 0.13 -0.1 0.13 -0.11 0.13 -0.11 0.11 -0.11 0.12 -0.11 0.11 -0.11 0.1 -0.11 0.1 -0.12 0.1 -0.11 0.09 -0.12 0.09 -0.11 0.08 -0.12 0.07 -0.12 0.08 -0.12 0.06 -0.12 0.07 -0.12 0.05 -0.12 0.06 -0.12 0.05 -0.12 0.04 -0.13 0.04 -0.12 0.03 -0.12 0.03 -0.13 0.03 -0.12 0.02 -0.13 0.01 -0.12 0.01 -0.13 0.01 -0.12 0 -0.13 0 -0.12 0 0 -0.01 -0.12 -0.01 -0.13 -0.02 -0.12 0 0 -0.02 -0.13 -0.03 -0.12 -0.03 -0.13 -0.04 -0.12 -0.04 -0.12 -0.04 -0.13 -0.06 -0.12 -0.05 -0.12 -0.06 -0.12 -0.07 -0.12 0 0 -0.07 -0.12 -0.07 -0.12 0 0 -0.08 -0.12 -0.08 -0.11 0 0 -0.09 -0.12 -0.09 -0.12 -0.01 0 -0.09 -0.11 0 0 -0.11 -0.11 -0.1 -0.12 0 0 -0.12 -0.11 0 0 -0.11 -0.11 -0.04 -0.03 0.08 0.07 0.01 0 0 0 0 0.01 0.01 0c0.11,0.11 0.24,0.23 0.36,0.35l0 0 0.01 0.01 0 0.01 0.01 0 0 0 0.01 0.01 0.01 0.01c0.04,0.05 0.1,0.1 0.16,0.17zm-0.75 -0.72l0 0 -0.12 -0.1 0 0 -0.12 -0.1 0.01 0.01 0.01 0.01 0.01 0.01 0.01 0.01 0.01 0 0.01 0.01 0.01 0.01 0.02 0.01 0.01 0.01 0.01 0.01 0.01 0.01 0.01 0.01 0.01 0.01 0.02 0.01 0.01 0.01 0.01 0.01 0.01 0.01 0.02 0.01 0.01 0.01 0.01 0.01 0.01 0.02 0.01 0 0.02 0.02 0.02 0.01 -0.05 -0.04zm-0.25 -0.21l0.01 0.01 0 0 -0.01 -0.01z"/>
   <path class="fil0" d="M25.88 65.52l0 0 0 0c0.31,0.35 0.39,0.45 0.61,0.78l0.01 0 0 0.01 0 0 0.01 0.01 0.01 0.01 0 0.01 0.03 0.04 0.2 0.33c0.08,0.14 0.17,0.33 0.24,0.48l0.01 0.01 0 0 0 0.01 0.01 0.01 0 0 0.02 0.05 0.01 0.01 0.09 0.25 0.01 0.02 0.02 0.04 0 0.01 0 0 0 0.01 0 0c0.05,0.15 0.11,0.33 0.14,0.47l0.01 0.02 0 0.02 0.04 0.18 0 0.02 0.01 0.02 0.02 0.12 0 0.01 0 0 0 0 0 0.01c0.02,0.13 0.04,0.28 0.05,0.4l0.01 0.31 0 0 -0.03 0.43 -0.03 0.24 0 0.01 -0.02 0.1 0 0.02 -0.01 0.01 -0.06 0.31 -0.09 0.28 -0.1 0.28 -0.01 0.02 -0.07 0.17 -0.01 0.01 0 0.01 -0.01 0.01 -0.01 0.01 0 0.01 -0.01 0.02 0 0.01 -0.01 0.01 0 0.01 0 0 -0.01 0.01 0 0.01 -0.01 0.01 0 0.01 -0.17 0.31 -0.1 0.17 -0.02 0.01 0 0 -0.01 0.03 -0.01 0 -0.01 0.02 -0.13 0.19c-0.53,0.72 -1.32,1.39 -2.35,1.97 -4.13,2.3 -10.68,2.24 -14.64,-0.14 -0.88,-0.54 -1.56,-1.14 -2.04,-1.78l0 -0.01 -0.01 -0.01 -0.01 -0.01 -0.01 -0.01 0 -0.01 -0.01 -0.01 -0.01 -0.01 0 0 -0.02 -0.02 0 -0.01 -0.09 -0.13 -0.01 -0.02 -0.01 -0.01 -0.08 -0.13 -0.01 -0.02 -0.01 0 0 -0.01 0 0 -0.13 -0.23 -0.15 -0.31 -0.02 -0.03 0 -0.01 -0.01 -0.02 -0.08 -0.21 -0.01 -0.01 0 -0.01 -0.1 -0.32 -0.02 -0.09 -0.01 -0.01 0 -0.02 0 -0.01 -0.01 -0.01 -0.03 -0.13 0 -0.02 0 -0.01 -0.01 -0.01 0 -0.01 -0.06 -0.41 -0.02 -0.27 0 -0.08 0 -0.35 0.01 -0.1 0.02 -0.26 0 -0.01 0 -0.01 0.01 -0.01c0.02,-0.12 0.04,-0.28 0.07,-0.41l0 0 0 -0.01 0 -0.01 0.02 -0.08 0.07 -0.25 0.03 -0.07 0 0 0 -0.01 0 0 0 -0.01 0.01 -0.01c0.05,-0.14 0.11,-0.31 0.16,-0.44l0.17 -0.35c0.09,-0.15 0.21,-0.37 0.3,-0.52l0.03 -0.04 0.03 -0.04 0 -0.01 0.03 -0.05 0.13 0.02 -0.04 0.08 0 0.01 -0.03 0.05 -0.03 0.07 -0.01 0.03 -0.04 0.08 -0.01 0.02 -0.01 0.02 -0.03 0.09 -0.01 0.01 -0.03 0.1 -0.01 0.04c-0.03,0.07 -0.05,0.14 -0.07,0.21l0 0.01c-0.02,0.08 -0.04,0.16 -0.05,0.23l0 0.01 -0.02 0.12 0 0 -0.02 0.09 0 0.03 0 0.03 -0.01 0.08 0 0.02 -0.01 0.11 0 0.01c0,0.07 0,0.15 0,0.22l0 0.03 0.01 0.1 0 0.01 0 0.01 0.01 0.11 0 0 0.01 0.11 0.01 0.02 0.01 0.1 0 0.01 0.01 0.02 0.02 0.09 0 0.01 0.02 0.11 0.01 0.01 0.01 0.06 0.02 0.06 0 0.01 0.03 0.09 0.01 0.02 0 0 0.03 0.09 0.01 0.03 0.01 0.01 0.03 0.08 0.02 0.05 0 0.01 0.04 0.08 0 0.01 0.04 0.09 0.01 0.02 0.01 0.02 0.05 0.09 0.01 0.02 0.06 0.1 0 0.01 0.01 0.01 0.05 0.09 0.01 0.01 0.04 0.08 0.01 0.01 0.04 0.05 0.01 0.03 0.05 0.06 0.01 0.02 0.06 0.09 0.01 0.01 0.06 0.08 0.03 0.03 0.04 0.05 0.02 0.03 0.04 0.05 0.01 0.01 0.07 0.08 0 0 0.08 0.09 0 0 0.06 0.06 0.03 0.04 0.06 0.05 0.01 0.01 0.08 0.08 0 0 0.09 0.09 0 0c0.06,0.05 0.11,0.1 0.17,0.15l0.04 0.03 0.07 0.06 0.09 0.08 0.02 0.01 0.08 0.06 0.01 0.01 0.08 0.06 0.04 0.03 0.08 0.06 0.11 0.07 0.01 0.01 0.04 0.03 0.09 0.06 0.01 0.01 0.07 0.04 0.08 0.05 0.04 0.03 0.11 0.07 0.18 0.1 0 0 0.18 0.1 0 0 0.01 0.01 0.16 0.08 0.02 0.01 0 0 0.1 0.05 0.08 0.05 0.01 0 0.1 0.05 0.01 0 0.09 0.04 0.09 0.05 0.02 0 0.08 0.04 0.1 0.04 0.08 0.04 0.02 0.01 0.1 0.04 0.01 0 0.2 0.08 0.08 0.03 0.02 0.01 0.1 0.04 0.11 0.03 0.1 0.04 0.02 0.01 0.09 0.03 0.1 0.03 0 0 0.11 0.03 0.1 0.04c0.11,0.03 0.22,0.06 0.33,0.09l0.11 0.03 0.07 0.02 0.04 0.01 0.11 0.03 0 0 0.11 0.03 0.11 0.02 0.11 0.03 0.11 0.02 0.07 0.02 0.05 0.01 0.11 0.02 0.11 0.02 0.12 0.03 0.1 0.02 0.01 0 0.12 0.02 0.11 0.02 0 0 0.12 0.01 0.11 0.02 0.12 0.02 0.11 0.01 0.12 0.02 0.12 0.01 0.11 0.02 0.12 0.01 0.12 0.01 0.04 0.01 0.08 0 0.23 0.02 0.12 0.01c0.12,0.01 0.24,0.01 0.35,0.02l0.12 0.01 0.12 0 0.12 0c0.12,0.01 0.24,0.01 0.36,0.01l-0.33 0.15c-0.43,0.21 -1.73,0.86 -0.29,1.33 4.34,1.4 11.07,-2.45 10.02,-3.76 -0.13,-0.17 -0.42,-0.13 -1.49,0.02 0.69,-0.53 1.2,-1.11 1.53,-1.72l0 -0.01 0.07 -0.12 0 0 0.05 -0.12 0.01 -0.01 0.05 -0.11 0 -0.01 0.04 -0.1 0.01 -0.03 0.04 -0.11 0 0 0.03 -0.09 0.01 -0.03 0.01 -0.03 0.02 -0.09 0.01 -0.02 0.02 -0.11 0 0 0.03 -0.12 0.01 -0.1 0.01 -0.03 0 -0.03 0.01 -0.08 0.01 -0.04 0 -0.07 0.01 -0.05 0 -0.07 0 -0.06 0 -0.05 0 -0.06 0 -0.09 0 -0.02 0 -0.02 -0.01 -0.1 0 -0.01 -0.01 -0.11 -0.01 -0.08 -0.01 -0.04 0 -0.01 -0.02 -0.1 0 0 -0.01 -0.08 -0.01 -0.04 -0.02 -0.08 -0.01 -0.03 -0.02 -0.09 -0.01 -0.03 -0.03 -0.09c-0.02,-0.07 -0.05,-0.15 -0.08,-0.22l-0.05 -0.11 0 0 -0.05 -0.11c-0.03,-0.06 -0.06,-0.13 -0.1,-0.2l-0.01 -0.02c-0.04,-0.07 -0.07,-0.13 -0.11,-0.2l-0.02 -0.02 -0.06 -0.09 0 0 -0.07 -0.1 -0.02 -0.03c-0.07,-0.1 -0.14,-0.2 -0.22,-0.29l-0.01 -0.01 -0.08 -0.09 0 0 -0.05 -0.06 -0.04 -0.04 -0.03 -0.03 -0.06 -0.08 -0.02 -0.01 -0.07 -0.07 -0.03 -0.03 -0.06 -0.06 -0.06 -0.05 -0.06 -0.06 -0.01 -0.01 0.08 0.07 0.01 0 0 0 0 0.01 0.01 0c0.11,0.11 0.24,0.23 0.36,0.35l0 0 0.01 0.01 0 0.01 0.01 0 0 0 0.01 0.01 0.01 0.01c0.04,0.05 0.1,0.1 0.16,0.17zm-0.66 -0.64l0 0 0 0 -0.01 -0.01 -0.02 -0.01 0 0zm-0.08 -0.08l0 0 -0.1 -0.08 -0.02 -0.02 -0.1 -0.08 0.01 0.01 0.01 0.01 0.01 0.01 0.01 0.01 0.01 0 0.01 0.01 0.01 0.01 0.02 0.01 0.01 0.01 0.01 0.01 0.01 0.01 0.01 0.01 0.01 0.01 0.02 0.01 0.01 0.01 0.01 0.01 0.01 0.01 0.02 0.01 0.01 0.01 0.01 0.01 0.01 0.02 0.01 0 0.02 0.02 0.02 0.01 -0.07 -0.06zm-0.23 -0.19l0.01 0.01 0 0 -0.01 -0.01z"/>
   <path class="fil0" d="M25.88 65.52l0 0 0 0c0.31,0.35 0.39,0.45 0.61,0.78l0.01 0 0 0.01 0 0 0.01 0.01 0.01 0.01 0 0.01 0.03 0.04 0.2 0.33c0.08,0.14 0.17,0.33 0.24,0.48l0.01 0.01 0 0 0 0.01 0.01 0.01 0 0 0.02 0.05 0.01 0.01 0.09 0.25 0.01 0.02 0.02 0.04 0 0.01 0 0 0 0.01 0 0c0.05,0.15 0.11,0.33 0.14,0.47l0.01 0.02 0 0.02 0.04 0.18 0 0.02 0.01 0.02 0.02 0.12 0 0.01 0 0 0 0 0 0.01c0.02,0.13 0.04,0.28 0.05,0.4l0.01 0.31 0 0 -0.03 0.43 -0.03 0.24 0 0.01 -0.02 0.1 0 0.02 -0.01 0.01 -0.06 0.31 -0.09 0.28 -0.1 0.28 -0.01 0.02 -0.07 0.17 -0.01 0.01 0 0.01 -0.01 0.01 -0.01 0.01 0 0.01 -0.01 0.02 0 0.01 -0.01 0.01 0 0.01 0 0 -0.01 0.01 0 0.01 -0.01 0.01 0 0.01 -0.17 0.31 -0.1 0.17 -0.02 0.01 0 0 -0.01 0.03 -0.01 0 -0.01 0.02 -0.13 0.19c-0.53,0.72 -1.32,1.39 -2.35,1.97 -4.13,2.3 -10.68,2.24 -14.64,-0.14 -0.88,-0.54 -1.56,-1.14 -2.04,-1.78l0 -0.01 -0.01 -0.01 -0.01 -0.01 -0.01 -0.01 0 -0.01 -0.01 -0.01 -0.01 -0.01 0 0 -0.02 -0.02 0 -0.01 -0.09 -0.13 -0.01 -0.02 -0.01 -0.01 -0.08 -0.13 -0.01 -0.02 -0.01 0 0 -0.01 0 0 -0.13 -0.23 -0.15 -0.31 -0.02 -0.03 0 -0.01 -0.01 -0.02 -0.08 -0.21 -0.01 -0.01 0 -0.01 -0.1 -0.32 -0.02 -0.09 -0.01 -0.01 0 -0.02 0 -0.01 -0.01 -0.01 -0.03 -0.13 0 -0.02 0 -0.01 -0.01 -0.01 0 -0.01 -0.06 -0.41 -0.02 -0.27 0 -0.08 0 -0.35 0.01 -0.1 0.02 -0.26 0 -0.01 0 -0.01 0.01 -0.01c0.02,-0.12 0.04,-0.28 0.07,-0.41l0 0 0 -0.01 0 -0.01 0.02 -0.08 0.07 -0.25 0.03 -0.07 0 0 0 -0.01 0 0 0 -0.01 0.01 -0.01c0.05,-0.14 0.11,-0.31 0.16,-0.44l0.07 -0.15 -0.03 0.08c0,0.13 -0.01,0.24 0.23,0.56l-0.01 0.06 0 0 0 0.01c0,0.08 0,0.16 0,0.23l0 0.01 0.01 0.11 0 0.01 0 0.01 0.01 0.09 0 0.02 0 0.01 0 0.01 0.01 0.09 0.01 0.01 0.01 0.11 0 0.01 0.01 0.04 0.02 0.07 0 0.01 0.01 0.06 0.02 0.06 0 0.01 0.02 0.07 0.01 0.04 0.01 0.02 0.02 0.07 0.01 0.03 0.01 0.04 0.03 0.07 0 0.01 0.02 0.06 0.03 0.06 0 0 0.01 0.02 0.04 0.09 0 0 0.01 0.03 0.03 0.07 0.01 0.02 0.02 0.04 0.04 0.07 0 0.01 0.02 0.02 0.04 0.09 0.01 0.01 0 0 0.04 0.07 0.01 0.01 0.03 0.05 0 0 0.04 0.07 0.04 0.06 0 0.01 0.05 0.06 0.01 0.01 0.04 0.05 0.04 0.07 0 0 0.05 0.06 0.01 0.02 0.04 0.05 0.05 0.06 0.06 0.06 0 0.01 0.05 0.06 0.01 0.01 0.05 0.05 0.05 0.06 0.01 0 0.05 0.07 0.02 0.01 0.05 0.05 0.06 0.06 0.03 0.03 0.03 0.03 0.07 0.06 0.05 0.05 0.01 0.01 0.07 0.06 0 0 0.07 0.06 0.05 0.04 0.02 0.02 0.07 0.06 0.04 0.03 0.04 0.03 0.07 0.06 0.06 0.04 0.02 0.01 0.08 0.06 0 0 0.08 0.06 0.06 0.04 0.02 0.01 0.08 0.06 0.04 0.03 0.02 0.01 0.11 0.07 0.02 0.01 0.01 0.01 0.14 0.09 0.16 0.09 0.02 0.01 0.05 0.03 0.08 0.04 0.05 0.03 0.03 0.02 0.15 0.08 0.01 0 0.14 0.07 0.02 0.01 0.02 0.02 0.06 0.02 0.08 0.04 0.01 0 0.07 0.04 0.08 0.04 0.17 0.07 0.08 0.04 0.09 0.03 0.08 0.04c0.17,0.07 0.35,0.13 0.52,0.19l0.09 0.03 0.09 0.03 0.09 0.03 0.09 0.03 0.28 0.09 0.09 0.02 0.18 0.05 0.09 0.03 0.01 0 0.09 0.02c0.15,0.04 0.3,0.08 0.46,0.11l0.01 0.01 0.09 0.02 0.01 0 0.09 0.02 0.09 0.02c0.13,0.02 0.26,0.05 0.39,0.07l0.09 0.01 0.3 0.05 0.1 0.02 0.18 0.02 0.02 0 0.19 0.03 0.1 0.01 0.1 0.01 0.09 0.01 0.1 0.01 0.1 0.01 0.01 0 0.19 0.01 -0.06 0.04c-0.46,0.22 -1.84,0.99 -0.19,1.58 0.73,0.26 1.53,0.38 2.36,0.38zm2.49 -0.3c3.7,-0.85 7.13,-3.29 6.63,-4.73 -0.13,-0.34 -0.49,-0.33 -0.99,-0.32 0.27,-0.35 0.47,-0.71 0.61,-1.07l0 -0.01c0.03,-0.08 0.05,-0.16 0.08,-0.24l0 0 0.03 -0.11 0.01 -0.03c0.02,-0.08 0.03,-0.15 0.05,-0.23l0 0 0.02 -0.12 0 -0.01 0.01 -0.11 0 -0.01 0.01 -0.02c0,-0.08 0.01,-0.15 0.01,-0.23l0 0 0 -0.13 0 -0.01c0,-0.07 0,-0.15 -0.01,-0.22l0 -0.03 -0.01 -0.11 0 -0.01 -0.02 -0.11 0 -0.02 -0.02 -0.08 0 -0.03 -0.01 -0.03 -0.02 -0.09 0 0 -0.03 -0.11 -0.01 -0.04 -0.03 -0.1 0 0 -0.04 -0.11 0 -0.01 -0.01 -0.03 -0.03 -0.09 0 -0.01 -0.02 -0.04 -0.04 -0.08 0 -0.01 -0.04 -0.09 -0.01 -0.02 -0.01 -0.02 -0.04 -0.08 -0.02 -0.03 -0.06 -0.11 0 -0.01 -0.05 -0.08 -0.02 -0.03 -0.01 -0.03 -0.04 -0.07 -0.02 -0.02 -0.02 -0.03 -0.06 -0.09 0 0 -0.01 -0.01 -0.07 -0.1 -0.01 -0.01 -0.07 -0.09 -0.01 -0.02 -0.02 -0.02 -0.07 -0.09 -0.01 -0.01 -0.06 -0.07 -0.03 -0.04 -0.02 -0.02c-0.06,-0.07 -0.13,-0.14 -0.19,-0.21l-0.11 -0.1 -0.01 -0.01 -0.11 -0.11 -0.01 -0.01 -0.02 -0.01 0.07 0.06 0.01 0 0 0 0 0.01 0.01 0c0.11,0.11 0.24,0.23 0.36,0.35l0 0 0.01 0.01 0 0.01 0.01 0 0 0 0.01 0.01 0.01 0.01c0.04,0.05 0.1,0.1 0.16,0.17zm-0.74 -0.71l-0.02 -0.02 -0.11 -0.09 0 0 -0.12 -0.1 0.01 0.01 0.01 0.01 0.01 0.01 0.01 0.01 0.01 0 0.01 0.01 0.01 0.01 0.02 0.01 0.01 0.01 0.01 0.01 0.01 0.01 0.01 0.01 0.01 0.01 0.02 0.01 0.01 0.01 0.01 0.01 0.01 0.01 0.02 0.01 0.01 0.01 0.01 0.01 0.01 0.02 0.01 0 0.02 0.02 0.02 0.01 -0.04 -0.03zm-0.26 -0.22l0.01 0.01 0 0z"/>
   <path class="fil0" d="M9.51 73.76c-0.88,-0.54 -1.56,-1.14 -2.04,-1.78l0 -0.01 -0.01 -0.01 -0.01 -0.01 -0.01 -0.01 0 -0.01 -0.01 -0.01 -0.01 -0.01 0 0 -0.02 -0.02 0 -0.01 -0.09 -0.13 -0.01 -0.02 -0.01 -0.01 -0.08 -0.13 -0.01 -0.02 -0.01 0 0 -0.01 0 0 -0.13 -0.23 -0.15 -0.31 -0.02 -0.03 0 -0.01 -0.01 -0.02 -0.08 -0.21 -0.01 -0.01 0 -0.01 -0.1 -0.32 -0.02 -0.09 -0.01 -0.01 0 -0.02 0 -0.01 -0.01 -0.01 -0.03 -0.13 0 -0.02 0 -0.01 -0.01 -0.01 0 -0.01 -0.06 -0.41 -0.02 -0.27 0 -0.08 0 -0.35 0.01 -0.1 0.02 -0.26 0 -0.01 0 -0.01 0.01 -0.01c0.02,-0.12 0.04,-0.28 0.07,-0.41l0 0 0 -0.01 0 -0.01 0.03 -0.11 0.01 -0.01 0 -0.03 0.01 -0.04 0.02 -0.04 0 -0.01 -0.03 0.13c-0.01,0.35 0.21,0.67 0.67,0.93 0.05,0.19 0.13,0.37 0.21,0.54l0 0.01c0.04,0.07 0.08,0.15 0.13,0.23l0 0.01 0.06 0.09 0.01 0.01 0.02 0.04 0.03 0.05 0.02 0.03 0.01 0.02 0.06 0.08 0.01 0.01 0 0 0.01 0.01 0.06 0.09 0.01 0.02 0.02 0.02 0.07 0.09 0 0.01 0.04 0.04 0.04 0.05 0.01 0.01 0.03 0.04 0.04 0.04 0.02 0.03 0.02 0.02 0.04 0.04 0.04 0.05 0 0 0.04 0.04 0.05 0.05 0.02 0.02 0.02 0.02 0.05 0.05 0.04 0.04 0 0 0.05 0.05 0.05 0.04 0.04 0.05 0.05 0.04 0.04 0.03 0.01 0.01 0.1 0.09 0 0 0.01 0 0.05 0.04 0.05 0.04 0.03 0.03 0.02 0.02 0.06 0.04 0.05 0.04 0 0 0.06 0.04 0.05 0.05 0.06 0.04 0.06 0.04 0.05 0.03 0.01 0.01 0.06 0.04 0.06 0.04 0.01 0.01 0.05 0.03 0.06 0.04 0.04 0.02 0.03 0.02 0.06 0.04 0.06 0.04 0.18 0.1 0 0 0 0 0.17 0.1 0.01 0 0 0 0.17 0.09 0.02 0.01 0.16 0.08 0.02 0.02 0.04 0.02 0.13 0.05 0.02 0.02 0.01 0 0.09 0.04 0.06 0.03 0.04 0.01 0.03 0.02 0.06 0.03 0.06 0.02 0.04 0.02 0.03 0.01 0.06 0.03 0.07 0.02 0.04 0.02 0.02 0.01 0.07 0.02 0.06 0.03 0.06 0.02 0.01 0 0.13 0.05 0.06 0.02 0.01 0.01 0.07 0.02 0.06 0.02 0.07 0.03 0 0 0.07 0.02 0.07 0.02 0.06 0.02 0.01 0 0.06 0.02 0.07 0.03 0 0 0.14 0.04 0.07 0.02 0.07 0.02 0.01 0 0.06 0.02 0.07 0.02 0.07 0.01 0.02 0.01 0.05 0.01 0.07 0.02 0.14 0.04 0.07 0.01 0.21 0.05 0 0 0.08 0.02 0.07 0.01 0.07 0.02c0.17,0.03 0.34,0.07 0.51,0.1l-0.21 0.15c-1.86,1.71 1.82,1.98 2.57,2.02 0.56,0.03 1,0.01 1.25,0.01l-0.01 0 -0.09 0 -0.14 0.01 -0.02 0 -0.12 0 -0.13 0 -0.01 0c-0.14,0.01 -0.29,0.01 -0.43,0.01l-0.05 0 -0.09 -0.01 -0.14 0 -0.02 0 -0.12 0 -0.13 -0.01 -0.01 0 -0.02 0 -0.2 -0.01 -0.02 0 -0.04 0 -0.14 -0.01 -0.07 0 -0.07 -0.01 -0.14 -0.01 -0.03 0 -0.1 -0.01 -0.14 -0.01 -0.01 0 -0.05 -0.01 -0.19 -0.02 -0.03 0 -0.14 -0.02 -0.08 0 -0.06 -0.01 -0.13 -0.02 -0.05 -0.01 -0.09 -0.01 -0.14 -0.02 -0.01 0 -0.12 -0.02 -0.04 -0.01 -0.1 -0.01 -0.14 -0.03 -0.01 0 -0.12 -0.02 -0.14 -0.03 -0.05 -0.01 -0.08 -0.01 -0.13 -0.03 -0.03 -0.01 -0.11 -0.02 -0.12 -0.03 -0.01 0 -0.13 -0.03 -0.09 -0.02 -0.04 -0.01 -0.13 -0.04 -0.02 0 -0.11 -0.03 0 0 -0.13 -0.04 -0.03 0 -0.03 -0.01 -0.18 -0.05 -0.02 -0.01 0 0 -0.12 -0.04 -0.1 -0.03 -0.03 -0.01 -0.12 -0.04 -0.07 -0.02 -0.06 -0.02 -0.12 -0.04 -0.04 -0.02 -0.03 -0.01 -0.16 -0.06 -0.02 0 -0.01 -0.01 -0.03 -0.01 -0.17 -0.06 -0.01 -0.01 -0.02 -0.01 -0.17 -0.07 -0.02 -0.01 -0.05 -0.01 -0.16 -0.07 -0.01 -0.01 -0.17 -0.08 -0.01 0 -0.02 -0.01 -0.09 -0.04 -0.11 -0.06 -0.01 0 -0.16 -0.08 -0.03 -0.01 -0.03 -0.02 -0.11 -0.06 -0.05 -0.03 -0.02 -0.01 -0.15 -0.08 -0.02 -0.01 -0.08 -0.05 -0.11 -0.06z"/>
   <path class="fil0" d="M9.51 73.76c-0.88,-0.54 -1.56,-1.14 -2.04,-1.78l0 -0.01 -0.01 -0.01 -0.01 -0.01 -0.01 -0.01 0 -0.01 -0.01 -0.01 -0.01 -0.01 0 0 -0.02 -0.02 0 -0.01 -0.09 -0.13 -0.01 -0.02 -0.01 -0.01 -0.08 -0.13 -0.01 -0.02 -0.01 0 0 -0.01 0 0 -0.13 -0.23 -0.15 -0.31 -0.02 -0.03 0 -0.01 -0.01 -0.02 -0.08 -0.21 -0.01 -0.01 0 -0.01 -0.1 -0.32 -0.02 -0.09 -0.01 -0.01 0 -0.02 0 -0.01 -0.01 -0.01 -0.03 -0.13 0 -0.02 0 -0.01 -0.01 -0.01 0 -0.01 -0.06 -0.41 -0.02 -0.27 0 -0.08 0 -0.35 0.01 -0.11 0.01 -0.19 0 0.01 0 0c-0.02,0.84 0.66,1.13 1.23,1.22l0.02 0.04 0.02 0.03 0.02 0.03 0.01 0 0.02 0.04 0.02 0.03 0.02 0.03 0.03 0.04 0.02 0.03 0.03 0.03 0 0.01 0.02 0.02 0.03 0.04 0.02 0.03 0.02 0.02 0.01 0.01 0.02 0.04 0.03 0.03 0.03 0.03 0 0 0.03 0.03 0.02 0.03 0.03 0.04 0.03 0.03 0.03 0.03 0.03 0.03 0.05 0.06 0.01 0.01 0.03 0.03 0.03 0.03 0.03 0.03 0.03 0.03 0.03 0.04 0.03 0.02 0.01 0.01 0.03 0.03 0.03 0.03 0.07 0.06 0.03 0.03 0.04 0.03 0.03 0.03 0.04 0.03 0.03 0.03 0.08 0.06 0.03 0.03 0.04 0.04 0.02 0.01 0.02 0.02 0.04 0.02 0.04 0.03 0.07 0.06 0.04 0.03 0.04 0.03 0.04 0.03 0.05 0.03 0.04 0.03 0.04 0.03 0.04 0.03 0.04 0.02 0.04 0.03 0.01 0.01 0.04 0.02 0.04 0.03 0.05 0.03 0.02 0.01 0.02 0.02 0.04 0.02 0.05 0.03 0.04 0.03 0.04 0.02 0.03 0.02 0.04 0.02 0.03 0.02 0.04 0.02 0 0 0.04 0.02 0.03 0.02 0.04 0.02 0.03 0.02 0.02 0.01 0.05 0.03 0.01 0 0.03 0.02 0.04 0.02 0.04 0.02 0.03 0.02 0.01 0 0.03 0.02 0.04 0.02 0.03 0.02 0.04 0.01 0.08 0.04 0.03 0.02 0.04 0.02 0.04 0.02 0.11 0.05 0.04 0.02 0.16 0.06 0.04 0.02 0.04 0.02 0.04 0.02 0 0 0.03 0.01 0.04 0.02 0.04 0.01 0.04 0.02 0.12 0.05 0.04 0.01 0.04 0.02 0.04 0.01 0.02 0.01 0.02 0.01 0.04 0.01 0.05 0.02 0.04 0.01 0.04 0.02 0.01 0 0.03 0.01 0.04 0.02 0.04 0.01 0.04 0.02 0.04 0.01 0.02 0.01 0.02 0.01 0.05 0.01 0.04 0.01 0.04 0.02 0.04 0.01 0.02 0 0.02 0.01 0.05 0.02 0.04 0.01 0.04 0.01 -0.14 0.16c-0.82,1.22 0.14,2.01 2.86,2.36 -0.27,-0.03 -0.54,-0.06 -0.81,-0.1l0 0 -0.02 0 -0.2 -0.04 -0.02 0 -0.07 -0.01 -0.1 -0.02 -0.07 -0.01 -0.02 0 -0.1 -0.02 -0.09 -0.02 -0.03 -0.01 -0.07 -0.01 -0.09 -0.02 -0.08 -0.02 -0.01 0 -0.19 -0.04 -0.03 -0.01 -0.06 -0.01 -0.17 -0.04 0 0 -0.02 -0.01 -0.09 -0.02 -0.09 -0.02 -0.03 -0.01 -0.06 -0.02 -0.09 -0.02 -0.08 -0.02 -0.02 -0.01 -0.09 -0.02 -0.09 -0.03 -0.08 -0.03 -0.09 -0.02 -0.02 -0.01 -0.07 -0.02 -0.09 -0.03 -0.09 -0.03 -0.03 -0.01 -0.06 -0.02 -0.09 -0.03 -0.07 -0.03 -0.01 0 -0.09 -0.03 -0.08 -0.03 -0.04 -0.02 -0.05 -0.02 -0.08 -0.03 -0.08 -0.03 -0.01 0 -0.08 -0.04 -0.09 -0.03 0 0 -0.08 -0.04 -0.08 -0.03 -0.02 -0.01 -0.07 -0.03 -0.08 -0.03 -0.08 -0.04 -0.07 -0.03 -0.01 -0.01 -0.08 -0.04 -0.08 -0.04 0 0 -0.02 -0.01 -0.12 -0.06 -0.02 -0.01 -0.04 -0.01 -0.04 -0.03 -0.13 -0.07 -0.02 -0.01 0 0 -0.08 -0.04 -0.07 -0.04 -0.04 -0.02 -0.02 -0.01 -0.17 -0.1z"/>
   <path class="fil0" d="M25.88 65.52l0 0 0 0c0.31,0.35 0.39,0.45 0.61,0.78l0.01 0 0 0.01 0 0 0.01 0.01 0.01 0.01 0 0.01 0.03 0.04 0.2 0.33c0.08,0.14 0.17,0.33 0.24,0.48l0.01 0.01 0 0 0 0.01 0.01 0.01 0 0 0.02 0.05 0.01 0.01 0.09 0.25 0.01 0.02 0.02 0.04 0 0.01 0 0 0 0.01 0 0c0.05,0.15 0.11,0.33 0.14,0.47l0.01 0.02 0 0.02 0.04 0.18 0 0.02 0.01 0.02 0.02 0.12 0 0.01 0 0 0 0 0 0.01c0.02,0.13 0.04,0.28 0.05,0.4l0.01 0.31 0 0 -0.03 0.43 -0.03 0.24 0 0.01 -0.02 0.1 0 0.02 -0.01 0.01 -0.06 0.31 -0.09 0.28 -0.1 0.28 -0.01 0.02 -0.07 0.17 -0.01 0.01 0 0.01 -0.01 0.01 -0.01 0.01 0 0.01 -0.01 0.02 0 0.01 -0.01 0.01 0 0.01 0 0 -0.01 0.01 0 0.01 -0.01 0.01 0 0.01 -0.17 0.31 -0.1 0.17 -0.02 0.01 0 0 -0.01 0.03 -0.01 0 -0.01 0.02 -0.13 0.19 -0.01 0.01 -0.01 0.02 -0.01 0 0 0.01 -0.01 0.02 -0.01 0.01 0 0 -0.01 0.02 -0.01 0.01 -0.01 0 -0.01 0.01 -0.01 0.02 0 0.01 -0.01 0 -0.01 0.02 -0.01 0.01 0 0 -0.01 0.01 -0.01 0.02 -0.01 0 0 0.01 -0.02 0.02 0 0.01 -0.01 0 -0.01 0.01 -0.01 0.02 0 0 -0.01 0.01 -0.01 0.02 -0.01 0 -0.01 0.01 -0.01 0.01 -0.06 0.07 -0.01 0.01 0 0.01 -0.01 0.01 -0.02 0.01 0 0 -0.01 0.02 -0.01 0.01 -0.01 0.01 0 0 -0.02 0.02 -0.01 0.01 0 0 -0.01 0.02 -0.01 0.01 -0.01 0 -0.01 0.01 -0.01 0.02 -0.01 0 0 0.01 -0.02 0.01 -0.01 0.02 0 0 -0.01 0.01 -0.03 0.03 -0.01 0.01 -0.04 0.04 -0.01 0 -0.01 0.02 -0.01 0.01 -0.01 0.01 0 0 -0.02 0.02 -0.01 0.01 0 0 -0.02 0.01 -0.01 0.02 0 0 -0.02 0.01 -0.04 0.04 0.01 -0.01c1.12,-1.08 2.39,-3.28 0.8,-3.65l0.02 -0.07 0.01 -0.02 0.02 -0.05 0.02 -0.07 0 0 0.02 -0.08 0 -0.01 0.02 -0.06 0.02 -0.07 0 -0.03 0 0 0.03 -0.12 0 0 0.02 -0.11 0 -0.02 0 -0.01 0.01 -0.08 0 0 0.01 -0.06 0 -0.01 0 -0.08 0 -0.01 0.01 -0.06 0 -0.06 0 -0.01 0 -0.08 0 -0.04 0 -0.01 0 -0.09 0 -0.02 -0.01 -0.1 0 -0.02 0 -0.01 0 -0.02 -0.01 -0.08 0 -0.02 -0.01 -0.03 -0.01 -0.07 0 -0.02 -0.01 -0.06 -0.01 -0.07 0 0 -0.01 -0.03 -0.01 -0.07 -0.01 -0.02 -0.01 -0.02 -0.01 -0.08 0 0 -0.02 -0.06 0 -0.01 -0.03 -0.07 0 -0.01 -0.02 -0.07 -0.01 -0.02 -0.01 -0.05 -0.03 -0.07 -0.01 -0.04 -0.02 -0.03 -0.03 -0.08 -0.01 -0.01 -0.02 -0.06 -0.03 -0.06 0 -0.01 -0.04 -0.07 -0.02 -0.04 -0.02 -0.03 -0.04 -0.07 -0.01 -0.02 0 -0.01 -0.05 -0.08 -0.02 -0.03 0 0 -0.01 -0.02 -0.06 -0.1 0 0 -0.06 -0.09 -0.02 -0.03 -0.01 -0.02 -0.07 -0.09 0 0 0 0 -0.01 -0.01 -0.07 -0.1 -0.01 -0.01 -0.02 -0.02c-0.05,-0.07 -0.11,-0.13 -0.17,-0.2l0 -0.01 -0.11 -0.11 -0.01 -0.02c-0.1,-0.11 -0.21,-0.21 -0.32,-0.32l-0.01 0 -0.03 -0.03 0.08 0.07 0.01 0 0 0 0 0.01 0.01 0c0.11,0.11 0.24,0.23 0.36,0.35l0 0 0.01 0.01 0 0.01 0.01 0 0 0 0.01 0.01 0.01 0.01c0.04,0.05 0.1,0.1 0.16,0.17zm-0.85 -0.8l-0.02 -0.02 -0.01 -0.01 -0.11 -0.09 0.01 0.01 0.01 0.01 0.01 0.01 0.01 0.01 0.01 0 0.01 0.01 0.01 0.01 0.02 0.01 0.01 0.01 0.01 0.01 0.01 0.01 0.01 0.01 0.01 0.01 0.02 0.01 0.01 0.01 0.01 0.01 0.01 0.01 0.02 0.01 0.01 0.01 0.01 0.01 0.01 0.02 0.01 0 0.02 0.02 0.02 0.01 -0.15 -0.12zm-0.15 -0.13l0.01 0.01 0 0z"/>
   <path class="fil0" d="M9.51 73.76c-0.88,-0.54 -1.56,-1.14 -2.04,-1.78l0 -0.01 -0.01 -0.01 -0.01 -0.01 -0.01 -0.01 0 -0.01 -0.01 -0.01 -0.01 -0.01 0 0 -0.02 -0.02 0 -0.01 -0.09 -0.13 -0.01 -0.02 -0.01 -0.01 -0.08 -0.13 -0.01 -0.02 -0.01 0 0 -0.01 0 0 -0.13 -0.23 -0.15 -0.31 -0.02 -0.03 0 -0.01 -0.01 -0.02 -0.08 -0.21 -0.01 -0.01 0 -0.01 -0.1 -0.32 -0.02 -0.09 -0.01 -0.01 0 -0.02 0 -0.01 -0.01 -0.01 -0.03 -0.13 0 -0.02 0 -0.01 -0.01 -0.01 0 -0.01 -0.06 -0.41 -0.01 -0.15 -0.01 -0.02 0.02 0.14c0.15,0.76 0.15,0.76 2.66,1.77 0.09,0.06 0.18,0.13 0.27,0.19 0.26,0.23 0.75,0.66 0.82,1.52 0.02,0.3 0.09,1.2 2.24,1.88l0.17 0.05 -0.05 -0.01 0 0 -0.05 -0.01 -0.11 -0.03 -0.05 -0.02 -0.02 0 -0.15 -0.05 -0.05 -0.01 -0.03 -0.01 -0.02 -0.01 -0.11 -0.03 -0.05 -0.02 -0.04 -0.01 -0.02 0 -0.05 -0.02 -0.15 -0.05 -0.01 0 -0.21 -0.08 0 0c-0.14,-0.05 -0.27,-0.1 -0.41,-0.15l-0.02 -0.01 -0.21 -0.09 -0.02 0 -0.19 -0.09 -0.01 0 -0.14 -0.06 -0.05 -0.03 -0.01 0 -0.19 -0.09 -0.01 -0.01c-0.12,-0.06 -0.24,-0.12 -0.36,-0.18l-0.03 -0.02 -0.02 -0.01 -0.17 -0.09 0 0 -0.01 -0.01 -0.18 -0.1z"/>
   <path class="fil0" d="M25.88 65.52l0 0 0 0c0.31,0.35 0.39,0.45 0.61,0.78l0.01 0 0 0.01 0 0 0.01 0.01 0.01 0.01 0 0.01 0.03 0.04 0.2 0.33c0.08,0.14 0.17,0.33 0.24,0.48l0.01 0.01 0 0 0 0.01 0.01 0.01 0 0 0.02 0.05 0.01 0.01 0.09 0.25 0.01 0.02 0.02 0.04 0 0.01 0 0 0 0.01 0 0c0.05,0.15 0.11,0.33 0.14,0.47l0.01 0.02 0 0.02 0.04 0.18 0 0.02 0.01 0.02 0.02 0.12 0 0.01 0 0 0 0 0 0.01c0.02,0.13 0.04,0.28 0.05,0.4l0.01 0.31 0 0 -0.03 0.43 0 0.03 0 0.02 0 0.02 0 -0.01 0.01 -0.09c0.06,-1.01 -0.19,-1.36 -0.66,-1.62l0 -0.06 0 -0.01 0 0 0 -0.12 0 -0.03 -0.01 -0.09 0 -0.01 -0.01 -0.12 0 0 0 -0.01 -0.02 -0.11 0 0 -0.02 -0.11 0 -0.02 -0.01 -0.03 -0.01 -0.06 -0.01 -0.03 0 -0.02 -0.03 -0.1 0 -0.01 0 0 -0.04 -0.11 0 -0.01 -0.01 -0.05 -0.02 -0.05 -0.01 -0.02 0 -0.01 -0.03 -0.08 -0.01 -0.04 -0.06 -0.12 0 -0.01 -0.05 -0.1 0 0 0 -0.01 0 0 -0.05 -0.1 -0.01 -0.02 0 -0.01c-0.04,-0.07 -0.09,-0.15 -0.13,-0.22l-0.01 -0.01 0 -0.01 -0.07 -0.11 0 0 -0.07 -0.1 -0.01 -0.02 -0.02 -0.03 -0.04 -0.06 -0.02 -0.02 -0.02 -0.03 -0.04 -0.05 -0.03 -0.04 -0.01 -0.01 -0.04 -0.05 -0.04 -0.05 -0.01 -0.01c-0.09,-0.11 -0.19,-0.22 -0.3,-0.34l-0.02 -0.01 -0.1 -0.1 0 0 -0.1 -0.1 -0.01 -0.01 -0.04 -0.03 -0.01 -0.01zm2.2 4.82l-0.01 0.01 0.01 -0.01zm-2.19 -4.81l0 0 0 0zm-0.21 -0.18l-0.02 -0.02 -0.1 -0.08 0.01 0.01 0.01 0.01 0.01 0.01 0.01 0.01 0.01 0 0.01 0.01 0.01 0.01 0.02 0.01 0.01 0.01 0.01 0.01 0.01 0.01 0.01 0.01 0.01 0.01 0.02 0.01 0.01 0.01 0.01 0.01 0.01 0.01 0.02 0.01 0.01 0.01 0.01 0.01 0.01 0.02 0.01 0 0.02 0.02 0.02 0.01zm-0.3 -0.25l0.01 0.01 0 0zm0.41 0.35l0.01 0 0 0 0 0.01 0.01 0c0.11,0.11 0.24,0.23 0.36,0.35l0 0 0.01 0.01 0 0.01 0.01 0 0 0 0.01 0.01 0.01 0.01c0.04,0.05 0.1,0.1 0.16,0.17zm-0.66 -0.64l0.08 0.07z"/>
   <path class="fil0" d="M25.88 65.52l0 0 0 0c0.31,0.35 0.39,0.45 0.61,0.78l0.01 0 0 0.01 0 0 0.01 0.01 0.01 0.01 0 0.01 0.03 0.04 0.2 0.33c0.08,0.14 0.17,0.33 0.24,0.48l0.01 0.01 0 0 0 0.01 0.01 0.01 0 0 0.02 0.05 0.01 0.01 0.09 0.25 0.01 0.01c-0.18,-0.43 -0.34,-0.65 -0.84,-1.34 -0.12,-0.21 -0.25,-0.41 -0.41,-0.61l0 0c-0.12,-0.15 -0.25,-0.31 -0.4,-0.45l0 -0.01 -0.03 -0.03 -0.15 -0.14 0.01 0 0.01 0.01 0.32 0.31 0 0 0.01 0 0.01 0.01 0 0.01 0.01 0.01 0.01 0.02 0.01 0 0.02 0.02 0 0.01 0.02 0.01 0.01 0.01 0.01 0.01 0.12 0.13z"/>
   <path class="fil0" d="M23.47 73.37c-0.42,1.11 -5.94,2.21 -6.09,1.21 -0.1,-0.68 5.37,-2 6.03,-1.45l0.06 0.24z"/>
   <path class="fil0" d="M22.83 73.65c-0.57,0.88 -4.84,1.67 -4.97,0.91 -0.09,-0.56 4.46,-1.64 4.97,-1.18l0.06 0.12 -0.06 0.15z"/>
   <path class="fil0" d="M22.27 73.86c-0.61,0.67 -3.81,1.22 -3.94,0.67 -0.11,-0.48 3.5,-1.35 3.98,-0.95l0.07 0.11 -0.11 0.17z"/>
   <path class="fil0" d="M21.64 74.06c-0.65,0.5 -2.67,0.73 -2.76,0.42 -0.13,-0.45 2.58,-0.88 2.85,-0.71l0.08 0.11 -0.17 0.18z"/>
   <path class="fil0" d="M20.61 74.32c-0.37,0.14 -0.46,0.13 -1.06,0.07 0.19,-0.15 0.49,-0.3 0.73,-0.35 0.2,-0.04 0.47,-0.06 0.67,-0.06l0.21 0.09c-0.17,0.07 -0.38,0.19 -0.55,0.25z"/>
   <path class="fil0" d="M9.91 64.04l0.99 0.36c-1.54,0.93 -2.33,2.13 -2.34,3.34l-1.37 0.18c0.02,-1.4 0.93,-2.79 2.72,-3.88z"/>
   <path class="fil0" d="M7.19 67.92l1.37 -0.18c-0.02,1.1 0.6,2.2 1.87,3.1l-1.06 0.69c-1.47,-1.05 -2.2,-2.33 -2.18,-3.61z"/>
   <path class="fil0" d="M9.37 71.53l1.06 -0.69c0.15,0.11 0.3,0.21 0.47,0.31 1.58,0.95 3.68,1.45 5.8,1.49l-0.04 0.98c-2.47,-0.05 -4.9,-0.62 -6.75,-1.73 -0.19,-0.12 -0.37,-0.23 -0.54,-0.36z"/>
   <path class="fil0" d="M16.66 73.62l0.04 -0.98c2.19,0.03 4.4,-0.42 6.1,-1.37 2.87,-1.6 3.37,-4.09 1.44,-5.99l1.18 -0.21c2.24,2.21 1.66,5.1 -1.67,6.96 -1.98,1.1 -4.55,1.63 -7.09,1.59z"/>
   <path class="fil0" d="M25.42 65.07l-1.18 0.21c-0.32,-0.32 -0.72,-0.63 -1.19,-0.91l0.99 -0.36c0.54,0.33 1,0.69 1.38,1.06z"/>
   <path class="fil0" d="M5.25 85.05c-2.25,-1.36 -3.73,-3.02 -4.51,-5.05 -1.43,-3.72 -0.4,-6.06 -0.06,-6.83 -1.54,3.23 -0.19,6.83 4.1,9.41 6.47,3.9 17.19,4.01 23.94,0.25 4.66,-2.61 6.21,-6.38 4.58,-9.75 0.33,0.78 0.83,1.95 0.67,3.75 -0.21,2.4 -1,3.83 -1.39,4.51 -0.64,1.16 -2.38,3.36 -6.71,5.06 -5.37,2.04 -12.34,2.04 -17.68,0.05 -1.22,-0.5 -1.89,-0.77 -2.94,-1.4z"/>
   <path class="fil0" d="M25.28 66.94l-0.09 -0.32 -0.17 -0.61c-0.07,-0.27 -0.16,-0.62 -0.23,-0.88l-0.28 -1.11c-0.1,-0.4 -0.23,-0.94 -0.32,-1.33l-0.34 -1.5c-0.11,-0.49 -0.24,-1.16 -0.35,-1.66l-0.34 -1.76c-0.1,-0.56 -0.22,-1.31 -0.32,-1.88l-0.27 -1.89c-0.08,-0.59 -0.17,-1.39 -0.24,-1.99l-0.16 -1.87c-0.04,-0.6 -0.06,-1.4 -0.09,-2l0.01 -1.69c0.03,-0.57 0.09,-1.32 0.13,-1.89l0.2 -1.27c0.13,-0.64 0.14,-0.68 0.42,-1.54l0.24 -0.56 -0.01 -0.06 -0.36 0.23 -0.23 0.15c-0.25,0.14 -0.51,0.27 -0.78,0.38 -2.85,1.24 -6.76,1.24 -9.6,0.03 -0.14,-0.06 -0.33,-0.15 -0.47,-0.22l-0.38 -0.21c-0.38,-0.23 -0.38,-0.23 -0.55,-0.3l0.02 0.04c0.2,0.39 0.22,0.44 0.49,1.31l0.18 0.78c0.1,0.52 0.19,1.22 0.25,1.74l0.1 1.42c0.02,0.58 0.01,1.35 0.01,1.93l-0.07 1.76 -0.13 1.69 -0.21 1.88c-0.54,4.3 -1.42,8.82 -2.71,13.82l-0.07 0.28c0.02,1.19 0.8,2.38 2.34,3.31 0.34,0.2 0.7,0.38 1.08,0.55 2.96,1.26 7.04,1.25 10.01,-0.03 0.29,-0.12 0.56,-0.26 0.81,-0.4 2.09,-1.16 2.92,-2.79 2.48,-4.33z"/>
   <path class="fil1" d="M4.8 89.79c-2.84,-1.7 -4.39,-3.86 -4.67,-6.06l0.04 0.09c0.13,0.32 0.42,0.26 1,0.13 0.28,-0.06 0.54,-0.18 0.82,-0.22l0.29 0.06 0 -0.02c0.74,1 1.8,1.95 3.19,2.78 0.35,0.22 0.72,0.42 1.1,0.6l-0.08 -0.01c0,0.06 0.03,0.18 -0.02,0.62 -0.16,1.46 -0.01,2.14 0.34,2.88l0.18 0.26c-0.77,-0.32 -1.5,-0.69 -2.19,-1.11z"/>
   <path class="fil3" d="M1.19 79.33l6.13 -7.57c0.48,0.73 1.21,1.41 2.19,2 0.8,0.48 1.71,0.87 2.68,1.16l-3.03 9.56c-1.59,-0.48 -3.07,-1.11 -4.38,-1.9 -1.61,-0.96 -2.8,-2.07 -3.59,-3.25z"/>
   <path class="fil4" d="M23.39 74.29c-0.53,0.24 -1.1,0.45 -1.69,0.63 -0.62,0.19 -1.27,0.33 -1.93,0.44l1.78 9.85c1.09,-0.18 2.15,-0.42 3.17,-0.72 0.96,-0.29 1.89,-0.63 2.76,-1.04l-4.09 -9.16z"/>
   <path class="fil1" d="M0.14 85.77l-0.01 -2.04c0.28,2.2 1.83,4.35 4.67,6.06 0.69,0.42 1.43,0.79 2.2,1.12l0.01 2.04c-0.78,-0.33 -1.51,-0.71 -2.2,-1.12 -2.84,-1.71 -4.4,-3.86 -4.67,-6.06z"/>
   <path class="fil3" d="M9.51 73.76c-0.88,-0.54 -1.56,-1.14 -2.04,-1.78l-0.13 -0.18 -0.15 -0.23 -0.13 -0.24 -0.16 -0.33 -0.11 -0.26 -0.11 -0.37 -0.07 -0.28 -0.06 -0.41 -0.02 -0.31 0 -0.43 0.03 -0.28 -0.01 0.03c-0.02,0.83 0.66,1.13 1.23,1.22 0.45,0.72 1.16,1.39 2.13,1.98 0.75,0.45 1.59,0.81 2.49,1.08l-0.14 0.16c-0.82,1.22 0.15,2.02 2.9,2.37 -2.08,-0.21 -4.07,-0.8 -5.65,-1.74z"/>
   <path class="fil5" d="M21.64 74.06c-0.65,0.5 -2.67,0.73 -2.76,0.42 -0.13,-0.45 2.58,-0.88 2.85,-0.71l0.08 0.11 -0.17 0.18z"/>
   <path class="fil3" d="M28.28 85.28c-0.4,0.22 -1.07,0.59 -2.41,1.12 -5.37,2.04 -12.34,2.04 -17.68,0.05 -0.32,-0.13 -0.74,-0.3 -1.06,-0.43 -0.57,-0.28 -1.32,-0.66 -1.88,-0.97l-0.83 -0.54c-1.24,-0.94 -1.57,-1.23 -2.49,-2.35l-0.35 -0.51c-0.14,-0.24 -0.34,-0.57 -0.47,-0.82l-0.2 -0.41c-0.06,-0.15 -0.15,-0.35 -0.2,-0.51l-0.14 -0.36 -0.13 -0.41 -0.09 -0.35 -0.09 -0.37 -0.07 -0.35 -0.07 -0.37 -0.05 -0.37 -0.04 -0.39 -0.02 -0.41c0,-0.14 -0.01,-0.33 -0.01,-0.47l0.03 -0.52 0.03 -0.24 -0.03 0.31c0,0.37 0,0.64 0.13,1.21 0.37,2.09 1.91,4.13 4.62,5.76 1.19,0.72 2.53,1.31 3.96,1.77 3.42,3.31 3.55,3.44 7.55,3.54 6.55,0.16 10.76,-1.82 12.69,-3.02 -0.21,0.12 -0.49,0.3 -0.7,0.41z"/>
   <path class="fil1" d="M13.85 49.69c-0.18,7.35 -1.51,14.57 -2.17,21.87 -0.27,-0.12 -0.53,-0.26 -0.78,-0.41 -1.09,-0.66 -1.8,-1.45 -2.13,-2.27l0.07 -0.28c2.24,-9.68 3.18,-17.1 2.87,-22.71l-0.12 -1.38 -0.2 -1.19 -0.18 -0.78c-0.27,-0.87 -0.29,-0.92 -0.49,-1.31l-0.02 -0.04c0.17,0.07 0.17,0.07 0.55,0.3l0.38 0.21c0.14,0.07 0.33,0.16 0.47,0.22 1.27,0.54 1.72,3.7 1.75,7.77z"/>
   <path class="fil4" d="M17.31 72.63c0,0 0.1,-23.42 1.18,-25.47 1.07,-2.05 2.02,-1.71 2.64,6.2 0.62,7.9 2.66,17.25 2.66,17.25 0,0 -1.57,1.68 -6.48,2.02z"/>
   <path class="fil4" d="M25.69 87.92c0,0 -2.13,0.82 -3.44,1.05 -1.31,0.22 -3.91,0.51 -3.91,0.51 0,0 -0.4,0.34 -0.24,0.91 0.17,0.57 1.47,1.68 4.4,1.11 2.93,-0.56 3.56,-2.17 3.64,-2.74 0.09,-0.57 -0.45,-0.84 -0.45,-0.84z"/>
   <path class="fil4" d="M28.42 82.97c0,0 -1.24,1.54 -5.19,2.45 -3.94,0.91 -6.47,0.3 -6.47,0.3 0,0 7.06,0.1 11.66,-2.75z"/>
   <path class="fil0" d="M27.52 22.37l-2.4 0.6c-4.37,-2.63 -11.62,-2.7 -16.19,-0.16 -4.56,2.55 -4.71,6.74 -0.33,9.38 4.38,2.64 11.63,2.71 16.19,0.16 4.56,-2.54 4.71,-6.74 0.33,-9.38l2.4 -0.6c5.64,3.39 5.45,8.81 -0.43,12.09 -5.89,3.28 -15.24,3.18 -20.88,-0.21 -5.65,-3.4 -5.45,-8.81 0.43,-12.1 5.89,-3.28 15.23,-3.18 20.88,0.22z"/>
   <path class="fil0" d="M5.8 37.54c-0.05,-0.46 -0.11,-0.93 -0.16,-1.4 0.17,1.48 1.2,2.92 3.11,4.07 4.31,2.6 11.45,2.67 15.94,0.16 2.12,-1.18 3.27,-2.72 3.44,-4.3 -0.05,0.47 -0.1,0.94 -0.15,1.41 -0.18,1.55 -1.31,3.07 -3.4,4.23 -4.43,2.47 -11.46,2.4 -15.71,-0.16 -1.88,-1.13 -2.9,-2.55 -3.07,-4.01z"/>
   <path class="fil6" d="M25.57 20.55l-2.19 -0.19c-3.46,-2.08 -9.19,-2.14 -12.79,-0.13 -3.61,2.01 -3.73,5.33 -0.27,7.41 3.46,2.08 9.19,2.14 12.79,0.13 3.61,-2.01 3.73,-5.33 0.27,-7.41l2.19 0.19c4.62,2.78 4.46,7.21 -0.35,9.89 -4.82,2.68 -12.46,2.61 -17.08,-0.17 -4.62,-2.78 -4.46,-7.21 0.35,-9.9 4.82,-2.68 12.46,-2.6 17.08,0.18z"/>
   <path class="fil1" d="M5.57 28.73c-0.2,-0.71 -0.41,-1.41 -0.62,-2.11 0.39,1.33 1.45,2.6 3.19,3.65 4.62,2.78 12.26,2.85 17.08,0.17 1.95,-1.09 3.13,-2.46 3.55,-3.89 -0.21,0.7 -0.41,1.41 -0.62,2.11 -0.39,1.36 -1.51,2.66 -3.36,3.69 -4.56,2.55 -11.81,2.48 -16.19,-0.16 -1.65,-0.99 -2.65,-2.2 -3.03,-3.46z"/>
   <path class="fil1" d="M7.86 24.58c-0.13,-0.66 -0.25,-1.33 -0.37,-2 0.21,1.16 1.06,2.29 2.56,3.19 3.6,2.17 9.56,2.23 13.31,0.13 1.67,-0.93 2.63,-2.13 2.85,-3.37l-0.36 2c-0.21,1.19 -1.13,2.35 -2.74,3.24 -3.6,2.01 -9.33,1.95 -12.79,-0.13 -1.44,-0.87 -2.26,-1.95 -2.46,-3.06z"/>
   <path class="fil0" d="M6.08 12.06c0.54,0.69 1.29,1.34 2.24,1.91 4.5,2.71 11.94,2.78 16.63,0.17 1.13,-0.63 2,-1.36 2.6,-2.14 -0.76,0.98 -1.52,1.97 -2.28,2.96 -0.47,0.62 -1.15,1.19 -2.04,1.69 -3.69,2.06 -9.55,2 -13.09,-0.13 -0.75,-0.46 -1.34,-0.97 -1.76,-1.51 -0.77,-0.99 -1.53,-1.97 -2.3,-2.95z"/>
   <path class="fil6" d="M28.28 5.14c-6.08,-3.65 -16.13,-3.75 -22.46,-0.22 -6.33,3.53 -6.54,9.35 -0.47,13.01 6.08,3.65 16.13,3.75 22.46,0.22 6.33,-3.53 6.54,-9.35 0.47,-13.01z"/>
   <path class="fil7" d="M25.99 13.48l-0.03 0.02c-0.31,0.22 -0.64,0.44 -1.01,0.64 -3.03,1.69 -7.22,2.25 -11.02,1.71 -0.43,-0.06 -0.86,-0.14 -1.28,-0.23 -1.59,-0.34 -3.07,-0.89 -4.33,-1.65 -0.23,-0.14 -0.46,-0.29 -0.67,-0.43l0 -0.01c-3.79,-2.71 -3.42,-6.71 1.02,-9.19 4.68,-2.61 12.13,-2.54 16.62,0.17 4.14,2.49 4.34,6.34 0.7,8.97z"/>
   <path class="fil0" d="M25.99 13.48c-0.32,0.23 -0.66,0.45 -1.04,0.66 -4.69,2.61 -12.13,2.54 -16.63,-0.17 -0.23,-0.14 -0.46,-0.29 -0.67,-0.44 -0.15,-0.64 -0.1,-1.3 0.15,-1.93 0.46,-1.12 1.11,-2.17 1.92,-3.1 1.12,-1.29 2.27,-1.98 2.71,-2.22 0.29,-0.15 0.68,-0.35 0.98,-0.47 0.57,-0.24 1.03,-0.36 1.03,-0.36 0.47,-0.12 0.72,-0.18 1.27,-0.25 0.59,-0.08 1.2,-0.07 1.2,-0.07 1.14,0.02 1.86,0.2 2.49,0.38 0.42,0.12 1.09,0.36 1.9,0.82l0.19 0.11c0.16,0.1 0.37,0.22 0.51,0.33 0.22,0.15 0.5,0.36 0.71,0.54 0.66,0.55 1.07,1.02 1.18,1.15 0.37,0.43 0.7,0.84 1.12,1.5 0.44,0.7 0.7,1.3 0.82,1.59 0.26,0.63 0.31,1.29 0.16,1.93z"/>
   <path class="fil1" d="M27.81 18.15c-0.84,0.47 -1.74,0.87 -2.7,1.21l-0.02 0.01c-6.22,2.22 -14.47,1.72 -19.74,-1.44 -2.03,-1.23 -3.36,-2.69 -3.99,-4.23 0.29,0.7 0.7,1.39 1.33,2.21 1.13,1.46 2.91,3.2 3.76,4.04l0 0 0 0c0.22,0.21 0.41,0.42 0.6,0.62l0.14 0.17 0.2 0.25 0.13 0.19 0.03 0.04c-0.04,0.15 -0.07,0.3 -0.1,0.48l-0.02 0.32c0.01,0.96 0.45,1.92 1.33,2.77 0.29,0.28 0.62,0.54 1.01,0.8l0.28 0.18c0.18,0.11 0.37,0.2 0.55,0.3 0.18,0.09 0.36,0.17 0.54,0.25l0.26 0.12 0 0c0.33,0.13 0.67,0.25 1.02,0.36l0.03 0.01c0.83,0.25 1.7,0.42 2.6,0.53 0.15,0.01 0.29,0.03 0.43,0.04l-0.14 -0.02c0.85,0.08 1.71,0.09 2.57,0.03l0.2 -0.01c0.22,-0.02 0.45,-0.04 0.68,-0.07l0.34 -0.05 0.37 -0.06c0.21,-0.03 0.41,-0.07 0.61,-0.11l0.26 -0.06c0.19,-0.04 0.37,-0.09 0.55,-0.14l0.17 -0.05c0.23,-0.07 0.45,-0.14 0.67,-0.22l0.17 -0.06c0.22,-0.08 0.44,-0.17 0.65,-0.27l0.13 -0.06c0.22,-0.1 0.44,-0.21 0.65,-0.33 0.27,-0.14 0.51,-0.3 0.74,-0.46l0.21 -0.16c0.22,-0.16 0.43,-0.33 0.61,-0.51l0.03 -0.03c1.12,-1.09 1.51,-2.37 1.2,-3.59l0.04 -0.07 0.17 -0.23 0.18 -0.22c0.12,-0.14 0.28,-0.32 0.4,-0.45l0.29 -0.29 0 0c1.7,-1.67 2.96,-3.03 3.74,-4.07 0.17,-0.22 0.61,-0.8 0.99,-1.51 0.18,-0.34 0.29,-0.62 0.33,-0.73l0.08 -0.22c-0.62,1.76 -2.14,3.45 -4.56,4.79z"/>
   <path class="fil0" d="M1.36 13.7c-0.09,-0.23 -0.16,-0.45 -0.23,-0.68 0.06,0.23 0.14,0.45 0.23,0.68z"/>
   <polygon class="fil0" points="32.37,13.36 32.45,13.11 "/>
   <polygon class="fil0" points="32.45,13.11 32.51,12.93 "/>
   <path class="fil0" d="M6.11 33.78c0.27,-0.53 0.55,-1.06 0.83,-1.59 -1.06,2.02 1.12,0.79 3.82,2.42 3.98,2.39 8.56,2.68 12.7,0.37 2.94,-1.64 4.47,-0.74 3.35,-2.84 0.28,0.52 0.56,1.05 0.84,1.58 1.23,2.28 0.22,4.88 -2.96,6.65 -4.49,2.51 -11.63,2.44 -15.94,-0.16 -2.93,-1.76 -3.8,-4.24 -2.64,-6.43z"/>
   <path class="fil1" d="M2.1 29.99l0 -1.64c0,2.13 1.37,4.25 4.11,5.9 5.64,3.39 14.99,3.49 20.88,0.21 3.02,-1.69 4.54,-3.94 4.54,-6.2l0 1.64c0.01,2.26 -1.51,4.51 -4.54,6.2 -5.88,3.28 -15.23,3.19 -20.88,-0.21 -2.74,-1.65 -4.1,-3.77 -4.11,-5.9z"/>
   <path class="fil1" d="M5.68 34.78c-0.09,-0.19 -0.17,-0.39 -0.26,-0.59 -0.08,-0.19 -0.17,-0.39 -0.25,-0.59 0.49,1.14 1.49,2.23 3,3.13 4.61,2.78 12.25,2.86 17.06,0.18 1.71,-0.96 2.83,-2.13 3.36,-3.38 -0.17,0.4 -0.34,0.79 -0.5,1.19 -0.51,1.19 -1.58,2.31 -3.22,3.22 -4.6,2.57 -11.91,2.5 -16.32,-0.16 -1.45,-0.87 -2.4,-1.91 -2.87,-3z"/>
   <path class="fil0" d="M5.8 37.54c-0.05,-0.46 -0.11,-0.93 -0.16,-1.4 0.17,1.48 1.2,2.92 3.11,4.07 4.31,2.6 11.45,2.67 15.94,0.16 2.12,-1.18 3.27,-2.72 3.44,-4.3 -0.05,0.47 -0.1,0.94 -0.15,1.41 -0.18,1.55 -1.31,3.07 -3.4,4.23 -4.43,2.47 -11.46,2.4 -15.71,-0.16 -1.88,-1.13 -2.9,-2.55 -3.07,-4.01z"/>
   <path class="fil1" d="M6.23 37.84l0.83 -1.9c0.48,0.79 1.25,1.54 2.32,2.18 0.25,0.15 0.52,0.3 0.79,0.43l-0.56 2.13c-0.3,-0.15 -0.59,-0.3 -0.86,-0.47 -1.16,-0.7 -2,-1.51 -2.52,-2.37z"/>
   <path class="fil4" d="M21.84 39.22c-0.19,0.06 -0.37,0.11 -0.56,0.17 -0.65,0.18 -1.34,0.31 -2.03,0.41l0.2 2.23c0.76,-0.1 1.5,-0.25 2.21,-0.45 0.2,-0.05 0.4,-0.11 0.6,-0.18l-0.42 -2.18z"/>
   <path class="fil1" d="M5.8 37.54l-0.16 -1.4c0.17,1.48 1.2,2.92 3.11,4.07 0.52,0.31 1.09,0.59 1.69,0.84l0.09 1.33c-0.59,-0.24 -1.14,-0.51 -1.66,-0.83 -1.88,-1.13 -2.9,-2.55 -3.07,-4.01z"/>
   <path class="fil2" d="M5.57 28.73l-0.62 -2.11c0.39,1.33 1.45,2.6 3.19,3.65 0.7,0.42 1.47,0.78 2.28,1.07l0.34 1.87c-0.77,-0.28 -1.5,-0.62 -2.16,-1.02 -1.65,-0.99 -2.65,-2.2 -3.03,-3.46z"/>
   <path class="fil2" d="M7.86 24.58l-0.37 -2c0.21,1.16 1.06,2.29 2.56,3.19 0.48,0.28 1,0.54 1.54,0.75l0.21 1.84c-0.52,-0.2 -1.02,-0.44 -1.48,-0.72 -1.44,-0.87 -2.26,-1.95 -2.46,-3.06z"/>
   <path class="fil2" d="M2.14 30.6l0 -1.64c0.24,1.92 1.59,3.8 4.07,5.29 0.6,0.36 1.24,0.68 1.92,0.97l0 1.64c-0.67,-0.29 -1.32,-0.61 -1.92,-0.97 -2.47,-1.49 -3.83,-3.37 -4.07,-5.29z"/>
   <path class="fil2" d="M12.76 23.31c0,0.05 -1.07,4.45 -3.92,1.36 0.23,-0.4 0.64,-1.8 -2.39,-4.72 0.46,0.44 1.02,0.87 1.66,1.25 1.34,0.81 2.94,1.39 4.65,1.74l0 0.31 0 0.06z"/>
   <path class="fil4" d="M22.36 26.18c-0.8,0.55 -3.78,1.36 -5.05,0.93 0.51,-0.25 4.59,-1.28 5.31,-1.18l-0.26 0.25z"/>
   <path class="fil2" d="M12.76 22.94c-1.71,-0.35 -3.31,-0.93 -4.65,-1.74 -0.64,-0.38 -1.2,-0.81 -1.66,-1.25 -0.15,-0.15 -0.34,-0.34 -0.49,-0.48l-0.45 -0.46 -0.42 -0.42 -0.39 -0.4 -0.36 -0.38 -0.33 -0.35 -0.31 -0.34 -0.28 -0.32 -0.26 -0.31 -0.24 -0.29 -0.23 -0.29 -0.21 -0.28 -0.2 -0.28 -0.19 -0.29 -0.19 -0.29 -0.18 -0.31 -0.17 -0.33 -0.17 -0.38 -0.12 -0.33 -0.13 -0.4c0.49,1.79 1.9,3.51 4.22,4.91 0.89,0.53 1.86,0.98 2.89,1.37l0.19 0.07c1.19,0.49 2.99,1.21 4.33,3.57z"/>
   <path class="fil0" d="M25.99 13.48l-0.01 0.06 -0.02 -0.04 -0.01 -0.03c-2.09,-5.28 -8.38,-6.07 -11.26,0.19 -0.25,0.54 -0.54,1.33 -0.76,2.19 -0.43,-0.06 -0.86,-0.14 -1.28,-0.23 -1.59,-0.34 -3.07,-0.89 -4.33,-1.65 -0.23,-0.14 -0.46,-0.29 -0.67,-0.43l0 -0.01 -0.01 -0.04 -0.03 -0.14 -0.02 -0.1 0 -0.07c-0.04,-0.33 -0.03,-0.66 0.04,-0.99l0.01 -0.02c0.74,-1.04 1.28,-1.8 5.29,-2.99 3.52,-1.05 4.98,-1.49 5.46,-3.05 1.32,-0.38 2.34,-0.15 3.1,0.31 0.36,0.22 0.64,0.4 1.22,0.87l0.47 0.42c0.22,0.21 0.5,0.5 0.71,0.73l0.38 0.46c0.14,0.18 0.32,0.42 0.46,0.6l0.28 0.44c0.09,0.15 0.21,0.34 0.29,0.49l0.19 0.36 0.17 0.35 0.1 0.22 0.07 0.17c0.26,0.63 0.31,1.29 0.16,1.93z"/>
   <path class="fil3" d="M13.89 12.27c-0.63,1.45 -1.01,2.55 -1.24,3.35 -1.59,-0.34 -3.07,-0.89 -4.33,-1.65 -0.23,-0.14 -0.46,-0.29 -0.67,-0.43l-0.01 -0.05 -0.03 -0.14 -0.02 -0.1 0 -0.07 0 0 0.03 -0.01c1.74,-1.7 2.16,-2.11 3.65,-2.7 1.5,-0.59 3.09,-0.58 3.15,0.01 0.05,0.46 -0.08,0.77 -0.53,1.79z"/>
   <path class="fil4" d="M10.36 3.56c-0.23,0.09 -0.45,0.18 -0.67,0.27 -0.27,0.12 -0.53,0.25 -0.79,0.38l-0.23 0.13c-0.31,0.17 -0.6,0.35 -0.86,0.54l1.92 4.48c0.21,-0.15 0.44,-0.29 0.68,-0.42l0.19 -0.11c0.2,-0.1 0.4,-0.2 0.62,-0.29 0.17,-0.08 0.34,-0.15 0.52,-0.22 0.17,-0.06 0.33,-0.12 0.5,-0.18l-1.25 -4.81c-0.21,0.07 -0.43,0.15 -0.63,0.23z"/>
   <path class="fil1" d="M28.3 7.76c-0.17,-0.45 -0.42,-0.89 -0.76,-1.32 -0.53,-0.7 -1.28,-1.35 -2.25,-1.93l-1.79 4.56c0.76,0.45 1.34,0.97 1.77,1.51 0.26,0.34 0.46,0.69 0.59,1.05 0.13,0.33 0.2,0.68 0.21,1.02l2.49 -3.59c-0.01,-0.44 -0.1,-0.87 -0.26,-1.3z"/>
   <path class="fil1" d="M13.99 6.8c0.24,-0.49 0.49,-0.98 0.74,-1.47 -0.24,0.47 -0.04,1 0.59,1.38 0.94,0.57 2.5,0.59 3.49,0.04 0.69,-0.38 0.91,-0.94 0.66,-1.44 0.25,0.49 0.5,0.99 0.75,1.48 0.33,0.65 0.04,1.38 -0.87,1.89 -1.29,0.72 -3.35,0.7 -4.59,-0.05 -0.83,-0.5 -1.09,-1.2 -0.77,-1.83z"/>
   <path class="fil8" d="M20.7 3.59c0,1.98 -1.61,3.59 -3.6,3.59 -1.98,0 -3.59,-1.61 -3.59,-3.59 0,-1.99 1.61,-3.59 3.59,-3.59 1.99,0 3.6,1.6 3.6,3.59z"/>
   <path class="fil6" d="M20.46 3.22c0,1.64 -1.34,2.98 -2.98,2.98 -1.65,0 -2.99,-1.34 -2.99,-2.98 0,-1.65 1.34,-2.99 2.99,-2.99 1.64,0 2.98,1.34 2.98,2.99z"/>
   <path class="fil9" d="M19.17 2.7c0,0.53 -0.44,0.97 -0.97,0.97 -0.54,0 -0.97,-0.44 -0.97,-0.97 0,-0.54 0.43,-0.97 0.97,-0.97 0.53,0 0.97,0.43 0.97,0.97z"/>
   <path class="fil4" d="M21.61 13.33c0,0 -1.15,-1.16 -2.58,-0.78 -1.43,0.38 -1.93,1.86 -2.21,2.44 -0.28,0.57 5.4,-0.18 5.52,-0.85 -0.15,-0.31 -0.73,-0.81 -0.73,-0.81z"/>
   <path class="fil10" d="M32.26 9.36c0.58,1.47 0.56,3.18 -0.03,4.68 -0.59,1.52 -1.75,2.75 -3.06,3.68 -1.32,0.92 -2.82,1.55 -4.33,2.05 -1.52,0.48 -3.07,0.86 -4.66,1.08 -3.15,0.42 -6.42,0.32 -9.49,-0.58 -3.06,-0.88 -5.98,-2.39 -8.21,-4.64 2.4,2.06 5.32,3.42 8.33,4.19 3.03,0.76 6.2,0.88 9.29,0.42 3.06,-0.48 6.18,-1.26 8.79,-2.93 1.29,-0.85 2.43,-1.97 3.05,-3.39 0.65,-1.4 0.76,-3.05 0.32,-4.56z"/>
  </g>
 </g>
</svg>
