<?xml version="1.0" encoding="UTF-8"?>
<!DOCTYPE svg PUBLIC "-//W3C//DTD SVG 1.0//EN" "http://www.w3.org/TR/2001/REC-SVG-20010904/DTD/svg10.dtd">
<!-- Creator: CorelDRAW 2018 (64 Bit Versão de avaliação) -->
<svg xmlns="http://www.w3.org/2000/svg" xml:space="preserve" width="33px" height="78px" version="1.0" style="shape-rendering:geometricPrecision; text-rendering:geometricPrecision; image-rendering:optimizeQuality; fill-rule:evenodd; clip-rule:evenodd"
viewBox="0 0 33 76.51"
 xmlns:xlink="http://www.w3.org/1999/xlink">
 <defs>
  <style type="text/css">
   <![CDATA[
    .fil9 {fill:#FEFEFE;fill-rule:nonzero}
    .fil4 {fill:#F1F5F5;fill-rule:nonzero}
    .fil2 {fill:#DDE3E4;fill-rule:nonzero}
    .fil1 {fill:#C1C7C9;fill-rule:nonzero}
    .fil3 {fill:#AEB4B5;fill-rule:nonzero}
    .fil0 {fill:#A5ABAD;fill-rule:nonzero}
    .fil6 {fill:#92999C;fill-rule:nonzero}
    .fil8 {fill:#787D7E;fill-rule:nonzero}
    .fil7 {fill:#2F3132;fill-rule:nonzero}
    .fil5 {fill:#2D3031;fill-rule:nonzero}
   ]]>
  </style>
 </defs>
 <g id="Camada_x0020_1">
  <metadata id="CorelCorpID_0Corel-Layer"/>
  <g id="_1668150177488">
   <path class="fil0" d="M32.99 64.93c-0.01,-0.17 -0.02,-0.38 -0.02,-0.55 -0.02,-0.21 -0.05,-0.49 -0.08,-0.7l-0.09 -0.5c-0.04,-0.17 -0.1,-0.41 -0.14,-0.59l-0.14 -0.45c-0.05,-0.15 -0.12,-0.35 -0.18,-0.5l-0.09 -0.21 0.1 -0.33c0.03,-0.17 0.08,-0.39 0.11,-0.56l0.05 -0.42c0.01,-0.16 0.03,-0.38 0.03,-0.54l-0.01 -0.42c-0.01,-0.17 -0.03,-0.38 -0.05,-0.55l-0.08 -0.43c-0.04,-0.17 -0.09,-0.39 -0.14,-0.56l-0.15 -0.44 -0.08 -0.19 0.06 0.22c-0.12,-0.35 -0.26,-0.69 -0.45,-1.03 -0.94,-1.65 -1.88,-3.29 -2.81,-4.93l-0.01 -0.06 -0.06 -0.34 -0.09 -0.42 -0.12 -0.37c-0.05,-0.15 -0.12,-0.34 -0.18,-0.48l-0.18 -0.4c-0.09,-0.16 -0.21,-0.38 -0.3,-0.54l-0.28 -0.42c-0.14,-0.19 -0.34,-0.44 -0.49,-0.62l-0.4 -0.42 -0.08 -0.08 0 -0.01 -0.07 -0.25c-0.03,-0.14 -0.07,-0.29 -0.11,-0.44 -0.05,-0.19 -0.09,-0.37 -0.13,-0.54l-0.04 -0.15c-0.24,-0.99 -0.44,-1.86 -0.57,-2.43 -0.07,-0.35 -0.17,-0.82 -0.25,-1.17l0 -0.03 -0.23 -1.13 -0.06 -0.3c-0.07,-0.38 -0.16,-0.81 -0.22,-1.16l-0.25 -1.41c-0.06,-0.34 -0.1,-0.62 -0.15,-0.87l-0.05 -0.33 -0.05 -0.31 -0.23 -1.51c-0.06,-0.47 -0.15,-1.09 -0.21,-1.57l-0.01 -0.08 -0.18 -1.58c-0.05,-0.49 -0.12,-1.15 -0.17,-1.65l-0.01 -0.06 -0.13 -1.68c-0.02,-0.19 -0.03,-0.43 -0.05,-0.66l0.11 -0.06 0.06 -0.03 0.03 -0.02 0.31 -0.18 -0.12 0.07c0.29,-0.17 0.56,-0.33 0.73,-0.46 0.3,-0.23 0.69,-0.54 0.96,-0.81 0.26,-0.27 0.58,-0.61 0.88,-1.12 0.59,-0.98 0.68,-1.73 0.75,-2.22 0,-0.06 0.02,-0.23 0.03,-0.45 0.8,-0.54 1.5,-1.12 2.02,-1.74l-0.07 -0.04c0.72,-0.88 1.18,-1.81 1.34,-2.76l1.34 -8.1 -0.02 0.09c0.3,-1.65 -0.17,-3.34 -1.43,-4.86l-0.03 0.02 -3.59 2.07 -0.17 1.66 -0.09 -0.04c-0.61,-0.34 -1.19,-0.62 -1.71,-0.84l-0.05 -0.02c-1.17,-0.49 -1.98,-0.69 -2.07,-0.71l0.47 -6.34c-4.29,-1.2 -9.36,-1.2 -13.67,0.04l0.01 0.01 0 0 0 0 0.41 6.28c0,0 -2.52,0.62 -3.73,1.5l-0.25 -1.53c-0.19,0.36 -0.3,0.72 -0.38,1.09 0.08,-0.37 0.19,-0.73 0.38,-1.09l-3.61 -2.08c-1.28,1.53 -1.76,3.23 -1.46,4.89l-0.01 -0.06c0.46,2.7 0.92,5.4 1.39,8.1 0.15,0.91 0.57,1.8 1.25,2.64 0.52,0.62 1.22,1.2 2.03,1.75l0.04 0.31c0.07,0.88 0.27,1.45 0.46,1.89 0.12,0.28 0.33,0.63 0.5,0.87 0.19,0.26 0.27,0.36 0.46,0.57l-0.02 -0.02 0.05 0.05 0.23 0.25 0.06 0.05 0.07 0.07 0.23 0.19 0.25 0.21 0.24 0.19 0.12 0.09c0.16,0.12 0.4,0.26 0.57,0.37l0.54 0.3c-0.01,0.22 -0.03,0.44 -0.04,0.63 -0.05,0.71 -0.12,1.78 -0.29,3.4 -0.29,2.74 -0.59,4.7 -0.85,6.27 -0.24,1.53 -0.71,3.93 -0.98,5.21 -0.31,1.38 -0.54,2.4 -0.91,3.84l-0.1 0.13c-0.73,0.75 -1.81,2.07 -2.05,4.02l-0.03 0.31 0 -0.01 0.02 -0.29c-0.92,1.64 -1.85,3.29 -2.77,4.93 -0.21,0.36 -0.36,0.73 -0.49,1.1l0.03 -0.09 -0.06 0.13c-0.22,0.67 -0.35,1.36 -0.37,2.04 0,0.2 0.01,0.46 0.02,0.65 0.02,0.16 0.04,0.38 0.07,0.54l0.08 0.43c0.04,0.14 0.09,0.32 0.13,0.48 -0.27,0.72 -0.67,1.9 -0.72,3.32l0 0.16c0,0.6 0.01,1.39 0.01,1.99 0,1.73 0.83,3.47 2.47,4.99l0 0.01 0.05 0.04c0.37,0.35 0.79,0.68 1.25,1l0.13 0.1c0.22,0.15 0.45,0.3 0.69,0.44 0.74,0.45 1.55,0.83 2.39,1.18 0.27,0.11 0.57,0.19 0.85,0.3 0.44,0.15 0.87,0.33 1.33,0.46 0.15,0.04 0.32,0.07 0.47,0.11 0.33,0.09 0.67,0.16 1.01,0.23 0.34,0.07 0.67,0.17 1.02,0.23l0 -0.04c5.53,0.97 11.78,0.26 16.25,-2.23 3.38,-1.89 5.08,-4.4 5.07,-6.92l0 -1.98z"/>
   <path class="fil1" d="M0 65.02c0.01,2.38 1.53,4.75 4.59,6.59 6.31,3.8 16.75,3.9 23.32,0.24 3.39,-1.89 5.09,-4.41 5.08,-6.92l0 1.98c0.01,2.52 -1.69,5.03 -5.07,6.92 -6.57,3.66 -17.01,3.56 -23.32,-0.24 -3.06,-1.84 -4.58,-4.21 -4.59,-6.58 0,-0.6 -0.01,-1.39 -0.01,-1.99z"/>
   <path class="fil2" d="M32.97 64.38c-0.02,-0.21 -0.05,-0.49 -0.08,-0.7l-0.09 -0.5c-0.04,-0.17 -0.1,-0.41 -0.14,-0.59l-0.14 -0.45c-0.05,-0.15 -0.12,-0.35 -0.18,-0.5l-0.17 -0.4 -0.2 -0.44 -0.17 -0.35 -0.21 -0.37 -0.18 -0.31 -0.2 -0.31 -0.17 -0.27 -0.19 -0.26 -0.16 -0.22 -0.17 -0.21 -0.14 -0.18 -0.14 -0.16 -0.1 -0.12 -0.09 -0.1c1.14,1.27 1.71,2.66 1.71,4.06 0.01,2.33 -1.56,4.66 -4.7,6.41 -6.08,3.39 -15.76,3.29 -21.6,-0.22 -2.83,-1.71 -4.24,-3.91 -4.25,-6.11 0,-1.4 0.56,-2.79 1.69,-4.07l-0.09 0.1 -0.1 0.12 -0.13 0.16 -0.15 0.18 -0.15 0.21 -0.17 0.23 -0.18 0.25 -0.18 0.28 -0.18 0.29 -0.2 0.34 -0.18 0.34 -0.2 0.38 -0.11 0.25c-0.24,0.6 -0.81,2.02 -0.88,3.72l0 0.16c0.01,2.38 1.53,4.75 4.59,6.59 6.31,3.8 16.75,3.9 23.32,0.24 3.39,-1.89 5.09,-4.41 5.08,-6.92 -0.01,-0.17 -0.02,-0.38 -0.02,-0.55z"/>
   <path class="fil3" d="M11.42 73.9c-1.27,-1.33 -0.1,-3.33 0.04,-3.47l0.07 -0.01c-2.24,-0.44 -4.32,-1.18 -6.07,-2.23 -0.71,-0.44 -1.34,-0.9 -1.87,-1.38l0.01 0.02c0.11,0.16 0.5,3.24 -1.14,3.2 0.6,0.55 1.31,1.09 2.13,1.58 2.02,1.22 4.47,2.05 7.08,2.51l-0.25 -0.22z"/>
   <path class="fil0" d="M2.47 70.03l0.01 1.98c0.42,0.4 0.9,0.78 1.43,1.14l0 -1.98c-0.54,-0.36 -1.02,-0.74 -1.44,-1.14z"/>
   <path class="fil0" d="M3.91 71.17l0 1.98c0.22,0.15 0.45,0.3 0.69,0.44 1.36,0.82 2.91,1.47 4.57,1.94l-0.01 -1.98c-1.66,-0.48 -3.21,-1.12 -4.57,-1.94 -0.23,-0.14 -0.46,-0.29 -0.68,-0.44z"/>
   <path class="fil0" d="M9.16 73.55l0.01 1.98c0.81,0.23 1.65,0.42 2.5,0.57l0 -1.98c-0.86,-0.15 -1.69,-0.34 -2.51,-0.57z"/>
   <path class="fil4" d="M24.54 70.48c-0.59,-0.1 -2.44,0.38 -2.92,0.66 -0.15,0.09 -1.07,0.82 -0.65,1.42 0.81,1.12 4.54,0.2 4.71,-1.16 0.02,-0.17 -0.01,-0.74 -1.14,-0.92z"/>
   <path class="fil0" d="M28.38 65.36c-0.63,0.61 -1.4,1.17 -2.32,1.69 -2.55,1.42 -5.79,2.16 -9.06,2.24 -1.65,0.04 -3.3,-0.09 -4.88,-0.39 -2.07,-0.4 -4,-1.08 -5.62,-2.05l-0.15 -0.09c-0.35,-0.22 -0.68,-0.45 -0.98,-0.69 -1.73,-1.34 -2.63,-2.92 -2.72,-4.51 -0.07,-1.52 0.58,-3.04 1.97,-4.38 0.62,-0.6 1.38,-1.16 2.29,-1.66 1.24,-0.69 2.64,-1.23 4.13,-1.6 5.14,-1.28 11.33,-0.67 15.43,1.79 1.97,1.19 3.18,2.64 3.64,4.14 0.28,0.92 0.28,1.86 0.01,2.79 -0.29,0.94 -0.87,1.87 -1.74,2.72zm3.15 -4.9c-0.51,-1.66 -1.84,-3.26 -4.02,-4.57 -4.53,-2.72 -11.36,-3.39 -17.04,-1.98 -1.64,0.41 -3.19,1 -4.56,1.76 -1,0.56 -1.84,1.18 -2.52,1.83 -1.54,1.49 -2.26,3.17 -2.17,4.84 0.09,1.76 1.09,3.51 2.99,4.99 0.34,0.26 0.7,0.51 1.09,0.76l0.16 0.1c1.79,1.07 3.92,1.82 6.21,2.26 1.74,0.33 3.56,0.47 5.38,0.43 3.62,-0.08 7.2,-0.9 10.01,-2.47 1.02,-0.57 1.87,-1.2 2.56,-1.87 0.96,-0.94 1.6,-1.96 1.92,-3.01 0.3,-1.01 0.3,-2.05 -0.01,-3.07z"/>
   <path class="fil1" d="M28.87 51.86l-0.01 -0.31 -0.04 -0.36 -0.06 -0.34 -0.09 -0.42 -0.12 -0.37c-0.05,-0.15 -0.12,-0.34 -0.18,-0.48l-0.18 -0.4c-0.09,-0.16 -0.21,-0.38 -0.3,-0.54l-0.28 -0.42c-0.14,-0.19 -0.34,-0.44 -0.49,-0.62l-0.4 -0.42 -0.27 -0.25c1.48,1.41 1.99,3.07 1.52,4.64 -0.4,1.38 -1.55,2.7 -3.43,3.75 -4.65,2.6 -12.05,2.52 -16.52,-0.17 -1.67,-1 -2.69,-2.23 -3.08,-3.51 -0.47,-1.56 0.02,-3.21 1.45,-4.61 -0.7,0.69 -2.03,2.12 -2.3,4.29l-0.03 0.31 -0.02 0.3 0 0.28 0.02 0.3 0.02 0.25 0.04 0.25 0.04 0.2 0.04 0.21 0.04 0.14 0.04 0.14c-0.01,-0.02 -0.04,-0.12 -0.05,-0.29 0.01,0.17 0.04,0.27 0.05,0.29 0.4,1.35 1.49,2.65 3.26,3.71 4.72,2.85 12.55,2.93 17.48,0.18 1.99,-1.11 3.2,-2.51 3.63,-3.96l0.04 -0.13 0.03 -0.15 0.04 -0.19 0.04 -0.22 0.04 -0.23 0.02 -0.27 0.01 -0.27 0 -0.31z"/>
   <path class="fil3" d="M14.01 59.45c-1.3,-0.28 -2.49,-1.44 -1.41,-2.23l0.21 -0.14 0.28 -0.14c-1.87,-0.32 -3.62,-0.92 -5.07,-1.79 -0.8,-0.48 -1.46,-1.02 -1.97,-1.59l0.18 0.43c0.4,1.06 0.48,1.28 0.33,1.65 -0.13,0.32 -0.75,0.23 -1.04,0.09l-0.16 -0.1c0.55,0.64 1.28,1.24 2.18,1.78 1.84,1.11 4.15,1.8 6.57,2.06l-0.1 -0.02z"/>
   <path class="fil2" d="M4.09 52.46l0 0.1 0 -0.1zm0.56 -2.14l0.05 -0.08 -0.05 0.08zm-0.06 0.13l0.05 -0.1 -0.05 0.1zm-0.05 0.1l0.03 -0.08 -0.03 0.08zm-0.06 0.12l0.04 -0.08 -0.04 0.08zm-0.05 0.13l0.04 -0.11 -0.04 0.11zm-0.04 0.1l0.03 -0.08 -0.03 0.08zm-0.05 0.12l0.03 -0.09 -0.03 0.09zm-0.04 0.13l0.04 -0.11 -0.04 0.11zm-0.03 0.11l0.02 -0.09 -0.02 0.09zm-0.04 0.12l0.03 -0.1 -0.03 0.1zm-0.03 0.12l0.03 -0.11 -0.03 0.11zm-0.02 0.11l0.02 -0.08 -0.02 0.08zm-0.02 0.12l0.01 -0.09 -0.01 0.09zm-0.02 0.12l0.01 -0.1 -0.01 0.1zm-0.02 0.11l0.01 -0.08 -0.01 0.08zm-0.01 0.13l0.01 -0.1 -0.01 0.1zm-0.01 0.12l0.01 -0.11 -0.01 0.11zm0 0.11l0 -0.08 0 0.08zm-0.01 0.13l0 -0.1 0 0.1zm0.11 0.97l0 0.01 0.01 0.03 -0.01 -0.04zm27.44 2.76c-1.15,-2.01 -2.29,-4.01 -3.44,-6.02 1.45,2.54 0.38,5.45 -3.18,7.43 -4.93,2.75 -12.76,2.67 -17.48,-0.18 -1.78,-1.07 -2.86,-2.37 -3.27,-3.73l0.01 0.02 -0.01 -0.04 -0.01 -0.03 -0.03 -0.1 0 -0.01 -0.03 -0.09c-0.05,-0.24 -0.09,-0.46 -0.11,-0.65 -0.05,-0.43 -0.06,-0.65 -0.03,-1.16l0.02 -0.29c-0.92,1.64 -1.85,3.29 -2.77,4.93 -1.77,3.15 -0.58,6.73 3.65,9.28 6.1,3.67 16.21,3.77 22.57,0.22 4.59,-2.55 5.98,-6.31 4.11,-9.58zm-27.54 -3.51l0 -0.08 0 0.08zm0.02 0.25l-0.02 -0.21 0.02 0.21zm0.01 0.11l-0.01 -0.08 0.01 0.08zm0.02 0.14l-0.02 -0.11 0.02 0.11zm0.02 0.1l-0.02 -0.1 0.02 0.1zm0.03 0.12l-0.02 -0.08 0.02 0.08z"/>
   <path class="fil1" d="M32.53 59.16c-0.01,-0.16 -0.03,-0.38 -0.05,-0.55l-0.08 -0.43c-0.04,-0.17 -0.09,-0.39 -0.14,-0.56l-0.15 -0.44 -0.08 -0.19c1.23,3.07 -0.29,6.43 -4.5,8.77 -0.78,0.44 -1.61,0.82 -2.49,1.14 -5.21,1.93 -11.9,1.94 -17.08,0.05 -1.08,-0.39 -2.08,-0.86 -3,-1.41 -3.78,-2.28 -5.14,-5.39 -4.11,-8.27l-0.06 0.13c-0.22,0.67 -0.35,1.36 -0.37,2.04 0,0.2 0.01,0.46 0.02,0.65 0.02,0.16 0.04,0.38 0.07,0.54l0.08 0.43c0.04,0.16 0.1,0.39 0.16,0.55l0.15 0.43c0.08,0.18 0.18,0.41 0.26,0.58l0.25 0.45c0.12,0.2 0.29,0.46 0.42,0.64l0.37 0.47c0.2,0.23 0.47,0.53 0.68,0.75l0.54 0.49c0.71,0.57 0.88,0.71 1.78,1.27l0.82 0.46c0.34,0.17 0.79,0.39 1.13,0.54l0.95 0.38 0.09 0.04 -0.16 -0.14 0.16 0.14c5.05,1.83 11.56,1.83 16.62,-0.05 0.28,-0.11 0.66,-0.26 0.94,-0.38 0.47,-0.21 1.09,-0.52 1.54,-0.76l0.73 -0.43c0.8,-0.53 1.27,-0.86 2.09,-1.64l0.42 -0.45c0.19,-0.23 0.44,-0.53 0.62,-0.77l0.29 -0.43c0.12,-0.2 0.27,-0.46 0.37,-0.66l0.2 -0.43c0.07,-0.18 0.16,-0.41 0.22,-0.59l0.12 -0.42c0.03,-0.17 0.08,-0.39 0.11,-0.56l0.05 -0.42c0.01,-0.16 0.03,-0.38 0.03,-0.54l-0.01 -0.42z"/>
   <path class="fil3" d="M6.43 56.65l-2.9 7.9c0.43,0.34 0.91,0.67 1.43,0.99l0.04 0.02 2.57 -8.13 -0.03 -0.02c-0.41,-0.24 -0.78,-0.5 -1.11,-0.76z"/>
   <path class="fil3" d="M7.57 57.43l-2.57 8.13c1,0.6 2.1,1.09 3.27,1.5l1.83 -8.47c-0.91,-0.31 -1.76,-0.7 -2.53,-1.16z"/>
   <path class="fil3" d="M10.1 58.59l-1.83 8.47c0.86,0.3 1.76,0.55 2.69,0.74l1.23 -8.63c-0.72,-0.15 -1.42,-0.35 -2.09,-0.58z"/>
   <path class="fil4" d="M22.64 56.93c-0.51,-0.16 -4.36,0.53 -4.57,1.09l0 0.15c0.4,0.75 4.49,-0.1 4.76,-0.99l-0.01 -0.15 -0.18 -0.1z"/>
   <path class="fil4" d="M18.59 59.49l0.78 8.71c0,0 2.62,0.43 5.56,-1.1l-1.96 -8.58c0,0 -1.63,0.74 -4.38,0.97z"/>
   <path class="fil3" d="M24.89 45.75c-4.47,-2.69 -11.87,-2.77 -16.53,-0.17 -4.65,2.6 -4.81,6.88 -0.34,9.57 4.47,2.69 11.87,2.77 16.52,0.17 4.66,-2.6 4.82,-6.88 0.35,-9.57z"/>
   <path class="fil2" d="M10.82 27.86c0.04,0.02 0.38,0.23 0.86,0.43 0.33,0.15 0.38,0.16 0.99,0.37 0.17,0.05 0.39,0.11 0.56,0.15 0.17,0.04 0.39,0.09 0.56,0.12 0.18,0.04 0.41,0.07 0.59,0.1 0.27,0.05 1,0.13 1.83,0.14 0.62,0.01 1.24,-0.03 1.87,-0.1 0.82,-0.1 1.53,-0.29 1.73,-0.35 0.68,-0.18 1.3,-0.44 1.53,-0.56 0.54,-0.28 0.54,-0.28 0.82,-0.46 0.27,-0.18 0.41,-0.3 0.61,-0.48 0,0 0.22,-0.2 0.4,-0.45 0.14,-0.2 0.18,-0.31 0.23,-0.44 -0.01,0.04 0,0.21 0.01,0.4 0.02,0.51 0.07,1.2 0.11,1.71 0.07,0.94 0.14,1.91 0.31,3.39 0.17,1.58 0.29,2.46 0.4,3.23 0.16,1.09 0.22,1.5 0.48,3.02 0.28,1.69 0.77,4.11 1.01,5.2 0.26,1.15 0.8,3.54 1.45,5.74 0.59,2 -0.48,4.12 -3.19,5.63 -4.33,2.41 -11.22,2.35 -15.37,-0.16 -2.48,-1.49 -3.43,-3.5 -2.88,-5.4 0.14,-0.47 0.32,-1.17 0.37,-1.36 0.46,-1.78 0.7,-2.85 1.05,-4.4 0.27,-1.28 0.74,-3.68 0.98,-5.21 0.26,-1.57 0.56,-3.53 0.85,-6.27 0.17,-1.62 0.24,-2.69 0.29,-3.4 0.04,-0.52 0.08,-1.21 0.1,-1.73 0.01,-0.25 0,-0.31 -0.01,-0.39 0.1,0.36 0.4,0.67 0.56,0.84 0.14,0.14 0.4,0.38 0.9,0.69z"/>
   <path class="fil3" d="M27.05 48.61c-0.16,-0.57 -0.16,-0.58 -0.26,-0.94l-0.17 -0.65c-0.06,-0.24 -0.14,-0.55 -0.2,-0.78l-0.22 -0.88c-0.07,-0.3 -0.16,-0.69 -0.23,-0.99l-0.25 -1.09c-0.07,-0.35 -0.17,-0.82 -0.25,-1.18l-0.26 -1.26c-0.07,-0.4 -0.18,-0.94 -0.25,-1.35l-0.25 -1.41c-0.08,-0.44 -0.18,-1.04 -0.25,-1.49l-0.23 -1.53c-0.06,-0.48 -0.15,-1.12 -0.21,-1.6l-0.19 -1.63c-0.06,-0.51 -0.13,-1.18 -0.18,-1.7l-0.13 -1.69c-0.04,-0.52 -0.09,-1.22 -0.11,-1.75l-0.01 -0.12 0 -0.24 -0.03 0.09 -0.09 0.19 -0.11 0.16 -0.2 0.25 -0.2 0.2 -0.31 0.26 -0.3 0.22 -0.42 0.25 -0.4 0.21c-0.15,0.07 -0.35,0.16 -0.5,0.22l-0.48 0.17c-0.17,0.06 -0.38,0.13 -0.55,0.17l-0.55 0.14c-0.18,0.04 -0.41,0.09 -0.59,0.12l-0.59 0.09c-0.19,0.02 -0.44,0.05 -0.62,0.06l-0.62 0.03c-0.19,0.01 -0.44,0.01 -0.63,0.01l-0.62 -0.02c-0.18,-0.01 -0.43,-0.03 -0.62,-0.05l-0.59 -0.07c-0.18,-0.03 -0.42,-0.07 -0.6,-0.1l-0.55 -0.12c-0.17,-0.05 -0.39,-0.1 -0.56,-0.15l-0.49 -0.16c-0.15,-0.06 -0.35,-0.14 -0.5,-0.21l-0.41 -0.19 -0.45 -0.24 -0.32 -0.21 -0.37 -0.28 -0.21 -0.2 -0.23 -0.25 -0.12 -0.16 -0.02 -0.03 0.02 0.04c2.64,4.19 -1.81,26.93 -1.91,27.07 0.29,0.23 0.6,0.44 0.95,0.65 1.19,0.72 2.61,1.24 4.14,1.56l-0.05 -0.2c-0.01,-0.15 1.54,-25.23 1.57,-25.31 0.22,-0.61 0.22,-0.61 4.12,-1.37 2.58,-0.51 3.91,-1.42 4.58,-2.1l0.13 -0.14c0.13,0 0.13,0 0.24,1.53 0.23,3.22 0.65,7.73 1.9,14.16 0.68,3.48 1.19,5.44 1.97,8.41 0.17,-0.67 0.16,-1.34 -0.04,-2.01l-0.04 -0.13 -0.08 -0.28z"/>
   <path class="fil5" d="M26.45 46.93c-0.17,-0.17 -0.35,-0.33 -0.55,-0.49 0.17,0.14 0.37,0.32 0.55,0.49z"/>
   <polygon class="fil5" points="6.39,47.03 6.44,46.98 "/>
   <polygon class="fil5" points="6.53,46.88 6.44,46.98 6.72,46.72 "/>
   <path class="fil1" d="M8.77 27.52c0.89,0.56 2.14,1.02 2.72,1.18 0.54,0.16 1.05,0.3 1.5,0.38 0.23,0.04 0.54,0.1 0.78,0.13 1.02,0.12 1.02,0.12 1.59,0.16 0.5,0.03 0.5,0.03 1.6,0.01 0.25,0 0.57,-0.03 0.81,-0.04 0.44,-0.03 0.89,-0.1 1.58,-0.2 0,0 0.71,-0.11 1.53,-0.34 0.44,-0.13 1.02,-0.32 1.45,-0.49 0.89,-0.35 1.83,-0.88 2.26,-1.21 0.3,-0.23 0.69,-0.54 0.96,-0.81 0.26,-0.27 0.58,-0.61 0.88,-1.12 0.59,-0.98 0.68,-1.73 0.75,-2.22 0.02,-0.19 0.12,-1.17 -0.13,-2.58 0.02,0.1 -3.01,1.8 -5.44,3.15 -4.17,2.33 -6.3,1.47 -10.3,-0.94 0.09,-4.18 -5.36,-2.4 -5.62,-2.15 -0.57,0.55 -0.19,1.64 -0.14,2.31 0.07,0.88 0.27,1.45 0.46,1.89 0.12,0.28 0.33,0.63 0.5,0.87 0.25,0.36 0.31,0.41 0.72,0.85 0.26,0.27 0.67,0.57 0.97,0.8 0.16,0.12 0.4,0.26 0.57,0.37z"/>
   <path class="fil6" d="M23.06 12.25c-3.7,-2.14 -9.67,-2.15 -13.34,-0.03 -3.67,2.12 -3.65,5.57 0.04,7.7 3.7,2.14 9.67,2.15 13.34,0.03 3.67,-2.12 3.65,-5.57 -0.04,-7.7z"/>
   <path class="fil6" d="M22.92 17.12l6.24 -3.61c-0.67,-0.79 -1.58,-1.54 -2.73,-2.2 -1.18,-0.68 -2.51,-1.22 -3.93,-1.61l-6.21 3.59 -6.23 -3.6c-1.39,0.39 -2.7,0.92 -3.85,1.58 -1.16,0.67 -2.07,1.42 -2.74,2.23l6.22 3.59 -6.21 3.59c0.68,0.82 1.61,1.59 2.79,2.27 1.14,0.66 2.43,1.19 3.81,1.58l6.25 -3.61 6.31 3.65c1.39,-0.39 2.7,-0.91 3.85,-1.58 1.16,-0.67 2.07,-1.42 2.74,-2.23l-6.31 -3.64z"/>
   <path class="fil6" d="M23.09 14.84l6.4 -3.7c-0.69,-0.82 -1.63,-1.58 -2.8,-2.26 -1.21,-0.7 -2.58,-1.25 -4.03,-1.65l-6.38 3.68 -6.38 -3.69c-1.43,0.4 -2.77,0.94 -3.95,1.63 -1.19,0.68 -2.12,1.45 -2.81,2.28l6.38 3.68 -6.37 3.68c0.7,0.84 1.65,1.63 2.86,2.33 1.18,0.68 2.5,1.22 3.91,1.62l6.41 -3.7 6.47 3.74c1.43,-0.4 2.77,-0.94 3.95,-1.62l0 0c1.19,-0.69 2.12,-1.46 2.81,-2.28l-6.47 -3.74z"/>
   <path class="fil0" d="M2.31 12.97l1.17 7.71c-0.68,-0.84 -1.1,-1.73 -1.25,-2.64 -0.47,-2.7 -0.93,-5.4 -1.39,-8.1 0.17,1.04 0.67,2.07 1.47,3.03z"/>
   <path class="fil1" d="M22.92 17.18l0.2 -0.06 -0.47 7.43c-0.4,0.12 -0.8,0.22 -1.22,0.32 -0.45,0.1 -0.9,0.18 -1.36,0.26 -0.31,0.05 -0.62,0.09 -0.93,0.12 -0.47,0.06 -0.94,0.1 -1.41,0.13 -2.38,0.13 -4.8,-0.08 -7.02,-0.63 -0.2,-0.05 -0.39,-0.1 -0.58,-0.15l-0.05 -0.01 0.01 -0.01 -0.38 -7.39c0.14,0.04 0.28,0.08 0.43,0.12 2.44,0.6 5.09,0.83 7.69,0.68 0.68,-0.04 1.36,-0.1 2.03,-0.19 0.18,-0.03 0.36,-0.05 0.54,-0.08 0.17,-0.03 0.34,-0.05 0.5,-0.09 0.17,-0.03 0.34,-0.06 0.5,-0.09 0.17,-0.04 0.33,-0.07 0.5,-0.11l0.01 0c0.17,-0.03 0.33,-0.07 0.48,-0.11 0.18,-0.05 0.35,-0.09 0.53,-0.14z"/>
   <polygon class="fil7" points="23.12,17.12 23.28,17.08 23.12,17.12 "/>
   <path class="fil7" d="M25.95 16.1c0.15,-0.07 0.3,-0.15 0.45,-0.22l-0.2 0.1 -0.25 0.12z"/>
   <path class="fil2" d="M31.84 9.86l-1.34 8.1c-0.23,1.34 -1.02,2.66 -2.37,3.82l2.2 -8.81 -0.01 0c0.84,-0.99 1.34,-2.04 1.52,-3.11z"/>
   <path class="fil2" d="M22.92 17.18l0.2 -0.06 -0.47 7.43c-0.4,0.12 -0.8,0.22 -1.22,0.32 -0.45,0.1 -0.9,0.18 -1.36,0.26 -0.31,0.05 -0.62,0.09 -0.93,0.12 -0.47,0.06 -0.94,0.1 -1.41,0.13l0.1 -7.39c0.68,-0.04 1.36,-0.1 2.03,-0.19 0.18,-0.03 0.36,-0.05 0.54,-0.08 0.17,-0.03 0.34,-0.06 0.5,-0.09 0.17,-0.03 0.34,-0.06 0.5,-0.09 0.17,-0.04 0.33,-0.07 0.5,-0.11l0.01 0c0.16,-0.04 0.32,-0.07 0.48,-0.11 0.18,-0.05 0.35,-0.09 0.53,-0.14z"/>
   <path class="fil1" d="M10.71 24.92c-0.2,-0.05 -0.39,-0.27 -0.58,-0.32l-0.05 -0.01 0.01 -0.01 -0.64 -7.46 0.26 0.07c0.14,0.04 0.28,0.08 0.43,0.12l0.57 7.61z"/>
   <path class="fil6" d="M8.77 27.52c0.89,0.56 2.14,1.02 2.72,1.18 0.54,0.16 1.05,0.3 1.5,0.38 0.23,0.04 0.54,0.1 0.78,0.13 1.02,0.12 1.02,0.12 1.59,0.16 0.5,0.03 0.5,0.03 1.6,0.01 0.25,0 0.57,-0.03 0.81,-0.04 0.44,-0.03 0.89,-0.1 1.58,-0.2 0,0 0.71,-0.11 1.53,-0.34 0.44,-0.13 1.02,-0.32 1.45,-0.49 0.89,-0.35 1.83,-0.88 2.26,-1.21 0.3,-0.23 0.69,-0.54 0.96,-0.81 0.26,-0.27 0.58,-0.61 0.88,-1.12 0.59,-0.98 0.68,-1.73 0.75,-2.22 0.02,-0.19 0.12,-1.17 -0.13,-2.58 0.02,0.1 0.36,1.94 -0.27,2.3 0.33,1.8 -0.73,3.67 -3.16,5.02 -4.17,2.33 -10.79,2.26 -14.79,-0.15 -2.22,-1.33 -3.16,-3.1 -2.86,-4.81 -0.63,-0.36 -0.3,-2.2 -0.28,-2.3 -0.14,0.78 -0.19,1.64 -0.14,2.31 0.07,0.88 0.27,1.45 0.46,1.89 0.12,0.28 0.33,0.63 0.5,0.87 0.25,0.36 0.31,0.41 0.72,0.85 0.26,0.27 0.67,0.57 0.97,0.8 0.16,0.12 0.4,0.26 0.57,0.37z"/>
   <path class="fil3" d="M5.08 20.87c0.51,1.02 1.44,1.98 2.8,2.8 4.5,2.7 11.94,2.78 16.63,0.16 1.54,-0.86 2.6,-1.91 3.15,-3.03l-0.97 1.96c-0.51,1.02 -1.47,1.98 -2.88,2.77 -4.28,2.38 -11.08,2.32 -15.19,-0.16 -1.24,-0.74 -2.09,-1.62 -2.56,-2.55 -0.33,-0.65 -0.65,-1.3 -0.98,-1.95z"/>
   <path class="fil4" d="M5.92 7.19l-3.61 -2.08c-2.05,2.46 -2.07,5.36 -0.02,7.83l0.02 -0.01 3.6 -2.07c-0.62,-1.2 -0.62,-2.48 0.01,-3.67z"/>
   <path class="fil4" d="M23.08 0.94l0.07 -0.05c-4.29,-1.2 -9.36,-1.2 -13.67,0.04l0.01 0.01 0 0 3.58 2.07c2.11,-0.39 4.37,-0.4 6.47,-0.03l3.54 -2.04 0 0z"/>
   <path class="fil4" d="M13.14 15.05l-0.01 0 -3.62 2.09c4.27,1.2 9.32,1.2 13.61,-0.02l-3.6 -2.08c-2.08,0.37 -4.31,0.38 -6.38,0.01z"/>
   <path class="fil0" d="M5.92 7.19l0.78 4.78c-1.35,-1.48 -1.61,-3.2 -0.78,-4.78z"/>
   <path class="fil1" d="M20.71 12.03l3.71 1.2c-0.17,0.11 -0.35,0.22 -0.54,0.32 -1.28,0.72 -2.78,1.21 -4.36,1.49 -2.78,0.5 -5.83,0.33 -8.41,-0.48 -0.59,-0.18 -1.16,-0.4 -1.69,-0.66l3.07 -2.75 0 -0.01 0.58 -8.13 0.21 -0.05c0.19,-0.03 0.39,-0.06 0.59,-0.08 0.15,-0.03 0.31,-0.04 0.46,-0.06l0.13 -0.01c1.69,-0.18 3.44,-0.12 5.08,0.17l0.62 8.13 0.55 0.92z"/>
   <path class="fil6" d="M23.22 12.35c-3.63,-2.19 -9.66,-2.26 -13.45,-0.14 -0.58,0.32 -1.08,0.68 -1.49,1.07l0.2 0.12c4.16,2.5 11.05,2.57 15.4,0.15 0.19,-0.1 0.37,-0.21 0.54,-0.32 -0.34,-0.31 -0.74,-0.61 -1.2,-0.88z"/>
   <path class="fil8" d="M12.66 3.09l0.18 -0.04c-0.15,0.03 -0.3,0.06 -0.46,0.09l0.28 -0.05z"/>
   <path class="fil1" d="M14.72 10.75c-0.53,0.05 -1.06,0.13 -1.58,0.24l-0.24 0.06c-0.14,0.03 -0.28,0.06 -0.41,0.1l0 -0.01 0.58 -8.13 -0.23 0.04 0.23 -0.05 0.21 -0.04c0.19,-0.03 0.39,-0.06 0.59,-0.08 0.15,-0.03 0.31,-0.04 0.46,-0.06l0.13 -0.02 0 0.01 0.26 7.94z"/>
   <path class="fil7" d="M0.91 57.12c0.05,-0.16 0.11,-0.31 0.18,-0.45 -0.06,0.13 -0.12,0.29 -0.18,0.45z"/>
   <polygon class="fil7" points="0.85,57.27 0.91,57.12 "/>
   <polygon class="fil7" points="32.03,56.99 31.91,56.72 "/>
   <polygon class="fil7" points="31.91,56.72 31.85,56.58 "/>
   <path class="fil0" d="M22.6 28.2c-3.58,1.47 -6.91,1.21 -8.18,1.02 -4.07,-0.59 -3.52,-2.69 -3.51,-2.71l0.21 -0.02c-0.87,-0.28 -1.69,-0.64 -2.43,-1.07l0.18 0.13 0.09 0.07c0,0.03 -0.55,1.5 -1.62,0.8 -0.12,-0.09 -0.24,-0.21 -0.39,-0.37l0.41 0.42c0.57,0.48 0.7,0.6 1.41,1.05l0.63 0.35c0.2,0.09 0.47,0.23 0.67,0.32l0.69 0.27c0.22,0.08 0.51,0.18 0.72,0.24l0.75 0.21c0.23,0.05 0.53,0.12 0.76,0.17l0.78 0.13c0.24,0.03 0.55,0.07 0.79,0.1l0.8 0.06c0.24,0.01 0.56,0.02 0.8,0.02l0.8 -0.01c0.24,-0.01 0.57,-0.02 0.81,-0.04l0.79 -0.08c0.24,-0.04 0.55,-0.08 0.79,-0.12l0.77 -0.15c0.23,-0.06 0.53,-0.13 0.76,-0.19l0.73 -0.22c0.22,-0.08 0.51,-0.18 0.72,-0.27l0.68 -0.29c0.2,-0.11 0.46,-0.23 0.66,-0.35l0.31 -0.18c-0.18,0.11 -0.44,0.25 -0.63,0.35 -0.22,0.11 -0.52,0.26 -0.75,0.36z"/>
   <path class="fil6" d="M8.3 23.91l0.7 1.68c0.59,0.32 1.22,0.6 1.88,0.82l-0.52 -1.61c-0.73,-0.25 -1.42,-0.55 -2.06,-0.89z"/>
   <path class="fil4" d="M17.54 56.38c0,0 0.33,-21.33 1.32,-23.2 0.99,-1.87 2.76,15.38 3.28,18.15 0.52,2.76 0.66,3.89 0.66,3.89 0,0 -1.51,0.94 -5.26,1.16z"/>
   <path class="fil4" d="M22.28 26.09c0.22,-0.02 0.36,0.23 0.22,0.41 -0.24,0.29 -0.73,0.67 -1.68,0.91 -1.76,0.43 -2.36,0.07 -2.35,-0.26 0,-0.18 0.92,-0.77 3.81,-1.06z"/>
   <polygon class="fil6" points="5.91,10.86 6.7,11.97 8.28,18.65 3.48,20.68 2.31,12.93 "/>
   <polygon class="fil6" points="9.49,0.94 10.06,9.69 12.49,11.14 13.07,3.01 "/>
   <polygon class="fil1" points="19.54,2.98 20.16,11.11 22.5,9.7 23.15,0.89 "/>
   <path class="fil1" d="M3.15 18.49c0,0 1.27,2.22 6.77,3.95l0.79 2.48c0,0 -4.38,-1.36 -7.23,-4.24 -0.44,-1.86 -0.33,-2.19 -0.33,-2.19z"/>
   <path class="fil4" d="M22.66 7.23l-2.68 1.54 6.2 4.28 0.55 -2.16c0,0 0.43,-0.61 0.49,-1.68 -2.38,-1.48 -4.56,-1.98 -4.56,-1.98z"/>
   <polygon class="fil6" points="26.77,7.18 26.18,13.05 27.66,11.15 28.13,7.92 "/>
   <path class="fil4" d="M30.39 5.09l-0.03 0.02 -3.59 2.07c0.63,1.2 0.61,2.5 -0.04,3.71l3.6 2.08c2.09,-2.48 2.12,-5.4 0.06,-7.88z"/>
   <polygon class="fil1" points="26.73,10.89 24.53,19.7 28.13,21.78 30.33,12.97 "/>
   <path class="fil1" d="M25.6 15.4c0,0 0.07,-2.7 -5.44,-4.29 -0.18,-2.34 -0.18,-2.34 -0.18,-2.34 0,0 6.31,2.21 6.2,4.28l-0.58 2.35z"/>
   <path class="fil0" d="M7.03 13.38c0.29,1.21 0.29,1.21 0.29,1.21 0,0 1.27,-2.36 5.17,-3.45l0.17 -2.37c0,0 -5.79,1.83 -5.63,4.61z"/>
   <path class="fil4" d="M12.66 8.77l-2.76 -1.55c0,0 -2.52,0.62 -3.73,1.5 0.16,1 0.86,4.66 0.86,4.66 0,0 -0.47,-2.49 5.63,-4.61z"/>
   <path class="fil4" d="M3.15 18.49l4.51 -2.57c0,0 -0.14,1.22 1.88,1.88 0.02,0.28 0.38,4.64 0.38,4.64 0,0 -5.65,-1.5 -6.77,-3.95z"/>
   <path class="fil2" d="M29 18.26c0,0 -1.82,2.92 -6.2,4.22 -4.38,1.3 -0.15,2.07 -0.15,2.07 0,0 2.63,-0.45 5.48,-2.77 1.19,-1.87 0.87,-3.52 0.87,-3.52z"/>
   <path class="fil4" d="M29 18.26l-3.59 -2.08 -2.29 0.94 -0.34 5.37c0,0 6.26,-1.99 6.22,-4.23z"/>
   <path class="fil9" d="M32.42 59.6c0.03,0.93 -0.27,1.85 -0.72,2.67 -0.51,0.8 -1.12,1.53 -1.83,2.14 -1.41,1.24 -3.1,2.12 -4.83,2.81 -1.76,0.62 -3.6,1.07 -5.46,1.2 -1.85,0.13 -3.72,0.04 -5.53,-0.34 3.67,0.24 7.37,-0.11 10.77,-1.44 1.71,-0.61 3.33,-1.47 4.75,-2.59 1.41,-1.1 2.64,-2.59 2.85,-4.45z"/>
  </g>
 </g>
</svg>
