<?xml version="1.0" encoding="UTF-8"?>
<!DOCTYPE svg PUBLIC "-//W3C//DTD SVG 1.0//EN" "http://www.w3.org/TR/2001/REC-SVG-20010904/DTD/svg10.dtd">
<!-- Creator: CorelDRAW 2018 (64 Bit Versão de avaliação) -->
<svg xmlns="http://www.w3.org/2000/svg" xml:space="preserve" width="33px" height="78px" version="1.0" style="shape-rendering:geometricPrecision; text-rendering:geometricPrecision; image-rendering:optimizeQuality; fill-rule:evenodd; clip-rule:evenodd"
viewBox="0 0 33 76.53"
 xmlns:xlink="http://www.w3.org/1999/xlink">
 <defs>
  <style type="text/css">
   <![CDATA[
    .fil9 {fill:#525253;fill-rule:nonzero}
    .fil3 {fill:#4A4A4B;fill-rule:nonzero}
    .fil8 {fill:#787D7E;fill-rule:nonzero}
    .fil4 {fill:#5C5E60;fill-rule:nonzero}
    .fil10 {fill:#424647;fill-rule:nonzero}
    .fil6 {fill:#38393C;fill-rule:nonzero}
    .fil7 {fill:#353739;fill-rule:nonzero}
    .fil0 {fill:#2F3132;fill-rule:nonzero}
    .fil2 {fill:#2D3031;fill-rule:nonzero}
    .fil5 {fill:#2C2D2F;fill-rule:nonzero}
    .fil1 {fill:#292A2C;fill-rule:nonzero}
   ]]>
  </style>
 </defs>
 <g id="Camada_x0020_1">
  <metadata id="CorelCorpID_0Corel-Layer"/>
  <g id="_1668150179920">
   <path class="fil0" d="M27.92 73.85c3.38,-1.89 5.08,-4.41 5.08,-6.92l-0.01 -1.99c-0.01,-0.16 -0.01,-0.38 -0.02,-0.54 -0.02,-0.21 -0.05,-0.49 -0.08,-0.7l-0.09 -0.5c-0.04,-0.18 -0.09,-0.42 -0.14,-0.59l-0.14 -0.45c-0.05,-0.15 -0.12,-0.36 -0.18,-0.51l-0.09 -0.21 0.1 -0.32c0.03,-0.17 0.08,-0.39 0.11,-0.56l0.06 -0.42c0.01,-0.17 0.02,-0.38 0.02,-0.55l-0.01 -0.42c-0.01,-0.16 -0.03,-0.38 -0.05,-0.54l-0.07 -0.43c-0.05,-0.17 -0.1,-0.4 -0.15,-0.57l-0.15 -0.44 -0.08 -0.19 0.07 0.23c-0.13,-0.35 -0.27,-0.7 -0.46,-1.04 -0.94,-1.64 -1.88,-3.28 -2.81,-4.92l-0.01 -0.07 -0.06 -0.34 -0.09 -0.42 -0.11 -0.37c-0.06,-0.14 -0.13,-0.34 -0.18,-0.48l-0.19 -0.4c-0.09,-0.16 -0.2,-0.38 -0.3,-0.54l-0.28 -0.41c-0.14,-0.2 -0.34,-0.45 -0.49,-0.63l-0.4 -0.42 -0.08 -0.08 0 0 -0.07 -0.28c-0.04,-0.14 -0.07,-0.27 -0.11,-0.4 -0.05,-0.2 -0.09,-0.39 -0.14,-0.58l-0.03 -0.11c-0.24,-1 -0.44,-1.88 -0.56,-2.44 -0.08,-0.35 -0.18,-0.81 -0.25,-1.16l-0.02 -0.08 -0.22 -1.09 -0.06 -0.33c-0.08,-0.37 -0.16,-0.79 -0.22,-1.14l-0.25 -1.4c-0.06,-0.35 -0.1,-0.62 -0.15,-0.88l-0.05 -0.33 -0.05 -0.31 -0.23 -1.51c-0.06,-0.47 -0.15,-1.1 -0.21,-1.58l-0.01 -0.06 -0.19 -1.59c-0.04,-0.5 -0.12,-1.15 -0.16,-1.66l-0.01 -0.05 -0.13 -1.68c-0.02,-0.2 -0.03,-0.43 -0.05,-0.66l0.11 -0.06 0.06 -0.03 0.03 -0.01 0.32 -0.19 -0.13 0.07c0.3,-0.17 0.56,-0.34 0.73,-0.46 0.3,-0.23 0.7,-0.54 0.96,-0.81 0.26,-0.27 0.58,-0.61 0.88,-1.12 0.59,-0.98 0.68,-1.73 0.75,-2.22 0.01,-0.06 0.02,-0.24 0.03,-0.45 0.8,-0.55 1.51,-1.12 2.03,-1.74l-0.08 -0.04c0.72,-0.88 1.18,-1.82 1.34,-2.77l1.34 -8.1 -0.02 0.1c0.3,-1.65 -0.16,-3.34 -1.43,-4.87l-0.03 0.02 0 0 -3.59 2.07 -0.17 1.66 -0.09 -0.04c-0.61,-0.34 -1.19,-0.61 -1.7,-0.83l-0.06 -0.02c-1.17,-0.49 -1.98,-0.69 -2.07,-0.71l0.47 -6.34c-4.29,-1.2 -9.36,-1.2 -13.67,0.03l0.01 0.01 0 0 0 0 0.41 6.29c0,0 -2.52,0.61 -3.73,1.49l-0.26 -1.53c-0.18,0.36 -0.3,0.73 -0.37,1.1 0.07,-0.37 0.19,-0.74 0.37,-1.1l-3.6 -2.08c-1.28,1.54 -1.77,3.23 -1.46,4.89l-0.02 -0.05c0.47,2.7 0.93,5.4 1.39,8.09 0.16,0.91 0.57,1.81 1.25,2.65 0.52,0.62 1.23,1.2 2.03,1.75l0.05 0.31c0.07,0.88 0.27,1.45 0.46,1.89 0.12,0.28 0.32,0.62 0.5,0.87 0.18,0.26 0.26,0.36 0.45,0.57l-0.02 -0.02 0.06 0.05 0.23 0.24 0.06 0.06 0.07 0.07 0.23 0.19 0.25 0.21 0.24 0.19 0.12 0.09c0.16,0.12 0.4,0.26 0.57,0.37l0.54 0.3c-0.02,0.22 -0.03,0.44 -0.04,0.63 -0.05,0.71 -0.12,1.78 -0.29,3.39 -0.29,2.75 -0.6,4.71 -0.85,6.28 -0.24,1.54 -0.71,3.93 -0.99,5.21 -0.3,1.38 -0.53,2.4 -0.9,3.85l-0.11 0.12c-0.73,0.76 -1.8,2.08 -2.05,4.03l-0.03 0.3 0 0 0.03 -0.3c-0.93,1.65 -1.85,3.29 -2.78,4.94 -0.2,0.36 -0.36,0.73 -0.48,1.1l0.02 -0.09 -0.05 0.12c-0.22,0.68 -0.35,1.36 -0.38,2.05 0,0.19 0.02,0.45 0.03,0.65 0.01,0.16 0.04,0.38 0.06,0.54l0.08 0.42c0.04,0.15 0.09,0.33 0.14,0.49 -0.27,0.71 -0.67,1.9 -0.72,3.31l0 0.17 0 0c0,0.6 0,1.39 0,1.98 0.01,1.74 0.84,3.47 2.47,5l0 0.01 0.05 0.04c0.38,0.35 0.8,0.68 1.26,1l0.13 0.1c0.22,0.15 0.45,0.3 0.69,0.44 0.74,0.45 1.54,0.83 2.38,1.17 0.28,0.12 0.57,0.2 0.86,0.3 0.44,0.16 0.87,0.34 1.33,0.47 0.15,0.04 0.31,0.07 0.47,0.11 0.33,0.08 0.67,0.15 1.01,0.23 0.34,0.07 0.67,0.17 1.02,0.23l0 -0.05c5.53,0.98 11.78,0.27 16.25,-2.22z"/>
   <path class="fil1" d="M0 65.04c0.01,2.37 1.53,4.75 4.59,6.59 6.31,3.79 16.75,3.9 23.32,0.23 3.39,-1.88 5.09,-4.4 5.08,-6.92l0.01 1.99c0,2.51 -1.7,5.03 -5.08,6.92 -6.57,3.66 -17.02,3.56 -23.32,-0.24 -3.06,-1.84 -4.59,-4.21 -4.6,-6.59 0,-0.59 0,-1.38 0,-1.98z"/>
   <path class="fil2" d="M32.97 64.4c-0.02,-0.21 -0.05,-0.49 -0.08,-0.71l-0.09 -0.49c-0.04,-0.18 -0.09,-0.42 -0.14,-0.59l-0.14 -0.45c-0.05,-0.15 -0.12,-0.36 -0.18,-0.51l-0.17 -0.4 -0.19 -0.43 -0.18 -0.35 -0.21 -0.37 -0.18 -0.31 -0.2 -0.32 -0.17 -0.26 -0.19 -0.26 -0.16 -0.22 -0.16 -0.22 -0.15 -0.17 -0.14 -0.17 -0.1 -0.11 -0.09 -0.11c1.14,1.27 1.71,2.67 1.72,4.06 0,2.33 -1.57,4.66 -4.71,6.41 -6.09,3.4 -15.76,3.3 -21.6,-0.22 -2.84,-1.7 -4.25,-3.9 -4.25,-6.1 -0.01,-1.4 0.56,-2.8 1.69,-4.07l-0.09 0.1 -0.1 0.12 -0.13 0.16 -0.15 0.18 -0.16 0.21 -0.17 0.23 -0.17 0.25 -0.18 0.28 -0.19 0.29 -0.19 0.33 -0.19 0.34 -0.19 0.39 -0.11 0.24c-0.25,0.61 -0.82,2.02 -0.88,3.72l0 0.17c0.01,2.37 1.53,4.75 4.59,6.59 6.31,3.79 16.75,3.9 23.32,0.23 3.39,-1.88 5.09,-4.4 5.08,-6.92 -0.01,-0.16 -0.01,-0.38 -0.02,-0.54z"/>
   <path class="fil3" d="M11.42 73.92c-1.27,-1.33 -0.11,-3.33 0.04,-3.47l0.06 -0.01c-2.23,-0.44 -4.31,-1.19 -6.06,-2.24 -0.72,-0.43 -1.34,-0.89 -1.88,-1.38l0.02 0.03c0.11,0.16 0.49,3.24 -1.14,3.19 0.6,0.56 1.31,1.1 2.13,1.59 2.02,1.22 4.47,2.05 7.07,2.51l-0.24 -0.22z"/>
   <path class="fil3" d="M2.47 70.05l0 1.98c0.43,0.4 0.9,0.78 1.44,1.14l-0.01 -1.98c-0.53,-0.36 -1.01,-0.74 -1.43,-1.14z"/>
   <path class="fil3" d="M3.9 71.19l0.01 1.98c0.22,0.15 0.45,0.3 0.69,0.44 1.35,0.82 2.9,1.47 4.57,1.94l-0.01 -1.98c-1.66,-0.48 -3.21,-1.12 -4.57,-1.94 -0.24,-0.14 -0.47,-0.29 -0.69,-0.44z"/>
   <path class="fil3" d="M9.16 73.57l0.01 1.98c0.81,0.23 1.64,0.42 2.5,0.57l-0.01 -1.98c-0.85,-0.15 -1.69,-0.34 -2.5,-0.57z"/>
   <path class="fil4" d="M24.54 70.49c-0.59,-0.09 -2.44,0.39 -2.92,0.67 -0.15,0.09 -1.07,0.82 -0.65,1.41 0.81,1.13 4.54,0.21 4.71,-1.16 0.02,-0.17 -0.01,-0.73 -1.14,-0.92z"/>
   <path class="fil3" d="M28.38 65.38c-0.62,0.6 -1.4,1.17 -2.32,1.68 -2.55,1.43 -5.79,2.17 -9.06,2.25 -1.65,0.03 -3.31,-0.1 -4.88,-0.4 -2.07,-0.39 -4.01,-1.07 -5.62,-2.05l-0.15 -0.08c-0.35,-0.22 -0.68,-0.45 -0.99,-0.69 -1.72,-1.34 -2.62,-2.92 -2.71,-4.51 -0.08,-1.52 0.58,-3.05 1.97,-4.39 0.62,-0.6 1.38,-1.15 2.28,-1.66 1.24,-0.69 2.65,-1.22 4.14,-1.59 5.14,-1.29 11.33,-0.68 15.43,1.79 1.97,1.18 3.18,2.63 3.64,4.14 0.28,0.92 0.28,1.86 0.01,2.78 -0.29,0.95 -0.87,1.88 -1.74,2.73zm3.15 -4.9c-0.51,-1.67 -1.84,-3.26 -4.02,-4.57 -4.53,-2.73 -11.36,-3.4 -17.04,-1.98 -1.64,0.41 -3.19,1 -4.56,1.76 -1,0.56 -1.84,1.17 -2.52,1.83 -1.54,1.48 -2.27,3.17 -2.18,4.84 0.1,1.76 1.09,3.51 3,4.99 0.33,0.26 0.7,0.51 1.09,0.76l0.16 0.09c1.78,1.08 3.92,1.83 6.21,2.27 1.74,0.33 3.56,0.47 5.38,0.43 3.61,-0.08 7.2,-0.91 10.01,-2.48 1.02,-0.56 1.87,-1.19 2.56,-1.86 0.96,-0.94 1.6,-1.96 1.92,-3.01 0.3,-1.02 0.3,-2.06 -0.01,-3.07z"/>
   <path class="fil2" d="M28.88 51.87l-0.02 -0.31 -0.04 -0.36 -0.06 -0.34 -0.09 -0.42 -0.11 -0.37c-0.06,-0.14 -0.13,-0.34 -0.18,-0.48l-0.19 -0.4c-0.09,-0.16 -0.2,-0.38 -0.3,-0.54l-0.28 -0.41c-0.14,-0.2 -0.34,-0.45 -0.49,-0.63l-0.4 -0.42 -0.27 -0.25c1.48,1.41 1.99,3.07 1.52,4.65 -0.4,1.38 -1.55,2.7 -3.42,3.74 -4.66,2.6 -12.06,2.53 -16.53,-0.16 -1.67,-1.01 -2.69,-2.24 -3.08,-3.52 -0.47,-1.56 0.01,-3.2 1.45,-4.61 -0.71,0.7 -2.04,2.12 -2.31,4.3l-0.03 0.31 -0.01 0.29 0 0.28 0.01 0.31 0.03 0.24 0.03 0.26 0.04 0.2 0.05 0.21 0.03 0.14 0.04 0.13c0,-0.02 -0.03,-0.12 -0.04,-0.28 0.01,0.16 0.04,0.26 0.04,0.28 0.41,1.35 1.5,2.65 3.26,3.72 4.73,2.84 12.56,2.92 17.49,0.17 1.99,-1.1 3.2,-2.5 3.63,-3.96l0.04 -0.13 0.03 -0.15 0.05 -0.19 0.04 -0.22 0.03 -0.23 0.02 -0.26 0.02 -0.27 0 -0.32z"/>
   <path class="fil3" d="M14 59.47c-1.29,-0.28 -2.48,-1.44 -1.4,-2.23l0.21 -0.15 0.28 -0.14c-1.87,-0.32 -3.62,-0.91 -5.07,-1.78 -0.81,-0.49 -1.46,-1.03 -1.97,-1.6l0.18 0.44c0.4,1.06 0.48,1.28 0.33,1.64 -0.13,0.32 -0.76,0.23 -1.04,0.1l-0.16 -0.11c0.55,0.64 1.27,1.24 2.17,1.79 1.84,1.1 4.16,1.79 6.58,2.06l-0.11 -0.02z"/>
   <path class="fil0" d="M4.09 52.47l0 0.11 0 -0.11zm0.56 -2.13l0.04 -0.08 -0.04 0.08zm-0.07 0.12l0.06 -0.1 -0.06 0.1zm-0.05 0.11l0.04 -0.08 -0.04 0.08zm-0.05 0.11l0.04 -0.08 -0.04 0.08zm-0.06 0.13l0.05 -0.1 -0.05 0.1zm-0.04 0.11l0.03 -0.09 -0.03 0.09zm-0.04 0.11l0.03 -0.08 -0.03 0.08zm-0.04 0.13l0.03 -0.11 -0.03 0.11zm-0.04 0.11l0.03 -0.08 -0.03 0.08zm-0.03 0.12l0.02 -0.09 -0.02 0.09zm-0.03 0.12l0.03 -0.1 -0.03 0.1zm-0.02 0.11l0.01 -0.08 -0.01 0.08zm-0.03 0.12l0.02 -0.09 -0.02 0.09zm-0.02 0.13l0.02 -0.11 -0.02 0.11zm-0.01 0.11l0.01 -0.08 -0.01 0.08zm-0.02 0.12l0.01 -0.09 -0.01 0.09zm0 0.12l0 -0.1 0 0.1zm-0.01 0.11l0.01 -0.08 -0.01 0.08zm0 0.13l0 -0.1 0 0.1zm0.11 0.97l0 0.01 0.01 0.03 -0.01 -0.04zm27.44 2.76c-1.15,-2 -2.29,-4.01 -3.44,-6.02 1.45,2.54 0.38,5.45 -3.18,7.43 -4.93,2.75 -12.76,2.67 -17.49,-0.17 -1.77,-1.07 -2.86,-2.38 -3.26,-3.74l0 0.02 -0.01 -0.04 -0.01 -0.03 -0.02 -0.09 -0.01 -0.01 -0.02 -0.1c-0.06,-0.24 -0.1,-0.45 -0.12,-0.64 -0.04,-0.44 -0.05,-0.66 -0.03,-1.16l0.03 -0.3c-0.93,1.65 -1.85,3.29 -2.78,4.94 -1.77,3.14 -0.57,6.73 3.66,9.27 6.1,3.68 16.21,3.78 22.57,0.23 4.59,-2.56 5.98,-6.31 4.11,-9.59zm-27.54 -3.5l-0.01 -0.08 0.01 0.08zm0.01 0.24l-0.01 -0.21 0.01 0.21zm0.02 0.12l-0.01 -0.09 0.01 0.09zm0.02 0.13l-0.02 -0.1 0.02 0.1zm0.02 0.11l-0.02 -0.1 0.02 0.1zm0.02 0.11l-0.02 -0.08 0.02 0.08z"/>
   <path class="fil0" d="M32.53 59.17c-0.01,-0.16 -0.03,-0.38 -0.05,-0.54l-0.07 -0.43c-0.05,-0.17 -0.1,-0.4 -0.15,-0.57l-0.15 -0.44 -0.08 -0.19c1.23,3.07 -0.29,6.43 -4.5,8.78 -0.78,0.44 -1.61,0.82 -2.48,1.14 -5.22,1.93 -11.91,1.94 -17.1,0.05 -1.07,-0.39 -2.08,-0.87 -2.99,-1.42 -3.78,-2.27 -5.14,-5.38 -4.12,-8.26l-0.05 0.12c-0.22,0.68 -0.35,1.36 -0.38,2.05 0,0.19 0.02,0.45 0.03,0.65 0.01,0.16 0.04,0.38 0.06,0.54l0.08 0.42c0.05,0.17 0.11,0.39 0.16,0.56l0.16 0.43c0.07,0.17 0.18,0.41 0.26,0.58l0.25 0.45c0.12,0.19 0.29,0.45 0.42,0.64l0.36 0.47c0.2,0.23 0.47,0.53 0.69,0.74l0.54 0.5c0.71,0.57 0.88,0.7 1.77,1.27l0.83 0.46c0.33,0.16 0.78,0.39 1.12,0.54l0.96 0.38 0.09 0.03 -0.16 -0.13 0.16 0.13c5.05,1.84 11.56,1.84 16.62,-0.04 0.29,-0.12 0.66,-0.27 0.94,-0.38 0.47,-0.22 1.09,-0.52 1.54,-0.76l0.73 -0.43c0.8,-0.54 1.28,-0.86 2.09,-1.64l0.43 -0.45c0.19,-0.23 0.44,-0.53 0.61,-0.77l0.3 -0.44c0.11,-0.19 0.26,-0.45 0.36,-0.66l0.2 -0.42c0.07,-0.18 0.16,-0.41 0.22,-0.59l0.12 -0.42c0.03,-0.17 0.08,-0.39 0.11,-0.56l0.06 -0.42c0.01,-0.17 0.02,-0.38 0.02,-0.55l-0.01 -0.42z"/>
   <path class="fil3" d="M6.43 56.66l-2.9 7.91c0.43,0.34 0.9,0.67 1.43,0.98l0.04 0.03 2.57 -8.13 -0.04 -0.02c-0.4,-0.25 -0.77,-0.5 -1.1,-0.77z"/>
   <path class="fil3" d="M7.57 57.45l-2.57 8.13c1,0.59 2.09,1.09 3.26,1.5l1.84 -8.47c-0.91,-0.32 -1.76,-0.7 -2.53,-1.16z"/>
   <path class="fil3" d="M10.1 58.61l-1.84 8.47c0.87,0.3 1.77,0.54 2.7,0.74l1.22 -8.64c-0.72,-0.15 -1.41,-0.34 -2.08,-0.57z"/>
   <path class="fil4" d="M22.64 56.94c-0.51,-0.16 -4.36,0.54 -4.57,1.09l0 0.15c0.4,0.75 4.49,-0.1 4.76,-0.98l-0.01 -0.16 -0.18 -0.1z"/>
   <path class="fil4" d="M18.59 59.5l0.78 8.72c0,0 2.62,0.43 5.56,-1.1l-1.96 -8.59c0,0 -1.63,0.74 -4.38,0.97z"/>
   <path class="fil3" d="M24.89 45.76c-4.47,-2.69 -11.87,-2.77 -16.53,-0.17 -4.66,2.6 -4.81,6.89 -0.34,9.58 4.47,2.69 11.87,2.76 16.53,0.16 4.65,-2.59 4.81,-6.88 0.34,-9.57z"/>
   <path class="fil0" d="M10.82 27.87c0.04,0.02 0.37,0.23 0.86,0.43 0.33,0.15 0.38,0.16 0.99,0.37 0.16,0.05 0.39,0.11 0.56,0.15 0.17,0.04 0.39,0.09 0.56,0.12 0.18,0.04 0.41,0.07 0.58,0.1 0.28,0.05 1.01,0.13 1.84,0.14 0.62,0.01 1.24,-0.03 1.86,-0.1 0.83,-0.11 1.54,-0.29 1.74,-0.35 0.68,-0.19 1.3,-0.44 1.53,-0.56 0.54,-0.28 0.54,-0.28 0.82,-0.46 0.27,-0.18 0.41,-0.3 0.61,-0.48 0,0 0.22,-0.2 0.4,-0.45 0.14,-0.2 0.19,-0.31 0.23,-0.45 -0.01,0.05 0,0.22 0.01,0.41 0.03,0.51 0.07,1.2 0.11,1.71 0.07,0.94 0.14,1.91 0.3,3.39 0.18,1.58 0.31,2.46 0.41,3.23 0.15,1.09 0.22,1.5 0.48,3.03 0.28,1.68 0.77,4.1 1.02,5.2 0.25,1.14 0.79,3.53 1.44,5.74 0.59,1.99 -0.48,4.11 -3.19,5.62 -4.33,2.42 -11.22,2.35 -15.38,-0.15 -2.47,-1.49 -3.43,-3.51 -2.87,-5.41 0.13,-0.47 0.32,-1.17 0.37,-1.36 0.46,-1.77 0.7,-2.84 1.04,-4.4 0.28,-1.28 0.75,-3.67 0.99,-5.21 0.25,-1.57 0.56,-3.53 0.85,-6.28 0.17,-1.61 0.24,-2.68 0.29,-3.39 0.03,-0.52 0.07,-1.22 0.1,-1.73 0.01,-0.25 0,-0.31 -0.01,-0.39 0.1,0.36 0.4,0.67 0.56,0.84 0.13,0.14 0.4,0.38 0.9,0.69z"/>
   <path class="fil3" d="M27.05 48.63c-0.16,-0.58 -0.16,-0.59 -0.26,-0.95l-0.17 -0.65c-0.06,-0.23 -0.14,-0.54 -0.2,-0.78l-0.22 -0.88c-0.07,-0.3 -0.16,-0.69 -0.23,-0.99l-0.24 -1.08c-0.08,-0.36 -0.18,-0.83 -0.26,-1.19l-0.25 -1.26c-0.08,-0.4 -0.19,-0.94 -0.26,-1.35l-0.25 -1.4c-0.08,-0.45 -0.18,-1.05 -0.25,-1.5l-0.23 -1.53c-0.06,-0.48 -0.15,-1.12 -0.21,-1.6l-0.2 -1.63c-0.05,-0.51 -0.12,-1.19 -0.17,-1.7l-0.13 -1.69c-0.04,-0.52 -0.09,-1.23 -0.11,-1.75l-0.01 -0.12 0 -0.25 -0.03 0.1 -0.09 0.18 -0.11 0.17 -0.2 0.25 -0.2 0.2 -0.31 0.26 -0.3 0.22 -0.42 0.25 -0.4 0.21c-0.15,0.07 -0.35,0.16 -0.5,0.22l-0.48 0.17c-0.17,0.05 -0.38,0.13 -0.55,0.17l-0.55 0.14c-0.18,0.03 -0.41,0.09 -0.59,0.12l-0.6 0.09c-0.18,0.01 -0.43,0.04 -0.61,0.06l-0.62 0.03c-0.19,0.01 -0.44,0.01 -0.63,0.01l-0.62 -0.02c-0.19,-0.01 -0.43,-0.03 -0.62,-0.05l-0.6 -0.07c-0.18,-0.03 -0.41,-0.07 -0.59,-0.1l-0.55 -0.12c-0.17,-0.05 -0.39,-0.1 -0.56,-0.15l-0.49 -0.17c-0.15,-0.06 -0.35,-0.13 -0.5,-0.2l-0.41 -0.19 -0.45 -0.24 -0.32 -0.21 -0.37 -0.28 -0.21 -0.2 -0.24 -0.26 -0.11 -0.15 -0.02 -0.03 0.02 0.03c2.63,4.2 -1.81,26.94 -1.91,27.09 0.28,0.22 0.6,0.44 0.94,0.65 1.2,0.72 2.62,1.24 4.15,1.55l-0.05 -0.19c-0.01,-0.16 1.54,-25.24 1.57,-25.32 0.22,-0.61 0.22,-0.61 4.12,-1.37 2.58,-0.51 3.91,-1.42 4.58,-2.1l0.14 -0.14c0.13,0 0.13,0 0.23,1.53 0.23,3.22 0.65,7.73 1.9,14.16 0.68,3.49 1.19,5.45 1.97,8.41 0.17,-0.66 0.16,-1.34 -0.04,-2l-0.04 -0.14 -0.08 -0.27z"/>
   <path class="fil2" d="M26.45 46.94c-0.17,-0.16 -0.35,-0.33 -0.55,-0.48 0.17,0.14 0.37,0.31 0.55,0.48z"/>
   <polygon class="fil2" points="6.39,47.04 6.43,46.99 "/>
   <polygon class="fil2" points="6.53,46.9 6.43,46.99 6.72,46.73 "/>
   <path class="fil0" d="M8.77 27.53c0.89,0.56 2.14,1.02 2.72,1.18 0.53,0.16 1.05,0.3 1.5,0.38 0.23,0.04 0.54,0.1 0.78,0.13 1.02,0.12 1.02,0.12 1.59,0.16 0.5,0.03 0.5,0.03 1.6,0.01 0.24,0 0.57,-0.03 0.81,-0.04 0.44,-0.03 0.89,-0.1 1.58,-0.2 0,0 0.71,-0.11 1.54,-0.34 0.44,-0.13 1.01,-0.32 1.44,-0.49 0.89,-0.35 1.83,-0.89 2.26,-1.21 0.3,-0.23 0.7,-0.54 0.96,-0.81 0.26,-0.27 0.58,-0.61 0.88,-1.12 0.59,-0.98 0.68,-1.73 0.75,-2.22 0.02,-0.19 0.13,-1.17 -0.13,-2.58 0.02,0.1 -3.01,1.8 -5.44,3.15 -4.17,2.33 -6.3,1.47 -10.3,-0.94 0.08,-4.18 -5.36,-2.4 -5.63,-2.15 -0.57,0.54 -0.18,1.64 -0.13,2.31 0.07,0.88 0.27,1.45 0.46,1.89 0.12,0.28 0.32,0.62 0.5,0.87 0.25,0.35 0.3,0.41 0.72,0.84 0.26,0.28 0.67,0.58 0.97,0.81 0.16,0.12 0.4,0.26 0.57,0.37z"/>
   <path class="fil3" d="M23.06 12.25c-3.7,-2.13 -9.67,-2.14 -13.34,-0.02 -3.67,2.12 -3.65,5.57 0.04,7.7 3.69,2.13 9.67,2.15 13.34,0.02 3.67,-2.12 3.65,-5.56 -0.04,-7.7z"/>
   <path class="fil3" d="M22.92 17.12l6.25 -3.6c-0.68,-0.8 -1.59,-1.54 -2.74,-2.2 -1.18,-0.68 -2.51,-1.22 -3.93,-1.62l-6.22 3.59 -6.22 -3.59c-1.39,0.39 -2.7,0.91 -3.86,1.58 -1.15,0.67 -2.06,1.42 -2.73,2.22l6.22 3.6 -6.22 3.59c0.69,0.82 1.62,1.59 2.8,2.27 1.14,0.66 2.43,1.18 3.81,1.58l6.25 -3.61 6.31 3.65c1.4,-0.39 2.7,-0.92 3.86,-1.58l0 -0.01c1.15,-0.66 2.06,-1.41 2.74,-2.22l-6.32 -3.65z"/>
   <path class="fil3" d="M23.09 14.84l6.4 -3.7c-0.69,-0.81 -1.63,-1.58 -2.8,-2.25 -1.21,-0.7 -2.57,-1.25 -4.03,-1.66l-6.38 3.68 -6.38 -3.68c-1.43,0.4 -2.77,0.94 -3.96,1.62 -1.18,0.68 -2.11,1.46 -2.8,2.28l6.38 3.69 -6.38 3.68c0.71,0.84 1.66,1.63 2.87,2.33 1.17,0.68 2.5,1.21 3.91,1.62l6.41 -3.71 6.47 3.75c1.43,-0.4 2.77,-0.94 3.96,-1.62 1.18,-0.69 2.11,-1.46 2.81,-2.29l-6.48 -3.74z"/>
   <path class="fil3" d="M2.31 12.97l1.16 7.72c-0.68,-0.84 -1.09,-1.74 -1.25,-2.65 -0.46,-2.69 -0.92,-5.39 -1.39,-8.09 0.18,1.04 0.67,2.06 1.48,3.02z"/>
   <path class="fil0" d="M22.92 17.19l0.2 -0.06 -0.47 7.43c-0.39,0.12 -0.81,0.22 -1.22,0.32 -0.45,0.1 -0.9,0.18 -1.36,0.26 -0.31,0.04 -0.62,0.09 -0.94,0.12 -0.46,0.06 -0.93,0.1 -1.41,0.13 -2.37,0.13 -4.79,-0.08 -7.01,-0.63 -0.2,-0.05 -0.39,-0.1 -0.59,-0.16l-0.04 -0.01 0.01 0 -0.39 -7.39c0.15,0.04 0.29,0.08 0.44,0.11 2.43,0.61 5.09,0.84 7.69,0.69 0.68,-0.04 1.36,-0.1 2.03,-0.2 0.18,-0.02 0.36,-0.05 0.54,-0.08 0.17,-0.02 0.34,-0.05 0.5,-0.08 0.17,-0.03 0.34,-0.06 0.51,-0.1 0.16,-0.03 0.32,-0.06 0.49,-0.1l0.01 0c0.17,-0.04 0.33,-0.08 0.48,-0.12 0.18,-0.04 0.35,-0.08 0.53,-0.13z"/>
   <polygon class="fil0" points="23.12,17.13 23.28,17.08 23.12,17.13 "/>
   <path class="fil0" d="M25.95 16.1c0.15,-0.06 0.3,-0.14 0.45,-0.21l-0.2 0.1 -0.25 0.11z"/>
   <path class="fil0" d="M31.84 9.86l-1.34 8.1c-0.22,1.35 -1.01,2.67 -2.37,3.83l2.2 -8.82 -0.01 0c0.84,-0.98 1.34,-2.04 1.52,-3.11z"/>
   <path class="fil0" d="M22.92 17.19l0.2 -0.06 -0.47 7.43c-0.39,0.12 -0.81,0.22 -1.22,0.32 -0.45,0.1 -0.9,0.18 -1.36,0.26 -0.31,0.04 -0.62,0.09 -0.94,0.12 -0.46,0.06 -0.93,0.1 -1.41,0.13l0.11 -7.39c0.68,-0.04 1.36,-0.1 2.03,-0.2 0.18,-0.02 0.36,-0.04 0.54,-0.08 0.17,-0.02 0.34,-0.05 0.5,-0.08 0.17,-0.03 0.34,-0.06 0.51,-0.1 0.16,-0.03 0.32,-0.06 0.49,-0.1l0.01 0c0.16,-0.04 0.32,-0.08 0.48,-0.12 0.18,-0.04 0.35,-0.08 0.53,-0.13z"/>
   <path class="fil3" d="M10.71 24.93c-0.2,-0.05 -0.39,-0.27 -0.59,-0.33l-0.04 -0.01 0.01 0 -0.64 -7.46 0.25 0.07c0.15,0.04 0.29,0.07 0.44,0.11l0.57 7.62z"/>
   <path class="fil0" d="M8.77 27.53c0.89,0.56 2.14,1.02 2.72,1.18 0.53,0.16 1.05,0.3 1.5,0.38 0.23,0.04 0.54,0.1 0.78,0.13 1.02,0.12 1.02,0.12 1.59,0.16 0.5,0.03 0.5,0.03 1.6,0.01 0.24,0 0.57,-0.03 0.81,-0.04 0.44,-0.03 0.89,-0.1 1.58,-0.2 0,0 0.71,-0.11 1.54,-0.34 0.44,-0.13 1.01,-0.32 1.44,-0.49 0.89,-0.35 1.83,-0.89 2.26,-1.21 0.3,-0.23 0.7,-0.54 0.96,-0.81 0.26,-0.27 0.58,-0.61 0.88,-1.12 0.59,-0.98 0.68,-1.73 0.75,-2.22 0.02,-0.19 0.13,-1.17 -0.13,-2.58 0.02,0.1 0.36,1.93 -0.27,2.3 0.33,1.8 -0.73,3.67 -3.16,5.02 -4.17,2.33 -10.79,2.26 -14.79,-0.15 -2.22,-1.33 -3.16,-3.1 -2.86,-4.81 -0.63,-0.36 -0.3,-2.2 -0.29,-2.3 -0.13,0.78 -0.18,1.64 -0.13,2.31 0.07,0.88 0.27,1.45 0.46,1.89 0.12,0.28 0.32,0.62 0.5,0.87 0.25,0.35 0.3,0.41 0.72,0.84 0.26,0.28 0.67,0.58 0.97,0.81 0.16,0.12 0.4,0.26 0.57,0.37z"/>
   <path class="fil5" d="M5.07 20.88c0.52,1.02 1.45,1.98 2.81,2.79 4.49,2.71 11.94,2.78 16.63,0.17 1.54,-0.86 2.6,-1.91 3.15,-3.03l-0.97 1.96c-0.51,1.02 -1.47,1.98 -2.88,2.77 -4.28,2.38 -11.08,2.31 -15.19,-0.16 -1.24,-0.74 -2.09,-1.62 -2.56,-2.55 -0.33,-0.65 -0.66,-1.3 -0.99,-1.95z"/>
   <path class="fil6" d="M5.91 7.19l-3.6 -2.08c-2.06,2.47 -2.07,5.36 -0.03,7.84l0.03 -0.01 3.6 -2.08c-0.63,-1.19 -0.62,-2.47 0,-3.67z"/>
   <path class="fil6" d="M23.08 0.94l0.07 -0.04c-4.29,-1.2 -9.36,-1.2 -13.67,0.03l0.01 0.01 0 0 3.58 2.07c2.1,-0.39 4.37,-0.4 6.47,-0.03l3.54 -2.04 0 0z"/>
   <path class="fil6" d="M13.13 15.06l0 0 -3.62 2.09c4.27,1.2 9.32,1.2 13.61,-0.02l-3.6 -2.08c-2.08,0.37 -4.31,0.37 -6.39,0.01z"/>
   <path class="fil7" d="M5.91 7.19l0.79 4.79c-1.36,-1.48 -1.61,-3.21 -0.79,-4.79z"/>
   <path class="fil0" d="M20.71 12.03l3.71 1.21c-0.17,0.11 -0.35,0.22 -0.54,0.32 -1.28,0.71 -2.78,1.21 -4.36,1.49 -2.78,0.5 -5.83,0.33 -8.41,-0.49 -0.59,-0.18 -1.16,-0.4 -1.69,-0.65l3.07 -2.76 0 0 0.58 -8.14 0.21 -0.04c0.19,-0.04 0.39,-0.07 0.58,-0.09 0.16,-0.02 0.32,-0.04 0.47,-0.06l0.13 -0.01c1.69,-0.17 3.44,-0.12 5.08,0.17l0.61 8.14 0.56 0.91z"/>
   <path class="fil3" d="M23.23 12.35c-3.64,-2.19 -9.67,-2.25 -13.46,-0.13 -0.59,0.32 -1.08,0.68 -1.49,1.06l0.2 0.12c4.16,2.51 11.05,2.58 15.4,0.16 0.19,-0.1 0.37,-0.21 0.54,-0.32 -0.34,-0.32 -0.74,-0.61 -1.19,-0.89z"/>
   <path class="fil8" d="M12.66 3.09l0.18 -0.04c-0.15,0.03 -0.31,0.06 -0.46,0.09l0.28 -0.05z"/>
   <path class="fil0" d="M14.72 10.75c-0.54,0.06 -1.06,0.14 -1.58,0.25l-0.24 0.05c-0.14,0.03 -0.28,0.07 -0.41,0.1l0 0 0.58 -8.14 -0.23 0.04 0.22 -0.04 0.22 -0.04c0.19,-0.04 0.39,-0.07 0.58,-0.09 0.16,-0.02 0.32,-0.04 0.47,-0.06l0.13 -0.01 0 0 0.26 7.94z"/>
   <path class="fil0" d="M0.9 57.13c0.06,-0.15 0.12,-0.3 0.19,-0.45 -0.06,0.13 -0.13,0.29 -0.19,0.45z"/>
   <polygon class="fil0" points="0.84,57.29 0.9,57.13 "/>
   <polygon class="fil0" points="32.03,57 31.92,56.73 "/>
   <polygon class="fil0" points="31.92,56.73 31.85,56.59 "/>
   <path class="fil3" d="M22.6 28.21c-3.58,1.47 -6.91,1.21 -8.18,1.02 -4.07,-0.59 -3.53,-2.7 -3.51,-2.72l0.21 -0.01c-0.87,-0.28 -1.69,-0.64 -2.43,-1.07l0.17 0.13 0.1 0.07c0,0.02 -0.55,1.5 -1.62,0.79 -0.12,-0.08 -0.24,-0.2 -0.4,-0.36l0.42 0.42c0.56,0.48 0.7,0.6 1.41,1.05l0.62 0.35c0.21,0.09 0.47,0.23 0.68,0.32l0.69 0.27c0.22,0.07 0.51,0.18 0.72,0.24l0.74 0.21c0.23,0.05 0.54,0.12 0.77,0.17l0.78 0.13c0.23,0.03 0.55,0.07 0.79,0.09l0.79 0.07c0.25,0 0.57,0.02 0.81,0.02l0.8 -0.01c0.24,-0.01 0.57,-0.02 0.81,-0.04l0.79 -0.08c0.24,-0.04 0.55,-0.08 0.79,-0.12l0.77 -0.15c0.23,-0.06 0.53,-0.13 0.76,-0.19l0.73 -0.23c0.22,-0.07 0.51,-0.17 0.72,-0.26l0.68 -0.29c0.2,-0.11 0.46,-0.24 0.66,-0.34l0.32 -0.19c-0.19,0.11 -0.44,0.25 -0.63,0.35 -0.23,0.11 -0.53,0.26 -0.76,0.36z"/>
   <path class="fil3" d="M8.3 23.91l0.7 1.69c0.58,0.32 1.22,0.6 1.88,0.82l-0.52 -1.61c-0.73,-0.25 -1.42,-0.55 -2.06,-0.9z"/>
   <path class="fil4" d="M17.54 56.4c0,0 0.33,-21.34 1.32,-23.21 0.99,-1.87 2.76,15.38 3.28,18.15 0.52,2.77 0.67,3.89 0.67,3.89 0,0 -1.52,0.94 -5.27,1.17z"/>
   <path class="fil4" d="M22.28 26.1c0.22,-0.02 0.36,0.23 0.22,0.41 -0.24,0.29 -0.73,0.67 -1.68,0.9 -1.76,0.44 -2.36,0.08 -2.35,-0.25 0,-0.18 0.92,-0.78 3.81,-1.06z"/>
   <polygon class="fil9" points="5.91,10.86 6.7,11.98 8.28,18.66 3.47,20.69 2.31,12.94 "/>
   <polygon class="fil3" points="9.49,0.94 10.06,9.7 12.49,11.15 13.07,3.01 "/>
   <polygon class="fil5" points="19.54,2.98 20.15,11.12 22.5,9.7 23.15,0.9 "/>
   <path class="fil3" d="M3.14 18.5c0,0 1.28,2.22 6.78,3.95l0.79 2.48c0,0 -4.39,-1.36 -7.24,-4.24 -0.43,-1.87 -0.33,-2.19 -0.33,-2.19z"/>
   <path class="fil0" d="M29.01 18.26c0,0 -1.83,2.93 -6.21,4.23 -4.38,1.3 -0.15,2.07 -0.15,2.07 0,0 2.63,-0.45 5.48,-2.77 1.19,-1.87 0.88,-3.53 0.88,-3.53z"/>
   <path class="fil6" d="M22.66 7.23l-2.68 1.55 6.2 4.28 0.55 -2.16c0,0 0.43,-0.61 0.49,-1.69 -2.38,-1.48 -4.56,-1.98 -4.56,-1.98z"/>
   <polygon class="fil3" points="26.77,7.18 26.18,13.06 27.66,11.15 28.13,7.93 "/>
   <path class="fil6" d="M30.39 5.09l-0.03 0.02 0 0 -3.59 2.07c0.63,1.21 0.61,2.51 -0.04,3.72l3.6 2.07c2.09,-2.47 2.12,-5.39 0.06,-7.88z"/>
   <polygon class="fil9" points="26.73,10.9 24.53,19.71 28.13,21.79 30.33,12.97 "/>
   <path class="fil6" d="M29.01 18.26l-3.6 -2.07 -2.29 0.94 -0.33 5.37c0,0 6.25,-1.99 6.22,-4.24z"/>
   <path class="fil9" d="M25.6 15.41c0,0 0.07,-2.7 -5.45,-4.29 -0.17,-2.34 -0.17,-2.34 -0.17,-2.34 0,0 6.31,2.2 6.2,4.28l-0.58 2.35z"/>
   <path class="fil7" d="M7.03 13.38c0.29,1.22 0.29,1.22 0.29,1.22 0,0 1.27,-2.37 5.17,-3.45l0.17 -2.37c0,0 -5.79,1.83 -5.63,4.6z"/>
   <path class="fil6" d="M12.66 8.78l-2.76 -1.55c0,0 -2.52,0.61 -3.73,1.49 0.16,1.01 0.86,4.66 0.86,4.66 0,0 -0.47,-2.48 5.63,-4.6z"/>
   <path class="fil6" d="M3.14 18.5l4.52 -2.57c0,0 -0.15,1.22 1.88,1.88 0.02,0.28 0.38,4.64 0.38,4.64 0,0 -5.65,-1.5 -6.78,-3.95z"/>
   <path class="fil10" d="M32.42 59.61c0.03,0.93 -0.26,1.86 -0.72,2.68 -0.5,0.79 -1.12,1.52 -1.83,2.14 -1.41,1.24 -3.1,2.12 -4.83,2.8 -1.76,0.63 -3.59,1.08 -5.46,1.2 -1.85,0.14 -3.73,0.04 -5.53,-0.33 3.67,0.24 7.37,-0.11 10.77,-1.44 1.71,-0.61 3.33,-1.47 4.75,-2.59 1.41,-1.1 2.65,-2.59 2.85,-4.46z"/>
  </g>
 </g>
</svg>
